<?xml version="1.0" standalone="yes"?><svg version="1.1" xmlns = 'http://www.w3.org/2000/svg'><defs><font id='web' horiz-adv-x="1000">
<font-face font-family="web" descent="-444" cap-height="1419" units-per-em="2048" bbox="-401,-621,2451,1870" x-height="1010" ascent="1549" />
<missing-glyph horiz-adv-x="2048" d="" /><glyph horiz-adv-x="1180" d="" unicode="‼" />
<glyph horiz-adv-x="1317" d="M 1217 500 L 104 500 L 133 621 L 1245 621 L 1217 500 Z" unicode="–" />
<glyph horiz-adv-x="1755" d="M 1655 500 L 104 500 L 133 621 L 1683 621 L 1655 500 Z" unicode="—" />
<glyph horiz-adv-x="1755" d="" unicode="―" />
<glyph horiz-adv-x="1317" d="" unicode="‗" />
<glyph horiz-adv-x="399" d="M 541 1464 C 395 1392 311 1311 291 1221 L 334 1221 C 370 1221 398 1211 419 1193 C 440 1174 451 1150 451 1120 C 451 1085 437 1054 411 1026 C 385 998 352 985 313 985 C 224 985 180 1030 180 1122 C 180 1282 290 1417 512 1528 L 541 1464 Z" unicode="‘" />
<glyph horiz-adv-x="399" d="M 193 987 L 162 1051 C 307 1122 391 1203 414 1294 L 371 1294 C 291 1294 252 1327 252 1395 C 252 1429 264 1460 290 1488 C 316 1516 349 1530 389 1530 C 477 1530 522 1483 522 1391 C 522 1230 412 1095 193 987 Z" unicode="’" />
<glyph horiz-adv-x="399" d="M -58 -304 L -89 -240 C 56 -168 140 -87 163 3 L 120 3 C 40 3 1 36 1 104 C 1 138 13 169 39 197 C 65 225 98 239 138 239 C 226 239 271 192 271 100 C 271 -60 161 -195 -58 -304 Z" unicode="‚" />
<glyph horiz-adv-x="399" d="" unicode="‛" />
<glyph horiz-adv-x="791" d="M 922 1464 C 777 1393 693 1312 670 1221 L 713 1221 C 791 1221 831 1187 831 1120 C 831 1084 817 1053 791 1026 C 765 998 732 985 692 985 C 603 985 559 1030 559 1122 C 559 1282 669 1417 891 1528 L 922 1464 Z M 551 1464 C 406 1393 322 1312 299 1221 L 342 1221 C 378 1221 407 1211 429 1193 C 450 1174 461 1150 461 1120 C 461 1085 448 1054 422 1026 C 396 998 364 985 324 985 C 234 985 190 1030 190 1122 C 190 1280 300 1416 520 1528 L 551 1464 Z" unicode="“" />
<glyph horiz-adv-x="791" d="M 571 987 L 543 1051 C 689 1123 772 1204 793 1294 L 750 1294 C 672 1294 633 1327 633 1395 C 633 1429 645 1460 671 1488 C 697 1516 730 1530 770 1530 C 858 1530 903 1483 903 1391 C 903 1229 792 1095 571 987 Z M 203 987 L 172 1051 C 317 1122 401 1203 424 1294 L 381 1294 C 301 1294 262 1327 262 1395 C 262 1429 274 1460 300 1488 C 326 1516 359 1530 399 1530 C 487 1530 532 1483 532 1391 C 532 1230 422 1095 203 987 Z" unicode="”" />
<glyph horiz-adv-x="791" d="M 320 -304 L 292 -240 C 438 -168 521 -87 542 3 L 499 3 C 421 3 382 36 382 104 C 382 138 394 169 420 197 C 446 225 479 239 519 239 C 607 239 652 192 652 100 C 652 -61 541 -196 320 -304 Z M -48 -304 L -79 -240 C 66 -168 150 -87 173 3 L 130 3 C 50 3 11 36 11 104 C 11 138 23 169 49 197 C 75 225 108 239 148 239 C 236 239 281 192 281 100 C 281 -60 171 -195 -48 -304 Z" unicode="„" />
<glyph horiz-adv-x="494" d="" unicode=" " />
<glyph horiz-adv-x="678" d="M 367 432 L 289 432 C 311 588 336 774 362 989 L 391 1213 C 401 1289 411 1339 423 1365 C 434 1391 452 1412 478 1430 C 504 1447 533 1456 565 1456 C 633 1456 668 1422 668 1356 C 668 1325 655 1274 630 1204 C 604 1133 517 876 367 432 Z M 272 -20 C 234 -20 202 -6 175 19 C 148 45 135 77 135 115 C 135 152 148 184 175 211 C 202 238 234 252 272 252 C 309 252 341 238 369 211 C 396 184 410 152 410 115 C 410 77 396 45 369 19 C 342 -7 310 -20 272 -20 Z" unicode="!" />
<glyph horiz-adv-x="844" d="M 731 967 L 670 967 C 672 1035 674 1132 676 1256 L 677 1372 C 678 1420 691 1459 715 1487 C 739 1515 773 1530 815 1530 C 876 1530 907 1500 907 1442 C 907 1420 870 1321 798 1143 C 776 1090 754 1031 731 967 Z M 354 967 L 295 967 L 300 1357 C 300 1409 312 1450 336 1482 C 360 1514 395 1530 440 1530 C 501 1530 532 1500 532 1442 C 532 1418 514 1364 480 1280 C 416 1126 374 1022 354 967 Z" unicode="&#x22;" />
<glyph horiz-adv-x="1317" d="M 1180 745 L 948 745 L 854 494 L 1114 494 L 1087 371 L 809 371 L 670 0 L 557 0 L 696 371 L 479 371 L 342 0 L 229 0 L 369 371 L 156 371 L 182 494 L 416 494 L 510 745 L 248 745 L 276 868 L 555 868 L 692 1231 L 803 1231 L 666 868 L 883 868 L 1020 1231 L 1130 1231 L 993 868 L 1208 868 L 1180 745 Z M 618 748 L 522 492 L 743 492 L 842 748 L 618 748 Z" unicode="#" />
<glyph horiz-adv-x="1249" d="M 1012 1130 C 988 1186 931 1217 842 1223 L 731 739 C 865 691 957 642 1008 590 C 1059 538 1085 478 1085 408 C 1085 292 1035 194 937 112 C 839 30 711 -12 555 -18 L 494 -299 L 401 -299 L 469 -20 C 359 -14 270 12 204 62 C 137 112 104 174 104 250 C 104 298 116 338 142 372 C 168 405 200 422 238 422 C 307 422 342 392 342 334 C 342 300 316 247 266 176 C 294 103 366 63 483 55 L 604 578 L 536 605 C 432 643 361 686 323 733 C 285 779 266 835 266 899 C 266 1011 315 1105 413 1181 C 511 1257 630 1296 770 1296 L 821 1524 L 913 1524 L 858 1296 C 960 1286 1040 1257 1097 1211 C 1153 1165 1182 1112 1182 1053 C 1182 1013 1171 978 1150 949 C 1128 919 1101 905 1067 905 C 994 905 958 933 958 989 C 958 1008 971 1045 997 1099 L 1012 1130 Z M 754 1221 C 659 1221 585 1198 531 1154 C 477 1110 451 1050 451 975 C 451 929 462 891 485 861 C 508 830 562 798 647 764 L 754 1221 Z M 688 555 L 571 53 C 673 53 753 78 810 129 C 866 180 895 248 895 332 C 895 394 875 442 835 477 C 795 511 754 534 714 546 C 704 548 695 551 688 555 Z" unicode="$" />
<glyph horiz-adv-x="1673" d="M 465 713 C 375 713 306 737 258 787 C 210 836 186 904 186 991 C 186 1114 225 1222 304 1314 C 382 1406 483 1452 606 1452 C 693 1452 761 1427 811 1377 C 860 1327 885 1258 885 1171 C 885 1041 845 933 765 845 C 685 757 585 713 465 713 Z M 594 1386 C 522 1386 464 1345 419 1265 C 374 1185 352 1085 352 967 C 352 842 394 780 479 780 C 547 780 605 821 651 904 C 697 987 721 1084 721 1196 C 721 1322 678 1386 594 1386 Z M 217 0 L 74 0 L 1530 1423 L 1675 1423 L 217 0 Z M 1141 -31 C 1052 -31 983 -6 934 43 C 884 92 860 160 860 248 C 860 372 900 479 980 571 C 1060 663 1160 709 1282 709 C 1370 709 1438 683 1486 633 C 1534 583 1559 514 1559 428 C 1559 299 1519 190 1440 102 C 1361 13 1261 -31 1141 -31 Z M 1268 641 C 1196 641 1138 600 1093 518 C 1048 436 1026 337 1026 221 C 1026 98 1069 37 1155 37 C 1222 37 1279 78 1325 161 C 1371 244 1395 341 1395 453 C 1395 578 1352 641 1268 641 Z" unicode="%" />
<glyph horiz-adv-x="1454" d="M 1524 834 C 1456 824 1405 812 1369 797 C 1333 782 1304 764 1284 742 C 1264 720 1219 661 1150 563 C 1066 445 998 359 944 305 C 998 221 1045 163 1085 131 C 1125 98 1202 76 1317 66 L 1300 0 L 915 0 L 803 180 C 645 36 501 -35 369 -35 C 264 -35 179 -5 115 53 C 50 111 18 189 18 285 C 18 385 52 474 121 554 C 189 633 299 711 449 788 C 383 906 350 1003 350 1079 C 350 1188 389 1277 469 1347 C 548 1417 644 1452 758 1452 C 842 1452 907 1429 955 1385 C 1002 1341 1026 1285 1026 1217 C 1026 1132 997 1058 939 996 C 881 934 785 871 649 807 C 748 621 833 472 905 360 C 964 424 1019 498 1069 580 C 1119 662 1145 722 1145 758 C 1145 785 1093 810 989 834 L 1006 899 L 1540 899 L 1524 834 Z M 618 862 C 801 948 893 1064 893 1212 C 893 1317 843 1370 743 1370 C 678 1370 627 1347 589 1301 C 551 1255 532 1201 532 1139 C 532 1068 560 976 618 862 Z M 764 236 C 636 447 541 612 479 731 C 319 644 240 518 240 352 C 240 274 260 213 301 167 C 341 121 397 98 469 98 C 573 98 671 144 764 236 Z" unicode="&#x26;" />
<glyph horiz-adv-x="440" d="M 342 967 L 281 967 C 283 1035 285 1132 287 1256 C 287 1337 290 1392 296 1421 C 301 1450 315 1475 337 1497 C 359 1519 388 1530 426 1530 C 487 1530 518 1500 518 1442 C 518 1420 481 1321 409 1143 C 387 1090 365 1031 342 967 Z" unicode="'" />
<glyph horiz-adv-x="768" d="M 895 1450 C 716 1414 571 1274 461 1029 C 350 783 295 514 295 221 C 295 -62 383 -220 559 -254 L 543 -328 C 403 -311 296 -249 220 -141 C 144 -33 106 109 106 289 C 106 611 181 890 331 1126 C 481 1362 673 1498 909 1532 L 895 1450 Z" unicode="(" />
<glyph horiz-adv-x="768" d="M -90 -328 L -76 -248 C 102 -212 246 -72 357 173 C 468 418 524 688 524 983 C 524 1265 436 1424 260 1458 L 276 1532 C 416 1514 524 1451 600 1343 C 675 1235 713 1093 713 915 C 713 593 637 313 487 77 C 337 -158 144 -294 -90 -328 Z" unicode=")" />
<glyph horiz-adv-x="967" d="M 641 1083 C 665 1047 715 989 789 910 C 827 869 846 836 846 811 C 846 793 838 777 822 764 C 806 751 789 745 770 745 C 748 745 732 753 720 770 C 708 787 693 827 675 890 C 656 954 634 1013 610 1067 C 590 1023 568 964 546 890 C 525 823 509 782 498 767 C 487 752 471 745 449 745 C 430 745 413 751 398 764 C 382 777 375 793 375 811 C 375 836 394 869 432 910 C 506 989 555 1047 580 1083 C 524 1077 441 1061 329 1035 C 311 1030 297 1028 287 1028 C 237 1028 213 1052 213 1100 C 213 1146 237 1169 287 1169 C 297 1169 311 1167 329 1163 C 452 1135 536 1120 580 1116 C 552 1156 502 1214 432 1290 C 394 1330 375 1363 375 1389 C 375 1405 382 1420 397 1434 C 412 1447 429 1454 449 1454 C 471 1454 488 1446 499 1431 C 509 1416 525 1376 546 1311 C 568 1237 590 1179 610 1135 C 635 1191 657 1249 675 1311 C 692 1369 706 1408 718 1426 C 729 1444 746 1454 770 1454 C 789 1454 806 1447 822 1434 C 838 1421 846 1406 846 1389 C 846 1363 827 1330 789 1290 C 718 1214 669 1156 641 1116 C 679 1119 762 1135 892 1163 C 910 1167 924 1169 934 1169 C 983 1169 1008 1146 1008 1100 C 1008 1052 983 1028 934 1028 C 924 1028 910 1030 892 1035 C 775 1062 691 1078 641 1083 Z" unicode="*" />
<glyph horiz-adv-x="1317" d="M 748 498 L 748 45 L 621 45 L 621 498 L 170 498 L 170 623 L 621 623 L 621 1073 L 748 1073 L 748 623 L 1198 623 L 1198 498 L 748 498 Z" unicode="+" />
<glyph horiz-adv-x="553" d="M 43 -354 L 12 -287 C 166 -204 261 -108 295 2 L 248 2 C 167 2 127 39 127 113 C 127 150 140 182 168 210 C 196 238 231 252 274 252 C 367 252 414 200 414 98 C 414 12 381 -69 315 -149 C 249 -229 158 -297 43 -354 Z" unicode="," />
<glyph horiz-adv-x="766" d="M 676 469 L 80 469 L 115 621 L 711 621 L 676 469 Z" unicode="-" />
<glyph horiz-adv-x="553" d="M 262 -20 C 224 -20 192 -7 166 19 C 140 45 127 77 127 115 C 127 152 140 184 166 211 C 192 238 224 252 262 252 C 299 252 331 238 358 212 C 385 185 399 153 399 115 C 399 76 385 44 359 18 C 332 -7 300 -20 262 -20 Z" unicode="." />
<glyph horiz-adv-x="961" d="M 23 -424 L -117 -424 L 915 1524 L 1055 1524 L 23 -424 Z" unicode="/" />
<glyph horiz-adv-x="1153" d="M 471 -33 C 343 -33 244 7 175 89 C 106 171 72 286 72 436 C 72 687 134 918 259 1129 C 383 1340 548 1446 754 1446 C 872 1446 965 1404 1033 1321 C 1101 1237 1135 1123 1135 979 C 1135 738 1078 509 965 292 C 852 75 687 -33 471 -33 Z M 922 1063 C 922 1267 864 1370 748 1370 C 608 1370 495 1246 411 998 C 327 750 285 539 285 367 C 285 246 300 162 331 114 C 362 66 411 43 477 43 C 614 43 722 172 802 430 C 882 688 922 899 922 1063 Z" unicode="0" />
<glyph horiz-adv-x="1153" d="M 74 0 L 88 66 C 218 71 297 81 326 97 C 354 112 373 140 383 182 L 641 1268 L 358 1268 L 377 1346 L 477 1346 C 613 1346 725 1379 813 1446 L 895 1446 C 872 1362 852 1285 836 1215 L 598 203 C 594 185 592 172 592 162 C 592 131 605 108 633 94 C 660 79 731 69 846 63 L 829 0 L 74 0 Z" unicode="1" />
<glyph horiz-adv-x="1153" d="M 942 0 L -2 0 L 31 135 C 33 144 67 190 133 272 C 199 354 319 458 494 582 C 652 692 756 790 804 874 C 852 958 877 1047 877 1141 C 877 1211 858 1266 820 1307 C 782 1347 734 1368 674 1368 C 571 1368 497 1338 451 1278 C 453 1248 455 1217 455 1184 C 455 1069 405 1012 307 1012 C 241 1012 209 1040 209 1098 C 209 1187 259 1267 360 1339 C 461 1410 572 1446 692 1446 C 816 1446 914 1415 985 1355 C 1056 1295 1092 1212 1092 1108 C 1092 1002 1060 905 996 818 C 932 730 796 630 590 516 C 380 400 240 286 170 174 L 983 174 L 942 0 Z" unicode="2" />
<glyph horiz-adv-x="1153" d="M 725 772 L 719 756 C 812 745 885 716 937 668 C 989 620 1016 558 1016 483 C 1016 337 954 215 830 117 C 706 19 557 -29 383 -29 C 275 -29 186 -4 117 43 C 47 91 13 150 13 219 C 13 265 25 304 51 336 C 77 368 110 385 150 385 C 220 385 256 356 256 299 C 256 266 242 223 214 170 C 207 157 201 145 197 135 C 239 77 312 49 418 49 C 519 49 608 90 686 174 C 764 257 803 366 803 500 C 803 626 724 690 566 690 L 430 690 L 457 801 L 545 801 C 645 801 726 835 788 905 C 850 974 881 1065 881 1178 C 881 1302 819 1364 697 1364 C 612 1364 541 1335 484 1278 C 484 1193 481 1138 477 1113 C 473 1088 458 1064 433 1042 C 408 1019 372 1008 326 1008 C 267 1008 238 1037 238 1096 C 238 1178 287 1256 385 1330 C 483 1404 603 1442 746 1442 C 859 1442 945 1416 1005 1364 C 1064 1312 1094 1244 1094 1161 C 1094 1071 1062 992 998 923 C 934 853 843 803 725 772 Z" unicode="3" />
<glyph horiz-adv-x="1153" d="M 1073 436 L 864 436 L 762 0 L 569 0 L 672 436 L 29 436 L 70 596 L 950 1440 L 1096 1440 L 893 563 L 1104 563 L 1073 436 Z M 166 563 L 700 563 L 854 1223 L 166 563 Z" unicode="4" />
<glyph horiz-adv-x="1153" d="M 1118 1243 L 483 1243 L 346 817 C 447 879 545 911 641 911 C 747 911 836 881 909 821 C 981 761 1018 678 1018 573 C 1018 409 954 270 828 154 C 701 38 555 -19 389 -19 C 283 -19 195 4 125 50 C 55 96 20 153 20 221 C 20 263 32 300 58 332 C 84 364 116 381 156 381 C 228 381 264 352 264 295 C 264 263 250 221 224 171 C 217 158 211 146 207 135 C 244 84 312 59 412 59 C 514 59 605 107 685 204 C 765 300 805 417 805 555 C 805 627 783 687 740 733 C 697 779 640 803 569 803 C 451 803 350 759 266 672 L 201 698 L 438 1419 L 1161 1419 L 1118 1243 Z" unicode="5" />
<glyph horiz-adv-x="1153" d="M 1054 1456 L 1054 1362 L 964 1352 C 936 1348 878 1326 792 1285 C 706 1244 622 1179 541 1091 C 460 1002 398 895 354 770 C 475 862 603 909 737 909 C 833 909 913 874 978 806 C 1042 738 1075 652 1075 549 C 1075 391 1018 254 906 140 C 793 26 658 -31 501 -31 C 373 -31 272 9 198 90 C 124 170 87 282 87 426 C 87 676 177 900 357 1098 C 537 1295 770 1414 1054 1456 Z M 337 672 C 308 584 294 489 294 387 C 294 159 369 45 520 45 C 613 45 693 91 761 185 C 828 278 862 390 862 520 C 862 606 841 674 800 724 C 758 774 702 799 632 799 C 526 799 428 756 337 672 Z" unicode="6" />
<glyph horiz-adv-x="1153" d="M 1294 1354 L 254 -18 L 123 -18 L 1104 1255 L 633 1255 C 531 1255 464 1251 433 1244 C 401 1237 372 1218 345 1187 C 318 1156 290 1103 262 1028 L 197 1028 L 287 1419 L 1309 1419 L 1294 1354 Z" unicode="7" />
<glyph horiz-adv-x="1153" d="M 812 745 C 977 665 1060 560 1060 428 C 1060 303 1002 195 886 103 C 770 11 628 -35 460 -35 C 329 -35 225 -4 149 58 C 72 120 34 199 34 297 C 34 492 164 637 425 731 C 295 813 231 912 231 1028 C 231 1140 284 1240 392 1326 C 499 1412 625 1456 771 1456 C 883 1456 974 1427 1043 1371 C 1111 1314 1146 1241 1146 1151 C 1146 977 1034 841 812 745 Z M 749 780 C 813 818 864 873 900 943 C 936 1013 954 1087 954 1163 C 954 1230 935 1283 897 1323 C 859 1362 808 1382 743 1382 C 653 1382 578 1353 518 1296 C 458 1238 429 1167 429 1083 C 429 1015 454 959 505 914 C 556 869 637 824 749 780 Z M 489 696 C 318 611 233 480 233 303 C 233 223 257 160 305 112 C 353 64 417 41 497 41 C 603 41 690 72 758 135 C 826 197 860 275 860 369 C 860 433 834 489 782 535 C 730 581 632 635 489 696 Z" unicode="8" />
<glyph horiz-adv-x="1153" d="M 141 -41 L 141 56 L 235 66 C 271 70 337 95 435 143 C 533 190 616 255 686 338 C 755 420 810 517 850 629 C 732 541 605 498 467 498 C 371 498 291 532 228 600 C 164 668 133 754 133 858 C 133 1010 189 1144 302 1261 C 415 1377 550 1436 706 1436 C 832 1436 933 1396 1008 1316 C 1082 1236 1120 1129 1120 996 C 1120 736 1029 508 848 310 C 666 112 431 -4 141 -41 Z M 870 727 C 898 810 913 913 913 1035 C 913 1135 892 1214 851 1273 C 810 1332 756 1362 690 1362 C 587 1362 504 1310 441 1206 C 377 1102 346 992 346 875 C 346 795 366 730 408 682 C 449 633 504 609 573 609 C 686 609 785 648 870 727 Z" unicode="9" />
<glyph horiz-adv-x="786" d="M 475 717 C 437 717 405 730 378 756 C 351 782 338 815 338 854 C 338 891 351 923 378 949 C 405 975 437 989 475 989 C 512 989 544 976 571 950 C 598 924 612 892 612 854 C 612 814 598 782 571 756 C 544 730 512 717 475 717 Z M 309 -20 C 272 -20 240 -7 213 18 C 185 44 172 76 172 115 C 172 153 185 185 213 212 C 240 238 272 252 309 252 C 345 252 376 238 404 212 C 432 186 446 153 446 115 C 446 75 432 43 405 18 C 377 -7 345 -20 309 -20 Z" unicode=":" />
<glyph horiz-adv-x="786" d="M 475 717 C 437 717 405 730 378 756 C 351 782 338 815 338 854 C 338 891 351 923 378 949 C 405 975 437 989 475 989 C 512 989 544 976 571 950 C 598 924 612 892 612 854 C 612 814 598 782 571 756 C 544 730 512 717 475 717 Z M 92 -354 L 61 -287 C 215 -204 310 -108 344 2 L 297 2 C 215 2 174 39 174 113 C 174 150 188 182 216 210 C 244 238 280 252 324 252 C 416 252 463 200 463 98 C 463 -76 339 -227 92 -354 Z" unicode=";" />
<glyph horiz-adv-x="1317" d="M 217 504 L 217 616 L 1143 1098 L 1143 961 L 375 559 L 1143 160 L 1143 23 L 217 504 Z" unicode="&#x3C;" />
<glyph horiz-adv-x="1317" d="M 178 682 L 178 809 L 1188 809 L 1188 682 L 178 682 Z M 178 311 L 178 436 L 1188 436 L 1188 311 L 178 311 Z" unicode="=" />
<glyph horiz-adv-x="1317" d="M 223 23 L 223 160 L 993 559 L 223 961 L 223 1098 L 1149 616 L 1149 504 L 223 23 Z" unicode="&#x3E;" />
<glyph horiz-adv-x="981" d="M 461 590 L 410 377 L 317 377 L 397 756 C 679 783 821 915 821 1153 C 821 1225 802 1280 765 1319 C 727 1358 676 1378 610 1378 C 561 1378 515 1364 473 1337 L 473 1267 C 473 1210 461 1168 437 1140 C 413 1112 375 1098 322 1098 C 267 1098 240 1127 240 1186 C 240 1251 277 1312 352 1368 C 426 1424 520 1452 633 1452 C 750 1452 841 1421 907 1359 C 973 1297 1006 1216 1006 1118 C 1006 975 957 857 860 763 C 762 669 629 612 461 590 Z M 326 -20 C 288 -20 255 -6 228 19 C 201 45 188 77 188 115 C 188 151 201 183 228 211 C 255 238 288 252 326 252 C 363 252 395 238 422 211 C 449 184 463 152 463 115 C 463 77 449 45 422 19 C 395 -6 363 -20 326 -20 Z" unicode="?" />
<glyph horiz-adv-x="1903" d="M 1083 299 L 1075 299 C 1005 192 928 139 842 139 C 770 139 713 162 672 210 C 630 257 610 326 610 416 C 610 528 656 646 748 770 C 840 894 950 956 1077 956 C 1165 956 1216 914 1231 831 L 1237 831 L 1280 944 L 1430 944 L 1239 406 C 1227 372 1221 335 1221 297 C 1221 231 1251 199 1313 199 C 1417 199 1503 248 1572 346 C 1640 444 1675 571 1675 727 C 1675 893 1622 1028 1516 1132 C 1410 1236 1267 1288 1087 1288 C 891 1288 720 1213 574 1065 C 428 917 356 726 356 494 C 356 264 416 84 536 -43 C 656 -171 817 -236 1020 -236 C 1221 -236 1390 -180 1526 -68 L 1556 -119 C 1406 -248 1225 -313 1014 -313 C 785 -313 591 -241 433 -98 C 274 45 195 237 195 477 C 195 719 280 928 451 1105 C 622 1281 837 1370 1096 1370 C 1304 1370 1468 1308 1587 1185 C 1705 1062 1765 906 1765 717 C 1765 552 1720 414 1630 302 C 1540 190 1428 135 1292 135 C 1236 135 1188 149 1148 179 C 1108 209 1087 249 1083 299 Z M 1208 741 C 1192 845 1147 897 1073 897 C 996 897 928 842 870 733 C 811 623 782 512 782 399 C 782 281 811 223 870 223 C 913 223 951 236 983 262 C 1015 288 1052 335 1094 403 L 1208 741 Z" unicode="@" />
<glyph horiz-adv-x="1374" d="M 1303 0 L 723 0 L 737 66 C 869 78 936 103 936 141 L 891 494 L 391 494 C 272 298 213 181 213 143 C 213 100 275 74 399 66 L 385 0 L -160 0 L -145 66 C -92 70 -46 81 -8 101 C 30 121 64 150 92 188 C 120 226 224 389 402 678 L 872 1440 L 952 1440 L 1141 211 C 1155 122 1213 74 1317 66 L 1303 0 Z M 786 1130 L 446 575 L 874 575 L 786 1130 Z" unicode="A" />
<glyph horiz-adv-x="1339" d="M 885 766 L 885 758 C 997 741 1083 706 1145 653 C 1206 600 1237 533 1237 453 C 1237 317 1180 208 1067 125 C 953 41 819 0 664 0 L -29 0 L -12 66 C 70 72 125 84 152 102 C 179 119 198 148 209 188 L 444 1219 C 448 1239 451 1252 451 1257 C 451 1309 397 1341 291 1354 L 305 1419 L 932 1419 C 1041 1419 1129 1396 1197 1352 C 1264 1308 1298 1246 1298 1167 C 1298 961 1160 828 885 766 Z M 686 1341 L 559 788 L 684 788 C 801 788 892 822 958 891 C 1024 959 1057 1048 1057 1157 C 1057 1283 981 1346 829 1346 C 797 1346 749 1344 686 1341 Z M 541 709 L 428 219 C 424 201 422 185 422 170 C 422 104 484 72 610 72 C 728 72 821 113 889 197 C 957 280 991 375 991 483 C 991 553 967 609 919 651 C 871 692 803 713 717 713 C 643 713 584 711 541 709 Z" unicode="B" />
<glyph horiz-adv-x="1315" d="M 1319 913 L 1237 913 L 1237 952 C 1237 1230 1129 1370 915 1370 C 755 1370 619 1290 507 1131 C 394 971 338 779 338 555 C 338 409 373 292 444 206 C 514 119 607 76 723 76 C 917 76 1074 182 1194 395 L 1266 358 C 1116 97 905 -33 631 -33 C 477 -33 350 19 250 123 C 150 227 100 363 100 532 C 100 779 180 994 341 1177 C 501 1360 693 1452 915 1452 C 1068 1452 1193 1418 1290 1352 L 1348 1419 L 1427 1419 L 1319 913 Z" unicode="C" />
<glyph horiz-adv-x="1534" d="M -29 0 L -14 66 C 44 66 92 72 131 86 C 169 99 195 132 207 184 L 442 1204 C 448 1230 451 1247 451 1255 C 451 1287 436 1310 408 1324 C 380 1338 341 1348 291 1354 L 305 1419 L 907 1419 C 1076 1419 1220 1371 1338 1277 C 1456 1183 1516 1048 1516 872 C 1516 616 1425 406 1245 244 C 1065 81 846 0 590 0 L -29 0 Z M 686 1339 L 432 238 C 428 220 426 203 426 186 C 426 144 443 116 479 101 C 515 85 569 78 641 78 C 829 78 983 155 1102 310 C 1220 465 1280 652 1280 870 C 1280 1015 1240 1130 1162 1215 C 1084 1300 977 1343 842 1343 C 784 1343 732 1341 686 1339 Z" unicode="D" />
<glyph horiz-adv-x="1337" d="M 1309 1077 L 1235 1077 C 1230 1147 1216 1203 1194 1246 C 1172 1288 1146 1316 1118 1328 C 1090 1340 1022 1346 915 1346 L 688 1346 L 557 774 L 717 774 C 792 774 849 790 889 822 C 929 854 967 916 1004 1008 L 1077 1008 L 950 453 L 877 453 C 877 525 875 574 871 602 C 867 630 854 652 830 670 C 806 687 762 696 698 696 L 539 696 L 438 264 C 430 230 426 198 426 168 C 426 132 438 108 464 96 C 490 84 548 78 639 78 C 741 78 812 81 854 88 C 896 95 929 107 955 124 C 980 140 1019 181 1071 247 C 1123 313 1164 370 1192 418 L 1264 418 L 1141 0 L -37 0 L -23 66 C 67 72 125 83 152 98 C 179 113 198 143 209 188 L 446 1219 C 449 1233 451 1245 451 1255 C 451 1311 392 1344 274 1354 L 291 1419 L 1389 1419 L 1309 1077 Z" unicode="E" />
<glyph horiz-adv-x="1227" d="M 1323 1065 L 1247 1065 C 1243 1134 1229 1194 1203 1245 C 1177 1295 1148 1325 1116 1333 C 1084 1341 1022 1346 932 1346 L 688 1346 L 555 768 L 719 768 C 808 768 874 789 916 831 C 958 873 991 929 1016 1001 L 1092 1001 L 963 444 L 887 444 C 889 465 891 486 891 508 C 891 578 877 626 849 652 C 821 678 772 692 700 692 L 537 692 L 424 195 C 421 183 420 172 420 162 C 420 122 440 97 480 87 C 520 77 559 70 598 66 L 584 0 L -35 0 L -18 66 C 81 70 141 83 163 103 C 184 123 199 150 207 184 L 446 1219 C 449 1233 451 1246 451 1257 C 451 1285 437 1306 410 1320 C 382 1333 337 1344 274 1354 L 291 1419 L 1405 1419 L 1323 1065 Z" unicode="F" />
<glyph horiz-adv-x="1485" d="M 1481 571 C 1472 569 1462 568 1450 567 C 1388 560 1345 548 1319 531 C 1293 513 1275 482 1264 436 L 1237 322 C 1209 205 1194 128 1190 90 C 996 8 822 -33 668 -33 C 501 -33 365 19 259 123 C 153 227 100 366 100 541 C 100 793 183 1008 351 1186 C 519 1363 720 1452 954 1452 C 1113 1452 1244 1418 1346 1352 L 1403 1419 L 1483 1419 L 1376 924 L 1294 924 C 1293 1081 1264 1195 1206 1265 C 1148 1335 1058 1370 934 1370 C 768 1370 626 1289 510 1129 C 394 968 336 768 336 528 C 336 380 370 263 440 177 C 510 91 606 49 729 49 C 824 49 909 77 985 133 C 1000 175 1018 241 1040 332 L 1059 418 C 1064 442 1067 459 1067 471 C 1067 506 1052 530 1023 543 C 993 555 938 565 858 571 L 872 641 L 1495 641 L 1481 571 Z" unicode="G" />
<glyph horiz-adv-x="1669" d="M 1755 1354 C 1713 1350 1670 1342 1627 1330 C 1583 1318 1554 1284 1540 1229 L 1303 195 C 1299 180 1298 168 1298 160 C 1298 106 1351 74 1458 66 L 1444 0 L 854 0 L 870 66 C 962 70 1020 83 1042 105 C 1064 126 1079 152 1087 184 L 1204 696 L 539 696 L 424 195 C 421 183 420 172 420 162 C 420 128 432 105 458 93 C 483 80 524 71 580 66 L 563 0 L -25 0 L -10 66 C 82 70 140 82 162 103 C 184 124 199 151 207 184 L 446 1219 C 449 1233 451 1244 451 1251 C 451 1304 396 1338 287 1354 L 301 1419 L 891 1419 L 877 1354 C 797 1347 744 1335 717 1318 C 690 1301 672 1271 662 1229 L 559 780 L 1227 780 L 1325 1219 C 1327 1231 1329 1241 1329 1251 C 1329 1283 1312 1308 1278 1324 C 1244 1340 1207 1350 1167 1354 L 1182 1419 L 1772 1419 L 1755 1354 Z" unicode="H" />
<glyph horiz-adv-x="799" d="M 907 1354 C 815 1347 755 1335 725 1318 C 695 1301 676 1272 666 1231 L 426 193 C 423 181 422 171 422 162 C 422 106 484 74 610 66 L 596 0 L -43 0 L -29 66 C 75 70 139 82 163 103 C 187 123 203 150 211 182 L 451 1221 C 453 1232 455 1243 455 1255 C 455 1286 438 1308 404 1321 C 370 1334 324 1345 268 1354 L 283 1419 L 922 1419 L 907 1354 Z" unicode="I" />
<glyph horiz-adv-x="1061" d="M 1194 1354 C 1110 1347 1054 1336 1026 1320 C 998 1304 978 1273 967 1229 L 776 383 C 750 271 690 173 594 90 C 498 6 386 -35 258 -35 C 164 -35 90 -11 34 37 C -21 85 -49 149 -49 229 C -49 295 -32 353 0 403 C 32 452 75 477 129 477 C 203 477 240 445 240 381 C 240 326 202 257 126 173 C 107 152 92 133 80 115 C 107 63 166 37 258 37 C 335 37 399 66 449 126 C 499 186 543 298 580 463 L 750 1219 C 752 1231 754 1241 754 1251 C 754 1283 739 1307 711 1321 C 682 1335 633 1346 563 1354 L 580 1419 L 1208 1419 L 1194 1354 Z" unicode="J" />
<glyph horiz-adv-x="1421" d="M 1581 1354 L 1545 1350 C 1452 1340 1381 1313 1331 1270 C 1081 1042 892 878 766 776 C 857 635 968 454 1098 233 C 1138 166 1175 123 1211 103 C 1246 83 1294 71 1354 66 L 1335 0 L 975 0 C 867 230 738 454 590 674 L 535 674 L 424 195 C 421 183 420 172 420 162 C 420 121 437 96 472 86 C 506 76 544 70 584 66 L 567 0 L -20 0 L -6 66 C 83 70 139 83 162 105 C 184 127 199 153 207 184 L 446 1219 C 449 1233 451 1245 451 1253 C 451 1283 437 1305 410 1320 C 383 1334 343 1346 291 1354 L 305 1419 L 895 1419 L 881 1354 C 798 1347 743 1335 717 1318 C 690 1301 672 1271 662 1229 L 545 723 L 565 723 C 699 816 836 928 976 1058 C 1116 1188 1186 1272 1186 1309 C 1186 1332 1141 1347 1051 1354 L 1065 1419 L 1597 1419 L 1581 1354 Z" unicode="K" />
<glyph horiz-adv-x="1237" d="M 1083 0 L -25 0 L -10 66 C 82 71 139 84 162 104 C 184 124 200 152 209 188 L 444 1214 C 448 1234 451 1247 451 1251 C 451 1303 396 1337 287 1354 L 301 1419 L 901 1419 L 887 1354 C 817 1348 765 1338 731 1323 C 697 1307 673 1275 659 1225 L 438 260 C 427 213 422 178 422 156 C 422 122 434 100 458 90 C 482 79 539 74 629 74 C 700 74 757 78 801 88 C 845 97 876 109 896 124 C 915 138 952 179 1008 246 C 1063 312 1107 371 1141 422 L 1210 422 L 1083 0 Z" unicode="L" />
<glyph horiz-adv-x="1898" d="M 1993 1354 C 1908 1346 1852 1334 1826 1318 C 1800 1301 1782 1271 1772 1229 L 1532 195 C 1529 183 1528 172 1528 162 C 1528 132 1539 111 1561 97 C 1583 83 1629 72 1698 66 L 1681 0 L 1057 0 L 1073 66 C 1177 70 1244 85 1273 112 C 1301 138 1318 166 1323 195 L 1569 1251 L 1559 1251 L 782 23 L 735 23 L 557 1278 L 549 1278 L 346 406 C 328 328 319 267 319 221 C 319 169 332 134 358 116 C 384 97 435 80 512 66 L 498 0 L -76 0 L -59 66 C 53 76 126 104 158 148 C 190 192 220 274 246 393 L 416 1130 C 422 1158 426 1184 426 1208 C 426 1298 366 1347 246 1354 L 260 1419 L 737 1419 L 893 352 L 1446 1245 C 1488 1313 1517 1371 1532 1419 L 2007 1419 L 1993 1354 Z" unicode="M" />
<glyph horiz-adv-x="1571" d="M 1743 1354 C 1643 1340 1575 1318 1541 1290 C 1506 1261 1472 1174 1440 1030 L 1198 -14 L 1110 -14 L 526 1184 L 348 410 C 330 334 322 271 322 219 C 322 186 326 160 336 140 C 345 120 375 102 425 88 C 475 74 507 66 522 66 L 508 0 L -76 0 L -59 66 C 25 79 87 98 129 122 C 171 146 210 238 248 399 L 408 1087 C 416 1121 420 1155 420 1188 C 420 1280 351 1336 213 1354 L 229 1419 L 637 1419 L 1176 309 L 1339 1018 C 1357 1096 1366 1158 1366 1206 C 1366 1240 1361 1266 1351 1283 C 1341 1299 1316 1314 1275 1328 C 1233 1342 1197 1350 1165 1354 L 1182 1419 L 1759 1419 L 1743 1354 Z" unicode="N" />
<glyph horiz-adv-x="1495" d="M 651 -35 C 485 -35 352 18 251 124 C 150 230 100 369 100 541 C 100 789 183 1002 349 1182 C 515 1362 707 1452 926 1452 C 1090 1452 1222 1399 1324 1293 C 1426 1187 1477 1047 1477 872 C 1477 624 1393 410 1225 232 C 1057 54 866 -35 651 -35 Z M 907 1368 C 737 1368 600 1278 494 1098 C 388 918 336 716 336 494 C 336 352 364 242 422 165 C 480 87 562 49 670 49 C 836 49 972 137 1080 315 C 1187 493 1241 698 1241 932 C 1241 1070 1212 1177 1154 1253 C 1096 1329 1013 1368 907 1368 Z" unicode="O" />
<glyph horiz-adv-x="1249" d="M 522 627 L 422 188 C 419 176 418 164 418 152 C 418 121 428 100 449 89 C 469 78 519 70 598 66 L 584 0 L -25 0 L -10 66 C 82 71 139 84 162 104 C 184 124 200 152 209 188 L 446 1223 C 450 1243 453 1257 453 1264 C 453 1294 439 1315 412 1328 C 384 1340 341 1349 281 1354 L 295 1419 L 926 1419 C 1043 1419 1137 1393 1207 1341 C 1277 1289 1313 1219 1313 1133 C 1313 983 1252 862 1131 768 C 1009 674 864 627 696 627 L 522 627 Z M 686 1341 L 543 709 L 655 709 C 789 709 891 747 961 824 C 1031 901 1067 997 1067 1112 C 1067 1264 983 1341 817 1341 L 686 1341 Z" unicode="P" />
<glyph horiz-adv-x="1495" d="M 860 0 C 856 -30 854 -54 854 -72 C 854 -136 871 -188 907 -227 C 943 -265 989 -285 1047 -285 C 1123 -285 1190 -277 1249 -262 L 1233 -338 C 1119 -369 1016 -385 922 -385 C 725 -385 627 -286 627 -90 C 627 -68 628 -49 631 -33 C 469 -26 340 29 244 135 C 148 240 100 375 100 541 C 100 789 183 1002 349 1182 C 515 1362 707 1452 926 1452 C 1090 1452 1222 1399 1324 1293 C 1426 1187 1477 1047 1477 872 C 1477 676 1420 497 1306 335 C 1192 173 1043 61 860 0 Z M 907 1368 C 737 1368 600 1278 494 1098 C 388 918 336 716 336 494 C 336 352 364 242 422 165 C 480 87 562 49 670 49 C 838 49 975 137 1081 314 C 1187 490 1241 696 1241 932 C 1241 1070 1212 1177 1154 1253 C 1096 1329 1013 1368 907 1368 Z" unicode="Q" />
<glyph horiz-adv-x="1438" d="M 1354 0 L 995 0 C 943 131 837 346 676 645 L 526 645 L 422 188 C 418 170 416 159 416 154 C 416 128 423 108 439 94 C 454 80 504 71 590 66 L 573 0 L -27 0 L -10 66 C 81 71 138 84 162 105 C 185 125 201 153 209 188 L 446 1225 C 450 1245 453 1259 453 1266 C 453 1295 439 1316 411 1328 C 383 1340 341 1349 287 1354 L 301 1419 L 940 1419 C 1060 1419 1155 1395 1225 1348 C 1294 1301 1329 1235 1329 1149 C 1329 915 1179 762 881 690 C 929 596 981 496 1039 391 C 1063 345 1091 293 1122 233 C 1147 185 1175 147 1207 117 C 1239 87 1293 70 1370 66 L 1354 0 Z M 686 1343 L 547 727 L 688 727 C 796 727 889 765 967 841 C 1044 917 1083 1012 1083 1126 C 1083 1196 1061 1249 1019 1287 C 976 1324 918 1343 846 1343 L 686 1343 Z" unicode="R" />
<glyph horiz-adv-x="1149" d="M 1098 948 L 1018 948 C 1012 1109 984 1219 934 1279 C 884 1338 810 1368 711 1368 C 632 1368 566 1341 512 1288 C 458 1234 432 1170 432 1094 C 432 1022 449 969 484 935 C 518 901 587 865 689 828 C 851 767 954 707 998 647 C 1042 587 1065 525 1065 459 C 1065 319 1010 203 900 110 C 790 17 654 -29 494 -29 C 351 -29 229 4 129 72 L 72 0 L -8 0 L 88 485 L 170 485 C 186 197 305 53 528 53 C 628 53 708 80 768 136 C 828 192 858 266 858 360 C 858 426 841 479 807 518 C 773 556 714 591 632 622 C 525 660 447 692 397 719 C 347 746 305 785 273 835 C 241 885 225 944 225 1010 C 225 1132 275 1235 377 1321 C 478 1407 597 1450 735 1450 C 862 1450 972 1417 1065 1352 L 1118 1419 L 1198 1419 L 1098 948 Z" unicode="S" />
<glyph horiz-adv-x="1268" d="M 1366 1034 L 1296 1034 C 1292 1114 1278 1181 1255 1235 C 1232 1289 1205 1321 1175 1331 C 1144 1341 1082 1346 989 1346 L 928 1346 L 664 201 C 660 186 659 174 659 166 C 659 132 674 109 704 97 C 734 85 786 74 860 66 L 844 0 L 174 0 L 190 66 C 290 73 354 84 384 99 C 414 114 435 145 449 193 L 715 1346 L 662 1346 C 566 1346 502 1340 470 1330 C 438 1319 394 1283 338 1223 C 282 1163 236 1100 201 1034 L 129 1034 L 219 1419 L 1454 1419 L 1366 1034 Z" unicode="T" />
<glyph horiz-adv-x="1548" d="M 1720 1354 C 1643 1347 1582 1331 1538 1305 C 1493 1279 1453 1188 1417 1032 L 1320 602 C 1286 450 1256 347 1232 291 C 1207 235 1168 182 1115 132 C 1061 81 995 40 917 10 C 838 -19 752 -35 659 -35 C 519 -35 410 -5 331 54 C 252 114 213 193 213 293 C 213 324 215 351 221 375 L 418 1219 C 420 1230 422 1241 422 1251 C 422 1303 377 1336 289 1350 C 278 1351 269 1352 262 1354 L 279 1419 L 868 1419 L 852 1354 C 778 1348 726 1337 695 1321 C 664 1305 643 1275 633 1229 L 451 438 C 441 394 436 355 436 319 C 436 155 531 74 721 74 C 789 74 852 85 908 107 C 964 129 1013 160 1055 202 C 1096 243 1126 285 1144 327 C 1162 369 1185 451 1215 574 C 1244 697 1273 823 1301 953 C 1329 1083 1343 1172 1343 1221 C 1343 1260 1328 1289 1300 1309 C 1272 1329 1219 1344 1141 1354 L 1157 1419 L 1737 1419 L 1720 1354 Z" unicode="U" />
<glyph horiz-adv-x="1366" d="M 1599 1354 C 1559 1350 1519 1340 1481 1324 C 1443 1308 1408 1279 1378 1238 C 1347 1196 1227 1009 1017 676 L 584 -18 L 502 -18 L 327 1211 C 322 1249 306 1281 279 1307 C 252 1332 210 1348 152 1354 L 166 1419 L 741 1419 L 725 1354 C 596 1346 532 1324 532 1286 C 532 1254 578 923 672 291 C 967 756 1137 1030 1182 1113 C 1226 1196 1249 1250 1249 1274 C 1249 1316 1185 1343 1059 1354 L 1073 1419 L 1614 1419 L 1599 1354 Z" unicode="V" />
<glyph horiz-adv-x="1999" d="M 2218 1354 C 2168 1350 2123 1336 2084 1312 C 2044 1288 2015 1261 1996 1232 C 1977 1202 1891 1044 1737 757 L 1323 -18 L 1233 -18 L 1116 1075 L 496 -18 L 408 -18 L 343 1225 C 337 1300 284 1343 182 1354 L 197 1419 L 768 1419 L 754 1354 C 620 1346 553 1322 553 1282 C 553 1258 568 944 600 338 L 1196 1399 L 1288 1399 L 1407 315 C 1715 906 1870 1227 1870 1278 C 1870 1320 1811 1346 1694 1354 L 1708 1419 L 2232 1419 L 2218 1354 Z" unicode="W" />
<glyph horiz-adv-x="1454" d="M 1599 1354 C 1498 1346 1422 1319 1372 1272 C 1321 1225 1153 1055 868 762 L 1047 364 C 1101 242 1140 166 1162 136 C 1184 105 1202 87 1216 82 C 1229 76 1269 71 1335 66 L 1321 0 L 682 0 L 696 66 C 830 70 897 91 897 129 C 897 177 836 340 715 618 C 427 323 283 158 283 123 C 283 88 334 69 438 66 L 424 0 L -111 0 L -94 66 C 10 71 94 105 158 169 C 221 233 394 410 676 702 L 512 1070 C 456 1195 422 1266 410 1283 C 398 1300 379 1315 354 1328 C 328 1340 286 1349 227 1354 L 244 1419 L 874 1419 L 860 1354 C 728 1346 662 1326 662 1292 C 662 1240 719 1090 834 840 C 1093 1108 1223 1260 1223 1296 C 1223 1328 1171 1348 1069 1354 L 1085 1419 L 1614 1419 L 1599 1354 Z" unicode="X" />
<glyph horiz-adv-x="1260" d="M 1501 1354 C 1468 1350 1433 1339 1395 1321 C 1357 1303 1316 1273 1272 1231 C 1228 1189 1140 1086 1008 923 C 876 759 797 659 773 623 C 749 586 730 538 717 479 L 653 203 C 650 191 649 180 649 168 C 649 124 673 97 723 86 C 772 75 814 68 848 66 L 834 0 L 170 0 L 184 66 C 280 72 344 83 374 98 C 404 112 426 144 438 193 L 510 504 C 515 527 518 543 518 553 C 518 584 501 653 469 761 L 365 1105 C 328 1226 292 1297 256 1318 C 220 1339 182 1351 143 1354 L 160 1419 L 741 1419 L 725 1354 C 639 1350 584 1344 562 1335 C 539 1326 528 1314 528 1298 C 528 1270 589 1066 711 688 C 1016 1057 1169 1257 1169 1288 C 1169 1324 1111 1346 997 1354 L 1014 1419 L 1518 1419 L 1501 1354 Z" unicode="Y" />
<glyph horiz-adv-x="1233" d="M 1378 1384 L 207 76 L 528 76 C 587 76 643 79 695 85 C 747 91 787 101 817 113 C 846 125 892 163 955 229 C 1017 294 1075 365 1128 442 L 1198 442 L 1049 0 L -90 0 L -82 35 L 1092 1343 L 778 1343 C 672 1343 597 1332 555 1310 C 513 1288 464 1249 408 1194 C 352 1138 302 1080 260 1018 L 190 1018 L 326 1419 L 1386 1419 L 1378 1384 Z" unicode="Z" />
<glyph horiz-adv-x="768" d="M 907 1434 L 553 1434 L 170 -223 L 526 -223 L 506 -309 L -27 -309 L 395 1520 L 928 1520 L 907 1434 Z" unicode="[" />
<glyph horiz-adv-x="961" d="M 569 -424 L 330 1524 L 461 1524 L 700 -424 L 569 -424 Z" unicode="\" />
<glyph horiz-adv-x="768" d="M 406 -309 L -129 -309 L -109 -223 L 248 -223 L 629 1434 L 274 1434 L 295 1520 L 827 1520 L 406 -309 Z" unicode="]" />
<glyph horiz-adv-x="1317" d="M 1030 797 L 709 1321 L 385 797 L 240 797 L 651 1456 L 766 1456 L 1176 797 L 1030 797 Z" unicode="^" />
<glyph horiz-adv-x="1317" d="M 1145 -279 L -182 -279 L -160 -182 L 1167 -182 L 1145 -279 Z" unicode="_" />
<glyph horiz-adv-x="1024" d="M 881 1110 L 700 1259 C 626 1317 579 1357 560 1379 C 541 1400 532 1424 532 1450 C 532 1472 540 1493 556 1511 C 572 1529 593 1538 621 1538 C 660 1538 691 1518 715 1479 L 920 1143 L 881 1110 Z" unicode="`" />
<glyph horiz-adv-x="1174" d="M 1098 51 C 992 6 911 -16 856 -16 C 808 -16 770 -2 741 26 C 712 54 697 89 696 131 L 688 131 C 570 24 467 -29 381 -29 C 284 -29 208 5 153 74 C 97 143 70 238 70 360 C 70 528 127 678 243 811 C 359 943 492 1010 643 1010 C 734 1010 813 988 881 946 L 1065 993 L 1075 979 L 924 334 C 907 262 899 215 899 193 C 899 155 907 129 923 116 C 939 102 966 96 1004 96 C 1040 96 1076 102 1112 115 L 1098 51 Z M 840 764 C 846 790 836 826 812 871 C 787 915 736 938 659 938 C 561 938 473 878 394 760 C 315 642 276 508 276 358 C 276 259 290 189 320 147 C 349 105 395 84 457 84 C 532 84 617 131 713 225 L 840 764 Z" unicode="a" />
<glyph horiz-adv-x="1135" d="M 92 156 L 350 1286 C 358 1321 362 1346 362 1360 C 362 1390 354 1414 339 1430 C 323 1446 277 1458 199 1464 L 213 1526 L 584 1548 L 594 1534 L 442 868 L 446 868 C 551 962 648 1010 737 1010 C 839 1010 919 975 977 906 C 1035 836 1065 743 1065 627 C 1065 450 1006 296 890 165 C 774 34 640 -31 489 -31 C 299 -31 166 31 92 156 Z M 418 768 L 285 174 C 293 136 316 104 352 79 C 388 53 431 41 481 41 C 584 41 673 97 747 211 C 821 324 858 461 858 623 C 858 807 790 899 655 899 C 590 899 511 855 418 768 Z" unicode="b" />
<glyph horiz-adv-x="930" d="M 733 887 C 719 921 676 938 604 938 C 516 938 438 886 372 782 C 305 678 272 548 272 391 C 272 296 293 221 335 166 C 377 111 435 84 508 84 C 621 84 726 150 823 283 L 881 240 C 827 157 761 91 681 43 C 601 -4 522 -29 444 -29 C 325 -29 233 6 167 76 C 101 146 68 242 68 365 C 68 539 119 690 223 818 C 327 946 460 1010 623 1010 C 713 1010 784 990 836 952 C 887 913 913 861 913 797 C 913 747 901 705 879 672 C 856 639 824 623 784 623 C 748 623 721 632 703 650 C 685 668 676 688 676 711 C 676 733 695 791 733 887 Z" unicode="c" />
<glyph horiz-adv-x="1178" d="M 930 334 C 913 261 905 215 905 195 C 905 157 913 131 929 117 C 945 103 972 96 1010 96 C 1046 96 1082 102 1118 115 L 1104 51 C 1010 6 929 -16 862 -16 C 757 -16 705 35 705 137 L 698 137 C 580 26 475 -29 381 -29 C 284 -29 208 5 153 74 C 97 143 70 238 70 360 C 70 531 126 682 238 813 C 350 944 483 1010 637 1010 C 730 1010 813 988 887 946 L 965 1286 C 971 1315 975 1340 975 1362 C 975 1418 936 1449 858 1456 C 834 1458 807 1460 778 1464 L 793 1526 L 1196 1548 L 1206 1534 L 930 334 Z M 846 774 C 850 794 836 827 804 871 C 772 915 721 938 651 938 C 551 938 463 880 388 764 C 313 648 276 513 276 358 C 276 259 290 189 320 147 C 349 105 395 84 457 84 C 535 84 623 133 721 231 L 846 774 Z" unicode="d" />
<glyph horiz-adv-x="967" d="M 268 408 C 268 192 344 84 498 84 C 616 84 725 150 825 283 L 883 240 C 828 156 760 91 679 43 C 598 -5 516 -29 432 -29 C 315 -29 225 4 163 70 C 101 136 70 230 70 352 C 70 528 124 681 234 813 C 343 944 479 1010 643 1010 C 733 1010 802 991 852 955 C 901 918 926 867 926 801 C 926 686 869 598 756 538 C 642 477 480 434 268 408 Z M 274 477 C 458 499 581 540 645 599 C 709 657 741 733 741 825 C 741 900 702 938 625 938 C 545 938 472 895 404 809 C 336 723 292 612 274 477 Z" unicode="e" />
<glyph horiz-adv-x="674" d="M 754 1466 C 662 1462 589 1334 537 1083 L 514 977 L 766 977 L 743 887 L 496 887 L 319 59 C 288 -84 223 -204 124 -300 C 24 -396 -80 -444 -190 -444 C -303 -444 -360 -404 -360 -326 C -360 -294 -351 -268 -333 -248 C -315 -227 -290 -217 -260 -217 C -210 -217 -167 -248 -131 -312 C -121 -329 -112 -346 -102 -362 C -4 -354 71 -226 125 23 L 307 887 L 113 887 L 133 977 L 328 977 L 342 1044 C 374 1196 438 1318 534 1410 C 630 1502 733 1548 842 1548 C 900 1548 942 1536 970 1514 C 998 1492 1012 1464 1012 1432 C 1012 1400 1002 1374 984 1354 C 966 1333 941 1323 911 1323 C 863 1323 820 1354 784 1418 C 774 1434 764 1450 754 1466 Z" unicode="f" />
<glyph horiz-adv-x="1174" d="M 909 190 C 862 -30 790 -190 692 -292 C 594 -393 457 -444 281 -444 C 100 -444 10 -395 10 -299 C 10 -269 19 -243 38 -223 C 56 -203 81 -193 113 -193 C 171 -193 225 -254 274 -377 L 303 -377 C 403 -377 488 -333 558 -246 C 628 -158 679 -31 709 135 L 702 137 C 579 32 469 -20 373 -20 C 277 -20 203 13 150 81 C 96 148 70 243 70 365 C 70 535 127 685 242 815 C 357 945 491 1010 643 1010 C 735 1010 815 988 883 946 L 1067 993 L 1077 979 L 909 190 Z M 844 774 C 850 802 839 837 811 877 C 783 917 732 938 659 938 C 559 938 470 880 392 765 C 314 649 276 515 276 362 C 276 180 337 90 459 90 C 541 90 631 137 729 233 L 844 774 Z" unicode="g" />
<glyph horiz-adv-x="1153" d="M 1079 51 C 968 6 888 -16 838 -16 C 731 -16 678 31 678 127 C 678 161 683 198 694 238 L 793 610 C 809 670 817 715 817 745 C 817 842 774 891 690 891 C 600 891 506 838 410 733 L 242 0 L 55 0 L 352 1286 C 360 1323 365 1348 365 1360 C 365 1391 357 1415 341 1431 C 325 1447 279 1458 201 1464 L 213 1526 L 586 1548 L 596 1534 L 434 842 L 438 842 C 526 911 596 956 647 978 C 697 999 751 1010 807 1010 C 871 1010 921 991 957 955 C 993 918 1012 869 1012 809 C 1012 761 1003 709 987 653 L 903 332 C 887 270 879 225 879 195 C 879 157 887 131 903 117 C 919 103 947 96 985 96 C 1017 96 1053 103 1094 117 L 1079 51 Z" unicode="h" />
<glyph horiz-adv-x="608" d="M 494 1245 C 460 1245 431 1258 406 1284 C 381 1310 369 1342 369 1378 C 369 1414 381 1446 406 1474 C 430 1502 460 1516 494 1516 C 530 1516 560 1503 585 1478 C 610 1452 623 1422 623 1386 C 623 1348 610 1315 585 1287 C 560 1259 530 1245 494 1245 Z M 537 45 C 430 1 349 -20 295 -20 C 244 -20 205 -7 177 18 C 149 44 135 79 135 123 C 135 151 140 187 152 233 L 258 659 C 273 720 281 768 281 803 C 281 842 274 867 260 878 C 246 889 222 895 186 895 C 164 895 127 889 74 877 L 88 940 C 191 986 270 1010 326 1010 C 429 1010 481 961 481 864 C 481 830 476 794 467 754 L 358 330 C 342 268 334 221 334 190 C 334 124 370 92 442 92 C 480 92 516 97 551 109 L 537 45 Z" unicode="i" />
<glyph horiz-adv-x="596" d="M 502 1245 C 468 1245 439 1258 414 1284 C 389 1310 377 1342 377 1378 C 377 1414 389 1446 414 1474 C 438 1502 468 1516 502 1516 C 538 1516 569 1503 594 1477 C 618 1451 631 1421 631 1386 C 631 1348 618 1315 593 1287 C 568 1259 538 1245 502 1245 Z M -86 -362 C -42 -359 -2 -330 33 -275 C 68 -219 96 -149 118 -65 C 139 19 174 174 223 400 C 272 626 297 760 297 803 C 297 837 291 861 279 875 C 267 888 242 895 203 895 C 167 895 126 887 80 872 L 94 938 C 209 986 292 1010 342 1010 C 446 1010 498 961 498 864 C 498 846 481 754 447 587 C 413 420 382 272 353 143 C 323 14 290 -82 254 -147 C 218 -211 175 -266 125 -312 C 75 -358 25 -391 -25 -412 C -76 -433 -126 -444 -174 -444 C -287 -444 -344 -404 -344 -326 C -344 -296 -335 -271 -317 -249 C -299 -227 -274 -217 -244 -217 C -196 -217 -153 -248 -116 -312 C -106 -329 -96 -346 -86 -362 Z" unicode="j" />
<glyph horiz-adv-x="1081" d="M 815 811 C 737 766 657 704 575 625 C 675 369 742 215 775 165 C 807 115 853 90 913 90 C 949 90 993 97 1044 113 L 1030 47 C 928 5 844 -16 776 -16 C 718 -16 671 6 634 51 C 597 96 534 241 444 485 L 328 385 L 242 0 L 55 0 L 352 1286 C 360 1323 365 1348 365 1360 C 365 1391 357 1415 341 1431 C 325 1447 279 1458 201 1464 L 213 1526 L 586 1548 L 596 1534 L 350 492 L 354 492 C 468 614 575 721 674 813 C 772 905 837 959 867 976 C 897 992 927 1001 958 1001 C 1033 1001 1071 965 1071 895 C 1071 863 1059 836 1035 812 C 1011 788 982 776 950 776 C 913 776 868 787 815 811 Z" unicode="k" />
<glyph horiz-adv-x="584" d="M 322 330 C 305 258 297 211 297 190 C 297 124 332 92 403 92 C 447 92 487 97 522 109 L 508 45 C 404 1 321 -20 260 -20 C 208 -20 167 -6 139 20 C 110 46 96 81 96 123 C 96 145 102 182 115 233 L 356 1286 C 364 1324 369 1348 369 1360 C 369 1391 361 1415 345 1431 C 329 1447 283 1458 205 1464 L 219 1526 L 590 1548 L 600 1534 L 322 330 Z" unicode="l" />
<glyph horiz-adv-x="1800" d="M 1729 49 C 1622 5 1541 -16 1487 -16 C 1380 -16 1327 31 1327 127 C 1327 161 1332 198 1343 238 L 1442 610 C 1458 670 1466 715 1466 745 C 1466 842 1426 891 1346 891 C 1257 891 1164 841 1067 741 L 895 0 L 709 0 L 864 668 C 874 711 879 739 879 752 C 879 844 836 891 752 891 C 659 891 563 838 465 733 L 297 0 L 111 0 L 258 647 C 274 720 283 768 283 791 C 283 829 276 855 263 868 C 249 880 224 887 188 887 C 162 887 126 879 80 864 L 94 930 C 194 974 274 997 336 997 C 430 997 479 943 483 836 L 489 836 C 595 918 670 968 716 985 C 762 1001 811 1010 864 1010 C 921 1010 969 993 1007 961 C 1045 928 1066 883 1071 827 L 1075 827 C 1167 903 1238 952 1290 975 C 1341 998 1398 1010 1460 1010 C 1522 1010 1571 991 1607 955 C 1643 918 1661 869 1661 809 C 1661 761 1652 709 1636 653 L 1552 332 C 1536 270 1528 225 1528 195 C 1528 157 1536 131 1552 117 C 1568 103 1595 96 1632 96 C 1674 96 1711 101 1743 113 L 1729 49 Z" unicode="m" />
<glyph horiz-adv-x="1208" d="M 1135 51 C 1021 6 940 -16 893 -16 C 786 -16 733 31 733 127 C 733 162 738 199 750 238 L 848 610 C 864 670 872 715 872 745 C 872 842 829 891 745 891 C 652 891 559 838 465 733 L 297 0 L 111 0 L 258 647 C 274 720 283 768 283 791 C 283 828 276 853 263 866 C 249 878 224 885 188 885 C 160 885 124 878 80 864 L 94 930 C 194 974 274 997 336 997 C 430 997 479 943 483 836 L 489 836 C 585 912 658 960 706 980 C 754 1000 806 1010 862 1010 C 926 1010 976 991 1012 955 C 1048 918 1067 869 1067 809 C 1067 761 1058 709 1042 653 L 958 332 C 942 270 934 225 934 195 C 934 157 942 131 958 117 C 974 103 1002 96 1040 96 C 1072 96 1109 103 1149 117 L 1135 51 Z" unicode="n" />
<glyph horiz-adv-x="1100" d="M 440 -31 C 330 -31 240 4 171 76 C 102 148 68 244 68 365 C 68 543 123 695 235 821 C 346 947 485 1010 653 1010 C 770 1010 862 974 930 902 C 998 830 1032 735 1032 616 C 1032 441 976 289 866 161 C 755 33 613 -31 440 -31 Z M 633 938 C 520 938 431 877 367 755 C 302 633 270 492 270 332 C 270 138 336 41 469 41 C 576 41 663 100 729 220 C 795 340 829 484 829 653 C 829 843 763 938 633 938 Z" unicode="o" />
<glyph horiz-adv-x="1184" d="M 305 47 L 248 -215 C 240 -251 236 -279 236 -297 C 236 -345 294 -373 412 -381 L 397 -444 L -154 -444 L -139 -381 C -60 -377 -11 -366 9 -347 C 29 -327 42 -302 49 -272 L 258 647 C 273 714 281 762 281 791 C 281 832 273 858 259 869 C 244 879 220 885 186 885 C 162 885 126 877 78 862 L 92 928 C 197 974 278 997 334 997 C 421 997 471 952 485 864 L 494 864 C 600 961 699 1010 793 1010 C 893 1010 971 975 1028 907 C 1085 839 1114 745 1114 627 C 1114 449 1056 295 942 166 C 828 37 695 -27 545 -27 C 452 -27 372 -2 305 47 Z M 471 766 L 342 199 C 349 157 371 121 407 90 C 443 58 486 43 537 43 C 639 43 727 99 799 211 C 871 323 907 461 907 623 C 907 807 841 899 709 899 C 643 899 564 854 471 766 Z" unicode="p" />
<glyph horiz-adv-x="1137" d="M 809 -213 C 799 -254 795 -282 795 -297 C 795 -345 850 -373 961 -381 L 946 -444 L 395 -444 L 410 -381 C 495 -378 548 -367 568 -347 C 588 -327 601 -302 608 -272 L 705 139 L 696 139 C 578 27 473 -29 381 -29 C 284 -29 208 5 153 74 C 97 143 70 238 70 360 C 70 528 128 679 245 811 C 362 943 496 1010 647 1010 C 737 1010 818 988 889 946 L 1067 993 L 1079 979 L 809 -213 Z M 846 764 C 852 790 842 825 817 870 C 791 915 740 938 664 938 C 566 938 477 878 397 760 C 316 642 276 508 276 358 C 276 258 291 187 321 146 C 351 104 396 84 457 84 C 534 84 623 134 725 236 L 846 764 Z" unicode="q" />
<glyph horiz-adv-x="944" d="M 760 905 C 670 905 571 842 461 717 L 299 0 L 113 0 L 258 647 C 274 721 283 769 283 791 C 283 828 276 853 263 866 C 249 878 224 885 188 885 C 160 885 124 878 80 864 L 94 930 C 194 974 274 997 336 997 C 434 997 483 939 483 823 L 489 823 L 584 903 C 666 974 737 1010 799 1010 C 902 1010 954 955 954 846 C 954 798 942 757 918 724 C 894 690 862 674 821 674 C 750 674 715 702 715 760 C 715 792 730 841 760 905 Z" unicode="r" />
<glyph horiz-adv-x="883" d="M 592 924 L 574 931 C 562 935 543 938 518 938 C 456 938 408 921 372 889 C 336 856 319 814 319 762 C 319 721 331 688 355 664 C 379 639 432 612 514 582 C 616 544 684 504 720 462 C 756 420 774 370 774 313 C 774 214 735 132 657 68 C 579 3 480 -29 362 -29 C 266 -29 185 -11 117 23 C 49 57 16 104 16 162 C 16 189 25 214 45 236 C 64 258 88 270 117 270 C 177 270 220 230 245 150 C 251 128 258 108 266 88 C 296 58 336 43 385 43 C 529 43 602 109 602 242 C 602 282 587 317 557 345 C 527 373 473 400 395 426 C 231 482 150 571 150 694 C 150 780 187 854 263 916 C 339 978 433 1010 545 1010 C 633 1010 704 996 759 970 C 814 944 842 905 842 854 C 842 826 832 801 813 779 C 793 756 769 745 741 745 C 681 745 638 784 614 863 C 607 884 600 904 592 924 Z" unicode="s" />
<glyph horiz-adv-x="711" d="M 752 887 L 473 887 L 346 336 C 332 278 326 233 326 201 C 326 163 335 136 353 119 C 371 102 404 94 453 94 C 501 94 550 102 598 119 L 582 45 C 474 1 381 -20 303 -20 C 181 -20 121 29 121 129 C 121 157 124 186 131 217 L 287 887 L 109 887 L 129 977 L 311 977 L 381 1270 L 561 1270 L 494 977 L 772 977 L 752 887 Z" unicode="t" />
<glyph horiz-adv-x="1178" d="M 1108 51 C 1000 6 920 -16 866 -16 C 817 -16 778 -2 750 26 C 721 54 707 91 707 139 L 700 139 C 574 29 455 -25 342 -25 C 277 -25 227 -6 192 30 C 156 66 139 115 139 176 C 139 217 146 269 162 332 L 240 647 C 254 706 262 754 262 791 C 262 830 255 855 242 867 C 228 879 204 885 170 885 C 144 885 107 877 59 862 L 76 928 C 177 974 254 997 307 997 C 411 997 463 949 463 854 C 463 818 457 781 446 743 L 358 373 C 343 311 336 267 336 240 C 336 142 376 94 457 94 C 546 94 635 139 723 229 L 897 981 L 1071 993 L 1083 979 L 936 336 C 918 257 909 210 909 195 C 909 157 917 131 934 117 C 950 103 978 96 1016 96 C 1050 96 1086 102 1122 115 L 1108 51 Z" unicode="u" />
<glyph horiz-adv-x="1102" d="M 59 860 L 74 926 C 178 973 257 997 309 997 C 414 997 467 949 467 854 C 467 820 461 783 451 743 L 354 371 C 340 319 334 280 334 252 C 334 141 390 86 504 86 C 598 86 687 139 773 247 C 858 354 901 476 901 612 C 901 672 883 722 848 763 C 812 803 795 847 795 893 C 795 927 806 955 829 977 C 852 999 880 1010 913 1010 C 996 1010 1038 947 1038 823 C 1038 603 978 405 858 231 C 738 56 595 -31 428 -31 C 342 -31 272 -7 220 41 C 167 89 141 154 141 238 C 141 268 145 298 154 328 L 242 647 C 258 705 266 753 266 791 C 266 827 259 852 246 865 C 233 878 208 885 170 885 C 146 885 109 876 59 860 Z" unicode="v" />
<glyph horiz-adv-x="1683" d="M 737 166 C 609 36 495 -29 397 -29 C 315 -29 251 -6 207 39 C 163 85 141 149 141 233 C 141 266 146 299 156 332 L 240 647 C 254 702 262 750 262 791 C 262 830 255 855 242 867 C 228 879 204 885 170 885 C 144 885 107 877 59 862 L 76 928 C 177 974 254 997 307 997 C 411 997 463 949 463 854 C 463 818 457 781 446 743 L 354 375 C 340 321 334 276 334 240 C 334 138 377 88 465 88 C 557 88 643 133 723 223 L 899 981 L 1073 993 L 1085 979 L 944 371 C 929 307 922 264 922 242 C 922 138 978 86 1092 86 C 1186 86 1275 139 1358 246 C 1441 353 1483 475 1483 612 C 1483 670 1465 721 1430 763 C 1394 805 1376 848 1376 893 C 1376 927 1387 955 1411 977 C 1434 999 1462 1010 1495 1010 C 1579 1010 1622 947 1622 823 C 1622 602 1563 404 1445 230 C 1327 56 1184 -31 1018 -31 C 952 -31 893 -13 841 22 C 789 58 754 106 737 166 Z" unicode="w" />
<glyph horiz-adv-x="1026" d="M 807 813 C 729 743 657 647 590 524 C 644 300 687 172 719 140 C 751 108 791 92 840 92 C 879 92 923 99 971 113 L 952 47 C 851 5 768 -16 703 -16 C 634 -16 586 5 558 47 C 530 89 496 197 457 369 C 357 212 280 108 228 58 C 176 7 122 -18 66 -18 C 33 -18 7 -9 -13 8 C -33 26 -43 50 -43 80 C -43 115 -31 144 -7 166 C 16 188 49 199 92 199 C 112 199 134 195 156 187 C 178 179 198 172 217 166 C 299 242 371 337 434 451 C 375 687 333 818 308 844 C 282 870 248 883 205 883 C 173 883 132 874 82 858 L 100 926 C 220 973 294 997 324 997 C 386 997 432 977 464 937 C 495 897 526 804 556 656 C 558 640 562 622 567 602 C 581 623 595 644 609 666 C 692 800 759 890 809 934 C 859 978 910 1001 963 1001 C 993 1001 1017 991 1037 973 C 1057 955 1067 930 1067 899 C 1067 866 1054 839 1030 818 C 1005 796 973 786 934 786 C 910 786 868 795 807 813 Z" unicode="x" />
<glyph horiz-adv-x="1147" d="M 913 197 C 865 -21 789 -182 686 -287 C 583 -391 448 -444 281 -444 C 105 -444 18 -397 18 -303 C 18 -273 27 -247 45 -226 C 63 -205 87 -195 119 -195 C 179 -195 233 -255 281 -377 L 305 -377 C 399 -377 482 -332 556 -244 C 629 -156 683 -26 717 145 L 711 145 C 583 35 462 -20 346 -20 C 283 -20 233 -2 195 34 C 157 70 139 118 139 180 C 139 221 146 273 162 336 L 240 647 C 254 705 262 753 262 791 C 262 830 255 855 242 867 C 228 879 204 885 170 885 C 144 885 107 877 59 862 L 76 928 C 177 974 254 997 307 997 C 412 997 465 949 465 854 C 465 820 459 783 449 743 L 358 379 C 342 315 334 270 334 244 C 334 146 377 98 463 98 C 556 98 647 143 735 233 L 901 981 L 1073 993 L 1085 979 L 913 197 Z" unicode="y" />
<glyph horiz-adv-x="909" d="M 922 920 L 207 80 L 297 78 C 493 73 603 82 629 106 C 655 129 700 210 766 348 L 825 348 L 758 0 L -27 0 L -10 70 L 692 899 L 561 899 C 426 899 342 887 309 865 C 276 842 239 779 197 676 L 135 676 L 195 979 L 934 979 L 922 920 Z" unicode="z" />
<glyph horiz-adv-x="881" d="M 1026 1460 C 920 1456 846 1435 805 1398 C 763 1361 735 1307 719 1237 L 668 1014 C 644 910 602 826 542 762 C 482 698 379 652 231 625 L 223 594 C 324 574 395 544 435 504 C 475 464 496 408 496 336 C 496 294 482 217 455 105 C 427 -7 414 -79 414 -111 C 414 -157 429 -191 459 -215 C 489 -239 547 -253 633 -258 L 612 -334 C 482 -334 387 -314 327 -276 C 267 -237 238 -175 238 -90 C 238 -43 254 36 286 148 C 318 260 334 334 334 371 C 334 480 246 539 72 549 L 102 674 C 225 682 316 709 376 756 C 435 803 474 903 493 1056 C 507 1177 529 1267 557 1326 C 585 1385 637 1435 712 1475 C 787 1515 898 1536 1044 1536 L 1026 1460 Z" unicode="{" />
<glyph horiz-adv-x="768" d="M 348 -424 L 348 1524 L 475 1524 L 475 -424 L 348 -424 Z" unicode="|" />
<glyph horiz-adv-x="881" d="M 809 530 C 667 516 570 484 519 432 C 468 380 434 285 418 149 C 403 28 380 -62 350 -124 C 319 -186 266 -236 191 -275 C 116 -314 7 -334 -135 -334 L -117 -256 C -11 -252 62 -231 104 -195 C 146 -158 176 -105 193 -35 L 244 190 C 270 303 313 390 375 451 C 436 511 538 554 680 580 L 686 610 C 582 630 511 660 473 701 C 435 741 416 797 416 868 C 416 913 429 990 456 1100 C 482 1209 496 1281 496 1315 C 496 1361 480 1396 449 1420 C 418 1443 361 1457 279 1462 L 297 1536 C 430 1536 526 1516 585 1477 C 644 1438 674 1377 674 1294 C 674 1247 658 1168 626 1056 C 594 944 578 870 578 834 C 578 724 664 665 838 655 L 809 530 Z" unicode="}" />
<glyph horiz-adv-x="1317" d="M 1212 715 C 1181 633 1134 563 1071 506 C 1007 448 940 420 870 420 C 800 420 719 442 629 488 C 537 532 470 555 428 555 C 392 555 361 544 333 522 C 305 500 271 453 233 381 L 156 412 C 188 496 236 565 298 621 C 360 677 426 705 496 705 C 573 705 654 682 740 637 C 825 591 891 569 938 569 C 974 569 1007 580 1036 603 C 1064 626 1097 673 1135 745 L 1212 715 Z" unicode="~" />
<glyph horiz-adv-x="1024" d="" unicode="ⁿ" />
<glyph horiz-adv-x="1024" d="" unicode="₀" />
<glyph horiz-adv-x="1024" d="" unicode="₁" />
<glyph horiz-adv-x="1024" d="" unicode="₂" />
<glyph horiz-adv-x="1024" d="" unicode="₃" />
<glyph horiz-adv-x="1024" d="" unicode="₄" />
<glyph horiz-adv-x="1024" d="" unicode="₅" />
<glyph horiz-adv-x="1024" d="" unicode="₆" />
<glyph horiz-adv-x="1024" d="" unicode="₇" />
<glyph horiz-adv-x="1024" d="" unicode="₈" />
<glyph horiz-adv-x="1024" d="" unicode="₉" />
<glyph horiz-adv-x="494" d="" unicode=" " />
<glyph horiz-adv-x="678" d="M 510 1184 C 471 1184 438 1197 412 1223 C 386 1249 373 1282 373 1321 C 373 1358 386 1389 412 1415 C 438 1441 470 1454 510 1454 C 548 1454 580 1441 606 1415 C 632 1389 645 1357 645 1321 C 645 1283 632 1250 606 1224 C 580 1197 548 1184 510 1184 Z M 494 1004 C 467 832 442 647 420 447 C 405 323 393 232 385 175 C 377 117 365 77 351 54 C 336 30 317 12 293 0 C 269 -13 243 -20 215 -20 C 148 -20 115 13 115 80 C 115 114 135 189 177 306 C 219 422 298 655 416 1004 L 494 1004 Z" unicode="¡" />
<glyph horiz-adv-x="1137" d="M 877 877 C 856 912 813 934 748 942 L 551 90 C 613 90 658 92 688 97 C 718 101 753 117 793 143 C 833 169 881 217 936 287 L 997 246 C 875 68 718 -20 526 -20 L 463 -299 L 371 -299 L 438 -14 C 334 0 254 39 197 107 C 139 174 111 261 111 369 C 111 535 162 682 266 809 C 370 935 506 1004 676 1014 L 735 1276 L 827 1276 L 764 1014 C 852 1006 921 982 969 942 C 1017 902 1042 855 1042 801 C 1042 757 1031 720 1009 688 C 987 656 959 641 924 641 C 852 641 817 669 817 725 C 817 751 837 802 877 877 Z M 659 944 C 562 928 480 868 413 764 C 346 659 313 537 313 397 C 313 245 364 148 467 106 L 659 944 Z" unicode="¢" />
<glyph horiz-adv-x="1274" d="M 1085 1292 C 1081 1316 1065 1337 1037 1354 C 1009 1371 976 1380 938 1380 C 876 1380 820 1360 770 1320 C 720 1280 685 1233 667 1178 C 648 1123 623 997 593 799 C 587 767 582 739 578 715 L 975 715 L 954 623 L 563 623 C 529 431 420 285 238 186 L 236 172 L 1102 172 L 1063 0 L 14 0 L 47 147 C 212 197 318 355 365 623 L 193 623 L 213 715 L 381 715 C 391 896 421 1037 471 1138 C 520 1239 588 1317 674 1373 C 760 1428 855 1456 958 1456 C 1050 1456 1124 1432 1181 1385 C 1237 1337 1266 1278 1266 1208 C 1266 1157 1254 1115 1230 1083 C 1206 1050 1173 1034 1133 1034 C 1060 1034 1024 1063 1024 1122 C 1024 1155 1039 1200 1069 1257 C 1075 1270 1081 1282 1085 1292 Z" unicode="£" />
<glyph horiz-adv-x="1169" d="M 944 141 L 756 326 C 710 297 662 283 610 283 C 560 283 512 297 467 326 L 276 139 L 193 229 L 377 416 C 348 461 334 509 334 559 C 334 610 348 658 377 702 L 193 893 L 281 979 L 467 793 C 512 821 560 836 610 836 C 658 836 707 822 756 795 L 940 979 L 1030 893 L 844 702 C 872 658 887 610 887 559 C 887 509 872 461 844 416 L 1030 227 L 944 141 Z M 610 725 C 564 725 525 708 495 676 C 464 644 449 605 449 559 C 449 513 464 474 496 442 C 528 409 566 393 610 393 C 655 393 693 409 725 442 C 756 474 772 513 772 559 C 772 605 756 644 724 676 C 692 708 654 725 610 725 Z" unicode="¤" />
<glyph horiz-adv-x="1260" d="M 1464 1354 C 1409 1344 1371 1331 1350 1315 C 1336 1307 1324 1300 1315 1296 C 1261 1266 1071 1049 745 645 L 725 557 L 1124 557 L 1104 467 L 705 467 L 643 203 C 640 191 639 178 639 164 C 639 125 657 100 694 90 C 731 79 771 71 815 66 L 801 0 L 195 0 L 211 66 C 310 71 371 84 393 104 C 415 124 431 154 440 193 L 504 467 L 117 467 L 139 557 L 526 557 L 541 627 C 440 995 372 1206 336 1262 C 300 1317 247 1348 176 1354 L 190 1419 L 752 1419 L 735 1354 C 720 1352 702 1351 682 1351 C 597 1346 555 1329 555 1300 C 555 1272 611 1088 723 748 C 1000 1086 1139 1266 1139 1290 C 1139 1326 1086 1347 981 1354 L 997 1419 L 1481 1419 L 1464 1354 Z" unicode="¥" />
<glyph horiz-adv-x="768" d="M 348 723 L 348 1524 L 475 1524 L 475 723 L 348 723 Z M 348 -424 L 348 385 L 475 385 L 475 -424 L 348 -424 Z" unicode="¦" />
<glyph horiz-adv-x="1024" d="M 767 1372 C 739 1378 712 1382 687 1382 C 619 1382 560 1361 510 1320 C 460 1279 435 1232 435 1178 C 435 1142 450 1112 480 1088 C 510 1063 584 1022 702 965 C 853 888 929 794 929 682 C 929 606 899 535 840 467 C 780 399 701 347 603 313 C 713 255 769 179 769 86 C 769 -9 723 -90 633 -157 C 543 -224 432 -258 300 -258 C 215 -258 149 -244 103 -216 C 57 -188 34 -151 34 -105 C 34 -75 44 -47 66 -23 C 88 1 117 14 155 14 C 209 14 247 -48 269 -172 C 293 -181 321 -186 351 -186 C 420 -186 480 -165 532 -123 C 583 -81 609 -29 609 31 C 609 65 596 96 570 124 C 544 152 479 191 374 242 C 208 319 126 419 126 541 C 126 701 230 823 439 905 C 330 970 276 1042 276 1122 C 276 1214 319 1293 405 1357 C 491 1421 602 1454 738 1454 C 825 1454 891 1440 937 1413 C 982 1385 1005 1349 1005 1303 C 1005 1270 994 1242 973 1218 C 951 1194 923 1182 888 1182 C 831 1182 791 1245 767 1372 Z M 513 864 C 361 806 286 716 286 592 C 286 544 303 502 337 468 C 371 434 440 392 542 344 C 690 417 765 511 765 627 C 765 669 748 708 714 743 C 680 777 613 818 513 864 Z" unicode="§" />
<glyph horiz-adv-x="1024" d="M 928 1241 C 894 1241 865 1253 843 1277 C 820 1301 809 1330 809 1364 C 809 1397 820 1426 842 1450 C 864 1474 893 1487 928 1487 C 960 1487 988 1474 1010 1450 C 1032 1426 1044 1397 1044 1364 C 1044 1330 1032 1301 1010 1277 C 988 1253 960 1241 928 1241 Z M 498 1241 C 464 1241 435 1253 413 1277 C 390 1301 379 1330 379 1364 C 379 1397 390 1426 412 1450 C 434 1474 463 1487 498 1487 C 530 1487 558 1474 580 1450 C 602 1426 614 1397 614 1364 C 614 1330 602 1301 580 1277 C 558 1253 530 1241 498 1241 Z" unicode="¨" />
<glyph horiz-adv-x="1929" d="M 993 -281 C 749 -281 541 -193 367 -19 C 193 155 106 363 106 604 C 106 843 193 1050 367 1224 C 541 1398 749 1485 993 1485 C 1235 1485 1442 1398 1616 1224 C 1789 1050 1876 843 1876 604 C 1876 362 1789 154 1616 -19 C 1442 -193 1235 -281 993 -281 Z M 993 1397 C 775 1397 590 1319 437 1165 C 283 1010 207 823 207 604 C 207 382 283 193 436 38 C 589 -117 775 -195 993 -195 C 1211 -195 1396 -117 1549 37 C 1701 192 1778 381 1778 604 C 1778 823 1701 1010 1548 1165 C 1395 1319 1210 1397 993 1397 Z M 1403 403 C 1320 208 1189 111 1010 111 C 862 111 743 154 653 242 C 563 330 518 446 518 592 C 518 734 567 852 666 948 C 764 1044 888 1092 1038 1092 C 1120 1092 1193 1070 1257 1028 L 1303 1094 L 1362 1094 L 1366 731 L 1313 731 C 1277 841 1234 917 1185 958 C 1136 999 1074 1020 999 1020 C 919 1020 854 982 802 908 C 750 834 725 732 725 602 C 725 482 755 387 815 315 C 875 243 954 207 1051 207 C 1183 207 1280 280 1343 428 L 1403 403 Z" unicode="©" />
<glyph horiz-adv-x="1024" d="M 1004 678 C 916 641 849 623 803 623 C 717 623 671 661 664 739 L 657 739 C 567 654 484 612 406 612 C 326 612 264 639 218 695 C 172 751 150 828 150 928 C 150 1062 199 1183 297 1291 C 395 1398 507 1452 635 1452 C 707 1452 771 1435 829 1403 L 977 1442 L 993 1430 L 860 911 C 846 859 840 821 840 797 C 840 765 846 744 860 734 C 873 724 896 719 928 719 C 948 719 978 725 1018 737 L 1004 678 Z M 784 1253 C 788 1271 783 1299 767 1336 C 751 1372 711 1391 649 1391 C 567 1391 494 1343 429 1248 C 364 1152 332 1045 332 926 C 332 838 344 781 368 753 C 392 725 426 711 471 711 C 535 711 602 749 674 825 L 784 1253 Z" unicode="ª" />
<glyph horiz-adv-x="1190" d="M 762 522 L 952 154 L 895 121 L 592 453 C 574 473 565 492 565 510 C 565 542 580 570 611 593 L 1083 938 L 1122 889 L 762 522 Z M 373 522 L 563 154 L 506 121 L 203 453 C 185 473 176 492 176 510 C 176 542 191 570 222 593 L 694 938 L 733 889 L 373 522 Z" unicode="«" />
<glyph horiz-adv-x="1317" d="M 1057 76 L 1057 526 L 170 526 L 170 651 L 1188 651 L 1188 76 L 1057 76 Z" unicode="¬" />
<glyph horiz-adv-x="766" d="M 676 469 L 80 469 L 115 621 L 711 621 L 676 469 Z" unicode="­" />
<glyph horiz-adv-x="1929" d="M 993 -281 C 749 -281 541 -193 367 -19 C 193 155 106 363 106 604 C 106 843 193 1050 367 1224 C 541 1398 749 1485 993 1485 C 1235 1485 1442 1398 1616 1224 C 1789 1050 1876 843 1876 604 C 1876 362 1789 154 1616 -19 C 1442 -193 1235 -281 993 -281 Z M 993 1397 C 775 1397 590 1319 437 1165 C 283 1010 207 823 207 604 C 207 382 283 193 436 38 C 589 -117 775 -195 993 -195 C 1211 -195 1396 -117 1549 37 C 1701 192 1778 381 1778 604 C 1778 823 1701 1010 1548 1165 C 1395 1319 1210 1397 993 1397 Z M 1282 145 C 1188 276 1085 411 975 549 L 868 549 L 868 287 C 868 257 876 238 893 228 C 909 218 948 209 1010 203 L 1010 145 L 571 145 L 571 203 C 631 209 668 218 684 229 C 699 239 707 259 707 287 L 707 930 C 707 962 696 983 675 993 C 653 1003 619 1011 571 1018 L 571 1075 L 1063 1075 C 1151 1075 1223 1055 1281 1017 C 1339 979 1368 924 1368 854 C 1368 722 1289 634 1133 590 L 1316 365 C 1365 301 1404 259 1433 241 C 1462 222 1507 209 1569 203 L 1569 145 L 1282 145 Z M 868 1004 L 868 625 L 956 625 C 1025 625 1080 644 1121 682 C 1161 720 1182 770 1182 834 C 1182 947 1116 1004 985 1004 L 868 1004 Z" unicode="®" />
<glyph horiz-adv-x="1221" d="M 1538 1606 L 213 1606 L 236 1702 L 1563 1702 L 1538 1606 Z" unicode="¯" />
<glyph horiz-adv-x="858" d="M 504 803 C 408 803 330 834 269 896 C 208 958 178 1035 178 1128 C 178 1222 208 1299 270 1360 C 332 1421 410 1452 504 1452 C 600 1452 678 1421 738 1359 C 798 1297 829 1220 829 1128 C 829 1035 798 958 737 896 C 676 834 598 803 504 803 Z M 504 1378 C 448 1378 405 1355 374 1310 C 343 1265 328 1205 328 1130 C 328 962 388 879 508 879 C 557 879 598 900 632 944 C 665 987 682 1046 682 1120 C 682 1204 665 1268 633 1312 C 600 1356 557 1378 504 1378 Z" unicode="°" />
<glyph horiz-adv-x="1317" d="M 174 0 L 174 125 L 621 125 L 621 526 L 174 526 L 174 651 L 621 651 L 621 1104 L 748 1104 L 748 651 L 1194 651 L 1194 526 L 748 526 L 748 125 L 1194 125 L 1194 0 L 174 0 Z" unicode="±" />
<glyph horiz-adv-x="1024" d="M 299 629 L 924 629 L 893 489 L 139 489 L 166 600 C 218 668 307 737 432 807 C 593 897 695 973 737 1037 C 779 1101 801 1167 801 1235 C 801 1282 787 1318 759 1344 C 731 1369 694 1382 649 1382 C 581 1382 526 1360 485 1317 C 487 1299 489 1278 489 1253 C 489 1163 445 1118 358 1118 C 310 1118 287 1143 287 1194 C 287 1253 326 1311 404 1367 C 482 1423 575 1452 682 1452 C 774 1452 847 1431 903 1390 C 959 1349 987 1294 987 1225 C 987 1057 873 923 645 823 C 480 747 365 683 299 629 Z" unicode="²" />
<glyph horiz-adv-x="1024" d="M 713 995 L 711 987 C 855 967 928 903 928 797 C 928 699 882 617 790 552 C 698 487 583 455 446 455 C 358 455 287 472 233 507 C 179 542 152 584 152 633 C 152 664 162 692 182 718 C 202 743 227 756 258 756 C 322 756 354 732 354 684 C 354 659 339 625 311 582 C 347 542 399 522 465 522 C 539 522 602 548 656 601 C 710 654 737 723 737 807 C 737 893 677 936 559 936 L 451 936 L 473 1024 L 549 1024 C 621 1024 677 1045 718 1088 C 759 1131 780 1190 780 1264 C 780 1344 735 1384 645 1384 C 589 1384 537 1363 489 1323 C 492 1307 494 1292 494 1276 C 494 1188 451 1145 367 1145 C 319 1145 295 1167 295 1212 C 295 1268 332 1322 408 1374 C 483 1426 577 1452 690 1452 C 782 1452 852 1433 900 1397 C 947 1360 971 1312 971 1253 C 971 1197 948 1146 904 1099 C 860 1052 796 1017 713 995 Z" unicode="³" />
<glyph horiz-adv-x="1024" d="M 504 1110 L 469 1143 C 555 1257 628 1360 688 1450 C 726 1508 771 1538 825 1538 C 848 1538 867 1530 881 1516 C 895 1501 903 1484 903 1466 C 903 1430 889 1400 863 1377 C 837 1354 755 1293 619 1195 C 585 1171 547 1142 504 1110 Z" unicode="´" />
<glyph horiz-adv-x="1161" d="M 1092 51 C 982 6 901 -16 850 -16 C 801 -16 762 -2 733 26 C 704 54 690 91 690 139 L 684 139 C 663 123 642 105 620 87 C 534 15 440 -20 338 -20 C 258 -20 200 10 166 70 L 160 70 L 147 2 L 133 -108 L 134 -235 C 134 -326 118 -384 88 -408 C 58 -432 28 -444 0 -444 C -46 -444 -70 -419 -70 -371 C -70 -342 -42 -260 12 -125 C 46 -39 74 47 94 135 L 289 981 L 465 993 L 477 981 L 334 354 C 321 298 315 257 315 231 C 315 139 356 94 440 94 C 526 94 615 139 707 229 L 881 981 L 1057 993 L 1067 981 L 918 336 C 901 264 893 216 893 193 C 893 155 901 130 917 116 C 933 102 960 96 997 96 C 1033 96 1069 102 1106 115 L 1092 51 Z" unicode="µ" />
<glyph horiz-adv-x="1024" d="M 1135 1346 L 1024 1346 L 664 -215 L 561 -215 L 922 1346 L 762 1346 L 401 -215 L 299 -215 L 510 700 C 416 700 340 726 282 780 C 224 833 195 905 195 995 C 195 1113 238 1214 325 1296 C 412 1378 523 1419 657 1419 L 1153 1419 L 1135 1346 Z" unicode="¶" />
<glyph horiz-adv-x="571" d="M 297 424 C 259 424 226 436 200 462 C 173 488 160 520 160 559 C 160 596 173 628 199 655 C 225 682 257 696 297 696 C 335 696 367 682 393 655 C 419 627 432 595 432 559 C 432 521 418 489 392 463 C 366 437 334 424 297 424 Z" unicode="·" />
<glyph horiz-adv-x="1024" d="M 233 -444 L 248 -373 C 364 -373 438 -364 470 -347 C 502 -329 518 -305 518 -274 C 518 -229 467 -207 365 -207 L 410 16 L 487 16 L 463 -98 C 525 -98 575 -109 613 -131 C 651 -153 670 -185 670 -225 C 670 -371 524 -444 233 -444 Z" unicode="¸" />
<glyph horiz-adv-x="1024" d="M 823 1446 C 789 1323 769 1244 762 1208 L 631 643 C 624 614 629 594 646 582 C 662 570 715 561 805 555 L 788 489 L 223 489 L 240 555 C 344 559 405 569 424 583 C 443 597 455 615 461 637 L 606 1272 L 399 1272 L 418 1346 L 479 1346 C 579 1346 669 1379 750 1446 L 823 1446 Z" unicode="¹" />
<glyph horiz-adv-x="1024" d="M 504 606 C 410 606 334 636 274 696 C 214 756 184 836 184 934 C 184 1075 232 1197 328 1299 C 424 1401 540 1452 678 1452 C 775 1452 853 1423 911 1365 C 969 1307 999 1230 999 1133 C 999 992 951 869 856 764 C 761 658 644 606 504 606 Z M 662 1384 C 570 1384 498 1334 446 1234 C 393 1134 367 1022 367 899 C 367 829 380 775 408 735 C 436 695 475 676 526 676 C 608 676 677 726 733 826 C 789 926 817 1039 817 1165 C 817 1311 765 1384 662 1384 Z" unicode="º" />
<glyph horiz-adv-x="1190" d="M 543 119 L 504 168 L 864 535 L 674 903 L 731 936 L 1034 604 C 1052 584 1061 565 1061 547 C 1061 514 1046 487 1016 465 L 543 119 Z M 154 119 L 115 168 L 475 535 L 285 903 L 342 936 L 645 604 C 663 584 672 565 672 547 C 672 514 657 487 627 465 L 154 119 Z" unicode="»" />
<glyph horiz-adv-x="2150" d="M 736 1446 C 702 1323 682 1244 675 1208 L 544 643 C 537 614 542 594 559 582 C 575 570 628 561 718 555 L 701 489 L 136 489 L 153 555 C 257 559 318 569 337 583 C 356 597 368 615 374 637 L 519 1272 L 312 1272 L 331 1346 L 392 1346 C 492 1346 582 1379 663 1446 L 736 1446 Z M 1947 321 L 1923 217 L 1763 217 L 1710 -19 L 1544 -19 L 1597 217 L 1102 217 L 1130 339 L 1818 962 L 1935 962 L 1788 321 L 1947 321 Z M 1724 769 L 1233 321 L 1622 321 L 1724 769 Z M 604 0 L 469 0 L 1513 1419 L 1650 1419 L 604 0 Z" unicode="¼" />
<glyph horiz-adv-x="2150" d="M 736 1446 C 702 1323 682 1244 675 1208 L 544 643 C 537 614 542 594 559 582 C 575 570 628 561 718 555 L 701 489 L 136 489 L 153 555 C 257 559 318 569 337 583 C 356 597 368 615 374 637 L 519 1272 L 312 1272 L 331 1346 L 392 1346 C 492 1346 582 1379 663 1446 L 736 1446 Z M 1354 141 L 1979 141 L 1948 1 L 1194 1 L 1221 112 C 1273 180 1362 249 1487 319 C 1648 409 1750 485 1792 549 C 1834 613 1856 679 1856 747 C 1856 794 1842 830 1814 856 C 1786 881 1749 894 1704 894 C 1636 894 1581 872 1540 829 C 1542 811 1544 790 1544 765 C 1544 675 1500 630 1413 630 C 1365 630 1342 655 1342 706 C 1342 765 1381 823 1459 879 C 1537 935 1630 964 1737 964 C 1829 964 1902 943 1958 902 C 2014 861 2042 806 2042 737 C 2042 569 1928 435 1700 335 C 1535 259 1420 195 1354 141 Z M 594 0 L 459 0 L 1503 1419 L 1640 1419 L 594 0 Z" unicode="½" />
<glyph horiz-adv-x="2150" d="M 713 995 L 711 987 C 855 967 928 903 928 797 C 928 699 882 617 790 552 C 698 487 583 455 446 455 C 358 455 287 472 233 507 C 179 542 152 584 152 633 C 152 664 162 692 182 718 C 202 743 227 756 258 756 C 322 756 354 732 354 684 C 354 659 339 625 311 582 C 347 542 399 522 465 522 C 539 522 602 548 656 601 C 710 654 737 723 737 807 C 737 893 677 936 559 936 L 451 936 L 473 1024 L 549 1024 C 621 1024 677 1045 718 1088 C 759 1131 780 1190 780 1264 C 780 1344 735 1384 645 1384 C 589 1384 537 1363 489 1323 C 492 1307 494 1292 494 1276 C 494 1188 451 1145 367 1145 C 319 1145 295 1167 295 1212 C 295 1268 332 1322 408 1374 C 483 1426 577 1452 690 1452 C 782 1452 852 1433 900 1397 C 947 1360 971 1312 971 1253 C 971 1197 948 1146 904 1099 C 860 1052 796 1017 713 995 Z M 2037 321 L 2013 217 L 1853 217 L 1800 -19 L 1634 -19 L 1687 217 L 1192 217 L 1220 339 L 1908 962 L 2025 962 L 1878 321 L 2037 321 Z M 1814 769 L 1323 321 L 1712 321 L 1814 769 Z M 756 0 L 621 0 L 1665 1419 L 1802 1419 L 756 0 Z" unicode="¾" />
<glyph horiz-adv-x="981" d="M 737 1180 C 699 1180 666 1193 640 1221 C 613 1248 600 1280 600 1317 C 600 1354 613 1386 640 1412 C 666 1438 699 1452 737 1452 C 773 1452 805 1439 833 1413 C 860 1387 874 1355 874 1317 C 874 1279 860 1246 833 1220 C 806 1193 774 1180 737 1180 Z M 602 844 L 653 1055 L 745 1055 L 666 676 C 383 648 242 515 242 279 C 242 206 261 150 299 111 C 337 72 388 53 453 53 C 501 53 547 66 590 94 L 590 163 C 590 277 640 334 741 334 C 795 334 823 304 823 246 C 823 180 785 120 710 64 C 635 8 542 -20 430 -20 C 313 -20 222 11 156 73 C 90 135 57 215 57 313 C 57 455 105 573 203 668 C 301 763 434 822 602 844 Z" unicode="¿" />
<glyph horiz-adv-x="1374" d="M 1303 0 L 723 0 L 737 66 C 869 78 936 103 936 141 L 891 494 L 391 494 C 272 298 213 181 213 143 C 213 100 275 74 399 66 L 385 0 L -160 0 L -145 66 C -92 70 -46 81 -8 101 C 30 121 64 150 92 188 C 120 226 224 389 402 678 L 872 1440 L 952 1440 L 1141 211 C 1155 122 1213 74 1317 66 L 1303 0 Z M 786 1130 L 446 575 L 874 575 L 786 1130 Z M 1073 1546 L 1038 1507 C 963 1547 897 1581 839 1610 C 771 1643 719 1670 681 1691 C 643 1711 625 1740 625 1778 C 625 1804 634 1825 652 1842 C 670 1859 693 1868 721 1868 C 739 1868 759 1860 781 1844 C 803 1828 900 1728 1073 1546 Z" unicode="À" />
<glyph horiz-adv-x="1374" d="M 1303 0 L 723 0 L 737 66 C 869 78 936 103 936 141 L 891 494 L 391 494 C 272 298 213 181 213 143 C 213 100 275 74 399 66 L 385 0 L -160 0 L -145 66 C -92 70 -46 81 -8 101 C 30 121 64 150 92 188 C 120 226 224 389 402 678 L 872 1440 L 952 1440 L 1141 211 C 1155 122 1213 74 1317 66 L 1303 0 Z M 786 1130 L 446 575 L 874 575 L 786 1130 Z M 774 1507 L 748 1546 C 808 1597 902 1684 1030 1808 C 1068 1848 1109 1868 1153 1868 C 1177 1868 1197 1861 1213 1847 C 1229 1833 1237 1816 1237 1796 C 1237 1744 1203 1703 1137 1674 C 1070 1644 949 1589 774 1507 Z" unicode="Á" />
<glyph horiz-adv-x="1374" d="M 1303 0 L 723 0 L 737 66 C 869 78 936 103 936 141 L 891 494 L 391 494 C 272 298 213 181 213 143 C 213 100 275 74 399 66 L 385 0 L -160 0 L -145 66 C -92 70 -46 81 -8 101 C 30 121 64 150 92 188 C 120 226 224 389 402 678 L 872 1440 L 952 1440 L 1141 211 C 1155 122 1213 74 1317 66 L 1303 0 Z M 786 1130 L 446 575 L 874 575 L 786 1130 Z M 1212 1538 L 1163 1507 L 927 1718 L 608 1507 L 561 1538 L 852 1823 C 882 1853 916 1868 952 1868 C 990 1868 1016 1854 1032 1827 L 1212 1538 Z" unicode="Â" />
<glyph horiz-adv-x="1374" d="M 1303 0 L 723 0 L 737 66 C 869 78 936 103 936 141 L 891 494 L 391 494 C 272 298 213 181 213 143 C 213 100 275 74 399 66 L 385 0 L -160 0 L -145 66 C -92 70 -46 81 -8 101 C 30 121 64 150 92 188 C 120 226 224 389 402 678 L 872 1440 L 952 1440 L 1141 211 C 1155 122 1213 74 1317 66 L 1303 0 Z M 786 1130 L 446 575 L 874 575 L 786 1130 Z M 1299 1842 C 1280 1774 1247 1717 1200 1669 C 1153 1621 1101 1598 1045 1598 C 990 1598 932 1615 871 1649 C 809 1683 763 1700 733 1700 C 705 1700 683 1692 666 1678 C 649 1664 624 1626 592 1565 L 535 1590 C 559 1660 593 1718 638 1764 C 682 1810 731 1833 785 1833 C 835 1833 892 1816 955 1782 C 1017 1748 1060 1731 1084 1731 C 1117 1731 1144 1736 1166 1748 C 1187 1759 1211 1798 1237 1864 L 1299 1842 Z" unicode="Ã" />
<glyph horiz-adv-x="1374" d="M 1303 0 L 723 0 L 737 66 C 869 78 936 103 936 141 L 891 494 L 391 494 C 272 298 213 181 213 143 C 213 100 275 74 399 66 L 385 0 L -160 0 L -145 66 C -92 70 -46 81 -8 101 C 30 121 64 150 92 188 C 120 226 224 389 402 678 L 872 1440 L 952 1440 L 1141 211 C 1155 122 1213 74 1317 66 L 1303 0 Z M 786 1130 L 446 575 L 874 575 L 786 1130 Z M 1136 1608 C 1103 1608 1075 1619 1052 1643 C 1029 1667 1018 1696 1018 1731 C 1018 1765 1029 1793 1052 1817 C 1075 1841 1103 1853 1136 1853 C 1169 1853 1197 1841 1219 1817 C 1241 1793 1253 1765 1253 1731 C 1253 1696 1241 1667 1219 1643 C 1197 1619 1169 1608 1136 1608 Z M 686 1608 C 653 1608 625 1619 602 1643 C 578 1667 567 1696 567 1731 C 567 1765 578 1793 602 1817 C 625 1841 653 1853 686 1853 C 718 1853 746 1841 770 1817 C 793 1793 805 1765 805 1731 C 805 1696 793 1667 770 1643 C 746 1619 718 1608 686 1608 Z" unicode="Ä" />
<glyph horiz-adv-x="1374" d="M 1303 0 L 723 0 L 737 66 C 869 78 936 103 936 141 L 891 494 L 391 494 C 272 298 213 181 213 143 C 213 100 275 74 399 66 L 385 0 L -160 0 L -145 66 C -92 70 -46 81 -8 101 C 30 121 64 150 92 188 C 120 226 224 389 402 678 L 872 1440 L 952 1440 L 1141 211 C 1155 122 1213 74 1317 66 L 1303 0 Z M 786 1130 L 446 575 L 874 575 L 786 1130 Z M 882 1423 C 812 1423 757 1439 718 1472 C 678 1505 659 1549 659 1605 C 659 1679 687 1742 745 1792 C 802 1842 873 1868 958 1868 C 1025 1868 1079 1850 1120 1816 C 1160 1781 1181 1736 1181 1681 C 1181 1609 1153 1548 1097 1498 C 1041 1448 969 1423 882 1423 Z M 947 1808 C 899 1808 860 1788 829 1749 C 798 1709 783 1662 783 1607 C 783 1524 819 1483 892 1483 C 941 1483 980 1502 1010 1541 C 1039 1580 1054 1627 1054 1681 C 1054 1765 1018 1808 947 1808 Z" unicode="Å" />
<glyph horiz-adv-x="1989" d="M 1960 1077 L 1884 1077 C 1879 1147 1866 1203 1844 1247 C 1822 1290 1796 1317 1767 1329 C 1738 1340 1671 1346 1567 1346 L 1348 1346 L 1217 774 L 1366 774 C 1444 774 1505 792 1547 830 C 1589 867 1624 926 1653 1008 L 1729 1008 L 1599 453 L 1526 453 C 1528 471 1530 491 1530 512 C 1530 578 1519 626 1497 654 C 1475 682 1426 696 1348 696 L 1198 696 L 1100 264 C 1090 220 1085 188 1085 168 C 1085 130 1097 105 1122 94 C 1146 83 1202 78 1288 78 C 1388 78 1460 81 1502 88 C 1544 94 1577 106 1602 122 C 1626 138 1665 179 1719 246 C 1772 312 1813 370 1841 418 L 1915 418 L 1792 0 L 623 0 L 639 66 C 739 73 800 86 822 104 C 844 122 859 150 868 188 L 965 604 L 489 604 C 281 348 178 196 178 150 C 178 100 228 72 328 66 L 313 0 L -223 0 L -209 66 C -129 78 -70 99 -31 128 C 7 157 82 240 194 378 C 306 516 557 833 948 1331 C 928 1341 872 1349 780 1354 L 797 1419 L 2038 1419 L 1960 1077 Z M 1065 1335 L 555 688 L 983 688 L 1133 1335 L 1065 1335 Z" unicode="Æ" />
<glyph horiz-adv-x="1315" d="M 1319 913 L 1237 913 L 1237 952 C 1237 1230 1129 1370 915 1370 C 755 1370 619 1290 507 1131 C 394 971 338 779 338 555 C 338 409 373 292 444 206 C 514 119 607 76 723 76 C 917 76 1074 182 1194 395 L 1266 358 C 1116 97 905 -33 631 -33 C 477 -33 350 19 250 123 C 150 227 100 363 100 532 C 100 779 180 994 341 1177 C 501 1360 693 1452 915 1452 C 1068 1452 1193 1418 1290 1352 L 1348 1419 L 1427 1419 L 1319 913 Z M 413 -444 L 428 -373 C 544 -373 618 -364 650 -347 C 682 -329 698 -305 698 -274 C 698 -229 647 -207 545 -207 L 590 16 L 667 16 L 643 -98 C 705 -98 755 -109 793 -131 C 831 -153 850 -185 850 -225 C 850 -371 704 -444 413 -444 Z" unicode="Ç" />
<glyph horiz-adv-x="1337" d="M 1309 1077 L 1235 1077 C 1230 1147 1216 1203 1194 1246 C 1172 1288 1146 1316 1118 1328 C 1090 1340 1022 1346 915 1346 L 688 1346 L 557 774 L 717 774 C 792 774 849 790 889 822 C 929 854 967 916 1004 1008 L 1077 1008 L 950 453 L 877 453 C 877 525 875 574 871 602 C 867 630 854 652 830 670 C 806 687 762 696 698 696 L 539 696 L 438 264 C 430 230 426 198 426 168 C 426 132 438 108 464 96 C 490 84 548 78 639 78 C 741 78 812 81 854 88 C 896 95 929 107 955 124 C 980 140 1019 181 1071 247 C 1123 313 1164 370 1192 418 L 1264 418 L 1141 0 L -37 0 L -23 66 C 67 72 125 83 152 98 C 179 113 198 143 209 188 L 446 1219 C 449 1233 451 1245 451 1255 C 451 1311 392 1344 274 1354 L 291 1419 L 1389 1419 L 1309 1077 Z M 1032 1546 L 997 1507 C 922 1547 856 1581 798 1610 C 730 1643 678 1670 640 1691 C 602 1711 584 1740 584 1778 C 584 1804 593 1825 611 1842 C 629 1859 652 1868 680 1868 C 698 1868 718 1860 740 1844 C 762 1828 859 1728 1032 1546 Z" unicode="È" />
<glyph horiz-adv-x="1337" d="M 1309 1077 L 1235 1077 C 1230 1147 1216 1203 1194 1246 C 1172 1288 1146 1316 1118 1328 C 1090 1340 1022 1346 915 1346 L 688 1346 L 557 774 L 717 774 C 792 774 849 790 889 822 C 929 854 967 916 1004 1008 L 1077 1008 L 950 453 L 877 453 C 877 525 875 574 871 602 C 867 630 854 652 830 670 C 806 687 762 696 698 696 L 539 696 L 438 264 C 430 230 426 198 426 168 C 426 132 438 108 464 96 C 490 84 548 78 639 78 C 741 78 812 81 854 88 C 896 95 929 107 955 124 C 980 140 1019 181 1071 247 C 1123 313 1164 370 1192 418 L 1264 418 L 1141 0 L -37 0 L -23 66 C 67 72 125 83 152 98 C 179 113 198 143 209 188 L 446 1219 C 449 1233 451 1245 451 1255 C 451 1311 392 1344 274 1354 L 291 1419 L 1389 1419 L 1309 1077 Z M 713 1507 L 687 1546 C 747 1597 841 1684 969 1808 C 1007 1848 1048 1868 1092 1868 C 1116 1868 1136 1861 1152 1847 C 1168 1833 1176 1816 1176 1796 C 1176 1744 1142 1703 1076 1674 C 1009 1644 888 1589 713 1507 Z" unicode="É" />
<glyph horiz-adv-x="1337" d="M 1309 1077 L 1235 1077 C 1230 1147 1216 1203 1194 1246 C 1172 1288 1146 1316 1118 1328 C 1090 1340 1022 1346 915 1346 L 688 1346 L 557 774 L 717 774 C 792 774 849 790 889 822 C 929 854 967 916 1004 1008 L 1077 1008 L 950 453 L 877 453 C 877 525 875 574 871 602 C 867 630 854 652 830 670 C 806 687 762 696 698 696 L 539 696 L 438 264 C 430 230 426 198 426 168 C 426 132 438 108 464 96 C 490 84 548 78 639 78 C 741 78 812 81 854 88 C 896 95 929 107 955 124 C 980 140 1019 181 1071 247 C 1123 313 1164 370 1192 418 L 1264 418 L 1141 0 L -37 0 L -23 66 C 67 72 125 83 152 98 C 179 113 198 143 209 188 L 446 1219 C 449 1233 451 1245 451 1255 C 451 1311 392 1344 274 1354 L 291 1419 L 1389 1419 L 1309 1077 Z M 1210 1538 L 1161 1507 L 925 1718 L 606 1507 L 559 1538 L 850 1823 C 880 1853 914 1868 950 1868 C 988 1868 1014 1854 1030 1827 L 1210 1538 Z" unicode="Ê" />
<glyph horiz-adv-x="1337" d="M 1309 1077 L 1235 1077 C 1230 1147 1216 1203 1194 1246 C 1172 1288 1146 1316 1118 1328 C 1090 1340 1022 1346 915 1346 L 688 1346 L 557 774 L 717 774 C 792 774 849 790 889 822 C 929 854 967 916 1004 1008 L 1077 1008 L 950 453 L 877 453 C 877 525 875 574 871 602 C 867 630 854 652 830 670 C 806 687 762 696 698 696 L 539 696 L 438 264 C 430 230 426 198 426 168 C 426 132 438 108 464 96 C 490 84 548 78 639 78 C 741 78 812 81 854 88 C 896 95 929 107 955 124 C 980 140 1019 181 1071 247 C 1123 313 1164 370 1192 418 L 1264 418 L 1141 0 L -37 0 L -23 66 C 67 72 125 83 152 98 C 179 113 198 143 209 188 L 446 1219 C 449 1233 451 1245 451 1255 C 451 1311 392 1344 274 1354 L 291 1419 L 1389 1419 L 1309 1077 Z M 1108 1608 C 1075 1608 1047 1619 1024 1643 C 1001 1667 990 1696 990 1731 C 990 1765 1001 1793 1024 1817 C 1047 1841 1075 1853 1108 1853 C 1141 1853 1169 1841 1191 1817 C 1213 1793 1225 1765 1225 1731 C 1225 1696 1213 1667 1191 1643 C 1169 1619 1141 1608 1108 1608 Z M 658 1608 C 625 1608 597 1619 574 1643 C 550 1667 539 1696 539 1731 C 539 1765 550 1793 574 1817 C 597 1841 625 1853 658 1853 C 690 1853 718 1841 742 1817 C 765 1793 777 1765 777 1731 C 777 1696 765 1667 742 1643 C 718 1619 690 1608 658 1608 Z" unicode="Ë" />
<glyph horiz-adv-x="799" d="M 907 1354 C 815 1347 755 1335 725 1318 C 695 1301 676 1272 666 1231 L 426 193 C 423 181 422 171 422 162 C 422 106 484 74 610 66 L 596 0 L -43 0 L -29 66 C 75 70 139 82 163 103 C 187 123 203 150 211 182 L 451 1221 C 453 1232 455 1243 455 1255 C 455 1286 438 1308 404 1321 C 370 1334 324 1345 268 1354 L 283 1419 L 922 1419 L 907 1354 Z M 843 1546 L 808 1507 C 733 1547 667 1581 609 1610 C 541 1643 489 1670 451 1691 C 413 1711 395 1740 395 1778 C 395 1804 404 1825 422 1842 C 440 1859 463 1868 491 1868 C 509 1868 529 1860 551 1844 C 573 1828 670 1728 843 1546 Z" unicode="Ì" />
<glyph horiz-adv-x="799" d="M 907 1354 C 815 1347 755 1335 725 1318 C 695 1301 676 1272 666 1231 L 426 193 C 423 181 422 171 422 162 C 422 106 484 74 610 66 L 596 0 L -43 0 L -29 66 C 75 70 139 82 163 103 C 187 123 203 150 211 182 L 451 1221 C 453 1232 455 1243 455 1255 C 455 1286 438 1308 404 1321 C 370 1334 324 1345 268 1354 L 283 1419 L 922 1419 L 907 1354 Z M 453 1507 L 427 1546 C 487 1597 581 1684 709 1808 C 747 1848 788 1868 832 1868 C 856 1868 876 1861 892 1847 C 908 1833 916 1816 916 1796 C 916 1744 882 1703 816 1674 C 749 1644 628 1589 453 1507 Z" unicode="Í" />
<glyph horiz-adv-x="799" d="M 907 1354 C 815 1347 755 1335 725 1318 C 695 1301 676 1272 666 1231 L 426 193 C 423 181 422 171 422 162 C 422 106 484 74 610 66 L 596 0 L -43 0 L -29 66 C 75 70 139 82 163 103 C 187 123 203 150 211 182 L 451 1221 C 453 1232 455 1243 455 1255 C 455 1286 438 1308 404 1321 C 370 1334 324 1345 268 1354 L 283 1419 L 922 1419 L 907 1354 Z M 947 1538 L 898 1507 L 662 1718 L 343 1507 L 296 1538 L 587 1823 C 617 1853 651 1868 687 1868 C 725 1868 751 1854 767 1827 L 947 1538 Z" unicode="Î" />
<glyph horiz-adv-x="799" d="M 907 1354 C 815 1347 755 1335 725 1318 C 695 1301 676 1272 666 1231 L 426 193 C 423 181 422 171 422 162 C 422 106 484 74 610 66 L 596 0 L -43 0 L -29 66 C 75 70 139 82 163 103 C 187 123 203 150 211 182 L 451 1221 C 453 1232 455 1243 455 1255 C 455 1286 438 1308 404 1321 C 370 1334 324 1345 268 1354 L 283 1419 L 922 1419 L 907 1354 Z M 881 1608 C 848 1608 820 1619 797 1643 C 774 1667 763 1696 763 1731 C 763 1765 774 1793 797 1817 C 820 1841 848 1853 881 1853 C 914 1853 942 1841 964 1817 C 986 1793 998 1765 998 1731 C 998 1696 986 1667 964 1643 C 942 1619 914 1608 881 1608 Z M 431 1608 C 398 1608 370 1619 347 1643 C 323 1667 312 1696 312 1731 C 312 1765 323 1793 347 1817 C 370 1841 398 1853 431 1853 C 463 1853 491 1841 515 1817 C 538 1793 550 1765 550 1731 C 550 1696 538 1667 515 1643 C 491 1619 463 1608 431 1608 Z" unicode="Ï" />
<glyph horiz-adv-x="1534" d="M -29 0 L -14 66 C 44 66 92 72 131 86 C 169 99 195 132 207 184 L 328 702 L 141 702 L 164 797 L 348 797 L 442 1204 C 448 1230 451 1247 451 1255 C 451 1287 436 1310 408 1324 C 380 1338 341 1348 291 1354 L 305 1419 L 907 1419 C 1076 1419 1220 1371 1338 1277 C 1456 1183 1516 1048 1516 872 C 1516 616 1425 406 1245 244 C 1065 81 846 0 590 0 L -29 0 Z M 686 1339 L 561 797 L 864 797 L 844 702 L 541 702 L 432 238 C 428 220 426 203 426 186 C 426 144 443 116 479 101 C 515 85 569 78 641 78 C 829 78 983 155 1102 310 C 1220 465 1280 652 1280 870 C 1280 1015 1240 1130 1162 1215 C 1084 1300 977 1343 842 1343 C 784 1343 732 1341 686 1339 Z" unicode="Ð" />
<glyph horiz-adv-x="1571" d="M 1743 1354 C 1643 1340 1575 1318 1541 1290 C 1506 1261 1472 1174 1440 1030 L 1198 -14 L 1110 -14 L 526 1184 L 348 410 C 330 334 322 271 322 219 C 322 186 326 160 336 140 C 345 120 375 102 425 88 C 475 74 507 66 522 66 L 508 0 L -76 0 L -59 66 C 25 79 87 98 129 122 C 171 146 210 238 248 399 L 408 1087 C 416 1121 420 1155 420 1188 C 420 1280 351 1336 213 1354 L 229 1419 L 637 1419 L 1176 309 L 1339 1018 C 1357 1096 1366 1158 1366 1206 C 1366 1240 1361 1266 1351 1283 C 1341 1299 1316 1314 1275 1328 C 1233 1342 1197 1350 1165 1354 L 1182 1419 L 1759 1419 L 1743 1354 Z M 1403 1842 C 1384 1774 1351 1717 1304 1669 C 1257 1621 1205 1598 1149 1598 C 1094 1598 1036 1615 975 1649 C 913 1683 867 1700 837 1700 C 809 1700 787 1692 770 1678 C 753 1664 728 1626 696 1565 L 639 1590 C 663 1660 697 1718 742 1764 C 786 1810 835 1833 889 1833 C 939 1833 996 1816 1059 1782 C 1121 1748 1164 1731 1188 1731 C 1221 1731 1248 1736 1270 1748 C 1291 1759 1315 1798 1341 1864 L 1403 1842 Z" unicode="Ñ" />
<glyph horiz-adv-x="1495" d="M 651 -35 C 485 -35 352 18 251 124 C 150 230 100 369 100 541 C 100 789 183 1002 349 1182 C 515 1362 707 1452 926 1452 C 1090 1452 1222 1399 1324 1293 C 1426 1187 1477 1047 1477 872 C 1477 624 1393 410 1225 232 C 1057 54 866 -35 651 -35 Z M 907 1368 C 737 1368 600 1278 494 1098 C 388 918 336 716 336 494 C 336 352 364 242 422 165 C 480 87 562 49 670 49 C 836 49 972 137 1080 315 C 1187 493 1241 698 1241 932 C 1241 1070 1212 1177 1154 1253 C 1096 1329 1013 1368 907 1368 Z M 1143 1546 L 1108 1507 C 1033 1547 967 1581 909 1610 C 841 1643 789 1670 751 1691 C 713 1711 695 1740 695 1778 C 695 1804 704 1825 722 1842 C 740 1859 763 1868 791 1868 C 809 1868 829 1860 851 1844 C 873 1828 970 1728 1143 1546 Z" unicode="Ò" />
<glyph horiz-adv-x="1495" d="M 651 -35 C 485 -35 352 18 251 124 C 150 230 100 369 100 541 C 100 789 183 1002 349 1182 C 515 1362 707 1452 926 1452 C 1090 1452 1222 1399 1324 1293 C 1426 1187 1477 1047 1477 872 C 1477 624 1393 410 1225 232 C 1057 54 866 -35 651 -35 Z M 907 1368 C 737 1368 600 1278 494 1098 C 388 918 336 716 336 494 C 336 352 364 242 422 165 C 480 87 562 49 670 49 C 836 49 972 137 1080 315 C 1187 493 1241 698 1241 932 C 1241 1070 1212 1177 1154 1253 C 1096 1329 1013 1368 907 1368 Z M 733 1507 L 707 1546 C 767 1597 861 1684 989 1808 C 1027 1848 1068 1868 1112 1868 C 1136 1868 1156 1861 1172 1847 C 1188 1833 1196 1816 1196 1796 C 1196 1744 1162 1703 1096 1674 C 1029 1644 908 1589 733 1507 Z" unicode="Ó" />
<glyph horiz-adv-x="1495" d="M 651 -35 C 485 -35 352 18 251 124 C 150 230 100 369 100 541 C 100 789 183 1002 349 1182 C 515 1362 707 1452 926 1452 C 1090 1452 1222 1399 1324 1293 C 1426 1187 1477 1047 1477 872 C 1477 624 1393 410 1225 232 C 1057 54 866 -35 651 -35 Z M 907 1368 C 737 1368 600 1278 494 1098 C 388 918 336 716 336 494 C 336 352 364 242 422 165 C 480 87 562 49 670 49 C 836 49 972 137 1080 315 C 1187 493 1241 698 1241 932 C 1241 1070 1212 1177 1154 1253 C 1096 1329 1013 1368 907 1368 Z M 1249 1538 L 1200 1507 L 964 1718 L 645 1507 L 598 1538 L 889 1823 C 919 1853 953 1868 989 1868 C 1027 1868 1053 1854 1069 1827 L 1249 1538 Z" unicode="Ô" />
<glyph horiz-adv-x="1495" d="M 651 -35 C 485 -35 352 18 251 124 C 150 230 100 369 100 541 C 100 789 183 1002 349 1182 C 515 1362 707 1452 926 1452 C 1090 1452 1222 1399 1324 1293 C 1426 1187 1477 1047 1477 872 C 1477 624 1393 410 1225 232 C 1057 54 866 -35 651 -35 Z M 907 1368 C 737 1368 600 1278 494 1098 C 388 918 336 716 336 494 C 336 352 364 242 422 165 C 480 87 562 49 670 49 C 836 49 972 137 1080 315 C 1187 493 1241 698 1241 932 C 1241 1070 1212 1177 1154 1253 C 1096 1329 1013 1368 907 1368 Z M 1344 1842 C 1325 1774 1292 1717 1245 1669 C 1198 1621 1146 1598 1090 1598 C 1035 1598 977 1615 916 1649 C 854 1683 808 1700 778 1700 C 750 1700 728 1692 711 1678 C 694 1664 669 1626 637 1565 L 580 1590 C 604 1660 638 1718 683 1764 C 727 1810 776 1833 830 1833 C 880 1833 937 1816 1000 1782 C 1062 1748 1105 1731 1129 1731 C 1162 1731 1189 1736 1211 1748 C 1232 1759 1256 1798 1282 1864 L 1344 1842 Z" unicode="Õ" />
<glyph horiz-adv-x="1495" d="M 651 -35 C 485 -35 352 18 251 124 C 150 230 100 369 100 541 C 100 789 183 1002 349 1182 C 515 1362 707 1452 926 1452 C 1090 1452 1222 1399 1324 1293 C 1426 1187 1477 1047 1477 872 C 1477 624 1393 410 1225 232 C 1057 54 866 -35 651 -35 Z M 907 1368 C 737 1368 600 1278 494 1098 C 388 918 336 716 336 494 C 336 352 364 242 422 165 C 480 87 562 49 670 49 C 836 49 972 137 1080 315 C 1187 493 1241 698 1241 932 C 1241 1070 1212 1177 1154 1253 C 1096 1329 1013 1368 907 1368 Z M 1181 1608 C 1148 1608 1120 1619 1097 1643 C 1074 1667 1063 1696 1063 1731 C 1063 1765 1074 1793 1097 1817 C 1120 1841 1148 1853 1181 1853 C 1214 1853 1242 1841 1264 1817 C 1286 1793 1298 1765 1298 1731 C 1298 1696 1286 1667 1264 1643 C 1242 1619 1214 1608 1181 1608 Z M 731 1608 C 698 1608 670 1619 647 1643 C 623 1667 612 1696 612 1731 C 612 1765 623 1793 647 1817 C 670 1841 698 1853 731 1853 C 763 1853 791 1841 815 1817 C 838 1793 850 1765 850 1731 C 850 1696 838 1667 815 1643 C 791 1619 763 1608 731 1608 Z" unicode="Ö" />
<glyph horiz-adv-x="1317" d="M 1044 111 L 682 473 L 322 109 L 233 199 L 598 559 L 233 922 L 322 1010 L 682 647 L 1044 1010 L 1133 922 L 768 559 L 1133 199 L 1044 111 Z" unicode="×" />
<glyph horiz-adv-x="1524" d="M 1370 1235 C 1441 1133 1477 1012 1477 872 C 1477 624 1393 410 1225 232 C 1057 54 866 -35 651 -35 C 486 -35 351 21 246 133 L 76 -33 L 27 18 L 203 190 C 134 288 100 405 100 541 C 100 789 183 1002 349 1182 C 515 1362 707 1452 926 1452 C 1091 1452 1223 1398 1323 1290 L 1462 1427 L 1518 1376 L 1370 1235 Z M 1202 1171 C 1148 1303 1050 1370 907 1370 C 739 1370 601 1280 494 1100 C 387 920 334 718 334 494 C 334 434 338 380 346 332 L 1202 1171 Z M 1229 1098 L 371 256 C 425 118 524 49 670 49 C 835 49 972 137 1080 313 C 1188 489 1243 695 1243 932 C 1243 1000 1238 1056 1229 1098 Z" unicode="Ø" />
<glyph horiz-adv-x="1548" d="M 1720 1354 C 1643 1347 1582 1331 1538 1305 C 1493 1279 1453 1188 1417 1032 L 1320 602 C 1286 450 1256 347 1232 291 C 1207 235 1168 182 1115 132 C 1061 81 995 40 917 10 C 838 -19 752 -35 659 -35 C 519 -35 410 -5 331 54 C 252 114 213 193 213 293 C 213 324 215 351 221 375 L 418 1219 C 420 1230 422 1241 422 1251 C 422 1303 377 1336 289 1350 C 278 1351 269 1352 262 1354 L 279 1419 L 868 1419 L 852 1354 C 778 1348 726 1337 695 1321 C 664 1305 643 1275 633 1229 L 451 438 C 441 394 436 355 436 319 C 436 155 531 74 721 74 C 789 74 852 85 908 107 C 964 129 1013 160 1055 202 C 1096 243 1126 285 1144 327 C 1162 369 1185 451 1215 574 C 1244 697 1273 823 1301 953 C 1329 1083 1343 1172 1343 1221 C 1343 1260 1328 1289 1300 1309 C 1272 1329 1219 1344 1141 1354 L 1157 1419 L 1737 1419 L 1720 1354 Z M 1182 1546 L 1147 1507 C 1072 1547 1006 1581 948 1610 C 880 1643 828 1670 790 1691 C 752 1711 734 1740 734 1778 C 734 1804 743 1825 761 1842 C 779 1859 802 1868 830 1868 C 848 1868 868 1860 890 1844 C 912 1828 1009 1728 1182 1546 Z" unicode="Ù" />
<glyph horiz-adv-x="1548" d="M 1720 1354 C 1643 1347 1582 1331 1538 1305 C 1493 1279 1453 1188 1417 1032 L 1320 602 C 1286 450 1256 347 1232 291 C 1207 235 1168 182 1115 132 C 1061 81 995 40 917 10 C 838 -19 752 -35 659 -35 C 519 -35 410 -5 331 54 C 252 114 213 193 213 293 C 213 324 215 351 221 375 L 418 1219 C 420 1230 422 1241 422 1251 C 422 1303 377 1336 289 1350 C 278 1351 269 1352 262 1354 L 279 1419 L 868 1419 L 852 1354 C 778 1348 726 1337 695 1321 C 664 1305 643 1275 633 1229 L 451 438 C 441 394 436 355 436 319 C 436 155 531 74 721 74 C 789 74 852 85 908 107 C 964 129 1013 160 1055 202 C 1096 243 1126 285 1144 327 C 1162 369 1185 451 1215 574 C 1244 697 1273 823 1301 953 C 1329 1083 1343 1172 1343 1221 C 1343 1260 1328 1289 1300 1309 C 1272 1329 1219 1344 1141 1354 L 1157 1419 L 1737 1419 L 1720 1354 Z M 833 1507 L 807 1546 C 867 1597 961 1684 1089 1808 C 1127 1848 1168 1868 1212 1868 C 1236 1868 1256 1861 1272 1847 C 1288 1833 1296 1816 1296 1796 C 1296 1744 1262 1703 1196 1674 C 1129 1644 1008 1589 833 1507 Z" unicode="Ú" />
<glyph horiz-adv-x="1548" d="M 1720 1354 C 1643 1347 1582 1331 1538 1305 C 1493 1279 1453 1188 1417 1032 L 1320 602 C 1286 450 1256 347 1232 291 C 1207 235 1168 182 1115 132 C 1061 81 995 40 917 10 C 838 -19 752 -35 659 -35 C 519 -35 410 -5 331 54 C 252 114 213 193 213 293 C 213 324 215 351 221 375 L 418 1219 C 420 1230 422 1241 422 1251 C 422 1303 377 1336 289 1350 C 278 1351 269 1352 262 1354 L 279 1419 L 868 1419 L 852 1354 C 778 1348 726 1337 695 1321 C 664 1305 643 1275 633 1229 L 451 438 C 441 394 436 355 436 319 C 436 155 531 74 721 74 C 789 74 852 85 908 107 C 964 129 1013 160 1055 202 C 1096 243 1126 285 1144 327 C 1162 369 1185 451 1215 574 C 1244 697 1273 823 1301 953 C 1329 1083 1343 1172 1343 1221 C 1343 1260 1328 1289 1300 1309 C 1272 1329 1219 1344 1141 1354 L 1157 1419 L 1737 1419 L 1720 1354 Z M 1339 1538 L 1290 1507 L 1054 1718 L 735 1507 L 688 1538 L 979 1823 C 1009 1853 1043 1868 1079 1868 C 1117 1868 1143 1854 1159 1827 L 1339 1538 Z" unicode="Û" />
<glyph horiz-adv-x="1548" d="M 1720 1354 C 1643 1347 1582 1331 1538 1305 C 1493 1279 1453 1188 1417 1032 L 1320 602 C 1286 450 1256 347 1232 291 C 1207 235 1168 182 1115 132 C 1061 81 995 40 917 10 C 838 -19 752 -35 659 -35 C 519 -35 410 -5 331 54 C 252 114 213 193 213 293 C 213 324 215 351 221 375 L 418 1219 C 420 1230 422 1241 422 1251 C 422 1303 377 1336 289 1350 C 278 1351 269 1352 262 1354 L 279 1419 L 868 1419 L 852 1354 C 778 1348 726 1337 695 1321 C 664 1305 643 1275 633 1229 L 451 438 C 441 394 436 355 436 319 C 436 155 531 74 721 74 C 789 74 852 85 908 107 C 964 129 1013 160 1055 202 C 1096 243 1126 285 1144 327 C 1162 369 1185 451 1215 574 C 1244 697 1273 823 1301 953 C 1329 1083 1343 1172 1343 1221 C 1343 1260 1328 1289 1300 1309 C 1272 1329 1219 1344 1141 1354 L 1157 1419 L 1737 1419 L 1720 1354 Z M 1269 1608 C 1236 1608 1208 1619 1185 1643 C 1162 1667 1151 1696 1151 1731 C 1151 1765 1162 1793 1185 1817 C 1208 1841 1236 1853 1269 1853 C 1302 1853 1330 1841 1352 1817 C 1374 1793 1386 1765 1386 1731 C 1386 1696 1374 1667 1352 1643 C 1330 1619 1302 1608 1269 1608 Z M 819 1608 C 786 1608 758 1619 735 1643 C 711 1667 700 1696 700 1731 C 700 1765 711 1793 735 1817 C 758 1841 786 1853 819 1853 C 851 1853 879 1841 903 1817 C 926 1793 938 1765 938 1731 C 938 1696 926 1667 903 1643 C 879 1619 851 1608 819 1608 Z" unicode="Ü" />
<glyph horiz-adv-x="1260" d="M 1501 1354 C 1468 1350 1433 1339 1395 1321 C 1357 1303 1316 1273 1272 1231 C 1228 1189 1140 1086 1008 923 C 876 759 797 659 773 623 C 749 586 730 538 717 479 L 653 203 C 650 191 649 180 649 168 C 649 124 673 97 723 86 C 772 75 814 68 848 66 L 834 0 L 170 0 L 184 66 C 280 72 344 83 374 98 C 404 112 426 144 438 193 L 510 504 C 515 527 518 543 518 553 C 518 584 501 653 469 761 L 365 1105 C 328 1226 292 1297 256 1318 C 220 1339 182 1351 143 1354 L 160 1419 L 741 1419 L 725 1354 C 639 1350 584 1344 562 1335 C 539 1326 528 1314 528 1298 C 528 1270 589 1066 711 688 C 1016 1057 1169 1257 1169 1288 C 1169 1324 1111 1346 997 1354 L 1014 1419 L 1518 1419 L 1501 1354 Z M 729 1507 L 703 1546 C 763 1597 857 1684 985 1808 C 1023 1848 1064 1868 1108 1868 C 1132 1868 1152 1861 1168 1847 C 1184 1833 1192 1816 1192 1796 C 1192 1744 1158 1703 1092 1674 C 1025 1644 904 1589 729 1507 Z" unicode="Ý" />
<glyph horiz-adv-x="1257" d="M 451 324 L 420 188 C 417 176 416 164 416 152 C 416 124 425 103 443 91 C 461 79 512 70 596 66 L 580 0 L -27 0 L -10 66 C 80 71 137 84 161 105 C 184 125 199 153 207 188 L 444 1221 C 448 1241 451 1253 451 1257 C 451 1305 395 1338 285 1354 L 299 1419 L 897 1419 L 881 1354 C 800 1348 746 1336 718 1320 C 690 1303 672 1273 662 1231 L 639 1133 L 879 1133 C 989 1133 1078 1105 1146 1051 C 1214 997 1249 923 1249 831 C 1249 681 1188 559 1068 465 C 948 371 804 324 637 324 L 451 324 Z M 621 1055 L 471 406 L 594 406 C 722 406 823 445 895 524 C 967 602 1004 702 1004 823 C 1004 896 982 953 939 994 C 895 1034 834 1055 754 1055 L 621 1055 Z" unicode="Þ" />
<glyph horiz-adv-x="1110" d="M 782 938 L 780 930 C 861 909 925 869 972 810 C 1018 751 1042 680 1042 596 C 1042 432 985 290 871 170 C 757 50 629 -10 487 -10 C 437 -10 397 -6 365 0 L 383 82 C 419 74 449 70 475 70 C 578 70 664 127 734 241 C 803 355 838 487 838 637 C 838 717 818 780 779 824 C 740 868 686 891 616 891 L 598 891 L 616 973 L 653 973 C 729 973 799 1003 862 1065 C 924 1127 956 1211 956 1317 C 956 1422 909 1475 815 1475 C 656 1475 548 1337 492 1061 L 279 59 C 249 -81 184 -199 85 -297 C -13 -395 -118 -444 -229 -444 C -343 -444 -401 -404 -401 -326 C -401 -296 -392 -270 -374 -249 C -356 -227 -331 -217 -299 -217 C -251 -217 -208 -248 -171 -312 C -161 -329 -151 -346 -141 -362 C -43 -353 32 -225 84 23 L 295 1006 C 337 1202 410 1341 516 1425 C 622 1508 731 1550 844 1550 C 928 1550 997 1529 1050 1489 C 1103 1448 1130 1391 1130 1317 C 1130 1215 1095 1130 1026 1061 C 956 992 875 951 782 938 Z" unicode="ß" />
<glyph horiz-adv-x="1174" d="M 1098 51 C 992 6 911 -16 856 -16 C 808 -16 770 -2 741 26 C 712 54 697 89 696 131 L 688 131 C 570 24 467 -29 381 -29 C 284 -29 208 5 153 74 C 97 143 70 238 70 360 C 70 528 127 678 243 811 C 359 943 492 1010 643 1010 C 734 1010 813 988 881 946 L 1065 993 L 1075 979 L 924 334 C 907 262 899 215 899 193 C 899 155 907 129 923 116 C 939 102 966 96 1004 96 C 1040 96 1076 102 1112 115 L 1098 51 Z M 840 764 C 846 790 836 826 812 871 C 787 915 736 938 659 938 C 561 938 473 878 394 760 C 315 642 276 508 276 358 C 276 259 290 189 320 147 C 349 105 395 84 457 84 C 532 84 617 131 713 225 L 840 764 Z M 855 1110 L 674 1259 C 600 1317 553 1357 534 1379 C 515 1400 506 1424 506 1450 C 506 1472 514 1493 530 1511 C 546 1529 567 1538 595 1538 C 634 1538 665 1518 689 1479 L 894 1143 L 855 1110 Z" unicode="à" />
<glyph horiz-adv-x="1174" d="M 1098 51 C 992 6 911 -16 856 -16 C 808 -16 770 -2 741 26 C 712 54 697 89 696 131 L 688 131 C 570 24 467 -29 381 -29 C 284 -29 208 5 153 74 C 97 143 70 238 70 360 C 70 528 127 678 243 811 C 359 943 492 1010 643 1010 C 734 1010 813 988 881 946 L 1065 993 L 1075 979 L 924 334 C 907 262 899 215 899 193 C 899 155 907 129 923 116 C 939 102 966 96 1004 96 C 1040 96 1076 102 1112 115 L 1098 51 Z M 840 764 C 846 790 836 826 812 871 C 787 915 736 938 659 938 C 561 938 473 878 394 760 C 315 642 276 508 276 358 C 276 259 290 189 320 147 C 349 105 395 84 457 84 C 532 84 617 131 713 225 L 840 764 Z M 524 1110 L 489 1143 C 575 1257 648 1360 708 1450 C 746 1508 791 1538 845 1538 C 868 1538 887 1530 901 1516 C 915 1501 923 1484 923 1466 C 923 1430 909 1400 883 1377 C 857 1354 775 1293 639 1195 C 605 1171 567 1142 524 1110 Z" unicode="á" />
<glyph horiz-adv-x="1174" d="M 1098 51 C 992 6 911 -16 856 -16 C 808 -16 770 -2 741 26 C 712 54 697 89 696 131 L 688 131 C 570 24 467 -29 381 -29 C 284 -29 208 5 153 74 C 97 143 70 238 70 360 C 70 528 127 678 243 811 C 359 943 492 1010 643 1010 C 734 1010 813 988 881 946 L 1065 993 L 1075 979 L 924 334 C 907 262 899 215 899 193 C 899 155 907 129 923 116 C 939 102 966 96 1004 96 C 1040 96 1076 102 1112 115 L 1098 51 Z M 840 764 C 846 790 836 826 812 871 C 787 915 736 938 659 938 C 561 938 473 878 394 760 C 315 642 276 508 276 358 C 276 259 290 189 320 147 C 349 105 395 84 457 84 C 532 84 617 131 713 225 L 840 764 Z M 952 1118 L 726 1391 L 397 1118 L 349 1151 L 653 1497 C 669 1516 683 1528 694 1534 C 704 1539 723 1542 751 1542 C 786 1542 812 1528 829 1501 L 1001 1151 L 952 1118 Z" unicode="â" />
<glyph horiz-adv-x="1174" d="M 1098 51 C 992 6 911 -16 856 -16 C 808 -16 770 -2 741 26 C 712 54 697 89 696 131 L 688 131 C 570 24 467 -29 381 -29 C 284 -29 208 5 153 74 C 97 143 70 238 70 360 C 70 528 127 678 243 811 C 359 943 492 1010 643 1010 C 734 1010 813 988 881 946 L 1065 993 L 1075 979 L 924 334 C 907 262 899 215 899 193 C 899 155 907 129 923 116 C 939 102 966 96 1004 96 C 1040 96 1076 102 1112 115 L 1098 51 Z M 840 764 C 846 790 836 826 812 871 C 787 915 736 938 659 938 C 561 938 473 878 394 760 C 315 642 276 508 276 358 C 276 259 290 189 320 147 C 349 105 395 84 457 84 C 532 84 617 131 713 225 L 840 764 Z M 1089 1473 C 1070 1405 1037 1348 990 1300 C 943 1252 891 1229 835 1229 C 780 1229 722 1246 661 1280 C 599 1314 553 1331 523 1331 C 495 1331 473 1323 456 1309 C 439 1295 414 1257 382 1196 L 325 1221 C 349 1291 383 1349 428 1395 C 472 1441 521 1464 575 1464 C 625 1464 682 1447 745 1413 C 807 1379 850 1362 874 1362 C 907 1362 934 1367 956 1379 C 977 1390 1001 1429 1027 1495 L 1089 1473 Z" unicode="ã" />
<glyph horiz-adv-x="1174" d="M 1098 51 C 992 6 911 -16 856 -16 C 808 -16 770 -2 741 26 C 712 54 697 89 696 131 L 688 131 C 570 24 467 -29 381 -29 C 284 -29 208 5 153 74 C 97 143 70 238 70 360 C 70 528 127 678 243 811 C 359 943 492 1010 643 1010 C 734 1010 813 988 881 946 L 1065 993 L 1075 979 L 924 334 C 907 262 899 215 899 193 C 899 155 907 129 923 116 C 939 102 966 96 1004 96 C 1040 96 1076 102 1112 115 L 1098 51 Z M 840 764 C 846 790 836 826 812 871 C 787 915 736 938 659 938 C 561 938 473 878 394 760 C 315 642 276 508 276 358 C 276 259 290 189 320 147 C 349 105 395 84 457 84 C 532 84 617 131 713 225 L 840 764 Z M 927 1241 C 893 1241 864 1253 842 1277 C 819 1301 808 1330 808 1364 C 808 1397 819 1426 841 1450 C 863 1474 892 1487 927 1487 C 959 1487 987 1474 1009 1450 C 1031 1426 1043 1397 1043 1364 C 1043 1330 1031 1301 1009 1277 C 987 1253 959 1241 927 1241 Z M 497 1241 C 463 1241 434 1253 412 1277 C 389 1301 378 1330 378 1364 C 378 1397 389 1426 411 1450 C 433 1474 462 1487 497 1487 C 529 1487 557 1474 579 1450 C 601 1426 613 1397 613 1364 C 613 1330 601 1301 579 1277 C 557 1253 529 1241 497 1241 Z" unicode="ä" />
<glyph horiz-adv-x="1174" d="M 1098 51 C 992 6 911 -16 856 -16 C 808 -16 770 -2 741 26 C 712 54 697 89 696 131 L 688 131 C 570 24 467 -29 381 -29 C 284 -29 208 5 153 74 C 97 143 70 238 70 360 C 70 528 127 678 243 811 C 359 943 492 1010 643 1010 C 734 1010 813 988 881 946 L 1065 993 L 1075 979 L 924 334 C 907 262 899 215 899 193 C 899 155 907 129 923 116 C 939 102 966 96 1004 96 C 1040 96 1076 102 1112 115 L 1098 51 Z M 840 764 C 846 790 836 826 812 871 C 787 915 736 938 659 938 C 561 938 473 878 394 760 C 315 642 276 508 276 358 C 276 259 290 189 320 147 C 349 105 395 84 457 84 C 532 84 617 131 713 225 L 840 764 Z M 674 1114 C 604 1114 549 1130 510 1163 C 470 1196 451 1240 451 1296 C 451 1370 479 1433 537 1483 C 594 1533 665 1559 750 1559 C 817 1559 871 1541 912 1507 C 952 1472 973 1427 973 1372 C 973 1300 945 1239 889 1189 C 833 1139 761 1114 674 1114 Z M 739 1499 C 691 1499 652 1479 621 1440 C 590 1400 575 1353 575 1298 C 575 1215 611 1174 684 1174 C 733 1174 772 1193 802 1232 C 831 1271 846 1318 846 1372 C 846 1456 810 1499 739 1499 Z" unicode="å" />
<glyph horiz-adv-x="1565" d="M 866 428 C 866 313 884 227 920 170 C 956 112 1015 84 1098 84 C 1217 84 1325 150 1423 283 L 1481 240 C 1427 158 1359 92 1279 44 C 1198 -4 1116 -29 1032 -29 C 869 -29 760 36 705 168 L 698 168 C 579 38 441 -27 283 -27 C 211 -27 153 -8 110 28 C 66 64 45 114 45 176 C 45 287 93 375 190 440 C 287 505 461 556 711 592 C 735 690 748 752 748 778 C 748 824 734 862 707 892 C 679 922 640 938 588 938 C 530 938 472 921 414 887 L 414 857 C 414 808 411 773 407 753 C 403 732 388 712 364 693 C 340 673 308 664 268 664 C 216 664 190 692 190 748 C 190 814 235 874 327 928 C 418 982 511 1010 606 1010 C 768 1010 868 968 907 885 C 1011 968 1123 1010 1241 1010 C 1332 1010 1402 991 1452 954 C 1501 917 1526 866 1526 801 C 1526 587 1306 463 866 428 Z M 872 500 C 1184 513 1341 621 1341 825 C 1341 900 1301 938 1223 938 C 1146 938 1073 895 1003 810 C 933 725 890 622 872 500 Z M 686 510 C 548 496 440 464 364 412 C 288 360 250 292 250 209 C 250 127 293 86 379 86 C 498 86 599 138 682 244 C 676 274 674 310 674 352 C 674 401 678 454 686 510 Z" unicode="æ" />
<glyph horiz-adv-x="930" d="M 733 887 C 719 921 676 938 604 938 C 516 938 438 886 372 782 C 305 678 272 548 272 391 C 272 296 293 221 335 166 C 377 111 435 84 508 84 C 621 84 726 150 823 283 L 881 240 C 827 157 761 91 681 43 C 601 -4 522 -29 444 -29 C 325 -29 233 6 167 76 C 101 146 68 242 68 365 C 68 539 119 690 223 818 C 327 946 460 1010 623 1010 C 713 1010 784 990 836 952 C 887 913 913 861 913 797 C 913 747 901 705 879 672 C 856 639 824 623 784 623 C 748 623 721 632 703 650 C 685 668 676 688 676 711 C 676 733 695 791 733 887 Z M 233 -444 L 248 -373 C 364 -373 438 -364 470 -347 C 502 -329 518 -305 518 -274 C 518 -229 467 -207 365 -207 L 410 16 L 487 16 L 463 -98 C 525 -98 575 -109 613 -131 C 651 -153 670 -185 670 -225 C 670 -371 524 -444 233 -444 Z" unicode="ç" />
<glyph horiz-adv-x="967" d="M 268 408 C 268 192 344 84 498 84 C 616 84 725 150 825 283 L 883 240 C 828 156 760 91 679 43 C 598 -5 516 -29 432 -29 C 315 -29 225 4 163 70 C 101 136 70 230 70 352 C 70 528 124 681 234 813 C 343 944 479 1010 643 1010 C 733 1010 802 991 852 955 C 901 918 926 867 926 801 C 926 686 869 598 756 538 C 642 477 480 434 268 408 Z M 274 477 C 458 499 581 540 645 599 C 709 657 741 733 741 825 C 741 900 702 938 625 938 C 545 938 472 895 404 809 C 336 723 292 612 274 477 Z M 782 1110 L 601 1259 C 527 1317 480 1357 461 1379 C 442 1400 433 1424 433 1450 C 433 1472 441 1493 457 1511 C 473 1529 494 1538 522 1538 C 561 1538 592 1518 616 1479 L 821 1143 L 782 1110 Z" unicode="è" />
<glyph horiz-adv-x="967" d="M 268 408 C 268 192 344 84 498 84 C 616 84 725 150 825 283 L 883 240 C 828 156 760 91 679 43 C 598 -5 516 -29 432 -29 C 315 -29 225 4 163 70 C 101 136 70 230 70 352 C 70 528 124 681 234 813 C 343 944 479 1010 643 1010 C 733 1010 802 991 852 955 C 901 918 926 867 926 801 C 926 686 869 598 756 538 C 642 477 480 434 268 408 Z M 274 477 C 458 499 581 540 645 599 C 709 657 741 733 741 825 C 741 900 702 938 625 938 C 545 938 472 895 404 809 C 336 723 292 612 274 477 Z M 504 1110 L 469 1143 C 555 1257 628 1360 688 1450 C 726 1508 771 1538 825 1538 C 848 1538 867 1530 881 1516 C 895 1501 903 1484 903 1466 C 903 1430 889 1400 863 1377 C 837 1354 755 1293 619 1195 C 585 1171 547 1142 504 1110 Z" unicode="é" />
<glyph horiz-adv-x="967" d="M 268 408 C 268 192 344 84 498 84 C 616 84 725 150 825 283 L 883 240 C 828 156 760 91 679 43 C 598 -5 516 -29 432 -29 C 315 -29 225 4 163 70 C 101 136 70 230 70 352 C 70 528 124 681 234 813 C 343 944 479 1010 643 1010 C 733 1010 802 991 852 955 C 901 918 926 867 926 801 C 926 686 869 598 756 538 C 642 477 480 434 268 408 Z M 274 477 C 458 499 581 540 645 599 C 709 657 741 733 741 825 C 741 900 702 938 625 938 C 545 938 472 895 404 809 C 336 723 292 612 274 477 Z M 915 1118 L 689 1391 L 360 1118 L 312 1151 L 616 1497 C 632 1516 646 1528 657 1534 C 667 1539 686 1542 714 1542 C 749 1542 775 1528 792 1501 L 964 1151 L 915 1118 Z" unicode="ê" />
<glyph horiz-adv-x="967" d="M 268 408 C 268 192 344 84 498 84 C 616 84 725 150 825 283 L 883 240 C 828 156 760 91 679 43 C 598 -5 516 -29 432 -29 C 315 -29 225 4 163 70 C 101 136 70 230 70 352 C 70 528 124 681 234 813 C 343 944 479 1010 643 1010 C 733 1010 802 991 852 955 C 901 918 926 867 926 801 C 926 686 869 598 756 538 C 642 477 480 434 268 408 Z M 274 477 C 458 499 581 540 645 599 C 709 657 741 733 741 825 C 741 900 702 938 625 938 C 545 938 472 895 404 809 C 336 723 292 612 274 477 Z M 880 1241 C 846 1241 817 1253 795 1277 C 772 1301 761 1330 761 1364 C 761 1397 772 1426 794 1450 C 816 1474 845 1487 880 1487 C 912 1487 940 1474 962 1450 C 984 1426 996 1397 996 1364 C 996 1330 984 1301 962 1277 C 940 1253 912 1241 880 1241 Z M 450 1241 C 416 1241 387 1253 365 1277 C 342 1301 331 1330 331 1364 C 331 1397 342 1426 364 1450 C 386 1474 415 1487 450 1487 C 482 1487 510 1474 532 1450 C 554 1426 566 1397 566 1364 C 566 1330 554 1301 532 1277 C 510 1253 482 1241 450 1241 Z" unicode="ë" />
<glyph horiz-adv-x="608" d="M 537 45 C 430 1 349 -20 295 -20 C 244 -20 205 -7 177 18 C 149 44 135 79 135 123 C 135 151 140 187 152 233 L 258 659 C 273 720 281 768 281 803 C 281 842 274 867 260 878 C 246 889 222 895 186 895 C 164 895 127 889 74 877 L 88 940 C 191 986 270 1010 326 1010 C 429 1010 481 961 481 864 C 481 830 476 794 467 754 L 358 330 C 342 268 334 221 334 190 C 334 124 370 92 442 92 C 480 92 516 97 551 109 L 537 45 Z M 552 1110 L 371 1259 C 297 1317 250 1357 231 1379 C 212 1400 203 1424 203 1450 C 203 1472 211 1493 227 1511 C 243 1529 264 1538 292 1538 C 331 1538 362 1518 386 1479 L 591 1143 L 552 1110 Z" unicode="ì" />
<glyph horiz-adv-x="608" d="M 537 45 C 430 1 349 -20 295 -20 C 244 -20 205 -7 177 18 C 149 44 135 79 135 123 C 135 151 140 187 152 233 L 258 659 C 273 720 281 768 281 803 C 281 842 274 867 260 878 C 246 889 222 895 186 895 C 164 895 127 889 74 877 L 88 940 C 191 986 270 1010 326 1010 C 429 1010 481 961 481 864 C 481 830 476 794 467 754 L 358 330 C 342 268 334 221 334 190 C 334 124 370 92 442 92 C 480 92 516 97 551 109 L 537 45 Z M 265 1110 L 230 1143 C 316 1257 389 1360 449 1450 C 487 1508 532 1538 586 1538 C 609 1538 628 1530 642 1516 C 656 1501 664 1484 664 1466 C 664 1430 650 1400 624 1377 C 598 1354 516 1293 380 1195 C 346 1171 308 1142 265 1110 Z" unicode="í" />
<glyph horiz-adv-x="608" d="M 588 1120 L 395 1391 L 102 1120 L 57 1151 L 322 1493 C 347 1525 380 1542 420 1542 C 458 1542 483 1527 496 1497 L 639 1151 L 588 1120 Z M 537 45 C 430 1 349 -20 295 -20 C 244 -20 205 -7 177 18 C 149 44 135 79 135 123 C 135 151 140 187 152 233 L 258 659 C 273 720 281 768 281 803 C 281 842 274 867 260 878 C 246 889 222 895 186 895 C 164 895 127 889 74 877 L 88 940 C 191 986 270 1010 326 1010 C 429 1010 481 961 481 864 C 481 830 476 794 467 754 L 358 330 C 342 268 334 221 334 190 C 334 124 370 92 442 92 C 480 92 516 97 551 109 L 537 45 Z" unicode="î" />
<glyph horiz-adv-x="608" d="M 590 1241 C 557 1241 530 1252 508 1276 C 486 1300 475 1329 475 1364 C 475 1398 485 1427 507 1451 C 529 1475 556 1487 590 1487 C 622 1487 650 1474 672 1450 C 694 1426 705 1397 705 1364 C 705 1330 693 1301 671 1277 C 649 1253 622 1241 590 1241 Z M 240 1241 C 207 1241 180 1252 158 1276 C 136 1300 125 1329 125 1364 C 125 1398 135 1427 157 1451 C 179 1475 206 1487 240 1487 C 272 1487 299 1475 321 1451 C 343 1427 354 1398 354 1364 C 354 1329 343 1300 321 1276 C 299 1252 272 1241 240 1241 Z M 537 45 C 430 1 349 -20 295 -20 C 244 -20 205 -7 177 18 C 149 44 135 79 135 123 C 135 151 140 187 152 233 L 258 659 C 273 720 281 768 281 803 C 281 842 274 867 260 878 C 246 889 222 895 186 895 C 164 895 127 889 74 877 L 88 940 C 191 986 270 1010 326 1010 C 429 1010 481 961 481 864 C 481 830 476 794 467 754 L 358 330 C 342 268 334 221 334 190 C 334 124 370 92 442 92 C 480 92 516 97 551 109 L 537 45 Z" unicode="ï" />
<glyph horiz-adv-x="1118" d="M 903 1343 C 1016 1186 1073 1015 1073 831 C 1073 591 1016 388 902 220 C 788 52 638 -31 453 -31 C 343 -31 251 5 178 78 C 104 151 68 249 68 371 C 68 542 122 686 231 804 C 340 922 472 981 627 981 C 683 981 734 967 780 940 C 826 912 859 880 877 844 L 885 846 L 887 872 C 896 995 862 1132 786 1282 L 524 1143 L 483 1217 L 745 1354 C 713 1409 668 1457 612 1499 L 672 1556 C 737 1518 797 1469 852 1409 L 1077 1528 L 1120 1452 L 903 1343 Z M 633 907 C 517 907 428 847 366 729 C 303 610 272 473 272 317 C 272 133 339 41 475 41 C 577 41 664 104 735 231 C 806 358 842 497 842 647 C 842 727 823 790 786 837 C 749 883 698 907 633 907 Z" unicode="ð" />
<glyph horiz-adv-x="1208" d="M 1135 51 C 1021 6 940 -16 893 -16 C 786 -16 733 31 733 127 C 733 162 738 199 750 238 L 848 610 C 864 670 872 715 872 745 C 872 842 829 891 745 891 C 652 891 559 838 465 733 L 297 0 L 111 0 L 258 647 C 274 720 283 768 283 791 C 283 828 276 853 263 866 C 249 878 224 885 188 885 C 160 885 124 878 80 864 L 94 930 C 194 974 274 997 336 997 C 430 997 479 943 483 836 L 489 836 C 585 912 658 960 706 980 C 754 1000 806 1010 862 1010 C 926 1010 976 991 1012 955 C 1048 918 1067 869 1067 809 C 1067 761 1058 709 1042 653 L 958 332 C 942 270 934 225 934 195 C 934 157 942 131 958 117 C 974 103 1002 96 1040 96 C 1072 96 1109 103 1149 117 L 1135 51 Z M 1098 1473 C 1079 1405 1046 1348 999 1300 C 952 1252 900 1229 844 1229 C 789 1229 731 1246 670 1280 C 608 1314 562 1331 532 1331 C 504 1331 482 1323 465 1309 C 448 1295 423 1257 391 1196 L 334 1221 C 358 1291 392 1349 437 1395 C 481 1441 530 1464 584 1464 C 634 1464 691 1447 754 1413 C 816 1379 859 1362 883 1362 C 916 1362 943 1367 965 1379 C 986 1390 1010 1429 1036 1495 L 1098 1473 Z" unicode="ñ" />
<glyph horiz-adv-x="1100" d="M 440 -31 C 330 -31 240 4 171 76 C 102 148 68 244 68 365 C 68 543 123 695 235 821 C 346 947 485 1010 653 1010 C 770 1010 862 974 930 902 C 998 830 1032 735 1032 616 C 1032 441 976 289 866 161 C 755 33 613 -31 440 -31 Z M 633 938 C 520 938 431 877 367 755 C 302 633 270 492 270 332 C 270 138 336 41 469 41 C 576 41 663 100 729 220 C 795 340 829 484 829 653 C 829 843 763 938 633 938 Z M 827 1110 L 646 1259 C 572 1317 525 1357 506 1379 C 487 1400 478 1424 478 1450 C 478 1472 486 1493 502 1511 C 518 1529 539 1538 567 1538 C 606 1538 637 1518 661 1479 L 866 1143 L 827 1110 Z" unicode="ò" />
<glyph horiz-adv-x="1100" d="M 440 -31 C 330 -31 240 4 171 76 C 102 148 68 244 68 365 C 68 543 123 695 235 821 C 346 947 485 1010 653 1010 C 770 1010 862 974 930 902 C 998 830 1032 735 1032 616 C 1032 441 976 289 866 161 C 755 33 613 -31 440 -31 Z M 633 938 C 520 938 431 877 367 755 C 302 633 270 492 270 332 C 270 138 336 41 469 41 C 576 41 663 100 729 220 C 795 340 829 484 829 653 C 829 843 763 938 633 938 Z M 506 1110 L 471 1143 C 557 1257 630 1360 690 1450 C 728 1508 773 1538 827 1538 C 850 1538 869 1530 883 1516 C 897 1501 905 1484 905 1466 C 905 1430 891 1400 865 1377 C 839 1354 757 1293 621 1195 C 587 1171 549 1142 506 1110 Z" unicode="ó" />
<glyph horiz-adv-x="1100" d="M 440 -31 C 330 -31 240 4 171 76 C 102 148 68 244 68 365 C 68 543 123 695 235 821 C 346 947 485 1010 653 1010 C 770 1010 862 974 930 902 C 998 830 1032 735 1032 616 C 1032 441 976 289 866 161 C 755 33 613 -31 440 -31 Z M 633 938 C 520 938 431 877 367 755 C 302 633 270 492 270 332 C 270 138 336 41 469 41 C 576 41 663 100 729 220 C 795 340 829 484 829 653 C 829 843 763 938 633 938 Z M 939 1118 L 713 1391 L 384 1118 L 336 1151 L 640 1497 C 656 1516 670 1528 681 1534 C 691 1539 710 1542 738 1542 C 773 1542 799 1528 816 1501 L 988 1151 L 939 1118 Z" unicode="ô" />
<glyph horiz-adv-x="1100" d="M 440 -31 C 330 -31 240 4 171 76 C 102 148 68 244 68 365 C 68 543 123 695 235 821 C 346 947 485 1010 653 1010 C 770 1010 862 974 930 902 C 998 830 1032 735 1032 616 C 1032 441 976 289 866 161 C 755 33 613 -31 440 -31 Z M 633 938 C 520 938 431 877 367 755 C 302 633 270 492 270 332 C 270 138 336 41 469 41 C 576 41 663 100 729 220 C 795 340 829 484 829 653 C 829 843 763 938 633 938 Z M 1066 1473 C 1047 1405 1014 1348 967 1300 C 920 1252 868 1229 812 1229 C 757 1229 699 1246 638 1280 C 576 1314 530 1331 500 1331 C 472 1331 450 1323 433 1309 C 416 1295 391 1257 359 1196 L 302 1221 C 326 1291 360 1349 405 1395 C 449 1441 498 1464 552 1464 C 602 1464 659 1447 722 1413 C 784 1379 827 1362 851 1362 C 884 1362 911 1367 933 1379 C 954 1390 978 1429 1004 1495 L 1066 1473 Z" unicode="õ" />
<glyph horiz-adv-x="1100" d="M 440 -31 C 330 -31 240 4 171 76 C 102 148 68 244 68 365 C 68 543 123 695 235 821 C 346 947 485 1010 653 1010 C 770 1010 862 974 930 902 C 998 830 1032 735 1032 616 C 1032 441 976 289 866 161 C 755 33 613 -31 440 -31 Z M 633 938 C 520 938 431 877 367 755 C 302 633 270 492 270 332 C 270 138 336 41 469 41 C 576 41 663 100 729 220 C 795 340 829 484 829 653 C 829 843 763 938 633 938 Z M 917 1241 C 883 1241 854 1253 832 1277 C 809 1301 798 1330 798 1364 C 798 1397 809 1426 831 1450 C 853 1474 882 1487 917 1487 C 949 1487 977 1474 999 1450 C 1021 1426 1033 1397 1033 1364 C 1033 1330 1021 1301 999 1277 C 977 1253 949 1241 917 1241 Z M 487 1241 C 453 1241 424 1253 402 1277 C 379 1301 368 1330 368 1364 C 368 1397 379 1426 401 1450 C 423 1474 452 1487 487 1487 C 519 1487 547 1474 569 1450 C 591 1426 603 1397 603 1364 C 603 1330 591 1301 569 1277 C 547 1253 519 1241 487 1241 Z" unicode="ö" />
<glyph horiz-adv-x="1317" d="M 684 838 C 648 838 617 850 592 875 C 567 900 555 931 555 967 C 555 1001 567 1031 592 1056 C 617 1081 648 1094 684 1094 C 720 1094 750 1081 775 1056 C 800 1031 813 1001 813 967 C 813 931 800 900 775 875 C 750 850 720 838 684 838 Z M 170 498 L 170 623 L 1198 623 L 1198 498 L 170 498 Z M 684 27 C 647 27 616 39 592 64 C 567 89 555 119 555 154 C 555 189 567 219 593 245 C 619 270 649 283 684 283 C 718 283 748 270 774 245 C 800 219 813 189 813 154 C 813 119 800 89 776 64 C 751 39 720 27 684 27 Z" unicode="÷" />
<glyph horiz-adv-x="1100" d="M 977 838 C 1013 775 1032 701 1032 616 C 1032 441 976 289 866 161 C 755 33 613 -31 440 -31 C 325 -31 232 10 160 92 L 23 -35 L -25 10 L 123 145 C 86 203 68 277 68 365 C 68 543 123 695 235 821 C 346 947 485 1010 653 1010 C 773 1010 868 970 938 891 L 1069 1010 L 1114 965 L 977 838 Z M 819 782 C 791 886 729 938 633 938 C 575 938 522 920 472 884 C 422 848 379 790 343 710 C 307 630 285 559 278 497 C 271 434 268 360 268 274 L 819 782 Z M 831 709 L 281 203 C 305 95 367 41 469 41 C 515 41 560 53 603 79 C 645 104 685 145 721 201 C 757 257 783 321 801 393 C 818 465 827 526 829 576 C 831 626 831 671 831 709 Z" unicode="ø" />
<glyph horiz-adv-x="1178" d="M 1108 51 C 1000 6 920 -16 866 -16 C 817 -16 778 -2 750 26 C 721 54 707 91 707 139 L 700 139 C 574 29 455 -25 342 -25 C 277 -25 227 -6 192 30 C 156 66 139 115 139 176 C 139 217 146 269 162 332 L 240 647 C 254 706 262 754 262 791 C 262 830 255 855 242 867 C 228 879 204 885 170 885 C 144 885 107 877 59 862 L 76 928 C 177 974 254 997 307 997 C 411 997 463 949 463 854 C 463 818 457 781 446 743 L 358 373 C 343 311 336 267 336 240 C 336 142 376 94 457 94 C 546 94 635 139 723 229 L 897 981 L 1071 993 L 1083 979 L 936 336 C 918 257 909 210 909 195 C 909 157 917 131 934 117 C 950 103 978 96 1016 96 C 1050 96 1086 102 1122 115 L 1108 51 Z M 812 1110 L 631 1259 C 557 1317 510 1357 491 1379 C 472 1400 463 1424 463 1450 C 463 1472 471 1493 487 1511 C 503 1529 524 1538 552 1538 C 591 1538 622 1518 646 1479 L 851 1143 L 812 1110 Z" unicode="ù" />
<glyph horiz-adv-x="1178" d="M 1108 51 C 1000 6 920 -16 866 -16 C 817 -16 778 -2 750 26 C 721 54 707 91 707 139 L 700 139 C 574 29 455 -25 342 -25 C 277 -25 227 -6 192 30 C 156 66 139 115 139 176 C 139 217 146 269 162 332 L 240 647 C 254 706 262 754 262 791 C 262 830 255 855 242 867 C 228 879 204 885 170 885 C 144 885 107 877 59 862 L 76 928 C 177 974 254 997 307 997 C 411 997 463 949 463 854 C 463 818 457 781 446 743 L 358 373 C 343 311 336 267 336 240 C 336 142 376 94 457 94 C 546 94 635 139 723 229 L 897 981 L 1071 993 L 1083 979 L 936 336 C 918 257 909 210 909 195 C 909 157 917 131 934 117 C 950 103 978 96 1016 96 C 1050 96 1086 102 1122 115 L 1108 51 Z M 563 1110 L 528 1143 C 614 1257 687 1360 747 1450 C 785 1508 830 1538 884 1538 C 907 1538 926 1530 940 1516 C 954 1501 962 1484 962 1466 C 962 1430 948 1400 922 1377 C 896 1354 814 1293 678 1195 C 644 1171 606 1142 563 1110 Z" unicode="ú" />
<glyph horiz-adv-x="1178" d="M 1108 51 C 1000 6 920 -16 866 -16 C 817 -16 778 -2 750 26 C 721 54 707 91 707 139 L 700 139 C 574 29 455 -25 342 -25 C 277 -25 227 -6 192 30 C 156 66 139 115 139 176 C 139 217 146 269 162 332 L 240 647 C 254 706 262 754 262 791 C 262 830 255 855 242 867 C 228 879 204 885 170 885 C 144 885 107 877 59 862 L 76 928 C 177 974 254 997 307 997 C 411 997 463 949 463 854 C 463 818 457 781 446 743 L 358 373 C 343 311 336 267 336 240 C 336 142 376 94 457 94 C 546 94 635 139 723 229 L 897 981 L 1071 993 L 1083 979 L 936 336 C 918 257 909 210 909 195 C 909 157 917 131 934 117 C 950 103 978 96 1016 96 C 1050 96 1086 102 1122 115 L 1108 51 Z M 948 1118 L 722 1391 L 393 1118 L 345 1151 L 649 1497 C 665 1516 679 1528 690 1534 C 700 1539 719 1542 747 1542 C 782 1542 808 1528 825 1501 L 997 1151 L 948 1118 Z" unicode="û" />
<glyph horiz-adv-x="1178" d="M 1108 51 C 1000 6 920 -16 866 -16 C 817 -16 778 -2 750 26 C 721 54 707 91 707 139 L 700 139 C 574 29 455 -25 342 -25 C 277 -25 227 -6 192 30 C 156 66 139 115 139 176 C 139 217 146 269 162 332 L 240 647 C 254 706 262 754 262 791 C 262 830 255 855 242 867 C 228 879 204 885 170 885 C 144 885 107 877 59 862 L 76 928 C 177 974 254 997 307 997 C 411 997 463 949 463 854 C 463 818 457 781 446 743 L 358 373 C 343 311 336 267 336 240 C 336 142 376 94 457 94 C 546 94 635 139 723 229 L 897 981 L 1071 993 L 1083 979 L 936 336 C 918 257 909 210 909 195 C 909 157 917 131 934 117 C 950 103 978 96 1016 96 C 1050 96 1086 102 1122 115 L 1108 51 Z M 913 1241 C 879 1241 850 1253 828 1277 C 805 1301 794 1330 794 1364 C 794 1397 805 1426 827 1450 C 849 1474 878 1487 913 1487 C 945 1487 973 1474 995 1450 C 1017 1426 1029 1397 1029 1364 C 1029 1330 1017 1301 995 1277 C 973 1253 945 1241 913 1241 Z M 483 1241 C 449 1241 420 1253 398 1277 C 375 1301 364 1330 364 1364 C 364 1397 375 1426 397 1450 C 419 1474 448 1487 483 1487 C 515 1487 543 1474 565 1450 C 587 1426 599 1397 599 1364 C 599 1330 587 1301 565 1277 C 543 1253 515 1241 483 1241 Z" unicode="ü" />
<glyph horiz-adv-x="1147" d="M 913 197 C 865 -21 789 -182 686 -287 C 583 -391 448 -444 281 -444 C 105 -444 18 -397 18 -303 C 18 -273 27 -247 45 -226 C 63 -205 87 -195 119 -195 C 179 -195 233 -255 281 -377 L 305 -377 C 399 -377 482 -332 556 -244 C 629 -156 683 -26 717 145 L 711 145 C 583 35 462 -20 346 -20 C 283 -20 233 -2 195 34 C 157 70 139 118 139 180 C 139 221 146 273 162 336 L 240 647 C 254 705 262 753 262 791 C 262 830 255 855 242 867 C 228 879 204 885 170 885 C 144 885 107 877 59 862 L 76 928 C 177 974 254 997 307 997 C 412 997 465 949 465 854 C 465 820 459 783 449 743 L 358 379 C 342 315 334 270 334 244 C 334 146 377 98 463 98 C 556 98 647 143 735 233 L 901 981 L 1073 993 L 1085 979 L 913 197 Z M 547 1110 L 512 1143 C 598 1257 671 1360 731 1450 C 769 1508 814 1538 868 1538 C 891 1538 910 1530 924 1516 C 938 1501 946 1484 946 1466 C 946 1430 932 1400 906 1377 C 880 1354 798 1293 662 1195 C 628 1171 590 1142 547 1110 Z" unicode="ý" />
<glyph horiz-adv-x="1133" d="M 254 47 L 197 -215 C 187 -261 182 -288 182 -297 C 182 -345 240 -373 358 -381 L 344 -444 L -207 -444 L -193 -381 C -113 -377 -64 -366 -44 -347 C -24 -328 -10 -303 -2 -272 L 350 1286 C 358 1321 362 1346 362 1360 C 362 1390 354 1414 339 1430 C 323 1446 277 1458 199 1464 L 213 1526 L 584 1548 L 594 1534 L 440 868 L 446 868 C 545 962 643 1010 741 1010 C 841 1010 920 975 977 906 C 1034 836 1063 743 1063 627 C 1063 449 1005 295 891 166 C 777 37 644 -27 494 -27 C 401 -27 321 -2 254 47 Z M 420 768 L 291 199 C 298 157 319 120 355 89 C 390 58 433 43 483 43 C 587 43 675 99 747 212 C 819 325 856 462 856 623 C 856 807 789 899 655 899 C 589 899 511 855 420 768 Z" unicode="þ" />
<glyph horiz-adv-x="1147" d="M 913 197 C 865 -21 789 -182 686 -287 C 583 -391 448 -444 281 -444 C 105 -444 18 -397 18 -303 C 18 -273 27 -247 45 -226 C 63 -205 87 -195 119 -195 C 179 -195 233 -255 281 -377 L 305 -377 C 399 -377 482 -332 556 -244 C 629 -156 683 -26 717 145 L 711 145 C 583 35 462 -20 346 -20 C 283 -20 233 -2 195 34 C 157 70 139 118 139 180 C 139 221 146 273 162 336 L 240 647 C 254 705 262 753 262 791 C 262 830 255 855 242 867 C 228 879 204 885 170 885 C 144 885 107 877 59 862 L 76 928 C 177 974 254 997 307 997 C 412 997 465 949 465 854 C 465 820 459 783 449 743 L 358 379 C 342 315 334 270 334 244 C 334 146 377 98 463 98 C 556 98 647 143 735 233 L 901 981 L 1073 993 L 1085 979 L 913 197 Z M 919 1241 C 885 1241 856 1253 834 1277 C 811 1301 800 1330 800 1364 C 800 1397 811 1426 833 1450 C 855 1474 884 1487 919 1487 C 951 1487 979 1474 1001 1450 C 1023 1426 1035 1397 1035 1364 C 1035 1330 1023 1301 1001 1277 C 979 1253 951 1241 919 1241 Z M 489 1241 C 455 1241 426 1253 404 1277 C 381 1301 370 1330 370 1364 C 370 1397 381 1426 403 1450 C 425 1474 454 1487 489 1487 C 521 1487 549 1474 571 1450 C 593 1426 605 1397 605 1364 C 605 1330 593 1301 571 1277 C 549 1253 521 1241 489 1241 Z" unicode="ÿ" />
<glyph horiz-adv-x="1374" d="" unicode="Ā" />
<glyph horiz-adv-x="1174" d="" unicode="ā" />
<glyph horiz-adv-x="1374" d="" unicode="Ă" />
<glyph horiz-adv-x="1174" d="" unicode="ă" />
<glyph horiz-adv-x="1374" d="" unicode="Ą" />
<glyph horiz-adv-x="1174" d="" unicode="ą" />
<glyph horiz-adv-x="1315" d="" unicode="Ć" />
<glyph horiz-adv-x="930" d="" unicode="ć" />
<glyph horiz-adv-x="1315" d="" unicode="Ĉ" />
<glyph horiz-adv-x="930" d="" unicode="ĉ" />
<glyph horiz-adv-x="1315" d="" unicode="Ċ" />
<glyph horiz-adv-x="930" d="" unicode="ċ" />
<glyph horiz-adv-x="1315" d="" unicode="Č" />
<glyph horiz-adv-x="930" d="" unicode="č" />
<glyph horiz-adv-x="1534" d="" unicode="Ď" />
<glyph horiz-adv-x="1407" d="" unicode="ď" />
<glyph horiz-adv-x="1534" d="" unicode="Đ" />
<glyph horiz-adv-x="1178" d="" unicode="đ" />
<glyph horiz-adv-x="1337" d="" unicode="Ē" />
<glyph horiz-adv-x="967" d="" unicode="ē" />
<glyph horiz-adv-x="1337" d="" unicode="Ĕ" />
<glyph horiz-adv-x="967" d="" unicode="ĕ" />
<glyph horiz-adv-x="1337" d="" unicode="Ė" />
<glyph horiz-adv-x="967" d="" unicode="ė" />
<glyph horiz-adv-x="1337" d="" unicode="Ę" />
<glyph horiz-adv-x="967" d="" unicode="ę" />
<glyph horiz-adv-x="1337" d="" unicode="Ě" />
<glyph horiz-adv-x="967" d="" unicode="ě" />
<glyph horiz-adv-x="1485" d="" unicode="Ĝ" />
<glyph horiz-adv-x="1174" d="" unicode="ĝ" />
<glyph horiz-adv-x="1485" d="" unicode="Ğ" />
<glyph horiz-adv-x="1174" d="" unicode="ğ" />
<glyph horiz-adv-x="1485" d="" unicode="Ġ" />
<glyph horiz-adv-x="1174" d="" unicode="ġ" />
<glyph horiz-adv-x="1485" d="" unicode="Ģ" />
<glyph horiz-adv-x="1174" d="" unicode="ģ" />
<glyph horiz-adv-x="1669" d="" unicode="Ĥ" />
<glyph horiz-adv-x="1153" d="" unicode="ĥ" />
<glyph horiz-adv-x="1669" d="" unicode="Ħ" />
<glyph horiz-adv-x="1153" d="" unicode="ħ" />
<glyph horiz-adv-x="799" d="" unicode="Ĩ" />
<glyph horiz-adv-x="608" d="" unicode="ĩ" />
<glyph horiz-adv-x="799" d="" unicode="Ī" />
<glyph horiz-adv-x="608" d="" unicode="ī" />
<glyph horiz-adv-x="799" d="" unicode="Ĭ" />
<glyph horiz-adv-x="608" d="" unicode="ĭ" />
<glyph horiz-adv-x="799" d="" unicode="Į" />
<glyph horiz-adv-x="608" d="" unicode="į" />
<glyph horiz-adv-x="799" d="" unicode="İ" />
<glyph horiz-adv-x="608" d="M 537 45 C 430 1 349 -20 295 -20 C 244 -20 205 -7 177 18 C 149 44 135 79 135 123 C 135 151 140 187 152 233 L 258 659 C 273 720 281 768 281 803 C 281 842 274 867 260 878 C 246 889 222 895 186 895 C 164 895 127 889 74 877 L 88 940 C 191 986 270 1010 326 1010 C 429 1010 481 961 481 864 C 481 830 476 794 467 754 L 358 330 C 342 268 334 221 334 190 C 334 124 370 92 442 92 C 480 92 516 97 551 109 L 537 45 Z" unicode="ı" />
<glyph horiz-adv-x="1798" d="" unicode="Ĳ" />
<glyph horiz-adv-x="1180" d="" unicode="ĳ" />
<glyph horiz-adv-x="1061" d="" unicode="Ĵ" />
<glyph horiz-adv-x="596" d="" unicode="ĵ" />
<glyph horiz-adv-x="1421" d="" unicode="Ķ" />
<glyph horiz-adv-x="1081" d="" unicode="ķ" />
<glyph horiz-adv-x="1139" d="" unicode="ĸ" />
<glyph horiz-adv-x="1237" d="" unicode="Ĺ" />
<glyph horiz-adv-x="584" d="" unicode="ĺ" />
<glyph horiz-adv-x="1237" d="" unicode="Ļ" />
<glyph horiz-adv-x="584" d="" unicode="ļ" />
<glyph horiz-adv-x="1237" d="" unicode="Ľ" />
<glyph horiz-adv-x="799" d="" unicode="ľ" />
<glyph horiz-adv-x="1237" d="" unicode="Ŀ" />
<glyph horiz-adv-x="862" d="" unicode="ŀ" />
<glyph horiz-adv-x="1237" d="" unicode="Ł" />
<glyph horiz-adv-x="584" d="" unicode="ł" />
<glyph horiz-adv-x="1571" d="" unicode="Ń" />
<glyph horiz-adv-x="1208" d="" unicode="ń" />
<glyph horiz-adv-x="1571" d="" unicode="Ņ" />
<glyph horiz-adv-x="1208" d="" unicode="ņ" />
<glyph horiz-adv-x="1571" d="" unicode="Ň" />
<glyph horiz-adv-x="1208" d="" unicode="ň" />
<glyph horiz-adv-x="1288" d="" unicode="ŉ" />
<glyph horiz-adv-x="1571" d="" unicode="Ŋ" />
<glyph horiz-adv-x="1184" d="" unicode="ŋ" />
<glyph horiz-adv-x="1495" d="" unicode="Ō" />
<glyph horiz-adv-x="1100" d="" unicode="ō" />
<glyph horiz-adv-x="1495" d="" unicode="Ŏ" />
<glyph horiz-adv-x="1100" d="" unicode="ŏ" />
<glyph horiz-adv-x="1495" d="" unicode="Ő" />
<glyph horiz-adv-x="1100" d="" unicode="ő" />
<glyph horiz-adv-x="2044" d="M 2013 1077 L 1939 1077 C 1934 1147 1921 1203 1899 1247 C 1877 1290 1851 1317 1822 1329 C 1793 1340 1726 1346 1622 1346 L 1403 1346 L 1272 774 L 1421 774 C 1500 774 1560 792 1602 830 C 1644 867 1679 926 1708 1008 L 1784 1008 L 1655 453 L 1581 453 C 1581 526 1579 576 1576 603 C 1572 630 1559 652 1535 670 C 1511 687 1467 696 1403 696 L 1253 696 L 1153 264 C 1145 229 1141 197 1141 168 C 1141 130 1153 106 1177 95 C 1201 83 1257 78 1343 78 C 1442 78 1513 81 1555 88 C 1597 94 1630 105 1655 121 C 1680 136 1718 176 1770 240 C 1822 304 1864 363 1896 418 L 1968 418 L 1845 0 L 690 0 C 528 0 390 45 274 137 C 158 229 100 359 100 528 C 100 786 194 999 382 1167 C 570 1335 795 1419 1055 1419 L 2093 1419 L 2013 1077 Z M 1188 1335 C 1119 1339 1068 1341 1034 1341 C 842 1341 677 1262 541 1106 C 404 950 336 755 336 522 C 336 388 373 280 448 199 C 523 118 626 78 758 78 C 806 78 853 79 899 82 L 1188 1335 Z" unicode="Œ" />
<glyph horiz-adv-x="1690" d="M 991 408 C 991 192 1067 84 1221 84 C 1339 84 1448 150 1548 283 L 1606 240 C 1551 156 1483 91 1402 43 C 1321 -5 1239 -29 1155 -29 C 1011 -29 906 27 842 139 C 727 25 593 -31 440 -31 C 330 -31 240 4 171 76 C 102 148 68 244 68 365 C 68 543 123 695 235 821 C 346 947 485 1010 653 1010 C 795 1010 903 950 977 831 C 1091 950 1221 1010 1366 1010 C 1456 1010 1525 991 1575 955 C 1624 918 1649 867 1649 801 C 1649 686 1592 598 1479 538 C 1365 477 1203 434 991 408 Z M 997 477 C 1178 499 1301 540 1366 598 C 1431 656 1464 731 1464 825 C 1464 900 1425 938 1348 938 C 1268 938 1195 895 1127 809 C 1059 723 1015 612 997 477 Z M 633 938 C 520 938 431 877 367 755 C 302 633 270 492 270 332 C 270 138 336 41 469 41 C 576 41 663 100 729 220 C 795 340 829 484 829 653 C 829 843 763 938 633 938 Z" unicode="œ" />
<glyph horiz-adv-x="1438" d="" unicode="Ŕ" />
<glyph horiz-adv-x="944" d="" unicode="ŕ" />
<glyph horiz-adv-x="1438" d="" unicode="Ŗ" />
<glyph horiz-adv-x="944" d="" unicode="ŗ" />
<glyph horiz-adv-x="1438" d="" unicode="Ř" />
<glyph horiz-adv-x="944" d="" unicode="ř" />
<glyph horiz-adv-x="1149" d="" unicode="Ś" />
<glyph horiz-adv-x="883" d="" unicode="ś" />
<glyph horiz-adv-x="1149" d="" unicode="Ŝ" />
<glyph horiz-adv-x="883" d="" unicode="ŝ" />
<glyph horiz-adv-x="1149" d="" unicode="Ş" />
<glyph horiz-adv-x="883" d="" unicode="ş" />
<glyph horiz-adv-x="1149" d="M 1098 948 L 1018 948 C 1012 1109 984 1219 934 1279 C 884 1338 810 1368 711 1368 C 632 1368 566 1341 512 1288 C 458 1234 432 1170 432 1094 C 432 1022 449 969 484 935 C 518 901 587 865 689 828 C 851 767 954 707 998 647 C 1042 587 1065 525 1065 459 C 1065 319 1010 203 900 110 C 790 17 654 -29 494 -29 C 351 -29 229 4 129 72 L 72 0 L -8 0 L 88 485 L 170 485 C 186 197 305 53 528 53 C 628 53 708 80 768 136 C 828 192 858 266 858 360 C 858 426 841 479 807 518 C 773 556 714 591 632 622 C 525 660 447 692 397 719 C 347 746 305 785 273 835 C 241 885 225 944 225 1010 C 225 1132 275 1235 377 1321 C 478 1407 597 1450 735 1450 C 862 1450 972 1417 1065 1352 L 1118 1419 L 1198 1419 L 1098 948 Z M 1139 1837 L 850 1552 C 826 1528 809 1515 798 1512 C 787 1508 771 1507 750 1507 C 716 1507 689 1520 670 1548 L 490 1837 L 539 1870 L 772 1657 L 1094 1870 L 1139 1837 Z" unicode="Š" />
<glyph horiz-adv-x="883" d="M 592 924 L 574 931 C 562 935 543 938 518 938 C 456 938 408 921 372 889 C 336 856 319 814 319 762 C 319 721 331 688 355 664 C 379 639 432 612 514 582 C 616 544 684 504 720 462 C 756 420 774 370 774 313 C 774 214 735 132 657 68 C 579 3 480 -29 362 -29 C 266 -29 185 -11 117 23 C 49 57 16 104 16 162 C 16 189 25 214 45 236 C 64 258 88 270 117 270 C 177 270 220 230 245 150 C 251 128 258 108 266 88 C 296 58 336 43 385 43 C 529 43 602 109 602 242 C 602 282 587 317 557 345 C 527 373 473 400 395 426 C 231 482 150 571 150 694 C 150 780 187 854 263 916 C 339 978 433 1010 545 1010 C 633 1010 704 996 759 970 C 814 944 842 905 842 854 C 842 826 832 801 813 779 C 793 756 769 745 741 745 C 681 745 638 784 614 863 C 607 884 600 904 592 924 Z M 640 1163 C 623 1144 609 1132 599 1126 C 589 1120 570 1118 544 1118 C 502 1118 476 1131 466 1159 L 294 1509 L 343 1542 L 566 1270 L 896 1542 L 943 1509 L 640 1163 Z" unicode="š" />
<glyph horiz-adv-x="1268" d="" unicode="Ţ" />
<glyph horiz-adv-x="711" d="" unicode="ţ" />
<glyph horiz-adv-x="1268" d="" unicode="Ť" />
<glyph horiz-adv-x="711" d="" unicode="ť" />
<glyph horiz-adv-x="1268" d="" unicode="Ŧ" />
<glyph horiz-adv-x="711" d="" unicode="ŧ" />
<glyph horiz-adv-x="1548" d="" unicode="Ũ" />
<glyph horiz-adv-x="1178" d="" unicode="ũ" />
<glyph horiz-adv-x="1548" d="" unicode="Ū" />
<glyph horiz-adv-x="1178" d="" unicode="ū" />
<glyph horiz-adv-x="1548" d="" unicode="Ŭ" />
<glyph horiz-adv-x="1178" d="" unicode="ŭ" />
<glyph horiz-adv-x="1548" d="" unicode="Ů" />
<glyph horiz-adv-x="1178" d="" unicode="ů" />
<glyph horiz-adv-x="1548" d="" unicode="Ű" />
<glyph horiz-adv-x="1178" d="" unicode="ű" />
<glyph horiz-adv-x="1548" d="" unicode="Ų" />
<glyph horiz-adv-x="1178" d="" unicode="ų" />
<glyph horiz-adv-x="1999" d="" unicode="Ŵ" />
<glyph horiz-adv-x="1683" d="" unicode="ŵ" />
<glyph horiz-adv-x="1260" d="" unicode="Ŷ" />
<glyph horiz-adv-x="1147" d="" unicode="ŷ" />
<glyph horiz-adv-x="1260" d="M 1501 1354 C 1468 1350 1433 1339 1395 1321 C 1357 1303 1316 1273 1272 1231 C 1228 1189 1140 1086 1008 923 C 876 759 797 659 773 623 C 749 586 730 538 717 479 L 653 203 C 650 191 649 180 649 168 C 649 124 673 97 723 86 C 772 75 814 68 848 66 L 834 0 L 170 0 L 184 66 C 280 72 344 83 374 98 C 404 112 426 144 438 193 L 510 504 C 515 527 518 543 518 553 C 518 584 501 653 469 761 L 365 1105 C 328 1226 292 1297 256 1318 C 220 1339 182 1351 143 1354 L 160 1419 L 741 1419 L 725 1354 C 639 1350 584 1344 562 1335 C 539 1326 528 1314 528 1298 C 528 1270 589 1066 711 688 C 1016 1057 1169 1257 1169 1288 C 1169 1324 1111 1346 997 1354 L 1014 1419 L 1518 1419 L 1501 1354 Z M 1155 1608 C 1122 1608 1094 1619 1071 1643 C 1048 1667 1037 1696 1037 1731 C 1037 1765 1048 1793 1071 1817 C 1094 1841 1122 1853 1155 1853 C 1188 1853 1216 1841 1238 1817 C 1260 1793 1272 1765 1272 1731 C 1272 1696 1260 1667 1238 1643 C 1216 1619 1188 1608 1155 1608 Z M 705 1608 C 672 1608 644 1619 621 1643 C 597 1667 586 1696 586 1731 C 586 1765 597 1793 621 1817 C 644 1841 672 1853 705 1853 C 737 1853 765 1841 789 1817 C 812 1793 824 1765 824 1731 C 824 1696 812 1667 789 1643 C 765 1619 737 1608 705 1608 Z" unicode="Ÿ" />
<glyph horiz-adv-x="1233" d="" unicode="Ź" />
<glyph horiz-adv-x="909" d="" unicode="ź" />
<glyph horiz-adv-x="1233" d="" unicode="Ż" />
<glyph horiz-adv-x="909" d="" unicode="ż" />
<glyph horiz-adv-x="1233" d="M 1378 1384 L 207 76 L 528 76 C 587 76 643 79 695 85 C 747 91 787 101 817 113 C 846 125 892 163 955 229 C 1017 294 1075 365 1128 442 L 1198 442 L 1049 0 L -90 0 L -82 35 L 1092 1343 L 778 1343 C 672 1343 597 1332 555 1310 C 513 1288 464 1249 408 1194 C 352 1138 302 1080 260 1018 L 190 1018 L 326 1419 L 1386 1419 L 1378 1384 Z M 1190 1837 L 901 1552 C 877 1528 860 1515 849 1512 C 838 1508 822 1507 801 1507 C 767 1507 740 1520 721 1548 L 541 1837 L 590 1870 L 823 1657 L 1145 1870 L 1190 1837 Z" unicode="Ž" />
<glyph horiz-adv-x="909" d="M 922 920 L 207 80 L 297 78 C 493 73 603 82 629 106 C 655 129 700 210 766 348 L 825 348 L 758 0 L -27 0 L -10 70 L 692 899 L 561 899 C 426 899 342 887 309 865 C 276 842 239 779 197 676 L 135 676 L 195 979 L 934 979 L 922 920 Z M 619 1163 C 602 1144 588 1132 578 1126 C 568 1120 549 1118 523 1118 C 481 1118 455 1131 445 1159 L 273 1509 L 322 1542 L 545 1270 L 875 1542 L 922 1509 L 619 1163 Z" unicode="ž" />
<glyph horiz-adv-x="602" d="" unicode="ſ" />
<glyph horiz-adv-x="1221" d="" unicode="‾" />
<glyph horiz-adv-x="1063" d="M 854 1239 C 744 1221 663 1088 612 838 L 588 717 L 852 717 L 831 625 L 575 625 L 515 314 C 492 198 465 98 433 14 C 401 -69 360 -141 311 -199 C 262 -257 208 -299 149 -327 C 89 -355 28 -369 -35 -369 C -95 -369 -141 -356 -175 -331 C -208 -306 -225 -273 -225 -233 C -225 -206 -215 -182 -195 -161 C -175 -139 -150 -129 -119 -129 C -59 -129 -7 -186 37 -301 C 93 -299 146 -250 196 -155 C 246 -59 309 200 385 625 L 170 625 L 190 717 L 395 717 C 432 905 498 1051 592 1153 C 686 1255 798 1307 930 1307 C 990 1307 1037 1294 1069 1268 C 1101 1242 1118 1209 1118 1169 C 1118 1141 1108 1116 1089 1095 C 1070 1073 1044 1063 1012 1063 C 948 1063 895 1121 854 1239 Z" unicode="ƒ" />
<glyph horiz-adv-x="295" d="M -264 0 L -399 0 L 645 1419 L 782 1419 L -264 0 Z" unicode="⁄" />
<glyph horiz-adv-x="2501" d="" unicode="№" />
<glyph horiz-adv-x="2150" d="" unicode="⅛" />
<glyph horiz-adv-x="2150" d="" unicode="⅜" />
<glyph horiz-adv-x="2150" d="" unicode="⅝" />
<glyph horiz-adv-x="1374" d="" unicode="Ǻ" />
<glyph horiz-adv-x="1174" d="" unicode="ǻ" />
<glyph horiz-adv-x="1989" d="" unicode="Ǽ" />
<glyph horiz-adv-x="1565" d="" unicode="ǽ" />
<glyph horiz-adv-x="1524" d="" unicode="Ǿ" />
<glyph horiz-adv-x="1100" d="" unicode="ǿ" />
<glyph horiz-adv-x="1270" d="M 1350 1466 C 1258 1462 1185 1334 1133 1083 L 1110 977 L 1362 977 L 1339 887 L 1092 887 L 922 94 C 890 -51 825 -171 726 -267 C 626 -362 522 -410 412 -410 C 298 -410 242 -370 242 -291 C 242 -259 251 -233 269 -213 C 287 -192 311 -182 342 -182 C 392 -182 435 -214 471 -278 C 480 -295 490 -312 500 -328 C 599 -318 675 -189 727 57 L 903 887 L 496 887 L 319 59 C 288 -84 223 -204 124 -300 C 24 -396 -80 -444 -190 -444 C -303 -444 -360 -404 -360 -326 C -360 -294 -351 -268 -333 -248 C -315 -227 -290 -217 -260 -217 C -210 -217 -167 -248 -131 -312 C -121 -329 -112 -346 -102 -362 C -4 -354 71 -226 125 23 L 307 887 L 113 887 L 133 977 L 328 977 L 344 1059 C 368 1183 428 1292 524 1386 C 620 1479 724 1526 836 1526 C 890 1526 931 1515 961 1493 C 991 1471 1006 1443 1006 1409 C 1006 1381 997 1357 981 1337 C 964 1317 939 1307 907 1307 C 843 1307 792 1352 756 1444 C 659 1444 584 1319 532 1069 L 514 977 L 924 977 L 938 1044 C 970 1196 1034 1318 1130 1410 C 1226 1502 1329 1548 1438 1548 C 1496 1548 1538 1536 1566 1514 C 1594 1492 1608 1464 1608 1432 C 1608 1400 1598 1374 1580 1354 C 1562 1333 1537 1323 1507 1323 C 1459 1323 1416 1354 1380 1418 C 1370 1434 1360 1450 1350 1466 Z" unicode="ﬀ" />
<glyph horiz-adv-x="1180" d="" unicode="∂" />
<glyph horiz-adv-x="1368" d="" unicode="∆" />
<glyph horiz-adv-x="1194" d="M 922 1470 L 891 1470 C 711 1470 592 1336 535 1069 L 514 977 L 840 977 L 1092 993 L 1104 979 L 950 334 C 934 266 926 220 926 195 C 926 157 934 131 951 117 C 967 103 994 96 1032 96 C 1069 96 1106 101 1143 113 L 1126 49 C 1023 5 943 -16 887 -16 C 779 -16 725 31 725 127 C 725 153 731 190 743 238 L 874 795 C 878 815 881 830 881 840 C 881 850 876 865 866 887 L 496 887 L 319 59 C 289 -78 225 -196 125 -295 C 25 -394 -80 -444 -190 -444 C -303 -444 -360 -404 -360 -326 C -360 -294 -351 -268 -333 -248 C -315 -227 -290 -217 -260 -217 C -210 -217 -167 -248 -131 -312 C -121 -329 -112 -346 -102 -362 C -4 -354 71 -226 125 23 L 307 887 L 113 887 L 133 977 L 328 977 L 334 1010 C 362 1164 432 1292 546 1394 C 660 1496 785 1548 922 1548 C 1091 1548 1176 1497 1176 1397 C 1176 1369 1167 1343 1149 1321 C 1131 1299 1108 1288 1081 1288 C 1009 1288 963 1327 941 1406 C 935 1427 928 1448 922 1470 Z" unicode="ﬁ" />
<glyph horiz-adv-x="1235" d="M 971 330 C 954 258 946 211 946 190 C 946 152 954 127 972 113 C 989 99 1017 92 1055 92 C 1099 92 1139 97 1174 109 L 1157 45 C 1053 1 970 -20 909 -20 C 857 -20 818 -6 790 19 C 762 45 748 80 748 123 C 748 153 753 190 764 233 L 1018 1333 C 1023 1356 1026 1372 1026 1380 C 1026 1407 1014 1430 992 1449 C 970 1467 939 1477 899 1477 C 712 1477 588 1333 528 1047 L 512 977 L 766 977 L 743 887 L 496 887 L 319 59 C 287 -87 222 -207 123 -302 C 23 -396 -80 -444 -190 -444 C -303 -444 -360 -404 -360 -326 C -360 -294 -351 -268 -333 -248 C -315 -227 -290 -217 -260 -217 C -210 -217 -167 -248 -131 -312 C -121 -329 -112 -346 -102 -362 C -4 -354 71 -226 125 23 L 307 887 L 113 887 L 133 977 L 326 977 L 332 1006 C 368 1178 443 1312 558 1406 C 673 1500 796 1548 926 1548 C 1020 1548 1095 1535 1149 1509 L 1239 1548 L 1249 1534 L 971 330 Z" unicode="ﬂ" />
<glyph horiz-adv-x="1708" d="" unicode="∏" />
<glyph horiz-adv-x="1444" d="" unicode="∑" />
<glyph horiz-adv-x="1317" d="" unicode="−" />
<glyph horiz-adv-x="2150" d="" unicode="⅞" />
<glyph horiz-adv-x="295" d="M -264 0 L -399 0 L 645 1419 L 782 1419 L -264 0 Z" unicode="∕" />
<glyph horiz-adv-x="1149" d="" unicode="Ș" />
<glyph horiz-adv-x="883" d="" unicode="ș" />
<glyph horiz-adv-x="1268" d="" unicode="Ț" />
<glyph horiz-adv-x="711" d="" unicode="ț" />
<glyph horiz-adv-x="1468" d="" unicode="∞" />
<glyph horiz-adv-x="1024" d="" unicode="∫" />
<glyph horiz-adv-x="596" d="" unicode="ȷ" />
<glyph horiz-adv-x="1317" d="" unicode="≈" />
<glyph horiz-adv-x="1317" d="" unicode="≠" />
<glyph horiz-adv-x="1317" d="" unicode="≤" />
<glyph horiz-adv-x="1317" d="" unicode="≥" />
<glyph horiz-adv-x="1024" d="" unicode="⁰" />
<glyph horiz-adv-x="1024" d="M 958 809 L 934 705 L 774 705 L 721 469 L 555 469 L 608 705 L 113 705 L 141 827 L 829 1450 L 946 1450 L 799 809 L 958 809 Z M 735 1257 L 244 809 L 633 809 L 735 1257 Z" unicode="⁴" />
<glyph horiz-adv-x="1024" d="" unicode="⁵" />
<glyph horiz-adv-x="1024" d="" unicode="⁶" />
<glyph horiz-adv-x="1024" d="M 961 1118 L 735 1391 L 406 1118 L 358 1151 L 662 1497 C 678 1516 692 1528 703 1534 C 713 1539 732 1542 760 1542 C 795 1542 821 1528 838 1501 L 1010 1151 L 961 1118 Z" unicode="ˆ" />
<glyph horiz-adv-x="1024" d="M 733 1163 C 716 1144 702 1132 692 1126 C 682 1120 663 1118 637 1118 C 595 1118 569 1131 559 1159 L 387 1509 L 436 1542 L 659 1270 L 989 1542 L 1036 1509 L 733 1163 Z" unicode="ˇ" />
<glyph horiz-adv-x="1024" d="" unicode="ˉ" />
<glyph horiz-adv-x="1024" d="" unicode="⁷" />
<glyph horiz-adv-x="1024" d="" unicode="⁸" />
<glyph horiz-adv-x="1024" d="" unicode="⁹" />
<glyph horiz-adv-x="1024" d="" unicode="˘" />
<glyph horiz-adv-x="1024" d="" unicode="˙" />
<glyph horiz-adv-x="1174" d="M 674 1114 C 604 1114 549 1130 510 1163 C 470 1196 451 1240 451 1296 C 451 1370 479 1433 537 1483 C 594 1533 665 1559 750 1559 C 817 1559 871 1541 912 1507 C 952 1472 973 1427 973 1372 C 973 1300 945 1239 889 1189 C 833 1139 761 1114 674 1114 Z M 739 1499 C 691 1499 652 1479 621 1440 C 590 1400 575 1353 575 1298 C 575 1215 611 1174 684 1174 C 733 1174 772 1193 802 1232 C 831 1271 846 1318 846 1372 C 846 1456 810 1499 739 1499 Z" unicode="˚" />
<glyph horiz-adv-x="1024" d="" unicode="˛" />
<glyph horiz-adv-x="1024" d="M 1096 1473 C 1077 1405 1044 1348 997 1300 C 950 1252 898 1229 842 1229 C 787 1229 729 1246 668 1280 C 606 1314 560 1331 530 1331 C 502 1331 480 1323 463 1309 C 446 1295 421 1257 389 1196 L 332 1221 C 356 1291 390 1349 435 1395 C 479 1441 528 1464 582 1464 C 632 1464 689 1447 752 1413 C 814 1379 857 1362 881 1362 C 914 1362 941 1367 963 1379 C 984 1390 1008 1429 1034 1495 L 1096 1473 Z" unicode="˜" />
<glyph horiz-adv-x="1024" d="" unicode="˝" />
<glyph horiz-adv-x="1024" d="M 944 1546 L 909 1507 C 834 1547 768 1581 710 1610 C 642 1643 590 1670 552 1691 C 514 1711 496 1740 496 1778 C 496 1804 505 1825 523 1842 C 541 1859 564 1868 592 1868 C 610 1868 630 1860 652 1844 C 674 1828 771 1728 944 1546 Z" unicode="̀" />
<glyph horiz-adv-x="1024" d="M 475 1507 L 449 1546 C 509 1597 603 1684 731 1808 C 769 1848 810 1868 854 1868 C 878 1868 898 1861 914 1847 C 930 1833 938 1816 938 1796 C 938 1744 904 1703 838 1674 C 771 1644 650 1589 475 1507 Z" unicode="́" />
<glyph horiz-adv-x="1024" d="M 1024 1538 L 975 1507 L 739 1718 L 420 1507 L 373 1538 L 664 1823 C 694 1853 728 1868 764 1868 C 802 1868 828 1854 844 1827 L 1024 1538 Z" unicode="̂" />
<glyph horiz-adv-x="1810" d="M 938 977 L 944 1008 C 976 1173 1051 1304 1169 1402 C 1287 1499 1408 1548 1532 1548 C 1701 1548 1786 1497 1786 1397 C 1786 1369 1777 1343 1759 1321 C 1741 1299 1718 1288 1692 1288 C 1655 1288 1625 1297 1601 1317 C 1577 1336 1554 1387 1532 1470 L 1501 1470 C 1321 1470 1202 1336 1145 1069 L 1124 977 L 1456 977 L 1708 993 L 1720 979 L 1567 334 C 1550 264 1542 217 1542 195 C 1542 157 1550 131 1567 117 C 1584 103 1611 96 1649 96 C 1687 96 1724 101 1759 113 L 1743 49 C 1637 5 1557 -16 1503 -16 C 1452 -16 1412 -3 1384 22 C 1355 48 1341 83 1341 127 C 1341 150 1347 187 1360 238 L 1491 795 C 1495 812 1497 827 1497 840 C 1497 851 1492 867 1483 887 L 1106 887 L 936 94 C 904 -52 840 -172 742 -267 C 644 -362 535 -410 416 -410 C 359 -410 316 -398 288 -376 C 260 -353 246 -325 246 -291 C 246 -259 255 -233 273 -213 C 291 -192 315 -182 346 -182 C 396 -182 439 -214 475 -278 C 484 -295 494 -312 504 -328 C 609 -317 688 -189 741 57 L 918 887 L 496 887 L 319 59 C 288 -84 223 -204 124 -300 C 24 -396 -80 -444 -190 -444 C -303 -444 -360 -404 -360 -326 C -360 -294 -351 -268 -333 -248 C -315 -227 -290 -217 -260 -217 C -210 -217 -167 -248 -131 -312 C -121 -329 -112 -346 -102 -362 C -4 -354 71 -226 125 23 L 307 887 L 113 887 L 133 977 L 328 977 L 344 1059 C 368 1183 428 1292 524 1386 C 620 1479 724 1526 836 1526 C 890 1526 931 1515 961 1493 C 991 1471 1006 1443 1006 1409 C 1006 1381 997 1357 981 1337 C 964 1317 939 1307 907 1307 C 843 1307 792 1352 756 1444 C 659 1444 584 1319 532 1069 L 514 977 L 938 977 Z" unicode="ﬃ" />
<glyph horiz-adv-x="1810" d="M 938 977 L 944 1008 C 978 1183 1052 1317 1167 1409 C 1281 1501 1399 1548 1520 1548 C 1614 1548 1689 1535 1743 1509 L 1833 1548 L 1843 1534 L 1567 330 C 1551 263 1544 216 1544 190 C 1544 152 1552 127 1570 113 C 1587 99 1615 92 1653 92 C 1697 92 1737 97 1772 109 L 1755 45 C 1651 1 1568 -20 1507 -20 C 1455 -20 1416 -6 1388 19 C 1360 45 1346 80 1346 123 C 1346 153 1351 190 1362 233 L 1612 1325 C 1617 1348 1620 1366 1620 1380 C 1620 1442 1579 1473 1497 1473 C 1316 1473 1197 1331 1139 1047 L 1124 977 L 1362 977 L 1339 887 L 1106 887 L 936 94 C 904 -52 840 -172 742 -267 C 644 -362 535 -410 416 -410 C 359 -410 316 -398 288 -376 C 260 -353 246 -325 246 -291 C 246 -259 255 -233 273 -213 C 291 -192 315 -182 346 -182 C 396 -182 439 -214 475 -278 C 484 -295 494 -312 504 -328 C 609 -317 688 -189 741 57 L 918 887 L 496 887 L 319 59 C 288 -84 223 -204 124 -300 C 24 -396 -80 -444 -190 -444 C -303 -444 -360 -404 -360 -326 C -360 -294 -351 -268 -333 -248 C -315 -227 -290 -217 -260 -217 C -210 -217 -167 -248 -131 -312 C -121 -329 -112 -346 -102 -362 C -4 -354 71 -226 125 23 L 307 887 L 113 887 L 133 977 L 328 977 L 344 1059 C 368 1183 428 1292 524 1386 C 620 1479 724 1526 836 1526 C 890 1526 931 1515 961 1493 C 991 1471 1006 1443 1006 1409 C 1006 1381 997 1357 981 1337 C 964 1317 939 1307 907 1307 C 843 1307 792 1352 756 1444 C 659 1444 584 1319 532 1069 L 514 977 L 938 977 Z" unicode="ﬄ" />
<glyph horiz-adv-x="1024" d="" unicode="̆" />
<glyph horiz-adv-x="1024" d="M 954 1608 C 921 1608 893 1619 870 1643 C 847 1667 836 1696 836 1731 C 836 1765 847 1793 870 1817 C 893 1841 921 1853 954 1853 C 987 1853 1015 1841 1037 1817 C 1059 1793 1071 1765 1071 1731 C 1071 1696 1059 1667 1037 1643 C 1015 1619 987 1608 954 1608 Z M 504 1608 C 471 1608 443 1619 420 1643 C 396 1667 385 1696 385 1731 C 385 1765 396 1793 420 1817 C 443 1841 471 1853 504 1853 C 536 1853 564 1841 588 1817 C 611 1793 623 1765 623 1731 C 623 1696 611 1667 588 1643 C 564 1619 536 1608 504 1608 Z" unicode="̈" />
<glyph horiz-adv-x="1024" d="" unicode="̋" />
<glyph horiz-adv-x="1024" d="M 1067 1837 L 778 1552 C 754 1528 737 1515 726 1512 C 715 1508 699 1507 678 1507 C 644 1507 617 1520 598 1548 L 418 1837 L 467 1870 L 700 1657 L 1022 1870 L 1067 1837 Z" unicode="̌" />
<glyph horiz-adv-x="1024" d="" unicode="̦" />
<glyph horiz-adv-x="786" d="M 475 717 C 437 717 405 730 378 756 C 351 782 338 815 338 854 C 338 891 351 923 378 949 C 405 975 437 989 475 989 C 512 989 544 976 571 950 C 598 924 612 892 612 854 C 612 814 598 782 571 756 C 544 730 512 717 475 717 Z M 92 -354 L 61 -287 C 215 -204 310 -108 344 2 L 297 2 C 215 2 174 39 174 113 C 174 150 188 182 216 210 C 244 238 280 252 324 252 C 416 252 463 200 463 98 C 463 -76 339 -227 92 -354 Z" unicode=";" />
<glyph horiz-adv-x="1024" d="" unicode="΄" />
<glyph horiz-adv-x="1024" d="" unicode="΅" />
<glyph horiz-adv-x="1374" d="" unicode="Ά" />
<glyph horiz-adv-x="786" d="" unicode="·" />
<glyph horiz-adv-x="1628" d="" unicode="Έ" />
<glyph horiz-adv-x="1966" d="" unicode="Ή" />
<glyph horiz-adv-x="1085" d="" unicode="Ί" />
<glyph horiz-adv-x="1735" d="" unicode="Ό" />
<glyph horiz-adv-x="1657" d="" unicode="Ύ" />
<glyph horiz-adv-x="1804" d="" unicode="Ώ" />
<glyph horiz-adv-x="575" d="" unicode="ΐ" />
<glyph horiz-adv-x="1374" d="" unicode="Α" />
<glyph horiz-adv-x="1339" d="" unicode="Β" />
<glyph horiz-adv-x="1194" d="" unicode="Γ" />
<glyph horiz-adv-x="1368" d="" unicode="Δ" />
<glyph horiz-adv-x="1337" d="" unicode="Ε" />
<glyph horiz-adv-x="1233" d="" unicode="Ζ" />
<glyph horiz-adv-x="1669" d="" unicode="Η" />
<glyph horiz-adv-x="1495" d="" unicode="Θ" />
<glyph horiz-adv-x="799" d="" unicode="Ι" />
<glyph horiz-adv-x="1421" d="" unicode="Κ" />
<glyph horiz-adv-x="1380" d="" unicode="Λ" />
<glyph horiz-adv-x="1898" d="" unicode="Μ" />
<glyph horiz-adv-x="1571" d="" unicode="Ν" />
<glyph horiz-adv-x="1419" d="" unicode="Ξ" />
<glyph horiz-adv-x="1495" d="" unicode="Ο" />
<glyph horiz-adv-x="1655" d="" unicode="Π" />
<glyph horiz-adv-x="1249" d="" unicode="Ρ" />
<glyph horiz-adv-x="1237" d="" unicode="Σ" />
<glyph horiz-adv-x="1268" d="" unicode="Τ" />
<glyph horiz-adv-x="1260" d="" unicode="Υ" />
<glyph horiz-adv-x="1571" d="" unicode="Φ" />
<glyph horiz-adv-x="1454" d="" unicode="Χ" />
<glyph horiz-adv-x="1792" d="" unicode="Ψ" />
<glyph horiz-adv-x="1595" d="" unicode="Ω" />
<glyph horiz-adv-x="799" d="" unicode="Ϊ" />
<glyph horiz-adv-x="1260" d="" unicode="Ϋ" />
<glyph horiz-adv-x="1225" d="" unicode="ά" />
<glyph horiz-adv-x="948" d="" unicode="έ" />
<glyph horiz-adv-x="1184" d="" unicode="ή" />
<glyph horiz-adv-x="575" d="" unicode="ί" />
<glyph horiz-adv-x="1102" d="" unicode="ΰ" />
<glyph horiz-adv-x="1225" d="" unicode="α" />
<glyph horiz-adv-x="1159" d="" unicode="β" />
<glyph horiz-adv-x="1042" d="" unicode="γ" />
<glyph horiz-adv-x="1104" d="" unicode="δ" />
<glyph horiz-adv-x="948" d="" unicode="ε" />
<glyph horiz-adv-x="821" d="" unicode="ζ" />
<glyph horiz-adv-x="1184" d="" unicode="η" />
<glyph horiz-adv-x="1128" d="" unicode="θ" />
<glyph horiz-adv-x="575" d="" unicode="ι" />
<glyph horiz-adv-x="1139" d="" unicode="κ" />
<glyph horiz-adv-x="999" d="" unicode="λ" />
<glyph horiz-adv-x="1180" d="" unicode="μ" />
<glyph horiz-adv-x="1026" d="" unicode="ν" />
<glyph horiz-adv-x="897" d="" unicode="ξ" />
<glyph horiz-adv-x="1100" d="" unicode="ο" />
<glyph horiz-adv-x="1237" d="" unicode="π" />
<glyph horiz-adv-x="1153" d="" unicode="ρ" />
<glyph horiz-adv-x="903" d="" unicode="ς" />
<glyph horiz-adv-x="1165" d="" unicode="σ" />
<glyph horiz-adv-x="920" d="" unicode="τ" />
<glyph horiz-adv-x="1102" d="" unicode="υ" />
<glyph horiz-adv-x="1450" d="" unicode="φ" />
<glyph horiz-adv-x="1036" d="" unicode="χ" />
<glyph horiz-adv-x="1507" d="" unicode="ψ" />
<glyph horiz-adv-x="1487" d="" unicode="ω" />
<glyph horiz-adv-x="575" d="" unicode="ϊ" />
<glyph horiz-adv-x="1102" d="" unicode="ϋ" />
<glyph horiz-adv-x="1100" d="" unicode="ό" />
<glyph horiz-adv-x="1102" d="" unicode="ύ" />
<glyph horiz-adv-x="1487" d="" unicode="ώ" />
<glyph horiz-adv-x="1227" d="" unicode="₣" />
<glyph horiz-adv-x="1274" d="" unicode="₤" />
<glyph horiz-adv-x="2468" d="" unicode="₧" />
<glyph horiz-adv-x="1337" d="" unicode="Ё" />
<glyph horiz-adv-x="1608" d="" unicode="Ђ" />
<glyph horiz-adv-x="1194" d="" unicode="Ѓ" />
<glyph horiz-adv-x="1346" d="" unicode="Є" />
<glyph horiz-adv-x="1149" d="" unicode="Ѕ" />
<glyph horiz-adv-x="799" d="" unicode="І" />
<glyph horiz-adv-x="799" d="" unicode="Ї" />
<glyph horiz-adv-x="1061" d="" unicode="Ј" />
<glyph horiz-adv-x="2075" d="" unicode="Љ" />
<glyph horiz-adv-x="2185" d="" unicode="Њ" />
<glyph horiz-adv-x="1720" d="" unicode="Ћ" />
<glyph horiz-adv-x="1423" d="" unicode="Ќ" />
<glyph horiz-adv-x="1346" d="" unicode="Ў" />
<glyph horiz-adv-x="1659" d="" unicode="Џ" />
<glyph horiz-adv-x="1374" d="" unicode="А" />
<glyph horiz-adv-x="1341" d="" unicode="Б" />
<glyph horiz-adv-x="1339" d="" unicode="В" />
<glyph horiz-adv-x="1194" d="" unicode="Г" />
<glyph horiz-adv-x="1479" d="" unicode="Д" />
<glyph horiz-adv-x="1337" d="" unicode="Е" />
<glyph horiz-adv-x="2015" d="" unicode="Ж" />
<glyph horiz-adv-x="1247" d="" unicode="З" />
<glyph horiz-adv-x="1675" d="" unicode="И" />
<glyph horiz-adv-x="1675" d="" unicode="Й" />
<glyph horiz-adv-x="1423" d="" unicode="К" />
<glyph horiz-adv-x="1548" d="" unicode="Л" />
<glyph horiz-adv-x="1898" d="" unicode="М" />
<glyph horiz-adv-x="1669" d="" unicode="Н" />
<glyph horiz-adv-x="1495" d="" unicode="О" />
<glyph horiz-adv-x="1655" d="" unicode="П" />
<glyph horiz-adv-x="1249" d="" unicode="Р" />
<glyph horiz-adv-x="1315" d="" unicode="С" />
<glyph horiz-adv-x="1268" d="" unicode="Т" />
<glyph horiz-adv-x="1346" d="" unicode="У" />
<glyph horiz-adv-x="1571" d="" unicode="Ф" />
<glyph horiz-adv-x="1454" d="" unicode="Х" />
<glyph horiz-adv-x="1655" d="" unicode="Ц" />
<glyph horiz-adv-x="1534" d="" unicode="Ч" />
<glyph horiz-adv-x="2228" d="" unicode="Ш" />
<glyph horiz-adv-x="2228" d="" unicode="Щ" />
<glyph horiz-adv-x="1563" d="" unicode="Ъ" />
<glyph horiz-adv-x="1987" d="" unicode="Ы" />
<glyph horiz-adv-x="1315" d="" unicode="Ь" />
<glyph horiz-adv-x="1348" d="" unicode="Э" />
<glyph horiz-adv-x="2183" d="" unicode="Ю" />
<glyph horiz-adv-x="1427" d="" unicode="Я" />
<glyph horiz-adv-x="1174" d="" unicode="а" />
<glyph horiz-adv-x="1100" d="" unicode="б" />
<glyph horiz-adv-x="1055" d="" unicode="в" />
<glyph horiz-adv-x="940" d="" unicode="г" />
<glyph horiz-adv-x="1090" d="" unicode="д" />
<glyph horiz-adv-x="967" d="" unicode="е" />
<glyph horiz-adv-x="1831" d="" unicode="ж" />
<glyph horiz-adv-x="971" d="" unicode="з" />
<glyph horiz-adv-x="1178" d="" unicode="и" />
<glyph horiz-adv-x="1178" d="" unicode="й" />
<glyph horiz-adv-x="1106" d="" unicode="к" />
<glyph horiz-adv-x="1157" d="" unicode="л" />
<glyph horiz-adv-x="1516" d="" unicode="м" />
<glyph horiz-adv-x="1204" d="" unicode="н" />
<glyph horiz-adv-x="1100" d="" unicode="о" />
<glyph horiz-adv-x="1208" d="" unicode="п" />
<glyph horiz-adv-x="1184" d="" unicode="р" />
<glyph horiz-adv-x="930" d="" unicode="с" />
<glyph horiz-adv-x="1800" d="" unicode="т" />
<glyph horiz-adv-x="1147" d="" unicode="у" />
<glyph horiz-adv-x="1516" d="" unicode="ф" />
<glyph horiz-adv-x="1026" d="" unicode="х" />
<glyph horiz-adv-x="1178" d="" unicode="ц" />
<glyph horiz-adv-x="1145" d="" unicode="ч" />
<glyph horiz-adv-x="1755" d="" unicode="ш" />
<glyph horiz-adv-x="1755" d="" unicode="щ" />
<glyph horiz-adv-x="1100" d="" unicode="ъ" />
<glyph horiz-adv-x="1509" d="" unicode="ы" />
<glyph horiz-adv-x="995" d="" unicode="ь" />
<glyph horiz-adv-x="995" d="" unicode="э" />
<glyph horiz-adv-x="1620" d="" unicode="ю" />
<glyph horiz-adv-x="1120" d="" unicode="я" />
<glyph horiz-adv-x="967" d="" unicode="ё" />
<glyph horiz-adv-x="1128" d="" unicode="ђ" />
<glyph horiz-adv-x="940" d="" unicode="ѓ" />
<glyph horiz-adv-x="999" d="" unicode="є" />
<glyph horiz-adv-x="883" d="" unicode="ѕ" />
<glyph horiz-adv-x="608" d="" unicode="і" />
<glyph horiz-adv-x="608" d="" unicode="ї" />
<glyph horiz-adv-x="596" d="" unicode="ј" />
<glyph horiz-adv-x="1561" d="" unicode="љ" />
<glyph horiz-adv-x="1604" d="" unicode="њ" />
<glyph horiz-adv-x="1153" d="" unicode="ћ" />
<glyph horiz-adv-x="1106" d="" unicode="ќ" />
<glyph horiz-adv-x="1147" d="" unicode="ў" />
<glyph horiz-adv-x="1178" d="" unicode="џ" />
<glyph horiz-adv-x="1180" d="" unicode="Ґ" />
<glyph horiz-adv-x="883" d="" unicode="ґ" />
<glyph horiz-adv-x="571" d="" unicode="∙" />
<glyph horiz-adv-x="1370" d="" unicode="√" />
<glyph horiz-adv-x="967" d="M 627 1047 L 548 559 C 520 384 503 290 498 277 C 492 264 484 254 473 247 C 461 239 448 236 432 236 C 385 236 362 259 362 307 C 362 321 381 391 420 518 L 575 1044 C 525 1040 447 1026 339 1003 C 322 999 309 997 299 997 C 249 997 225 1020 225 1067 C 225 1115 249 1139 299 1139 C 309 1139 323 1137 339 1133 C 441 1107 523 1091 584 1085 C 588 1108 593 1169 600 1267 C 606 1351 613 1403 623 1423 C 632 1443 652 1454 684 1454 C 733 1454 758 1431 758 1386 C 758 1369 745 1333 719 1279 C 681 1200 653 1136 637 1087 C 691 1092 770 1107 873 1133 C 889 1137 901 1139 911 1139 C 961 1139 987 1115 987 1067 C 987 1020 961 997 911 997 C 901 997 886 999 868 1004 C 754 1029 673 1043 627 1047 Z" unicode="†" />
<glyph horiz-adv-x="967" d="M 627 1047 C 623 1028 621 1011 621 995 C 615 915 611 866 608 848 L 600 815 C 596 799 584 766 565 718 C 546 672 534 638 528 618 C 567 621 646 636 765 663 C 781 666 795 668 805 668 C 854 668 879 644 879 598 C 879 550 854 526 805 526 C 795 526 782 528 766 532 C 662 558 580 574 520 580 C 514 545 509 484 505 398 C 500 314 493 262 484 241 C 475 219 454 209 422 209 C 372 209 348 232 348 279 C 348 295 361 331 387 387 C 423 465 450 528 467 578 C 407 571 348 561 291 547 C 235 533 202 526 193 526 C 142 526 117 550 117 598 C 117 644 142 668 193 668 C 202 668 216 666 236 662 C 348 636 428 621 477 618 C 481 647 484 680 486 718 C 487 756 490 789 496 815 L 504 848 C 510 875 522 908 538 946 C 556 988 568 1020 575 1044 C 525 1040 447 1026 339 1003 C 322 999 309 997 299 997 C 249 997 225 1020 225 1067 C 225 1115 249 1139 299 1139 C 309 1139 323 1137 339 1133 C 441 1107 523 1091 584 1085 C 588 1108 593 1169 600 1267 C 606 1351 613 1403 623 1423 C 632 1443 652 1454 684 1454 C 733 1454 758 1431 758 1386 C 758 1369 745 1333 719 1279 C 681 1200 653 1136 637 1087 C 691 1092 770 1107 873 1133 C 889 1137 901 1139 911 1139 C 961 1139 987 1115 987 1067 C 987 1020 961 997 911 997 C 901 997 886 999 868 1004 C 754 1029 673 1043 627 1047 Z" unicode="‡" />
<glyph horiz-adv-x="1450" d="" unicode="─" />
<glyph horiz-adv-x="1450" d="" unicode="│" />
<glyph horiz-adv-x="805" d="M 412 336 C 338 336 276 361 224 413 C 172 465 147 526 147 598 C 147 670 172 732 224 784 C 276 836 338 862 412 862 C 484 862 546 836 598 784 C 650 732 676 670 676 598 C 676 526 650 465 598 413 C 546 361 484 336 412 336 Z" unicode="•" />
<glyph horiz-adv-x="1450" d="" unicode="┌" />
<glyph horiz-adv-x="1450" d="" unicode="┐" />
<glyph horiz-adv-x="1450" d="" unicode="└" />
<glyph horiz-adv-x="1450" d="" unicode="┘" />
<glyph horiz-adv-x="1315" d="M 1427 1419 L 1319 913 L 1237 913 L 1237 952 C 1237 1230 1131 1370 920 1370 C 806 1370 704 1325 613 1237 C 521 1148 454 1035 410 897 L 840 897 L 780 801 L 381 801 C 363 731 352 673 350 627 L 676 627 L 616 530 L 346 530 C 350 382 385 270 451 192 C 516 114 607 76 723 76 C 816 76 904 103 987 159 C 1070 214 1139 293 1194 395 L 1266 358 C 1117 97 905 -33 631 -33 C 475 -33 349 19 254 124 C 158 229 111 364 111 530 L -4 530 L 53 627 L 115 627 C 125 705 136 763 147 801 L 25 801 L 84 897 L 182 897 C 259 1071 363 1207 495 1305 C 627 1403 768 1452 920 1452 C 1070 1452 1194 1418 1290 1352 L 1348 1419 L 1427 1419 Z" unicode="€" />
<glyph horiz-adv-x="1653" d="M 1366 -20 C 1329 -20 1298 -7 1273 18 C 1247 44 1235 74 1235 109 C 1235 143 1247 174 1273 200 C 1299 226 1330 240 1366 240 C 1402 240 1432 226 1458 200 C 1484 174 1497 143 1497 109 C 1497 74 1484 44 1459 18 C 1433 -7 1402 -20 1366 -20 Z M 815 -20 C 778 -20 747 -7 722 18 C 696 44 684 74 684 109 C 684 143 696 174 722 200 C 748 226 779 240 815 240 C 851 240 881 226 907 200 C 933 174 946 143 946 109 C 946 74 933 44 908 18 C 882 -7 851 -20 815 -20 Z M 264 -20 C 228 -20 197 -7 171 18 C 145 43 133 73 133 109 C 133 144 146 175 172 201 C 198 227 228 240 264 240 C 300 240 330 226 356 200 C 382 174 395 143 395 109 C 395 74 382 44 357 18 C 331 -7 300 -20 264 -20 Z" unicode="…" />
<glyph horiz-adv-x="1237" d="" unicode="□" />
<glyph horiz-adv-x="725" d="" unicode="▪" />
<glyph horiz-adv-x="725" d="" unicode="▫" />
<glyph horiz-adv-x="1151" d="" unicode="◊" />
<glyph horiz-adv-x="1237" d="" unicode="●" />
<glyph horiz-adv-x="725" d="" unicode="◦" />
<glyph horiz-adv-x="1673" d="" unicode="℅" />
<glyph horiz-adv-x="1024" d="" unicode="♪" />
<glyph horiz-adv-x="662" d="" unicode="ℓ" />
<glyph horiz-adv-x="1999" d="" unicode="Ẁ" />
<glyph horiz-adv-x="1683" d="" unicode="ẁ" />
<glyph horiz-adv-x="1999" d="" unicode="Ẃ" />
<glyph horiz-adv-x="1683" d="" unicode="ẃ" />
<glyph horiz-adv-x="1999" d="" unicode="Ẅ" />
<glyph horiz-adv-x="1683" d="" unicode="ẅ" />
<glyph horiz-adv-x="1417" d="" unicode="ẞ" />
<glyph horiz-adv-x="2515" d="M 465 713 C 375 713 306 737 258 787 C 210 836 186 904 186 991 C 186 1114 225 1222 304 1314 C 382 1406 483 1452 606 1452 C 693 1452 761 1427 811 1377 C 860 1327 885 1258 885 1171 C 885 1041 845 933 765 845 C 685 757 585 713 465 713 Z M 594 1386 C 522 1386 464 1345 419 1265 C 374 1185 352 1085 352 967 C 352 842 394 780 479 780 C 547 780 605 821 651 904 C 697 987 721 1084 721 1196 C 721 1322 678 1386 594 1386 Z M 217 0 L 74 0 L 1530 1423 L 1675 1423 L 217 0 Z M 1970 -31 C 1882 -31 1813 -6 1765 43 C 1716 93 1692 161 1692 248 C 1692 372 1731 480 1810 572 C 1889 663 1989 709 2111 709 C 2198 709 2266 684 2316 634 C 2365 584 2390 515 2390 428 C 2390 298 2350 189 2271 101 C 2191 13 2091 -31 1970 -31 Z M 2097 641 C 2027 641 1969 600 1925 519 C 1880 437 1858 338 1858 221 C 1858 98 1900 37 1985 37 C 2052 37 2109 78 2155 160 C 2201 242 2224 339 2224 453 C 2224 578 2181 641 2097 641 Z M 1141 -31 C 1052 -31 983 -6 934 43 C 884 92 860 160 860 248 C 860 372 900 479 980 571 C 1060 663 1160 709 1282 709 C 1370 709 1438 683 1486 633 C 1534 583 1559 514 1559 428 C 1559 299 1519 190 1440 102 C 1361 13 1261 -31 1141 -31 Z M 1268 641 C 1196 641 1138 600 1093 518 C 1048 436 1026 337 1026 221 C 1026 98 1069 37 1155 37 C 1222 37 1279 78 1325 161 C 1371 244 1395 341 1395 453 C 1395 578 1352 641 1268 641 Z" unicode="‰" />
<glyph horiz-adv-x="1968" d="" unicode="℠" />
<glyph horiz-adv-x="1929" d="M 1665 733 L 1665 784 C 1740 784 1778 801 1778 836 L 1778 1286 L 1763 1286 L 1520 756 L 1487 756 L 1249 1296 L 1235 1296 L 1235 932 C 1235 892 1237 861 1243 841 C 1249 820 1266 805 1295 797 C 1323 788 1346 784 1362 784 L 1362 733 L 1047 733 L 1047 782 C 1105 789 1141 801 1153 817 C 1165 833 1171 870 1171 928 L 1171 1276 C 1171 1332 1131 1363 1053 1368 L 1053 1419 L 1331 1419 L 1542 946 L 1718 1333 C 1726 1351 1735 1380 1743 1419 L 2011 1419 L 2011 1368 C 1959 1363 1928 1358 1920 1353 C 1911 1347 1907 1336 1907 1319 L 1907 836 C 1907 801 1941 784 2011 784 L 2011 733 L 1665 733 Z M 883 1221 C 871 1254 856 1284 837 1311 C 818 1338 802 1354 789 1358 C 775 1362 747 1364 705 1364 L 655 1364 L 655 840 C 655 802 692 784 768 784 L 768 733 L 416 733 L 416 784 C 453 784 481 787 499 794 C 517 800 526 814 526 834 L 526 1364 L 477 1364 C 426 1364 395 1360 383 1353 C 371 1346 356 1330 340 1305 C 323 1280 309 1252 299 1221 L 252 1221 L 252 1419 L 932 1419 L 932 1221 L 883 1221 Z" unicode="™" />
<glyph horiz-adv-x="657" d="" unicode="′" />
<glyph horiz-adv-x="1595" d="" unicode="Ω" />
<glyph horiz-adv-x="1260" d="" unicode="Ỳ" />
<glyph horiz-adv-x="1147" d="" unicode="ỳ" />
<glyph horiz-adv-x="0" d="" unicode="﻿" />
<glyph horiz-adv-x="1059" d="" unicode="″" />
<glyph horiz-adv-x="1262" d="" unicode="℮" />
<glyph horiz-adv-x="850" d="M 377 522 L 567 154 L 510 121 L 207 453 C 189 473 180 492 180 510 C 180 542 195 570 226 593 L 698 938 L 737 889 L 377 522 Z" unicode="‹" />
<glyph horiz-adv-x="850" d="M 158 119 L 119 168 L 479 535 L 289 903 L 346 936 L 649 604 C 667 584 676 565 676 547 C 676 514 661 487 631 465 L 158 119 Z" unicode="›" />
</font>
</defs>
</svg>
