<?xml version="1.0" encoding="UTF-8" standalone="no"?>
<!-- Created with Inkscape (http://www.inkscape.org/) -->

<svg
   xmlns:dc="http://purl.org/dc/elements/1.1/"
   xmlns:cc="http://creativecommons.org/ns#"
   xmlns:rdf="http://www.w3.org/1999/02/22-rdf-syntax-ns#"
   xmlns:svg="http://www.w3.org/2000/svg"
   xmlns="http://www.w3.org/2000/svg"
   xmlns:sodipodi="http://sodipodi.sourceforge.net/DTD/sodipodi-0.dtd"
   xmlns:inkscape="http://www.inkscape.org/namespaces/inkscape"
   id="svg3715"
   version="1.1"
   inkscape:version="0.91 r13725"
   width="450"
   height="450"
   viewBox="0 0 450 450"
   sodipodi:docname="Agriculture.svg">
  <metadata
     id="metadata3721">
    <rdf:RDF>
      <cc:Work
         rdf:about="">
        <dc:format>image/svg+xml</dc:format>
        <dc:type
           rdf:resource="http://purl.org/dc/dcmitype/StillImage" />
        <dc:title />
      </cc:Work>
    </rdf:RDF>
  </metadata>
  <defs
     id="defs3719" />
  <sodipodi:namedview
     pagecolor="#ffffff"
     bordercolor="#666666"
     borderopacity="1"
     objecttolerance="10"
     gridtolerance="10"
     guidetolerance="10"
     inkscape:pageopacity="0"
     inkscape:pageshadow="2"
     inkscape:window-width="1920"
     inkscape:window-height="1020"
     id="namedview3717"
     showgrid="false"
     inkscape:zoom="2.0977778"
     inkscape:cx="220.72876"
     inkscape:cy="200.78596"
     inkscape:window-x="0"
     inkscape:window-y="0"
     inkscape:window-maximized="1"
     inkscape:current-layer="svg3715" />
  <path
     style="fill:#000000"
     d="m 157.36337,399.825 c -1.1368,-3.6189 -1.19924,-3.68049 -3.70249,-3.65253 -1.10598,0.0123 -2.33895,0.19887 -2.73992,0.41448 -0.41788,0.2247 -1.69826,0.39102 -3,0.38973 -1.79524,-0.003 -2.50272,-0.13965 -3.37732,-0.65811 -1.57377,-0.93291 -2.34364,-2.38449 -2.34364,-4.41891 0,-1.48308 0.14509,-1.87356 1.32133,-3.5562 2.08367,-2.98071 2.0824,-3.01251 -0.24487,-6.14346 -0.67455,-0.9075 -1.36146,-1.87152 -1.52646,-2.1423 -2.48501,-4.07784 -4.49886,-7.59294 -4.96013,-8.6577 -0.17869,-0.4125 -0.63985,-1.425 -1.02479,-2.25 -1.05101,-2.25255 -3.10087,-7.63764 -3.42587,-9 -0.15745,-0.66 -0.42366,-1.605 -0.59159,-2.1 -0.51211,-1.50957 -1.14499,-5.0853 -2.15046,-12.15 -0.35185,-2.47221 -0.35323,-9.10503 -0.002,-11.85 0.1476,-1.155 0.47586,-3.7875 0.72948,-5.85 0.57611,-4.68498 1.01786,-7.56081 1.42857,-9.3 0.17535,-0.7425 0.4967,-2.43 0.71412,-3.75 0.21743,-1.32 0.67433,-3.6825 1.01534,-5.25 0.34101,-1.5675 0.7558,-3.5925 0.92177,-4.5 0.16597,-0.9075 0.49152,-2.3925 0.72346,-3.3 0.23193,-0.9075 0.71158,-3 1.06588,-4.65 0.3543,-1.65 0.83057,-3.675 1.05837,-4.5 0.22781,-0.825 0.56127,-2.175 0.74103,-3 0.57287,-2.62923 1.34049,-5.73824 2.40728,-9.75 0.53205,-2.0008 0.94816,-3.65267 1.68147,-6.675 0.23019,-0.94875 0.60687,-2.50125 0.83707,-3.45 0.23019,-0.94875 0.57706,-2.4 0.77082,-3.225 0.19375,-0.825 0.53584,-2.1075 0.7602,-2.85 0.22435,-0.7425 0.49052,-1.89 0.59147,-2.55 0.10096,-0.66 0.37596,-1.9425 0.61112,-2.85 0.66823,-2.57874 1.35893,-6.225 1.67644,-8.85 0.15966,-1.32 0.454,-2.94 0.6541,-3.6 0.59681,-1.96858 0.45937,-23.47193 -0.18503,-28.95 -1.40765,-11.96632 -2.40631,-17.79424 -4.24109,-24.75 -0.21762,-0.825 -0.55243,-2.1075 -0.74402,-2.85 -0.6794,-2.63302 -1.1682,-4.36151 -1.48464,-5.25 -0.1763,-0.495 -0.65677,-1.9125 -1.06771,-3.15 -1.14062,-3.43481 -2.8727,-7.91608 -3.18295,-8.235 -0.15255,-0.15675 -0.27731,-0.46791 -0.27731,-0.69146 0,-0.38991 -0.4451,-1.46898 -1.9484,-4.72354 -1.10422,-2.39057 -2.83628,-5.95967 -3.13013,-6.45 -0.14832,-0.2475 -0.66666,-1.26 -1.15186,-2.25 -0.4852,-0.99 -1.39033,-2.71778 -2.0114,-3.8395 -0.62106,-1.12172 -1.04941,-2.1193 -0.95188,-2.21683 0.32321,-0.32321 2.39394,1.45662 6.66809,5.73134 6.70482,6.70573 11.29758,13.14279 15.64322,21.92499 2.32673,4.70215 2.49412,5.07621 3.96034,8.85 1.65513,4.26003 4.22202,12.91841 4.22202,14.24129 0,0.43899 0.14366,1.06659 0.31925,1.39468 0.29856,0.55787 0.63088,2.20018 1.47997,7.31403 0.19177,1.155 0.53416,3.045 0.76087,4.2 0.2267,1.155 0.49867,2.90052 0.60437,3.87894 0.20146,1.86474 0.6763,2.98427 1.96318,4.6286 0.63911,0.81664 0.94292,0.97094 1.75268,0.89017 0.81403,-0.0812 1.04142,-0.27514 1.34567,-1.14771 0.20137,-0.5775 0.7146,-1.7925 1.14052,-2.7 0.42592,-0.9075 1.0731,-2.3925 1.43817,-3.3 0.36507,-0.9075 1.138,-2.6625 1.71764,-3.9 0.57963,-1.2375 1.49684,-3.195 2.03823,-4.35 1.73558,-3.70266 7.34105,-15.28429 7.62295,-15.75 0.14982,-0.2475 0.87999,-1.5975 1.62261,-3 0.74262,-1.4025 1.68627,-3.1575 2.097,-3.9 0.41072,-0.7425 1.33056,-2.4975 2.04408,-3.9 0.71352,-1.4025 1.52089,-2.8875 1.79414,-3.3 0.27326,-0.4125 2.27774,-3.7875 4.4544,-7.5 2.17666,-3.7125 4.47927,-7.56 5.1169,-8.55 0.63763,-0.99 1.57695,-2.475 2.08737,-3.3 0.51042,-0.825 1.46072,-2.31 2.11178,-3.3 0.65106,-0.99 1.286,-2.00708 1.41098,-2.26018 0.12498,-0.25309 1.01277,-1.60309 1.97286,-3 0.96009,-1.3969 2.61039,-3.82232 3.66732,-5.38982 1.05694,-1.5675 2.03357,-2.985 2.1703,-3.15 0.13672,-0.165 0.95093,-1.3125 1.80935,-2.55 2.48989,-3.58942 3.54182,-5.04246 6.153,-8.49922 3.49739,-4.62995 9.88123,-12.92331 10.08437,-13.10078 0.0944,-0.0825 1.31563,-1.5675 2.71376,-3.3 1.39814,-1.7325 3.03043,-3.69 3.62732,-4.35 0.59689,-0.66 2.95101,-3.2925 5.23137,-5.85 5.01666,-5.62634 14.83806,-15.441555 19.95476,-19.942185 2.05856,-1.810704 4.21533,-3.723477 4.79283,-4.25061 0.5775,-0.527133 1.455,-1.268496 1.95,-1.647471 0.495,-0.378978 0.9675,-0.77499 1.05,-0.880026 0.12724,-0.162009 4.85991,-3.822672 6.75,-5.221053 0.33,-0.244149 1.81799,-1.358475 3.30665,-2.476281 1.48866,-1.117806 3.24366,-2.410584 3.9,-2.872839 0.65634,-0.462258 2.13835,-1.515222 3.29335,-2.339925 4.87509,-3.480948 10.09761,-7.023687 11.17607,-7.581381 2.097,-1.084401 4.19548,0.948411 5.99947,5.811771 0.39783,1.0725 0.83235,2.49 0.96564,3.15 0.13326,0.66 0.45036,2.0775 0.70464,3.15 0.70221,2.961861 1.40685,7.206762 1.41924,8.55 0.006,0.66 0.14046,1.8075 0.29862,2.55 0.15816,0.7425 0.48684,4.05 0.73041,7.35 0.24354,3.3 0.59304,7.485 0.77664,9.3 0.40974,4.05101 0.21327,24.77603 -0.27588,29.1 -0.18666,1.65 -0.47199,4.6875 -0.63408,6.75 -0.16206,2.0625 -0.43626,4.8975 -0.6093,6.3 -0.71922,5.82886 -2.27739,16.72083 -2.74671,19.2 -0.17181,0.9075 -0.43095,2.3925 -0.57588,3.3 -0.14493,0.9075 -0.4614,2.6625 -0.70329,3.9 -0.24189,1.2375 -0.59493,3.1275 -0.78453,4.2 -0.1896,1.0725 -0.52467,2.8275 -0.7446,3.9 -0.21993,1.0725 -0.6118,3.07492 -0.87081,4.44982 -0.259,1.3749 -0.54262,2.61584 -0.63026,2.75764 -0.0876,0.1418 -0.29855,1.04188 -0.46869,2.00018 -0.35643,2.00753 -2.21708,10.02521 -2.84106,12.24236 -0.23219,0.825 -0.70765,2.7825 -1.05659,4.35 -0.34894,1.5675 -0.76589,3.17968 -0.92657,3.58263 -0.16067,0.40295 -0.40268,1.28045 -0.53779,1.95 -0.1351,0.66955 -0.47272,2.02737 -0.75026,3.01737 -0.27754,0.99 -0.84427,3.0825 -1.25939,4.65 -1.37627,5.19679 -1.55422,5.84295 -1.85899,6.75 -0.32506,0.96744 -1.19127,3.99212 -1.97605,6.9 -0.26718,0.99 -0.63101,2.205 -0.80852,2.7 -0.17751,0.495 -0.50056,1.575 -0.71789,2.4 -0.21733,0.825 -0.53592,1.905 -0.70797,2.4 -0.31775,0.91417 -2.03346,6.50039 -3.08668,10.05 -0.31823,1.0725 -0.71588,2.355 -0.88368,2.85 -0.1678,0.495 -0.48806,1.5075 -0.7117,2.25 -0.22364,0.7425 -0.91113,2.97 -1.52776,4.95 -0.61663,1.98 -1.18064,4.17198 -1.25337,4.87106 -0.11689,1.12372 -0.0491,1.30267 0.58501,1.54375 0.39447,0.14998 0.89355,0.48514 1.10905,0.74482 0.35004,0.42177 0.6318,0.34274 2.64143,-0.74086 2.22485,-1.19965 6.42158,-3.59821 7.29208,-4.16765 0.49783,-0.32566 4.74276,-2.40685 7.8509,-3.84912 1.1005,-0.51066 2.383,-1.01733 2.85,-1.12593 0.46702,-0.1086 1.1191,-0.35621 1.4491,-0.55024 0.33,-0.19404 1.68,-0.6644 3,-1.04525 1.32,-0.38085 2.84334,-0.88103 3.38517,-1.11152 0.54186,-0.23048 1.30932,-0.41906 1.70547,-0.41906 0.39618,0 1.06353,-0.1305 1.48305,-0.28999 0.41949,-0.1595 2.88489,-0.64686 5.47866,-1.08302 3.88746,-0.65371 5.4081,-0.7728 8.65584,-0.6779 3.10689,0.0908 4.10925,0.22609 4.74087,0.63994 0.92673,0.60722 1.02204,1.0571 0.27594,1.30243 -0.28875,0.0949 -3.1575,1.46986 -6.375,3.05536 -6.01266,2.96288 -10.95657,5.749 -15,8.45318 -0.2475,0.16553 -1.0575,0.69757 -1.8,1.18232 -0.7425,0.48475 -2.295,1.56515 -3.45,2.40088 -1.155,0.83574 -2.4375,1.74847 -2.85,2.0283 -1.39743,0.94798 -6.13346,4.72288 -9.70776,7.73767 -1.95676,1.65045 -4.20611,3.54083 -4.99856,4.20083 -2.77327,2.30978 -20.81302,20.60689 -24.28931,24.63582 -2.57014,2.97876 -5.53879,6.50463 -8.30527,9.86418 -0.95111,1.155 -1.80582,2.1675 -1.89936,2.25 -0.0936,0.0825 -0.70551,0.82407 -1.35991,1.64796 -0.65441,0.82386 -1.86483,2.33601 -2.68983,3.36036 -2.60404,3.23319 -6.66419,8.55003 -8.64979,11.32707 -0.52262,0.73089 -1.96079,2.7207 -3.19595,4.42176 -3.27807,4.51458 -3.49144,4.81353 -8.09599,11.34285 -0.98906,1.4025 -2.01145,2.82 -2.27199,3.15 -0.26054,0.33 -1.27078,1.68 -2.24499,3 -0.9742,1.32 -2.45656,3.2775 -3.29413,4.35 -0.83757,1.0725 -2.42231,3.2325 -3.52164,4.8 -9.0498,12.90375 -16.68152,21.03225 -22.53888,24.00606 -1.77939,0.90342 -4.52617,1.78461 -7.38664,2.3697 -1.63046,0.33351 -3.81635,0.89151 -6.12552,1.56372 -1.05904,0.30828 -2.12952,0.56052 -2.37885,0.56052 -0.53228,0 -3.97928,1.08759 -5.34097,1.68513 -0.51994,0.22818 -1.09007,0.41487 -1.26697,0.41487 -0.1769,0 -0.9665,0.29061 -1.75467,0.64578 -1.62196,0.73092 -3.01979,1.33401 -3.68302,1.58898 -0.2475,0.0952 -0.99,0.48141 -1.65,0.85836 -0.66,0.37695 -2.01,1.12884 -3,1.67082 -0.99,0.54201 -1.92825,1.10934 -2.085,1.26078 -0.41432,0.4002 -1.36441,0.33711 -1.50163,-0.0997 z m 38.1327,-44.17911 c 1.1047,-0.79425 2.82701,-2.97519 3.27833,-4.15131 0.2729,-0.71115 -1.81531,-1.79508 -3.11939,-1.61919 -1.41701,0.19113 -3.53179,1.18845 -4.8846,2.30355 -1.36404,1.12434 -2.86328,3.90696 -2.30704,4.28187 0.21264,0.14334 1.60163,0.2202 3.08663,0.17079 2.44559,-0.0814 2.81741,-0.17427 3.94607,-0.98571 z m -21.51444,-2.12355 c 1.96792,-0.78741 2.91255,-2.94858 3.48787,-7.97979 l 0.19525,-1.70745 -1.00738,-0.46722 c -0.55405,-0.25698 -2.13719,-1.0749 -3.51808,-1.81755 -3.21208,-1.72755 -3.86469,-1.73886 -4.81047,-0.0833 -1.23797,2.16696 -1.94696,6.2514 -1.65872,9.55575 l 0.20084,2.30238 2.13953,0.29394 c 3.17321,0.43593 3.66381,0.42639 4.97116,-0.0967 z M 210.49931,342.075 c 0.49906,-0.45375 1.29962,-1.47819 1.77903,-2.27652 0.47941,-0.79833 1.10648,-1.81083 1.39347,-2.25 0.287,-0.43917 0.68435,-1.13598 0.88301,-1.54848 0.19866,-0.4125 0.57111,-1.00017 0.82766,-1.3059 0.43338,-0.51651 0.3814,-0.62895 -0.73301,-1.5855 -2.06261,-1.77048 -4.16203,-2.6037 -6.61458,-2.62524 -2.40487,-0.0213 -3.54442,0.52536 -5.68606,2.72682 -1.74999,1.79886 -4.38573,6.83919 -3.81736,7.2999 0.25768,0.20889 3.66324,1.22949 6.21853,1.8636 0.99,0.2457 2.48444,0.46461 3.32097,0.48651 1.27071,0.0333 1.67026,-0.0959 2.42834,-0.78519 z m -24.25769,-6.10737 c 1.87936,-0.78102 3.04877,-2.34582 3.40042,-4.5501 0.38907,-2.43885 -0.30323,-4.15101 -2.99922,-7.41753 -2.86372,-3.46974 -6.05412,-5.75553 -8.50158,-6.09099 -4.08221,-0.55953 -6.01417,2.18574 -6.42194,9.12537 -0.25718,4.37691 -0.15241,4.80318 1.34259,5.46279 0.64989,0.28671 1.63926,0.82092 2.1986,1.18707 4.39595,2.87778 7.83177,3.5922 10.98113,2.28339 z m 36.02449,-14.02716 c 0.80991,-0.30774 1.65511,-0.71505 1.87822,-0.9051 0.22312,-0.19008 1.29765,-1.00824 2.38784,-1.81812 2.49528,-1.8537 4.58,-4.20132 5.57322,-6.27606 0.63399,-1.32432 0.73842,-1.87692 0.5906,-3.12501 -0.35214,-2.97333 -2.97303,-4.41618 -8.02189,-4.41618 -2.68088,0 -3.15652,0.0879 -4.8483,0.8958 -3.32465,1.58772 -6.66253,5.46267 -8.18132,9.49773 -1.05208,2.79513 -0.92897,3.69612 0.60552,4.43169 0.66,0.31635 1.56559,0.75939 2.01243,0.98454 0.86096,0.43377 4.33002,1.19646 5.70935,1.25523 0.45198,0.0192 1.48443,-0.21678 2.29433,-0.52452 z M 162.54,320.64 c 0.198,-0.198 0.36,-0.78099 0.36,-1.29555 0,-0.51456 0.20508,-1.62615 0.45574,-2.4702 0.25065,-0.84402 0.57709,-2.5011 0.72542,-3.68238 0.25199,-2.00688 0.21374,-2.27871 -0.58326,-4.1448 l -0.85294,-1.99707 -0.62248,1.44987 c -0.34236,0.79743 -0.62248,1.59681 -0.62248,1.77639 0,0.17958 -0.19205,0.53964 -0.42677,0.80013 -0.74657,0.82851 -1.4578,3.11013 -1.59654,5.12166 -0.11238,1.62945 -0.0212,2.15526 0.55786,3.21519 0.81415,1.49037 1.8528,1.9794 2.60545,1.22676 z m 34.33229,-4.3017 c 0.48644,-0.18666 3.11105,-5.08263 4.57715,-8.5383 2.18137,-5.14155 2.17737,-5.11947 1.07521,-5.93433 -0.89851,-0.66432 -7.31083,-3.96567 -7.7026,-3.96567 -0.12364,0 -0.43794,-0.1881 -0.69843,-0.41799 -0.60646,-0.53523 -4.44323,-2.18621 -6.77362,-2.91472 -2.87996,-0.90032 -3.19437,-0.82017 -4.54125,1.15771 -1.97694,2.90311 -4.58858,8.86746 -4.60488,10.51647 -0.01,1.00482 1.3317,3.12222 2.86792,4.52625 1.79311,1.63881 5.94796,4.23867 8.0313,5.02554 2.39457,0.90441 6.14672,1.16766 7.7692,0.54504 z M 168.84,298.44 c 0.198,-0.198 0.36,-0.55862 0.36,-0.80138 0,-0.24275 0.1781,-0.65451 0.39579,-0.915 1.05888,-1.26711 3.80421,-8.35337 3.80421,-9.81944 0,-1.99663 -2.53115,-5.37884 -4.57976,-6.11963 -0.9553,-0.34544 -1.24582,-0.3358 -2.09592,0.0696 -0.8595,0.40987 -1.07323,0.75803 -1.65561,2.69699 -0.36779,1.22451 -0.66871,2.57446 -0.66871,2.9999 0,0.42544 -0.18259,1.29676 -0.40574,1.93625 -0.22316,0.6395 -0.5746,2.25995 -0.78097,3.60101 -0.43544,2.82965 -0.283,3.22677 1.93691,5.04582 1.89723,1.55464 3.03749,1.9582 3.6898,1.30589 z m 70.88299,-1.2218 c 1.17556,-0.79221 3.66553,-3.76951 4.50043,-5.38125 0.80529,-1.55456 0.7696,-3.74282 -0.0757,-4.64261 -0.35877,-0.38189 -0.78864,-0.69434 -0.95529,-0.69434 -0.2941,0 -2.47043,-0.93373 -3.60083,-1.5449 -1.32629,-0.71708 -5.12419,-1.7551 -6.42155,-1.7551 -2.91269,0 -6.91137,2.95249 -7.94653,5.86744 -0.63467,1.78722 -0.73686,6.09189 -0.14851,6.25598 0.20625,0.0575 1.1175,0.31215 2.025,0.56583 1.76144,0.4924 7.85748,1.6435 9.6,1.81274 0.5775,0.0561 1.26628,0.12359 1.53064,0.15 0.26434,0.0264 0.9359,-0.2588 1.49235,-0.63379 z m -30.17112,-5.92027 c 0.58512,-0.64654 0.77297,-0.94876 1.98415,-3.19208 3.65745,-6.77421 3.79914,-7.16914 2.87825,-8.02247 -1.46463,-1.35715 -9.55284,-6.48338 -10.22955,-6.48338 -0.14228,0 -1.46047,-0.58912 -6.03472,-2.69701 -0.66,-0.30413 -2.08908,-0.85979 -3.17573,-1.23479 -2.51056,-0.86638 -3.38767,-0.57337 -4.89885,1.63655 -1.58646,2.32002 -2.26694,4.86266 -2.27155,8.4878 l -0.004,3.04256 1.32938,1.47859 c 1.24594,1.38578 3.71068,2.84221 7.37062,4.35533 2.14876,0.88836 8.01007,2.61739 9.75,2.87616 2.69982,0.40153 2.71582,0.40033 3.30187,-0.24726 z m 39.55639,-14.4086 c 3.48529,-1.22498 5.0758,-2.69337 5.94606,-5.48952 0.52161,-1.67595 0.52556,-1.88213 0.0674,-3.51513 -0.28787,-1.02596 -0.81054,-2.0385 -1.27922,-2.47817 -0.7583,-0.71137 -3.86809,-1.70402 -7.24247,-2.31183 -0.7425,-0.13374 -1.73004,-0.38976 -2.19453,-0.56893 -0.46449,-0.17916 -1.90771,-0.32575 -3.20714,-0.32575 l -2.36261,0 -1.3013,2.325 c -0.71571,1.27875 -1.81888,3.54 -2.45148,5.025 -1.19048,2.79457 -1.74353,4.06449 -1.91092,4.38781 -0.15811,0.30541 2.84565,2.33832 4.3699,2.95749 2.11125,0.85762 9.11957,0.854 11.56634,-0.006 z m -70.86767,-3.86001 c 0.63688,-0.71766 1.31222,-1.8616 1.50077,-2.54208 0.18855,-0.68048 0.52638,-1.81571 0.75073,-2.52273 0.24433,-0.76999 0.40791,-2.64979 0.40791,-4.68767 0,-3.9613 -0.5566,-5.63552 -2.66778,-8.02454 -1.41425,-1.60037 -3.76024,-3.2523 -4.61876,-3.2523 -1.0343,0 -2.76855,2.20099 -4.39316,5.57548 -0.86707,1.80099 -1.85853,3.81452 -2.20326,4.47452 -0.88605,1.69641 -0.88731,5.22272 -0.002,6.9 0.91448,1.73345 2.70607,3.71123 4.27395,4.71809 1.24599,0.80016 1.5495,0.8655 3.57781,0.77021 2.19005,-0.1029 2.23005,-0.1196 3.37427,-1.40898 z M 219.2143,270.225 c 1.03114,-1.07872 2.37245,-3.8029 3.39576,-6.89674 1.18683,-3.58819 0.49806,-5.52094 -2.88697,-8.10109 -2.3877,-1.81997 -8.32752,-4.52963 -12.42309,-5.66724 -0.5775,-0.16041 -1.455,-0.47045 -1.95,-0.68897 -1.14227,-0.50427 -2.80596,-1.08723 -3.66626,-1.28466 -0.52263,-0.11994 -0.73972,0.0321 -1.00704,0.7054 -0.18744,0.47206 -0.46308,1.0608 -0.61253,1.3083 -0.14946,0.2475 -0.53077,1.01332 -0.84736,1.70182 -0.31659,0.6885 -0.91253,1.971 -1.32431,2.85 -1.01684,2.17056 -2.59526,6.24441 -2.58047,6.66009 0.0375,1.05335 7.78033,5.71866 13.03797,7.8558 0.495,0.2012 1.39265,0.57461 1.99478,0.8298 0.60214,0.25518 1.61464,0.56118 2.25,0.68001 0.63537,0.11883 1.56022,0.39221 2.05522,0.60752 0.495,0.21531 1.51477,0.39676 2.26615,0.40322 1.15798,0.01 1.50816,-0.13683 2.29815,-0.96326 z m 40.15152,-17.00734 c 1.50295,-0.38831 2.58511,-1.61567 2.75523,-3.12489 0.1884,-1.67149 -0.34093,-3.30628 -1.20399,-3.71842 -1.5142,-0.72308 -3.2815,-1.27435 -4.08541,-1.27435 -0.47092,0 -1.37944,-0.18384 -2.01893,-0.40854 -1.5579,-0.54739 -4.95373,-0.88796 -6.40655,-0.6425 -0.75004,0.12672 -1.66001,0.62488 -2.5131,1.3758 -2.0666,1.81909 -2.82844,4.77524 -1.23065,4.77524 0.21393,0 0.77115,0.19895 1.23827,0.44211 2.00222,1.04226 4.93948,2.13373 7.29931,2.7124 1.63038,0.3998 4.31981,0.34011 6.16582,-0.13685 z M 185.57467,250.275 c 0.32313,-0.45375 0.8536,-1.365 1.17883,-2.025 0.32523,-0.66 0.74103,-1.4025 0.924,-1.65 0.58178,-0.78698 1.92522,-5.50338 1.92383,-6.754 -9e-4,-0.8772 -0.28587,-1.62653 -1.04963,-2.76064 -1.44659,-2.14807 -4.21847,-4.79787 -5.9338,-5.67247 -1.39018,-0.70882 -1.45407,-0.71457 -2.1826,-0.19654 -0.41277,0.29351 -1.06572,1.20865 -1.451,2.03365 -2.148,4.59955 -2.54679,6.6387 -2.02408,10.35 0.54747,3.88711 1.92104,5.83533 4.85904,6.89191 2.27595,0.81848 3.04992,0.77377 3.75541,-0.21691 z m 44.79809,-4.69601 c 0.82975,-0.88322 1.26427,-2.64682 1.02583,-4.1636 -0.21223,-1.35016 -1.86589,-2.9484 -4.34414,-4.19857 -0.88245,-0.44514 -3.08945,-1.61369 -4.90445,-2.59677 -1.815,-0.98307 -4.0425,-2.13833 -4.95,-2.56725 -0.9075,-0.42891 -1.9875,-0.95578 -2.4,-1.17083 -0.4125,-0.21505 -1.39791,-0.56588 -2.1898,-0.77962 -1.96471,-0.53029 -3.39835,-0.0276 -5.32232,1.86628 -1.3672,1.3458 -1.48751,1.57882 -1.48329,2.87298 0.005,1.64618 0.14056,1.90497 1.34541,2.57565 0.495,0.27554 1.305,0.76716 1.8,1.09249 0.495,0.32533 1.305,0.80182 1.8,1.05886 0.495,0.25705 1.17,0.62855 1.5,0.82556 3.81553,2.27785 9.34901,5.27512 10.35,5.6062 0.4125,0.13643 2.17772,0.25966 3.92271,0.27384 2.97901,0.0242 3.21405,-0.0182 3.85005,-0.69522 z m 37.26641,-11.15973 c 1.40271,-1.33347 1.76083,-2.26974 1.76083,-4.6035 0,-2.00903 -0.0541,-2.1739 -1.08885,-3.31926 -1.80108,-1.99358 -4.38277,-2.8747 -9.35133,-3.19155 l -3.09018,-0.19707 -1.21024,1.17106 c -1.94002,1.87721 -2.46673,3.1703 -2.43222,5.97106 0.0163,1.32 0.0393,2.50125 0.0512,2.625 0.0119,0.12375 0.46038,0.23093 0.99663,0.23817 0.53625,0.007 1.515,0.2128 2.175,0.45681 0.66,0.244 1.8075,0.57663 2.55,0.73917 0.7425,0.16254 2.025,0.49586 2.85,0.74072 0.92906,0.27575 2.33257,0.40589 3.68739,0.34193 1.9301,-0.0911 2.29493,-0.20552 3.10178,-0.97254 z m -30.87319,-6.27097 c 2.47903,-0.87283 3.932,-3.35337 3.39537,-5.79663 C 239.98485,221.54808 237.79028,219 237.27469,219 c -0.12751,0 -0.41023,-0.1775 -0.62826,-0.39445 -0.86668,-0.86236 -9.33198,-5.00555 -10.22726,-5.00555 -0.1669,0 -0.85824,-0.25527 -1.53631,-0.56728 -2.73414,-1.25806 -7.10812,-2.52302 -7.7916,-2.25335 -0.36047,0.14223 -1.81466,3.54591 -2.16638,5.07063 -0.11419,0.495 -0.35775,1.0895 -0.54125,1.32111 -0.1835,0.23161 -0.33363,1.45451 -0.33363,2.71756 0,2.0913 0.0772,2.38868 0.86393,3.32889 1.13883,1.36095 4.1246,2.86086 7.23607,3.63507 0.66,0.16422 1.48909,0.43703 1.84243,0.60624 0.35334,0.16921 1.97334,0.55571 3.6,0.85887 3.44457,0.64198 7.05851,0.57523 9.17355,-0.16945 z m -41.77965,-0.93282 c 1.56635,-1.318 2.71367,-3.2357 2.71367,-4.53579 0,-1.37951 -1.0669,-3.1884 -3.07537,-5.21415 -2.85375,-2.87831 -4.9578,-3.42836 -6.7366,-1.76111 -1.08448,1.01646 -1.43806,2.31331 -1.20983,4.43743 0.20014,1.86273 1.74538,5.11343 2.98098,6.27107 1.85572,1.73861 3.85648,2.04003 5.32715,0.80255 z M 270.15,215.82523 c 1.155,-0.25539 2.59728,-0.53961 3.20506,-0.63161 l 1.10507,-0.16727 0.1739,-1.83818 c 0.0956,-1.01099 0.20587,-3.16717 0.24494,-4.7915 l 0.071,-2.95332 -1.8,-0.56475 c -3.26228,-1.02353 -8.0385,-1.88505 -9.22087,-1.66324 -1.76088,0.33034 -3.13484,2.24076 -3.68698,5.12651 -0.24318,1.271 -0.44215,3.03584 -0.44215,3.92187 0,1.59346 0.0148,1.61962 1.35778,2.40668 2.72739,1.59836 5.42156,1.94435 8.99222,1.15481 z m -67.8601,-5.71826 c 2.63831,-1.35481 4.59323,-5.68757 3.99794,-8.86074 -0.24602,-1.31144 -2.75827,-3.8785 -4.78321,-4.88757 -1.60618,-0.80039 -3.31409,-0.9693 -4.47101,-0.44217 -0.77796,0.35446 -2.03362,2.03212 -2.03362,2.71707 0,0.24554 -0.16547,0.61191 -0.36771,0.81415 -0.22529,0.22529 -0.41185,1.56027 -0.48169,3.44696 -0.0946,2.55611 -0.0322,3.14718 0.36771,3.47903 0.26493,0.21987 0.48169,0.56405 0.48169,0.76484 0,0.58895 2.31569,2.56163 3.53124,3.00819 1.52012,0.55844 2.61633,0.54685 3.75866,-0.0398 z m 41.58648,-1.89492 c 2.06172,-1.05181 3.32299,-3.75395 3.32338,-7.11995 l 2.4e-4,-2.1579 -1.67493,-1.80912 c -1.38157,-1.49226 -2.26567,-2.09746 -5.04776,-3.45537 -6.27706,-3.06377 -10.15799,-4.51055 -10.94851,-4.08152 -1.17952,0.64016 -4.94249,5.81734 -6.22305,8.56181 -0.95257,2.04154 -0.9204,3.01313 0.11925,3.60142 0.45375,0.25675 1.23,0.72347 1.725,1.03714 0.495,0.31367 1.71,1.00477 2.7,1.53577 0.99,0.53099 2.0025,1.08043 2.25,1.22098 0.64,0.36342 4.42669,2.03067 5.85,2.5757 2.83563,1.08585 5.90723,1.12113 7.92638,0.091 z m 33.10502,-13.64329 c 2.82034,-1.66526 4.05904,-4.04803 4.33732,-8.34335 0.19923,-3.0751 -0.009,-3.46096 -2.46872,-4.57915 -1.79172,-0.81444 -6.22763,-1.24376 -8.20355,-0.79395 -2.62193,0.59686 -3.95845,2.87862 -4.18126,7.13843 -0.18549,3.54619 0.25179,5.25643 1.6256,6.35785 1.26415,1.01349 2.37119,1.24161 5.29061,1.09015 1.80003,-0.0934 2.62053,-0.29166 3.6,-0.86998 z m -64.91611,-2.15822 c 1.04476,-0.73177 2.86877,-3.72361 3.96277,-6.49991 1.76129,-4.46972 1.19498,-9.07556 -1.29134,-10.50251 -1.67204,-0.95962 -3.27797,-0.98505 -4.82836,-0.0765 -2.02092,1.18434 -3.27986,2.75212 -4.98377,6.20637 -2.13468,4.32756 -2.03416,5.37048 0.79154,8.21197 2.94698,2.96344 4.80508,3.74206 6.34916,2.66054 z M 251.4,187.22018 c 2.50566,-1.28851 3.85966,-3.60418 3.96868,-6.78742 0.0935,-2.73092 -1.23225,-4.69725 -4.56868,-6.77608 -2.23552,-1.39289 -6.16847,-3.05601 -8.1,-3.42524 -0.5775,-0.1104 -1.185,-0.30487 -1.35,-0.43216 -0.165,-0.12729 -0.86154,-0.32401 -1.54787,-0.43714 -1.13049,-0.18636 -1.26787,-0.14017 -1.46048,0.49107 -0.11694,0.38324 -0.37752,0.89929 -0.57907,1.14679 -0.20155,0.2475 -0.93983,1.8 -1.64062,3.45 -0.7008,1.65 -1.46492,3.4254 -1.69807,3.94534 -0.23314,0.51993 -0.42389,1.61195 -0.42389,2.42669 0,2.62976 2.12435,4.52147 7.07089,6.29656 2.45337,0.8804 2.88458,0.94117 6.12911,0.86379 2.30091,-0.0549 3.1101,-0.20173 4.2,-0.7622 z M 284.24108,171.3 c 0.51546,-0.7425 1.22303,-2.025 1.57237,-2.85 2.0975,-4.95335 0.93377,-8.23256 -3.23918,-9.12749 -2.68565,-0.57597 -3.24891,-0.45632 -4.62818,0.98317 -1.73062,1.80617 -3.76057,6.02655 -3.9608,8.23472 -0.18526,2.04305 -0.11279,2.12612 2.61471,2.99748 1.0725,0.34263 2.355,0.75552 2.85,0.91752 0.495,0.16201 1.56462,0.27207 2.37694,0.24458 1.3906,-0.0471 1.53172,-0.1289 2.41414,-1.39998 z m -60.72264,-0.15953 c 1.11545,-0.57683 1.77171,-1.62744 2.97617,-4.76463 0.51225,-1.33421 1.16177,-2.88779 1.44338,-3.45239 0.2816,-0.5646 0.51201,-1.677 0.51201,-2.472 0,-1.29275 -0.12678,-1.5682 -1.2,-2.6072 -1.38315,-1.33904 -4.04255,-3.04425 -4.74774,-3.04425 -1.3085,0 -3.7779,3.23605 -6.20405,8.13013 -1.8558,3.74355 -1.93944,6.47379 -0.23261,7.59216 1.97646,1.29502 5.5679,1.59291 7.45284,0.61818 z m 33.56,-3.31685 c 1.20317,-0.48141 2.21495,-1.56266 3.13647,-3.35184 0.60219,-1.1692 1.97964,-6.33949 1.99826,-7.50053 0.007,-0.45169 0.1903,-1.31723 0.4068,-1.92344 0.2165,-0.6062 0.31183,-1.22984 0.21184,-1.38586 -0.17376,-0.2711 -3.46249,-2.79056 -4.69429,-3.59622 -0.32314,-0.21134 -1.72482,-0.92984 -3.11485,-1.59666 l -2.52732,-1.21239 -1.24906,1.29666 c -1.86749,1.93865 -4.49427,5.62488 -5.54715,7.78445 -2.03391,4.17176 -0.753,7.48955 3.90086,10.10394 1.71835,0.96531 4.212,1.75769 5.76893,1.83313 0.28541,0.0138 1.05469,-0.18923 1.70951,-0.45124 z m 30.06782,-16.92505 c 1.07744,-0.30557 1.09975,-0.34298 1.29977,-2.17973 0.11192,-1.02787 0.38,-2.67884 0.59571,-3.66884 0.21571,-0.99 0.48686,-2.59687 0.60254,-3.57083 0.11569,-0.97396 0.36043,-2.10023 0.54387,-2.50282 0.28843,-0.63304 0.23404,-0.81079 -0.40232,-1.31485 -0.92963,-0.73636 -3.45106,-2.0615 -3.92254,-2.0615 -0.53401,0 -2.36329,1.47475 -2.36329,1.90527 0,0.2061 -0.15766,0.53239 -0.35036,0.72509 -0.48044,0.48044 -1.12783,2.25863 -1.62528,4.46414 -0.22881,1.01447 -0.5529,2.20451 -0.72019,2.64453 -0.16729,0.44001 -0.30417,1.7893 -0.30417,2.99841 l 0,2.19839 1.125,0.48517 c 1.19633,0.51594 3.44619,0.46605 5.52126,-0.12243 z M 234.29367,149.475 c 0.67482,-0.78375 1.39106,-1.7221 1.59164,-2.08523 1.15636,-2.09345 2.98252,-5.8564 3.50881,-7.2302 l 0.60928,-1.59042 -0.63816,-1.48346 c -0.54,-1.25525 -0.81476,-1.53636 -1.78617,-1.8274 -1.91007,-0.57228 -3.22527,0.24567 -5.88316,3.65886 -1.79561,2.30589 -3.67737,5.6205 -3.99805,7.04234 -0.18805,0.83378 -0.11151,1.15271 0.4105,1.71046 0.86084,0.91979 4.15093,3.23005 4.59999,3.23005 0.1971,0 0.91049,-0.64125 1.58532,-1.425 z m 32.83484,-5.96376 c 1.61834,-1.66636 2.33969,-3.9051 2.35576,-7.31124 0.0226,-4.78567 -1.49413,-6.9 -4.94967,-6.9 -2.61083,0 -4.48113,1.58551 -6.22557,5.27763 -0.91681,1.94044 -1.52635,3.89779 -1.61192,5.17623 -0.0409,0.61135 0.46547,0.9728 3.85289,2.75013 2.145,1.12545 4.26475,2.05746 4.71056,2.07114 0.55776,0.0171 1.14033,-0.31469 1.86795,-1.06389 z m -20.87738,-14.08942 c 1.81877,-2.55196 2.91542,-5.13232 2.65212,-6.24031 -0.0826,-0.34733 -0.22638,-0.9591 -0.31964,-1.35949 -0.23111,-0.99221 -0.61852,-1.31958 -1.27841,-1.0803 -0.64609,0.23429 -4.30456,4.28319 -4.63725,5.13213 -0.36662,0.93555 -0.30891,3.9625 0.078,4.09147 0.55609,0.18536 3.28756,-0.23817 3.50517,-0.5435 z m 45.22779,-1.67313 c 0.53434,-0.19322 1.11767,-0.67207 1.2963,-1.06411 0.18968,-0.4163 0.32478,-2.70365 0.32478,-5.4987 l 0,-4.78588 -0.70433,0 c -0.80926,0 -3.49305,2.65589 -4.83868,4.78839 -1.33383,2.11378 -1.21286,5.85611 0.21149,6.54255 0.91306,0.44004 2.52135,0.44773 3.71044,0.0178 z M 272.55,121.85459 c 1.00572,-0.88077 1.79887,-2.21053 2.53034,-4.24229 0.65975,-1.83251 0.67753,-2.07271 0.32756,-4.425 -0.24254,-1.63025 -0.50254,-2.4873 -0.75458,-2.4873 -0.74683,0 -3.90602,3.76374 -4.91675,5.85764 -2.64234,5.47409 -2.61949,5.84837 0.35614,5.83238 1.33025,-0.007 2.02755,-0.15909 2.45729,-0.53543 z M 255.54,112.74 c 0.50207,-0.50207 0.45032,-1.44 -0.0794,-1.44 -0.43712,0 -1.06055,0.87016 -1.06055,1.48028 0,0.43032 0.69391,0.4058 1.14,-0.0403 z"
     id="path3725"
     inkscape:connector-curvature="0" />
</svg>
