<?xml version="1.0" encoding="UTF-8" standalone="no"?>
<!-- Created with Inkscape (http://www.inkscape.org/) -->

<svg
   xmlns:dc="http://purl.org/dc/elements/1.1/"
   xmlns:cc="http://creativecommons.org/ns#"
   xmlns:rdf="http://www.w3.org/1999/02/22-rdf-syntax-ns#"
   xmlns:svg="http://www.w3.org/2000/svg"
   xmlns="http://www.w3.org/2000/svg"
   xmlns:sodipodi="http://sodipodi.sourceforge.net/DTD/sodipodi-0.dtd"
   xmlns:inkscape="http://www.inkscape.org/namespaces/inkscape"
   id="svg3387"
   version="1.1"
   inkscape:version="0.91 r13725"
   width="450"
   height="450"
   viewBox="0 0 450 450"
   sodipodi:docname="Ceremonial.svg">
  <metadata
     id="metadata3393">
    <rdf:RDF>
      <cc:Work
         rdf:about="">
        <dc:format>image/svg+xml</dc:format>
        <dc:type
           rdf:resource="http://purl.org/dc/dcmitype/StillImage" />
        <dc:title />
      </cc:Work>
    </rdf:RDF>
  </metadata>
  <defs
     id="defs3391" />
  <sodipodi:namedview
     pagecolor="#ffffff"
     bordercolor="#666666"
     borderopacity="1"
     objecttolerance="10"
     gridtolerance="10"
     guidetolerance="10"
     inkscape:pageopacity="0"
     inkscape:pageshadow="2"
     inkscape:window-width="1920"
     inkscape:window-height="1020"
     id="namedview3389"
     showgrid="false"
     inkscape:zoom="1.8488889"
     inkscape:cx="225"
     inkscape:cy="225"
     inkscape:window-x="0"
     inkscape:window-y="0"
     inkscape:window-maximized="1"
     inkscape:current-layer="svg3387" />
  <path
     style="fill:#000000"
     d="m 218.49028,346.2 c -0.45451,-0.30805 -0.95918,-0.54011 -1.46655,-0.75 -0.75316,-0.31156 -1.51254,-0.72845 -2.32731,-0.75 -25.76003,-1.53292 -38.70357,24.51894 -59.9574,30.63291 -1.19102,0.17796 -2.41497,0.1385 -3.61271,0.0135 -0.5464,-0.057 -1.07655,-0.22049 -1.61131,-0.34632 -0.46318,-0.10899 -0.9302,-0.20745 -1.38295,-0.35385 -0.36322,-0.11745 -0.73327,-0.23167 -1.06562,-0.41946 -1.33684,-0.75534 -2.62675,-1.66243 -3.65705,-2.80092 -13.13939,-15.01986 10.89809,-44.97857 0.29062,-59.08878 -0.33712,-0.49934 -0.50984,-1.16336 -1.01039,-1.49868 -12.63137,-3.91325 -34.34172,2.14327 -46.98961,4.76172 -10.203004,0.98329 -13.398208,1.36408 -21.253548,-2.7 C 74.14404,312.77076 73.80322,312.74845 73.5,312.621 c -0.236459,-0.0994 -0.462768,-0.22654 -0.671934,-0.375 -0.285088,-0.20235 -0.551221,-0.43566 -0.784689,-0.69588 -0.433869,-0.48358 -0.865682,-0.99509 -1.128066,-1.58943 -0.642879,-1.45623 -1.01993,-3.07447 -1.015311,-4.66629 0.0047,-1.60346 0.418181,-3.22066 1.05,-4.6944 1.514908,-14.58575 38.92372,-41.94555 39.9,-56.23057 2.08691,-39.57317 -54.73539,-38.52117 -47.4,-66.46943 0.136106,-0.40234 0.274822,-0.80517 0.45,-1.1921 0.397181,-0.87728 0.734186,-1.81627 1.357896,-2.55 12.010975,-22.88872 56.462264,1.38708 68.600684,-11.76403 3.26618,-3.86177 0.754,-10.09297 0.84142,-15.15 0.0827,-4.78162 -0.25,-9.5618 -0.3,-14.34387 2.51459,-18.96524 -6.78513,-36.431133 3.45,-50.520816 0.25729,-0.368753 0.42956,-0.805775 0.75,-1.121205 0.24418,-0.240362 0.55646,-0.405441 0.86327,-0.557979 0.39281,-0.1953 0.80471,-0.373844 1.23673,-0.45 2.42643,-0.427726 4.95618,-0.373704 7.39151,0 0.49448,0.07588 0.96503,0.26988 1.43174,0.45 19.53109,6.616542 32.33886,35.53633 52.1805,39.9 1.03998,0.0177 2.11276,-0.0877 3.08776,-0.45 0.26188,-0.0973 0.48833,-0.27621 0.70706,-0.45 21.3245,-16.00247 25.46632,-48.97876 45.43887,-64.2 0.76023,-0.563553 1.62917,-1.065996 2.56256,-1.221972 0.53385,-0.08921 1.08163,0.08279 1.61326,0.184398 0.48718,0.09311 0.95407,0.272796 1.43647,0.38814 0.45689,0.109245 0.93899,0.124789 1.37965,0.287574 0.23505,0.08683 0.43657,0.246263 0.65889,0.36186 20.13203,13.384251 15.65456,47.03671 23.26173,64.15836 0.27317,0.50917 0.72758,0.89977 1.05,1.37928 0.16465,0.24488 0.31098,0.50207 0.45,0.76236 0.16319,0.30556 0.17513,0.72591 0.45,0.93673 0.80735,0.61922 1.98347,0.51957 3,0.56327 17.04692,0.12358 52.28712,-29.82256 63.99861,-24.9 0.26753,0.09893 0.53103,0.209098 0.80139,0.3 1.2622,0.201419 2.21927,1.184065 3.04893,1.95 11.30455,37.28339 -49.12487,58.17678 -18.0615,74.50742 0.80919,0.16582 1.63934,0.2099 2.46294,0.27294 2.89735,0.22176 5.80604,0.2558 8.70963,0.36964 15.42598,4.76866 35.50241,0.17055 49.74,5.55 0.4855,0.16379 1.00572,0.2328 1.46979,0.45 1.12248,0.52535 2.26707,1.12704 3.11325,2.03253 0.93916,1.00499 1.48749,2.33048 2.01696,3.6 0.20924,0.50171 0.23332,1.06893 0.45,1.56747 0.11621,0.26739 0.45,0.45845 0.45,0.75 0,0.29155 -0.32707,0.48564 -0.45,0.75 -0.19512,0.4196 -0.31528,0.87057 -0.45,1.31327 -0.16942,0.5567 -0.22761,1.14899 -0.45,1.68673 -0.11466,0.27724 -0.26736,0.54146 -0.45,0.77947 -11.10234,23.5947 -63.42324,31.5288 -57.75,61.32053 -7.77419,13.97783 32.26523,53.76091 20.24817,71.85165 -0.16944,0.23624 -0.55993,0.18288 -0.80067,0.34587 -0.50504,0.34194 -0.9079,0.82087 -1.2975,1.29012 -0.37438,0.45091 -0.53996,1.07721 -0.98928,1.4535 -15.98778,6.15627 -43.47136,-3.12504 -60.3192,-9.09114 -0.27356,-0.10081 -0.45845,-0.45 -0.75,-0.45 -0.29155,0 -0.47497,0.35325 -0.75,0.45 -1.04278,0.36684 -2.22352,0.14353 -3.28561,0.45 -1.44387,0.41663 -3.06975,0.77345 -4.10591,1.86189 -0.28128,0.29547 -0.31693,0.75247 -0.45,1.13811 -0.17226,0.49921 -0.31687,1.00799 -0.45,1.51902 -0.11465,0.4401 -0.18748,0.89033 -0.3,1.33098 -0.0901,0.35269 -0.2,0.7 -0.3,1.05 -4.52425,15.02432 -6.80724,52.97176 -20.49737,64.5 -0.34066,0.28555 -0.72763,0.51132 -1.10263,0.75 -0.41275,0.26271 -0.84318,0.4966 -1.26171,0.75 -0.24448,0.14802 -0.47391,0.32273 -0.7298,0.45 -24.62112,-3.14296 -35.02345,-38.19519 -49.81821,-49.05 z M 274.2,317.1 c 0.34957,-0.11184 0.71023,-0.18697 1.05941,-0.3 0.41598,-0.13466 0.83996,-0.25661 1.2321,-0.45 0.25081,-0.12369 0.49144,-0.27313 0.70806,-0.45 0.26909,-0.21971 0.47898,-0.50336 0.72362,-0.75 0.25146,-0.2535 0.46524,-0.55571 0.76482,-0.75 0.22903,-0.14853 0.50367,-0.21177 0.76199,-0.3 0.3387,-0.11568 0.69096,-0.18824 1.03097,-0.3 0.41031,-0.13487 0.81644,-0.2834 1.21629,-0.4467 0.21403,-0.0874 0.43376,-0.16657 0.6323,-0.28503 15.74915,-11.33079 29.02154,-22.04439 39.27044,-37.12915 0.10919,-0.17427 0.21956,-0.34985 0.3,-0.53912 0.13412,-0.31558 0.16889,-0.66714 0.3,-0.98398 0.28502,-0.68876 0.64793,-1.34671 1.05,-1.97438 0.31168,-0.48656 0.72758,-0.89977 1.05,-1.37928 0.16465,-0.24488 0.32339,-0.49581 0.45,-0.76236 0.18584,-0.39125 0.31441,-0.80766 0.45,-1.21903 3.50623,-7.99366 5.55602,-14.47336 8.4,-21.73097 0.32395,-1.41039 0.17829,-2.88898 0.3,-4.33097 0.12732,-1.50843 0.20589,-3.02505 0.45,-4.51903 0.10857,-0.66445 0.31903,-1.30863 0.45,-1.96903 0.11711,-0.59052 0.18377,-1.19028 0.3,-1.78097 0.0878,-0.44623 0.18535,-0.89087 0.3,-1.33097 0.13313,-0.51104 0.3605,-0.99857 0.45,-1.51903 0.48366,-2.81266 0.45,-5.69606 0.45,-8.55 0.1891,-6.85686 -1.72314,-12.95948 -2.4,-19.64059 -0.12134,-1.20117 -0.0782,-2.42267 -0.3,-3.60941 -0.065,-0.34771 -0.18739,-0.68257 -0.3,-1.0179 -0.13506,-0.40219 -0.26671,-0.80796 -0.45,-1.19059 -0.12773,-0.26666 -0.32133,-0.49819 -0.45,-0.76439 -0.12084,-0.25 -0.19947,-0.51829 -0.3,-0.77712 -0.0995,-0.25611 -0.18693,-0.51731 -0.3,-0.76771 -0.0899,-0.199 -0.23338,-0.37436 -0.3,-0.58229 -0.21205,-0.66185 -0.18687,-1.37755 -0.3,-2.06327 -0.13445,-0.81496 -0.22587,-1.64174 -0.45,-2.43673 -0.11344,-0.40239 -0.26852,-0.79409 -0.45,-1.17072 -0.29998,-0.62256 -0.74583,-1.16711 -1.05,-1.78764 -1.56905,-4.23978 -3.42611,-8.26592 -5.56401,-12.20431 -0.32528,-0.53145 -0.74805,-1.00146 -1.05,-1.5465 -0.3603,-0.65036 -0.50259,-1.4125 -0.90006,-2.04083 -0.2473,-0.39094 -0.5892,-0.71427 -0.90744,-1.05 -0.22324,-0.23551 -0.48922,-0.42955 -0.70149,-0.675 -0.33428,-0.38654 -0.63493,-0.80516 -0.89256,-1.2465 -0.25281,-0.43309 -0.39761,-0.92208 -0.63444,-1.36411 -0.36237,-0.67635 -0.77949,-1.32257 -1.2,-1.96439 -0.38176,-0.58266 -0.83905,-1.11511 -1.2,-1.71089 -3.43349,-4.88323 -7.30034,-9.64415 -11.6076,-13.73911 -0.58155,-0.54582 -1.24142,-1.00167 -1.86414,-1.5 -0.62691,-0.50169 -1.25596,-1.0007 -1.88478,-1.5 -0.6306,-0.50071 -1.25496,-1.00944 -1.89348,-1.5 -0.66373,-0.50993 -1.31138,-1.04472 -2.01372,-1.5 -0.17188,-0.11142 -0.35741,-0.2002 -0.53628,-0.3 -0.17959,-0.1002 -0.36485,-0.19081 -0.53912,-0.3 -0.59029,-0.36986 -1.14059,-0.8 -1.71088,-1.2 -0.57029,-0.4 -1.12059,-0.83014 -1.71088,-1.2 -0.17427,-0.10919 -0.35181,-0.2151 -0.53912,-0.3 -0.27055,-0.12263 -0.57046,-0.17329 -0.83912,-0.3 -3.49778,-2.35302 -7.17441,-3.72205 -10.86362,-5.5533 -5.9975,-2.33614 -12.54561,-2.84673 -18.48877,-4.4967 -0.26143,-0.11052 -0.47008,-0.32094 -0.72288,-0.45 -0.23585,-0.12041 -0.4809,-0.22757 -0.73561,-0.3 -0.57906,-0.16467 -1.19045,-0.18289 -1.78097,-0.3 -0.6604,-0.13097 -1.30001,-0.37452 -1.96903,-0.45 -10.73192,-1.21072 -21.64499,-0.98476 -32.4,0 -0.82254,0.0753 -1.62177,0.31555 -2.43673,0.45 -8.04594,2.13973 -16.35159,3.14768 -24.26053,5.5467 -0.21748,0.0683 -0.41657,0.18631 -0.61736,0.29426 -0.34348,0.18467 -0.67097,0.39775 -1.00237,0.60331 -0.39756,0.2466 -0.78148,0.51504 -1.18264,0.75573 -0.26245,0.15747 -0.51328,0.3439 -0.80037,0.45 -0.72327,0.26729 -1.509,0.31994 -2.26903,0.45 -0.69079,0.11821 -1.40295,0.12268 -2.08097,0.3 -8.74457,3.88113 -16.92307,8.5233 -24.91128,13.81402 -0.69108,0.45729 -1.40825,0.87626 -2.08065,1.36059 -0.6753,0.48642 -1.33476,0.99763 -1.95807,1.54911 -0.45335,0.40111 -0.80765,0.91299 -1.29184,1.27628 -0.24663,0.18505 -0.53438,0.30818 -0.80816,0.45 -0.30759,0.15933 -0.64842,0.25797 -0.93673,0.45 -0.20921,0.13934 -0.38669,0.32249 -0.56327,0.50138 -0.49547,0.50195 -0.90659,1.08145 -1.38615,1.59862 -0.72847,0.7856 -1.50051,1.52977 -2.2628,2.28261 -0.22995,0.2271 -0.44325,0.47381 -0.69702,0.67394 -0.29385,0.23174 -0.61709,0.42635 -0.94702,0.60298 -2.45158,1.87822 -4.21375,4.4141 -6.40701,6.57675 -0.54959,0.63128 -0.99113,1.34918 -1.5,2.01372 -0.49152,0.64188 -0.99491,1.27463 -1.5,1.90589 -0.49504,0.6187 -1.02889,1.20699 -1.5,1.84411 -0.53388,0.722 -1.00403,1.48904 -1.5,2.23759 -0.50411,0.76085 -1.00595,1.52326 -1.5,2.29068 -7.41913,11.17859 -13.52558,29.49948 -13.575,41.6566 0.003,0.24097 0.007,0.48209 0,0.72298 -0.0875,2.99321 -0.51454,5.97365 -0.525,8.96812 -0.0102,2.91468 0.16072,5.83221 0.45,8.73252 0.10141,1.01673 0.32166,2.01842 0.45,3.0321 0.12037,0.95078 0.0196,1.94299 0.3,2.85941 0.0623,0.20342 0.20392,0.37348 0.3,0.56327 0.15645,0.30906 0.31487,0.61777 0.45,0.93673 0.16897,0.39883 0.31441,0.80766 0.45,1.21903 0.11204,0.33992 0.23087,0.6798 0.3,1.03097 1.03821,8.80249 3.98214,17.25031 8.55,24.75 0.2524,0.41598 0.50808,0.83012 0.75,1.25229 0.1035,0.18061 0.19939,0.36548 0.3,0.54771 0.0994,0.18004 0.19081,0.36485 0.3,0.53912 0.36986,0.59029 0.8,1.14059 1.2,1.71088 0.4,0.57029 0.83014,1.12059 1.2,1.71088 0.10919,0.17427 0.19324,0.36335 0.3,0.53912 0.0942,0.15505 0.22424,0.28924 0.3,0.45407 0.14115,0.30708 0.16595,0.65619 0.2781,0.975 0.12554,0.35687 0.21056,0.74559 0.44059,1.04593 0.17304,0.22594 0.46401,0.33213 0.67327,0.525 0.58214,0.53654 1.10148,1.13947 1.60804,1.74787 0.4943,0.59367 0.87621,1.27799 1.39307,1.85213 0.4897,0.54397 1.08056,0.98779 1.60693,1.49636 2.47544,2.39172 4.87109,4.86473 7.29293,7.31071 0.47081,0.4755 0.92857,0.96401 1.40707,1.43177 0.50877,0.49735 0.99016,1.02973 1.55591,1.46116 0.22857,0.1743 0.49017,0.30037 0.7356,0.45 0.24664,0.15037 0.49932,0.29116 0.74059,0.45 0.19405,0.12776 0.39333,0.25079 0.5679,0.4041 0.57942,0.50885 0.96459,1.22268 1.57345,1.6959 0.24769,0.19251 0.5518,0.2986 0.82655,0.45 0.26972,0.14863 0.54796,0.28327 0.80688,0.45 0.49577,0.31925 0.948,0.70154 1.42369,1.05 0.47991,0.35155 0.94004,0.73249 1.44312,1.05 0.2641,0.16668 0.54296,0.30961 0.82357,0.4467 12.19041,6.21843 22.33345,13.18368 35.40274,16.2033 0.27426,0.10323 0.50789,0.29286 0.75524,0.45 0.36963,0.23483 0.70466,0.52471 1.08827,0.73593 0.42343,0.23314 0.87578,0.41201 1.32875,0.58071 0.33092,0.12324 0.66696,0.23777 1.01174,0.31407 1.13834,0.25191 2.30948,0.32192 3.466,0.46929 1.13729,0.14492 2.29009,0.1875 3.41517,0.40803 0.34417,0.0675 0.68497,0.15888 1.01455,0.27882 0.48255,0.17561 0.93022,0.43549 1.40039,0.64197 0.60762,0.26684 1.21116,0.54609 1.83545,0.77118 0.4864,0.17538 0.9741,0.36695 1.48444,0.45 5.23328,0.85162 10.59788,0.45 15.9,0.45 17.10217,1.45808 27.06026,-4.21155 41.7,-9.3 z m -50.71397,-6.28989 c -0.96543,0.82003 -2.49734,-0.42681 -3.75,-0.61482 -1.5117,-0.22689 -3.0253,-0.4443 -4.54388,-0.61923 -0.97472,-0.11228 -1.96401,-0.10706 -2.93051,-0.27606 -2.77277,-0.48484 -5.46364,-1.35966 -8.17721,-2.10792 -1.02185,-0.28177 -2.04218,-0.57106 -3.05093,-0.89661 -1.79959,-0.58077 -3.56959,-1.24957 -5.35101,-1.88388 -1.0303,-0.36686 -2.08073,-0.68307 -3.08695,-1.11159 -1.48081,-0.63063 -2.90017,-1.39796 -4.32749,-2.14176 -0.52799,-0.27515 -1.03682,-0.58625 -1.56645,-0.85824 -1.41203,-0.72515 -2.94431,-1.22384 -4.29283,-2.0612 -0.29364,-0.18233 -0.52658,-0.45108 -0.8168,-0.6388 -1.36309,-0.88169 -2.918,-1.43253 -4.3095,-2.26866 -0.37139,-0.22316 -0.70692,-0.5021 -1.07459,-0.73134 -1.32467,-0.82594 -2.7532,-1.47833 -4.07003,-2.31671 -0.62417,-0.39739 -1.22015,-0.83822 -1.81127,-1.28329 -0.63974,-0.48168 -1.25532,-0.99471 -1.87658,-1.5 -0.60842,-0.49485 -1.23069,-0.97423 -1.8126,-1.5 -3.50964,-3.17104 -6.96244,-6.427 -10.10578,-9.96147 -0.65156,-0.73264 -1.2066,-1.54574 -1.80618,-2.3215 -0.62117,-0.80369 -1.2511,-1.60086 -1.85578,-2.41703 -0.51271,-0.69204 -1.01864,-1.38953 -1.50226,-2.1022 -0.46747,-0.68887 -0.91988,-1.38837 -1.35191,-2.1 -0.47776,-0.78695 -0.93768,-1.5853 -1.37055,-2.3978 -0.68697,-1.28945 -1.32736,-2.60385 -1.94494,-3.92794 -0.46856,-1.00459 -0.92098,-2.01748 -1.33496,-3.04577 -0.59559,-1.47937 -1.15279,-2.97543 -1.6513,-4.49027 -0.45399,-1.37955 -0.79393,-2.79425 -1.2185,-4.18314 -0.34818,-1.139 -0.74576,-2.26258 -1.08965,-3.40288 -0.15071,-0.49974 -0.35166,-0.99012 -0.42659,-1.50669 -1.39934,-9.64754 -1.30705,-19.54132 -0.35605,-29.24331 0.3589,-3.66144 1.44054,-7.21684 2.27477,-10.8 0.34627,-1.48726 0.65479,-2.98856 1.13294,-4.43881 0.42032,-1.27486 0.95335,-2.51231 1.52007,-3.72918 0.34715,-0.7454 0.79546,-1.44049 1.14927,-2.18275 0.7158,-1.50168 1.19811,-3.1114 1.96628,-4.58697 0.30195,-0.58002 0.72299,-1.09191 1.03372,-1.66728 0.11268,-0.20864 0.19849,-0.43072 0.3,-0.64501 0.0985,-0.20801 0.18743,-0.42118 0.3,-0.62194 0.40617,-0.72437 0.88728,-1.40434 1.35,-2.09397 0.43811,-0.65295 0.88381,-1.30122 1.35,-1.93442 0.53188,-0.72243 1.10833,-1.41107 1.65,-2.12618 0.55867,-0.73755 1.04619,-1.53103 1.65,-2.23209 3.98187,-4.6232 8.27838,-9.01072 12.94404,-12.94275 0.70012,-0.59003 1.49827,-1.05284 2.24317,-1.58523 2.17693,-1.55588 4.30883,-3.17496 6.50581,-4.70239 0.71006,-0.49366 1.41011,-1.00571 2.15698,-1.44168 1.18989,-0.69458 2.48835,-1.18839 3.68971,-1.86294 0.49975,-0.2806 0.9634,-0.62213 1.46072,-0.90702 1.16526,-0.66754 2.31814,-1.3776 3.56457,-1.87746 0.40209,-0.16125 0.84498,-0.20229 1.24975,-0.35668 1.90796,-0.72772 3.6181,-1.91073 5.5142,-2.66881 1.81329,-0.72497 3.73972,-1.13171 5.57942,-1.7868 1.04302,-0.3714 2.03903,-0.87092 3.09163,-1.21424 2.59266,-0.84562 5.27534,-1.3852 7.91397,-2.07411 1.18045,-0.3082 2.34113,-0.70714 3.54221,-0.92129 0.95168,-0.16969 1.92414,-0.1888 2.88603,-0.28503 2.02583,-0.20268 4.05551,-0.37129 6.07672,-0.61577 1.75593,-0.2124 3.49376,-0.57079 5.25446,-0.73919 2.6351,-0.25204 5.28402,-0.42285 7.93108,-0.40443 2.85444,0.0199 5.70541,0.26883 8.54553,0.55507 2.16832,0.21853 4.32709,0.53295 6.47751,0.8866 3.5935,0.59098 7.20195,1.15523 10.72877,2.06301 1.28756,0.33141 2.53203,0.81221 3.79372,1.2315 1.68662,0.56051 3.40961,1.02791 5.04802,1.71671 0.47093,0.19798 0.90209,0.48127 1.36766,0.69153 0.36052,0.16282 0.73169,0.30129 1.10198,0.44046 0.42249,0.15879 0.86092,0.27526 1.27706,0.45 0.94332,0.39612 1.84969,0.87642 2.75528,1.35252 0.74614,0.39227 1.47803,0.81156 2.20498,1.23835 0.91348,0.53631 1.81581,1.09185 2.7091,1.66115 0.88348,0.56305 1.75641,1.14283 2.62073,1.73488 0.80036,0.54824 1.59642,1.10343 2.37476,1.68251 0.45202,0.3363 0.91194,0.66496 1.33227,1.04013 2.71852,2.42645 5.21198,5.1001 7.65913,7.8 0.88845,0.98021 1.74829,1.9892 2.54576,3.04476 0.48343,0.63988 0.89554,1.33073 1.35378,1.98888 0.41041,0.58945 0.84481,1.16209 1.24986,1.75524 0.70358,1.0303 1.34235,2.10399 2.04963,3.13175 0.4386,0.63735 0.91713,1.24648 1.35987,1.88096 0.52852,0.7574 1.0675,1.50927 1.54734,2.29841 0.59205,0.97369 1.10213,1.995 1.63932,3 0.49275,0.92185 1.0811,1.80206 1.45266,2.77907 0.12825,0.33723 0.14076,0.71045 0.26271,1.05 0.31596,0.87972 0.77472,1.70232 1.20573,2.53176 0.38704,0.74481 0.93881,1.40851 1.2381,2.19271 0.16381,0.42922 0.19539,0.89781 0.29427,1.34646 0.0992,0.45017 0.17704,0.90572 0.3,1.35 0.0845,0.30514 0.19486,0.60256 0.3,0.9012 0.3256,0.92482 0.70392,1.83064 1.02426,2.7573 0.49077,1.41966 1.01262,2.83369 1.37466,4.2915 0.58762,2.36615 1.01487,4.77718 1.28673,7.2 0.76467,6.81465 1.27114,13.69957 0.95913,20.54989 -0.0491,1.07922 -0.28063,2.14256 -0.44478,3.21036 -0.1464,0.95232 -0.30961,1.90208 -0.48162,2.85011 -0.45097,2.48551 -0.84832,4.98452 -1.44291,7.43964 -0.41354,1.70754 -0.92753,3.39069 -1.47507,5.0601 -0.38156,1.16334 -0.83137,2.30322 -1.26015,3.45 -0.59307,1.58618 -1.12395,3.19901 -1.8153,4.74488 -0.21543,0.48171 -0.49178,0.93393 -0.72495,1.4073 -0.10381,0.21074 -0.21385,0.41917 -0.3,0.63772 -0.11975,0.30381 -0.1814,0.62834 -0.3,0.9326 -0.39561,1.01489 -0.84854,2.01031 -1.36863,2.9674 -0.35455,0.65245 -0.77855,1.26504 -1.18971,1.88338 -0.54029,0.81255 -1.09161,1.61871 -1.67748,2.39903 -0.2758,0.36734 -0.576,0.71572 -0.86418,1.07344 -1.74436,2.16529 -3.47164,4.34449 -5.23524,6.49415 -0.74363,0.90642 -1.46011,1.83741 -2.25416,2.7 -0.8469,0.92 -1.74025,1.79907 -2.67128,2.63384 -0.7328,0.65703 -1.53758,1.22944 -2.28932,1.86471 -1.5568,1.3156 -3.05371,2.70065 -4.59826,4.03061 -0.74912,0.64504 -1.48296,1.30967 -2.26434,1.91523 -0.48895,0.37893 -1.01766,0.70398 -1.5141,1.07304 -0.41112,0.30563 -0.80472,0.63421 -1.21221,0.94467 -0.88797,0.67653 -1.77468,1.35551 -2.68591,2.00037 -0.73132,0.51754 -1.47869,1.01238 -2.23101,1.49889 -0.93837,0.60682 -1.89158,1.19054 -2.84659,1.77082 -1.05803,0.64287 -2.11994,1.27975 -3.19417,1.89517 -0.64558,0.36985 -1.28666,0.74976 -1.95341,1.07991 -0.88117,0.43632 -1.807,0.7765 -2.7,1.18806 -1.48375,0.68381 -2.9318,1.44333 -4.41503,2.12826 -0.67326,0.3109 -1.34851,0.61853 -2.03497,0.8991 -1.73797,0.71034 -3.48169,1.41712 -5.27159,1.98402 -0.74331,0.23542 -1.52444,0.34073 -2.26435,0.58662 -0.33986,0.11294 -0.65818,0.28348 -0.99445,0.40668 -0.65433,0.23973 -1.31734,0.45771 -1.98826,0.64608 -2.02247,0.56784 -4.06547,1.07591 -6.13135,1.45665 -3.70999,0.68375 -7.45602,1.22918 -11.22006,1.48125 -3.50679,0.23484 -8.06176,-2.46221 -10.54391,0.0261 z M 217.55977,288.9 c 1.17715,-0.32174 2.46496,-0.75042 3.25054,-1.68426 1.64195,-1.95181 2.13498,-4.75135 2.30538,-7.29625 0.14176,-2.1172 -0.63893,-4.19844 -1.09159,-6.27154 -0.25791,-1.18117 -0.57692,-2.34922 -0.9241,-3.5073 -0.09,-0.30008 -0.21693,-0.58859 -0.3,-0.89065 -0.13044,-0.47429 -0.20092,-0.96313 -0.31031,-1.44271 -0.29031,-1.27279 -0.59253,-2.54308 -0.9182,-3.80729 -0.65281,-2.53414 -1.33634,-5.06099 -2.07586,-7.5712 -0.45225,-1.53509 -0.97664,-3.0481 -1.44352,-4.5788 -0.53375,-1.74994 -1.15281,-3.47914 -1.55211,-5.26456 -0.12621,-0.56435 -0.12157,-1.15429 -0.265,-1.71451 -0.6411,-2.50413 -1.40961,-5.01888 -2.6439,-7.29004 -0.28355,-0.52175 -0.52609,-1.19376 -1.07485,-1.42067 -0.6217,-0.25707 -1.3421,0.13346 -1.99881,0.27951 -2.30407,0.51243 -4.49468,1.44704 -6.76744,2.08412 -2.00717,0.56263 -4.0698,0.92224 -6.06251,1.5341 -1.65335,0.50766 -3.26306,1.14921 -4.87761,1.7693 -0.8563,0.32888 -1.75038,0.58506 -2.55,1.03453 -0.54648,0.30718 -1.03678,0.70999 -1.50988,1.1213 -1.77365,1.542 -3.39225,3.26111 -4.95,5.02094 -0.46901,0.52985 -0.99042,1.03647 -1.31966,1.66282 -0.9948,1.89251 -1.99912,3.99858 -1.87758,6.13316 0.18867,3.31336 2.07286,6.40906 3.97625,9.1277 2.2234,3.17571 5.47745,5.49983 8.42979,8.01227 0.60313,0.51326 1.2661,0.95185 1.8912,1.43811 0.99196,0.77163 1.95994,1.57373 2.95031,2.34741 0.84147,0.65736 1.66589,1.33889 2.54186,1.94951 0.42252,0.29453 0.87447,0.54452 1.30644,0.825 0.60775,0.39462 1.2273,0.77357 1.80814,1.20682 0.6272,0.46783 1.1302,1.10492 1.80559,1.5 0.23608,0.1381 0.52381,0.1668 0.76637,0.29318 0.55353,0.28841 1.04394,0.68517 1.55037,1.05 0.46725,0.3366 0.91303,0.70206 1.3719,1.05 0.199,0.15089 0.38562,0.32027 0.59902,0.45 0.29583,0.17983 0.6263,0.29536 0.93604,0.45 0.67758,0.3383 1.31783,0.7549 2.01734,1.04515 1.50559,0.62473 3.0421,1.27967 4.65912,1.48538 0.77737,0.0989 1.59136,0.0761 2.34727,-0.13053 z M 263.25,271.34544 c 0.78314,-0.88694 2.37075,-0.16771 3.52231,-0.43954 1.1741,-0.27715 2.29223,-0.75769 3.41255,-1.20511 1.17943,-0.47102 2.36976,-0.9352 3.47819,-1.55513 0.8575,-0.47959 1.64071,-1.08275 2.43362,-1.66293 0.63911,-0.46764 1.26996,-0.94848 1.87111,-1.464 0.41143,-0.35283 0.81381,-0.71838 1.1855,-1.11285 0.65242,-0.69242 1.22695,-1.45446 1.82626,-2.19333 0.60211,-0.74233 1.2132,-1.4786 1.77758,-2.25 0.4188,-0.57242 0.81906,-1.15926 1.19202,-1.76255 0.36207,-0.58567 0.73919,-1.1684 1.0134,-1.8 0.35505,-0.81778 0.49364,-1.71528 0.80681,-2.55 0.24911,-0.66399 0.56743,-1.2999 0.85082,-1.95 0.56038,-1.28553 1.26812,-2.51659 1.67983,-3.85715 0.14017,-0.45641 0.1243,-0.95122 0.26376,-1.40785 0.15749,-0.51566 0.42914,-0.98929 0.64123,-1.485 0.41533,-0.97076 0.8621,-1.92907 1.23624,-2.91644 0.31766,-0.83833 0.62471,-1.68356 0.85492,-2.55 0.75342,-2.8356 1.52484,-5.70565 1.71344,-8.63356 0.21905,-3.40066 0.57176,-7.03336 -0.68715,-10.2 -0.55064,-1.38507 -1.59728,-2.63411 -2.84465,-3.45 -0.45869,-0.30002 -1.03878,-0.37358 -1.58152,-0.45 -2.60817,-0.36725 -5.27294,-0.18534 -7.90166,-0.0203 -1.64176,0.10308 -3.27102,0.36535 -4.89461,0.62983 -2.75044,0.44804 -5.47727,1.03376 -8.20165,1.61976 -1.72262,0.37053 -3.43592,0.78359 -5.14835,1.19868 -3.19767,0.7751 -6.3719,1.64529 -9.57157,2.4121 -0.89755,0.2151 -1.79989,0.40976 -2.7,0.61389 -3.05909,0.69376 -6.12734,1.34806 -9.17843,2.0762 -2.02294,0.48277 -4.05824,0.92563 -6.05129,1.51986 -0.8802,0.26243 -2.01959,0.19305 -2.6037,0.90188 -1.19831,1.45419 -0.7824,3.71247 -0.79506,5.59673 -0.008,1.19348 0.23538,2.37843 0.45592,3.55139 0.23803,1.26598 0.60857,2.50354 0.93369,3.75 0.65876,2.52561 1.52511,4.99976 2.06044,7.55439 0.12485,0.59578 0.11174,1.21797 0.26722,1.8065 0.18619,0.70478 0.51727,1.36318 0.79022,2.03911 0.39712,0.98342 0.87552,1.93461 1.23278,2.9332 0.28117,0.7859 0.43626,1.61299 0.7143,2.4 0.54775,1.55045 1.18563,3.06999 1.87514,4.5628 0.34209,0.74064 0.68511,1.48596 1.12034,2.17599 0.46282,0.73379 0.97076,1.44948 1.575,2.07201 0.8388,0.86418 1.79354,1.62503 2.80988,2.27112 1.2078,0.76779 2.53719,1.33419 3.86097,1.87817 0.29437,0.12096 0.6025,0.20526 0.90415,0.3067 0.29973,0.10079 0.5928,0.225 0.9,0.3 0.66973,0.16351 1.35927,0.23324 2.04271,0.3237 1.31508,0.17407 2.63261,0.35087 3.95729,0.42123 2.29676,0.12199 5.27358,1.62687 6.9,6e-4 2e-5,-2e-5 -2e-5,-8e-5 0,-1e-4 z m -95.07268,-45.30947 c 1.65296,-0.0206 3.28805,-0.35493 4.92268,-0.60131 3.06416,-0.46185 6.11426,-1.02103 9.15,-1.64284 2.17375,-0.44525 4.33806,-0.94064 6.48675,-1.49434 2.75699,-0.71046 5.45745,-1.6289 8.21325,-2.34394 1.34199,-0.3482 2.70114,-0.62663 4.05,-0.94718 1.07932,-0.2565 2.16512,-0.48834 3.23518,-0.78107 0.467,-0.12775 0.95593,-0.20845 1.38882,-0.42529 0.60555,-0.30333 1.19892,-0.68558 1.63983,-1.19967 0.58242,-0.67909 1.11896,-1.49536 1.23617,-2.38229 0.0612,-0.46283 -0.21483,-0.90903 -0.3,-1.36804 -0.12124,-0.65341 -0.19004,-1.31558 -0.3,-1.97098 -0.17144,-1.02182 -0.28978,-2.05727 -0.56081,-3.05729 -0.22926,-0.8459 -0.67176,-1.62459 -0.89641,-2.47173 -0.77677,-2.92916 -0.81021,-6.01882 -1.54278,-8.95934 -0.27025,-1.08479 -0.67842,-2.13081 -1.04797,-3.18591 -0.48712,-1.39079 -0.86879,-2.8322 -1.54079,-4.14369 -1.7059,-3.32929 -3.59299,-6.68907 -6.25342,-9.31896 -1.32117,-1.306 -2.83695,-2.71196 -4.66332,-3.0518 -4.49671,-0.83673 -9.25837,0.97417 -13.41583,2.88102 -0.66649,0.30569 -1.19945,0.84798 -1.75316,1.32868 -2.38446,2.07004 -4.63577,4.3039 -6.72551,6.67111 -0.4438,0.50273 -0.83243,1.05198 -1.22866,1.593 -0.67645,0.92363 -1.35103,1.85093 -1.95985,2.82048 -0.53033,0.84456 -0.99813,1.72714 -1.47134,2.60498 -0.25615,0.47517 -0.47128,0.97232 -0.74015,1.44041 -0.0926,0.16117 -0.22353,0.30061 -0.3,0.47002 -0.14889,0.32983 -0.20162,0.6951 -0.3,1.04335 -0.24686,0.87386 -0.47096,1.75418 -0.72834,2.625 -0.73591,2.48987 -1.87786,4.87539 -2.33236,7.43165 -0.49072,2.75992 -0.57374,5.60206 -0.40197,8.4 0.1949,3.17472 -0.71202,7.23924 1.61852,9.40381 1.60026,1.4863 4.33763,0.65937 6.52147,0.63216 z m 60.10774,-14.72348 c 2.16582,1.79287 5.53682,-0.98812 8.28643,-1.57531 2.60604,-0.55653 5.17681,-1.26884 7.77851,-1.84529 1.61164,-0.35709 3.2285,-0.69168 4.85033,-0.99922 1.08855,-0.20641 2.19128,-0.33726 3.275,-0.56767 0.29963,-0.0637 0.60256,-0.12188 0.891,-0.225 0.73698,-0.26348 1.41242,-0.67501 2.12501,-0.99871 1.03025,-0.468 2.03414,-1.00912 3.10866,-1.36386 0.77919,-0.25724 1.63856,-0.24173 2.4,-0.54755 0.71418,-0.28684 1.32835,-0.7781 1.9809,-1.18615 0.51912,-0.32462 1.0265,-0.66764 1.53826,-1.00373 0.22739,-0.14933 0.44621,-0.31234 0.68084,-0.45 0.28171,-0.16528 0.61029,-0.25247 0.8704,-0.45 2.0117,-1.52767 3.95718,-3.32867 5.15985,-5.55 0.71135,-1.31386 1.01924,-2.85719 1.08056,-4.35 0.0832,-2.02462 -0.5218,-4.02539 -0.97667,-6 -0.35308,-1.53274 -0.77189,-3.0592 -1.35587,-4.51965 -0.49722,-1.24347 -1.17784,-2.40641 -1.81708,-3.58319 -0.44101,-0.81186 -0.86236,-1.63973 -1.39141,-2.39716 -1.04099,-1.49037 -2.29594,-2.81997 -3.48619,-4.19408 -0.93934,-1.08444 -1.79216,-2.26415 -2.88359,-3.19536 -0.82257,-0.70182 -1.81891,-1.16987 -2.72035,-1.76702 -0.54059,-0.35811 -1.06778,-0.73638 -1.61204,-1.08889 -0.5491,-0.35565 -1.07297,-0.76216 -1.66761,-1.03491 -0.42877,-0.19667 -0.88366,-0.35343 -1.35,-0.42453 -8.74892,-1.33386 -17.88992,-1.76831 -26.55,0.0554 -3.16876,0.6673 -6.72037,1.5025 -8.89789,3.89933 -0.68063,0.74918 -0.83784,1.87881 -0.94716,2.88508 -0.13804,1.27066 0.20478,2.54969 0.3858,3.81494 0.35291,2.46668 0.91612,4.89869 1.36354,7.35 0.5564,3.0484 0.92968,6.13439 1.64274,9.15 0.32063,1.35598 0.87652,2.65003 1.18227,4.00945 0.22212,0.98758 0.2926,2.00359 0.47095,3 0.39559,2.21013 0.785,4.42497 1.32836,6.60348 0.47095,1.88821 1.12619,3.72568 1.67139,5.5938 0.20085,0.6882 0.0851,1.55884 0.58934,2.0684 0.73258,0.74024 2.37259,0.0529 2.99572,0.88736 1e-5,10e-6 -10e-6,3e-5 0,4e-5 z"
     id="path3397"
     inkscape:connector-curvature="0"
     sodipodi:nodetypes="caccaaaacccccaaaaacccaccaccaaaaccaccaaaaccaaacccccaccaaaaaaaacccaaccaaaaaaaccaacccaaaaaaaaccaaaaaccaaaaaaccaaaaaaaaaaccaaaaaaaccaaaaaaaaacccaaaaaccaaaaaccaaaaaaaaaccaaaaccaaaaaaaaccaaaaaaaaaaaaaaaaaaaaaaaaccaaaaaaaaaaccaaaaaaaaaaaaaaaaaaaaaaaaaaaaaaaaaaaaaaaaaaaaaaaaaaaaaaaaaaaaaaaaaaaaaaaaaaaaaaaaaaaaaaaaaaaaaaaaaaaaaaaaaaaaaaaaaaaaaaaaaaaaaaaaaaaaaaaaaaaaaaaaaaaaaaaaaaaaaaaaaaaaaaaaaaaaaaaaaaaaaaaaaaaaaaaaaaaaaaaaaaaaaaaaaaaaaaaaaaaaaaaaaaaaaaaaaaaaaaaaaaaaaaaaaaaaaaaaaaaaaaaaaaaaaaaaaaaaaaaaaaaaaaaaaa" />
</svg>
