<?xml version="1.0" encoding="UTF-8" standalone="no"?>
<!-- Created with Inkscape (http://www.inkscape.org/) -->

<svg
   xmlns:dc="http://purl.org/dc/elements/1.1/"
   xmlns:cc="http://creativecommons.org/ns#"
   xmlns:rdf="http://www.w3.org/1999/02/22-rdf-syntax-ns#"
   xmlns:svg="http://www.w3.org/2000/svg"
   xmlns="http://www.w3.org/2000/svg"
   xmlns:sodipodi="http://sodipodi.sourceforge.net/DTD/sodipodi-0.dtd"
   xmlns:inkscape="http://www.inkscape.org/namespaces/inkscape"
   id="svg3336"
   version="1.1"
   inkscape:version="0.91 r13725"
   width="450"
   height="450"
   viewBox="0 0 450 450"
   sodipodi:docname="Daily-Life.svg">
  <metadata
     id="metadata3342">
    <rdf:RDF>
      <cc:Work
         rdf:about="">
        <dc:format>image/svg+xml</dc:format>
        <dc:type
           rdf:resource="http://purl.org/dc/dcmitype/StillImage" />
        <dc:title></dc:title>
      </cc:Work>
    </rdf:RDF>
  </metadata>
  <defs
     id="defs3340" />
  <sodipodi:namedview
     pagecolor="#ffffff"
     bordercolor="#666666"
     borderopacity="1"
     objecttolerance="10"
     gridtolerance="10"
     guidetolerance="10"
     inkscape:pageopacity="0"
     inkscape:pageshadow="2"
     inkscape:window-width="1920"
     inkscape:window-height="1020"
     id="namedview3338"
     showgrid="false"
     inkscape:zoom="1.9288889"
     inkscape:cx="228.62903"
     inkscape:cy="283.58295"
     inkscape:window-x="0"
     inkscape:window-y="0"
     inkscape:window-maximized="1"
     inkscape:current-layer="svg3336" />
  <path
     style="fill:#000000"
     d="m 94.982457,314.65129 c -0.31215,-0.23631 -0.690603,-0.47067 -0.841008,-0.5208 -0.150408,-0.0501 -0.568695,-1.10127 -0.929529,-2.33583 -0.648501,-2.2188 -0.658509,-2.59026 -0.868764,-32.24466 -0.116988,-16.5 -0.295926,-31.46048 -0.397638,-33.24552 -0.120951,-2.12266 -0.07435,-3.37876 0.134697,-3.63064 0.202743,-0.24429 0.250572,-1.2021 0.130791,-2.61913 -0.148239,-1.75365 -0.08396,-2.43682 0.298977,-3.17732 0.381162,-0.73709 0.406068,-0.99626 0.113916,-1.18537 -0.205644,-0.13311 -3.208899,-0.25564 -6.673899,-0.27229 -11.305533,-0.0543 -23.299401,-0.40513 -24.411387,-0.714 -0.598737,-0.16631 -1.468248,-0.30314 -1.932243,-0.30406 -1.36926,-0.003 -3.862773,-0.9207 -5.217267,-1.92074 -1.75164,-1.29325 -2.095908,-2.2197 -1.615287,-4.34685 C 66.416338,117.47461 163.46483,70.259038 220.00783,68.603386 332.76475,69.938456 388.94564,165.39422 395.39166,222.05999 l -0.008,8.29001 -0.89166,1.17844 c -0.49041,0.64815 -0.89166,1.06041 -0.89166,0.91615 0,-0.14426 -0.43875,0.15408 -0.975,0.66297 -2.24067,2.12638 -1.32882,2.02464 -19.18524,2.1407 -13.54614,0.088 -16.16718,0.17329 -16.4679,0.53564 -0.49614,0.59782 -0.39372,40.42909 0.10599,41.2293 0.25149,0.40268 0.24531,2.33789 -0.024,7.53927 -0.19935,3.84864 -0.37395,9.09003 -0.38799,11.64753 -0.0258,4.70406 -0.37455,11.09745 -0.7317,13.41351 -0.10716,0.69492 -0.38364,1.4202 -0.61443,1.61172 -0.23076,0.19155 -0.41958,0.52749 -0.41958,0.74661 0,0.21909 -0.17892,0.50631 -0.39762,0.63825 -0.2187,0.13194 -0.47685,0.45636 -0.57369,0.7209 -0.0969,0.26457 -0.73209,0.77082 -1.41162,1.125 l -1.23555,0.64401 -53.16576,-0.0108 -53.16576,-0.0108 -0.9,-0.73521 -0.9,-0.73521 -0.17083,-33.37902 c -0.0941,-18.35841 -0.1953,-33.41271 -0.22509,-33.45396 -0.0298,-0.0412 -0.25667,-0.075 -0.50417,-0.075 -0.25,0 -0.45,-0.26667 -0.45,-0.6 0,-0.59176 -0.2,-0.6 -14.56715,-0.6 -9.70748,0 -15.00975,-0.11145 -15.89385,-0.33407 -1.4955,-0.37657 -2.46509,-0.21852 -3.40647,0.55527 l -0.64334,0.5288 -0.14073,30.45 c -0.13963,30.21309 -0.24924,35.24145 -0.7753,35.56659 -0.15024,0.0928 -0.27316,0.37299 -0.27316,0.62253 0,0.51555 -0.39346,0.94053 -1.56445,1.68978 -0.76577,0.48996 -4.04679,0.52053 -54.9,0.51156 -46.4623,-0.008 -54.165545,-0.0701 -54.653093,-0.43917 z"
     id="path3346"
     inkscape:connector-curvature="0"
     sodipodi:nodetypes="ccssssscssscsccccsssssccsscsscccccccscssssscscssscc" />
</svg>
