<?xml version="1.0" encoding="UTF-8" standalone="no"?>
<!-- Created with Inkscape (http://www.inkscape.org/) -->

<svg
   xmlns:dc="http://purl.org/dc/elements/1.1/"
   xmlns:cc="http://creativecommons.org/ns#"
   xmlns:rdf="http://www.w3.org/1999/02/22-rdf-syntax-ns#"
   xmlns:svg="http://www.w3.org/2000/svg"
   xmlns="http://www.w3.org/2000/svg"
   xmlns:sodipodi="http://sodipodi.sourceforge.net/DTD/sodipodi-0.dtd"
   xmlns:inkscape="http://www.inkscape.org/namespaces/inkscape"
   id="svg3485"
   version="1.1"
   inkscape:version="0.91 r13725"
   width="450"
   height="450"
   viewBox="0 0 450 450"
   sodipodi:docname="Landscape.svg">
  <metadata
     id="metadata3491">
    <rdf:RDF>
      <cc:Work
         rdf:about="">
        <dc:format>image/svg+xml</dc:format>
        <dc:type
           rdf:resource="http://purl.org/dc/dcmitype/StillImage" />
        <dc:title></dc:title>
      </cc:Work>
    </rdf:RDF>
  </metadata>
  <defs
     id="defs3489" />
  <sodipodi:namedview
     pagecolor="#ffffff"
     bordercolor="#666666"
     borderopacity="1"
     objecttolerance="10"
     gridtolerance="10"
     guidetolerance="10"
     inkscape:pageopacity="0"
     inkscape:pageshadow="2"
     inkscape:window-width="1920"
     inkscape:window-height="1020"
     id="namedview3487"
     showgrid="false"
     inkscape:zoom="0.52444444"
     inkscape:cx="225"
     inkscape:cy="225"
     inkscape:window-x="0"
     inkscape:window-y="0"
     inkscape:window-maximized="1"
     inkscape:current-layer="svg3485" />
  <path
     style="fill:#000000"
     d="m 190.8,404.47488 c 0,-0.61146 0.63363,-3.64371 1.30078,-6.22488 0.65819,-2.54649 1.38996,-5.60847 2.00748,-8.4 0.66612,-3.01125 1.37086,-6.03342 1.99377,-8.55 0.26547,-1.0725 0.60444,-2.6925 0.75328,-3.6 0.14884,-0.9075 0.52378,-2.73 0.83319,-4.05 0.30942,-1.32 0.65241,-3.1425 0.7622,-4.05 0.10979,-0.9075 0.38162,-2.3925 0.60407,-3.3 0.22245,-0.9075 0.55813,-3 0.74594,-4.65 0.18782,-1.65 0.56825,-4.0125 0.84539,-5.25 0.44484,-1.9863 0.49794,-4.37124 0.4531,-20.34885 -0.0306,-10.88412 -0.17185,-18.65739 -0.35448,-19.5 -0.16702,-0.77064 -0.46217,-5.11365 -0.6559,-9.65115 -0.19373,-4.5375 -0.44491,-8.64388 -0.55819,-9.1253 -0.28265,-1.20119 -0.37305,-1.2355 -6.03063,-2.28864 -2.15232,-0.40065 -2.66661,-0.60932 -8.1,-3.28653 -3.82867,-1.88652 -4.8641,-2.43738 -6.45,-3.43147 -0.495,-0.31028 -1.3725,-0.85954 -1.95,-1.22058 -0.5775,-0.36104 -1.83722,-1.18317 -2.79938,-1.82696 -0.96215,-0.64378 -2.19002,-1.44052 -2.7286,-1.77052 -0.53857,-0.33 -1.46359,-0.97125 -2.0556,-1.425 -0.59201,-0.45375 -1.31277,-0.825 -1.60168,-0.825 -0.47526,0 -2.4022,0.77773 -3.81483,1.53971 -0.84987,0.45842 -4.61847,1.7273 -6.94991,2.34003 -3.69158,0.97019 -5.37345,1.23881 -9.48179,1.51438 -7.28283,0.4885 -15.59113,-0.53803 -20.86938,-2.57849 -1.01814,-0.3936 -2.00981,-0.71563 -2.20371,-0.71563 -0.1939,0 -0.71088,-0.18899 -1.14883,-0.41999 -0.43796,-0.23099 -1.74129,-0.87224 -2.89629,-1.425 -4.79689,-2.29568 -9.46052,-5.67324 -13.81404,-10.00458 -4.3336,-4.31154 -7.841298,-9.02397 -9.865041,-13.25324 C 94.790787,254.55907 94.2,253.19402 94.2,252.75695 c 0,-0.26447 -0.27,-1.0101 -0.6,-1.65695 -0.33,-0.64685 -0.6,-1.42485 -0.6,-1.72889 0,-0.30404 -0.342591,-1.82817 -0.76131,-3.38695 -0.631221,-2.34987 -0.792921,-3.78253 -0.94629,-8.38416 l -0.18498,-5.55 -3.353523,-3.32678 C 82.751739,223.76095 79.6221,219.44859 76.778409,213.6 c -2.303553,-4.7377 -2.606736,-5.60806 -4.075575,-11.7 -1.032678,-4.28297 -1.04919,-4.45401 -1.071672,-11.1 -0.01998,-5.90653 0.05492,-7.0499 0.599367,-9.15 0.34221,-1.32 0.718077,-3.075 0.835257,-3.9 0.117183,-0.825 0.454047,-1.97878 0.74859,-2.56395 0.294543,-0.58518 0.633051,-1.59768 0.752238,-2.25 0.11919,-0.65233 0.45333,-1.65855 0.742539,-2.23605 0.289206,-0.5775 0.974691,-1.995 1.523301,-3.15 1.44396,-3.04 3.396849,-6.09772 6.010743,-9.41125 2.431152,-3.08187 7.361682,-7.9891 9.20364,-9.16013 0.606738,-0.38574 1.709043,-1.24186 2.449563,-1.90249 l 1.3464,-1.20115 0.05774,-4.61249 c 0.03263,-2.60663 0.250749,-5.59096 0.501561,-6.86249 0.244101,-1.2375 0.530079,-2.8575 0.635505,-3.6 0.2463,-1.73464 1.54305,-6.09219 2.286318,-7.68286 0.316842,-0.67807 0.576075,-1.37451 0.576075,-1.54765 0,-0.44168 3.230901,-6.69588 3.762561,-7.28337 0.24059,-0.26585 0.43744,-0.57074 0.43744,-0.67754 0,-0.66691 4.26812,-5.97631 7.05,-8.76997 8.81566,-8.852962 19.10388,-13.900486 31.2,-15.307078 5.51406,-0.641202 7.78953,-0.729513 9.54146,-0.370302 2.09642,0.429837 2.84475,0.143625 3.52136,-1.346817 0.3157,-0.695427 0.58289,-1.669413 0.59376,-2.164413 0.0109,-0.495 0.22502,-1.44 0.4759,-2.1 0.25088,-0.66 0.63638,-1.836105 0.85666,-2.613567 0.73488,-2.593641 3.82704,-8.88063 6.01831,-12.236433 4.08347,-6.253587 10.80208,-12.727605 16.49255,-15.892116 0.99,-0.550548 2.0025,-1.169436 2.25,-1.375305 0.64782,-0.538854 7.22903,-3.23781 10.05,-4.121508 1.32,-0.413502 3.45863,-0.921366 4.75251,-1.128588 1.39812,-0.223917 2.41522,-0.540201 2.50709,-0.779625 C 199.53339,45.080268 201.09041,45 207.22402,45 c 6.52555,0 7.70948,0.0679 7.99509,0.45849 0.2049,0.280212 1.55926,0.681858 3.48307,1.032927 1.7313,0.315936 4.22782,0.996402 5.54782,1.512144 1.32,0.515739 2.7375,1.049658 3.15,1.186485 1.59933,0.530496 7.17118,3.572736 9.6,5.241615 2.38478,1.638621 3.66372,2.711673 7.3187,6.140511 1.73447,1.627155 5.33074,5.858769 5.88766,6.927828 0.67562,1.296906 2.67563,3.869253 3.24548,4.174227 0.57529,0.307884 0.51476,0.330924 3.68147,-1.401114 4.62309,-2.528601 10.7092,-4.351539 17.36669,-5.201751 3.69907,-0.472398 13.09062,-0.19542 15.9,0.468927 3.47242,0.821136 8.40408,2.28714 9.9,2.942907 12.91254,5.66049 21.51534,13.805187 27.59688,26.127288 2.02887,4.110843 2.83839,4.979778 4.65312,4.994646 0.97236,0.008 3.09771,0.45374 6.927,1.45289 2.28063,0.59506 3.71202,1.1264 6.573,2.43994 0.66,0.30301 1.5375,0.7035 1.95,0.88995 2.3928,1.0816 7.51377,4.43497 9.96123,6.52292 0.92781,0.79154 2.23716,1.88433 2.90964,2.42842 1.34154,1.08538 5.28141,5.83066 7.35144,8.85427 2.50284,3.65577 4.90359,8.40676 5.73306,11.34557 0.21564,0.764 0.58887,1.7765 0.82941,2.25 0.24051,0.4735 0.53229,1.51342 0.64839,2.31092 0.1161,0.79751 0.39903,1.98269 0.62874,2.63375 0.95058,2.69421 1.33689,11.82733 0.72819,17.21624 -0.3354,2.96962 -1.62762,8.5371 -2.27691,9.8101 -0.84459,1.65591 -0.54906,2.99401 1.12125,5.07666 3.12834,3.90066 5.81946,8.55852 7.51848,13.01324 0.50346,1.32 1.17,3.03253 1.48122,3.80561 0.31122,0.77309 0.57027,1.78559 0.57564,2.25 0.005,0.46442 0.26889,1.58689 0.58557,2.49439 0.37422,1.07248 0.70608,3.34999 0.94812,6.5069 0.57861,7.54644 -0.12609,13.73033 -2.32707,20.42075 -0.39402,1.19772 -0.7164,2.30585 -0.7164,2.46252 0,0.49998 -3.05301,6.68013 -4.41618,8.93961 -3.82446,6.33902 -9.14271,11.9168 -15.23382,15.97715 -4.31979,2.87959 -5.70864,3.6625 -9.07485,5.11565 -0.86616,0.37391 -1.78257,0.90936 -2.03643,1.1899 -0.25389,0.28053 -0.66366,1.57373 -0.91059,2.87379 -0.83274,4.3842 -2.01234,8.72608 -2.84808,10.48345 -0.31902,0.67084 -0.58005,1.36663 -0.58005,1.5462 0,0.3728 -2.42895,5.10618 -3.42993,6.68408 -1.93176,3.04506 -2.63742,4.01659 -5.06301,6.97061 -5.10963,6.22282 -13.21461,12.00982 -20.90706,14.92775 -3.21489,1.21949 -7.10571,2.34371 -8.85,2.55716 -0.825,0.10095 -2.445,0.38751 -3.6,0.63684 -3.32883,0.71853 -10.61243,0.62949 -14.8527,-0.18156 -8.29931,-1.5874 -15.16296,-4.1216 -19.46383,-7.18642 -1.99214,-1.4196 -2.04191,-1.38724 -9.34339,6.0751 -3.6591,3.73971 -6.93952,7.16385 -7.28983,7.6092 -0.35031,0.44535 -2.07552,2.24451 -3.83381,3.99816 -1.75828,1.75365 -3.39842,3.58326 -3.64473,4.06581 -0.24632,0.48255 -0.60766,2.09235 -0.80298,3.57735 -0.19531,1.485 -0.5436,3.51 -0.77396,4.5 -0.23036,0.99 -0.5656,3.285 -0.74497,5.1 -0.17937,1.815 -0.52127,4.38 -0.75979,5.7 -1.39394,7.71429 -1.38563,22.51494 0.016,28.5 0.23185,0.99 0.62544,3.32079 0.87464,5.17956 0.24921,1.85874 0.57629,3.61374 0.72686,3.9 0.15056,0.28623 0.42866,1.69731 0.618,3.13572 0.18933,1.43841 0.52232,3.12591 0.73996,3.75 0.21764,0.62409 0.48604,1.87722 0.59643,2.78472 0.11039,0.9075 0.45545,2.73 0.76681,4.05 0.31135,1.32 0.91858,4.02 1.34938,6 0.43081,1.98 0.99534,4.4775 1.2545,5.55 0.38407,1.5894 0.95071,4.09185 1.32465,5.85 0.0351,0.165 0.0478,0.53625 0.0283,0.825 -0.0336,0.49641 -1.74191,0.525 -31.38552,0.525 -29.6597,0 -31.35,-0.0282 -31.35,-0.52512 z m 52.85458,-108.27883 c 0.55729,-0.32881 1.36803,-0.68688 1.80166,-0.79571 2.74428,-0.68877 14.94376,-9.58791 14.94376,-10.90101 0,-0.37481 -0.57593,-1.32777 -1.28486,-2.12598 -1.28631,-1.44832 -3.8136,-5.08849 -4.7269,-6.80837 -0.26723,-0.50324 -0.85419,-1.58998 -1.30436,-2.41498 -1.67935,-3.07768 -3.60446,-8.32818 -4.24628,-11.58122 -0.9985,-5.06081 -1.22536,-5.28634 -3.94327,-3.92009 -0.95938,0.48227 -2.18144,0.97147 -2.71567,1.08711 -0.53424,0.11565 -1.21721,0.52282 -1.5177,0.90484 -0.6954,0.88406 -1.8354,4.94652 -2.94911,10.50936 -0.23123,1.155 -0.6118,2.7075 -0.8457,3.45 -0.23389,0.7425 -0.51566,2.0925 -0.62615,3 -0.11048,0.9075 -0.45718,2.91361 -0.77044,4.45802 -0.4093,2.01791 -0.56956,4.07422 -0.56956,7.30801 0,4.46179 0.008,4.51487 0.93462,6.25352 0.60166,1.12881 1.21621,1.86323 1.725,2.06145 1.27291,0.49591 4.92504,0.20532 6.09496,-0.48495 z m -23.39444,-10.67259 c 1.04608,-0.63461 3.23986,-3.32155 3.23986,-3.96819 0,-0.16316 0.32123,-0.9736 0.71385,-1.80097 1.57626,-3.32168 3.5959,-11.52508 3.62014,-14.7043 l 0.016,-2.1 -6.6,-0.17541 c -4.52392,-0.12024 -7.1662,-0.32356 -8.4,-0.64637 -0.99,-0.25903 -2.44686,-0.56046 -3.23747,-0.66984 -0.79061,-0.10939 -2.00561,-0.45681 -2.7,-0.77205 -0.69439,-0.31523 -1.58165,-0.57612 -1.97168,-0.57974 -0.39004,-0.004 -1.20004,-0.2648 -1.8,-0.58038 -1.7954,-0.94439 -3.80794,-1.82621 -4.16787,-1.82621 -0.18567,0 -0.41587,0.12668 -0.51156,0.28151 -0.16343,0.26442 2.44689,5.87874 3.49564,7.51849 0.72863,1.13924 2.5894,4.52176 3.11666,5.66546 0.25747,0.5585 0.70986,1.3685 1.00531,1.8 0.29546,0.4315 1.58727,2.38171 2.87071,4.3338 1.28344,1.9521 3.29354,4.53707 4.46689,5.74438 3.04911,3.13735 4.74603,3.75225 6.84349,2.47982 z m -19.74069,-5.10849 c 0.26583,-0.43027 0.0884,-1.01764 -0.90612,-3 -1.87241,-3.73215 -2.81333,-5.74654 -2.81333,-6.02296 0,-0.13716 -0.25229,-0.60773 -0.56064,-1.0457 -0.30835,-0.43797 -0.66182,-1.13381 -0.78548,-1.54631 -0.12367,-0.4125 -0.39541,-0.9525 -0.60388,-1.2 -0.20847,-0.2475 -0.47871,-0.7875 -0.60053,-1.2 -0.30879,-1.04553 -1.92365,-4.42667 -2.75402,-5.76626 -0.87838,-1.41703 -1.30936,-1.26111 -2.54717,0.92156 -0.5286,0.93209 -1.23945,2.09764 -1.57968,2.59011 -1.05341,1.5248 -5.15435,6.57364 -5.8288,7.17609 -0.63904,0.57081 -0.82655,1.54989 -0.41021,2.1419 0.34066,0.4844 5.79034,3.64643 7.76037,4.50276 0.96802,0.42077 2.16504,0.96015 2.66004,1.19861 1.5129,0.72881 6.23023,1.8877 7.46945,1.83498 0.7589,-0.0323 1.28549,-0.23757 1.5,-0.58478 z"
     id="path3495"
     inkscape:connector-curvature="0" />
</svg>
