<?xml version="1.0" encoding="UTF-8" standalone="no"?>
<!-- Created with Inkscape (http://www.inkscape.org/) -->

<svg
   xmlns:dc="http://purl.org/dc/elements/1.1/"
   xmlns:cc="http://creativecommons.org/ns#"
   xmlns:rdf="http://www.w3.org/1999/02/22-rdf-syntax-ns#"
   xmlns:svg="http://www.w3.org/2000/svg"
   xmlns="http://www.w3.org/2000/svg"
   xmlns:sodipodi="http://sodipodi.sourceforge.net/DTD/sodipodi-0.dtd"
   xmlns:inkscape="http://www.inkscape.org/namespaces/inkscape"
   id="svg3567"
   version="1.1"
   inkscape:version="0.91 r13725"
   width="450"
   height="450"
   viewBox="0 0 450 450"
   sodipodi:docname="Protection.svg">
  <metadata
     id="metadata3573">
    <rdf:RDF>
      <cc:Work
         rdf:about="">
        <dc:format>image/svg+xml</dc:format>
        <dc:type
           rdf:resource="http://purl.org/dc/dcmitype/StillImage" />
        <dc:title />
      </cc:Work>
    </rdf:RDF>
  </metadata>
  <defs
     id="defs3571" />
  <sodipodi:namedview
     pagecolor="#ffffff"
     bordercolor="#666666"
     borderopacity="1"
     objecttolerance="10"
     gridtolerance="10"
     guidetolerance="10"
     inkscape:pageopacity="0"
     inkscape:pageshadow="2"
     inkscape:window-width="1920"
     inkscape:window-height="1020"
     id="namedview3569"
     showgrid="false"
     inkscape:zoom="1.4833529"
     inkscape:cx="62.236544"
     inkscape:cy="275.67741"
     inkscape:window-x="0"
     inkscape:window-y="0"
     inkscape:window-maximized="1"
     inkscape:current-layer="svg3567" />
  <path
     style="fill:#000000"
     d="m 147.53906,64.203125 c -2.79984,2.01657 -3.53273,2.732487 -4.2539,4.154297 -0.38826,0.76545 -1.01311,1.977156 -1.38868,2.691406 -1.36746,2.6005 -1.13344,8.785552 0.46094,12.201172 0.38508,0.825 0.98987,2.376719 1.34375,3.449219 0.35385,1.0725 1.16692,2.76 1.80664,3.75 0.63969,0.99 1.37157,2.301462 1.62696,2.914062 0.25536,0.61261 0.84979,1.55722 1.32226,2.09961 0.47247,0.5424 1.09433,1.444656 1.38086,2.003906 1.02015,1.99128 5.02184,6.548803 9.54297,10.869143 2.5242,2.41209 5.05676,5.02105 5.62891,5.79883 0.57214,0.77777 1.60082,2.0674 2.28515,2.86523 1.38094,1.60998 2.50586,4.25419 2.50586,5.89063 0,1.35603 -1.10092,2.43462 -3.85742,3.7832 l -1.99414,0.97656 -7.04883,-0.0176 c -5.55973,-0.0141 -7.4301,-0.12175 -8.84961,-0.50976 -2.289,-0.62569 -7.65934,-1.55465 -13.29883,-2.29883 -2.42112,-0.31949 -5.83351,-0.9827 -7.58203,-1.47461 -1.74855,-0.49192 -4.24488,-1.05247 -5.54883,-1.24414 -1.30398,-0.19167 -4.49701,-0.87891 -7.0957,-1.52735 -4.27317,-1.06626 -5.09478,-1.17773 -8.58789,-1.17773 -26.054242,7.84041 -27.634548,29.38613 -19.722656,45.23047 0.39471,0.78025 0.987912,2.29664 1.320312,3.36914 0.33237,1.0725 1.10642,2.82789 1.71875,3.90039 0.6123,1.0725 1.289466,2.43913 1.503906,3.03711 0.21444,0.59798 0.858611,1.74431 1.431641,2.54883 0.57306,0.80452 1.450532,2.28138 1.951172,3.28125 0.50064,0.99987 1.134363,2.00515 1.408203,2.23242 0.27384,0.22726 0.840756,1.08918 1.259766,1.91602 0.41898,0.82684 1.281095,2.1903 1.916015,3.03125 0.63492,0.84096 1.353971,2.00663 1.597661,2.58984 0.24369,0.5832 0.64655,1.22975 0.89453,1.43555 0.24798,0.2058 0.88435,1.07221 1.41406,1.92578 0.52974,0.85357 1.49148,2.38698 2.13867,3.4082 0.66582,1.05064 1.48366,2.9388 1.88281,4.34961 0.38796,1.37128 1.00096,3.43875 1.36328,4.59375 0.62159,1.98131 0.6714,2.8715 0.87891,15.75 0.24033,14.91687 0.40411,16.56784 2.10547,21.30078 0.50415,1.4025 1.2456,3.56304 1.64844,4.80274 0.40281,1.23971 1.0539,2.68823 1.44531,3.21875 0.39138,0.53052 1.08869,1.87881 1.55078,2.99609 0.46209,1.11727 1.20614,2.50453 1.65235,3.08203 0.44615,0.5775 1.04962,1.52211 1.34179,2.09961 0.2922,0.5775 1.03241,1.72578 1.64453,2.55078 0.61212,0.825 1.46807,2.10828 1.90235,2.85352 0.43428,0.74525 1.09841,1.68476 1.47656,2.08789 0.7683,0.81908 2.80556,3.66672 4.0625,5.67773 0.45375,0.72598 1.2561,1.87426 1.7832,2.55078 0.83646,1.07354 6.39258,11.79328 6.39258,12.33399 0,0.11131 0.2538,0.56007 0.56445,0.99804 0.31065,0.43797 0.8658,1.87727 1.23438,3.19727 0.36858,1.32 0.99417,3.03959 1.38867,3.82031 0.3945,0.78072 1.06234,2.66994 1.48438,4.19922 0.42201,1.52927 1.17146,3.8421 1.66601,5.13867 0.49458,1.29657 1.2285,4.07551 1.63086,6.17578 0.40236,2.10024 1.1302,5.05706 1.61719,6.57227 0.48699,1.51518 1.1168,3.93455 1.40039,5.375 0.28359,1.44048 0.91201,3.49586 1.39648,4.56836 0.48447,1.0725 1.24437,2.82789 1.6875,3.90039 0.90179,2.18265 2.87586,5.2755 5.03907,7.89453 2.61337,3.16407 5.61838,6.43918 7.08984,7.72852 3.03211,2.65683 8.44652,9.65615 9.95898,12.875 0.42616,0.90696 1.16204,2.25696 1.63672,3 0.47467,0.74301 1.14284,2.1021 1.48438,3.01953 0.34154,0.91746 1.09238,2.45039 1.66797,3.40625 0.57559,0.95586 1.17853,2.23357 1.34179,2.83984 0.16325,0.6063 0.85096,2.02112 1.52735,3.14258 0.67638,1.12143 1.37308,2.46628 1.54882,2.99023 0.17575,0.52395 0.89282,1.8318 1.5918,2.9043 0.69898,1.0725 1.54693,2.49888 1.88477,3.16992 0.33784,0.67104 0.84788,1.41198 1.13281,1.64844 0.28492,0.23646 0.87192,1 1.30469,1.69531 0.92775,1.49055 7.24921,7.45172 9.63281,9.08399 0.91414,0.62601 1.85026,1.36568 2.08008,1.64258 0.22981,0.27693 0.90784,0.7525 1.50781,1.05859 0.59997,0.30609 1.76651,1.09179 2.5918,1.74414 0.82527,0.65235 1.9635,1.41851 2.52929,1.70313 0.56579,0.2846 1.7043,0.97293 2.5293,1.53124 0.825,0.55836 2.27959,1.28985 3.23438,1.625 13.35338,5.80688 11.41013,10.04772 24.81445,1.21485 0.4125,-0.27666 1.72249,-0.87456 2.91016,-1.33008 1.18768,-0.45552 2.64945,-1.21999 3.25,-1.69727 0.60055,-0.47723 1.38541,-0.9557 1.74218,-1.06445 0.35677,-0.10872 1.59305,-0.85742 2.74805,-1.66406 1.155,-0.80664 2.72853,-1.90455 3.49609,-2.43945 5.38374,-3.75183 10.40175,-8.31712 13.15039,-11.96485 0.99213,-1.31664 1.80274,-2.5037 1.80274,-2.63672 0,-0.13302 0.73445,-1.3444 1.63086,-2.6914 0.8964,-1.34697 1.78609,-2.92094 1.97656,-3.49805 0.19047,-0.57711 0.79437,-1.71386 1.3418,-2.52734 0.54743,-0.81348 1.28563,-2.35319 1.64062,-3.41992 0.355,-1.06678 0.81948,-2.08436 1.03321,-2.26172 0.21372,-0.17739 0.81777,-1.30171 1.34179,-2.49805 0.52402,-1.19637 1.29079,-2.78289 1.70313,-3.52539 0.41234,-0.7425 1.23652,-2.36211 1.83203,-3.59961 0.59551,-1.2375 1.40865,-2.63947 1.80664,-3.11523 0.39801,-0.4758 0.97658,-1.35252 1.28711,-1.94922 0.60746,-1.16727 7.36465,-9.03516 7.75976,-9.03516 0.13105,0 1.75866,-1.67672 3.61524,-3.72656 3.09462,-3.41679 7.83203,-9.95076 7.83203,-10.80078 0,-0.19557 0.32639,-1.02174 0.72461,-1.83789 1.3044,-2.67333 1.93209,-4.44805 2.43945,-6.88477 0.27484,-1.32 0.88627,-3.54672 1.35742,-4.94922 0.47116,-1.4025 1.19141,-4.37406 1.60157,-6.60156 0.41015,-2.2275 1.09996,-4.9275 1.5332,-6 0.43324,-1.0725 1.10791,-3.18186 1.49805,-4.68945 0.39015,-1.50761 1.1179,-3.643 1.61718,-4.74415 0.49927,-1.10113 1.19758,-3.03983 1.55274,-4.30859 0.35515,-1.26875 0.87452,-2.64414 1.1543,-3.05664 0.27978,-0.4125 0.87602,-1.62867 1.32421,-2.70117 0.4482,-1.0725 1.04175,-2.35461 1.32032,-2.84961 0.27857,-0.495 1.18721,-2.20172 2.01757,-3.79297 0.83038,-1.59125 2.42844,-4.22336 3.55079,-5.84961 1.12235,-1.62625 2.36142,-3.43031 2.7539,-4.00781 0.39247,-0.5775 1.20709,-1.65594 1.81055,-2.39844 0.60346,-0.7425 1.5232,-2.0484 2.04492,-2.90039 0.89708,-1.46495 2.20687,-3.45374 4.16211,-6.32031 0.47606,-0.69795 1.32979,-2.28577 1.89649,-3.5293 0.5667,-1.24352 1.30047,-2.62906 1.63085,-3.08008 0.53694,-0.73299 1.46504,-3.11774 3.34961,-8.60351 1.39147,-4.05039 1.512,-5.4064 1.75,-19.66797 0.22291,-13.35784 0.24424,-13.711 0.99805,-16.5 0.42367,-1.5675 1.05154,-3.89852 1.39649,-5.18164 0.37484,-1.39439 1.0339,-2.90305 1.63671,-3.75 0.55472,-0.77938 1.34769,-2.09297 1.76172,-2.91797 0.41404,-0.825 1.0523,-1.76961 1.41797,-2.09961 0.36567,-0.33 1.00199,-1.26751 1.41602,-2.08398 0.41403,-0.81648 1.26138,-2.16648 1.88281,-3 0.62143,-0.83353 1.36828,-1.98891 1.6582,-2.56641 0.28992,-0.5775 0.85264,-1.44159 1.25196,-1.91992 0.39932,-0.47834 1.14229,-1.69256 1.65039,-2.69922 0.5081,-1.00667 1.23863,-2.24201 1.62304,-2.7461 0.38441,-0.50408 0.96445,-1.51658 1.28907,-2.25 0.32462,-0.73341 1.13866,-2.33045 1.80859,-3.54882 0.66992,-1.21836 1.36665,-2.77204 1.54883,-3.45118 0.18219,-0.67913 0.91051,-2.51648 1.61914,-4.08398 4.99563,-11.73774 7.0711,-15.57138 -0.14063,-30.51758 -0.6405,-1.28303 -1.24994,-2.6813 -1.35547,-3.10742 -0.51008,-2.05971 -5.60652,-7.60248 -8.04492,-8.75 -5.40183,-2.54209 -6.04205,-2.70856 -10.4082,-2.69531 -2.98985,0.009 -4.11061,0.17208 -8.40039,1.2207 -2.7225,0.6655 -5.62422,1.30085 -6.44922,1.41211 -1.86056,0.25091 -5.80467,1.15157 -7.80078,1.78125 -0.825,0.26024 -2.98383,0.66732 -4.79883,0.9043 -5.88002,0.76771 -9.52472,1.36018 -13.34961,2.17187 -3.37127,0.71542 -4.40258,0.79766 -10.20117,0.8125 -6.0573,0.0155 -6.55959,-0.0262 -8.25,-0.68164 -1.75011,-0.67856 -3.50305,-1.79847 -4.2832,-2.73828 -0.83913,-1.01087 0.33748,-4.97856 2.00586,-6.76367 0.46263,-0.495 1.29463,-1.57344 1.84961,-2.39844 0.55495,-0.825 3.21764,-3.66078 5.91601,-6.30078 5.09528,-4.98505 8.27061,-8.53695 9.8125,-10.976564 0.495,-0.78319 1.28044,-2.009899 1.74609,-2.724609 2.95684,-4.53832 3.41932,-5.437737 5.42188,-10.560547 1.82309,-4.6637 2.29363,-7.983698 1.60547,-11.330078 -0.32026,-1.55739 -0.76896,-2.701332 -1.39844,-3.570312 -0.5094,-0.7032 -0.92578,-1.442408 -0.92578,-1.642579 C 295.34644,54.214904 230.68917,59.099588 225,59.099588 193.8715,56.989819 167.52284,50.357964 147.53906,64.203125 Z"
     id="path3577"
     inkscape:connector-curvature="0"
     sodipodi:nodetypes="cscccccscsssscccsssssccccscsccssscsscssccsccsscscssssccssssssssscscscsscsscssccccsccsssssssscssscsssssssssssssssssssssssssscssssssssssscccsscsssssscsscssssssccc" />
</svg>
