<?xml version="1.0" encoding="UTF-8" standalone="no"?>
<!-- Created with Inkscape (http://www.inkscape.org/) -->

<svg
   xmlns:dc="http://purl.org/dc/elements/1.1/"
   xmlns:cc="http://creativecommons.org/ns#"
   xmlns:rdf="http://www.w3.org/1999/02/22-rdf-syntax-ns#"
   xmlns:svg="http://www.w3.org/2000/svg"
   xmlns="http://www.w3.org/2000/svg"
   xmlns:sodipodi="http://sodipodi.sourceforge.net/DTD/sodipodi-0.dtd"
   xmlns:inkscape="http://www.inkscape.org/namespaces/inkscape"
   id="svg3649"
   version="1.1"
   inkscape:version="0.91 r13725"
   width="450"
   height="450"
   viewBox="0 0 450 450"
   sodipodi:docname="River.svg">
  <metadata
     id="metadata3655">
    <rdf:RDF>
      <cc:Work
         rdf:about="">
        <dc:format>image/svg+xml</dc:format>
        <dc:type
           rdf:resource="http://purl.org/dc/dcmitype/StillImage" />
        <dc:title />
      </cc:Work>
    </rdf:RDF>
  </metadata>
  <defs
     id="defs3653" />
  <sodipodi:namedview
     pagecolor="#ffffff"
     bordercolor="#666666"
     borderopacity="1"
     objecttolerance="10"
     gridtolerance="10"
     guidetolerance="10"
     inkscape:pageopacity="0"
     inkscape:pageshadow="2"
     inkscape:window-width="640"
     inkscape:window-height="480"
     id="namedview3651"
     showgrid="false"
     inkscape:zoom="0.52444444"
     inkscape:cx="225"
     inkscape:cy="225"
     inkscape:window-x="0"
     inkscape:window-y="0"
     inkscape:window-maximized="0"
     inkscape:current-layer="svg3649" />
  <path
     style="fill:#000000"
     d="m 281.04375,336.39507 c 0.21656,-0.0867 0.47531,-0.076 0.575,0.0237 0.0997,0.0997 -0.0775,0.17061 -0.39375,0.15759 -0.34948,-0.0144 -0.42057,-0.0855 -0.18125,-0.18126 z M 279.9,335.35398 c -0.4125,-0.16941 -1.56,-0.35481 -2.55,-0.41199 -3.24938,-0.18771 -7.32091,-0.73947 -8.62222,-1.16847 -0.70278,-0.23169 -2.29028,-0.64485 -3.52778,-0.91812 -3.84975,-0.85017 -4.9249,-1.13646 -5.7,-1.5177 -0.4125,-0.20289 -1.83,-0.60309 -3.15,-0.88935 -1.32,-0.28623 -2.81276,-0.76917 -3.31724,-1.07316 -0.50447,-0.30399 -1.70243,-0.75723 -2.66213,-1.00722 -0.95969,-0.24996 -2.30194,-0.77511 -2.98276,-1.16697 -0.68083,-0.39186 -1.91287,-0.87558 -2.73787,-1.07493 -0.825,-0.19932 -1.9725,-0.68481 -2.55,-1.07886 -0.5775,-0.39405 -1.59,-0.83793 -2.25,-0.98643 -0.66,-0.14847 -1.86768,-0.6954 -2.68373,-1.21536 -0.81606,-0.51999 -1.69356,-0.94887 -1.95,-0.9531 -0.25645,-0.004 -1.20252,-0.47673 -2.10237,-1.05 -0.89985,-0.57327 -1.84485,-1.04577 -2.1,-1.05 -0.25515,-0.004 -1.20015,-0.47673 -2.1,-1.05 -0.89985,-0.57327 -1.86825,-1.04232 -2.15198,-1.04232 -0.28374,0 -0.90544,-0.32778 -1.38157,-0.72843 -0.47613,-0.40065 -1.60024,-1.08021 -2.49802,-1.51017 -2.65263,-1.27035 -5.36411,-2.75313 -5.9169,-3.23565 -0.28349,-0.24744 -1.05543,-0.61866 -1.71543,-0.82494 -0.66,-0.20628 -1.605,-0.67539 -2.1,-1.04244 -0.495,-0.36702 -1.39961,-0.83109 -2.01024,-1.03125 -0.61064,-0.20016 -1.58634,-0.687 -2.16824,-1.08189 -0.5819,-0.39489 -1.72441,-0.91587 -2.53892,-1.15776 -0.81452,-0.24189 -1.80353,-0.65115 -2.19782,-0.90951 -0.39428,-0.25833 -1.45215,-0.72723 -2.35083,-1.04196 -0.89867,-0.31473 -2.37645,-0.92274 -3.28395,-1.35117 -0.9075,-0.42843 -1.89737,-0.7803 -2.19972,-0.78189 -0.30234,-0.003 -1.49302,-0.41697 -2.64595,-0.92298 -1.15293,-0.50604 -2.86836,-1.04439 -3.81207,-1.19637 -0.9437,-0.15198 -2.72302,-0.62046 -3.95404,-1.04106 -1.23102,-0.4206 -3.52072,-0.89065 -5.08822,-1.04456 -1.5675,-0.15391 -4.11547,-0.49959 -5.66215,-0.76816 -2.90027,-0.50363 -4.73767,-0.4812 -10.83785,0.13228 -4.69666,0.47233 -8.0731,1.10388 -9.72091,1.81826 -0.809,0.35073 -2.0915,0.77331 -2.85,0.93903 -0.7585,0.16575 -1.72684,0.55338 -2.15187,0.86136 -0.42503,0.30801 -1.38826,0.76896 -2.1405,1.02435 -0.75225,0.25542 -2.01717,0.87624 -2.81095,1.37964 -0.79378,0.5034 -1.60085,0.91527 -1.79348,0.91527 -0.19263,0 -1.5957,0.84375 -3.11792,1.875 -1.52222,1.03125 -3.0438,2.03148 -3.38129,2.22273 -0.91722,0.51981 -2.71695,1.83984 -5.25218,3.85227 -1.24719,0.99 -2.70771,2.1375 -3.2456,2.55 -1.19298,0.91488 -5.88296,4.79193 -8.52309,7.04574 -1.06579,0.90984 -2.06959,1.65426 -2.23066,1.65426 -0.16109,0 -0.60318,0.29151 -0.98244,0.64779 -0.75886,0.71292 -5.3081,2.03238 -6.99911,2.03001 -1.74027,-0.003 -6.2238,-1.05564 -7.0711,-1.66107 -0.43622,-0.3117 -1.24591,-0.84345 -1.7993,-1.18167 -1.427226,-0.87228 -3.751923,-3.63411 -4.605882,-5.47197 C 95.235993,317.61342 94.817205,317.1 94.448718,317.1 93.938916,317.1 93.9,316.74333 93.9,312.07113 c 0,-4.91481 0.01518,-5.03556 0.669675,-5.325 0.391299,-0.17304 0.870366,-0.84306 1.152468,-1.61181 0.591816,-1.6128 2.942874,-4.53084 4.830727,-5.99575 0.77158,-0.59871 2.7886,-2.30357 4.48226,-3.78857 1.69366,-1.485 3.44224,-2.97 3.88574,-3.3 0.44349,-0.33 2.18749,-1.68 3.87555,-3 1.68806,-1.32 3.57765,-2.7375 4.19909,-3.15 2.24216,-1.48831 2.87351,-1.94448 4.03349,-2.91429 0.64845,-0.54214 1.33344,-0.98571 1.52219,-0.98571 0.18876,0 1.00778,-0.4725 1.82004,-1.05 0.81227,-0.5775 1.61228,-1.05131 1.77781,-1.05291 0.16553,-10e-4 0.89371,-0.4741 1.61818,-1.05 0.72447,-0.5759 1.47152,-1.04709 1.66012,-1.04709 0.18859,0 1.07629,-0.4725 1.97266,-1.05 0.89637,-0.5775 1.85156,-1.05 2.12265,-1.05 0.27109,0 1.27939,-0.4197 2.24066,-0.93266 0.96128,-0.51297 2.43153,-1.13484 3.26723,-1.38192 0.83571,-0.24709 1.78946,-0.59897 2.11946,-0.78195 2.12146,-1.17629 7.48724,-2.71231 12.3,-3.52102 1.155,-0.19408 2.88198,-0.61039 3.83773,-0.92514 1.86699,-0.61483 3.02091,-0.67013 14.31227,-0.68581 6.29392,-0.009 8.79687,0.22545 12.61194,1.18009 0.91406,0.22872 2.87156,0.55975 4.35,0.73561 1.47843,0.17586 3.49806,0.64771 4.48806,1.04854 0.99,0.40084 2.78561,0.87407 3.99025,1.05161 1.20464,0.17755 2.83009,0.65739 3.61212,1.0663 0.78202,0.40891 2.19651,0.88667 3.14331,1.0617 0.94679,0.17502 2.56134,0.71556 3.58788,1.2012 1.02654,0.48564 2.13644,0.88553 2.46644,0.88865 0.33,0.003 1.2872,0.38465 2.12712,0.84784 0.83992,0.46319 2.18992,1.02493 3,1.24829 0.81008,0.22337 1.94538,0.70533 2.52288,1.07103 0.5775,0.3657 1.59,0.83451 2.25,1.04179 0.66,0.20728 1.605,0.67718 2.1,1.04423 0.495,0.36705 1.44,0.83955 2.1,1.05 0.66,0.21045 1.605,0.68295 2.1,1.05 0.495,0.36705 1.40853,0.83029 2.03007,1.02943 0.62153,0.19913 1.89609,0.82334 2.83235,1.38713 0.93626,0.56378 1.85805,1.02506 2.04843,1.02506 0.19039,0 0.58794,0.26717 0.88346,0.59371 0.29552,0.32655 1.29519,0.87685 2.2215,1.2229 0.9263,0.34605 1.88669,0.80622 2.13419,1.0226 0.2475,0.21638 1.28392,0.81055 2.30315,1.32039 1.01923,0.50983 1.93618,1.06133 2.03766,1.22553 0.10149,0.16421 0.7003,0.43745 1.3307,0.6072 0.6304,0.16975 1.67095,0.66554 2.31234,1.10175 0.64138,0.43622 1.5889,0.91043 2.1056,1.05381 0.5167,0.14337 1.41374,0.58254 1.99343,0.97593 0.57969,0.39339 1.84444,0.94356 2.81055,1.22261 0.96611,0.27905 1.97359,0.70127 2.23883,0.93828 0.26525,0.23701 1.54775,0.77568 2.85,1.19705 1.30226,0.42137 2.66766,0.95846 3.03423,1.19353 0.36658,0.23508 1.37908,0.57939 2.25,0.76512 0.87093,0.18576 2.30939,0.65781 3.19657,1.04898 0.88718,0.3912 2.50718,0.85023 3.6,1.02012 1.09282,0.16986 3.13444,0.63 4.53694,1.02252 3.33328,0.93288 4.41403,1.04961 11.55,1.24746 4.48492,0.12432 6.71966,0.0552 8.85,-0.27378 3.44409,-0.53184 9.78534,-2.16156 10.6725,-2.74287 0.35271,-0.23112 1.50255,-0.70293 2.55516,-1.04847 1.05264,-0.34557 2.39004,-0.94341 2.97204,-1.32857 0.582,-0.38514 1.39389,-0.79869 1.80423,-0.919 0.41034,-0.1203 1.42107,-0.65844 2.24607,-1.19585 1.41564,-0.92216 3.21207,-2.05617 5.14518,-3.24795 0.47016,-0.28984 1.66482,-1.13526 2.65482,-1.87872 0.99,-0.74345 2.18427,-1.5863 2.65395,-1.873 0.94041,-0.57405 5.93238,-4.72434 8.65569,-7.19628 0.95433,-0.86625 1.86354,-1.575 2.02047,-1.575 0.15693,0 1.20435,-0.80648 2.32761,-1.79219 1.39434,-1.22359 2.85129,-2.14425 4.59228,-2.90187 2.31036,-1.00541 2.80671,-1.11093 5.28177,-1.12292 2.32269,-0.0113 3.06393,0.11693 4.95,0.85595 3.81756,1.49584 6.83403,4.17057 8.28396,7.34545 0.45084,0.98725 1.05102,1.84151 1.34838,1.91927 0.48717,0.1274 0.53589,0.58956 0.53589,5.08323 0,4.69063 -0.0306,4.95111 -0.59994,5.09999 -0.37986,0.0993 -0.91656,0.85503 -1.46307,2.05999 -0.68061,1.50068 -1.43481,2.44229 -3.5667,4.4531 -3.09285,2.91714 -6.28566,5.67582 -8.33304,7.2 -1.33023,0.99027 -3.25608,2.55417 -4.93212,4.00515 -0.89694,0.77652 -3.12774,2.38521 -4.31997,3.11526 -0.47565,0.29127 -1.44036,1.00209 -2.1438,1.57959 -0.70344,0.5775 -1.98093,1.455 -2.83887,1.95 -0.85797,0.495 -2.18826,1.33653 -2.9562,1.87008 -0.76797,0.53352 -1.86696,1.18122 -2.44221,1.43931 -0.57522,0.25809 -1.31772,0.71997 -1.65,1.02642 -0.33225,0.30642 -1.21158,0.73131 -1.95408,0.94419 -0.7425,0.21288 -1.755,0.68151 -2.25,1.04139 -0.495,0.35991 -1.44,0.82716 -2.1,1.03836 -0.66,0.2112 -1.6725,0.68745 -2.25,1.05834 -0.5775,0.37092 -1.85595,0.90222 -2.84097,1.18071 -0.98505,0.27846 -2.29833,0.76515 -2.91843,1.0815 -0.6201,0.31635 -2.10915,0.78126 -3.30903,1.03311 -1.19985,0.25185 -3.11832,0.73644 -4.26321,1.07682 -2.2236,0.66111 -7.87513,1.5528 -8.27507,1.30563 -0.13232,-0.0818 -1.20627,0.0545 -2.38655,0.30273 -2.53183,0.53259 -14.96954,0.61347 -16.20674,0.10539 z m -0.98317,-76.67258 c -2.43824,-0.20274 -5.81324,-0.70365 -7.5,-1.11314 -1.68676,-0.40949 -3.80933,-0.83046 -4.71683,-0.93549 -0.9075,-0.10503 -2.7975,-0.56913 -4.2,-1.03133 -1.4025,-0.4622 -3.36,-1.00489 -4.35,-1.20598 -0.99,-0.20109 -2.4075,-0.67054 -3.15,-1.04322 -0.7425,-0.37269 -2.07423,-0.8313 -2.95941,-1.01914 -0.88517,-0.18784 -2.43566,-0.74463 -3.44553,-1.23731 -1.00987,-0.49269 -2.0188,-0.89579 -2.24207,-0.89579 -0.22327,0 -1.23778,-0.38417 -2.25447,-0.85371 -1.01668,-0.46954 -2.38852,-1.02625 -3.04852,-1.23713 -0.66,-0.21088 -1.61621,-0.69389 -2.1249,-1.07334 -0.5087,-0.37947 -1.67864,-0.90905 -2.59987,-1.17686 -0.92124,-0.26781 -1.83167,-0.67573 -2.02319,-0.9065 -0.19152,-0.23077 -0.99187,-0.63337 -1.77856,-0.89466 -0.78669,-0.2613 -1.88252,-0.8087 -2.43519,-1.21644 -0.55267,-0.40775 -1.16756,-0.74136 -1.36643,-0.74136 -0.19886,0 -1.04622,-0.46074 -1.88303,-1.02387 -0.8368,-0.56312 -1.97991,-1.17517 -2.54025,-1.3601 -0.56033,-0.18492 -1.54299,-0.73293 -2.18368,-1.21778 -0.6407,-0.48486 -1.3674,-0.88877 -1.6149,-0.89758 -0.2475,-0.009 -1.18625,-0.48507 -2.0861,-1.05835 -0.89985,-0.57328 -1.86583,-1.04232 -2.14662,-1.04232 -0.28078,0 -1.05657,-0.45622 -1.72397,-1.01381 -0.66739,-0.5576 -1.69971,-1.10504 -2.29402,-1.21653 -0.59432,-0.1115 -1.70747,-0.60028 -2.47367,-1.08619 -0.7662,-0.48591 -1.52663,-0.88347 -1.68986,-0.88347 -0.16322,0 -1.18304,-0.4563 -2.26626,-1.014 -1.08323,-0.5577 -2.40377,-1.10744 -2.93454,-1.22165 -0.53077,-0.11421 -1.45385,-0.53937 -2.0513,-0.94481 -0.59744,-0.40543 -1.77308,-0.88445 -2.61253,-1.06448 -0.83945,-0.18003 -2.3927,-0.71607 -3.45167,-1.19119 C 193.7105,225.38874 192.64032,225 192.39129,225 c -0.24904,0 -1.68222,-0.4119 -3.18486,-0.91533 -1.50264,-0.50343 -3.75006,-1.04426 -4.99425,-1.20183 -1.2442,-0.15758 -2.66718,-0.41893 -3.16218,-0.58079 -1.91177,-0.62513 -4.99071,-0.97611 -9.75,-1.11143 -5.104,-0.14512 -7.36855,0.0719 -11.85,1.13554 -1.32,0.3133 -2.805,0.57069 -3.3,0.57197 -0.495,0.001 -1.71,0.38403 -2.7,0.85053 -0.99,0.46651 -2.45116,1.01084 -3.24703,1.20963 -0.79586,0.19879 -2.14586,0.7484 -3,1.22135 -0.85413,0.47296 -1.89047,0.95949 -2.30297,1.08119 -0.4125,0.1217 -1.10603,0.50655 -1.54118,0.85522 -0.43515,0.34867 -1.44765,1.00794 -2.25,1.46503 -0.80235,0.45709 -2.06632,1.23386 -2.80882,1.72615 -0.7425,0.49229 -1.74355,1.1308 -2.22456,1.41892 -0.48101,0.28812 -1.35851,0.93503 -1.95,1.43757 -0.59149,0.50255 -1.48044,1.16817 -1.97544,1.47914 -1.07528,0.67553 -4.09526,3.11584 -7.4547,6.02382 -4.54688,3.93583 -7.23704,6.00715 -9.3453,7.19553 l -2.1,1.18372 -4.05,0.0916 c -3.56782,0.0807 -4.17501,0.0217 -5.1,-0.4955 -0.5775,-0.32289 -1.75446,-0.9447 -2.61546,-1.3818 -1.940643,-0.98521 -4.716555,-3.96475 -5.669301,-6.08519 -0.513963,-1.14388 -0.872946,-1.575 -1.311456,-1.575 -0.5814,0 -0.603783,-0.18933 -0.603783,-5.10743 0,-5.0992 0.0012,-5.10786 0.712005,-5.37813 0.49689,-0.18891 0.879789,-0.75316 1.267335,-1.86757 0.445899,-1.2822 1.093134,-2.12892 3.28455,-4.29687 1.50107,-1.485 3.58257,-3.375 4.62555,-4.2 1.04298,-0.825 2.11328,-1.70682 2.37844,-1.95961 0.7173,-0.6838 3.12848,-2.62651 5.57323,-4.49039 1.19031,-0.9075 2.94489,-2.2575 3.89907,-3 2.95216,-2.29726 4.77093,-3.57386 5.7486,-4.035 0.51633,-0.24353 1.34802,-0.78713 1.84819,-1.208 0.50017,-0.42086 1.38473,-0.96381 1.9657,-1.20656 0.58096,-0.24274 1.14532,-0.58539 1.25413,-0.76144 0.1088,-0.17605 1.01773,-0.71726 2.01983,-1.20268 1.00211,-0.48543 2.03607,-1.06887 2.29769,-1.29653 0.26162,-0.22766 1.01568,-0.58271 1.67568,-0.78899 0.66,-0.20628 1.605,-0.67537 2.1,-1.04242 0.495,-0.36705 1.44,-0.84105 2.1,-1.05333 0.66,-0.21228 1.74,-0.69485 2.4,-1.07237 0.66,-0.37752 2.00455,-0.83245 2.98788,-1.01098 0.98334,-0.17852 2.45789,-0.67491 3.27678,-1.1031 0.92815,-0.48532 2.5311,-0.93509 4.25623,-1.19424 1.52204,-0.22865 3.15249,-0.56859 3.62322,-0.75543 1.76792,-0.70168 3.06952,-0.91959 7.15589,-1.19801 8.67548,-0.59108 21.26977,-0.19356 24.9,0.78594 0.99,0.26712 3.285,0.73986 5.1,1.05054 1.815,0.31068 3.975,0.826 4.8,1.14514 0.825,0.31915 2.58,0.81611 3.9,1.10436 1.32,0.28825 3.0075,0.82658 3.75,1.19629 0.7425,0.3697 2.07423,0.82587 2.95941,1.01371 0.88517,0.18784 2.43566,0.74463 3.44553,1.23731 1.00987,0.49269 2.01252,0.89579 2.2281,0.89579 0.21559,0 1.2301,0.38742 2.25447,0.86094 1.02437,0.47352 2.40249,1.03022 3.06249,1.23713 0.66,0.2069 1.605,0.67624 2.1,1.04296 0.495,0.36672 1.6425,0.90736 2.55,1.20141 0.9075,0.29406 1.8525,0.70855 2.1,0.9211 0.2475,0.21256 1.125,0.64498 1.95,0.96093 0.825,0.31596 2.02509,0.93471 2.66687,1.375 0.64177,0.44029 1.33026,0.80053 1.52998,0.80053 0.19972,0 0.89469,0.38506 1.54437,0.85569 0.64969,0.47063 1.66449,1.01517 2.25512,1.2101 0.59062,0.19492 1.59807,0.7511 2.23876,1.23596 0.6407,0.48486 1.3674,0.88589 1.6149,0.89119 0.2475,0.005 1.0575,0.41381 1.8,0.90782 0.7425,0.49401 1.8225,1.05391 2.4,1.24423 0.5775,0.19032 1.47818,0.67102 2.00152,1.06822 0.52334,0.39721 1.44401,0.85817 2.04593,1.02437 0.60193,0.1662 1.71892,0.69823 2.48221,1.1823 0.76329,0.48407 1.52135,0.88012 1.68458,0.88012 0.16322,0 1.18304,0.4563 2.26626,1.014 1.08322,0.5577 2.40376,1.10744 2.93454,1.22165 0.53077,0.1142 1.45385,0.53937 2.0513,0.94481 0.59744,0.40543 1.77308,0.88445 2.61253,1.06448 0.83945,0.18003 2.39269,0.71607 3.45166,1.19119 1.05897,0.47513 2.12915,0.86387 2.37818,0.86387 0.24904,0 1.68222,0.4119 3.18486,0.91533 1.50264,0.50343 3.75006,1.04425 4.99425,1.20183 1.2442,0.15757 2.66718,0.41893 3.16218,0.58079 2.00972,0.65716 5.0695,0.993 10.08823,1.10726 4.54729,0.10354 5.70321,0.0318 8.25,-0.5121 1.62897,-0.34787 4.12144,-0.81292 5.5388,-1.03344 1.41738,-0.22053 3.23988,-0.73503 4.05,-1.14335 0.81015,-0.40831 1.94547,-0.83876 2.52297,-0.95654 1.25505,-0.25598 7.04226,-3.05825 7.53033,-3.64633 0.18873,-0.2274 0.5091,-0.41345 0.71193,-0.41345 0.55911,0 4.95828,-2.87395 8.35593,-5.45887 1.0185,-0.77488 2.32431,-1.75948 2.90181,-2.18801 2.70219,-2.00511 4.15668,-3.17031 6.55725,-5.25312 4.43454,-3.84749 7.01358,-5.82801 9.19275,-7.05934 l 2.1,-1.18659 4.05,-0.0916 c 3.56781,-0.0807 4.17501,-0.0217 5.1,0.4955 0.5775,0.32289 1.75446,0.9447 2.61546,1.3818 1.94064,0.98521 4.71654,3.96475 5.66931,6.08519 0.51396,1.14388 0.87294,1.575 1.31145,1.575 0.5814,0 0.60378,0.18933 0.60378,5.10742 0,5.09921 0,5.10786 -0.71202,5.37813 -0.49605,0.18861 -0.88134,0.75503 -1.27041,1.86758 -0.4446,1.27148 -1.11015,2.14704 -3.26616,4.29687 -1.48926,1.485 -3.42123,3.24 -4.29324,3.9 -0.87201,0.66 -2.6931,2.15189 -4.04682,3.3153 -2.11914,1.8212 -5.05794,4.12888 -7.97334,6.261 -0.43341,0.31697 -1.84431,1.37038 -3.13533,2.34091 -1.29102,0.97053 -2.64102,1.87797 -3,2.01652 -0.35898,0.13855 -1.17078,0.66605 -1.80402,1.17223 -0.63321,0.50617 -1.44321,1.00832 -1.8,1.11588 -0.35676,0.10756 -0.98616,0.49637 -1.39866,0.86402 -0.4125,0.36765 -1.2225,0.84656 -1.8,1.06424 -0.5775,0.21769 -1.455,0.69124 -1.95,1.05234 -0.495,0.36109 -1.44,0.82872 -2.1,1.03918 -0.66,0.21045 -1.63962,0.71096 -2.17695,1.11225 -0.5373,0.40129 -1.65336,0.9305 -2.48013,1.17602 -0.82674,0.24552 -1.93962,0.70155 -2.47305,1.0134 -0.53343,0.31185 -1.89621,0.78 -3.02841,1.04032 -1.13223,0.26033 -2.43186,0.73913 -2.88813,1.06402 -0.52353,0.37278 -1.92222,0.75673 -3.79143,1.04076 -1.62906,0.24754 -3.9069,0.73903 -5.0619,1.0922 -3.67155,1.12268 -16.49086,1.6195 -24.53317,0.95081 z M 279.9,182.42686 c -1.2375,-0.11524 -2.56888,-0.38377 -2.95862,-0.59674 -0.38974,-0.21297 -1.05443,-0.32111 -1.4771,-0.24031 -0.42266,0.0808 -1.38628,-0.0355 -2.14138,-0.25842 -0.7551,-0.22293 -2.62345,-0.55638 -4.1519,-0.741 -1.52845,-0.18462 -3.55345,-0.64876 -4.5,-1.03142 -0.94655,-0.38266 -2.7097,-0.84774 -3.91811,-1.03351 -1.20842,-0.18577 -2.86934,-0.6784 -3.69095,-1.09474 -0.8216,-0.41634 -2.233,-0.89363 -3.13644,-1.06064 -0.90344,-0.16701 -2.48252,-0.70099 -3.50906,-1.18663 -1.02654,-0.48564 -2.13644,-0.88553 -2.46644,-0.88865 -0.33,-0.003 -1.3174,-0.40116 -2.19422,-0.88453 -0.87682,-0.48338 -2.31041,-1.08707 -3.18576,-1.34154 -0.87534,-0.25447 -1.7555,-0.66024 -1.9559,-0.90172 -0.20041,-0.24147 -1.11811,-0.65816 -2.03935,-0.92597 -0.92123,-0.26781 -2.09117,-0.79739 -2.59987,-1.17686 -0.5087,-0.37945 -1.4649,-0.86272 -2.1249,-1.07392 -0.66,-0.2112 -1.6725,-0.69582 -2.25,-1.07693 -0.5775,-0.38111 -1.50199,-0.85034 -2.05442,-1.04273 -0.55244,-0.1924 -1.75949,-0.80449 -2.68236,-1.36021 -0.92286,-0.55571 -1.83369,-1.01039 -2.02407,-1.01039 -0.19039,0 -0.58794,-0.26717 -0.88346,-0.59371 -0.29552,-0.32655 -1.29519,-0.87685 -2.2215,-1.2229 -0.9263,-0.34605 -1.88669,-0.80622 -2.13419,-1.0226 -0.2475,-0.21638 -1.28392,-0.81055 -2.30314,-1.32039 -1.01924,-0.50983 -1.93619,-1.06133 -2.03767,-1.22554 -0.10149,-0.1642 -0.7003,-0.43744 -1.3307,-0.60719 -0.6304,-0.16975 -1.67095,-0.66554 -2.31234,-1.10176 -0.64138,-0.43621 -1.5889,-0.91042 -2.1056,-1.0538 -0.5167,-0.14338 -1.41374,-0.58254 -1.99343,-0.97593 -0.57969,-0.39339 -1.84444,-0.94356 -2.81055,-1.22261 -0.96611,-0.27905 -1.97359,-0.70127 -2.23883,-0.93828 -0.26525,-0.23701 -1.54775,-0.77568 -2.85,-1.19705 -1.30226,-0.42137 -2.66766,-0.95846 -3.03423,-1.19352 -0.36657,-0.23508 -1.37907,-0.57939 -2.25,-0.76515 -0.87093,-0.18575 -2.30939,-0.65779 -3.19657,-1.04898 -0.88718,-0.39118 -2.49109,-0.8515 -3.56423,-1.02294 -1.07315,-0.17143 -3.51978,-0.71796 -5.43695,-1.21449 -3.20761,-0.83075 -4.01242,-0.91562 -10.08576,-1.06368 -5.00125,-0.12192 -7.29037,-0.0536 -9.45,0.28201 -3.47339,0.53978 -9.79018,2.16755 -10.68387,2.75312 -0.35896,0.2352 -1.51069,0.71301 -2.55939,1.06181 -1.04871,0.3488 -2.37924,0.93957 -2.95674,1.31282 -0.5775,0.37325 -1.47232,0.82387 -1.98848,1.00136 -0.51616,0.1775 -1.51517,0.74048 -2.22001,1.25106 -0.70484,0.51059 -1.45342,0.92834 -1.6635,0.92834 -0.21009,0 -0.76358,0.31203 -1.22999,0.6934 -0.46641,0.38137 -1.45552,1.05953 -2.19802,1.50702 -0.7425,0.4475 -1.9575,1.2823 -2.7,1.85511 -0.7425,0.57281 -1.88156,1.39732 -2.53124,1.83224 -0.64968,0.43492 -2.54966,1.95434 -4.22218,3.37649 -1.67252,1.42216 -3.89055,3.26074 -4.92896,4.08574 -1.0384,0.825 -2.5243,2.04943 -3.30199,2.72097 -2.50747,2.16519 -3.42158,2.72787 -5.83876,3.59408 -3.52936,1.26477 -6.35126,1.22153 -9.86079,-0.1511 -2.22998,-0.87217 -2.97448,-1.35481 -4.854542,-3.14706 -1.636113,-1.55969 -2.440293,-2.60563 -3.055188,-3.97367 -0.472653,-1.05156 -1.066965,-1.91754 -1.37046,-1.99691 C 93.948378,163.56882 93.9,163.10423 93.9,158.55 c 0,-4.62205 0.04267,-5.01733 0.556071,-5.15159 0.312036,-0.0816 0.923307,-0.91375 1.392858,-1.89617 1.135626,-2.37601 6.350171,-7.44862 12.029661,-11.70224 0.77109,-0.5775 2.03555,-1.59 2.80993,-2.25 2.6941,-2.29619 4.77827,-3.87603 6.4308,-4.87466 0.47812,-0.28894 1.28812,-0.87041 1.8,-1.29216 1.18325,-0.97493 4.60991,-3.28318 4.87397,-3.28318 0.11004,0 0.61782,-0.31802 1.12839,-0.70671 0.51058,-0.3887 1.53582,-1.01143 2.27832,-1.38386 0.7425,-0.37243 1.62,-0.91136 1.95,-1.19764 0.33,-0.28627 1.15522,-0.73503 1.83381,-0.99723 0.6786,-0.26221 1.72029,-0.80687 2.31487,-1.21036 0.59457,-0.40349 1.57505,-0.8263 2.17883,-0.93957 0.60378,-0.11327 1.58709,-0.5212 2.18514,-0.90652 0.59804,-0.38532 1.89329,-0.92843 2.87832,-1.20691 0.98503,-0.27847 2.29833,-0.76515 2.91842,-1.0815 0.6201,-0.31635 2.07477,-0.77446 3.2326,-1.01802 1.15783,-0.24355 2.94954,-0.71301 3.98158,-1.04323 2.13649,-0.68362 7.74027,-1.52711 8.61891,-1.29734 0.32174,0.0841 1.2216,-0.0639 1.99969,-0.32907 1.1431,-0.38949 2.78302,-0.48204 8.54174,-0.48204 4.50785,0 7.43739,0.1222 7.97156,0.33251 0.46449,0.18287 1.51953,0.37 2.34453,0.41583 4.17213,0.23177 6.77079,0.55236 8.4,1.03628 1.87671,0.55744 2.99416,0.83548 6.75,1.67952 1.2375,0.2781 2.5875,0.67696 3,0.88635 0.4125,0.20939 1.83,0.61491 3.15,0.90116 1.32,0.28624 2.81275,0.76917 3.31723,1.07316 0.50448,0.304 1.70244,0.75724 2.66214,1.00721 0.95969,0.24997 2.30194,0.77511 2.98276,1.16698 0.68083,0.39187 1.91287,0.87559 2.73787,1.07492 0.825,0.19934 1.9725,0.68483 2.55,1.07888 0.5775,0.39404 1.59,0.83793 2.25,0.98641 0.66,0.14849 1.86768,0.69541 2.68373,1.21538 0.81606,0.51998 1.69356,0.94887 1.95,0.95309 0.25645,0.004 1.20251,0.47672 2.10237,1.05 0.89985,0.57328 1.84485,1.04578 2.1,1.05 0.25514,0.004 1.20014,0.47672 2.1,1.05 0.89985,0.57328 1.86824,1.04232 2.15198,1.04232 0.28374,0 0.91379,0.33482 1.40013,0.74404 0.48633,0.40922 1.54294,1.02637 2.34801,1.37144 0.80508,0.34507 1.66628,0.80893 1.91378,1.0308 0.2475,0.22186 1.0575,0.63775 1.8,0.9242 0.7425,0.28645 1.62,0.76118 1.95,1.05496 0.33,0.29378 1.25676,0.81509 2.05946,1.15846 0.80271,0.34338 1.81521,0.87373 2.25,1.17857 0.4348,0.30484 1.29015,0.71626 1.90078,0.91428 0.61064,0.19802 1.58634,0.68313 2.16824,1.07801 0.5819,0.39489 1.72441,0.91588 2.53893,1.15777 0.81451,0.24188 1.80352,0.65116 2.19781,0.9095 0.39428,0.25835 1.45215,0.72723 2.35083,1.04196 0.89867,0.31473 2.37645,0.92276 3.28395,1.35119 0.9075,0.42843 1.89737,0.78028 2.19972,0.78189 0.30234,0.001 1.49302,0.41695 2.64595,0.92297 1.15293,0.50603 2.86836,1.0444 3.81207,1.19637 0.9437,0.15198 2.72302,0.62497 3.95404,1.05109 1.24778,0.43192 3.49939,0.89827 5.08822,1.05388 1.5675,0.15351 3.795,0.43793 4.95,0.63203 5.01821,0.84333 16.00709,-0.0502 20.7,-1.68308 1.155,-0.40189 2.7075,-0.88288 3.45,-1.06888 0.7425,-0.18599 1.69776,-0.58657 2.12277,-0.89018 0.42504,-0.30361 1.38828,-0.76098 2.1405,-1.01637 0.75225,-0.2554 2.01717,-0.87623 2.81097,-1.37963 0.79377,-0.5034 1.60083,-0.91527 1.79346,-0.91527 0.19263,0 1.59501,-0.84375 3.1164,-1.875 1.52139,-1.03125 3.13803,-2.0775 3.59256,-2.325 0.81585,-0.44424 1.48716,-0.94264 4.04091,-3 0.71685,-0.5775 2.02014,-1.59 2.8962,-2.25 0.87606,-0.66 1.88307,-1.47 2.23779,-1.8 0.35472,-0.33 1.512,-1.27122 2.57169,-2.0916 1.05972,-0.82038 3.02496,-2.44038 4.36722,-3.6 3.42798,-2.96156 4.70787,-3.66522 8.0247,-4.41181 2.86503,-0.64491 2.89383,-0.64538 5.88657,-0.0963 1.74393,0.31998 3.40128,0.81395 3.94482,1.17575 0.51555,0.34316 1.38573,0.90065 1.93368,1.23886 1.42398,0.8789 3.74694,3.64459 4.59603,5.47198 0.48774,1.04968 0.90651,1.56309 1.275,1.56309 0.50982,0 0.54873,0.35666 0.54873,5.02886 0,4.91483 -0.0153,5.03558 -0.66966,5.325 -0.39237,0.17351 -0.87084,0.84431 -1.15548,1.6199 -0.54168,1.4761 -3.1887,4.81553 -4.60473,5.80923 -0.50607,0.35513 -2.00013,1.59892 -3.32013,2.76397 -3.66954,3.23879 -10.59051,8.73111 -13.5051,10.71734 -0.65718,0.44786 -1.7349,1.21825 -2.3949,1.71198 -1.30617,0.9771 -4.58433,3.06823 -6.5235,4.16132 -0.67092,0.37818 -1.61418,1.01943 -2.09619,1.425 -0.48198,0.40557 -1.0803,0.7374 -1.32957,0.7374 -0.2493,0 -1.29816,0.4725 -2.33082,1.05 -1.03266,0.5775 -2.06712,1.05058 -2.29875,1.05128 -0.23163,6e-4 -1.02867,0.40524 -1.77117,0.89895 -0.7425,0.49372 -2.0925,1.11258 -3,1.37525 -0.9075,0.26268 -2.055,0.72092 -2.55,1.01832 -0.495,0.2974 -1.63023,0.69364 -2.5227,0.88053 -0.8925,0.18689 -2.2185,0.60334 -2.94666,0.92545 -0.72819,0.32211 -2.15796,0.73235 -3.1773,0.91166 -1.01934,0.17931 -3.47334,0.68152 -5.45334,1.11604 -1.98,0.43451 -4.815,0.84512 -6.3,0.91244 -5.41564,0.24555 -13.85575,0.29127 -16.05,0.0869 z M 176.34375,113.49507 c 0.21656,-0.0867 0.47531,-0.076 0.575,0.0237 0.0997,0.0997 -0.0775,0.17059 -0.39375,0.15756 -0.34948,-0.0144 -0.42057,-0.0855 -0.18125,-0.18125 z"
     id="path3659"
     inkscape:connector-curvature="0" />
</svg>
