<?xml version="1.0" standalone="yes"?><svg version="1.1" xmlns = 'http://www.w3.org/2000/svg'><defs><font id='web' horiz-adv-x="1000">
<font-face font-family="web" descent="-346" cap-height="1518" units-per-em="2048" bbox="-66,-578,2722,2109" x-height="1141" ascent="1575" />
<missing-glyph horiz-adv-x="1024" d="" /><glyph horiz-adv-x="1024" d="" unicode=" " />
<glyph horiz-adv-x="2048" d="" unicode=" " />
<glyph horiz-adv-x="1188" d="" unicode=" " />
<glyph horiz-adv-x="410" d="" unicode=" " />
<glyph horiz-adv-x="1188" d="" unicode="‒" />
<glyph horiz-adv-x="1167" d="M 74 756 L 1096 756 L 1096 553 L 74 553 L 74 756 Z" unicode="–" />
<glyph horiz-adv-x="1538" d="M 74 756 L 1464 756 L 1464 553 L 74 553 L 74 756 Z" unicode="—" />
<glyph horiz-adv-x="2048" d="" unicode="―" />
<glyph horiz-adv-x="467" d="M 362 1411 C 311 1383 279 1359 266 1339 C 252 1319 246 1287 246 1243 L 362 1243 L 362 954 L 102 954 L 102 1221 C 102 1303 115 1364 143 1404 C 171 1444 222 1484 297 1522 L 362 1411 Z" unicode="‘" />
<glyph horiz-adv-x="467" d="M 104 1061 C 152 1087 184 1111 199 1132 C 213 1153 221 1186 221 1231 L 102 1231 L 102 1518 L 362 1518 L 362 1251 C 362 1190 356 1144 345 1113 C 333 1081 314 1053 286 1027 C 258 1001 218 975 168 950 L 104 1061 Z" unicode="’" />
<glyph horiz-adv-x="465" d="M 104 -168 C 154 -140 186 -117 200 -97 C 214 -77 221 -44 221 0 L 102 0 L 102 289 L 362 289 L 362 23 C 362 -38 356 -85 344 -117 C 332 -149 313 -177 286 -203 C 259 -229 220 -255 168 -281 L 104 -168 Z" unicode="‚" />
<glyph horiz-adv-x="838" d="M 104 1227 C 104 1283 109 1327 121 1358 C 133 1389 152 1417 179 1443 C 206 1468 245 1494 297 1520 L 358 1409 C 310 1383 279 1359 265 1339 C 251 1319 244 1287 244 1243 L 360 1243 L 360 961 L 104 961 L 104 1227 Z M 479 1227 C 479 1303 492 1362 520 1402 C 548 1442 598 1482 672 1520 L 733 1409 C 688 1385 658 1363 643 1343 C 628 1323 621 1289 621 1243 L 737 1243 L 737 961 L 479 961 L 479 1227 Z" unicode="“" />
<glyph horiz-adv-x="838" d="M 104 1067 C 153 1094 184 1118 198 1138 C 212 1158 219 1191 219 1235 L 102 1235 L 102 1518 L 360 1518 L 360 1251 C 360 1193 354 1149 342 1118 C 330 1086 309 1058 281 1032 C 253 1006 215 982 168 958 L 104 1067 Z M 479 1067 C 528 1094 559 1118 573 1138 C 587 1158 594 1191 594 1235 L 477 1235 L 477 1518 L 735 1518 L 735 1251 C 735 1193 729 1149 717 1118 C 705 1087 684 1059 656 1033 C 628 1007 589 982 541 958 L 479 1067 Z" unicode="”" />
<glyph horiz-adv-x="838" d="M 104 -166 C 150 -141 181 -118 196 -98 C 211 -78 219 -45 219 0 L 102 0 L 102 285 L 360 285 L 360 16 C 360 -41 354 -85 342 -116 C 330 -147 310 -175 283 -201 C 255 -226 217 -251 168 -276 L 104 -166 Z M 479 -166 C 525 -141 556 -118 571 -98 C 586 -78 594 -45 594 0 L 477 0 L 477 285 L 735 285 L 735 16 C 735 -41 729 -85 717 -116 C 705 -146 685 -174 657 -200 C 629 -226 591 -251 541 -276 L 479 -166 Z" unicode="„" />
<glyph horiz-adv-x="367" d="" unicode=" " />
<glyph horiz-adv-x="649" d="M 195 283 L 457 283 L 457 0 L 195 0 L 195 283 Z M 201 1518 L 451 1518 L 422 442 L 229 442 L 201 1518 Z" unicode="!" />
<glyph horiz-adv-x="922" d="M 152 1518 L 381 1518 L 365 877 L 170 877 L 152 1518 Z M 541 1518 L 772 1518 L 752 877 L 559 877 L 541 1518 Z" unicode="&#x22;" />
<glyph horiz-adv-x="1251" d="M 262 408 L 86 408 L 86 606 L 293 606 L 330 836 L 86 836 L 86 1034 L 360 1034 L 428 1475 L 639 1475 L 571 1034 L 774 1034 L 842 1475 L 1053 1475 L 983 1034 L 1165 1034 L 1165 836 L 952 836 L 918 606 L 1165 606 L 1165 408 L 885 408 L 823 0 L 614 0 L 676 408 L 473 408 L 412 0 L 199 0 L 262 408 Z M 713 596 L 754 846 L 537 846 L 496 596 L 713 596 Z" unicode="#" />
<glyph horiz-adv-x="1073" d="M 449 1 C 349 24 280 77 242 160 L 242 0 L 76 0 L 76 471 L 246 471 C 260 380 284 312 319 266 C 353 220 399 191 457 180 L 457 675 C 359 717 288 757 243 795 C 197 833 162 876 138 926 C 114 975 102 1033 102 1100 C 102 1201 133 1284 195 1349 C 257 1414 342 1453 449 1465 L 449 1589 L 631 1589 L 631 1456 C 707 1434 761 1389 791 1323 L 791 1464 L 956 1464 L 956 1032 L 782 1032 C 762 1160 709 1239 623 1269 L 623 822 C 733 772 811 728 857 691 C 903 654 939 611 965 562 C 991 512 1004 454 1004 387 C 1004 275 970 185 904 116 C 837 46 745 6 627 -6 L 627 -176 L 449 -176 L 449 1 Z M 793 377 C 793 407 787 434 775 460 C 763 485 747 508 726 528 C 705 548 671 571 623 599 L 623 179 C 736 199 793 265 793 377 Z M 317 1102 C 317 1022 363 956 457 902 L 457 1273 C 363 1251 317 1194 317 1102 Z" unicode="$" />
<glyph horiz-adv-x="1982" d="M 432 516 C 317 516 227 560 163 648 C 98 736 66 854 66 1004 C 66 1152 98 1271 163 1360 C 228 1448 318 1493 432 1493 C 544 1493 633 1449 699 1363 C 765 1276 799 1156 799 1004 C 799 852 765 733 699 646 C 633 559 544 516 432 516 Z M 432 692 C 486 692 526 718 554 771 C 582 824 596 902 596 1004 C 596 1110 581 1188 551 1237 C 521 1286 482 1311 432 1311 C 378 1311 336 1285 307 1233 C 278 1181 264 1104 264 1004 C 264 902 278 825 306 772 C 334 718 376 692 432 692 Z M 1231 1475 L 1432 1475 L 754 0 L 553 0 L 1231 1475 Z M 1554 -20 C 1440 -20 1351 23 1285 111 C 1219 199 1186 318 1186 469 C 1186 619 1219 738 1286 825 C 1352 912 1442 956 1554 956 C 1666 956 1755 912 1821 826 C 1887 740 1921 621 1921 469 C 1921 318 1887 199 1821 111 C 1755 23 1666 -20 1554 -20 Z M 1554 158 C 1604 158 1645 182 1675 232 C 1705 281 1720 359 1720 467 C 1720 573 1705 651 1675 701 C 1645 751 1604 776 1554 776 C 1502 776 1461 751 1431 702 C 1401 652 1386 574 1386 467 C 1386 359 1401 281 1431 232 C 1461 182 1502 158 1554 158 Z" unicode="%" />
<glyph horiz-adv-x="1475" d="M 506 -14 C 371 -14 264 20 185 88 C 105 156 66 248 66 365 C 66 469 90 560 138 636 C 186 712 266 782 376 844 C 353 950 342 1053 342 1151 C 342 1234 357 1304 387 1361 C 417 1418 459 1461 515 1491 C 570 1521 635 1536 709 1536 C 795 1536 865 1509 918 1455 C 970 1401 997 1328 997 1237 C 997 1138 967 1051 909 975 C 850 899 751 826 611 758 C 638 668 674 584 719 507 C 763 429 813 366 868 318 C 968 435 1037 628 1073 897 L 1266 879 C 1230 586 1152 366 1032 218 C 1082 199 1137 190 1196 190 C 1238 190 1286 197 1341 211 L 1384 29 C 1356 19 1322 11 1281 6 C 1240 0 1201 -2 1163 -2 C 1056 -2 956 23 864 74 C 763 15 644 -14 506 -14 Z M 701 198 C 581 318 488 474 424 667 C 370 627 332 584 310 538 C 287 492 276 439 276 379 C 276 314 298 263 342 225 C 386 187 448 168 526 168 C 589 168 647 178 701 198 Z M 549 1157 C 549 1080 556 1001 572 921 C 657 973 716 1021 749 1067 C 782 1113 799 1167 799 1229 C 799 1275 788 1308 768 1329 C 747 1349 721 1360 690 1360 C 647 1360 613 1342 587 1306 C 561 1270 549 1220 549 1157 Z" unicode="&#x26;" />
<glyph horiz-adv-x="537" d="M 152 1518 L 385 1518 L 369 877 L 170 877 L 152 1518 Z" unicode="'" />
<glyph horiz-adv-x="836" d="M 518 -369 C 410 -257 326 -114 267 59 C 207 232 178 420 178 623 C 178 754 192 883 222 1010 C 252 1137 293 1253 345 1359 C 397 1465 454 1550 518 1616 L 682 1501 C 496 1281 403 989 403 627 C 403 449 427 283 476 129 C 524 -24 593 -152 682 -252 L 518 -369 Z" unicode="(" />
<glyph horiz-adv-x="836" d="M 156 -252 C 249 -139 318 -8 364 139 C 409 287 432 449 432 623 C 432 797 408 962 360 1116 C 312 1270 244 1399 156 1501 L 317 1616 C 425 1506 509 1363 569 1188 C 629 1013 659 826 659 627 C 659 495 643 365 613 237 C 583 109 541 -8 489 -114 C 436 -220 379 -305 317 -369 L 156 -252 Z" unicode=")" />
<glyph horiz-adv-x="1016" d="M 434 915 L 186 739 L 88 903 L 367 1053 L 88 1206 L 186 1368 L 434 1190 L 418 1520 L 598 1520 L 582 1188 L 829 1368 L 928 1208 L 647 1053 L 928 901 L 831 741 L 582 918 L 598 588 L 418 588 L 434 915 Z" unicode="*" />
<glyph horiz-adv-x="1188" d="M 483 621 L 164 621 L 164 825 L 483 825 L 483 1188 L 705 1188 L 705 825 L 1024 825 L 1024 621 L 705 621 L 705 252 L 483 252 L 483 621 Z" unicode="+" />
<glyph horiz-adv-x="467" d="M 104 -150 C 157 -120 190 -97 203 -80 C 216 -63 223 -36 223 0 L 104 0 L 104 285 L 365 285 L 365 27 C 365 -50 352 -107 326 -145 C 300 -183 246 -222 166 -262 L 104 -150 Z" unicode="," />
<glyph horiz-adv-x="723" d="M 74 756 L 649 756 L 649 553 L 74 553 L 74 756 Z" unicode="-" />
<glyph horiz-adv-x="467" d="M 104 285 L 365 285 L 365 0 L 104 0 L 104 285 Z" unicode="." />
<glyph horiz-adv-x="911" d="M 686 1518 L 911 1518 L 225 0 L 0 0 L 686 1518 Z" unicode="/" />
<glyph horiz-adv-x="1202" d="M 602 -20 C 444 -20 323 44 239 172 C 155 300 113 488 113 737 C 113 982 155 1169 239 1299 C 323 1428 444 1493 602 1493 C 760 1493 881 1428 965 1299 C 1048 1170 1090 983 1090 737 C 1090 491 1048 304 965 174 C 881 44 760 -20 602 -20 Z M 602 182 C 691 182 757 227 799 317 C 841 407 862 547 862 737 C 862 923 841 1061 799 1150 C 757 1239 692 1284 602 1284 C 512 1284 447 1240 405 1153 C 363 1065 342 927 342 737 C 342 545 363 405 405 316 C 447 226 512 182 602 182 Z" unicode="0" />
<glyph horiz-adv-x="748" d="M 88 184 L 293 184 L 293 1253 C 234 1230 161 1219 74 1219 L 74 1421 C 210 1421 313 1439 383 1475 L 516 1475 L 516 184 L 705 184 L 705 0 L 88 0 L 88 184 Z" unicode="1" />
<glyph horiz-adv-x="1044" d="M 78 197 L 383 541 C 491 665 563 753 601 806 C 639 859 665 906 679 947 C 693 987 700 1036 700 1094 C 700 1156 683 1204 651 1238 C 619 1271 574 1288 516 1288 C 456 1288 407 1271 367 1238 C 327 1204 294 1151 268 1077 L 76 1139 C 110 1254 165 1342 241 1402 C 317 1462 413 1493 528 1493 C 652 1493 748 1459 817 1393 C 885 1326 920 1232 920 1112 C 920 1014 895 919 846 827 C 797 734 702 607 561 446 L 326 176 L 760 176 L 760 403 L 948 403 L 948 0 L 78 0 L 78 197 Z" unicode="2" />
<glyph horiz-adv-x="1028" d="M 494 -20 C 230 -20 70 96 14 328 L 217 385 C 256 245 344 176 481 176 C 560 176 622 198 667 243 C 712 288 735 354 735 442 C 735 538 707 606 653 646 C 598 686 503 707 369 707 L 369 887 C 479 887 561 904 613 938 C 665 972 692 1030 692 1110 C 692 1170 675 1216 641 1249 C 607 1281 558 1298 496 1298 C 372 1298 290 1243 252 1133 L 63 1192 C 94 1286 148 1360 225 1413 C 302 1466 394 1493 502 1493 C 628 1493 727 1463 799 1403 C 871 1343 907 1258 907 1149 C 907 1066 888 996 850 938 C 812 880 759 839 690 815 C 866 766 954 639 954 434 C 954 341 935 260 897 192 C 859 123 806 70 736 34 C 666 -1 585 -20 494 -20 Z" unicode="3" />
<glyph horiz-adv-x="1130" d="M 485 180 L 664 180 L 664 369 L 66 369 L 66 530 L 598 1475 L 834 1475 L 309 551 L 666 551 L 717 870 L 872 870 L 872 551 L 1071 551 L 1071 369 L 872 369 L 872 180 L 1034 180 L 1034 0 L 485 0 L 485 180 Z" unicode="4" />
<glyph horiz-adv-x="1065" d="M 514 -20 C 388 -20 285 8 205 66 C 125 124 70 211 41 328 L 246 385 C 285 245 371 176 504 176 C 590 176 654 202 696 254 C 737 306 758 386 758 494 C 758 593 738 669 699 721 C 659 773 601 799 524 799 C 432 799 355 779 293 739 L 121 807 L 168 1475 L 891 1475 L 891 1276 L 350 1276 L 326 909 C 356 931 396 948 447 961 C 498 974 548 981 598 981 C 721 981 816 938 882 853 C 948 767 981 648 981 496 C 981 331 940 204 860 114 C 780 24 664 -20 514 -20 Z" unicode="5" />
<glyph horiz-adv-x="1135" d="M 594 -20 C 436 -20 315 36 233 150 C 150 263 109 429 109 647 C 109 943 164 1156 276 1288 C 388 1419 563 1485 803 1485 C 832 1485 863 1483 895 1479 L 877 1284 L 801 1288 C 645 1288 530 1253 455 1183 C 380 1113 339 998 332 838 C 358 888 400 928 457 958 C 513 988 585 1004 672 1004 C 793 1004 887 961 953 876 C 1019 791 1053 673 1053 522 C 1053 356 1012 224 931 126 C 849 28 737 -20 594 -20 Z M 602 174 C 753 174 829 289 829 520 C 829 621 809 698 771 750 C 733 802 678 829 606 829 C 523 829 458 802 412 749 C 365 695 342 622 342 528 C 342 292 428 174 602 174 Z" unicode="6" />
<glyph horiz-adv-x="989" d="M 322 0 C 339 266 380 499 446 697 C 511 895 612 1092 748 1286 L 279 1286 L 279 1042 L 86 1042 L 86 1475 L 975 1475 L 975 1309 C 710 943 567 507 547 0 L 322 0 Z" unicode="7" />
<glyph horiz-adv-x="1126" d="M 563 -31 C 415 -31 299 9 216 90 C 133 170 92 280 92 420 C 92 620 169 751 324 813 C 261 845 215 886 187 937 C 159 987 145 1052 145 1130 C 145 1202 161 1267 194 1323 C 227 1379 275 1422 339 1453 C 403 1483 477 1499 563 1499 C 694 1499 796 1466 869 1400 C 942 1334 979 1244 979 1130 C 979 1059 965 997 937 943 C 909 889 861 846 793 813 C 875 783 936 738 976 676 C 1016 614 1036 529 1036 420 C 1036 282 994 173 910 91 C 826 9 710 -31 563 -31 Z M 563 154 C 645 154 708 178 750 227 C 792 276 813 345 813 434 C 813 524 791 595 748 645 C 704 695 643 721 563 721 C 483 721 422 695 380 645 C 338 594 317 524 317 434 C 317 346 337 277 378 228 C 419 178 481 154 563 154 Z M 563 881 C 625 881 673 900 709 939 C 744 977 762 1032 762 1102 C 762 1167 744 1219 710 1257 C 676 1295 627 1315 563 1315 C 500 1315 451 1296 417 1259 C 382 1221 365 1169 365 1102 C 365 1032 382 978 416 939 C 450 900 499 881 563 881 Z" unicode="8" />
<glyph horiz-adv-x="1110" d="M 334 -12 C 288 -12 258 -10 244 -6 L 260 188 L 336 182 C 442 182 529 197 595 229 C 661 261 711 308 745 370 C 779 432 799 519 805 633 C 743 522 630 467 465 467 C 344 467 250 509 184 595 C 117 681 84 800 84 954 C 84 1060 102 1154 138 1236 C 174 1318 227 1381 297 1426 C 367 1470 449 1493 543 1493 C 703 1493 823 1436 905 1323 C 987 1209 1028 1043 1028 825 C 1028 531 972 318 861 186 C 749 54 574 -12 334 -12 Z M 532 643 C 612 643 676 669 723 721 C 769 773 793 846 793 940 C 793 1058 771 1147 727 1207 C 683 1266 620 1296 537 1296 C 383 1296 307 1180 307 950 C 307 850 326 773 364 721 C 402 669 458 643 532 643 Z" unicode="9" />
<glyph horiz-adv-x="504" d="M 123 283 L 383 283 L 383 0 L 123 0 L 123 283 Z M 123 1141 L 383 1141 L 383 858 L 123 858 L 123 1141 Z" unicode=":" />
<glyph horiz-adv-x="504" d="M 123 1141 L 383 1141 L 383 858 L 123 858 L 123 1141 Z M 123 -150 C 176 -120 209 -96 222 -80 C 235 -63 242 -36 242 0 L 123 0 L 123 283 L 383 283 L 383 27 C 383 -50 370 -107 344 -145 C 318 -183 264 -222 184 -262 L 123 -150 Z" unicode=";" />
<glyph horiz-adv-x="1188" d="M 213 625 L 213 797 L 942 1204 L 942 991 L 430 711 L 942 432 L 942 217 L 213 625 Z" unicode="&#x3C;" />
<glyph horiz-adv-x="1188" d="M 174 602 L 1016 602 L 1016 397 L 174 397 L 174 602 Z M 174 1026 L 1016 1026 L 1016 823 L 174 823 L 174 1026 Z" unicode="=" />
<glyph horiz-adv-x="1188" d="M 248 430 L 758 709 L 248 989 L 248 1204 L 977 797 L 977 623 L 248 217 L 248 430 Z" unicode="&#x3E;" />
<glyph horiz-adv-x="1118" d="M 420 430 C 417 446 416 470 416 500 C 416 571 431 636 461 696 C 491 756 534 811 590 862 C 652 918 697 968 724 1010 C 750 1052 764 1096 764 1143 C 764 1203 746 1250 712 1284 C 677 1318 625 1335 557 1335 C 437 1335 352 1269 301 1139 L 109 1204 C 144 1308 203 1390 285 1450 C 367 1510 463 1540 573 1540 C 703 1540 804 1507 876 1442 C 948 1376 985 1284 985 1165 C 985 1098 970 1037 941 981 C 912 925 867 868 807 811 C 743 751 697 696 670 648 C 642 599 629 547 629 492 C 629 464 630 444 633 430 L 420 430 Z M 393 262 L 653 262 L 653 0 L 393 0 L 393 262 Z" unicode="?" />
<glyph horiz-adv-x="1708" d="M 872 -326 C 622 -326 434 -248 307 -92 C 180 63 117 294 117 602 C 117 900 182 1129 314 1291 C 446 1453 634 1534 879 1534 C 1111 1534 1288 1461 1409 1315 C 1530 1169 1591 958 1591 682 C 1591 468 1565 317 1513 227 C 1461 137 1373 92 1249 92 C 1181 92 1126 107 1086 139 C 1046 170 1024 212 1022 266 C 991 207 950 163 898 133 C 846 103 787 88 719 88 C 624 88 551 121 501 189 C 451 256 426 355 426 487 C 426 612 443 726 478 829 C 513 931 560 1008 620 1060 C 680 1111 749 1137 827 1137 C 892 1137 947 1123 991 1095 C 1035 1067 1065 1028 1081 977 L 1153 1120 L 1288 1106 L 1188 377 L 1184 316 C 1184 278 1191 250 1207 234 C 1223 217 1247 209 1280 209 C 1348 209 1395 245 1423 317 C 1450 389 1464 511 1464 682 C 1464 922 1414 1104 1316 1228 C 1218 1351 1072 1413 879 1413 C 674 1413 517 1344 409 1206 C 300 1068 246 866 246 602 C 246 338 299 138 405 2 C 511 -134 667 -203 872 -203 C 933 -203 999 -193 1069 -175 C 1139 -157 1201 -132 1257 -100 L 1317 -207 C 1263 -243 1196 -271 1117 -293 C 1037 -315 956 -326 872 -326 Z M 778 258 C 860 258 923 300 969 385 C 1015 470 1038 587 1038 737 C 1038 883 978 956 858 956 C 812 956 772 938 738 902 C 704 866 676 811 656 738 C 635 664 625 586 625 502 C 625 418 637 356 663 317 C 688 277 726 258 778 258 Z" unicode="@" />
<glyph horiz-adv-x="1395" d="M 49 186 L 152 186 L 573 1528 L 821 1528 L 1243 186 L 1348 186 L 1348 0 L 829 0 L 829 182 L 1010 182 L 936 426 L 436 426 L 362 182 L 530 182 L 530 0 L 49 0 L 49 186 Z M 885 602 L 690 1237 L 489 602 L 885 602 Z" unicode="A" />
<glyph horiz-adv-x="1235" d="M 49 186 L 201 186 L 201 1327 L 49 1327 L 49 1518 L 647 1518 C 802 1518 919 1485 998 1419 C 1076 1353 1116 1259 1116 1135 C 1116 966 1040 854 889 799 C 978 773 1045 730 1089 669 C 1133 608 1155 526 1155 422 C 1155 286 1110 181 1022 109 C 934 36 808 0 645 0 L 49 0 L 49 186 Z M 653 186 C 746 186 815 206 859 247 C 903 288 926 352 926 438 C 926 522 903 584 858 626 C 813 667 743 688 649 688 L 426 688 L 426 186 L 653 186 Z M 641 870 C 725 870 787 890 827 932 C 867 973 887 1030 887 1104 C 887 1254 803 1329 635 1329 L 426 1329 L 426 870 L 641 870 Z" unicode="B" />
<glyph horiz-adv-x="1274" d="M 645 -20 C 464 -20 323 49 223 187 C 122 325 72 514 72 754 C 72 906 95 1043 142 1163 C 189 1283 256 1375 342 1441 C 428 1507 527 1540 637 1540 C 803 1540 913 1481 969 1364 L 969 1518 L 1157 1518 L 1157 1042 L 956 1042 C 940 1139 908 1211 860 1257 C 811 1303 742 1327 653 1327 C 544 1327 458 1276 396 1175 C 334 1074 303 934 303 754 C 303 571 334 431 397 333 C 459 235 548 186 664 186 C 835 186 943 288 987 492 L 1190 453 C 1160 301 1097 185 1003 103 C 909 21 789 -20 645 -20 Z" unicode="C" />
<glyph horiz-adv-x="1311" d="M 49 186 L 201 186 L 201 1327 L 49 1327 L 49 1518 L 604 1518 C 810 1518 968 1453 1076 1324 C 1184 1195 1239 1007 1239 760 C 1239 514 1183 326 1072 196 C 960 65 800 0 590 0 L 49 0 L 49 186 Z M 610 190 C 745 190 845 237 909 331 C 973 425 1006 568 1006 760 C 1006 956 972 1098 906 1188 C 840 1278 737 1323 598 1323 L 430 1323 L 430 190 L 610 190 Z" unicode="D" />
<glyph horiz-adv-x="1176" d="M 49 186 L 201 186 L 201 1327 L 49 1327 L 49 1518 L 1077 1518 L 1077 1042 L 868 1042 L 868 1333 L 430 1333 L 430 864 L 793 864 L 793 676 L 430 676 L 430 182 L 879 182 L 879 508 L 1087 508 L 1087 0 L 49 0 L 49 186 Z" unicode="E" />
<glyph horiz-adv-x="1145" d="M 49 186 L 201 186 L 201 1327 L 49 1327 L 49 1518 L 1071 1518 L 1071 1042 L 860 1042 L 860 1333 L 430 1333 L 430 838 L 797 838 L 797 649 L 430 649 L 430 186 L 612 186 L 612 0 L 49 0 L 49 186 Z" unicode="F" />
<glyph horiz-adv-x="1309" d="M 606 -20 C 440 -20 309 48 214 185 C 119 321 72 510 72 750 C 72 905 95 1043 142 1163 C 188 1283 254 1376 340 1442 C 426 1507 524 1540 635 1540 C 719 1540 789 1524 845 1494 C 901 1463 943 1420 969 1364 L 969 1518 L 1155 1518 L 1155 1042 L 958 1042 C 941 1136 908 1207 859 1255 C 810 1303 742 1327 655 1327 C 541 1327 454 1277 394 1178 C 333 1078 303 936 303 752 C 303 561 334 418 396 324 C 458 229 546 182 662 182 C 764 182 842 215 895 282 C 947 348 977 452 983 592 L 682 592 L 682 778 L 1180 778 L 1180 0 L 1038 0 L 999 195 C 965 125 914 71 846 35 C 778 -1 698 -20 606 -20 Z" unicode="G" />
<glyph horiz-adv-x="1446" d="M 49 186 L 201 186 L 201 1327 L 49 1327 L 49 1518 L 614 1518 L 614 1331 L 430 1331 L 430 879 L 1016 879 L 1016 1331 L 831 1331 L 831 1518 L 1397 1518 L 1397 1327 L 1245 1327 L 1245 186 L 1397 186 L 1397 0 L 831 0 L 831 184 L 1016 184 L 1016 682 L 430 682 L 430 184 L 614 184 L 614 0 L 49 0 L 49 186 Z" unicode="H" />
<glyph horiz-adv-x="657" d="M 49 186 L 215 186 L 215 1327 L 49 1327 L 49 1518 L 610 1518 L 610 1327 L 442 1327 L 442 186 L 610 186 L 610 0 L 49 0 L 49 186 Z" unicode="I" />
<glyph horiz-adv-x="858" d="M 76 215 C 137 200 198 193 260 193 C 324 193 370 208 398 239 C 426 269 440 319 440 389 L 440 1327 L 279 1327 L 279 1518 L 811 1518 L 811 1327 L 670 1327 L 670 371 C 670 243 637 148 573 84 C 508 20 413 -12 289 -12 C 185 -12 99 -3 31 14 L 76 215 Z" unicode="J" />
<glyph horiz-adv-x="1348" d="M 49 186 L 201 186 L 201 1327 L 49 1327 L 49 1518 L 555 1518 L 555 1331 L 426 1331 L 426 725 L 881 1331 L 766 1331 L 766 1518 L 1255 1518 L 1255 1327 L 1114 1327 L 797 905 L 1182 186 L 1298 186 L 1298 0 L 786 0 L 786 180 L 936 180 L 641 723 L 426 440 L 426 180 L 561 180 L 561 0 L 49 0 L 49 186 Z" unicode="K" />
<glyph horiz-adv-x="1137" d="M 49 186 L 201 186 L 201 1327 L 49 1327 L 49 1518 L 610 1518 L 610 1327 L 430 1327 L 430 182 L 852 182 L 852 508 L 1061 508 L 1061 0 L 49 0 L 49 186 Z" unicode="L" />
<glyph horiz-adv-x="1720" d="M 49 186 L 201 186 L 201 1327 L 49 1327 L 49 1518 L 508 1518 L 858 403 L 1217 1518 L 1673 1518 L 1673 1329 L 1520 1329 L 1520 186 L 1673 186 L 1673 0 L 1145 0 L 1145 184 L 1300 184 L 1300 1151 L 936 0 L 770 0 L 410 1155 L 410 184 L 565 184 L 565 0 L 49 0 L 49 186 Z" unicode="M" />
<glyph horiz-adv-x="1446" d="M 49 186 L 201 186 L 201 1327 L 49 1327 L 49 1518 L 457 1518 L 1044 440 L 1044 1327 L 895 1327 L 895 1518 L 1397 1518 L 1397 1327 L 1255 1327 L 1255 0 L 1042 0 L 412 1135 L 412 186 L 582 186 L 582 0 L 49 0 L 49 186 Z" unicode="N" />
<glyph horiz-adv-x="1343" d="M 672 -20 C 553 -20 448 12 357 76 C 265 140 195 232 146 351 C 96 469 72 606 72 760 C 72 914 96 1050 145 1168 C 194 1286 264 1378 356 1443 C 447 1507 552 1540 672 1540 C 791 1540 896 1508 988 1444 C 1079 1380 1149 1289 1199 1171 C 1249 1053 1274 916 1274 760 C 1274 607 1249 471 1199 353 C 1149 235 1078 143 986 78 C 894 12 789 -20 672 -20 Z M 672 186 C 788 186 878 237 943 339 C 1007 441 1040 580 1040 758 C 1040 936 1007 1075 942 1177 C 876 1278 786 1329 672 1329 C 557 1329 467 1278 401 1177 C 335 1075 303 936 303 758 C 303 578 335 438 401 337 C 467 236 557 186 672 186 Z" unicode="O" />
<glyph horiz-adv-x="1237" d="M 49 186 L 201 186 L 201 1327 L 49 1327 L 49 1518 L 672 1518 C 836 1518 960 1476 1046 1394 C 1131 1312 1174 1194 1174 1040 C 1174 882 1130 762 1042 679 C 954 596 830 555 668 555 L 430 555 L 430 186 L 614 186 L 614 0 L 49 0 L 49 186 Z M 676 737 C 767 737 834 761 877 809 C 920 857 942 931 942 1030 C 942 1130 920 1204 877 1253 C 833 1302 763 1327 666 1327 L 430 1327 L 430 737 L 676 737 Z" unicode="P" />
<glyph horiz-adv-x="1343" d="M 829 -358 C 710 -358 626 -328 578 -270 C 529 -211 505 -132 505 -32 L 506 12 C 370 48 264 132 187 264 C 110 395 72 561 72 762 C 72 916 96 1053 145 1171 C 194 1289 264 1380 355 1444 C 446 1508 552 1540 672 1540 C 792 1540 898 1508 990 1445 C 1081 1382 1151 1292 1200 1174 C 1249 1056 1274 919 1274 762 C 1274 539 1223 359 1122 222 C 1021 84 884 10 711 -2 C 712 -64 724 -107 746 -130 C 768 -152 804 -164 856 -164 C 917 -164 985 -149 1059 -121 L 1122 -301 C 1083 -318 1036 -332 982 -342 C 928 -352 877 -358 829 -358 Z M 672 186 C 788 186 878 237 943 339 C 1007 441 1040 580 1040 758 C 1040 936 1007 1075 942 1177 C 876 1278 786 1329 672 1329 C 557 1329 467 1278 401 1177 C 335 1075 303 936 303 758 C 303 578 335 438 401 337 C 467 236 557 186 672 186 Z" unicode="Q" />
<glyph horiz-adv-x="1282" d="M 49 186 L 201 186 L 201 1327 L 49 1327 L 49 1518 L 649 1518 C 813 1518 938 1477 1024 1397 C 1110 1317 1153 1201 1153 1051 C 1153 940 1129 849 1081 777 C 1033 705 963 654 872 623 L 1098 186 L 1233 186 L 1233 0 L 737 0 L 737 184 L 854 184 L 655 578 L 426 578 L 426 184 L 555 184 L 555 0 L 49 0 L 49 186 Z M 657 764 C 749 764 816 786 858 832 C 900 878 922 948 922 1044 C 922 1140 900 1212 856 1258 C 812 1304 742 1327 645 1327 L 426 1327 L 426 764 L 657 764 Z" unicode="R" />
<glyph horiz-adv-x="1153" d="M 614 -20 C 437 -20 320 35 264 147 L 264 0 L 84 0 L 84 508 L 272 508 C 286 386 318 301 368 251 C 418 201 492 176 590 176 C 767 176 856 245 856 385 C 856 441 836 490 797 532 C 757 574 699 611 622 644 C 496 696 408 736 359 763 C 310 789 268 820 233 854 C 197 888 169 929 147 976 C 125 1023 115 1080 115 1147 C 115 1263 154 1357 234 1429 C 313 1501 416 1538 543 1538 C 699 1538 802 1489 852 1391 L 852 1518 L 1030 1518 L 1030 1042 L 844 1042 C 832 1144 804 1218 760 1264 C 715 1310 653 1333 573 1333 C 497 1333 439 1316 399 1282 C 359 1248 340 1203 340 1147 C 340 1095 359 1049 397 1010 C 435 970 494 934 575 900 C 701 846 788 806 837 780 C 886 753 928 722 964 688 C 999 653 1027 612 1049 564 C 1070 516 1081 460 1081 395 C 1081 265 1039 163 955 90 C 871 16 758 -20 614 -20 Z" unicode="S" />
<glyph horiz-adv-x="1296" d="M 358 184 L 535 184 L 535 1333 L 266 1333 L 266 1042 L 70 1042 L 70 1518 L 1227 1518 L 1227 1042 L 1032 1042 L 1032 1333 L 764 1333 L 764 184 L 938 184 L 938 0 L 358 0 L 358 184 Z" unicode="T" />
<glyph horiz-adv-x="1425" d="M 713 -20 C 541 -20 410 25 320 115 C 230 205 186 336 186 510 L 186 1327 L 49 1327 L 49 1518 L 608 1518 L 608 1331 L 416 1331 L 416 522 C 416 408 440 322 490 266 C 539 210 615 182 717 182 C 819 182 894 209 943 263 C 991 317 1016 404 1016 522 L 1016 1331 L 827 1331 L 827 1518 L 1376 1518 L 1376 1327 L 1239 1327 L 1239 510 C 1239 338 1193 206 1103 116 C 1013 25 883 -20 713 -20 Z" unicode="U" />
<glyph horiz-adv-x="1389" d="M 152 1327 L 49 1327 L 49 1518 L 561 1518 L 561 1331 L 383 1331 L 700 297 L 1018 1331 L 850 1331 L 850 1518 L 1341 1518 L 1341 1327 L 1235 1327 L 811 -10 L 571 -10 L 152 1327 Z" unicode="V" />
<glyph horiz-adv-x="1937" d="M 178 1327 L 49 1327 L 49 1518 L 553 1518 L 553 1331 L 399 1331 L 614 383 L 877 1518 L 1071 1518 L 1333 383 L 1550 1331 L 1393 1331 L 1393 1518 L 1888 1518 L 1888 1327 L 1757 1327 L 1444 -10 L 1229 -10 L 969 1110 L 707 -10 L 492 -10 L 178 1327 Z" unicode="W" />
<glyph horiz-adv-x="1358" d="M 49 186 L 174 186 L 547 778 L 203 1327 L 70 1327 L 70 1518 L 594 1518 L 594 1331 L 457 1331 L 696 950 L 930 1331 L 799 1331 L 799 1518 L 1286 1518 L 1286 1327 L 1157 1327 L 811 776 L 1184 186 L 1309 186 L 1309 0 L 776 0 L 776 182 L 928 182 L 662 608 L 401 182 L 557 182 L 557 0 L 49 0 L 49 186 Z" unicode="X" />
<glyph horiz-adv-x="1335" d="M 377 184 L 555 184 L 555 557 L 156 1327 L 49 1327 L 49 1518 L 561 1518 L 561 1331 L 389 1331 L 676 764 L 956 1331 L 793 1331 L 793 1518 L 1288 1518 L 1288 1327 L 1180 1327 L 784 555 L 784 184 L 961 184 L 961 0 L 377 0 L 377 184 Z" unicode="Y" />
<glyph horiz-adv-x="1122" d="M 49 168 L 795 1337 L 276 1337 L 276 1042 L 70 1042 L 70 1518 L 1053 1518 L 1053 1343 L 309 180 L 866 180 L 866 508 L 1075 508 L 1075 0 L 49 0 L 49 168 Z" unicode="Z" />
<glyph horiz-adv-x="836" d="M 193 1577 L 682 1577 L 682 1386 L 418 1386 L 418 -143 L 688 -143 L 688 -326 L 193 -326 L 193 1577 Z" unicode="[" />
<glyph horiz-adv-x="911" d="M 0 1518 L 225 1518 L 911 0 L 686 0 L 0 1518 Z" unicode="\" />
<glyph horiz-adv-x="836" d="M 152 -143 L 422 -143 L 422 1386 L 154 1386 L 154 1577 L 645 1577 L 645 -326 L 152 -326 L 152 -143 Z" unicode="]" />
<glyph horiz-adv-x="1188" d="M 1051 745 L 836 745 L 592 1251 L 346 745 L 131 745 L 504 1475 L 678 1475 L 1051 745 Z" unicode="^" />
<glyph horiz-adv-x="752" d="M -63 -104 L 813 -104 L 813 -274 L -63 -274 L -63 -104 Z" unicode="_" />
<glyph horiz-adv-x="979" d="M 221 1391 L 281 1577 L 750 1389 L 705 1243 L 221 1391 Z" unicode="`" />
<glyph horiz-adv-x="1061" d="M 696 170 C 640 46 531 -16 369 -16 C 270 -16 194 15 142 78 C 89 140 63 228 63 340 C 63 464 101 557 178 621 C 254 685 364 717 506 717 C 547 717 606 710 682 698 L 682 727 C 682 816 668 878 641 913 C 613 947 570 965 512 965 C 457 965 406 954 360 934 C 314 914 274 890 242 862 L 119 1022 C 231 1118 368 1167 528 1167 C 656 1167 750 1133 810 1066 C 869 998 899 891 899 743 L 899 184 L 1036 184 L 1036 10 L 727 -8 L 696 170 Z M 434 172 C 513 172 574 196 617 245 C 660 294 682 365 682 459 L 682 541 C 642 550 599 555 551 555 C 455 555 386 538 342 504 C 298 470 276 420 276 352 C 276 232 328 172 434 172 Z" unicode="a" />
<glyph horiz-adv-x="1169" d="M 711 -16 C 554 -16 443 42 379 160 L 346 -10 L 47 10 L 47 184 L 176 184 L 176 1370 L 35 1370 L 35 1556 L 395 1577 L 395 973 C 455 1102 565 1167 727 1167 C 847 1167 938 1115 1002 1013 C 1066 911 1098 764 1098 573 C 1098 385 1064 240 997 138 C 929 35 834 -16 711 -16 Z M 655 178 C 801 178 874 307 874 567 C 874 831 801 963 655 963 C 569 963 504 929 460 863 C 416 796 395 697 395 567 C 395 434 416 336 460 273 C 503 209 568 178 655 178 Z" unicode="b" />
<glyph horiz-adv-x="1022" d="M 512 -16 C 371 -16 262 34 186 135 C 110 236 72 382 72 573 C 72 685 90 788 128 882 C 166 975 216 1045 279 1092 C 342 1139 415 1163 498 1163 C 626 1163 712 1114 756 1016 L 756 1141 L 922 1141 L 922 739 L 748 739 C 734 815 710 872 676 908 C 641 944 592 963 528 963 C 453 963 395 929 355 861 C 315 793 295 697 295 571 C 295 309 375 178 537 178 C 593 178 638 195 673 229 C 707 263 736 321 758 401 L 946 350 C 886 106 741 -16 512 -16 Z" unicode="c" />
<glyph horiz-adv-x="1169" d="M 442 -18 C 323 -18 232 33 168 136 C 104 238 72 386 72 578 C 72 768 105 913 171 1015 C 237 1116 333 1167 457 1167 C 605 1167 711 1110 774 997 L 774 1372 L 614 1372 L 614 1559 L 993 1577 L 993 184 L 1145 184 L 1145 10 L 825 -8 L 795 180 C 761 117 714 68 654 34 C 594 0 523 -18 442 -18 Z M 512 180 C 686 180 774 311 774 575 C 774 707 752 805 709 869 C 666 933 600 965 512 965 C 367 965 295 835 295 575 C 295 311 367 180 512 180 Z" unicode="d" />
<glyph horiz-adv-x="1022" d="M 512 -18 C 370 -18 261 33 186 135 C 111 237 74 383 74 575 C 74 697 93 804 131 896 C 169 987 222 1055 290 1100 C 358 1144 438 1167 532 1167 C 600 1167 658 1155 708 1133 C 757 1110 798 1077 830 1033 C 862 989 886 931 903 860 C 920 788 929 697 930 585 L 928 500 L 293 500 C 305 278 382 168 524 168 C 578 168 623 182 659 211 C 694 239 724 286 748 352 L 934 295 C 904 193 852 116 780 62 C 708 8 618 -18 512 -18 Z M 719 678 C 717 775 700 848 667 898 C 633 948 586 973 524 973 C 392 973 316 874 295 678 L 719 678 Z" unicode="e" />
<glyph horiz-adv-x="731" d="M 49 184 L 233 184 L 233 950 L 49 950 L 49 1141 L 233 1141 L 233 1229 C 233 1459 351 1575 588 1575 C 652 1575 701 1572 735 1567 L 711 1372 C 681 1376 644 1378 600 1378 C 548 1378 510 1366 487 1344 C 464 1322 453 1283 453 1227 L 453 1141 L 707 1141 L 707 950 L 453 950 L 453 184 L 707 184 L 707 0 L 49 0 L 49 184 Z" unicode="f" />
<glyph horiz-adv-x="1012" d="M 432 -346 C 298 -346 195 -322 124 -276 C 53 -229 18 -162 18 -76 C 18 -13 38 40 79 86 C 119 131 178 162 256 180 C 190 207 158 257 158 330 C 158 384 183 435 233 481 C 185 512 148 553 122 604 C 95 655 82 715 82 784 C 82 900 119 992 193 1062 C 267 1132 366 1167 492 1167 C 543 1167 597 1160 653 1147 L 922 1249 L 965 1059 L 780 1059 C 864 993 907 900 907 778 C 907 666 869 577 795 513 C 720 448 619 416 492 416 C 442 416 398 421 362 432 C 350 416 344 397 344 375 C 344 353 349 337 361 327 C 372 317 391 310 419 306 C 447 301 488 297 543 295 C 659 290 748 277 810 257 C 871 237 916 206 944 166 C 972 125 987 70 987 2 C 987 -110 939 -196 844 -256 C 749 -316 612 -346 432 -346 Z M 449 -184 C 559 -184 639 -170 691 -143 C 742 -115 768 -74 768 -18 C 768 22 757 53 735 73 C 713 93 679 107 631 115 C 583 123 527 127 465 127 C 395 127 339 112 299 83 C 258 54 238 15 238 -35 C 238 -134 308 -184 449 -184 Z M 494 571 C 558 571 607 589 641 626 C 675 663 692 713 692 776 C 692 838 675 888 641 926 C 607 964 558 983 494 983 C 431 983 382 964 347 926 C 312 888 295 838 295 776 C 295 713 312 663 347 626 C 382 589 431 571 494 571 Z" unicode="g" />
<glyph horiz-adv-x="1190" d="M 49 184 L 176 184 L 176 1370 L 35 1370 L 35 1556 L 393 1577 L 393 985 C 451 1106 556 1167 707 1167 C 815 1167 896 1133 949 1065 C 1001 997 1028 892 1028 750 L 1028 184 L 1165 184 L 1165 0 L 668 0 L 668 184 L 807 184 L 807 713 C 807 805 792 870 764 906 C 735 942 689 961 627 961 C 547 961 488 936 450 888 C 412 839 393 763 393 659 L 393 184 L 532 184 L 532 0 L 49 0 L 49 184 Z" unicode="h" />
<glyph horiz-adv-x="590" d="M 49 184 L 197 184 L 197 950 L 49 950 L 49 1135 L 416 1153 L 416 184 L 565 184 L 565 0 L 49 0 L 49 184 Z M 184 1524 L 418 1524 L 418 1276 L 184 1276 L 184 1524 Z" unicode="i" />
<glyph horiz-adv-x="526" d="M 16 -139 C 38 -143 58 -145 76 -145 C 118 -145 146 -136 161 -118 C 176 -100 184 -71 184 -29 L 184 950 L 37 950 L 37 1133 L 403 1153 L 403 -31 C 403 -142 378 -221 330 -267 C 281 -313 198 -336 80 -336 C 44 -336 18 -334 0 -332 L 16 -139 Z M 172 1524 L 406 1524 L 406 1276 L 172 1276 L 172 1524 Z" unicode="j" />
<glyph horiz-adv-x="1133" d="M 49 184 L 176 184 L 176 1370 L 35 1370 L 35 1556 L 391 1577 L 391 565 L 698 958 L 567 958 L 567 1141 L 1034 1141 L 1034 950 L 922 950 L 698 672 L 987 184 L 1108 184 L 1108 0 L 649 0 L 649 182 L 741 182 L 545 518 L 391 324 L 391 182 L 500 182 L 500 0 L 49 0 L 49 184 Z" unicode="k" />
<glyph horiz-adv-x="588" d="M 49 184 L 184 184 L 184 1370 L 35 1370 L 35 1556 L 403 1577 L 403 184 L 563 184 L 563 0 L 49 0 L 49 184 Z" unicode="l" />
<glyph horiz-adv-x="1794" d="M 49 184 L 188 184 L 188 950 L 49 950 L 49 1135 L 356 1153 L 387 969 C 411 1031 451 1080 505 1115 C 559 1149 627 1167 711 1167 C 783 1167 842 1150 888 1117 C 934 1083 968 1030 989 958 C 1040 1097 1151 1167 1321 1167 C 1427 1167 1505 1134 1555 1069 C 1605 1004 1630 898 1630 750 L 1630 184 L 1769 184 L 1769 0 L 1282 0 L 1282 184 L 1411 184 L 1411 713 C 1411 807 1398 872 1372 908 C 1346 943 1303 961 1243 961 C 1166 961 1110 937 1074 889 C 1038 841 1020 765 1020 659 L 1020 184 L 1147 184 L 1147 0 L 672 0 L 672 184 L 799 184 L 799 713 C 799 807 786 872 760 908 C 734 943 691 961 631 961 C 555 961 498 937 462 890 C 426 842 408 765 408 659 L 408 184 L 535 184 L 535 0 L 49 0 L 49 184 Z" unicode="m" />
<glyph horiz-adv-x="1202" d="M 49 184 L 188 184 L 188 950 L 49 950 L 49 1135 L 356 1153 L 387 969 C 411 1031 452 1080 509 1115 C 565 1149 636 1167 721 1167 C 828 1167 908 1133 961 1067 C 1013 1000 1040 894 1040 750 L 1040 184 L 1178 184 L 1178 0 L 682 0 L 682 184 L 819 184 L 819 713 C 819 805 805 869 777 906 C 749 942 704 961 641 961 C 562 961 503 937 465 889 C 427 841 408 764 408 659 L 408 184 L 545 184 L 545 0 L 49 0 L 49 184 Z" unicode="n" />
<glyph horiz-adv-x="1075" d="M 539 -20 C 392 -20 277 32 195 136 C 113 240 72 386 72 573 C 72 759 112 905 193 1010 C 274 1114 389 1167 539 1167 C 687 1167 802 1114 884 1008 C 965 902 1006 757 1006 573 C 1006 387 964 242 882 137 C 800 32 685 -20 539 -20 Z M 539 176 C 619 176 679 210 720 279 C 761 348 782 445 782 569 C 782 694 761 791 720 860 C 679 928 619 963 539 963 C 460 963 399 929 357 861 C 314 793 293 696 293 569 C 293 441 314 343 356 276 C 398 209 459 176 539 176 Z" unicode="o" />
<glyph horiz-adv-x="1169" d="M 37 -145 L 176 -145 L 176 950 L 37 950 L 37 1135 L 344 1153 L 377 956 C 407 1025 452 1077 512 1113 C 572 1149 643 1167 727 1167 C 847 1167 938 1115 1002 1013 C 1066 910 1098 763 1098 573 C 1098 383 1064 237 998 137 C 931 36 835 -14 711 -14 C 567 -14 461 46 395 166 L 395 -145 L 549 -145 L 549 -326 L 37 -326 L 37 -145 Z M 659 178 C 802 178 874 307 874 567 C 874 697 855 796 819 863 C 783 929 729 963 659 963 C 573 963 507 929 462 861 C 417 793 395 695 395 567 C 395 443 416 347 459 279 C 502 211 569 178 659 178 Z" unicode="p" />
<glyph horiz-adv-x="1169" d="M 621 -145 L 774 -145 L 774 176 C 745 114 702 66 645 33 C 588 0 520 -16 442 -16 C 322 -16 231 35 167 139 C 103 243 72 388 72 575 C 72 767 105 913 172 1015 C 238 1116 333 1167 457 1167 C 617 1167 729 1108 791 991 L 831 1153 L 1133 1135 L 1133 950 L 993 950 L 993 -145 L 1133 -145 L 1133 -326 L 621 -326 L 621 -145 Z M 512 180 C 686 180 774 312 774 578 C 774 709 752 806 710 870 C 667 933 601 965 512 965 C 367 965 295 836 295 578 C 295 312 367 180 512 180 Z" unicode="q" />
<glyph horiz-adv-x="772" d="M 49 184 L 188 184 L 188 950 L 49 950 L 49 1135 L 356 1153 L 391 961 C 441 1079 540 1145 688 1159 L 715 942 C 607 936 528 909 480 861 C 432 813 408 735 408 629 L 408 184 L 565 184 L 565 0 L 49 0 L 49 184 Z" unicode="r" />
<glyph horiz-adv-x="928" d="M 510 -14 C 439 -14 379 -1 330 22 C 281 46 247 81 227 127 L 227 0 L 66 0 L 66 408 L 238 408 C 248 327 274 266 317 224 C 359 182 413 162 477 162 C 600 162 662 209 662 303 C 662 340 647 372 618 398 C 588 424 542 448 479 469 C 354 509 269 545 224 576 C 178 606 144 644 120 689 C 96 733 84 786 84 848 C 84 942 116 1018 181 1077 C 245 1135 327 1165 426 1165 C 486 1165 538 1154 582 1132 C 626 1110 658 1078 678 1036 L 678 1141 L 840 1141 L 840 782 L 668 782 C 656 848 633 898 599 930 C 565 962 519 979 459 979 C 407 979 367 967 341 943 C 314 919 301 887 301 846 C 301 808 315 775 345 749 C 375 723 421 700 483 681 C 608 641 693 605 739 575 C 784 545 818 508 842 464 C 865 420 877 368 877 309 C 877 213 843 135 777 75 C 710 15 621 -14 510 -14 Z" unicode="s" />
<glyph horiz-adv-x="780" d="M 487 -10 C 383 -10 308 12 264 56 C 219 100 197 178 197 291 L 197 950 L 23 950 L 23 1141 L 205 1141 L 244 1456 L 414 1456 L 414 1141 L 698 1141 L 698 950 L 414 950 L 414 322 C 414 279 417 249 424 233 C 431 217 443 205 460 197 C 477 189 502 186 535 186 C 559 186 587 189 619 196 C 651 202 672 207 680 211 L 727 29 C 657 3 577 -10 487 -10 Z" unicode="t" />
<glyph horiz-adv-x="1186" d="M 481 -18 C 372 -18 292 14 240 78 C 188 142 162 249 162 399 L 162 950 L 37 950 L 37 1133 L 383 1155 L 383 428 C 383 335 396 270 424 234 C 452 198 497 180 561 180 C 641 180 699 202 736 247 C 772 291 791 369 791 479 L 791 950 L 618 950 L 618 1133 L 1012 1155 L 1012 184 L 1161 184 L 1161 10 L 842 -8 L 811 172 C 757 45 647 -18 481 -18 Z" unicode="u" />
<glyph horiz-adv-x="1118" d="M 133 950 L 25 950 L 25 1141 L 504 1141 L 504 952 L 356 952 L 567 248 L 778 952 L 645 952 L 645 1141 L 1094 1141 L 1094 950 L 987 950 L 688 -12 L 430 -12 L 133 950 Z" unicode="v" />
<glyph horiz-adv-x="1616" d="M 135 950 L 25 950 L 25 1141 L 477 1141 L 477 950 L 346 950 L 506 297 L 725 1139 L 901 1139 L 1116 295 L 1278 950 L 1139 950 L 1139 1141 L 1591 1141 L 1591 950 L 1479 950 L 1229 -12 L 1014 -12 L 807 795 L 602 -12 L 381 -12 L 135 950 Z" unicode="w" />
<glyph horiz-adv-x="1106" d="M 49 184 L 152 184 L 432 590 L 178 950 L 72 950 L 72 1141 L 516 1141 L 516 965 L 422 965 L 588 729 L 750 965 L 659 965 L 659 1141 L 1067 1141 L 1067 950 L 948 950 L 696 588 L 983 184 L 1081 184 L 1081 0 L 616 0 L 616 172 L 733 172 L 545 449 L 358 172 L 473 172 L 473 0 L 49 0 L 49 184 Z" unicode="x" />
<glyph horiz-adv-x="1104" d="M 313 -338 C 239 -338 174 -327 119 -307 L 170 -117 C 226 -133 273 -141 309 -141 C 351 -141 381 -132 399 -115 C 417 -98 434 -66 451 -20 L 451 -19 L 131 950 L 25 950 L 25 1141 L 496 1141 L 496 952 L 350 952 L 558 243 L 774 952 L 639 952 L 639 1141 L 1081 1141 L 1081 950 L 975 950 L 633 -82 C 601 -174 561 -240 513 -279 C 465 -318 398 -338 313 -338 Z" unicode="y" />
<glyph horiz-adv-x="936" d="M 49 180 L 629 965 L 252 965 L 252 739 L 68 739 L 68 1141 L 870 1141 L 870 961 L 291 170 L 702 170 L 702 408 L 891 408 L 891 0 L 49 0 L 49 180 Z" unicode="z" />
<glyph horiz-adv-x="899" d="M 547 -326 C 349 -326 250 -238 250 -63 C 250 -9 264 79 292 203 C 320 326 334 405 334 440 C 334 476 321 501 297 513 C 273 525 215 532 125 532 L 125 721 C 209 721 264 727 292 739 C 320 751 334 775 334 811 C 334 846 320 926 292 1050 C 264 1173 250 1263 250 1319 C 250 1403 275 1467 326 1511 C 376 1555 450 1577 547 1577 L 750 1577 L 750 1386 L 623 1386 C 569 1386 532 1376 510 1356 C 488 1336 477 1306 477 1264 C 477 1226 490 1148 517 1028 C 543 908 557 826 557 782 C 557 702 517 650 438 627 C 478 613 508 594 528 569 C 547 543 557 510 557 469 C 557 432 543 352 517 228 C 490 104 477 24 477 -10 C 477 -56 488 -89 512 -111 C 535 -132 572 -143 623 -143 L 750 -143 L 750 -326 L 547 -326 Z" unicode="{" />
<glyph horiz-adv-x="606" d="M 190 1577 L 416 1577 L 416 -326 L 190 -326 L 190 1577 Z" unicode="|" />
<glyph horiz-adv-x="899" d="M 150 -143 L 276 -143 C 326 -143 364 -132 388 -110 C 412 -88 424 -54 424 -10 C 424 30 410 109 382 228 C 354 346 340 426 340 469 C 340 511 349 544 369 569 C 389 594 419 613 459 627 C 421 638 391 657 371 683 C 350 709 340 742 340 782 C 340 827 354 909 382 1028 C 410 1146 424 1224 424 1264 C 424 1304 412 1335 390 1355 C 367 1375 329 1386 276 1386 L 150 1386 L 150 1577 L 352 1577 C 447 1577 520 1555 572 1511 C 623 1467 649 1403 649 1319 C 649 1265 634 1176 606 1050 C 577 923 563 843 563 811 C 563 775 577 751 605 739 C 633 727 690 721 776 721 L 776 532 C 705 532 657 529 632 524 C 607 518 589 509 579 496 C 568 483 563 464 563 440 C 563 412 567 378 576 336 C 585 294 595 249 606 202 C 616 155 626 108 635 62 C 644 15 649 -26 649 -63 C 649 -151 623 -217 571 -261 C 519 -304 446 -326 352 -326 L 150 -326 L 150 -143 Z" unicode="}" />
<glyph horiz-adv-x="1188" d="M 147 655 C 179 717 216 765 259 799 C 302 833 349 850 399 850 C 427 850 458 845 494 836 C 529 826 564 816 599 805 C 633 793 666 783 697 774 C 728 764 754 760 774 760 C 802 760 826 768 846 784 C 866 800 886 825 905 858 L 1051 776 C 1017 712 979 663 938 630 C 896 596 849 580 795 580 C 753 580 687 595 598 626 C 508 656 450 672 422 672 C 372 672 329 639 293 573 L 147 655 Z" unicode="~" />
<glyph horiz-adv-x="985" d="" unicode="₀" />
<glyph horiz-adv-x="666" d="" unicode="₁" />
<glyph horiz-adv-x="874" d="" unicode="₂" />
<glyph horiz-adv-x="866" d="" unicode="₃" />
<glyph horiz-adv-x="893" d="" unicode="₄" />
<glyph horiz-adv-x="881" d="" unicode="₅" />
<glyph horiz-adv-x="940" d="" unicode="₆" />
<glyph horiz-adv-x="834" d="" unicode="₇" />
<glyph horiz-adv-x="934" d="" unicode="₈" />
<glyph horiz-adv-x="940" d="" unicode="₉" />
<glyph horiz-adv-x="367" d="" unicode=" " />
<glyph horiz-adv-x="649" d="M 229 1077 L 422 1077 L 449 0 L 201 0 L 229 1077 Z M 197 1518 L 457 1518 L 457 1237 L 197 1237 L 197 1518 Z" unicode="¡" />
<glyph horiz-adv-x="999" d="M 412 -3 C 303 16 219 73 160 169 C 101 265 72 399 72 573 C 72 721 101 849 161 955 C 221 1061 304 1126 412 1149 L 412 1315 L 594 1315 L 594 1145 C 666 1125 716 1082 745 1016 L 745 1143 L 911 1143 L 911 725 L 737 725 C 726 795 709 848 686 884 C 662 920 630 945 588 957 L 588 178 C 630 188 664 210 691 245 C 718 279 740 330 758 397 L 944 352 C 918 243 877 159 819 101 C 761 43 686 7 594 -6 L 594 -193 L 412 -193 L 412 -3 Z M 293 571 C 293 377 334 254 418 201 L 418 936 C 334 882 293 761 293 571 Z" unicode="¢" />
<glyph horiz-adv-x="1104" d="M 49 182 C 144 197 209 219 245 247 C 281 275 299 319 299 379 C 299 420 294 464 284 512 C 274 559 264 607 252 657 L 53 657 L 53 829 L 203 829 C 174 933 160 1025 160 1104 C 160 1218 197 1311 271 1383 C 345 1455 443 1491 565 1491 C 780 1491 915 1379 969 1155 L 770 1102 C 737 1226 669 1288 567 1288 C 509 1288 464 1270 431 1234 C 397 1198 381 1150 381 1090 C 381 1013 393 926 418 829 L 754 829 L 754 657 L 463 657 C 491 532 506 440 506 381 C 506 327 497 279 479 238 C 552 200 623 182 692 182 C 742 182 777 194 798 220 C 818 245 829 283 829 334 L 821 422 L 817 444 L 1010 469 C 1019 431 1024 383 1024 324 C 1024 206 997 120 944 68 C 891 16 812 -10 707 -10 C 589 -10 479 23 377 90 C 309 40 213 6 88 -12 L 49 182 Z" unicode="£" />
<glyph horiz-adv-x="1145" d="M 782 371 C 720 317 647 291 563 291 C 477 291 404 317 344 371 L 184 209 L 57 334 L 229 508 C 200 573 186 645 186 723 C 186 798 200 868 229 934 L 61 1106 L 184 1231 L 340 1073 C 403 1129 477 1157 563 1157 C 648 1157 723 1128 788 1071 L 948 1231 L 1071 1106 L 897 932 C 925 863 940 793 940 723 C 940 645 924 572 893 506 L 1065 334 L 942 209 L 782 371 Z M 563 455 C 625 455 673 480 709 530 C 744 580 762 644 762 721 C 762 798 744 862 709 912 C 673 962 625 987 563 987 C 502 987 453 962 417 913 C 380 864 362 800 362 721 C 362 639 380 575 417 527 C 453 479 502 455 563 455 Z" unicode="¤" />
<glyph horiz-adv-x="1159" d="M 309 182 L 473 182 L 473 453 L 80 453 L 80 623 L 455 623 L 393 741 L 80 741 L 80 911 L 299 911 L 115 1284 L -8 1284 L -8 1473 L 483 1473 L 483 1288 L 338 1288 L 584 782 L 827 1288 L 690 1288 L 690 1473 L 1165 1473 L 1165 1284 L 1038 1284 L 852 911 L 1071 911 L 1071 741 L 760 741 L 698 623 L 1071 623 L 1071 453 L 682 453 L 682 182 L 846 182 L 846 0 L 309 0 L 309 182 Z" unicode="¥" />
<glyph horiz-adv-x="606" d="M 190 469 L 416 469 L 416 -326 L 190 -326 L 190 469 Z M 190 1577 L 416 1577 L 416 784 L 190 784 L 190 1577 Z" unicode="¦" />
<glyph horiz-adv-x="1055" d="M 600 -336 C 478 -336 397 -294 356 -211 L 356 -317 L 195 -317 L 195 45 L 369 45 C 379 -21 400 -70 431 -102 C 461 -134 506 -150 565 -150 C 665 -150 715 -106 715 -18 C 715 19 699 52 669 81 C 639 109 592 136 528 162 C 396 214 308 256 264 289 C 220 322 185 361 161 406 C 137 451 125 504 125 565 C 125 633 141 693 174 745 C 206 797 254 838 317 866 C 198 940 139 1040 139 1167 C 139 1263 171 1340 235 1399 C 299 1457 381 1487 479 1487 C 539 1487 592 1476 636 1454 C 680 1432 712 1400 733 1358 L 733 1466 L 895 1466 L 895 1104 L 721 1104 C 700 1234 631 1300 514 1300 C 462 1300 423 1288 395 1264 C 367 1240 354 1208 354 1167 C 354 1129 370 1095 402 1066 C 434 1037 481 1011 544 988 C 668 940 755 900 804 866 C 852 832 889 791 915 745 C 941 698 954 644 954 584 C 954 510 935 448 898 398 C 861 348 812 310 750 285 C 814 245 860 201 888 153 C 916 105 930 48 930 -18 C 930 -114 899 -191 839 -249 C 779 -307 699 -336 600 -336 Z M 594 354 C 637 362 672 383 700 416 C 727 449 741 494 741 551 C 741 604 719 651 676 693 C 632 734 567 768 481 795 C 435 785 400 764 374 731 C 348 698 336 654 336 598 C 336 486 422 404 594 354 Z" unicode="§" />
<glyph horiz-adv-x="979" d="M 209 1497 L 410 1497 L 410 1264 L 209 1264 L 209 1497 Z M 569 1497 L 770 1497 L 770 1264 L 569 1264 L 569 1497 Z" unicode="¨" />
<glyph horiz-adv-x="1354" d="M 678 -20 C 552 -20 444 12 352 77 C 260 142 189 234 140 352 C 90 470 66 606 66 760 C 66 912 91 1048 142 1168 C 192 1288 263 1381 355 1445 C 447 1509 554 1542 678 1542 C 800 1542 907 1510 999 1448 C 1090 1385 1161 1293 1213 1173 C 1264 1052 1290 914 1290 760 C 1290 606 1264 468 1212 348 C 1160 227 1089 135 997 73 C 905 11 799 -20 678 -20 Z M 678 78 C 781 78 871 106 948 163 C 1024 219 1083 299 1124 403 C 1165 506 1186 625 1186 760 C 1186 893 1165 1011 1124 1115 C 1083 1219 1024 1299 948 1356 C 871 1413 781 1442 678 1442 C 522 1442 399 1380 307 1257 C 215 1133 170 968 170 760 C 170 625 190 506 230 403 C 270 300 329 220 406 163 C 483 106 574 78 678 78 Z M 670 262 C 558 262 470 305 407 391 C 344 477 313 596 313 750 C 313 896 345 1015 409 1106 C 473 1197 558 1243 664 1243 C 704 1243 742 1236 777 1222 C 812 1208 841 1181 864 1141 L 864 1231 L 989 1231 L 989 926 L 852 926 C 842 984 822 1027 794 1055 C 765 1082 725 1096 674 1096 C 610 1096 561 1065 525 1005 C 489 944 471 858 471 748 C 471 630 489 543 527 487 C 565 431 616 403 682 403 C 737 403 780 418 811 450 C 841 482 863 528 877 590 L 1016 559 C 994 467 954 394 896 341 C 838 288 762 262 670 262 Z" unicode="©" />
<glyph horiz-adv-x="997" d="M 367 528 C 287 528 226 553 183 605 C 140 656 119 727 119 817 C 119 914 149 988 211 1040 C 273 1092 362 1118 479 1118 C 522 1118 568 1114 618 1106 L 618 1133 C 618 1203 606 1251 584 1278 C 562 1305 526 1319 477 1319 C 399 1319 335 1288 285 1227 L 158 1339 C 198 1388 246 1426 304 1452 C 362 1478 426 1491 498 1491 C 601 1491 678 1463 728 1408 C 778 1353 803 1266 803 1147 L 803 698 L 899 698 L 899 551 L 655 535 L 629 676 C 587 577 499 528 367 528 Z M 420 688 C 484 688 533 707 567 746 C 601 784 618 841 618 915 L 618 975 C 574 983 540 987 516 987 C 438 987 383 973 350 947 C 317 921 301 881 301 827 C 301 734 340 688 420 688 Z M 156 414 L 838 414 L 838 246 L 156 246 L 156 414 Z" unicode="ª" />
<glyph horiz-adv-x="1202" d="M 137 569 L 389 1141 L 582 1141 L 354 569 L 582 0 L 389 0 L 137 569 Z M 578 569 L 827 1141 L 1022 1141 L 793 569 L 1022 0 L 827 0 L 578 569 Z" unicode="«" />
<glyph horiz-adv-x="1188" d="M 791 621 L 152 621 L 152 825 L 1010 825 L 1010 252 L 791 252 L 791 621 Z" unicode="¬" />
<glyph horiz-adv-x="723" d="M 74 756 L 649 756 L 649 553 L 74 553 L 74 756 Z" unicode="­" />
<glyph horiz-adv-x="1153" d="M 326 702 L 385 702 L 385 1198 L 326 1198 L 326 1296 L 592 1296 C 742 1296 817 1223 817 1077 C 817 977 776 911 696 879 L 788 702 L 852 702 L 852 608 L 625 608 L 625 700 L 664 700 L 586 860 L 500 860 L 500 700 L 555 700 L 555 608 L 326 608 L 326 702 Z M 578 340 C 482 340 399 365 328 415 C 257 465 203 535 165 627 C 127 718 109 823 109 942 C 109 1059 128 1163 166 1255 C 204 1347 258 1417 329 1467 C 399 1517 482 1542 578 1542 C 672 1542 755 1517 826 1467 C 896 1417 951 1346 989 1255 C 1027 1164 1047 1060 1047 942 C 1047 823 1028 718 990 626 C 952 534 898 464 828 414 C 758 364 674 340 578 340 Z M 578 422 C 696 422 790 469 858 563 C 926 657 961 784 961 942 C 961 1098 926 1223 858 1317 C 790 1411 696 1458 578 1458 C 459 1458 365 1411 297 1318 C 229 1224 195 1099 195 942 C 195 781 229 654 297 561 C 365 468 459 422 578 422 Z M 590 950 C 629 950 657 960 673 980 C 689 1000 698 1031 698 1073 C 698 1116 689 1148 672 1168 C 655 1188 626 1198 584 1198 L 500 1198 L 500 950 L 590 950 Z" unicode="®" />
<glyph horiz-adv-x="979" d="M 209 1450 L 770 1450 L 770 1264 L 209 1264 L 209 1450 Z" unicode="¯" />
<glyph horiz-adv-x="963" d="M 481 520 C 361 520 267 563 199 649 C 131 735 98 854 98 1006 C 98 1157 131 1276 199 1363 C 266 1449 360 1493 481 1493 C 601 1493 696 1449 764 1362 C 832 1275 866 1156 866 1006 C 866 854 831 735 763 649 C 695 563 601 520 481 520 Z M 481 690 C 544 690 593 716 627 769 C 661 822 678 899 678 1001 C 678 1102 661 1179 627 1233 C 593 1286 545 1313 481 1313 C 417 1313 369 1286 336 1234 C 303 1181 287 1103 287 1001 C 287 793 351 690 481 690 Z" unicode="°" />
<glyph horiz-adv-x="1188" d="M 483 657 L 164 657 L 164 862 L 483 862 L 483 1217 L 705 1217 L 705 862 L 1024 862 L 1024 657 L 705 657 L 705 301 L 483 301 L 483 657 Z M 164 207 L 1024 207 L 1024 0 L 164 0 L 164 207 Z" unicode="±" />
<glyph horiz-adv-x="874" d="M 113 678 C 281 868 384 985 420 1029 C 456 1073 483 1108 500 1134 C 516 1160 528 1185 535 1208 C 541 1230 545 1259 545 1294 C 545 1328 534 1357 512 1381 C 490 1405 459 1417 418 1417 C 380 1417 347 1406 320 1385 C 293 1364 270 1330 252 1282 L 96 1331 C 122 1411 164 1472 222 1515 C 280 1557 348 1579 428 1579 C 518 1579 590 1554 644 1506 C 698 1457 725 1391 725 1309 C 725 1246 709 1184 678 1123 C 646 1061 579 971 477 852 L 313 668 L 590 668 L 590 825 L 743 825 L 743 535 L 113 535 L 113 678 Z" unicode="²" />
<glyph horiz-adv-x="866" d="M 420 520 C 326 520 250 542 192 586 C 133 630 93 696 72 782 L 227 825 C 255 725 315 676 408 676 C 462 676 503 691 533 721 C 563 751 578 793 578 848 C 578 914 558 961 520 987 C 481 1013 414 1026 319 1026 L 319 1159 C 397 1159 454 1170 491 1193 C 528 1216 547 1255 547 1311 C 547 1343 535 1370 512 1392 C 488 1414 457 1425 418 1425 C 330 1425 274 1385 250 1305 L 100 1354 C 120 1424 159 1479 217 1520 C 275 1560 344 1581 426 1581 C 516 1581 588 1559 641 1516 C 694 1472 721 1413 721 1339 C 721 1276 706 1225 678 1187 C 649 1148 613 1121 569 1106 C 692 1073 754 984 754 840 C 754 775 740 718 712 670 C 684 622 644 585 592 559 C 540 533 483 520 420 520 Z" unicode="³" />
<glyph horiz-adv-x="979" d="M 233 1389 L 705 1577 L 764 1391 L 283 1243 L 233 1389 Z" unicode="´" />
<glyph horiz-adv-x="1198" d="M 182 950 L 43 950 L 43 1133 L 401 1151 L 401 438 C 401 339 414 271 440 234 C 466 196 512 178 580 178 C 660 178 718 200 754 245 C 790 290 809 367 809 477 L 809 950 L 637 950 L 637 1133 L 1030 1151 L 1030 184 L 1176 184 L 1176 6 L 860 -14 L 831 170 C 777 48 676 -12 528 -12 C 465 -12 422 5 399 39 L 399 -326 L 182 -326 L 182 950 Z" unicode="µ" />
<glyph horiz-adv-x="1178" d="M 256 184 L 408 184 L 408 557 C 197 608 92 757 92 1004 C 92 1155 134 1271 219 1353 C 303 1434 427 1475 590 1475 L 1128 1475 L 1128 1282 L 983 1282 L 983 184 L 1128 184 L 1128 0 L 768 0 L 768 528 L 614 528 L 614 0 L 256 0 L 256 184 Z M 768 705 L 768 1286 L 602 1286 C 502 1286 429 1263 383 1218 C 337 1172 315 1099 315 997 C 315 899 337 826 381 778 C 425 729 495 705 592 705 L 768 705 Z" unicode="¶" />
<glyph horiz-adv-x="467" d="M 104 860 L 365 860 L 365 571 L 104 571 L 104 860 Z" unicode="·" />
<glyph horiz-adv-x="979" d="M 487 -446 C 402 -446 330 -430 272 -399 L 336 -276 C 381 -300 429 -313 479 -313 C 554 -313 592 -285 592 -231 C 592 -200 581 -180 561 -171 C 540 -162 515 -158 486 -158 L 449 -160 L 391 -123 L 418 14 L 553 14 L 539 -82 L 576 -79 C 627 -79 667 -93 697 -122 C 726 -151 741 -191 741 -242 C 741 -304 718 -354 674 -391 C 630 -427 567 -446 487 -446 Z" unicode="¸" />
<glyph horiz-adv-x="666" d="M 127 680 L 266 680 L 266 1391 C 224 1374 174 1366 117 1366 L 117 1530 C 217 1530 291 1541 338 1565 L 446 1565 L 446 680 L 573 680 L 573 535 L 127 535 L 127 680 Z" unicode="¹" />
<glyph horiz-adv-x="989" d="M 496 526 C 377 526 284 568 217 653 C 150 738 117 857 117 1010 C 117 1162 150 1280 217 1365 C 284 1450 377 1493 496 1493 C 616 1493 709 1450 776 1364 C 843 1278 877 1160 877 1010 C 877 858 843 740 776 654 C 709 568 616 526 496 526 Z M 496 694 C 558 694 606 720 638 774 C 670 828 686 905 686 1006 C 686 1106 669 1183 637 1236 C 605 1288 558 1315 496 1315 C 434 1315 387 1288 355 1236 C 323 1183 307 1106 307 1006 C 307 798 370 694 496 694 Z M 156 414 L 836 414 L 836 246 L 156 246 L 156 414 Z" unicode="º" />
<glyph horiz-adv-x="1202" d="M 377 0 L 184 0 L 412 567 L 184 1141 L 377 1141 L 625 567 L 377 0 Z M 815 0 L 623 0 L 850 567 L 623 1141 L 815 1141 L 1065 567 L 815 0 Z" unicode="»" />
<glyph horiz-adv-x="1757" d="M 86 592 L 225 592 L 225 1303 C 183 1286 133 1278 76 1278 L 76 1442 C 174 1442 247 1454 297 1479 L 406 1479 L 406 592 L 532 592 L 532 449 L 86 449 L 86 592 Z M 1098 1475 L 1300 1475 L 614 0 L 408 0 L 1098 1475 Z M 1272 139 L 1395 139 L 1395 258 L 989 258 L 989 395 L 1350 1030 L 1532 1030 L 1176 401 L 1399 401 L 1434 612 L 1563 612 L 1563 401 L 1702 401 L 1702 258 L 1563 258 L 1563 139 L 1675 139 L 1675 0 L 1272 0 L 1272 139 Z" unicode="¼" />
<glyph horiz-adv-x="1855" d="M 86 592 L 225 592 L 225 1303 C 183 1286 133 1278 76 1278 L 76 1442 C 174 1442 247 1454 297 1479 L 406 1479 L 406 592 L 532 592 L 532 449 L 86 449 L 86 592 Z M 1098 1475 L 1300 1475 L 614 0 L 408 0 L 1098 1475 Z M 1133 141 L 1350 385 C 1424 472 1474 532 1499 566 C 1523 600 1541 631 1551 659 C 1561 687 1567 720 1567 760 C 1567 796 1555 826 1531 849 C 1507 871 1477 883 1440 883 C 1402 883 1369 872 1342 851 C 1314 830 1291 796 1272 748 L 1116 797 C 1142 875 1184 935 1242 979 C 1300 1022 1370 1044 1450 1044 C 1540 1044 1611 1019 1665 971 C 1718 923 1745 856 1745 772 C 1745 734 1740 699 1730 666 C 1720 632 1705 598 1685 563 C 1665 527 1639 490 1609 452 C 1578 413 1487 306 1335 131 L 1612 131 L 1612 291 L 1765 291 L 1765 0 L 1133 0 L 1133 141 Z" unicode="½" />
<glyph horiz-adv-x="1870" d="M 1208 1475 L 1411 1475 L 725 0 L 520 0 L 1208 1475 Z M 1382 139 L 1507 139 L 1507 258 L 1100 258 L 1100 395 L 1460 1030 L 1642 1030 L 1286 401 L 1509 401 L 1544 612 L 1673 612 L 1673 401 L 1812 401 L 1812 258 L 1673 258 L 1673 139 L 1788 139 L 1788 0 L 1382 0 L 1382 139 Z M 379 434 C 286 434 210 456 151 500 C 92 544 52 608 31 694 L 186 737 C 213 639 273 590 367 590 C 421 590 462 604 492 634 C 522 663 537 706 537 762 C 537 827 518 873 481 899 C 443 925 376 938 279 938 L 279 1071 C 356 1071 413 1082 450 1105 C 487 1128 506 1167 506 1223 C 506 1255 494 1283 471 1305 C 448 1327 417 1339 377 1339 C 289 1339 233 1299 209 1219 L 59 1266 C 79 1336 118 1392 176 1433 C 234 1474 304 1495 385 1495 C 474 1495 545 1473 599 1430 C 653 1386 680 1327 680 1251 C 680 1188 665 1138 637 1100 C 608 1062 572 1034 528 1018 C 651 985 713 896 713 752 C 713 655 682 578 621 520 C 560 462 479 434 379 434 Z" unicode="¾" />
<glyph horiz-adv-x="1118" d="M 545 -23 C 414 -23 313 10 241 76 C 169 142 133 234 133 354 C 133 420 147 480 176 536 C 204 592 249 649 311 707 C 374 765 419 819 447 869 C 475 918 489 971 489 1028 L 489 1058 L 487 1090 L 700 1090 L 705 1018 C 705 947 690 882 661 824 C 631 765 587 709 529 656 C 463 597 417 547 391 506 C 365 465 352 421 352 375 C 352 314 369 267 405 233 C 440 199 492 182 561 182 C 619 183 670 199 712 231 C 754 262 789 311 817 379 L 1010 313 C 974 208 915 126 832 66 C 749 6 653 -23 545 -23 Z M 465 1518 L 725 1518 L 725 1255 L 465 1255 L 465 1518 Z" unicode="¿" />
<glyph horiz-adv-x="1395" d="M 49 186 L 152 186 L 573 1528 L 821 1528 L 1243 186 L 1348 186 L 1348 0 L 829 0 L 829 182 L 1010 182 L 936 426 L 436 426 L 362 182 L 530 182 L 530 0 L 49 0 L 49 186 Z M 885 602 L 690 1237 L 489 602 L 885 602 Z M 418 1745 L 478 1931 L 947 1743 L 902 1597 L 418 1745 Z" unicode="À" />
<glyph horiz-adv-x="1395" d="M 49 186 L 152 186 L 573 1528 L 821 1528 L 1243 186 L 1348 186 L 1348 0 L 829 0 L 829 182 L 1010 182 L 936 426 L 436 426 L 362 182 L 530 182 L 530 0 L 49 0 L 49 186 Z M 885 602 L 690 1237 L 489 602 L 885 602 Z M 444 1743 L 916 1931 L 975 1745 L 494 1597 L 444 1743 Z" unicode="Á" />
<glyph horiz-adv-x="1395" d="M 49 186 L 152 186 L 573 1528 L 821 1528 L 1243 186 L 1348 186 L 1348 0 L 829 0 L 829 182 L 1010 182 L 936 426 L 436 426 L 362 182 L 530 182 L 530 0 L 49 0 L 49 186 Z M 885 602 L 690 1237 L 489 602 L 885 602 Z M 357 1728 L 647 1908 L 742 1908 L 1034 1728 L 973 1603 L 694 1718 L 418 1603 L 357 1728 Z" unicode="Â" />
<glyph horiz-adv-x="1395" d="M 49 186 L 152 186 L 573 1528 L 821 1528 L 1243 186 L 1348 186 L 1348 0 L 829 0 L 829 182 L 1010 182 L 936 426 L 436 426 L 362 182 L 530 182 L 530 0 L 49 0 L 49 186 Z M 885 602 L 690 1237 L 489 602 L 885 602 Z M 328 1693 C 358 1755 395 1804 437 1838 C 479 1872 524 1890 572 1890 C 598 1890 621 1885 642 1876 C 662 1867 681 1857 699 1847 C 717 1836 733 1826 749 1817 C 765 1808 781 1804 797 1804 C 841 1804 882 1835 920 1898 L 1063 1820 C 1031 1756 993 1707 951 1674 C 908 1640 863 1624 817 1624 C 793 1624 770 1628 750 1637 C 730 1645 711 1655 693 1666 C 675 1676 657 1686 640 1695 C 623 1703 606 1708 590 1708 C 544 1708 504 1676 471 1614 L 328 1693 Z" unicode="Ã" />
<glyph horiz-adv-x="1395" d="M 49 186 L 152 186 L 573 1528 L 821 1528 L 1243 186 L 1348 186 L 1348 0 L 829 0 L 829 182 L 1010 182 L 936 426 L 436 426 L 362 182 L 530 182 L 530 0 L 49 0 L 49 186 Z M 885 602 L 690 1237 L 489 602 L 885 602 Z M 414 1851 L 615 1851 L 615 1618 L 414 1618 L 414 1851 Z M 774 1851 L 975 1851 L 975 1618 L 774 1618 L 774 1851 Z" unicode="Ä" />
<glyph horiz-adv-x="1397" d="M 49 186 L 154 186 L 555 1468 C 495 1506 465 1573 465 1669 C 465 1747 485 1809 527 1856 C 569 1903 625 1927 696 1927 C 764 1927 820 1903 862 1855 C 904 1807 926 1745 926 1669 C 926 1577 897 1511 840 1473 L 1245 186 L 1343 186 L 1343 0 L 831 0 L 831 182 L 1012 182 L 936 436 L 440 436 L 365 182 L 530 182 L 530 0 L 49 0 L 49 186 Z M 696 1532 C 732 1532 758 1544 776 1570 C 794 1596 803 1629 803 1669 C 803 1708 794 1740 776 1766 C 758 1791 732 1804 696 1804 C 660 1804 633 1791 615 1766 C 597 1740 588 1708 588 1669 C 588 1629 597 1596 615 1570 C 633 1544 660 1532 696 1532 Z M 887 602 L 692 1237 L 492 602 L 887 602 Z" unicode="Å" />
<glyph horiz-adv-x="1882" d="M 45 186 L 160 186 L 686 1327 L 545 1327 L 545 1518 L 1782 1518 L 1782 1042 L 1573 1042 L 1573 1331 L 1135 1331 L 1135 864 L 1505 864 L 1505 676 L 1135 676 L 1135 184 L 1583 184 L 1583 508 L 1792 508 L 1792 0 L 748 0 L 748 184 L 909 184 L 909 453 L 502 453 L 381 182 L 522 182 L 522 0 L 45 0 L 45 186 Z M 909 623 L 909 1325 L 584 623 L 909 623 Z" unicode="Æ" />
<glyph horiz-adv-x="1274" d="M 645 -20 C 464 -20 323 49 223 187 C 122 325 72 514 72 754 C 72 906 95 1043 142 1163 C 189 1283 256 1375 342 1441 C 428 1507 527 1540 637 1540 C 803 1540 913 1481 969 1364 L 969 1518 L 1157 1518 L 1157 1042 L 956 1042 C 940 1139 908 1211 860 1257 C 811 1303 742 1327 653 1327 C 544 1327 458 1276 396 1175 C 334 1074 303 934 303 754 C 303 571 334 431 397 333 C 459 235 548 186 664 186 C 835 186 943 288 987 492 L 1190 453 C 1160 301 1097 185 1003 103 C 909 21 789 -20 645 -20 Z M 632 -446 C 547 -446 475 -430 417 -399 L 481 -276 C 526 -300 574 -313 624 -313 C 699 -313 737 -285 737 -231 C 737 -200 726 -180 706 -171 C 685 -162 660 -158 631 -158 L 594 -160 L 536 -123 L 563 14 L 698 14 L 684 -82 L 721 -79 C 772 -79 812 -93 842 -122 C 871 -151 886 -191 886 -242 C 886 -304 863 -354 819 -391 C 775 -427 712 -446 632 -446 Z" unicode="Ç" />
<glyph horiz-adv-x="1176" d="M 49 186 L 201 186 L 201 1327 L 49 1327 L 49 1518 L 1077 1518 L 1077 1042 L 868 1042 L 868 1333 L 430 1333 L 430 864 L 793 864 L 793 676 L 430 676 L 430 182 L 879 182 L 879 508 L 1087 508 L 1087 0 L 49 0 L 49 186 Z M 319 1745 L 379 1931 L 848 1743 L 803 1597 L 319 1745 Z" unicode="È" />
<glyph horiz-adv-x="1176" d="M 331 1743 L 803 1931 L 862 1745 L 381 1597 L 331 1743 Z M 49 186 L 201 186 L 201 1327 L 49 1327 L 49 1518 L 1077 1518 L 1077 1042 L 868 1042 L 868 1333 L 430 1333 L 430 864 L 793 864 L 793 676 L 430 676 L 430 182 L 879 182 L 879 508 L 1087 508 L 1087 0 L 49 0 L 49 186 Z" unicode="É" />
<glyph horiz-adv-x="1176" d="M 250 1728 L 540 1908 L 635 1908 L 927 1728 L 866 1603 L 587 1718 L 311 1603 L 250 1728 Z M 49 186 L 201 186 L 201 1327 L 49 1327 L 49 1518 L 1077 1518 L 1077 1042 L 868 1042 L 868 1333 L 430 1333 L 430 864 L 793 864 L 793 676 L 430 676 L 430 182 L 879 182 L 879 508 L 1087 508 L 1087 0 L 49 0 L 49 186 Z" unicode="Ê" />
<glyph horiz-adv-x="1176" d="M 307 1851 L 508 1851 L 508 1618 L 307 1618 L 307 1851 Z M 667 1851 L 868 1851 L 868 1618 L 667 1618 L 667 1851 Z M 49 186 L 201 186 L 201 1327 L 49 1327 L 49 1518 L 1077 1518 L 1077 1042 L 868 1042 L 868 1333 L 430 1333 L 430 864 L 793 864 L 793 676 L 430 676 L 430 182 L 879 182 L 879 508 L 1087 508 L 1087 0 L 49 0 L 49 186 Z" unicode="Ë" />
<glyph horiz-adv-x="657" d="M 49 186 L 215 186 L 215 1327 L 49 1327 L 49 1518 L 610 1518 L 610 1327 L 442 1327 L 442 186 L 610 186 L 610 0 L 49 0 L 49 186 Z M 62 1745 L 122 1931 L 591 1743 L 546 1597 L 62 1745 Z" unicode="Ì" />
<glyph horiz-adv-x="657" d="M 49 186 L 215 186 L 215 1327 L 49 1327 L 49 1518 L 610 1518 L 610 1327 L 442 1327 L 442 186 L 610 186 L 610 0 L 49 0 L 49 186 Z M 74 1743 L 546 1931 L 605 1745 L 124 1597 L 74 1743 Z" unicode="Í" />
<glyph horiz-adv-x="657" d="M 49 186 L 215 186 L 215 1327 L 49 1327 L 49 1518 L 610 1518 L 610 1327 L 442 1327 L 442 186 L 610 186 L 610 0 L 49 0 L 49 186 Z M -7 1728 L 283 1908 L 378 1908 L 670 1728 L 609 1603 L 330 1718 L 54 1603 L -7 1728 Z" unicode="Î" />
<glyph horiz-adv-x="657" d="M 49 186 L 215 186 L 215 1327 L 49 1327 L 49 1518 L 610 1518 L 610 1327 L 442 1327 L 442 186 L 610 186 L 610 0 L 49 0 L 49 186 Z M 50 1851 L 251 1851 L 251 1618 L 50 1618 L 50 1851 Z M 410 1851 L 611 1851 L 611 1618 L 410 1618 L 410 1851 Z" unicode="Ï" />
<glyph horiz-adv-x="1311" d="M 49 186 L 201 186 L 201 680 L 72 680 L 72 874 L 201 874 L 201 1327 L 49 1327 L 49 1518 L 604 1518 C 810 1518 968 1453 1076 1324 C 1184 1195 1239 1007 1239 760 C 1239 514 1183 326 1072 196 C 960 65 800 0 590 0 L 49 0 L 49 186 Z M 610 190 C 745 190 845 237 909 331 C 973 425 1006 568 1006 760 C 1006 956 972 1098 906 1188 C 840 1278 737 1323 598 1323 L 430 1323 L 430 874 L 668 874 L 668 680 L 430 680 L 430 190 L 610 190 Z" unicode="Ð" />
<glyph horiz-adv-x="1446" d="M 49 186 L 201 186 L 201 1327 L 49 1327 L 49 1518 L 457 1518 L 1044 440 L 1044 1327 L 895 1327 L 895 1518 L 1397 1518 L 1397 1327 L 1255 1327 L 1255 0 L 1042 0 L 412 1135 L 412 186 L 582 186 L 582 0 L 49 0 L 49 186 Z M 354 1693 C 384 1755 421 1804 463 1838 C 505 1872 550 1890 598 1890 C 624 1890 647 1885 668 1876 C 688 1867 707 1857 725 1847 C 743 1836 759 1826 775 1817 C 791 1808 807 1804 823 1804 C 867 1804 908 1835 946 1898 L 1089 1820 C 1057 1756 1019 1707 977 1674 C 934 1640 889 1624 843 1624 C 819 1624 796 1628 776 1637 C 756 1645 737 1655 719 1666 C 701 1676 683 1686 666 1695 C 649 1703 632 1708 616 1708 C 570 1708 530 1676 497 1614 L 354 1693 Z" unicode="Ñ" />
<glyph horiz-adv-x="1343" d="M 672 -20 C 553 -20 448 12 357 76 C 265 140 195 232 146 351 C 96 469 72 606 72 760 C 72 914 96 1050 145 1168 C 194 1286 264 1378 356 1443 C 447 1507 552 1540 672 1540 C 791 1540 896 1508 988 1444 C 1079 1380 1149 1289 1199 1171 C 1249 1053 1274 916 1274 760 C 1274 607 1249 471 1199 353 C 1149 235 1078 143 986 78 C 894 12 789 -20 672 -20 Z M 672 186 C 788 186 878 237 943 339 C 1007 441 1040 580 1040 758 C 1040 936 1007 1075 942 1177 C 876 1278 786 1329 672 1329 C 557 1329 467 1278 401 1177 C 335 1075 303 936 303 758 C 303 578 335 438 401 337 C 467 236 557 186 672 186 Z M 401 1745 L 461 1931 L 930 1743 L 885 1597 L 401 1745 Z" unicode="Ò" />
<glyph horiz-adv-x="1343" d="M 413 1743 L 885 1931 L 944 1745 L 463 1597 L 413 1743 Z M 672 -20 C 553 -20 448 12 357 76 C 265 140 195 232 146 351 C 96 469 72 606 72 760 C 72 914 96 1050 145 1168 C 194 1286 264 1378 356 1443 C 447 1507 552 1540 672 1540 C 791 1540 896 1508 988 1444 C 1079 1380 1149 1289 1199 1171 C 1249 1053 1274 916 1274 760 C 1274 607 1249 471 1199 353 C 1149 235 1078 143 986 78 C 894 12 789 -20 672 -20 Z M 672 186 C 788 186 878 237 943 339 C 1007 441 1040 580 1040 758 C 1040 936 1007 1075 942 1177 C 876 1278 786 1329 672 1329 C 557 1329 467 1278 401 1177 C 335 1075 303 936 303 758 C 303 578 335 438 401 337 C 467 236 557 186 672 186 Z" unicode="Ó" />
<glyph horiz-adv-x="1343" d="M 332 1728 L 622 1908 L 717 1908 L 1009 1728 L 948 1603 L 669 1718 L 393 1603 L 332 1728 Z M 672 -20 C 553 -20 448 12 357 76 C 265 140 195 232 146 351 C 96 469 72 606 72 760 C 72 914 96 1050 145 1168 C 194 1286 264 1378 356 1443 C 447 1507 552 1540 672 1540 C 791 1540 896 1508 988 1444 C 1079 1380 1149 1289 1199 1171 C 1249 1053 1274 916 1274 760 C 1274 607 1249 471 1199 353 C 1149 235 1078 143 986 78 C 894 12 789 -20 672 -20 Z M 672 186 C 788 186 878 237 943 339 C 1007 441 1040 580 1040 758 C 1040 936 1007 1075 942 1177 C 876 1278 786 1329 672 1329 C 557 1329 467 1278 401 1177 C 335 1075 303 936 303 758 C 303 578 335 438 401 337 C 467 236 557 186 672 186 Z" unicode="Ô" />
<glyph horiz-adv-x="1343" d="M 672 -20 C 553 -20 448 12 357 76 C 265 140 195 232 146 351 C 96 469 72 606 72 760 C 72 914 96 1050 145 1168 C 194 1286 264 1378 356 1443 C 447 1507 552 1540 672 1540 C 791 1540 896 1508 988 1444 C 1079 1380 1149 1289 1199 1171 C 1249 1053 1274 916 1274 760 C 1274 607 1249 471 1199 353 C 1149 235 1078 143 986 78 C 894 12 789 -20 672 -20 Z M 672 186 C 788 186 878 237 943 339 C 1007 441 1040 580 1040 758 C 1040 936 1007 1075 942 1177 C 876 1278 786 1329 672 1329 C 557 1329 467 1278 401 1177 C 335 1075 303 936 303 758 C 303 578 335 438 401 337 C 467 236 557 186 672 186 Z M 303 1693 C 333 1755 370 1804 412 1838 C 454 1872 499 1890 547 1890 C 573 1890 596 1885 617 1876 C 637 1867 656 1857 674 1847 C 692 1836 708 1826 724 1817 C 740 1808 756 1804 772 1804 C 816 1804 857 1835 895 1898 L 1038 1820 C 1006 1756 968 1707 926 1674 C 883 1640 838 1624 792 1624 C 768 1624 745 1628 725 1637 C 705 1645 686 1655 668 1666 C 650 1676 632 1686 615 1695 C 598 1703 581 1708 565 1708 C 519 1708 479 1676 446 1614 L 303 1693 Z" unicode="Õ" />
<glyph horiz-adv-x="1343" d="M 389 1851 L 590 1851 L 590 1618 L 389 1618 L 389 1851 Z M 749 1851 L 950 1851 L 950 1618 L 749 1618 L 749 1851 Z M 672 -20 C 553 -20 448 12 357 76 C 265 140 195 232 146 351 C 96 469 72 606 72 760 C 72 914 96 1050 145 1168 C 194 1286 264 1378 356 1443 C 447 1507 552 1540 672 1540 C 791 1540 896 1508 988 1444 C 1079 1380 1149 1289 1199 1171 C 1249 1053 1274 916 1274 760 C 1274 607 1249 471 1199 353 C 1149 235 1078 143 986 78 C 894 12 789 -20 672 -20 Z M 672 186 C 788 186 878 237 943 339 C 1007 441 1040 580 1040 758 C 1040 936 1007 1075 942 1177 C 876 1278 786 1329 672 1329 C 557 1329 467 1278 401 1177 C 335 1075 303 936 303 758 C 303 578 335 438 401 337 C 467 236 557 186 672 186 Z" unicode="Ö" />
<glyph horiz-adv-x="1188" d="M 219 475 L 465 723 L 219 969 L 348 1100 L 594 852 L 840 1098 L 969 967 L 721 721 L 969 477 L 840 346 L 594 592 L 348 346 L 219 475 Z" unicode="×" />
<glyph horiz-adv-x="1335" d="M 672 -20 C 596 -20 526 -6 461 20 L 408 -106 L 205 -106 L 303 121 C 229 189 172 277 132 386 C 92 494 72 619 72 760 C 72 914 96 1050 145 1168 C 194 1286 264 1378 356 1443 C 447 1507 552 1540 672 1540 C 742 1540 811 1527 877 1503 L 930 1626 L 1133 1626 L 1037 1405 C 1111 1338 1169 1250 1211 1141 C 1253 1031 1274 904 1274 760 C 1274 607 1249 471 1199 353 C 1149 235 1078 143 986 78 C 894 12 789 -20 672 -20 Z M 672 180 C 788 180 879 231 946 333 C 1013 435 1047 576 1047 758 C 1047 946 1010 1091 936 1195 L 529 212 C 573 190 620 180 672 180 Z M 299 758 C 299 573 333 430 402 328 L 806 1306 C 764 1325 719 1335 672 1335 C 556 1335 465 1284 399 1182 C 332 1080 299 938 299 758 Z" unicode="Ø" />
<glyph horiz-adv-x="1425" d="M 713 -20 C 541 -20 410 25 320 115 C 230 205 186 336 186 510 L 186 1327 L 49 1327 L 49 1518 L 608 1518 L 608 1331 L 416 1331 L 416 522 C 416 408 440 322 490 266 C 539 210 615 182 717 182 C 819 182 894 209 943 263 C 991 317 1016 404 1016 522 L 1016 1331 L 827 1331 L 827 1518 L 1376 1518 L 1376 1327 L 1239 1327 L 1239 510 C 1239 338 1193 206 1103 116 C 1013 25 883 -20 713 -20 Z M 444 1745 L 504 1931 L 973 1743 L 928 1597 L 444 1745 Z" unicode="Ù" />
<glyph horiz-adv-x="1425" d="M 456 1743 L 928 1931 L 987 1745 L 506 1597 L 456 1743 Z M 713 -20 C 541 -20 410 25 320 115 C 230 205 186 336 186 510 L 186 1327 L 49 1327 L 49 1518 L 608 1518 L 608 1331 L 416 1331 L 416 522 C 416 408 440 322 490 266 C 539 210 615 182 717 182 C 819 182 894 209 943 263 C 991 317 1016 404 1016 522 L 1016 1331 L 827 1331 L 827 1518 L 1376 1518 L 1376 1327 L 1239 1327 L 1239 510 C 1239 338 1193 206 1103 116 C 1013 25 883 -20 713 -20 Z" unicode="Ú" />
<glyph horiz-adv-x="1425" d="M 377 1728 L 667 1908 L 762 1908 L 1054 1728 L 993 1603 L 714 1718 L 438 1603 L 377 1728 Z M 713 -20 C 541 -20 410 25 320 115 C 230 205 186 336 186 510 L 186 1327 L 49 1327 L 49 1518 L 608 1518 L 608 1331 L 416 1331 L 416 522 C 416 408 440 322 490 266 C 539 210 615 182 717 182 C 819 182 894 209 943 263 C 991 317 1016 404 1016 522 L 1016 1331 L 827 1331 L 827 1518 L 1376 1518 L 1376 1327 L 1239 1327 L 1239 510 C 1239 338 1193 206 1103 116 C 1013 25 883 -20 713 -20 Z" unicode="Û" />
<glyph horiz-adv-x="1425" d="M 434 1851 L 635 1851 L 635 1618 L 434 1618 L 434 1851 Z M 794 1851 L 995 1851 L 995 1618 L 794 1618 L 794 1851 Z M 713 -20 C 541 -20 410 25 320 115 C 230 205 186 336 186 510 L 186 1327 L 49 1327 L 49 1518 L 608 1518 L 608 1331 L 416 1331 L 416 522 C 416 408 440 322 490 266 C 539 210 615 182 717 182 C 819 182 894 209 943 263 C 991 317 1016 404 1016 522 L 1016 1331 L 827 1331 L 827 1518 L 1376 1518 L 1376 1327 L 1239 1327 L 1239 510 C 1239 338 1193 206 1103 116 C 1013 25 883 -20 713 -20 Z" unicode="Ü" />
<glyph horiz-adv-x="1335" d="M 377 184 L 555 184 L 555 557 L 156 1327 L 49 1327 L 49 1518 L 561 1518 L 561 1331 L 389 1331 L 676 764 L 956 1331 L 793 1331 L 793 1518 L 1288 1518 L 1288 1327 L 1180 1327 L 784 555 L 784 184 L 961 184 L 961 0 L 377 0 L 377 184 Z M 411 1743 L 883 1931 L 942 1745 L 461 1597 L 411 1743 Z" unicode="Ý" />
<glyph horiz-adv-x="1237" d="M 49 186 L 201 186 L 201 1327 L 49 1327 L 49 1518 L 430 1518 L 430 1319 L 672 1319 C 838 1319 963 1279 1047 1201 C 1131 1122 1174 1006 1174 854 C 1174 699 1131 583 1045 505 C 959 427 833 389 668 389 L 430 389 L 430 186 L 614 186 L 614 0 L 49 0 L 49 186 Z M 676 563 C 766 563 833 585 877 629 C 920 673 942 745 942 844 C 942 942 920 1014 876 1060 C 832 1105 762 1128 666 1128 L 430 1128 L 430 563 L 676 563 Z" unicode="Þ" />
<glyph horiz-adv-x="1198" d="M 707 -8 C 621 -8 561 -3 528 6 L 563 203 C 587 196 627 193 682 193 C 753 193 809 217 850 267 C 890 316 911 383 911 469 C 911 573 885 648 833 692 C 781 736 693 758 571 758 L 571 948 C 663 948 732 969 776 1013 C 820 1057 842 1118 842 1196 C 842 1258 826 1308 796 1345 C 765 1382 716 1401 649 1401 C 581 1401 531 1384 500 1351 C 468 1317 453 1266 453 1196 L 453 0 L 49 0 L 49 184 L 233 184 L 233 950 L 49 950 L 49 1141 L 233 1141 L 233 1208 C 233 1334 268 1430 339 1496 C 410 1562 515 1595 655 1595 C 781 1595 879 1563 951 1499 C 1023 1435 1059 1348 1059 1237 C 1059 1143 1039 1065 1000 1005 C 961 945 909 902 844 877 C 936 855 1008 807 1058 735 C 1108 662 1133 571 1133 461 C 1133 312 1095 197 1019 115 C 943 33 839 -8 707 -8 Z" unicode="ß" />
<glyph horiz-adv-x="1061" d="M 696 170 C 640 46 531 -16 369 -16 C 270 -16 194 15 142 78 C 89 140 63 228 63 340 C 63 464 101 557 178 621 C 254 685 364 717 506 717 C 547 717 606 710 682 698 L 682 727 C 682 816 668 878 641 913 C 613 947 570 965 512 965 C 457 965 406 954 360 934 C 314 914 274 890 242 862 L 119 1022 C 231 1118 368 1167 528 1167 C 656 1167 750 1133 810 1066 C 869 998 899 891 899 743 L 899 184 L 1036 184 L 1036 10 L 727 -8 L 696 170 Z M 434 172 C 513 172 574 196 617 245 C 660 294 682 365 682 459 L 682 541 C 642 550 599 555 551 555 C 455 555 386 538 342 504 C 298 470 276 420 276 352 C 276 232 328 172 434 172 Z M 260 1391 L 320 1577 L 789 1389 L 744 1243 L 260 1391 Z" unicode="à" />
<glyph horiz-adv-x="1061" d="M 696 170 C 640 46 531 -16 369 -16 C 270 -16 194 15 142 78 C 89 140 63 228 63 340 C 63 464 101 557 178 621 C 254 685 364 717 506 717 C 547 717 606 710 682 698 L 682 727 C 682 816 668 878 641 913 C 613 947 570 965 512 965 C 457 965 406 954 360 934 C 314 914 274 890 242 862 L 119 1022 C 231 1118 368 1167 528 1167 C 656 1167 750 1133 810 1066 C 869 998 899 891 899 743 L 899 184 L 1036 184 L 1036 10 L 727 -8 L 696 170 Z M 434 172 C 513 172 574 196 617 245 C 660 294 682 365 682 459 L 682 541 C 642 550 599 555 551 555 C 455 555 386 538 342 504 C 298 470 276 420 276 352 C 276 232 328 172 434 172 Z M 272 1389 L 744 1577 L 803 1391 L 322 1243 L 272 1389 Z" unicode="á" />
<glyph horiz-adv-x="1061" d="M 696 170 C 640 46 531 -16 369 -16 C 270 -16 194 15 142 78 C 89 140 63 228 63 340 C 63 464 101 557 178 621 C 254 685 364 717 506 717 C 547 717 606 710 682 698 L 682 727 C 682 816 668 878 641 913 C 613 947 570 965 512 965 C 457 965 406 954 360 934 C 314 914 274 890 242 862 L 119 1022 C 231 1118 368 1167 528 1167 C 656 1167 750 1133 810 1066 C 869 998 899 891 899 743 L 899 184 L 1036 184 L 1036 10 L 727 -8 L 696 170 Z M 434 172 C 513 172 574 196 617 245 C 660 294 682 365 682 459 L 682 541 C 642 550 599 555 551 555 C 455 555 386 538 342 504 C 298 470 276 420 276 352 C 276 232 328 172 434 172 Z M 191 1374 L 481 1554 L 576 1554 L 868 1374 L 807 1249 L 528 1364 L 252 1249 L 191 1374 Z" unicode="â" />
<glyph horiz-adv-x="1061" d="M 696 170 C 640 46 531 -16 369 -16 C 270 -16 194 15 142 78 C 89 140 63 228 63 340 C 63 464 101 557 178 621 C 254 685 364 717 506 717 C 547 717 606 710 682 698 L 682 727 C 682 816 668 878 641 913 C 613 947 570 965 512 965 C 457 965 406 954 360 934 C 314 914 274 890 242 862 L 119 1022 C 231 1118 368 1167 528 1167 C 656 1167 750 1133 810 1066 C 869 998 899 891 899 743 L 899 184 L 1036 184 L 1036 10 L 727 -8 L 696 170 Z M 434 172 C 513 172 574 196 617 245 C 660 294 682 365 682 459 L 682 541 C 642 550 599 555 551 555 C 455 555 386 538 342 504 C 298 470 276 420 276 352 C 276 232 328 172 434 172 Z M 162 1339 C 192 1401 229 1450 271 1484 C 313 1518 358 1536 406 1536 C 432 1536 455 1531 476 1522 C 496 1513 515 1503 533 1493 C 551 1482 567 1472 583 1463 C 599 1454 615 1450 631 1450 C 675 1450 716 1481 754 1544 L 897 1466 C 865 1402 827 1353 785 1320 C 742 1286 697 1270 651 1270 C 627 1270 604 1274 584 1283 C 564 1291 545 1301 527 1312 C 509 1322 491 1332 474 1341 C 457 1349 440 1354 424 1354 C 378 1354 338 1322 305 1260 L 162 1339 Z" unicode="ã" />
<glyph horiz-adv-x="1061" d="M 696 170 C 640 46 531 -16 369 -16 C 270 -16 194 15 142 78 C 89 140 63 228 63 340 C 63 464 101 557 178 621 C 254 685 364 717 506 717 C 547 717 606 710 682 698 L 682 727 C 682 816 668 878 641 913 C 613 947 570 965 512 965 C 457 965 406 954 360 934 C 314 914 274 890 242 862 L 119 1022 C 231 1118 368 1167 528 1167 C 656 1167 750 1133 810 1066 C 869 998 899 891 899 743 L 899 184 L 1036 184 L 1036 10 L 727 -8 L 696 170 Z M 434 172 C 513 172 574 196 617 245 C 660 294 682 365 682 459 L 682 541 C 642 550 599 555 551 555 C 455 555 386 538 342 504 C 298 470 276 420 276 352 C 276 232 328 172 434 172 Z M 248 1497 L 449 1497 L 449 1264 L 248 1264 L 248 1497 Z M 608 1497 L 809 1497 L 809 1264 L 608 1264 L 608 1497 Z" unicode="ä" />
<glyph horiz-adv-x="1061" d="M 696 170 C 640 46 531 -16 369 -16 C 270 -16 194 15 142 78 C 89 140 63 228 63 340 C 63 464 101 557 178 621 C 254 685 364 717 506 717 C 547 717 606 710 682 698 L 682 727 C 682 816 668 878 641 913 C 613 947 570 965 512 965 C 457 965 406 954 360 934 C 314 914 274 890 242 862 L 119 1022 C 231 1118 368 1167 528 1167 C 656 1167 750 1133 810 1066 C 869 998 899 891 899 743 L 899 184 L 1036 184 L 1036 10 L 727 -8 L 696 170 Z M 434 172 C 513 172 574 196 617 245 C 660 294 682 365 682 459 L 682 541 C 642 550 599 555 551 555 C 455 555 386 538 342 504 C 298 470 276 420 276 352 C 276 232 328 172 434 172 Z M 528 1241 C 457 1241 400 1264 358 1311 C 316 1357 295 1419 295 1497 C 295 1574 315 1636 357 1684 C 399 1731 456 1755 528 1755 C 599 1755 655 1731 697 1683 C 739 1635 760 1573 760 1497 C 760 1419 739 1357 697 1311 C 655 1264 598 1241 528 1241 Z M 528 1362 C 563 1362 590 1374 609 1399 C 627 1424 637 1457 637 1497 C 637 1537 627 1569 609 1595 C 590 1621 563 1634 528 1634 C 493 1634 467 1621 449 1595 C 431 1569 422 1537 422 1497 C 422 1457 431 1424 449 1399 C 467 1374 493 1362 528 1362 Z" unicode="å" />
<glyph horiz-adv-x="1622" d="M 377 -16 C 275 -16 198 15 144 77 C 90 139 63 226 63 340 C 63 464 101 557 178 621 C 254 685 364 717 506 717 C 547 717 606 710 682 698 L 682 727 C 682 815 667 876 639 912 C 611 947 566 965 506 965 C 405 965 318 929 246 858 L 117 1008 C 220 1114 357 1167 528 1167 C 608 1167 670 1153 715 1127 C 760 1100 793 1062 815 1012 C 890 1115 997 1167 1135 1167 C 1203 1167 1261 1155 1311 1132 C 1361 1108 1402 1074 1434 1028 C 1466 982 1490 923 1506 851 C 1522 779 1531 684 1531 568 L 1530 500 L 893 500 C 898 392 920 310 959 253 C 998 196 1054 168 1126 168 C 1178 168 1222 181 1258 209 C 1293 237 1323 284 1348 352 L 1536 295 C 1506 193 1454 116 1382 62 C 1310 8 1220 -18 1114 -18 C 948 -18 830 55 762 201 C 722 125 671 69 610 35 C 549 1 471 -16 377 -16 Z M 434 172 C 513 172 574 196 617 245 C 660 294 682 365 682 459 L 682 541 C 642 550 599 555 551 555 C 455 555 386 538 342 504 C 298 470 276 420 276 352 C 276 232 328 172 434 172 Z M 1319 678 C 1319 775 1302 848 1269 898 C 1235 948 1188 973 1126 973 C 1058 973 1005 947 967 895 C 929 843 905 771 895 678 L 1319 678 Z" unicode="æ" />
<glyph horiz-adv-x="1022" d="M 512 -16 C 371 -16 262 34 186 135 C 110 236 72 382 72 573 C 72 685 90 788 128 882 C 166 975 216 1045 279 1092 C 342 1139 415 1163 498 1163 C 626 1163 712 1114 756 1016 L 756 1141 L 922 1141 L 922 739 L 748 739 C 734 815 710 872 676 908 C 641 944 592 963 528 963 C 453 963 395 929 355 861 C 315 793 295 697 295 571 C 295 309 375 178 537 178 C 593 178 638 195 673 229 C 707 263 736 321 758 401 L 946 350 C 886 106 741 -16 512 -16 Z M 507 -446 C 422 -446 350 -430 292 -399 L 356 -276 C 401 -300 449 -313 499 -313 C 574 -313 612 -285 612 -231 C 612 -200 601 -180 581 -171 C 560 -162 535 -158 506 -158 L 469 -160 L 411 -123 L 438 14 L 573 14 L 559 -82 L 596 -79 C 647 -79 687 -93 717 -122 C 746 -151 761 -191 761 -242 C 761 -304 738 -354 694 -391 C 650 -427 587 -446 507 -446 Z" unicode="ç" />
<glyph horiz-adv-x="1022" d="M 512 -18 C 370 -18 261 33 186 135 C 111 237 74 383 74 575 C 74 697 93 804 131 896 C 169 987 222 1055 290 1100 C 358 1144 438 1167 532 1167 C 600 1167 658 1155 708 1133 C 757 1110 798 1077 830 1033 C 862 989 886 931 903 860 C 920 788 929 697 930 585 L 928 500 L 293 500 C 305 278 382 168 524 168 C 578 168 623 182 659 211 C 694 239 724 286 748 352 L 934 295 C 904 193 852 116 780 62 C 708 8 618 -18 512 -18 Z M 719 678 C 717 775 700 848 667 898 C 633 948 586 973 524 973 C 392 973 316 874 295 678 L 719 678 Z M 241 1391 L 301 1577 L 770 1389 L 725 1243 L 241 1391 Z" unicode="è" />
<glyph horiz-adv-x="1022" d="M 253 1389 L 725 1577 L 784 1391 L 303 1243 L 253 1389 Z M 512 -18 C 370 -18 261 33 186 135 C 111 237 74 383 74 575 C 74 697 93 804 131 896 C 169 987 222 1055 290 1100 C 358 1144 438 1167 532 1167 C 600 1167 658 1155 708 1133 C 757 1110 798 1077 830 1033 C 862 989 886 931 903 860 C 920 788 929 697 930 585 L 928 500 L 293 500 C 305 278 382 168 524 168 C 578 168 623 182 659 211 C 694 239 724 286 748 352 L 934 295 C 904 193 852 116 780 62 C 708 8 618 -18 512 -18 Z M 719 678 C 717 775 700 848 667 898 C 633 948 586 973 524 973 C 392 973 316 874 295 678 L 719 678 Z" unicode="é" />
<glyph horiz-adv-x="1022" d="M 172 1374 L 462 1554 L 557 1554 L 849 1374 L 788 1249 L 509 1364 L 233 1249 L 172 1374 Z M 512 -18 C 370 -18 261 33 186 135 C 111 237 74 383 74 575 C 74 697 93 804 131 896 C 169 987 222 1055 290 1100 C 358 1144 438 1167 532 1167 C 600 1167 658 1155 708 1133 C 757 1110 798 1077 830 1033 C 862 989 886 931 903 860 C 920 788 929 697 930 585 L 928 500 L 293 500 C 305 278 382 168 524 168 C 578 168 623 182 659 211 C 694 239 724 286 748 352 L 934 295 C 904 193 852 116 780 62 C 708 8 618 -18 512 -18 Z M 719 678 C 717 775 700 848 667 898 C 633 948 586 973 524 973 C 392 973 316 874 295 678 L 719 678 Z" unicode="ê" />
<glyph horiz-adv-x="1022" d="M 229 1497 L 430 1497 L 430 1264 L 229 1264 L 229 1497 Z M 589 1497 L 790 1497 L 790 1264 L 589 1264 L 589 1497 Z M 512 -18 C 370 -18 261 33 186 135 C 111 237 74 383 74 575 C 74 697 93 804 131 896 C 169 987 222 1055 290 1100 C 358 1144 438 1167 532 1167 C 600 1167 658 1155 708 1133 C 757 1110 798 1077 830 1033 C 862 989 886 931 903 860 C 920 788 929 697 930 585 L 928 500 L 293 500 C 305 278 382 168 524 168 C 578 168 623 182 659 211 C 694 239 724 286 748 352 L 934 295 C 904 193 852 116 780 62 C 708 8 618 -18 512 -18 Z M 719 678 C 717 775 700 848 667 898 C 633 948 586 973 524 973 C 392 973 316 874 295 678 L 719 678 Z" unicode="ë" />
<glyph horiz-adv-x="590" d="M 44 184 L 198 184 L 198 950 L 44 950 L 44 1135 L 419 1153 L 419 184 L 581 184 L 581 0 L 44 0 L 44 184 Z M -1 1391 L 59 1577 L 528 1389 L 483 1243 L -1 1391 Z" unicode="ì" />
<glyph horiz-adv-x="590" d="M 44 1389 L 516 1577 L 575 1391 L 94 1243 L 44 1389 Z M 44 184 L 198 184 L 198 950 L 44 950 L 44 1135 L 419 1153 L 419 184 L 581 184 L 581 0 L 44 0 L 44 184 Z" unicode="í" />
<glyph horiz-adv-x="590" d="M -37 1374 L 253 1554 L 348 1554 L 640 1374 L 579 1249 L 300 1364 L 24 1249 L -37 1374 Z M 44 184 L 198 184 L 198 950 L 44 950 L 44 1135 L 419 1153 L 419 184 L 581 184 L 581 0 L 44 0 L 44 184 Z" unicode="î" />
<glyph horiz-adv-x="590" d="M 20 1497 L 221 1497 L 221 1264 L 20 1264 L 20 1497 Z M 380 1497 L 581 1497 L 581 1264 L 380 1264 L 380 1497 Z M 44 184 L 198 184 L 198 950 L 44 950 L 44 1135 L 419 1153 L 419 184 L 581 184 L 581 0 L 44 0 L 44 184 Z" unicode="ï" />
<glyph horiz-adv-x="1079" d="M 471 1350 L 592 1382 C 566 1422 538 1460 506 1495 L 676 1606 C 722 1553 763 1497 799 1437 L 995 1489 L 995 1327 L 873 1294 C 961 1092 1006 858 1006 594 C 1006 401 965 250 883 142 C 801 34 687 -20 539 -20 C 391 -20 276 30 194 132 C 112 234 72 375 72 557 C 72 731 109 868 184 968 C 259 1068 364 1118 500 1118 C 612 1118 696 1075 752 989 C 731 1081 703 1164 669 1240 L 471 1188 L 471 1350 Z M 539 178 C 619 178 679 210 720 276 C 761 342 782 435 782 557 C 782 679 761 773 720 839 C 678 905 618 938 539 938 C 460 938 399 905 357 840 C 314 774 293 680 293 557 C 293 433 314 339 356 275 C 398 210 459 178 539 178 Z" unicode="ð" />
<glyph horiz-adv-x="1202" d="M 49 184 L 188 184 L 188 950 L 49 950 L 49 1135 L 356 1153 L 387 969 C 411 1031 452 1080 509 1115 C 565 1149 636 1167 721 1167 C 828 1167 908 1133 961 1067 C 1013 1000 1040 894 1040 750 L 1040 184 L 1178 184 L 1178 0 L 682 0 L 682 184 L 819 184 L 819 713 C 819 805 805 869 777 906 C 749 942 704 961 641 961 C 562 961 503 937 465 889 C 427 841 408 764 408 659 L 408 184 L 545 184 L 545 0 L 49 0 L 49 184 Z M 234 1339 C 264 1401 301 1450 343 1484 C 385 1518 430 1536 478 1536 C 504 1536 527 1531 548 1522 C 568 1513 587 1503 605 1493 C 623 1482 639 1472 655 1463 C 671 1454 687 1450 703 1450 C 747 1450 788 1481 826 1544 L 969 1466 C 937 1402 899 1353 857 1320 C 814 1286 769 1270 723 1270 C 699 1270 676 1274 656 1283 C 636 1291 617 1301 599 1312 C 581 1322 563 1332 546 1341 C 529 1349 512 1354 496 1354 C 450 1354 410 1322 377 1260 L 234 1339 Z" unicode="ñ" />
<glyph horiz-adv-x="1075" d="M 539 -20 C 392 -20 277 32 195 136 C 113 240 72 386 72 573 C 72 759 112 905 193 1010 C 274 1114 389 1167 539 1167 C 687 1167 802 1114 884 1008 C 965 902 1006 757 1006 573 C 1006 387 964 242 882 137 C 800 32 685 -20 539 -20 Z M 539 176 C 619 176 679 210 720 279 C 761 348 782 445 782 569 C 782 694 761 791 720 860 C 679 928 619 963 539 963 C 460 963 399 929 357 861 C 314 793 293 696 293 569 C 293 441 314 343 356 276 C 398 209 459 176 539 176 Z M 268 1391 L 328 1577 L 797 1389 L 752 1243 L 268 1391 Z" unicode="ò" />
<glyph horiz-adv-x="1075" d="M 280 1389 L 752 1577 L 811 1391 L 330 1243 L 280 1389 Z M 539 -20 C 392 -20 277 32 195 136 C 113 240 72 386 72 573 C 72 759 112 905 193 1010 C 274 1114 389 1167 539 1167 C 687 1167 802 1114 884 1008 C 965 902 1006 757 1006 573 C 1006 387 964 242 882 137 C 800 32 685 -20 539 -20 Z M 539 176 C 619 176 679 210 720 279 C 761 348 782 445 782 569 C 782 694 761 791 720 860 C 679 928 619 963 539 963 C 460 963 399 929 357 861 C 314 793 293 696 293 569 C 293 441 314 343 356 276 C 398 209 459 176 539 176 Z" unicode="ó" />
<glyph horiz-adv-x="1075" d="M 199 1374 L 489 1554 L 584 1554 L 876 1374 L 815 1249 L 536 1364 L 260 1249 L 199 1374 Z M 539 -20 C 392 -20 277 32 195 136 C 113 240 72 386 72 573 C 72 759 112 905 193 1010 C 274 1114 389 1167 539 1167 C 687 1167 802 1114 884 1008 C 965 902 1006 757 1006 573 C 1006 387 964 242 882 137 C 800 32 685 -20 539 -20 Z M 539 176 C 619 176 679 210 720 279 C 761 348 782 445 782 569 C 782 694 761 791 720 860 C 679 928 619 963 539 963 C 460 963 399 929 357 861 C 314 793 293 696 293 569 C 293 441 314 343 356 276 C 398 209 459 176 539 176 Z" unicode="ô" />
<glyph horiz-adv-x="1075" d="M 539 -20 C 392 -20 277 32 195 136 C 113 240 72 386 72 573 C 72 759 112 905 193 1010 C 274 1114 389 1167 539 1167 C 687 1167 802 1114 884 1008 C 965 902 1006 757 1006 573 C 1006 387 964 242 882 137 C 800 32 685 -20 539 -20 Z M 539 176 C 619 176 679 210 720 279 C 761 348 782 445 782 569 C 782 694 761 791 720 860 C 679 928 619 963 539 963 C 460 963 399 929 357 861 C 314 793 293 696 293 569 C 293 441 314 343 356 276 C 398 209 459 176 539 176 Z M 170 1339 C 200 1401 237 1450 279 1484 C 321 1518 366 1536 414 1536 C 440 1536 463 1531 484 1522 C 504 1513 523 1503 541 1493 C 559 1482 575 1472 591 1463 C 607 1454 623 1450 639 1450 C 683 1450 724 1481 762 1544 L 905 1466 C 873 1402 835 1353 793 1320 C 750 1286 705 1270 659 1270 C 635 1270 612 1274 592 1283 C 572 1291 553 1301 535 1312 C 517 1322 499 1332 482 1341 C 465 1349 448 1354 432 1354 C 386 1354 346 1322 313 1260 L 170 1339 Z" unicode="õ" />
<glyph horiz-adv-x="1075" d="M 256 1497 L 457 1497 L 457 1264 L 256 1264 L 256 1497 Z M 616 1497 L 817 1497 L 817 1264 L 616 1264 L 616 1497 Z M 539 -20 C 392 -20 277 32 195 136 C 113 240 72 386 72 573 C 72 759 112 905 193 1010 C 274 1114 389 1167 539 1167 C 687 1167 802 1114 884 1008 C 965 902 1006 757 1006 573 C 1006 387 964 242 882 137 C 800 32 685 -20 539 -20 Z M 539 176 C 619 176 679 210 720 279 C 761 348 782 445 782 569 C 782 694 761 791 720 860 C 679 928 619 963 539 963 C 460 963 399 929 357 861 C 314 793 293 696 293 569 C 293 441 314 343 356 276 C 398 209 459 176 539 176 Z" unicode="ö" />
<glyph horiz-adv-x="1188" d="M 477 465 L 713 465 L 713 242 L 477 242 L 477 465 Z M 164 825 L 1024 825 L 1024 621 L 164 621 L 164 825 Z M 477 1200 L 713 1200 L 713 977 L 477 977 L 477 1200 Z" unicode="÷" />
<glyph horiz-adv-x="1069" d="M 539 -20 C 483 -20 428 -11 375 6 L 326 -104 L 139 -104 L 233 94 C 125 197 72 357 72 573 C 72 759 112 905 193 1010 C 274 1114 389 1167 539 1167 C 595 1167 647 1158 696 1142 L 750 1255 L 934 1255 L 838 1058 C 894 1006 936 938 964 855 C 992 771 1006 677 1006 573 C 1006 387 964 242 882 137 C 800 32 685 -20 539 -20 Z M 539 170 C 618 170 679 204 723 272 C 766 340 788 439 788 569 C 788 687 769 781 733 849 L 444 189 C 470 176 501 170 539 170 Z M 285 569 C 285 456 302 366 336 298 L 623 953 C 596 963 568 969 539 969 C 457 969 395 934 351 864 C 307 794 285 695 285 569 Z" unicode="ø" />
<glyph horiz-adv-x="1186" d="M 481 -18 C 372 -18 292 14 240 78 C 188 142 162 249 162 399 L 162 950 L 37 950 L 37 1133 L 383 1155 L 383 428 C 383 335 396 270 424 234 C 452 198 497 180 561 180 C 641 180 699 202 736 247 C 772 291 791 369 791 479 L 791 950 L 618 950 L 618 1133 L 1012 1155 L 1012 184 L 1161 184 L 1161 10 L 842 -8 L 811 172 C 757 45 647 -18 481 -18 Z M 317 1391 L 377 1577 L 846 1389 L 801 1243 L 317 1391 Z" unicode="ù" />
<glyph horiz-adv-x="1186" d="M 329 1389 L 801 1577 L 860 1391 L 379 1243 L 329 1389 Z M 481 -18 C 372 -18 292 14 240 78 C 188 142 162 249 162 399 L 162 950 L 37 950 L 37 1133 L 383 1155 L 383 428 C 383 335 396 270 424 234 C 452 198 497 180 561 180 C 641 180 699 202 736 247 C 772 291 791 369 791 479 L 791 950 L 618 950 L 618 1133 L 1012 1155 L 1012 184 L 1161 184 L 1161 10 L 842 -8 L 811 172 C 757 45 647 -18 481 -18 Z" unicode="ú" />
<glyph horiz-adv-x="1186" d="M 242 1374 L 532 1554 L 627 1554 L 919 1374 L 858 1249 L 579 1364 L 303 1249 L 242 1374 Z M 481 -18 C 372 -18 292 14 240 78 C 188 142 162 249 162 399 L 162 950 L 37 950 L 37 1133 L 383 1155 L 383 428 C 383 335 396 270 424 234 C 452 198 497 180 561 180 C 641 180 699 202 736 247 C 772 291 791 369 791 479 L 791 950 L 618 950 L 618 1133 L 1012 1155 L 1012 184 L 1161 184 L 1161 10 L 842 -8 L 811 172 C 757 45 647 -18 481 -18 Z" unicode="û" />
<glyph horiz-adv-x="1186" d="M 295 1497 L 496 1497 L 496 1264 L 295 1264 L 295 1497 Z M 655 1497 L 856 1497 L 856 1264 L 655 1264 L 655 1497 Z M 481 -18 C 372 -18 292 14 240 78 C 188 142 162 249 162 399 L 162 950 L 37 950 L 37 1133 L 383 1155 L 383 428 C 383 335 396 270 424 234 C 452 198 497 180 561 180 C 641 180 699 202 736 247 C 772 291 791 369 791 479 L 791 950 L 618 950 L 618 1133 L 1012 1155 L 1012 184 L 1161 184 L 1161 10 L 842 -8 L 811 172 C 757 45 647 -18 481 -18 Z" unicode="ü" />
<glyph horiz-adv-x="1104" d="M 313 -338 C 239 -338 174 -327 119 -307 L 170 -117 C 226 -133 273 -141 309 -141 C 351 -141 381 -132 399 -115 C 417 -98 434 -66 451 -20 L 451 -19 L 131 950 L 25 950 L 25 1141 L 496 1141 L 496 952 L 350 952 L 558 243 L 774 952 L 639 952 L 639 1141 L 1081 1141 L 1081 950 L 975 950 L 633 -82 C 601 -174 561 -240 513 -279 C 465 -318 398 -338 313 -338 Z M 301 1389 L 773 1577 L 832 1391 L 351 1243 L 301 1389 Z" unicode="ý" />
<glyph horiz-adv-x="1169" d="M 37 -145 L 176 -145 L 176 1370 L 37 1370 L 37 1556 L 395 1577 L 395 981 C 459 1105 570 1167 727 1167 C 847 1167 938 1115 1002 1013 C 1066 910 1098 763 1098 573 C 1098 383 1064 237 998 137 C 931 36 835 -14 711 -14 C 567 -14 461 46 395 166 L 395 -145 L 549 -145 L 549 -326 L 37 -326 L 37 -145 Z M 662 178 C 803 178 874 307 874 567 C 874 697 856 795 820 862 C 784 929 732 963 662 963 C 575 963 509 929 463 862 C 417 794 395 696 395 567 C 395 443 416 347 460 279 C 504 211 571 178 662 178 Z" unicode="þ" />
<glyph horiz-adv-x="1104" d="M 313 -338 C 239 -338 174 -327 119 -307 L 170 -117 C 226 -133 273 -141 309 -141 C 351 -141 381 -132 399 -115 C 417 -98 434 -66 451 -20 L 451 -19 L 131 950 L 25 950 L 25 1141 L 496 1141 L 496 952 L 350 952 L 558 243 L 774 952 L 639 952 L 639 1141 L 1081 1141 L 1081 950 L 975 950 L 633 -82 C 601 -174 561 -240 513 -279 C 465 -318 398 -338 313 -338 Z M 285 1497 L 486 1497 L 486 1264 L 285 1264 L 285 1497 Z M 645 1497 L 846 1497 L 846 1264 L 645 1264 L 645 1497 Z" unicode="ÿ" />
<glyph horiz-adv-x="1395" d="" unicode="Ā" />
<glyph horiz-adv-x="1061" d="" unicode="ā" />
<glyph horiz-adv-x="1395" d="" unicode="Ă" />
<glyph horiz-adv-x="1061" d="" unicode="ă" />
<glyph horiz-adv-x="1395" d="" unicode="Ą" />
<glyph horiz-adv-x="1061" d="" unicode="ą" />
<glyph horiz-adv-x="1274" d="" unicode="Ć" />
<glyph horiz-adv-x="1022" d="" unicode="ć" />
<glyph horiz-adv-x="1274" d="" unicode="Ĉ" />
<glyph horiz-adv-x="1022" d="" unicode="ĉ" />
<glyph horiz-adv-x="1274" d="" unicode="Ċ" />
<glyph horiz-adv-x="1022" d="" unicode="ċ" />
<glyph horiz-adv-x="1274" d="" unicode="Č" />
<glyph horiz-adv-x="1022" d="" unicode="č" />
<glyph horiz-adv-x="1311" d="" unicode="Ď" />
<glyph horiz-adv-x="1169" d="" unicode="ď" />
<glyph horiz-adv-x="1311" d="" unicode="Đ" />
<glyph horiz-adv-x="1167" d="" unicode="đ" />
<glyph horiz-adv-x="1176" d="" unicode="Ē" />
<glyph horiz-adv-x="1022" d="" unicode="ē" />
<glyph horiz-adv-x="1176" d="" unicode="Ĕ" />
<glyph horiz-adv-x="1022" d="" unicode="ĕ" />
<glyph horiz-adv-x="1176" d="" unicode="Ė" />
<glyph horiz-adv-x="1022" d="" unicode="ė" />
<glyph horiz-adv-x="1176" d="" unicode="Ę" />
<glyph horiz-adv-x="1022" d="" unicode="ę" />
<glyph horiz-adv-x="1176" d="" unicode="Ě" />
<glyph horiz-adv-x="1022" d="" unicode="ě" />
<glyph horiz-adv-x="1309" d="" unicode="Ĝ" />
<glyph horiz-adv-x="1012" d="" unicode="ĝ" />
<glyph horiz-adv-x="1309" d="" unicode="Ğ" />
<glyph horiz-adv-x="1012" d="" unicode="ğ" />
<glyph horiz-adv-x="1309" d="" unicode="Ġ" />
<glyph horiz-adv-x="1012" d="" unicode="ġ" />
<glyph horiz-adv-x="1309" d="" unicode="Ģ" />
<glyph horiz-adv-x="1012" d="" unicode="ģ" />
<glyph horiz-adv-x="1446" d="" unicode="Ĥ" />
<glyph horiz-adv-x="1190" d="" unicode="ĥ" />
<glyph horiz-adv-x="1446" d="" unicode="Ħ" />
<glyph horiz-adv-x="1192" d="" unicode="ħ" />
<glyph horiz-adv-x="657" d="" unicode="Ĩ" />
<glyph horiz-adv-x="590" d="" unicode="ĩ" />
<glyph horiz-adv-x="657" d="" unicode="Ī" />
<glyph horiz-adv-x="590" d="" unicode="ī" />
<glyph horiz-adv-x="657" d="" unicode="Ĭ" />
<glyph horiz-adv-x="590" d="" unicode="ĭ" />
<glyph horiz-adv-x="657" d="" unicode="Į" />
<glyph horiz-adv-x="590" d="" unicode="į" />
<glyph horiz-adv-x="657" d="" unicode="İ" />
<glyph horiz-adv-x="610" d="M 49 184 L 203 184 L 203 950 L 49 950 L 49 1135 L 424 1153 L 424 184 L 586 184 L 586 0 L 49 0 L 49 184 Z" unicode="ı" />
<glyph horiz-adv-x="1358" d="" unicode="Ĳ" />
<glyph horiz-adv-x="1087" d="" unicode="ĳ" />
<glyph horiz-adv-x="858" d="" unicode="Ĵ" />
<glyph horiz-adv-x="526" d="" unicode="ĵ" />
<glyph horiz-adv-x="1348" d="" unicode="Ķ" />
<glyph horiz-adv-x="1133" d="" unicode="ķ" />
<glyph horiz-adv-x="1137" d="" unicode="Ĺ" />
<glyph horiz-adv-x="588" d="" unicode="ĺ" />
<glyph horiz-adv-x="1137" d="" unicode="Ļ" />
<glyph horiz-adv-x="588" d="" unicode="ļ" />
<glyph horiz-adv-x="1137" d="" unicode="Ľ" />
<glyph horiz-adv-x="588" d="" unicode="ľ" />
<glyph horiz-adv-x="1137" d="" unicode="Ŀ" />
<glyph horiz-adv-x="666" d="" unicode="ŀ" />
<glyph horiz-adv-x="1137" d="" unicode="Ł" />
<glyph horiz-adv-x="629" d="" unicode="ł" />
<glyph horiz-adv-x="1446" d="" unicode="Ń" />
<glyph horiz-adv-x="1202" d="" unicode="ń" />
<glyph horiz-adv-x="1446" d="" unicode="Ņ" />
<glyph horiz-adv-x="1202" d="" unicode="ņ" />
<glyph horiz-adv-x="1446" d="" unicode="Ň" />
<glyph horiz-adv-x="1202" d="" unicode="ň" />
<glyph horiz-adv-x="1446" d="" unicode="Ŋ" />
<glyph horiz-adv-x="1155" d="" unicode="ŋ" />
<glyph horiz-adv-x="1343" d="" unicode="Ō" />
<glyph horiz-adv-x="1075" d="" unicode="ō" />
<glyph horiz-adv-x="1343" d="" unicode="Ŏ" />
<glyph horiz-adv-x="1075" d="" unicode="ŏ" />
<glyph horiz-adv-x="1343" d="" unicode="Ő" />
<glyph horiz-adv-x="1075" d="" unicode="ő" />
<glyph horiz-adv-x="1853" d="M 707 0 C 501 0 344 64 235 192 C 126 320 72 508 72 758 C 72 1004 127 1193 239 1323 C 351 1453 512 1518 723 1518 L 1757 1518 L 1757 1042 L 1548 1042 L 1548 1331 L 1108 1331 L 1108 864 L 1477 864 L 1477 676 L 1108 676 L 1108 184 L 1556 184 L 1556 508 L 1765 508 L 1765 0 L 707 0 Z M 883 186 L 883 1329 L 702 1329 C 570 1329 470 1282 403 1190 C 336 1098 303 953 303 756 C 303 562 336 419 403 326 C 469 232 573 186 715 186 L 883 186 Z" unicode="Œ" />
<glyph horiz-adv-x="1720" d="M 539 -20 C 392 -20 277 32 195 136 C 113 240 72 386 72 573 C 72 759 112 905 193 1010 C 274 1114 389 1167 539 1167 C 697 1167 813 1095 887 952 C 957 1095 1071 1167 1231 1167 C 1291 1167 1343 1158 1387 1141 C 1431 1123 1468 1099 1498 1067 C 1528 1035 1553 997 1572 952 C 1590 907 1604 856 1614 798 C 1624 740 1629 664 1629 568 L 1628 500 L 991 500 C 1005 278 1083 168 1225 168 C 1278 168 1322 182 1357 210 C 1392 238 1422 285 1446 352 L 1632 295 C 1601 191 1550 113 1478 61 C 1406 8 1316 -18 1210 -18 C 1058 -18 949 50 883 188 C 811 49 696 -20 539 -20 Z M 539 176 C 619 176 679 210 720 279 C 761 348 782 445 782 569 C 782 694 761 791 720 860 C 679 928 619 963 539 963 C 460 963 399 929 357 861 C 314 793 293 696 293 569 C 293 441 314 343 356 276 C 398 209 459 176 539 176 Z M 1417 678 C 1417 775 1400 848 1367 898 C 1334 948 1287 973 1225 973 C 1094 973 1017 874 993 678 L 1417 678 Z" unicode="œ" />
<glyph horiz-adv-x="1282" d="" unicode="Ŕ" />
<glyph horiz-adv-x="772" d="" unicode="ŕ" />
<glyph horiz-adv-x="1282" d="" unicode="Ŗ" />
<glyph horiz-adv-x="772" d="" unicode="ŗ" />
<glyph horiz-adv-x="1282" d="" unicode="Ř" />
<glyph horiz-adv-x="772" d="" unicode="ř" />
<glyph horiz-adv-x="1153" d="" unicode="Ś" />
<glyph horiz-adv-x="928" d="" unicode="ś" />
<glyph horiz-adv-x="1153" d="" unicode="Ŝ" />
<glyph horiz-adv-x="928" d="" unicode="ŝ" />
<glyph horiz-adv-x="1153" d="" unicode="Ş" />
<glyph horiz-adv-x="928" d="" unicode="ş" />
<glyph horiz-adv-x="1153" d="M 236 1779 L 299 1902 L 575 1788 L 854 1902 L 915 1779 L 623 1599 L 530 1599 L 236 1779 Z M 614 -20 C 437 -20 320 35 264 147 L 264 0 L 84 0 L 84 508 L 272 508 C 286 386 318 301 368 251 C 418 201 492 176 590 176 C 767 176 856 245 856 385 C 856 441 836 490 797 532 C 757 574 699 611 622 644 C 496 696 408 736 359 763 C 310 789 268 820 233 854 C 197 888 169 929 147 976 C 125 1023 115 1080 115 1147 C 115 1263 154 1357 234 1429 C 313 1501 416 1538 543 1538 C 699 1538 802 1489 852 1391 L 852 1518 L 1030 1518 L 1030 1042 L 844 1042 C 832 1144 804 1218 760 1264 C 715 1310 653 1333 573 1333 C 497 1333 439 1316 399 1282 C 359 1248 340 1203 340 1147 C 340 1095 359 1049 397 1010 C 435 970 494 934 575 900 C 701 846 788 806 837 780 C 886 753 928 722 964 688 C 999 653 1027 612 1049 564 C 1070 516 1081 460 1081 395 C 1081 265 1039 163 955 90 C 871 16 758 -20 614 -20 Z" unicode="Š" />
<glyph horiz-adv-x="928" d="M 126 1425 L 189 1548 L 465 1434 L 744 1548 L 805 1425 L 513 1245 L 420 1245 L 126 1425 Z M 510 -14 C 439 -14 379 -1 330 22 C 281 46 247 81 227 127 L 227 0 L 66 0 L 66 408 L 238 408 C 248 327 274 266 317 224 C 359 182 413 162 477 162 C 600 162 662 209 662 303 C 662 340 647 372 618 398 C 588 424 542 448 479 469 C 354 509 269 545 224 576 C 178 606 144 644 120 689 C 96 733 84 786 84 848 C 84 942 116 1018 181 1077 C 245 1135 327 1165 426 1165 C 486 1165 538 1154 582 1132 C 626 1110 658 1078 678 1036 L 678 1141 L 840 1141 L 840 782 L 668 782 C 656 848 633 898 599 930 C 565 962 519 979 459 979 C 407 979 367 967 341 943 C 314 919 301 887 301 846 C 301 808 315 775 345 749 C 375 723 421 700 483 681 C 608 641 693 605 739 575 C 784 545 818 508 842 464 C 865 420 877 368 877 309 C 877 213 843 135 777 75 C 710 15 621 -14 510 -14 Z" unicode="š" />
<glyph horiz-adv-x="1296" d="" unicode="Ţ" />
<glyph horiz-adv-x="780" d="" unicode="ţ" />
<glyph horiz-adv-x="1296" d="" unicode="Ť" />
<glyph horiz-adv-x="780" d="" unicode="ť" />
<glyph horiz-adv-x="1296" d="" unicode="Ŧ" />
<glyph horiz-adv-x="780" d="" unicode="ŧ" />
<glyph horiz-adv-x="1425" d="" unicode="Ũ" />
<glyph horiz-adv-x="1186" d="" unicode="ũ" />
<glyph horiz-adv-x="1425" d="" unicode="Ū" />
<glyph horiz-adv-x="1186" d="" unicode="ū" />
<glyph horiz-adv-x="1425" d="" unicode="Ŭ" />
<glyph horiz-adv-x="1186" d="" unicode="ŭ" />
<glyph horiz-adv-x="1425" d="" unicode="Ů" />
<glyph horiz-adv-x="1186" d="" unicode="ů" />
<glyph horiz-adv-x="1425" d="" unicode="Ű" />
<glyph horiz-adv-x="1186" d="" unicode="ű" />
<glyph horiz-adv-x="1425" d="" unicode="Ų" />
<glyph horiz-adv-x="1186" d="" unicode="ų" />
<glyph horiz-adv-x="1937" d="" unicode="Ŵ" />
<glyph horiz-adv-x="1616" d="" unicode="ŵ" />
<glyph horiz-adv-x="1335" d="" unicode="Ŷ" />
<glyph horiz-adv-x="1104" d="" unicode="ŷ" />
<glyph horiz-adv-x="1335" d="M 377 184 L 555 184 L 555 557 L 156 1327 L 49 1327 L 49 1518 L 561 1518 L 561 1331 L 389 1331 L 676 764 L 956 1331 L 793 1331 L 793 1518 L 1288 1518 L 1288 1327 L 1180 1327 L 784 555 L 784 184 L 961 184 L 961 0 L 377 0 L 377 184 Z M 395 1851 L 596 1851 L 596 1618 L 395 1618 L 395 1851 Z M 755 1851 L 956 1851 L 956 1618 L 755 1618 L 755 1851 Z" unicode="Ÿ" />
<glyph horiz-adv-x="1122" d="" unicode="Ź" />
<glyph horiz-adv-x="936" d="" unicode="ź" />
<glyph horiz-adv-x="1122" d="" unicode="Ż" />
<glyph horiz-adv-x="936" d="" unicode="ż" />
<glyph horiz-adv-x="1122" d="M 220 1779 L 283 1902 L 559 1788 L 838 1902 L 899 1779 L 607 1599 L 514 1599 L 220 1779 Z M 49 168 L 795 1337 L 276 1337 L 276 1042 L 70 1042 L 70 1518 L 1053 1518 L 1053 1343 L 309 180 L 866 180 L 866 508 L 1075 508 L 1075 0 L 49 0 L 49 168 Z" unicode="Ž" />
<glyph horiz-adv-x="936" d="M 133 1425 L 196 1548 L 472 1434 L 751 1548 L 812 1425 L 520 1245 L 427 1245 L 133 1425 Z M 49 180 L 629 965 L 252 965 L 252 739 L 68 739 L 68 1141 L 870 1141 L 870 961 L 291 170 L 702 170 L 702 408 L 891 408 L 891 0 L 49 0 L 49 180 Z" unicode="ž" />
<glyph horiz-adv-x="858" d="M 287 774 L 102 774 L 102 963 L 287 963 L 287 1137 C 287 1252 315 1339 373 1397 C 431 1455 520 1485 641 1485 C 717 1485 773 1480 809 1470 L 776 1280 C 717 1285 676 1288 653 1288 C 601 1288 563 1276 540 1254 C 517 1232 506 1192 506 1135 L 506 963 L 764 963 L 764 774 L 506 774 L 506 -326 L 287 -326 L 287 774 Z" unicode="ƒ" />
<glyph horiz-adv-x="893" d="" unicode="⁄" />
<glyph horiz-adv-x="1059" d="" unicode="∂" />
<glyph horiz-adv-x="1229" d="" unicode="∆" />
<glyph horiz-adv-x="1380" d="" unicode="∏" />
<glyph horiz-adv-x="1130" d="" unicode="∑" />
<glyph horiz-adv-x="1188" d="" unicode="−" />
<glyph horiz-adv-x="893" d="" unicode="∕" />
<glyph horiz-adv-x="1153" d="" unicode="Ș" />
<glyph horiz-adv-x="928" d="" unicode="ș" />
<glyph horiz-adv-x="1296" d="" unicode="Ț" />
<glyph horiz-adv-x="780" d="" unicode="ț" />
<glyph horiz-adv-x="1589" d="" unicode="∞" />
<glyph horiz-adv-x="858" d="" unicode="∫" />
<glyph horiz-adv-x="1188" d="" unicode="≈" />
<glyph horiz-adv-x="1927" d="M 739 184 L 879 184 L 879 950 L 453 950 L 453 184 L 631 184 L 631 0 L 49 0 L 49 184 L 233 184 L 233 950 L 49 950 L 49 1141 L 233 1141 L 233 1229 C 233 1459 350 1575 586 1575 C 650 1575 699 1572 733 1567 L 709 1374 C 679 1378 642 1380 596 1380 C 544 1380 508 1368 486 1345 C 464 1322 453 1283 453 1229 L 453 1141 L 879 1141 L 879 1241 C 879 1351 907 1435 964 1491 C 1021 1547 1103 1575 1210 1575 C 1254 1575 1295 1573 1333 1569 L 1313 1372 C 1277 1377 1244 1380 1212 1380 C 1136 1380 1098 1333 1098 1239 L 1098 1141 L 1278 1141 L 1278 950 L 1098 950 L 1098 184 L 1278 184 L 1278 0 L 739 0 L 739 184 Z M 1386 184 L 1526 184 L 1526 1370 L 1399 1370 L 1399 1556 L 1745 1577 L 1745 184 L 1905 184 L 1905 0 L 1386 0 L 1386 184 Z" unicode="ﬄ" />
<glyph horiz-adv-x="1022" d="" unicode="ə" />
<glyph horiz-adv-x="1188" d="" unicode="≠" />
<glyph horiz-adv-x="1188" d="" unicode="≤" />
<glyph horiz-adv-x="1188" d="" unicode="≥" />
<glyph horiz-adv-x="985" d="" unicode="⁰" />
<glyph horiz-adv-x="893" d="" unicode="⁴" />
<glyph horiz-adv-x="881" d="" unicode="⁵" />
<glyph horiz-adv-x="940" d="" unicode="⁶" />
<glyph horiz-adv-x="979" d="M 152 1374 L 442 1554 L 537 1554 L 829 1374 L 768 1249 L 489 1364 L 213 1249 L 152 1374 Z" unicode="ˆ" />
<glyph horiz-adv-x="979" d="M 150 1425 L 213 1548 L 489 1434 L 768 1548 L 829 1425 L 537 1245 L 444 1245 L 150 1425 Z" unicode="ˇ" />
<glyph horiz-adv-x="834" d="" unicode="⁷" />
<glyph horiz-adv-x="934" d="" unicode="⁸" />
<glyph horiz-adv-x="940" d="" unicode="⁹" />
<glyph horiz-adv-x="979" d="" unicode="˘" />
<glyph horiz-adv-x="979" d="" unicode="˙" />
<glyph horiz-adv-x="979" d="M 489 1241 C 418 1241 361 1264 319 1311 C 277 1357 256 1419 256 1497 C 256 1574 276 1636 318 1684 C 360 1731 417 1755 489 1755 C 560 1755 616 1731 658 1683 C 700 1635 721 1573 721 1497 C 721 1419 700 1357 658 1311 C 616 1264 559 1241 489 1241 Z M 489 1362 C 524 1362 551 1374 570 1399 C 588 1424 598 1457 598 1497 C 598 1537 588 1569 570 1595 C 551 1621 524 1634 489 1634 C 454 1634 428 1621 410 1595 C 392 1569 383 1537 383 1497 C 383 1457 392 1424 410 1399 C 428 1374 454 1362 489 1362 Z" unicode="˚" />
<glyph horiz-adv-x="979" d="" unicode="˛" />
<glyph horiz-adv-x="979" d="M 123 1339 C 153 1401 190 1450 232 1484 C 274 1518 319 1536 367 1536 C 393 1536 416 1531 437 1522 C 457 1513 476 1503 494 1493 C 512 1482 528 1472 544 1463 C 560 1454 576 1450 592 1450 C 636 1450 677 1481 715 1544 L 858 1466 C 826 1402 788 1353 746 1320 C 703 1286 658 1270 612 1270 C 588 1270 565 1274 545 1283 C 525 1291 506 1301 488 1312 C 470 1322 452 1332 435 1341 C 418 1349 401 1354 385 1354 C 339 1354 299 1322 266 1260 L 123 1339 Z" unicode="˜" />
<glyph horiz-adv-x="979" d="" unicode="˝" />
<glyph horiz-adv-x="1413" d="M 739 184 L 879 184 L 879 950 L 453 950 L 453 184 L 631 184 L 631 0 L 49 0 L 49 184 L 233 184 L 233 950 L 49 950 L 49 1141 L 233 1141 L 233 1229 C 233 1459 350 1575 586 1575 C 650 1575 699 1572 733 1567 L 709 1374 C 679 1378 642 1380 596 1380 C 544 1380 508 1368 486 1345 C 464 1322 453 1283 453 1229 L 453 1141 L 879 1141 L 879 1229 C 879 1459 997 1575 1233 1575 C 1298 1575 1348 1572 1382 1567 L 1356 1372 C 1316 1376 1279 1378 1245 1378 C 1193 1378 1155 1366 1132 1344 C 1109 1322 1098 1283 1098 1227 L 1098 1141 L 1352 1141 L 1352 950 L 1098 950 L 1098 184 L 1352 184 L 1352 0 L 739 0 L 739 184 Z" unicode="ﬀ" />
<glyph horiz-adv-x="1272" d="M 49 184 L 233 184 L 233 950 L 49 950 L 49 1141 L 233 1141 L 233 1229 C 233 1459 352 1575 592 1575 C 650 1575 695 1572 729 1567 L 705 1372 C 651 1377 614 1380 592 1380 C 544 1380 508 1368 486 1345 C 464 1321 453 1282 453 1227 L 453 1141 L 631 1141 L 631 950 L 453 950 L 453 184 L 631 184 L 631 0 L 49 0 L 49 184 Z M 739 184 L 879 184 L 879 950 L 731 950 L 731 1135 L 1098 1153 L 1098 184 L 1247 184 L 1247 0 L 739 0 L 739 184 Z M 897 1524 L 1122 1524 L 1122 1276 L 897 1276 L 897 1524 Z" unicode="ﬁ" />
<glyph horiz-adv-x="1282" d="M 49 184 L 233 184 L 233 950 L 49 950 L 49 1141 L 233 1141 L 233 1239 C 233 1347 260 1430 316 1488 C 372 1546 454 1575 563 1575 C 615 1575 657 1572 688 1567 L 668 1372 C 638 1376 604 1378 565 1378 C 490 1378 453 1331 453 1237 L 453 1141 L 631 1141 L 631 950 L 453 950 L 453 184 L 631 184 L 631 0 L 49 0 L 49 184 Z M 739 184 L 879 184 L 879 1370 L 754 1370 L 754 1556 L 1098 1577 L 1098 184 L 1257 184 L 1257 0 L 739 0 L 739 184 Z" unicode="ﬂ" />
<glyph horiz-adv-x="1919" d="M 739 184 L 879 184 L 879 950 L 453 950 L 453 184 L 631 184 L 631 0 L 49 0 L 49 184 L 233 184 L 233 950 L 49 950 L 49 1141 L 233 1141 L 233 1229 C 233 1459 350 1575 586 1575 C 650 1575 699 1572 733 1567 L 709 1374 C 679 1378 642 1380 596 1380 C 544 1380 508 1368 486 1345 C 464 1322 453 1283 453 1229 L 453 1141 L 879 1141 L 879 1229 C 879 1459 999 1575 1239 1575 C 1298 1575 1343 1572 1374 1567 L 1352 1372 C 1293 1377 1255 1380 1239 1380 C 1189 1380 1153 1368 1131 1345 C 1109 1321 1098 1282 1098 1227 L 1098 1141 L 1278 1141 L 1278 950 L 1098 950 L 1098 184 L 1278 184 L 1278 0 L 739 0 L 739 184 Z M 1386 184 L 1526 184 L 1526 950 L 1378 950 L 1378 1135 L 1745 1153 L 1745 184 L 1894 184 L 1894 0 L 1386 0 L 1386 184 Z M 1542 1524 L 1769 1524 L 1769 1276 L 1542 1276 L 1542 1524 Z" unicode="ﬃ" />
<glyph horiz-adv-x="979" d="M 209 1450 L 770 1450 L 770 1264 L 209 1264 L 209 1450 Z" unicode="̄" />
<glyph horiz-adv-x="979" d="" unicode="̦" />
<glyph horiz-adv-x="1229" d="" unicode="Δ" />
<glyph horiz-adv-x="1544" d="" unicode="Ω" />
<glyph horiz-adv-x="1198" d="M 182 950 L 43 950 L 43 1133 L 401 1151 L 401 438 C 401 339 414 271 440 234 C 466 196 512 178 580 178 C 660 178 718 200 754 245 C 790 290 809 367 809 477 L 809 950 L 637 950 L 637 1133 L 1030 1151 L 1030 184 L 1176 184 L 1176 6 L 860 -14 L 831 170 C 777 48 676 -12 528 -12 C 465 -12 422 5 399 39 L 399 -326 L 182 -326 L 182 950 Z" unicode="μ" />
<glyph horiz-adv-x="1243" d="" unicode="π" />
<glyph horiz-adv-x="1229" d="M 709 -18 C 455 -18 302 154 252 498 L 59 498 L 59 670 L 238 670 L 238 786 L 59 786 L 59 958 L 254 958 C 278 1127 330 1258 408 1350 C 486 1442 587 1489 711 1489 C 838 1489 924 1439 969 1341 L 969 1473 L 1143 1473 L 1143 1038 L 961 1038 C 939 1204 859 1288 723 1288 C 588 1288 504 1178 471 958 L 840 958 L 840 786 L 455 786 L 455 670 L 840 670 L 840 498 L 475 498 C 501 283 584 176 723 176 C 791 176 845 197 886 239 C 926 281 958 347 981 438 L 1171 395 C 1134 251 1078 146 1002 80 C 926 14 829 -18 709 -18 Z" unicode="€" />
<glyph horiz-adv-x="467" d="M 104 860 L 365 860 L 365 571 L 104 571 L 104 860 Z" unicode="∙" />
<glyph horiz-adv-x="1110" d="" unicode="√" />
<glyph horiz-adv-x="969" d="M 375 920 L 86 920 L 86 1126 L 375 1126 L 375 1577 L 594 1577 L 594 1126 L 883 1126 L 883 920 L 594 920 L 594 -326 L 375 -326 L 375 920 Z" unicode="†" />
<glyph horiz-adv-x="969" d="M 375 127 L 86 127 L 86 332 L 375 332 L 375 920 L 86 920 L 86 1126 L 375 1126 L 375 1577 L 596 1577 L 596 1126 L 883 1126 L 883 920 L 596 920 L 596 332 L 883 332 L 883 127 L 596 127 L 596 -326 L 375 -326 L 375 127 Z" unicode="‡" />
<glyph horiz-adv-x="631" d="M 158 817 L 475 817 L 475 428 L 158 428 L 158 817 Z" unicode="•" />
<glyph horiz-adv-x="1346" d="M 102 285 L 365 285 L 365 0 L 102 0 L 102 285 Z M 543 285 L 805 285 L 805 0 L 543 0 L 543 285 Z M 981 285 L 1243 285 L 1243 0 L 981 0 L 981 285 Z" unicode="…" />
<glyph horiz-adv-x="1280" d="" unicode="◊" />
<glyph horiz-adv-x="1866" d="" unicode="" />
<glyph horiz-adv-x="1937" d="" unicode="Ẁ" />
<glyph horiz-adv-x="1616" d="" unicode="ẁ" />
<glyph horiz-adv-x="1937" d="" unicode="Ẃ" />
<glyph horiz-adv-x="1616" d="" unicode="ẃ" />
<glyph horiz-adv-x="1937" d="" unicode="Ẅ" />
<glyph horiz-adv-x="1616" d="" unicode="ẅ" />
<glyph horiz-adv-x="1354" d="" unicode="℗" />
<glyph horiz-adv-x="2785" d="M 432 516 C 317 516 227 560 163 648 C 98 736 66 854 66 1004 C 66 1152 98 1271 163 1360 C 228 1448 318 1493 432 1493 C 544 1493 633 1449 699 1363 C 765 1276 799 1156 799 1004 C 799 852 765 733 699 646 C 633 559 544 516 432 516 Z M 432 692 C 486 692 526 718 554 771 C 582 824 596 902 596 1004 C 596 1110 581 1188 551 1237 C 521 1286 482 1311 432 1311 C 378 1311 336 1285 307 1233 C 278 1181 264 1104 264 1004 C 264 902 278 825 306 772 C 334 718 376 692 432 692 Z M 1231 1475 L 1432 1475 L 754 0 L 553 0 L 1231 1475 Z M 1554 -20 C 1440 -20 1351 23 1285 111 C 1219 199 1186 318 1186 469 C 1186 619 1219 738 1286 825 C 1352 912 1442 956 1554 956 C 1666 956 1755 912 1821 826 C 1887 740 1921 621 1921 469 C 1921 318 1887 199 1821 111 C 1755 23 1666 -20 1554 -20 Z M 1554 158 C 1604 158 1645 182 1675 232 C 1705 281 1720 359 1720 467 C 1720 573 1705 651 1675 701 C 1645 751 1604 776 1554 776 C 1502 776 1461 751 1431 702 C 1401 652 1386 574 1386 467 C 1386 359 1401 281 1431 232 C 1461 182 1502 158 1554 158 Z M 2353 -20 C 2239 -20 2150 24 2085 112 C 2019 200 1987 319 1987 469 C 1987 619 2020 737 2086 825 C 2152 912 2241 956 2353 956 C 2467 956 2557 912 2623 825 C 2689 737 2722 619 2722 469 C 2722 320 2689 201 2623 113 C 2557 24 2467 -20 2353 -20 Z M 2353 158 C 2465 158 2521 261 2521 467 C 2521 573 2505 651 2475 701 C 2445 751 2404 776 2353 776 C 2303 776 2262 751 2232 702 C 2202 652 2187 574 2187 467 C 2187 359 2202 281 2232 232 C 2262 182 2303 158 2353 158 Z" unicode="‰" />
<glyph horiz-adv-x="2009" d="M 883 690 L 979 690 L 979 1376 L 883 1376 L 883 1518 L 1182 1518 L 1401 836 L 1622 1518 L 1921 1518 L 1921 1378 L 1827 1378 L 1827 690 L 1921 690 L 1921 551 L 1571 551 L 1571 686 L 1665 686 L 1665 1212 L 1456 551 L 1339 551 L 1130 1210 L 1130 686 L 1227 686 L 1227 551 L 883 551 L 883 690 Z M 258 688 L 367 688 L 367 1380 L 223 1380 L 223 1200 L 82 1200 L 82 1518 L 819 1518 L 819 1200 L 676 1200 L 676 1380 L 532 1380 L 532 688 L 641 688 L 641 551 L 258 551 L 258 688 Z" unicode="™" />
<glyph horiz-adv-x="537" d="" unicode="′" />
<glyph horiz-adv-x="1544" d="" unicode="Ω" />
<glyph horiz-adv-x="1335" d="" unicode="Ỳ" />
<glyph horiz-adv-x="1104" d="" unicode="ỳ" />
<glyph horiz-adv-x="922" d="" unicode="″" />
<glyph horiz-adv-x="1110" d="" unicode="✓" />
<glyph horiz-adv-x="1427" d="" unicode="℮" />
<glyph horiz-adv-x="770" d="M 137 569 L 389 1141 L 588 1141 L 360 569 L 588 0 L 389 0 L 137 569 Z" unicode="‹" />
<glyph horiz-adv-x="770" d="M 383 0 L 184 0 L 412 569 L 184 1141 L 383 1141 L 631 569 L 383 0 Z" unicode="›" />
</font>
</defs>
</svg>
