<?xml version="1.0" standalone="yes"?><svg version="1.1" xmlns = 'http://www.w3.org/2000/svg'><defs><font id='web' horiz-adv-x="1000">
<font-face font-family="web" descent="-346" cap-height="1518" units-per-em="2048" bbox="-244,-578,2640,2109" x-height="1141" ascent="1587" />
<missing-glyph horiz-adv-x="1024" d="" /><glyph horiz-adv-x="1024" d="" unicode=" " />
<glyph horiz-adv-x="2048" d="" unicode=" " />
<glyph horiz-adv-x="1188" d="" unicode=" " />
<glyph horiz-adv-x="410" d="" unicode=" " />
<glyph horiz-adv-x="1188" d="" unicode="‒" />
<glyph horiz-adv-x="1167" d="M 74 756 L 1096 756 L 1059 553 L 37 553 L 74 756 Z" unicode="–" />
<glyph horiz-adv-x="1538" d="M 74 756 L 1464 756 L 1427 553 L 37 553 L 74 756 Z" unicode="—" />
<glyph horiz-adv-x="2048" d="" unicode="―" />
<glyph horiz-adv-x="467" d="M 424 1522 L 479 1411 C 425 1383 389 1359 371 1339 C 353 1318 340 1286 334 1243 L 451 1243 L 399 954 L 139 954 L 176 1165 C 190 1251 206 1313 223 1350 C 239 1387 263 1419 294 1445 C 324 1471 368 1496 424 1522 Z" unicode="‘" />
<glyph horiz-adv-x="467" d="M 160 1061 C 214 1087 250 1111 268 1132 C 286 1153 298 1186 305 1231 L 186 1231 L 240 1518 L 500 1518 L 461 1307 C 446 1221 430 1160 414 1123 C 397 1086 374 1055 344 1029 C 314 1003 270 976 213 950 L 160 1061 Z" unicode="’" />
<glyph horiz-adv-x="465" d="M -59 -168 C 0 -138 37 -113 54 -93 C 70 -72 82 -41 90 0 L -31 0 L 20 289 L 281 289 L 244 78 C 228 -9 212 -71 195 -108 C 178 -145 154 -177 124 -203 C 94 -229 50 -255 -6 -281 L -59 -168 Z" unicode="‚" />
<glyph horiz-adv-x="838" d="M 422 1522 L 473 1411 C 420 1383 385 1360 367 1341 C 349 1321 336 1289 328 1245 L 444 1245 L 395 961 L 141 961 L 176 1169 C 190 1253 206 1313 223 1350 C 239 1386 263 1418 293 1444 C 323 1470 366 1496 422 1522 Z M 797 1522 L 848 1411 C 793 1383 757 1359 741 1339 C 724 1319 713 1288 707 1245 L 823 1245 L 772 961 L 516 961 L 553 1169 C 568 1255 584 1316 600 1352 C 616 1388 639 1419 669 1445 C 699 1471 741 1496 797 1522 Z" unicode="“" />
<glyph horiz-adv-x="838" d="M 160 1067 C 214 1094 249 1118 267 1138 C 284 1158 296 1190 303 1235 L 186 1235 L 240 1518 L 494 1518 L 457 1311 C 441 1223 425 1162 409 1126 C 393 1090 370 1060 341 1035 C 311 1009 269 984 213 958 L 160 1067 Z M 537 1067 C 593 1096 629 1121 646 1142 C 662 1162 674 1193 680 1235 L 563 1235 L 614 1518 L 872 1518 L 834 1311 C 819 1226 803 1165 786 1128 C 769 1091 746 1060 716 1034 C 686 1008 643 982 588 958 L 537 1067 Z" unicode="”" />
<glyph horiz-adv-x="838" d="M -59 -166 C -4 -140 31 -117 49 -97 C 66 -77 79 -45 88 0 L -31 0 L 20 287 L 276 287 L 240 78 C 226 -4 210 -64 193 -102 C 176 -140 153 -172 123 -198 C 93 -224 50 -250 -6 -276 L -59 -166 Z M 319 -166 C 371 -140 406 -118 424 -98 C 442 -78 455 -45 463 0 L 346 0 L 397 287 L 653 287 L 616 78 C 600 -11 583 -73 566 -109 C 549 -144 526 -174 496 -200 C 466 -226 425 -251 371 -276 L 319 -166 Z" unicode="„" />
<glyph horiz-adv-x="367" d="" unicode=" " />
<glyph horiz-adv-x="649" d="M 111 283 L 373 283 L 324 0 L 61 0 L 111 283 Z M 336 1518 L 586 1518 L 367 442 L 174 442 L 336 1518 Z" unicode="!" />
<glyph horiz-adv-x="922" d="M 287 1518 L 516 1518 L 385 877 L 190 877 L 287 1518 Z M 676 1518 L 907 1518 L 772 877 L 580 877 L 676 1518 Z" unicode="&#x22;" />
<glyph horiz-adv-x="1251" d="M 262 408 L 86 408 L 86 610 L 293 610 L 330 834 L 86 834 L 86 1034 L 360 1034 L 428 1475 L 641 1475 L 573 1034 L 770 1034 L 840 1475 L 1053 1475 L 983 1034 L 1165 1034 L 1165 834 L 952 834 L 918 610 L 1165 610 L 1165 408 L 885 408 L 823 0 L 610 0 L 672 408 L 477 408 L 414 0 L 199 0 L 262 408 Z M 713 596 L 754 846 L 537 846 L 496 596 L 713 596 Z" unicode="#" />
<glyph horiz-adv-x="1053" d="M 307 6 C 216 30 159 81 137 160 L 109 0 L -59 0 L 25 471 L 197 471 L 196 440 C 196 362 208 303 232 264 C 256 225 294 199 345 185 L 433 685 C 327 745 255 804 215 861 C 175 918 156 982 156 1053 C 156 1171 193 1269 269 1347 C 345 1424 443 1465 565 1469 L 586 1589 L 766 1589 L 742 1448 C 808 1425 850 1383 870 1323 L 895 1464 L 1061 1464 L 985 1032 L 813 1032 C 813 1091 805 1140 789 1179 C 773 1217 744 1245 703 1263 L 623 810 C 712 758 775 714 812 680 C 848 645 877 607 897 565 C 917 523 928 476 928 422 C 928 342 909 270 871 205 C 833 139 780 88 712 51 C 644 13 567 -6 483 -9 L 453 -176 L 274 -176 L 307 6 Z M 709 399 C 709 441 697 478 674 508 C 650 538 621 566 585 592 L 511 175 C 575 182 624 205 658 244 C 692 282 709 334 709 399 Z M 375 1073 C 375 1037 383 1005 401 979 C 419 953 442 928 472 905 L 538 1278 C 488 1269 448 1246 419 1210 C 389 1173 375 1127 375 1073 Z" unicode="$" />
<glyph horiz-adv-x="1942" d="M 401 516 C 303 516 228 548 174 612 C 120 676 94 768 94 888 C 94 993 112 1094 150 1190 C 187 1286 238 1361 302 1414 C 366 1466 440 1493 524 1493 C 622 1493 698 1461 753 1397 C 807 1333 835 1243 836 1126 C 836 1054 826 979 806 901 C 786 823 757 755 719 697 C 680 639 633 594 579 563 C 525 531 465 516 401 516 Z M 412 692 C 459 692 498 710 530 746 C 562 782 587 839 606 916 C 625 992 635 1063 635 1129 C 635 1250 596 1311 520 1311 C 472 1311 431 1293 399 1257 C 367 1221 341 1165 322 1089 C 302 1013 293 941 293 875 C 293 753 332 692 412 692 Z M 1337 1475 L 1538 1475 L 600 0 L 399 0 L 1337 1475 Z M 1409 -18 C 1311 -18 1235 14 1181 78 C 1127 142 1101 233 1101 352 C 1101 460 1119 561 1156 657 C 1193 753 1244 827 1309 879 C 1374 931 1448 958 1530 958 C 1628 958 1705 926 1760 862 C 1814 798 1842 708 1843 590 C 1843 483 1824 381 1787 284 C 1750 186 1699 112 1633 60 C 1567 8 1493 -18 1409 -18 Z M 1417 160 C 1465 160 1506 178 1538 216 C 1570 253 1595 311 1613 390 C 1631 469 1641 538 1641 598 C 1641 716 1602 776 1526 776 C 1478 776 1437 758 1405 722 C 1373 686 1347 630 1328 554 C 1308 478 1299 408 1299 343 C 1299 301 1306 260 1320 220 C 1334 180 1367 160 1417 160 Z" unicode="%" />
<glyph horiz-adv-x="1475" d="M 446 -14 C 303 -14 191 16 110 76 C 28 136 -12 219 -12 327 C -12 389 1 453 28 519 C 55 585 95 643 149 694 C 202 745 284 798 394 853 L 391 945 C 391 1075 404 1182 430 1267 C 456 1351 502 1417 566 1465 C 630 1512 708 1536 801 1536 C 890 1536 960 1513 1012 1468 C 1063 1422 1089 1362 1089 1286 C 1089 1219 1072 1153 1040 1089 C 1008 1025 959 966 895 913 C 830 859 737 805 615 750 C 641 562 703 417 801 315 C 916 435 1016 629 1100 897 L 1288 870 C 1204 584 1092 365 952 215 C 998 198 1046 190 1098 190 C 1149 190 1199 195 1247 207 L 1253 23 C 1205 6 1132 -2 1034 -2 C 934 -2 845 21 766 67 C 666 13 559 -14 446 -14 Z M 621 189 C 517 309 448 470 414 672 C 338 624 285 573 254 519 C 223 465 207 409 207 352 C 207 290 230 243 278 211 C 325 179 393 164 483 164 C 531 164 577 172 621 189 Z M 599 964 L 600 922 C 709 981 784 1037 826 1090 C 867 1143 888 1200 888 1261 C 888 1289 879 1312 863 1331 C 847 1350 820 1360 782 1360 C 726 1360 682 1330 649 1272 C 616 1213 599 1110 599 964 Z" unicode="&#x26;" />
<glyph horiz-adv-x="537" d="M 287 1518 L 520 1518 L 389 877 L 190 877 L 287 1518 Z" unicode="'" />
<glyph horiz-adv-x="836" d="M 322 -352 C 258 -264 210 -159 176 -37 C 142 85 126 216 126 354 C 126 500 147 652 189 809 C 231 965 296 1116 382 1261 C 468 1406 564 1524 670 1616 L 813 1501 C 708 1398 622 1284 556 1158 C 489 1032 438 896 404 750 C 370 604 353 469 353 345 C 353 219 366 104 393 -1 C 420 -107 457 -192 504 -256 L 322 -352 Z" unicode="(" />
<glyph horiz-adv-x="836" d="M -20 -238 C 80 -140 164 -28 232 97 C 300 223 351 359 386 506 C 421 653 439 789 439 914 C 439 1038 425 1153 399 1259 C 373 1365 336 1452 289 1520 L 471 1616 C 533 1530 581 1425 615 1303 C 649 1181 666 1050 666 910 C 666 758 644 604 601 450 C 558 295 493 145 407 1 C 320 -142 225 -260 121 -352 L -20 -238 Z" unicode=")" />
<glyph horiz-adv-x="1016" d="M 469 932 L 193 801 L 125 977 L 424 1077 L 178 1276 L 303 1419 L 514 1202 L 555 1530 L 733 1497 L 657 1174 L 934 1307 L 1004 1135 L 700 1030 L 950 829 L 827 690 L 610 907 L 569 580 L 393 610 L 469 932 Z" unicode="*" />
<glyph horiz-adv-x="1188" d="M 483 621 L 164 621 L 164 825 L 483 825 L 483 1188 L 705 1188 L 705 825 L 1024 825 L 1024 621 L 705 621 L 705 252 L 483 252 L 483 621 Z" unicode="+" />
<glyph horiz-adv-x="467" d="M -57 -150 C 0 -122 36 -99 54 -81 C 72 -63 84 -36 90 0 L -31 0 L 20 285 L 283 285 L 246 78 C 230 -5 213 -64 197 -98 C 181 -132 158 -161 129 -185 C 100 -209 56 -234 -4 -262 L -57 -150 Z" unicode="," />
<glyph horiz-adv-x="723" d="M 74 756 L 649 756 L 612 553 L 39 553 L 74 756 Z" unicode="-" />
<glyph horiz-adv-x="467" d="M 20 285 L 283 285 L 231 0 L -31 0 L 20 285 Z" unicode="." />
<glyph horiz-adv-x="911" d="M 819 1518 L 1049 1518 L 94 0 L -135 0 L 819 1518 Z" unicode="/" />
<glyph horiz-adv-x="1182" d="M 496 -20 C 361 -20 258 22 188 107 C 117 192 82 317 82 483 C 82 647 107 813 158 981 C 209 1149 279 1277 368 1363 C 456 1449 560 1493 680 1493 C 814 1493 917 1450 987 1366 C 1057 1281 1093 1157 1093 993 C 1093 874 1077 746 1047 610 C 1017 474 976 359 924 265 C 872 171 810 100 738 52 C 666 4 585 -20 496 -20 Z M 506 182 C 579 182 641 218 692 290 C 743 362 785 470 818 615 C 850 760 867 886 867 992 C 867 1186 801 1284 670 1284 C 596 1284 534 1248 483 1178 C 432 1108 390 1000 358 856 C 326 712 310 587 310 481 C 310 281 375 182 506 182 Z" unicode="0" />
<glyph horiz-adv-x="748" d="M -12 184 L 193 184 L 381 1253 C 318 1230 242 1219 154 1219 L 190 1421 C 327 1421 434 1439 510 1475 L 643 1475 L 416 184 L 604 184 L 571 0 L -45 0 L -12 184 Z" unicode="1" />
<glyph horiz-adv-x="1024" d="M 746 1136 C 746 1173 735 1208 714 1240 C 692 1272 648 1288 582 1288 C 524 1288 476 1271 436 1239 C 396 1206 359 1158 324 1096 L 141 1192 C 192 1286 257 1359 336 1413 C 414 1466 505 1493 608 1493 C 724 1493 813 1465 875 1410 C 937 1355 969 1276 969 1172 C 969 1106 957 1037 934 964 C 910 891 869 817 809 741 C 749 665 654 566 524 446 L 225 176 L 637 176 L 676 403 L 866 403 L 795 0 L -55 0 L -18 207 L 356 545 C 464 645 546 726 600 790 C 654 854 692 916 714 976 C 735 1036 746 1090 746 1136 Z" unicode="2" />
<glyph horiz-adv-x="1018" d="M 401 -20 C 273 -20 171 2 95 47 C 18 91 -33 163 -61 262 L 145 330 C 159 286 176 255 196 235 C 215 215 240 199 272 189 C 304 179 345 174 395 174 C 453 174 503 188 543 217 C 583 245 613 287 634 343 C 654 398 665 456 665 516 C 665 563 654 600 634 627 C 613 653 580 673 536 687 C 491 700 431 707 356 707 L 389 885 C 481 885 551 894 600 913 C 648 931 683 962 704 1004 C 725 1046 736 1093 736 1144 C 736 1244 675 1294 553 1294 C 497 1294 451 1284 415 1265 C 379 1246 345 1221 315 1190 L 162 1319 C 268 1435 406 1493 578 1493 C 660 1493 729 1481 785 1459 C 841 1436 884 1403 916 1360 C 948 1316 964 1260 964 1191 C 964 1103 940 1026 893 958 C 845 890 774 839 678 807 C 815 763 884 665 884 514 C 884 450 873 385 852 317 C 831 249 799 189 756 138 C 713 86 661 47 600 20 C 539 -6 473 -20 401 -20 Z" unicode="3" />
<glyph horiz-adv-x="1110" d="M 365 180 L 543 180 L 575 369 L -4 369 L 27 541 L 705 1475 L 940 1475 L 268 551 L 610 551 L 715 870 L 870 870 L 815 551 L 1014 551 L 983 369 L 784 369 L 752 180 L 913 180 L 881 0 L 332 0 L 365 180 Z" unicode="4" />
<glyph horiz-adv-x="1044" d="M 416 -20 C 291 -20 191 2 115 47 C 39 91 -11 164 -39 264 L 170 332 C 188 272 217 231 255 209 C 293 187 347 176 418 176 C 484 176 538 193 579 227 C 619 261 650 315 671 387 C 692 459 703 527 703 591 C 703 645 690 693 666 735 C 641 777 588 799 508 799 C 438 799 365 779 287 739 L 129 807 L 293 1475 L 999 1475 L 965 1276 L 442 1276 L 352 909 C 384 929 423 946 469 960 C 515 974 558 981 596 981 C 702 981 785 948 844 884 C 902 819 932 727 932 608 C 932 534 920 455 898 373 C 876 290 842 219 798 159 C 754 99 700 55 636 25 C 572 -5 498 -20 416 -20 Z" unicode="5" />
<glyph horiz-adv-x="1114" d="M 483 -20 C 345 -20 242 20 172 101 C 102 181 67 299 67 454 C 67 573 86 707 124 855 C 162 1003 213 1122 277 1214 C 341 1306 421 1374 516 1418 C 611 1462 725 1485 858 1485 C 930 1485 977 1483 997 1481 L 950 1284 C 937 1286 898 1288 834 1288 C 741 1288 662 1272 598 1240 C 534 1208 481 1162 440 1101 C 398 1040 364 952 336 838 C 372 888 419 928 479 958 C 539 988 608 1004 688 1004 C 788 1004 866 972 921 909 C 976 846 1004 755 1005 637 C 1005 519 982 408 938 304 C 893 200 831 120 752 64 C 673 8 583 -20 483 -20 Z M 498 174 C 559 174 610 192 650 230 C 690 268 721 325 744 401 C 766 477 778 548 778 613 C 778 669 765 719 740 763 C 714 807 664 829 588 829 C 524 829 468 811 422 775 C 376 739 342 689 321 624 C 300 559 290 488 290 411 C 290 253 359 174 498 174 Z" unicode="6" />
<glyph horiz-adv-x="969" d="M 176 0 C 241 272 322 506 420 702 C 518 898 651 1093 821 1286 L 373 1286 L 330 1042 L 137 1042 L 213 1475 L 1081 1475 L 1053 1309 C 731 953 513 517 401 0 L 176 0 Z" unicode="7" />
<glyph horiz-adv-x="1106" d="M 471 -31 C 376 -31 295 -16 228 12 C 161 40 110 83 75 141 C 40 199 23 265 23 341 C 23 413 34 483 58 551 C 82 619 116 676 162 722 C 208 767 265 802 334 827 C 292 851 259 884 237 926 C 215 968 204 1016 204 1070 C 204 1152 221 1227 257 1293 C 292 1359 342 1410 407 1446 C 471 1481 547 1499 633 1499 C 760 1499 858 1471 928 1416 C 998 1360 1033 1281 1033 1179 C 1033 1126 1023 1074 1005 1022 C 987 970 960 927 924 892 C 888 856 841 826 782 801 C 906 751 968 650 968 499 C 968 401 947 311 906 228 C 864 144 806 80 731 36 C 656 -8 569 -31 471 -31 Z M 475 154 C 531 154 579 169 620 199 C 660 229 691 272 712 329 C 732 386 743 444 743 504 C 743 574 724 628 686 665 C 648 702 594 721 524 721 C 466 721 416 706 376 676 C 335 646 304 602 283 544 C 262 486 252 427 252 368 C 252 297 271 244 309 208 C 347 172 403 154 475 154 Z M 596 881 C 641 881 679 891 710 913 C 741 935 765 967 782 1010 C 799 1052 808 1097 808 1143 C 808 1199 793 1241 763 1271 C 733 1300 691 1315 635 1315 C 588 1315 549 1304 518 1282 C 486 1260 462 1228 445 1186 C 428 1143 420 1098 420 1051 C 420 995 435 953 465 924 C 495 895 538 881 596 881 Z" unicode="8" />
<glyph horiz-adv-x="1087" d="M 627 1495 C 763 1495 867 1455 937 1376 C 1007 1297 1043 1180 1044 1026 C 1044 906 1024 770 985 620 C 946 469 895 348 832 258 C 768 167 690 99 597 55 C 503 10 392 -12 262 -12 C 181 -12 131 -10 113 -6 L 160 186 C 178 183 217 182 276 182 C 368 182 447 197 511 229 C 575 260 628 306 669 366 C 710 426 745 515 774 633 C 736 581 687 541 627 511 C 567 481 502 467 434 467 C 330 467 249 498 192 561 C 135 624 106 715 106 835 C 106 916 118 998 142 1082 C 166 1166 201 1239 247 1301 C 293 1363 349 1411 413 1445 C 477 1478 549 1495 627 1495 Z M 610 1296 C 548 1296 497 1276 457 1238 C 417 1200 386 1143 364 1068 C 342 992 331 921 331 855 C 331 800 343 751 369 708 C 394 664 446 643 524 643 C 585 643 639 660 685 695 C 731 730 764 780 786 846 C 807 912 818 983 818 1061 C 818 1217 748 1296 610 1296 Z" unicode="9" />
<glyph horiz-adv-x="504" d="M 39 283 L 297 283 L 250 0 L -12 0 L 39 283 Z M 190 1141 L 451 1141 L 399 858 L 141 858 L 190 1141 Z" unicode=":" />
<glyph horiz-adv-x="504" d="M -39 -147 C 22 -117 60 -94 76 -78 C 92 -61 103 -35 109 0 L -12 0 L 39 283 L 297 283 L 262 78 C 247 -4 231 -63 215 -97 C 198 -131 175 -160 145 -185 C 115 -210 71 -236 14 -262 L -39 -147 Z M 190 1141 L 451 1141 L 399 858 L 141 858 L 190 1141 Z" unicode=";" />
<glyph horiz-adv-x="1188" d="M 213 625 L 213 797 L 942 1204 L 942 991 L 430 711 L 942 432 L 942 217 L 213 625 Z" unicode="&#x3C;" />
<glyph horiz-adv-x="1188" d="M 174 602 L 1016 602 L 1016 397 L 174 397 L 174 602 Z M 174 1026 L 1016 1026 L 1016 823 L 174 823 L 174 1026 Z" unicode="=" />
<glyph horiz-adv-x="1188" d="M 248 430 L 758 709 L 248 989 L 248 1204 L 977 797 L 977 623 L 248 217 L 248 430 Z" unicode="&#x3E;" />
<glyph horiz-adv-x="1122" d="M 358 430 C 365 527 388 609 428 675 C 468 741 540 811 645 887 C 702 930 740 961 759 980 C 777 999 793 1019 806 1040 C 818 1060 828 1081 834 1103 C 840 1125 843 1148 843 1172 C 843 1224 825 1263 791 1291 C 757 1319 709 1333 647 1333 C 588 1331 535 1316 487 1286 C 439 1256 399 1215 367 1163 L 190 1276 C 242 1359 310 1424 394 1470 C 478 1516 570 1540 672 1540 C 797 1540 895 1511 966 1453 C 1036 1395 1072 1315 1072 1212 C 1072 1162 1064 1112 1048 1062 C 1032 1012 1006 965 971 922 C 935 879 874 828 788 768 C 705 708 650 654 622 608 C 594 561 578 502 575 430 L 358 430 Z M 309 262 L 569 262 L 522 0 L 260 0 L 309 262 Z" unicode="?" />
<glyph horiz-adv-x="1708" d="M 872 -326 C 622 -326 434 -248 307 -92 C 180 63 117 294 117 602 C 117 900 182 1129 314 1291 C 446 1453 634 1534 879 1534 C 1111 1534 1288 1461 1409 1315 C 1530 1169 1591 958 1591 682 C 1591 468 1565 317 1513 227 C 1461 137 1373 92 1249 92 C 1181 92 1126 107 1086 139 C 1046 170 1024 212 1022 266 C 991 207 950 163 898 133 C 846 103 787 88 719 88 C 624 88 551 121 501 189 C 451 256 426 355 426 487 C 426 612 443 726 478 829 C 513 931 560 1008 620 1060 C 680 1111 749 1137 827 1137 C 892 1137 947 1123 991 1095 C 1035 1067 1065 1028 1081 977 L 1153 1120 L 1288 1106 L 1188 377 L 1184 316 C 1184 278 1191 250 1207 234 C 1223 217 1247 209 1280 209 C 1348 209 1395 245 1423 317 C 1450 389 1464 511 1464 682 C 1464 922 1414 1104 1316 1228 C 1218 1351 1072 1413 879 1413 C 674 1413 517 1344 409 1206 C 300 1068 246 866 246 602 C 246 338 299 138 405 2 C 511 -134 667 -203 872 -203 C 933 -203 999 -193 1069 -175 C 1139 -157 1201 -132 1257 -100 L 1317 -207 C 1263 -243 1196 -271 1117 -293 C 1037 -315 956 -326 872 -326 Z M 778 258 C 860 258 923 300 969 385 C 1015 470 1038 587 1038 737 C 1038 883 978 956 858 956 C 812 956 772 938 738 902 C 704 866 676 811 656 738 C 635 664 625 586 625 502 C 625 418 637 356 663 317 C 688 277 726 258 778 258 Z" unicode="@" />
<glyph horiz-adv-x="1374" d="M -51 186 L 53 186 L 698 1528 L 944 1528 L 1124 186 L 1227 186 L 1194 0 L 680 0 L 713 182 L 895 182 L 866 426 L 383 426 L 268 182 L 430 182 L 399 0 L -86 0 L -51 186 Z M 846 602 L 772 1245 L 467 602 L 846 602 Z" unicode="A" />
<glyph horiz-adv-x="1214" d="M -51 186 L 100 186 L 301 1327 L 150 1327 L 184 1518 L 717 1518 C 813 1518 893 1506 958 1482 C 1023 1458 1074 1423 1112 1376 C 1150 1328 1169 1266 1169 1190 C 1169 1130 1158 1072 1138 1017 C 1118 961 1086 914 1044 876 C 1002 837 946 806 877 782 C 959 750 1015 708 1043 655 C 1071 601 1085 545 1085 487 C 1085 424 1075 362 1055 300 C 1035 238 1004 185 960 139 C 916 93 863 58 799 35 C 735 11 662 0 580 0 L -86 0 L -51 186 Z M 569 186 C 621 186 665 192 699 205 C 733 217 762 237 786 265 C 809 293 826 327 838 369 C 850 411 856 451 857 490 C 857 545 838 592 801 630 C 764 668 695 688 594 688 L 414 688 L 326 186 L 569 186 Z M 676 870 C 760 870 823 895 867 947 C 911 998 933 1063 933 1142 C 933 1266 850 1329 686 1329 L 526 1329 L 446 870 L 676 870 Z" unicode="B" />
<glyph horiz-adv-x="1253" d="M 549 -20 C 389 -20 266 30 179 130 C 92 230 49 372 49 558 C 49 675 65 795 97 918 C 129 1041 177 1150 239 1244 C 301 1338 374 1411 458 1463 C 542 1514 631 1540 725 1540 C 815 1540 889 1523 945 1491 C 1001 1458 1038 1416 1057 1364 L 1083 1518 L 1272 1518 L 1186 1042 L 987 1042 L 987 1051 C 987 1146 966 1216 926 1260 C 885 1304 816 1327 719 1327 C 656 1327 598 1308 545 1270 C 491 1232 445 1177 406 1103 C 366 1029 336 941 314 841 C 292 740 282 648 282 565 C 282 440 307 346 358 282 C 409 218 483 186 580 186 C 728 186 844 287 928 489 L 1124 430 C 1070 288 994 177 894 98 C 794 19 679 -20 549 -20 Z" unicode="C" />
<glyph horiz-adv-x="1290" d="M -51 186 L 100 186 L 301 1327 L 150 1327 L 184 1518 L 647 1518 C 841 1518 989 1470 1090 1375 C 1191 1279 1242 1137 1243 948 C 1243 838 1227 720 1196 594 C 1164 468 1118 360 1056 270 C 994 180 918 112 830 67 C 742 22 641 0 528 0 L -86 0 L -51 186 Z M 535 190 C 613 190 681 207 738 242 C 795 276 843 329 882 400 C 921 471 952 561 974 670 C 996 778 1007 872 1007 950 C 1007 1077 976 1171 915 1232 C 853 1292 760 1323 635 1323 L 528 1323 L 330 190 L 535 190 Z" unicode="D" />
<glyph horiz-adv-x="1155" d="M -51 186 L 100 186 L 301 1327 L 150 1327 L 184 1518 L 1192 1518 L 1108 1042 L 897 1042 L 950 1333 L 530 1333 L 449 864 L 793 864 L 758 676 L 416 676 L 330 182 L 758 182 L 815 508 L 1024 508 L 934 0 L -86 0 L -51 186 Z" unicode="E" />
<glyph horiz-adv-x="1124" d="M -51 186 L 100 186 L 301 1327 L 150 1327 L 184 1518 L 1186 1518 L 1100 1042 L 891 1042 L 942 1333 L 530 1333 L 444 838 L 791 838 L 758 649 L 410 649 L 330 186 L 512 186 L 479 0 L -86 0 L -51 186 Z" unicode="F" />
<glyph horiz-adv-x="1288" d="M 506 -20 C 360 -20 247 29 167 129 C 87 228 47 369 47 552 C 47 668 62 788 94 914 C 125 1039 171 1149 233 1245 C 295 1340 368 1413 453 1464 C 538 1514 628 1540 723 1540 C 813 1540 886 1525 942 1497 C 997 1469 1035 1424 1057 1364 L 1083 1518 L 1270 1518 L 1186 1042 L 987 1042 C 987 1139 966 1211 925 1257 C 884 1303 817 1327 723 1327 C 631 1327 553 1292 487 1224 C 421 1156 371 1057 335 928 C 299 798 281 675 281 559 C 281 435 305 341 355 277 C 404 213 475 182 569 182 C 663 182 739 215 798 281 C 857 347 902 451 932 592 L 631 592 L 666 778 L 1163 778 L 1026 0 L 885 0 L 879 188 C 837 123 783 72 717 35 C 651 -1 581 -20 506 -20 Z" unicode="G" />
<glyph horiz-adv-x="1425" d="M -51 186 L 102 186 L 303 1327 L 150 1327 L 184 1518 L 752 1518 L 717 1331 L 532 1331 L 453 879 L 1018 879 L 1100 1331 L 913 1331 L 948 1518 L 1513 1518 L 1479 1327 L 1327 1327 L 1126 186 L 1278 186 L 1245 0 L 680 0 L 713 184 L 897 184 L 985 682 L 418 682 L 332 184 L 516 184 L 483 0 L -84 0 L -51 186 Z" unicode="H" />
<glyph horiz-adv-x="657" d="M -51 186 L 117 186 L 315 1327 L 150 1327 L 184 1518 L 745 1518 L 713 1327 L 543 1327 L 344 186 L 512 186 L 477 0 L -86 0 L -51 186 Z" unicode="I" />
<glyph horiz-adv-x="858" d="M -18 215 C 43 200 109 193 180 193 C 236 193 279 208 310 238 C 341 268 363 319 377 389 L 543 1327 L 379 1327 L 414 1518 L 946 1518 L 911 1327 L 770 1327 L 598 356 C 555 110 422 -12 199 -12 C 81 -12 -11 -3 -78 14 L -18 215 Z" unicode="J" />
<glyph horiz-adv-x="1327" d="M -51 186 L 100 186 L 301 1327 L 150 1327 L 184 1518 L 690 1518 L 655 1331 L 528 1331 L 424 750 L 961 1331 L 848 1331 L 881 1518 L 1370 1518 L 1337 1327 L 1204 1327 L 801 897 L 1061 186 L 1180 186 L 1145 0 L 633 0 L 666 180 L 831 180 L 629 731 L 373 459 L 326 180 L 459 180 L 428 0 L -86 0 L -51 186 Z" unicode="K" />
<glyph horiz-adv-x="1116" d="M -51 186 L 100 186 L 301 1327 L 150 1327 L 184 1518 L 745 1518 L 713 1327 L 530 1327 L 330 182 L 729 182 L 786 508 L 999 508 L 907 0 L -86 0 L -51 186 Z" unicode="L" />
<glyph horiz-adv-x="1700" d="M -51 186 L 102 186 L 301 1327 L 150 1327 L 184 1518 L 637 1518 L 784 399 L 1329 1518 L 1788 1518 L 1753 1329 L 1599 1329 L 1399 186 L 1554 186 L 1520 0 L 991 0 L 1024 184 L 1180 184 L 1350 1151 L 793 0 L 627 0 L 479 1155 L 309 184 L 465 184 L 432 0 L -86 0 L -51 186 Z" unicode="M" />
<glyph horiz-adv-x="1425" d="M -51 186 L 100 186 L 301 1327 L 150 1327 L 184 1518 L 592 1518 L 965 418 L 1126 1327 L 975 1327 L 1010 1518 L 1511 1518 L 1479 1327 L 1335 1327 L 1102 0 L 889 0 L 483 1157 L 313 186 L 481 186 L 449 0 L -86 0 L -51 186 Z" unicode="N" />
<glyph horiz-adv-x="1323" d="M 553 -20 C 397 -20 275 34 186 144 C 96 253 52 403 52 593 C 52 708 68 825 101 943 C 134 1061 183 1165 248 1257 C 313 1349 389 1419 477 1467 C 565 1515 658 1540 758 1540 C 918 1540 1044 1486 1136 1378 C 1227 1270 1273 1122 1273 932 C 1273 812 1256 693 1222 574 C 1188 454 1139 349 1074 259 C 1008 169 931 100 842 52 C 752 4 656 -20 553 -20 Z M 586 186 C 674 186 752 219 820 285 C 888 351 942 444 981 565 C 1019 685 1039 806 1039 926 C 1039 1054 1012 1153 960 1223 C 908 1292 834 1327 739 1327 C 650 1327 571 1294 503 1228 C 434 1162 380 1069 342 948 C 303 827 284 707 284 587 C 284 459 310 360 363 290 C 416 220 490 186 586 186 Z" unicode="O" />
<glyph horiz-adv-x="1217" d="M -51 186 L 100 186 L 301 1327 L 150 1327 L 184 1518 L 743 1518 C 896 1518 1013 1485 1093 1419 C 1173 1353 1214 1257 1214 1131 C 1214 1060 1202 987 1180 911 C 1157 835 1123 770 1077 716 C 1031 662 976 621 911 595 C 845 568 770 555 686 555 L 393 555 L 330 186 L 514 186 L 481 0 L -86 0 L -51 186 Z M 686 737 C 752 737 806 751 849 780 C 892 808 925 854 947 917 C 969 980 980 1044 980 1110 C 980 1184 958 1239 915 1274 C 872 1309 807 1327 719 1327 L 530 1327 L 426 737 L 686 737 Z" unicode="P" />
<glyph horiz-adv-x="1323" d="M 668 -350 C 574 -350 502 -326 452 -279 C 401 -232 376 -163 376 -73 C 376 -45 378 -17 383 12 C 278 47 197 115 139 217 C 81 318 52 444 52 594 C 52 708 68 825 101 943 C 134 1061 183 1165 248 1257 C 313 1349 390 1419 478 1467 C 566 1515 659 1540 758 1540 C 918 1540 1044 1486 1136 1378 C 1227 1270 1273 1122 1273 932 C 1273 816 1257 699 1225 583 C 1193 466 1145 363 1083 274 C 1021 185 947 116 861 67 C 775 17 682 -9 582 -13 L 581 -43 C 581 -85 591 -116 613 -134 C 634 -152 667 -162 711 -162 C 783 -162 851 -151 915 -131 L 956 -307 C 923 -320 879 -330 823 -338 C 767 -346 715 -350 668 -350 Z M 586 186 C 674 186 752 219 820 285 C 888 351 942 444 981 565 C 1019 685 1039 806 1039 926 C 1039 1054 1012 1153 960 1223 C 908 1292 834 1327 739 1327 C 650 1327 571 1294 503 1228 C 434 1162 380 1069 342 948 C 303 827 284 707 284 587 C 284 459 310 360 363 290 C 416 220 490 186 586 186 Z" unicode="Q" />
<glyph horiz-adv-x="1262" d="M 617 578 L 395 578 L 326 184 L 457 184 L 422 0 L -86 0 L -51 186 L 102 186 L 301 1327 L 150 1327 L 184 1518 L 698 1518 C 860 1518 984 1486 1069 1422 C 1153 1358 1196 1262 1196 1136 C 1196 1054 1182 976 1154 900 C 1126 824 1085 760 1032 710 C 979 659 914 622 838 600 L 977 186 L 1114 186 L 1079 0 L 584 0 L 616 184 L 745 184 L 617 578 Z M 666 764 C 737 764 794 777 836 804 C 878 831 909 874 930 934 C 950 994 961 1056 962 1120 C 962 1191 940 1243 897 1277 C 853 1310 786 1327 696 1327 L 526 1327 L 428 764 L 666 764 Z" unicode="R" />
<glyph horiz-adv-x="1133" d="M 524 -20 C 321 -20 198 35 156 147 L 131 0 L -49 0 L 41 508 L 229 508 L 228 468 C 228 386 238 325 258 287 C 278 249 308 221 348 203 C 388 185 443 176 512 176 C 596 176 660 197 706 240 C 751 283 774 342 774 418 C 774 462 758 503 726 541 C 694 579 646 615 584 650 C 488 702 419 743 376 771 C 333 799 297 829 269 861 C 240 893 217 929 200 969 C 182 1009 174 1054 174 1104 C 174 1185 193 1259 233 1326 C 272 1393 327 1445 398 1482 C 468 1519 546 1538 631 1538 C 799 1538 903 1489 944 1391 L 967 1518 L 1145 1518 L 1059 1042 L 872 1042 L 875 1102 C 875 1182 856 1241 818 1278 C 780 1314 720 1333 637 1333 C 567 1333 512 1313 470 1274 C 428 1234 408 1182 408 1116 C 408 1074 423 1035 454 999 C 484 963 532 927 598 891 C 717 825 795 778 833 750 C 870 722 901 691 927 659 C 953 627 972 592 986 555 C 999 518 1006 477 1006 432 C 1006 345 985 267 945 198 C 905 129 848 75 774 37 C 700 0 616 -20 524 -20 Z" unicode="S" />
<glyph horiz-adv-x="1276" d="M 248 184 L 424 184 L 627 1333 L 369 1333 L 317 1042 L 121 1042 L 205 1518 L 1341 1518 L 1257 1042 L 1063 1042 L 1114 1333 L 856 1333 L 653 184 L 827 184 L 795 0 L 215 0 L 248 184 Z" unicode="T" />
<glyph horiz-adv-x="1405" d="M 623 -20 C 462 -20 340 13 257 80 C 174 147 133 248 133 383 C 133 431 137 481 147 535 L 287 1327 L 150 1327 L 184 1518 L 743 1518 L 711 1331 L 516 1331 L 375 522 C 367 480 363 441 363 406 C 363 329 385 272 430 236 C 475 200 543 182 635 182 C 722 182 792 209 844 263 C 896 317 932 403 954 522 L 1096 1331 L 909 1331 L 942 1518 L 1491 1518 L 1458 1327 L 1319 1327 L 1171 485 C 1143 323 1083 199 989 111 C 895 23 773 -20 623 -20 Z" unicode="U" />
<glyph horiz-adv-x="1368" d="M 252 1327 L 150 1327 L 184 1518 L 692 1518 L 657 1331 L 479 1331 L 604 297 L 1094 1331 L 926 1331 L 961 1518 L 1456 1518 L 1421 1327 L 1315 1327 L 664 -10 L 424 -10 L 252 1327 Z" unicode="V" />
<glyph horiz-adv-x="1917" d="M 279 1327 L 150 1327 L 184 1518 L 684 1518 L 651 1331 L 496 1331 L 532 385 L 995 1518 L 1194 1518 L 1257 379 L 1632 1331 L 1470 1331 L 1503 1518 L 2003 1518 L 1968 1327 L 1837 1327 L 1296 -10 L 1083 -10 L 1020 1110 L 559 -10 L 344 -10 L 279 1327 Z" unicode="W" />
<glyph horiz-adv-x="1337" d="M -51 186 L 68 186 L 545 791 L 309 1327 L 170 1327 L 205 1518 L 729 1518 L 694 1331 L 551 1331 L 719 940 L 1010 1331 L 879 1331 L 913 1518 L 1401 1518 L 1368 1327 L 1243 1327 L 801 768 L 1057 186 L 1190 186 L 1155 0 L 623 0 L 655 182 L 813 182 L 629 616 L 301 182 L 457 182 L 424 0 L -86 0 L -51 186 Z" unicode="X" />
<glyph horiz-adv-x="1315" d="M 266 184 L 444 184 L 510 557 L 256 1327 L 150 1327 L 184 1518 L 690 1518 L 657 1331 L 487 1331 L 662 764 L 1032 1331 L 868 1331 L 903 1518 L 1403 1518 L 1368 1327 L 1260 1327 L 739 555 L 674 184 L 850 184 L 817 0 L 233 0 L 266 184 Z" unicode="Y" />
<glyph horiz-adv-x="1102" d="M 874 1337 L 379 1337 L 328 1042 L 121 1042 L 205 1518 L 1167 1518 L 1139 1343 L 209 180 L 743 180 L 801 508 L 1012 508 L 922 0 L -86 0 L -57 168 L 874 1337 Z" unicode="Z" />
<glyph horiz-adv-x="836" d="M 338 1577 L 827 1577 L 795 1386 L 528 1386 L 260 -143 L 532 -143 L 498 -326 L 2 -326 L 338 1577 Z" unicode="[" />
<glyph horiz-adv-x="911" d="M 141 1518 L 354 1518 L 772 0 L 559 0 L 141 1518 Z" unicode="\" />
<glyph horiz-adv-x="836" d="M -8 -143 L 264 -143 L 532 1386 L 264 1386 L 299 1577 L 791 1577 L 455 -326 L -41 -326 L -8 -143 Z" unicode="]" />
<glyph horiz-adv-x="1188" d="M 1051 745 L 836 745 L 592 1251 L 346 745 L 131 745 L 504 1475 L 678 1475 L 1051 745 Z" unicode="^" />
<glyph horiz-adv-x="752" d="M -215 -104 L 662 -104 L 631 -274 L -244 -274 L -215 -104 Z" unicode="_" />
<glyph horiz-adv-x="979" d="M 332 1391 L 420 1565 L 858 1376 L 791 1243 L 332 1391 Z" unicode="`" />
<glyph horiz-adv-x="1040" d="M 260 -14 C 169 -14 99 10 50 60 C 0 110 -24 181 -24 275 C -24 363 -6 441 28 509 C 62 577 113 629 180 665 C 247 701 331 719 432 719 C 516 719 589 712 653 700 C 664 764 670 810 670 838 C 670 881 656 912 629 932 C 601 951 559 961 502 961 C 460 961 417 954 373 942 C 329 929 292 913 262 895 L 174 1071 C 215 1098 270 1120 338 1137 C 406 1154 474 1163 541 1163 C 659 1163 747 1140 804 1095 C 860 1049 889 977 889 879 C 889 833 884 783 874 729 L 778 184 L 915 184 L 885 10 L 571 -8 L 573 162 C 494 44 390 -14 260 -14 Z M 336 172 C 407 172 466 196 513 244 C 560 292 592 364 610 461 L 627 541 C 597 548 570 552 546 554 C 522 556 491 557 455 557 C 406 557 366 551 335 541 C 303 530 277 513 256 490 C 234 467 219 440 210 408 C 201 376 197 343 197 311 C 197 218 243 172 336 172 Z" unicode="a" />
<glyph horiz-adv-x="1149" d="M 602 -16 C 514 -16 444 -1 392 27 C 339 55 300 102 276 166 L 211 -10 L -84 10 L -53 184 L 76 184 L 283 1370 L 143 1370 L 178 1556 L 541 1577 L 436 983 C 476 1046 524 1092 580 1122 C 636 1152 694 1167 756 1167 C 858 1167 935 1133 989 1066 C 1042 999 1069 899 1069 767 C 1069 674 1056 575 1032 469 C 1008 363 975 275 935 204 C 894 133 846 79 790 41 C 734 3 672 -16 602 -16 Z M 561 178 C 618 178 667 201 707 247 C 747 293 779 368 803 472 C 827 576 839 665 839 740 C 839 888 783 963 672 963 C 604 963 546 941 499 899 C 452 857 415 792 387 705 C 359 618 346 531 346 445 C 346 357 364 290 401 245 C 437 200 491 178 561 178 Z" unicode="b" />
<glyph horiz-adv-x="1001" d="M 406 -16 C 280 -16 184 20 119 92 C 53 164 21 272 21 416 C 21 544 43 668 88 787 C 132 905 193 998 271 1064 C 349 1130 434 1163 528 1163 C 671 1163 755 1114 780 1016 L 803 1141 L 969 1141 L 897 739 L 725 739 C 719 824 702 883 674 915 C 646 947 602 963 541 963 C 479 963 427 939 383 891 C 339 843 305 773 281 679 C 257 585 245 497 245 417 C 245 257 310 178 440 178 C 490 178 535 195 573 230 C 611 265 647 321 682 397 L 866 330 C 818 215 755 129 677 71 C 599 13 508 -16 406 -16 Z" unicode="c" />
<glyph horiz-adv-x="1149" d="M 336 -18 C 232 -18 154 15 100 81 C 46 147 19 249 19 385 C 19 471 30 567 53 675 C 76 783 108 873 149 945 C 189 1017 238 1072 296 1110 C 354 1148 419 1167 492 1167 C 651 1167 753 1108 797 991 L 862 1372 L 702 1372 L 735 1559 L 1118 1577 L 872 184 L 1026 184 L 993 10 L 670 -8 L 672 174 C 632 114 582 67 523 33 C 463 -1 401 -18 336 -18 Z M 420 180 C 488 180 544 202 590 246 C 636 290 672 357 698 449 C 724 541 738 632 739 724 C 737 884 666 965 526 965 C 466 965 416 941 376 894 C 336 847 304 773 280 673 C 256 572 245 482 245 404 C 245 254 303 180 420 180 Z" unicode="d" />
<glyph horiz-adv-x="987" d="M 240 496 C 236 464 235 436 235 410 C 235 339 248 281 274 236 C 300 190 352 168 428 168 C 480 168 526 179 566 201 C 606 223 646 255 686 295 L 829 158 C 773 100 710 56 638 26 C 566 -4 490 -20 410 -20 C 283 -20 186 16 120 88 C 53 160 20 268 20 412 C 20 542 42 668 87 790 C 131 911 194 1003 274 1067 C 354 1131 445 1163 549 1163 C 782 1163 899 1044 899 807 C 899 736 885 632 858 496 L 240 496 Z M 532 975 C 470 975 417 949 373 898 C 329 846 295 772 271 676 L 682 676 C 690 718 694 757 694 793 C 694 914 640 975 532 975 Z" unicode="e" />
<glyph horiz-adv-x="717" d="M 104 1141 L 283 1141 L 299 1247 C 339 1473 475 1587 707 1587 C 770 1587 818 1583 850 1577 L 811 1382 C 751 1388 711 1391 692 1391 C 641 1391 601 1379 573 1356 C 544 1332 526 1293 518 1239 L 500 1141 L 766 1141 L 733 950 L 467 950 L 242 -326 L 23 -326 L 248 950 L 70 950 L 104 1141 Z" unicode="f" />
<glyph horiz-adv-x="991" d="M 469 412 C 404 412 348 419 302 434 C 282 407 273 381 273 355 C 273 335 284 320 307 310 C 330 300 378 290 451 281 C 548 268 623 252 677 233 C 731 213 772 187 800 155 C 828 122 842 78 842 22 C 842 -55 821 -122 780 -178 C 739 -234 679 -276 601 -304 C 523 -332 426 -346 311 -346 C 171 -346 62 -323 -15 -279 C -93 -234 -132 -170 -132 -86 C -132 -11 -107 50 -59 98 C -10 146 62 179 158 197 C 130 210 110 229 99 253 C 87 277 82 301 82 323 C 82 351 90 380 108 411 C 126 441 150 469 182 494 C 138 529 109 568 97 610 C 84 652 78 691 78 727 C 78 782 87 837 105 891 C 123 945 152 993 192 1035 C 231 1076 278 1108 334 1130 C 390 1152 450 1163 516 1163 C 579 1163 636 1153 686 1134 L 1006 1249 L 997 1055 L 808 1055 C 846 1015 870 975 881 933 C 891 891 897 854 897 822 C 897 767 887 714 869 663 C 851 611 823 566 785 528 C 747 489 700 460 646 441 C 591 421 532 412 469 412 Z M 352 -188 C 527 -188 615 -128 615 -9 C 615 20 607 42 592 57 C 577 72 556 85 528 95 C 500 105 464 113 421 119 C 377 125 342 129 315 129 C 241 129 185 113 149 81 C 113 49 95 7 95 -47 C 95 -81 105 -108 125 -128 C 145 -147 173 -162 209 -172 C 245 -182 293 -188 352 -188 Z M 463 573 C 533 573 586 595 623 640 C 660 685 679 744 679 817 C 679 869 664 909 636 937 C 607 965 566 979 512 979 C 464 979 424 968 391 948 C 358 928 333 898 316 859 C 299 820 291 779 291 737 C 291 685 306 644 336 616 C 366 587 408 573 463 573 Z" unicode="g" />
<glyph horiz-adv-x="1169" d="M -53 184 L 76 184 L 283 1370 L 143 1370 L 176 1556 L 539 1577 L 434 995 C 508 1109 609 1167 739 1167 C 925 1167 1018 1078 1018 902 C 1018 848 1012 789 1001 725 L 907 184 L 1044 184 L 1012 0 L 518 0 L 551 184 L 686 184 L 778 713 C 786 759 790 797 790 827 C 790 874 777 908 752 929 C 727 950 687 961 633 961 C 563 961 507 936 466 886 C 424 836 395 760 377 659 L 293 184 L 428 184 L 395 0 L -86 0 L -53 184 Z" unicode="h" />
<glyph horiz-adv-x="590" d="M -53 184 L 96 184 L 229 950 L 82 950 L 115 1135 L 485 1153 L 315 184 L 465 184 L 432 0 L -86 0 L -53 184 Z M 319 1524 L 553 1524 L 508 1276 L 276 1276 L 319 1524 Z" unicode="i" />
<glyph horiz-adv-x="526" d="M -141 -145 L -84 -150 C -42 -150 -12 -141 6 -123 C 24 -105 37 -75 45 -33 L 219 950 L 72 950 L 104 1133 L 475 1153 L 266 -31 C 246 -143 208 -221 153 -267 C 97 -313 13 -336 -100 -336 C -134 -336 -160 -334 -178 -332 L -141 -145 Z M 307 1524 L 541 1524 L 498 1276 L 264 1276 L 307 1524 Z" unicode="j" />
<glyph horiz-adv-x="1112" d="M -53 184 L 76 184 L 283 1370 L 143 1370 L 176 1556 L 537 1577 L 360 590 L 715 958 L 582 958 L 616 1141 L 1081 1141 L 1049 950 L 944 950 L 666 668 L 866 184 L 987 184 L 954 0 L 498 0 L 530 182 L 639 182 L 496 530 L 319 346 L 291 182 L 395 182 L 365 0 L -86 0 L -53 184 Z" unicode="k" />
<glyph horiz-adv-x="588" d="M -53 184 L 84 184 L 291 1370 L 143 1370 L 176 1556 L 549 1577 L 303 184 L 463 184 L 430 0 L -86 0 L -53 184 Z" unicode="l" />
<glyph horiz-adv-x="1774" d="M -53 184 L 88 184 L 221 950 L 82 950 L 115 1135 L 426 1153 L 424 973 C 460 1037 504 1085 558 1118 C 611 1150 671 1167 737 1167 C 817 1167 880 1150 924 1118 C 968 1085 995 1032 1006 958 C 1042 1024 1091 1076 1152 1112 C 1212 1148 1278 1167 1350 1167 C 1533 1167 1625 1082 1625 913 C 1625 860 1618 799 1606 729 L 1511 184 L 1649 184 L 1616 0 L 1130 0 L 1165 184 L 1290 184 L 1382 713 C 1391 767 1396 808 1396 836 C 1396 881 1384 913 1360 932 C 1336 951 1298 961 1247 961 C 1179 961 1124 937 1082 889 C 1040 841 1010 765 991 659 L 909 184 L 1036 184 L 1004 0 L 528 0 L 561 184 L 688 184 L 782 713 C 790 759 794 797 794 827 C 794 873 781 906 756 928 C 730 950 690 961 635 961 C 567 961 514 937 475 889 C 436 841 407 764 389 659 L 307 184 L 430 184 L 397 0 L -86 0 L -53 184 Z" unicode="m" />
<glyph horiz-adv-x="1182" d="M -53 184 L 88 184 L 221 950 L 82 950 L 115 1135 L 426 1153 L 424 977 C 460 1039 506 1087 563 1119 C 620 1151 683 1167 752 1167 C 938 1167 1031 1078 1031 902 C 1031 848 1025 789 1014 725 L 920 184 L 1059 184 L 1024 0 L 530 0 L 563 184 L 698 184 L 793 713 C 801 759 805 796 805 826 C 805 872 792 906 767 928 C 741 950 701 961 645 961 C 576 961 521 936 479 887 C 437 838 407 762 389 659 L 307 184 L 440 184 L 408 0 L -86 0 L -53 184 Z" unicode="n" />
<glyph horiz-adv-x="1055" d="M 436 -20 C 304 -20 202 18 130 95 C 58 172 22 284 22 430 C 22 521 35 615 61 711 C 87 807 123 889 170 956 C 216 1023 273 1075 339 1111 C 405 1147 479 1165 561 1165 C 691 1165 792 1126 863 1050 C 933 974 969 863 969 718 C 969 626 956 532 930 436 C 904 339 867 256 820 188 C 773 120 717 68 652 33 C 586 -2 514 -20 436 -20 Z M 442 176 C 502 176 554 198 598 243 C 642 287 677 355 703 445 C 728 535 741 624 743 711 C 743 877 677 961 547 961 C 486 961 433 938 389 894 C 344 849 309 782 283 692 C 257 602 245 513 245 425 C 245 343 261 281 294 239 C 327 197 376 176 442 176 Z" unicode="o" />
<glyph horiz-adv-x="1149" d="M -123 -145 L 18 -145 L 211 950 L 72 950 L 104 1135 L 414 1153 L 414 967 C 454 1032 503 1082 562 1116 C 620 1150 683 1167 750 1167 C 855 1167 934 1132 988 1064 C 1042 996 1069 896 1069 766 C 1069 642 1049 513 1009 381 C 969 249 914 150 846 84 C 777 18 696 -14 602 -14 C 522 -14 457 0 406 30 C 354 60 317 108 293 174 L 238 -145 L 391 -145 L 358 -326 L -154 -326 L -123 -145 Z M 561 178 C 618 178 667 201 707 247 C 747 293 779 368 803 472 C 827 576 839 665 839 740 C 839 888 783 963 672 963 C 604 963 546 941 499 899 C 452 857 415 792 387 705 C 359 618 346 531 346 445 C 346 357 364 290 401 245 C 437 200 491 178 561 178 Z" unicode="p" />
<glyph horiz-adv-x="1149" d="M 438 -145 L 596 -145 L 651 172 C 613 114 567 69 511 35 C 455 1 397 -16 336 -16 C 124 -16 18 118 18 387 C 18 479 30 578 54 684 C 78 790 110 878 150 948 C 190 1018 239 1072 296 1110 C 353 1148 418 1167 492 1167 C 578 1167 646 1153 696 1126 C 746 1098 785 1053 813 991 L 881 1153 L 1180 1135 L 1147 950 L 1008 950 L 815 -145 L 954 -145 L 922 -326 L 410 -326 L 438 -145 Z M 420 180 C 488 180 544 202 590 246 C 636 290 672 357 698 449 C 724 541 738 632 739 724 C 737 884 666 965 526 965 C 466 965 416 941 376 894 C 336 847 304 773 280 673 C 256 572 245 482 245 404 C 245 254 303 180 420 180 Z" unicode="q" />
<glyph horiz-adv-x="772" d="M -53 184 L 88 184 L 221 950 L 82 950 L 115 1135 L 426 1153 L 426 965 C 494 1079 605 1144 760 1159 L 748 942 C 638 936 555 909 498 860 C 440 811 403 734 385 629 L 307 184 L 465 184 L 432 0 L -86 0 L -53 184 Z" unicode="r" />
<glyph horiz-adv-x="907" d="M 408 -14 C 322 -14 257 -2 211 20 C 165 43 133 79 117 127 L 94 0 L -68 0 L 2 393 L 176 393 C 177 310 195 251 230 215 C 265 179 318 162 389 162 C 443 162 487 175 519 201 C 551 227 567 265 567 317 C 567 347 555 375 531 400 C 507 425 469 450 417 475 C 310 523 238 562 202 591 C 166 619 138 652 120 688 C 101 724 92 765 92 811 C 92 914 126 999 196 1065 C 265 1131 351 1165 455 1165 C 525 1165 580 1155 621 1135 C 662 1115 691 1082 709 1036 L 727 1141 L 887 1141 L 825 782 L 651 782 C 649 854 635 905 607 935 C 579 964 533 979 469 979 C 422 979 384 965 355 938 C 325 911 311 874 311 827 C 311 797 323 769 348 745 C 373 721 411 698 461 676 C 569 627 641 589 675 562 C 709 534 736 503 755 467 C 774 431 784 389 784 342 C 784 237 749 151 679 85 C 609 19 519 -14 408 -14 Z" unicode="s" />
<glyph horiz-adv-x="786" d="M 371 -10 C 283 -10 218 7 176 42 C 134 76 113 131 113 206 C 113 240 117 277 125 319 L 236 950 L 63 950 L 96 1141 L 274 1141 L 367 1456 L 545 1456 L 487 1141 L 766 1141 L 733 950 L 455 950 L 344 322 C 338 293 336 270 336 254 C 336 228 343 210 359 200 C 374 189 400 184 438 184 C 454 184 479 186 512 191 C 544 196 571 202 592 209 L 629 25 C 556 1 470 -10 371 -10 Z" unicode="t" />
<glyph horiz-adv-x="1165" d="M 375 -18 C 275 -18 201 4 155 49 C 108 94 85 163 85 257 C 85 299 90 354 102 424 L 197 950 L 72 950 L 104 1133 L 453 1155 L 326 428 C 317 380 313 340 313 310 C 313 264 325 230 351 210 C 376 190 416 180 471 180 C 539 180 593 201 632 245 C 671 288 701 366 721 479 L 803 950 L 633 950 L 666 1133 L 1061 1155 L 891 184 L 1040 184 L 1010 10 L 686 -8 L 688 158 C 614 40 510 -18 375 -18 Z" unicode="u" />
<glyph horiz-adv-x="1098" d="M 166 950 L 59 950 L 92 1141 L 565 1141 L 530 952 L 387 952 L 463 248 L 788 952 L 659 952 L 694 1141 L 1141 1141 L 1108 950 L 999 950 L 543 -12 L 285 -12 L 166 950 Z" unicode="v" />
<glyph horiz-adv-x="1595" d="M 168 950 L 59 950 L 92 1141 L 543 1141 L 510 950 L 377 950 L 412 309 L 774 1139 L 961 1139 L 1024 307 L 1290 950 L 1149 950 L 1184 1141 L 1638 1141 L 1606 950 L 1491 950 L 1083 -12 L 868 -12 L 805 795 L 457 -12 L 236 -12 L 168 950 Z" unicode="w" />
<glyph horiz-adv-x="1085" d="M 476 445 L 256 172 L 371 172 L 340 0 L -86 0 L -53 184 L 41 184 L 396 602 L 219 950 L 104 950 L 139 1141 L 580 1141 L 549 965 L 453 965 L 573 730 L 768 965 L 678 965 L 709 1141 L 1114 1141 L 1079 950 L 973 950 L 652 576 L 854 184 L 961 184 L 928 0 L 467 0 L 498 172 L 616 172 L 476 445 Z" unicode="x" />
<glyph horiz-adv-x="1083" d="M 127 -338 C 52 -338 -11 -327 -63 -307 L 4 -123 C 54 -141 99 -150 137 -150 C 173 -150 202 -142 224 -126 C 246 -110 271 -75 301 -20 L 302 -17 L 164 950 L 59 950 L 92 1141 L 555 1141 L 522 952 L 381 952 L 455 251 L 784 952 L 651 952 L 686 1141 L 1128 1141 L 1096 950 L 989 950 L 475 -82 C 423 -181 373 -248 323 -284 C 273 -320 207 -338 127 -338 Z" unicode="y" />
<glyph horiz-adv-x="915" d="M 643 965 L 289 965 L 250 739 L 66 739 L 135 1141 L 918 1141 L 887 961 L 190 170 L 580 170 L 621 408 L 809 408 L 737 0 L -86 0 L -53 180 L 643 965 Z" unicode="z" />
<glyph horiz-adv-x="899" d="M 383 -326 C 293 -326 223 -307 174 -271 C 124 -235 99 -183 99 -117 C 99 -84 107 -42 123 7 C 139 57 163 121 195 199 C 222 265 243 320 259 362 C 274 404 282 437 282 461 C 282 483 276 498 265 507 C 253 516 236 522 213 526 C 190 530 147 532 84 532 L 117 721 C 196 721 250 725 278 734 C 306 742 326 758 336 780 C 346 802 351 840 351 892 L 345 1051 L 339 1212 C 339 1330 366 1421 421 1483 C 476 1545 560 1577 672 1577 L 895 1577 L 862 1386 L 727 1386 C 689 1386 657 1379 632 1367 C 606 1355 588 1334 577 1305 C 565 1276 560 1234 560 1179 L 571 879 C 571 800 558 742 532 705 C 506 667 468 641 416 627 C 479 604 511 565 511 510 L 508 475 C 499 425 471 341 424 223 C 386 128 362 63 352 29 C 342 -5 337 -34 337 -56 C 337 -84 346 -105 364 -120 C 382 -135 413 -143 457 -143 L 592 -143 L 559 -326 L 383 -326 Z" unicode="{" />
<glyph horiz-adv-x="606" d="M 190 1577 L 416 1577 L 416 -326 L 190 -326 L 190 1577 Z" unicode="|" />
<glyph horiz-adv-x="899" d="M -10 -143 L 125 -143 C 186 -143 229 -128 254 -98 C 279 -68 292 -11 292 71 L 283 371 C 283 455 295 515 320 550 C 345 584 384 610 436 627 C 374 647 343 687 343 748 L 346 786 C 354 828 382 909 431 1028 C 487 1168 516 1259 516 1301 C 516 1328 506 1349 488 1364 C 470 1378 439 1386 395 1386 L 260 1386 L 295 1577 L 469 1577 C 559 1577 629 1558 679 1521 C 728 1484 753 1432 753 1366 C 753 1334 747 1299 736 1259 C 724 1219 699 1150 659 1051 C 615 941 589 874 582 850 C 574 826 571 806 571 792 C 571 770 577 754 589 745 C 601 735 620 729 645 726 C 670 722 711 721 768 721 L 735 532 C 651 532 597 527 571 519 C 545 510 527 493 517 467 C 507 441 503 405 503 357 L 509 199 L 513 46 C 513 -74 487 -166 435 -230 C 383 -294 301 -326 188 -326 L -41 -326 L -10 -143 Z" unicode="}" />
<glyph horiz-adv-x="1188" d="M 147 655 C 179 717 216 765 259 799 C 302 833 349 850 399 850 C 427 850 458 845 494 836 C 529 826 564 816 599 805 C 633 793 666 783 697 774 C 728 764 754 760 774 760 C 802 760 826 768 846 784 C 866 800 886 825 905 858 L 1051 776 C 1017 712 979 663 938 630 C 896 596 849 580 795 580 C 753 580 687 595 598 626 C 508 656 450 672 422 672 C 372 672 329 639 293 573 L 147 655 Z" unicode="~" />
<glyph horiz-adv-x="985" d="" unicode="₀" />
<glyph horiz-adv-x="666" d="" unicode="₁" />
<glyph horiz-adv-x="874" d="" unicode="₂" />
<glyph horiz-adv-x="856" d="" unicode="₃" />
<glyph horiz-adv-x="893" d="" unicode="₄" />
<glyph horiz-adv-x="893" d="" unicode="₅" />
<glyph horiz-adv-x="940" d="" unicode="₆" />
<glyph horiz-adv-x="834" d="" unicode="₇" />
<glyph horiz-adv-x="934" d="" unicode="₈" />
<glyph horiz-adv-x="940" d="" unicode="₉" />
<glyph horiz-adv-x="367" d="" unicode=" " />
<glyph horiz-adv-x="649" d="M 287 1077 L 477 1077 L 315 0 L 68 0 L 287 1077 Z M 332 1518 L 592 1518 L 543 1237 L 281 1237 L 332 1518 Z" unicode="¡" />
<glyph horiz-adv-x="999" d="M 277 1 C 196 23 134 69 92 138 C 49 206 28 295 28 403 C 28 532 47 653 87 766 C 127 878 181 969 251 1039 C 321 1108 398 1148 482 1159 L 510 1315 L 692 1315 L 662 1145 C 726 1123 768 1080 788 1016 L 809 1141 L 975 1141 L 901 725 L 733 725 C 731 788 723 840 707 880 C 691 920 664 947 624 961 L 483 171 C 523 178 560 199 594 235 C 628 271 660 325 692 397 L 870 334 C 826 226 768 144 698 86 C 627 28 547 -5 457 -14 L 426 -193 L 244 -193 L 277 1 Z M 246 419 C 246 317 270 246 319 206 L 452 949 C 410 927 375 890 345 840 C 315 789 292 724 274 645 C 256 566 246 491 246 419 Z" unicode="¢" />
<glyph horiz-adv-x="1090" d="M 72 829 L 226 829 C 220 890 217 947 217 1000 C 217 1110 234 1200 270 1270 C 305 1340 357 1394 425 1434 C 493 1473 571 1493 659 1493 C 852 1493 987 1430 1065 1305 L 870 1190 C 848 1220 821 1244 787 1262 C 753 1279 707 1288 651 1288 C 580 1288 526 1264 490 1217 C 453 1169 435 1089 435 975 C 435 927 436 879 440 829 L 754 829 L 723 657 L 452 657 C 455 607 457 559 457 512 C 457 398 437 304 398 230 C 460 198 529 182 604 182 C 650 182 686 199 710 235 C 734 270 746 326 746 402 L 745 444 L 944 449 L 944 421 C 944 283 914 177 856 102 C 798 27 718 -10 616 -10 C 550 -10 489 -3 434 11 C 378 25 325 49 273 85 C 192 27 85 -5 -49 -12 L -43 182 C 41 195 104 213 145 235 C 185 257 213 288 229 329 C 244 370 252 425 252 495 C 252 541 249 595 243 657 L 41 657 L 72 829 Z" unicode="£" />
<glyph horiz-adv-x="1145" d="M 782 371 C 720 317 647 291 563 291 C 477 291 404 317 344 371 L 184 209 L 57 334 L 229 508 C 200 573 186 645 186 723 C 186 798 200 868 229 934 L 61 1106 L 184 1231 L 340 1073 C 403 1129 477 1157 563 1157 C 648 1157 723 1128 788 1071 L 948 1231 L 1071 1106 L 897 932 C 925 863 940 793 940 723 C 940 645 924 572 893 506 L 1065 334 L 942 209 L 782 371 Z M 563 455 C 625 455 673 480 709 530 C 744 580 762 644 762 721 C 762 798 744 862 709 912 C 673 962 625 987 563 987 C 502 987 453 962 417 913 C 380 864 362 800 362 721 C 362 639 380 575 417 527 C 453 479 502 455 563 455 Z" unicode="¤" />
<glyph horiz-adv-x="1139" d="M 197 182 L 360 182 L 410 453 L 16 453 L 47 623 L 422 623 L 381 741 L 68 741 L 96 911 L 315 911 L 207 1284 L 86 1284 L 119 1473 L 604 1473 L 571 1288 L 426 1288 L 573 782 L 895 1288 L 760 1288 L 793 1473 L 1272 1473 L 1237 1284 L 1110 1284 L 870 911 L 1087 911 L 1059 741 L 748 741 L 666 623 L 1038 623 L 1008 453 L 618 453 L 569 182 L 735 182 L 702 0 L 166 0 L 197 182 Z" unicode="¥" />
<glyph horiz-adv-x="606" d="M 190 469 L 416 469 L 416 -326 L 190 -326 L 190 469 Z M 190 1577 L 416 1577 L 416 784 L 190 784 L 190 1577 Z" unicode="¦" />
<glyph horiz-adv-x="1055" d="M 436 -336 C 361 -336 304 -325 264 -303 C 224 -281 197 -249 182 -207 L 162 -315 L 0 -315 L 66 47 L 240 47 L 240 38 C 240 -28 255 -76 286 -106 C 316 -135 363 -150 426 -150 C 471 -150 508 -135 538 -107 C 567 -78 582 -42 582 2 C 582 32 569 61 545 88 C 520 115 479 144 423 174 C 337 220 277 253 244 275 C 211 296 183 319 159 345 C 135 370 115 398 101 430 C 87 462 80 497 80 537 C 80 615 101 685 143 746 C 185 807 245 856 322 893 C 286 921 258 952 237 988 C 215 1024 205 1068 205 1120 C 205 1187 221 1249 253 1305 C 285 1361 330 1406 388 1438 C 446 1470 510 1487 578 1487 C 721 1487 808 1444 838 1358 L 858 1466 L 1020 1466 L 956 1104 L 782 1104 C 782 1175 765 1225 732 1255 C 698 1285 650 1300 588 1300 C 542 1300 503 1286 471 1258 C 439 1230 424 1194 424 1151 C 424 1119 436 1090 462 1063 C 488 1036 529 1008 585 978 C 705 914 783 867 819 836 C 855 805 883 771 902 735 C 920 699 930 658 930 614 C 930 453 848 334 686 256 C 764 194 803 119 803 31 C 803 -37 787 -99 756 -155 C 724 -211 680 -256 624 -288 C 567 -320 504 -336 436 -336 Z M 545 340 C 597 361 637 391 666 430 C 694 469 709 516 709 571 C 709 607 696 641 671 672 C 645 702 606 732 554 761 L 463 811 C 411 788 371 757 344 717 C 316 677 303 631 303 580 C 303 550 309 524 323 502 C 337 480 355 459 378 441 C 400 422 426 405 456 389 C 485 373 515 356 545 340 Z" unicode="§" />
<glyph horiz-adv-x="979" d="M 340 1497 L 539 1497 L 500 1264 L 299 1264 L 340 1497 Z M 700 1497 L 901 1497 L 860 1264 L 659 1264 L 700 1497 Z" unicode="¨" />
<glyph horiz-adv-x="1354" d="M 678 -20 C 552 -20 444 12 352 77 C 260 142 189 234 140 352 C 90 470 66 606 66 760 C 66 912 91 1048 142 1168 C 192 1288 263 1381 355 1445 C 447 1509 554 1542 678 1542 C 800 1542 907 1510 999 1448 C 1090 1385 1161 1293 1213 1173 C 1264 1052 1290 914 1290 760 C 1290 606 1264 468 1212 348 C 1160 227 1089 135 997 73 C 905 11 799 -20 678 -20 Z M 678 78 C 781 78 871 106 948 163 C 1024 219 1083 299 1124 403 C 1165 506 1186 625 1186 760 C 1186 893 1165 1011 1124 1115 C 1083 1219 1024 1299 948 1356 C 871 1413 781 1442 678 1442 C 522 1442 399 1380 307 1257 C 215 1133 170 968 170 760 C 170 625 190 506 230 403 C 270 300 329 220 406 163 C 483 106 574 78 678 78 Z M 670 262 C 558 262 470 305 407 391 C 344 477 313 596 313 750 C 313 896 345 1015 409 1106 C 473 1197 558 1243 664 1243 C 704 1243 742 1236 777 1222 C 812 1208 841 1181 864 1141 L 864 1231 L 989 1231 L 989 926 L 852 926 C 842 984 822 1027 794 1055 C 765 1082 725 1096 674 1096 C 610 1096 561 1065 525 1005 C 489 944 471 858 471 748 C 471 630 489 543 527 487 C 565 431 616 403 682 403 C 737 403 780 418 811 450 C 841 482 863 528 877 590 L 1016 559 C 994 467 954 394 896 341 C 838 288 762 262 670 262 Z" unicode="©" />
<glyph horiz-adv-x="987" d="M 94 414 L 752 414 L 721 246 L 63 246 L 94 414 Z M 367 526 C 289 526 228 547 185 589 C 142 631 121 690 121 768 C 121 815 128 861 144 906 C 159 951 183 990 216 1023 C 249 1056 290 1081 339 1097 C 387 1113 443 1122 506 1122 C 584 1122 646 1117 690 1108 L 694 1139 C 699 1167 702 1192 702 1214 C 701 1248 689 1273 666 1289 C 642 1305 605 1313 555 1313 C 517 1313 480 1308 442 1298 C 404 1288 372 1277 348 1264 L 281 1417 C 316 1437 363 1455 423 1469 C 482 1483 538 1491 592 1491 C 691 1491 765 1471 814 1431 C 862 1391 887 1327 887 1241 C 887 1206 883 1168 877 1128 L 799 688 L 891 688 L 866 551 L 647 543 L 639 696 C 608 644 570 603 524 572 C 478 541 426 526 367 526 Z M 428 688 C 488 688 537 707 576 745 C 615 783 641 839 655 915 L 666 977 C 637 983 593 987 535 987 C 473 987 427 980 397 967 C 366 953 343 932 329 903 C 315 873 308 840 308 802 C 308 774 315 748 330 724 C 345 700 378 688 428 688 Z" unicode="ª" />
<glyph horiz-adv-x="1202" d="M 104 571 L 457 1141 L 649 1141 L 319 567 L 446 0 L 256 0 L 104 571 Z M 545 571 L 897 1141 L 1090 1141 L 758 567 L 885 0 L 696 0 L 545 571 Z" unicode="«" />
<glyph horiz-adv-x="1188" d="M 791 621 L 152 621 L 152 825 L 1010 825 L 1010 252 L 791 252 L 791 621 Z" unicode="¬" />
<glyph horiz-adv-x="723" d="M 74 756 L 649 756 L 612 553 L 39 553 L 74 756 Z" unicode="­" />
<glyph horiz-adv-x="1153" d="M 621 340 C 525 340 442 365 371 415 C 300 465 246 535 208 627 C 170 718 152 823 152 942 C 152 1059 171 1163 209 1255 C 247 1347 301 1417 372 1467 C 442 1517 525 1542 621 1542 C 715 1542 798 1517 869 1467 C 939 1417 994 1346 1032 1255 C 1070 1164 1090 1060 1090 942 C 1090 823 1071 718 1033 626 C 995 534 941 464 871 414 C 801 364 717 340 621 340 Z M 621 422 C 739 422 833 469 901 563 C 969 657 1004 784 1004 942 C 1004 1098 969 1223 901 1317 C 833 1411 739 1458 621 1458 C 543 1458 475 1436 417 1394 C 359 1352 315 1292 284 1214 C 253 1136 238 1045 238 942 C 238 783 272 657 340 563 C 408 469 502 422 621 422 Z M 369 702 L 430 702 L 430 1198 L 369 1198 L 369 1296 L 635 1296 C 783 1296 858 1223 858 1077 C 858 975 818 909 739 879 L 829 702 L 895 702 L 895 608 L 668 608 L 668 700 L 707 700 L 629 860 L 545 860 L 545 700 L 598 700 L 598 608 L 369 608 L 369 702 Z M 635 950 C 673 950 700 960 717 980 C 734 1000 743 1031 743 1073 C 743 1116 733 1148 715 1168 C 697 1188 667 1198 625 1198 L 545 1198 L 545 950 L 635 950 Z" unicode="®" />
<glyph horiz-adv-x="979" d="M 332 1450 L 893 1450 L 860 1264 L 299 1264 L 332 1450 Z" unicode="¯" />
<glyph horiz-adv-x="981" d="M 481 526 C 373 526 290 558 231 624 C 172 689 143 782 143 902 C 143 973 153 1047 174 1124 C 194 1200 224 1266 264 1322 C 303 1377 350 1419 405 1449 C 459 1478 520 1493 588 1493 C 695 1493 778 1460 838 1396 C 898 1332 928 1240 929 1120 C 929 1046 918 971 897 894 C 876 816 846 750 806 695 C 766 639 719 597 664 569 C 608 540 547 526 481 526 Z M 494 694 C 542 694 585 712 621 748 C 657 784 685 837 706 907 C 726 977 737 1047 737 1115 C 736 1178 722 1227 696 1262 C 669 1297 630 1315 580 1315 C 531 1315 488 1297 451 1261 C 414 1225 385 1173 365 1105 C 345 1037 335 966 335 894 C 335 830 348 780 376 746 C 403 711 442 694 494 694 Z" unicode="°" />
<glyph horiz-adv-x="1188" d="M 483 657 L 164 657 L 164 862 L 483 862 L 483 1217 L 705 1217 L 705 862 L 1024 862 L 1024 657 L 705 657 L 705 301 L 483 301 L 483 657 Z M 164 207 L 1024 207 L 1024 0 L 164 0 L 164 207 Z" unicode="±" />
<glyph horiz-adv-x="874" d="M 643 1305 C 643 1339 631 1367 609 1387 C 587 1407 558 1417 522 1417 C 484 1417 450 1407 421 1387 C 392 1367 366 1336 344 1294 L 195 1362 C 231 1434 280 1488 342 1524 C 404 1560 472 1579 547 1579 C 633 1579 701 1557 751 1515 C 801 1472 827 1414 827 1341 C 827 1299 819 1258 805 1218 C 791 1177 766 1135 731 1091 C 696 1047 620 967 502 852 L 307 668 L 575 668 L 602 825 L 756 825 L 705 535 L 74 535 L 98 678 C 336 901 474 1032 512 1071 C 550 1109 577 1141 595 1166 C 613 1191 625 1216 632 1242 C 638 1268 642 1289 643 1305 Z" unicode="²" />
<glyph horiz-adv-x="856" d="M 403 518 C 221 518 107 586 61 723 L 221 780 C 236 744 258 717 287 701 C 316 684 355 676 403 676 C 440 676 473 684 501 702 C 529 720 551 746 565 780 C 579 814 586 850 586 887 C 586 934 568 968 533 988 C 497 1008 439 1018 358 1018 L 383 1153 C 449 1153 500 1158 534 1170 C 568 1181 594 1200 610 1226 C 626 1252 635 1281 635 1314 C 635 1340 626 1364 610 1385 C 593 1406 560 1417 510 1417 C 441 1417 384 1395 338 1352 L 221 1456 C 299 1536 402 1577 530 1577 C 619 1577 689 1558 741 1520 C 793 1482 819 1428 819 1360 C 819 1298 802 1244 769 1197 C 735 1149 686 1116 621 1096 C 717 1067 766 997 766 887 C 766 816 750 752 719 696 C 688 639 645 595 590 564 C 534 533 472 518 403 518 Z" unicode="³" />
<glyph horiz-adv-x="979" d="M 346 1389 L 850 1577 L 874 1391 L 369 1243 L 346 1389 Z" unicode="´" />
<glyph horiz-adv-x="1178" d="M 215 950 L 78 950 L 111 1133 L 471 1151 L 346 438 C 336 381 331 337 331 306 C 331 259 343 226 369 207 C 394 187 436 178 494 178 C 563 178 617 200 655 246 C 693 292 721 369 739 477 L 823 950 L 651 950 L 682 1133 L 1079 1151 L 909 184 L 1055 184 L 1022 6 L 705 -14 L 709 164 C 673 107 630 63 582 33 C 533 3 480 -12 424 -12 C 344 -12 293 5 272 39 L 209 -326 L -8 -326 L 215 950 Z" unicode="µ" />
<glyph horiz-adv-x="1157" d="M 156 184 L 307 184 L 371 557 C 207 624 126 746 126 923 C 126 991 137 1060 159 1131 C 181 1202 214 1264 260 1316 C 305 1368 361 1408 427 1435 C 493 1461 569 1475 655 1475 L 1235 1475 L 1200 1282 L 1055 1282 L 862 184 L 1008 184 L 975 0 L 614 0 L 707 528 L 573 528 L 481 0 L 123 0 L 156 184 Z M 737 705 L 840 1286 L 659 1286 C 604 1286 558 1278 520 1263 C 482 1247 451 1223 426 1191 C 401 1159 382 1118 370 1068 C 357 1018 351 971 351 929 C 351 779 447 705 639 705 L 737 705 Z" unicode="¶" />
<glyph horiz-adv-x="467" d="M 125 872 L 385 872 L 336 582 L 74 582 L 125 872 Z" unicode="·" />
<glyph horiz-adv-x="979" d="M 307 -446 C 216 -446 137 -426 70 -387 L 152 -268 C 202 -298 253 -313 305 -313 C 344 -313 373 -304 391 -288 C 409 -272 419 -250 419 -224 C 419 -180 385 -159 319 -159 L 287 -160 L 236 -123 L 287 14 L 422 14 L 389 -82 L 423 -79 C 466 -79 501 -91 528 -115 C 555 -139 569 -173 569 -216 C 569 -284 545 -340 497 -382 C 449 -424 385 -446 307 -446 Z" unicode="¸" />
<glyph horiz-adv-x="666" d="M 113 680 L 252 680 L 379 1391 C 336 1374 284 1366 223 1366 L 254 1530 C 354 1530 430 1541 481 1565 L 590 1565 L 432 680 L 561 680 L 535 535 L 88 535 L 113 680 Z" unicode="¹" />
<glyph horiz-adv-x="989" d="M 485 526 C 378 526 295 558 237 623 C 178 687 149 780 149 900 C 149 971 159 1045 179 1122 C 199 1198 229 1265 269 1321 C 308 1377 355 1419 410 1449 C 464 1478 525 1493 592 1493 C 700 1493 783 1460 843 1395 C 902 1330 932 1237 932 1115 C 932 1011 913 912 876 817 C 838 722 786 650 719 600 C 651 550 573 526 485 526 Z M 496 694 C 546 694 588 711 624 746 C 660 780 688 833 709 904 C 730 974 741 1045 741 1115 C 740 1178 726 1227 700 1262 C 673 1297 634 1315 584 1315 C 534 1315 491 1297 455 1261 C 419 1225 390 1174 370 1107 C 349 1039 339 971 339 903 C 339 835 352 783 379 747 C 405 711 444 694 496 694 Z M 90 414 L 782 414 L 752 246 L 59 246 L 90 414 Z" unicode="º" />
<glyph horiz-adv-x="1202" d="M 240 0 L 47 0 L 381 573 L 252 1141 L 442 1141 L 592 569 L 240 0 Z M 680 0 L 485 0 L 819 573 L 690 1141 L 881 1141 L 1032 569 L 680 0 Z" unicode="»" />
<glyph horiz-adv-x="1841" d="M 57 596 L 197 596 L 324 1307 C 281 1290 229 1282 168 1282 L 199 1446 C 299 1446 375 1457 426 1481 L 535 1481 L 377 596 L 506 596 L 479 451 L 33 451 L 57 596 Z M 1270 1475 L 1466 1475 L 520 0 L 319 0 L 1270 1475 Z M 1249 139 L 1372 139 L 1393 258 L 987 258 L 1010 395 L 1483 1030 L 1665 1030 L 1196 401 L 1419 401 L 1493 612 L 1622 612 L 1585 401 L 1722 401 L 1698 258 L 1561 258 L 1540 139 L 1653 139 L 1628 0 L 1225 0 L 1249 139 Z" unicode="¼" />
<glyph horiz-adv-x="1925" d="M 1642 772 C 1642 807 1630 834 1608 854 C 1586 873 1556 883 1520 883 C 1448 883 1389 842 1343 760 L 1194 827 C 1231 899 1280 954 1342 990 C 1404 1026 1472 1044 1546 1044 C 1632 1044 1700 1022 1750 979 C 1800 936 1825 877 1826 801 C 1826 769 1821 737 1812 706 C 1802 674 1788 643 1769 611 C 1749 579 1723 545 1689 507 C 1655 469 1527 344 1305 131 L 1573 131 L 1602 291 L 1753 291 L 1704 0 L 1071 0 L 1098 141 C 1338 369 1477 502 1515 540 C 1552 578 1579 609 1596 633 C 1612 657 1624 683 1631 709 C 1637 735 1641 756 1642 772 Z M 57 596 L 197 596 L 324 1307 C 281 1290 229 1282 168 1282 L 199 1446 C 299 1446 375 1457 426 1481 L 535 1481 L 377 596 L 506 596 L 479 451 L 33 451 L 57 596 Z M 1270 1475 L 1466 1475 L 520 0 L 319 0 L 1270 1475 Z" unicode="½" />
<glyph horiz-adv-x="1970" d="M 348 434 C 166 434 52 502 6 639 L 166 696 C 182 659 204 632 233 616 C 261 600 300 592 348 592 C 385 592 418 601 447 619 C 475 637 496 663 510 699 C 524 734 531 769 531 805 C 531 851 513 884 478 904 C 443 924 385 934 303 934 L 328 1069 C 394 1069 445 1074 479 1086 C 513 1097 539 1116 555 1142 C 571 1168 580 1197 580 1230 C 580 1256 571 1280 555 1301 C 538 1322 505 1333 455 1333 C 386 1333 329 1311 283 1268 L 166 1372 C 244 1452 347 1493 475 1493 C 564 1493 634 1473 686 1435 C 738 1396 764 1343 764 1275 C 764 1214 747 1160 714 1114 C 681 1067 631 1033 565 1012 C 662 983 711 913 711 803 C 711 732 695 668 664 612 C 633 555 590 511 535 480 C 479 449 417 434 348 434 Z M 1376 139 L 1501 139 L 1522 258 L 1116 258 L 1139 395 L 1612 1030 L 1794 1030 L 1325 401 L 1548 401 L 1622 612 L 1751 612 L 1712 401 L 1851 401 L 1827 258 L 1688 258 L 1667 139 L 1782 139 L 1757 0 L 1352 0 L 1376 139 Z M 1397 1475 L 1595 1475 L 647 0 L 449 0 L 1397 1475 Z" unicode="¾" />
<glyph horiz-adv-x="1122" d="M 453 -23 C 327 -23 229 5 158 62 C 87 119 52 200 52 305 C 52 356 60 406 76 456 C 92 505 118 551 154 594 C 189 637 249 689 334 750 C 416 810 472 863 500 910 C 528 956 543 1015 547 1087 L 766 1087 C 758 991 735 909 695 843 C 655 777 583 706 479 631 C 421 587 382 556 364 537 C 345 517 329 497 317 476 C 305 455 296 433 290 410 C 284 387 281 365 281 343 C 281 291 298 252 332 225 C 366 197 415 184 477 184 C 535 185 588 201 636 231 C 684 261 724 302 758 354 L 934 242 C 881 157 812 92 728 46 C 644 0 552 -23 453 -23 Z M 602 1518 L 862 1518 L 815 1255 L 555 1255 L 602 1518 Z" unicode="¿" />
<glyph horiz-adv-x="1374" d="M -51 186 L 53 186 L 698 1528 L 944 1528 L 1124 186 L 1227 186 L 1194 0 L 680 0 L 713 182 L 895 182 L 866 426 L 383 426 L 268 182 L 430 182 L 399 0 L -86 0 L -51 186 Z M 846 602 L 772 1245 L 467 602 L 846 602 Z M 590 1745 L 678 1919 L 1116 1730 L 1049 1597 L 590 1745 Z" unicode="À" />
<glyph horiz-adv-x="1374" d="M -51 186 L 53 186 L 698 1528 L 944 1528 L 1124 186 L 1227 186 L 1194 0 L 680 0 L 713 182 L 895 182 L 866 426 L 383 426 L 268 182 L 430 182 L 399 0 L -86 0 L -51 186 Z M 846 602 L 772 1245 L 467 602 L 846 602 Z M 604 1743 L 1108 1931 L 1132 1745 L 627 1597 L 604 1743 Z" unicode="Á" />
<glyph horiz-adv-x="1374" d="M -51 186 L 53 186 L 698 1528 L 944 1528 L 1124 186 L 1227 186 L 1194 0 L 680 0 L 713 182 L 895 182 L 866 426 L 383 426 L 268 182 L 430 182 L 399 0 L -86 0 L -51 186 Z M 846 602 L 772 1245 L 467 602 L 846 602 Z M 516 1728 L 842 1908 L 936 1908 L 1196 1728 L 1112 1603 L 860 1718 L 559 1603 L 516 1728 Z" unicode="Â" />
<glyph horiz-adv-x="1374" d="M -51 186 L 53 186 L 698 1528 L 944 1528 L 1124 186 L 1227 186 L 1194 0 L 680 0 L 713 182 L 895 182 L 866 426 L 383 426 L 268 182 L 430 182 L 399 0 L -86 0 L -51 186 Z M 846 602 L 772 1245 L 467 602 L 846 602 Z M 483 1708 C 525 1770 568 1816 613 1846 C 658 1875 701 1890 741 1890 C 767 1890 792 1885 814 1876 C 836 1867 856 1857 875 1847 C 893 1836 911 1826 928 1817 C 944 1808 961 1804 977 1804 C 1018 1804 1063 1835 1112 1898 L 1243 1806 C 1199 1742 1154 1695 1108 1667 C 1062 1638 1018 1624 977 1624 C 953 1624 930 1628 910 1637 C 889 1645 869 1655 850 1666 C 831 1676 813 1686 796 1695 C 778 1703 761 1708 745 1708 C 701 1708 657 1676 614 1614 L 483 1708 Z" unicode="Ã" />
<glyph horiz-adv-x="1374" d="M -51 186 L 53 186 L 698 1528 L 944 1528 L 1124 186 L 1227 186 L 1194 0 L 680 0 L 713 182 L 895 182 L 866 426 L 383 426 L 268 182 L 430 182 L 399 0 L -86 0 L -51 186 Z M 846 602 L 772 1245 L 467 602 L 846 602 Z M 598 1851 L 797 1851 L 758 1618 L 557 1618 L 598 1851 Z M 958 1851 L 1159 1851 L 1118 1618 L 917 1618 L 958 1851 Z" unicode="Ä" />
<glyph horiz-adv-x="1374" d="M -51 186 L 53 186 L 698 1528 L 944 1528 L 1124 186 L 1227 186 L 1194 0 L 680 0 L 713 182 L 895 182 L 866 426 L 383 426 L 268 182 L 430 182 L 399 0 L -86 0 L -51 186 Z M 846 602 L 772 1245 L 467 602 L 846 602 Z M 821 1409 C 753 1409 700 1428 662 1466 C 624 1504 605 1557 605 1625 C 605 1709 630 1780 680 1837 C 730 1894 793 1923 870 1923 C 934 1923 985 1904 1023 1866 C 1061 1828 1080 1775 1080 1707 C 1080 1625 1055 1554 1006 1496 C 956 1438 895 1409 821 1409 Z M 827 1530 C 864 1530 894 1545 918 1577 C 941 1608 953 1647 953 1695 C 953 1730 944 1757 928 1775 C 912 1793 889 1802 860 1802 C 822 1802 791 1785 768 1752 C 744 1719 733 1679 733 1632 C 733 1564 764 1530 827 1530 Z" unicode="Å" />
<glyph horiz-adv-x="1862" d="M -55 186 L 57 186 L 784 1327 L 645 1327 L 680 1518 L 1896 1518 L 1812 1042 L 1604 1042 L 1653 1331 L 1237 1331 L 1153 864 L 1503 864 L 1470 676 L 1120 676 L 1034 184 L 1462 184 L 1520 508 L 1729 508 L 1638 0 L 614 0 L 647 184 L 809 184 L 856 453 L 449 453 L 279 182 L 422 182 L 389 0 L -88 0 L -55 186 Z M 885 623 L 1010 1325 L 561 623 L 885 623 Z" unicode="Æ" />
<glyph horiz-adv-x="1253" d="M 549 -20 C 389 -20 266 30 179 130 C 92 230 49 372 49 558 C 49 675 65 795 97 918 C 129 1041 177 1150 239 1244 C 301 1338 374 1411 458 1463 C 542 1514 631 1540 725 1540 C 815 1540 889 1523 945 1491 C 1001 1458 1038 1416 1057 1364 L 1083 1518 L 1272 1518 L 1186 1042 L 987 1042 L 987 1051 C 987 1146 966 1216 926 1260 C 885 1304 816 1327 719 1327 C 656 1327 598 1308 545 1270 C 491 1232 445 1177 406 1103 C 366 1029 336 941 314 841 C 292 740 282 648 282 565 C 282 440 307 346 358 282 C 409 218 483 186 580 186 C 728 186 844 287 928 489 L 1124 430 C 1070 288 994 177 894 98 C 794 19 679 -20 549 -20 Z M 442 -446 C 351 -446 272 -426 205 -387 L 287 -268 C 337 -298 388 -313 440 -313 C 479 -313 508 -304 526 -288 C 544 -272 554 -250 554 -224 C 554 -180 520 -159 454 -159 L 422 -160 L 371 -123 L 422 14 L 557 14 L 524 -82 L 558 -79 C 601 -79 636 -91 663 -115 C 690 -139 704 -173 704 -216 C 704 -284 680 -340 632 -382 C 584 -424 520 -446 442 -446 Z" unicode="Ç" />
<glyph horiz-adv-x="1155" d="M -51 186 L 100 186 L 301 1327 L 150 1327 L 184 1518 L 1192 1518 L 1108 1042 L 897 1042 L 950 1333 L 530 1333 L 449 864 L 793 864 L 758 676 L 416 676 L 330 182 L 758 182 L 815 508 L 1024 508 L 934 0 L -86 0 L -51 186 Z M 479 1745 L 567 1919 L 1005 1730 L 938 1597 L 479 1745 Z" unicode="È" />
<glyph horiz-adv-x="1155" d="M 493 1743 L 997 1931 L 1021 1745 L 516 1597 L 493 1743 Z M -51 186 L 100 186 L 301 1327 L 150 1327 L 184 1518 L 1192 1518 L 1108 1042 L 897 1042 L 950 1333 L 530 1333 L 449 864 L 793 864 L 758 676 L 416 676 L 330 182 L 758 182 L 815 508 L 1024 508 L 934 0 L -86 0 L -51 186 Z" unicode="É" />
<glyph horiz-adv-x="1155" d="M 420 1728 L 746 1908 L 840 1908 L 1100 1728 L 1016 1603 L 764 1718 L 463 1603 L 420 1728 Z M -51 186 L 100 186 L 301 1327 L 150 1327 L 184 1518 L 1192 1518 L 1108 1042 L 897 1042 L 950 1333 L 530 1333 L 449 864 L 793 864 L 758 676 L 416 676 L 330 182 L 758 182 L 815 508 L 1024 508 L 934 0 L -86 0 L -51 186 Z" unicode="Ê" />
<glyph horiz-adv-x="1155" d="M 502 1851 L 701 1851 L 662 1618 L 461 1618 L 502 1851 Z M 862 1851 L 1063 1851 L 1022 1618 L 821 1618 L 862 1851 Z M -51 186 L 100 186 L 301 1327 L 150 1327 L 184 1518 L 1192 1518 L 1108 1042 L 897 1042 L 950 1333 L 530 1333 L 449 864 L 793 864 L 758 676 L 416 676 L 330 182 L 758 182 L 815 508 L 1024 508 L 934 0 L -86 0 L -51 186 Z" unicode="Ë" />
<glyph horiz-adv-x="657" d="M -51 186 L 117 186 L 315 1327 L 150 1327 L 184 1518 L 745 1518 L 713 1327 L 543 1327 L 344 186 L 512 186 L 477 0 L -86 0 L -51 186 Z M 233 1745 L 321 1919 L 759 1730 L 692 1597 L 233 1745 Z" unicode="Ì" />
<glyph horiz-adv-x="657" d="M -51 186 L 117 186 L 315 1327 L 150 1327 L 184 1518 L 745 1518 L 713 1327 L 543 1327 L 344 186 L 512 186 L 477 0 L -86 0 L -51 186 Z M 247 1743 L 751 1931 L 775 1745 L 270 1597 L 247 1743 Z" unicode="Í" />
<glyph horiz-adv-x="657" d="M -51 186 L 117 186 L 315 1327 L 150 1327 L 184 1518 L 745 1518 L 713 1327 L 543 1327 L 344 186 L 512 186 L 477 0 L -86 0 L -51 186 Z M 159 1728 L 485 1908 L 579 1908 L 839 1728 L 755 1603 L 503 1718 L 202 1603 L 159 1728 Z" unicode="Î" />
<glyph horiz-adv-x="657" d="M -51 186 L 117 186 L 315 1327 L 150 1327 L 184 1518 L 745 1518 L 713 1327 L 543 1327 L 344 186 L 512 186 L 477 0 L -86 0 L -51 186 Z M 241 1851 L 440 1851 L 401 1618 L 200 1618 L 241 1851 Z M 601 1851 L 802 1851 L 761 1618 L 560 1618 L 601 1851 Z" unicode="Ï" />
<glyph horiz-adv-x="1290" d="M 92 874 L 221 874 L 301 1327 L 150 1327 L 184 1518 L 647 1518 C 842 1518 990 1470 1091 1374 C 1191 1278 1242 1136 1242 946 C 1242 832 1226 712 1194 588 C 1162 463 1115 356 1053 266 C 990 176 914 110 826 66 C 737 22 638 0 528 0 L -86 0 L -51 186 L 100 186 L 187 680 L 57 680 L 92 874 Z M 535 190 C 613 190 680 207 736 241 C 792 275 840 327 880 398 C 919 468 950 557 973 664 C 995 771 1007 866 1007 950 C 1007 1077 976 1171 915 1232 C 853 1292 760 1323 635 1323 L 528 1323 L 449 874 L 688 874 L 653 680 L 415 680 L 330 190 L 535 190 Z" unicode="Ð" />
<glyph horiz-adv-x="1425" d="M -51 186 L 100 186 L 301 1327 L 150 1327 L 184 1518 L 592 1518 L 965 418 L 1126 1327 L 975 1327 L 1010 1518 L 1511 1518 L 1479 1327 L 1335 1327 L 1102 0 L 889 0 L 483 1157 L 313 186 L 481 186 L 449 0 L -86 0 L -51 186 Z M 508 1708 C 550 1770 593 1816 638 1846 C 683 1875 726 1890 766 1890 C 792 1890 817 1885 839 1876 C 861 1867 881 1857 900 1847 C 918 1836 936 1826 953 1817 C 969 1808 986 1804 1002 1804 C 1043 1804 1088 1835 1137 1898 L 1268 1806 C 1224 1742 1179 1695 1133 1667 C 1087 1638 1043 1624 1002 1624 C 978 1624 955 1628 935 1637 C 914 1645 894 1655 875 1666 C 856 1676 838 1686 821 1695 C 803 1703 786 1708 770 1708 C 726 1708 682 1676 639 1614 L 508 1708 Z" unicode="Ñ" />
<glyph horiz-adv-x="1323" d="M 553 -20 C 397 -20 275 34 186 144 C 96 253 52 403 52 593 C 52 708 68 825 101 943 C 134 1061 183 1165 248 1257 C 313 1349 389 1419 477 1467 C 565 1515 658 1540 758 1540 C 918 1540 1044 1486 1136 1378 C 1227 1270 1273 1122 1273 932 C 1273 812 1256 693 1222 574 C 1188 454 1139 349 1074 259 C 1008 169 931 100 842 52 C 752 4 656 -20 553 -20 Z M 586 186 C 674 186 752 219 820 285 C 888 351 942 444 981 565 C 1019 685 1039 806 1039 926 C 1039 1054 1012 1153 960 1223 C 908 1292 834 1327 739 1327 C 650 1327 571 1294 503 1228 C 434 1162 380 1069 342 948 C 303 827 284 707 284 587 C 284 459 310 360 363 290 C 416 220 490 186 586 186 Z M 563 1745 L 651 1919 L 1089 1730 L 1022 1597 L 563 1745 Z" unicode="Ò" />
<glyph horiz-adv-x="1323" d="M 577 1743 L 1081 1931 L 1105 1745 L 600 1597 L 577 1743 Z M 553 -20 C 397 -20 275 34 186 144 C 96 253 52 403 52 593 C 52 708 68 825 101 943 C 134 1061 183 1165 248 1257 C 313 1349 389 1419 477 1467 C 565 1515 658 1540 758 1540 C 918 1540 1044 1486 1136 1378 C 1227 1270 1273 1122 1273 932 C 1273 812 1256 693 1222 574 C 1188 454 1139 349 1074 259 C 1008 169 931 100 842 52 C 752 4 656 -20 553 -20 Z M 586 186 C 674 186 752 219 820 285 C 888 351 942 444 981 565 C 1019 685 1039 806 1039 926 C 1039 1054 1012 1153 960 1223 C 908 1292 834 1327 739 1327 C 650 1327 571 1294 503 1228 C 434 1162 380 1069 342 948 C 303 827 284 707 284 587 C 284 459 310 360 363 290 C 416 220 490 186 586 186 Z" unicode="Ó" />
<glyph horiz-adv-x="1323" d="M 489 1728 L 815 1908 L 909 1908 L 1169 1728 L 1085 1603 L 833 1718 L 532 1603 L 489 1728 Z M 553 -20 C 397 -20 275 34 186 144 C 96 253 52 403 52 593 C 52 708 68 825 101 943 C 134 1061 183 1165 248 1257 C 313 1349 389 1419 477 1467 C 565 1515 658 1540 758 1540 C 918 1540 1044 1486 1136 1378 C 1227 1270 1273 1122 1273 932 C 1273 812 1256 693 1222 574 C 1188 454 1139 349 1074 259 C 1008 169 931 100 842 52 C 752 4 656 -20 553 -20 Z M 586 186 C 674 186 752 219 820 285 C 888 351 942 444 981 565 C 1019 685 1039 806 1039 926 C 1039 1054 1012 1153 960 1223 C 908 1292 834 1327 739 1327 C 650 1327 571 1294 503 1228 C 434 1162 380 1069 342 948 C 303 827 284 707 284 587 C 284 459 310 360 363 290 C 416 220 490 186 586 186 Z" unicode="Ô" />
<glyph horiz-adv-x="1323" d="M 553 -20 C 397 -20 275 34 186 144 C 96 253 52 403 52 593 C 52 708 68 825 101 943 C 134 1061 183 1165 248 1257 C 313 1349 389 1419 477 1467 C 565 1515 658 1540 758 1540 C 918 1540 1044 1486 1136 1378 C 1227 1270 1273 1122 1273 932 C 1273 812 1256 693 1222 574 C 1188 454 1139 349 1074 259 C 1008 169 931 100 842 52 C 752 4 656 -20 553 -20 Z M 586 186 C 674 186 752 219 820 285 C 888 351 942 444 981 565 C 1019 685 1039 806 1039 926 C 1039 1054 1012 1153 960 1223 C 908 1292 834 1327 739 1327 C 650 1327 571 1294 503 1228 C 434 1162 380 1069 342 948 C 303 827 284 707 284 587 C 284 459 310 360 363 290 C 416 220 490 186 586 186 Z M 456 1708 C 498 1770 541 1816 586 1846 C 631 1875 674 1890 714 1890 C 740 1890 765 1885 787 1876 C 809 1867 829 1857 848 1847 C 866 1836 884 1826 901 1817 C 917 1808 934 1804 950 1804 C 991 1804 1036 1835 1085 1898 L 1216 1806 C 1172 1742 1127 1695 1081 1667 C 1035 1638 991 1624 950 1624 C 926 1624 903 1628 883 1637 C 862 1645 842 1655 823 1666 C 804 1676 786 1686 769 1695 C 751 1703 734 1708 718 1708 C 674 1708 630 1676 587 1614 L 456 1708 Z" unicode="Õ" />
<glyph horiz-adv-x="1323" d="M 571 1851 L 770 1851 L 731 1618 L 530 1618 L 571 1851 Z M 931 1851 L 1132 1851 L 1091 1618 L 890 1618 L 931 1851 Z M 553 -20 C 397 -20 275 34 186 144 C 96 253 52 403 52 593 C 52 708 68 825 101 943 C 134 1061 183 1165 248 1257 C 313 1349 389 1419 477 1467 C 565 1515 658 1540 758 1540 C 918 1540 1044 1486 1136 1378 C 1227 1270 1273 1122 1273 932 C 1273 812 1256 693 1222 574 C 1188 454 1139 349 1074 259 C 1008 169 931 100 842 52 C 752 4 656 -20 553 -20 Z M 586 186 C 674 186 752 219 820 285 C 888 351 942 444 981 565 C 1019 685 1039 806 1039 926 C 1039 1054 1012 1153 960 1223 C 908 1292 834 1327 739 1327 C 650 1327 571 1294 503 1228 C 434 1162 380 1069 342 948 C 303 827 284 707 284 587 C 284 459 310 360 363 290 C 416 220 490 186 586 186 Z" unicode="Ö" />
<glyph horiz-adv-x="1188" d="M 219 475 L 465 723 L 219 969 L 348 1100 L 594 852 L 840 1098 L 969 967 L 721 721 L 969 477 L 840 346 L 594 592 L 348 346 L 219 475 Z" unicode="×" />
<glyph horiz-adv-x="1323" d="M 553 -20 C 470 -20 395 -3 327 30 L 246 -106 L 43 -106 L 191 137 C 145 191 111 256 87 334 C 63 412 51 498 51 592 C 51 706 67 823 101 941 C 134 1059 183 1165 248 1257 C 313 1349 390 1419 478 1467 C 566 1515 659 1540 758 1540 C 841 1540 918 1523 990 1491 L 1071 1626 L 1276 1626 L 1129 1387 C 1225 1277 1274 1126 1274 932 C 1274 814 1257 695 1223 576 C 1189 456 1139 351 1074 260 C 1008 169 931 100 842 52 C 752 4 656 -20 553 -20 Z M 586 178 C 651 178 712 197 770 236 C 828 274 878 330 920 403 C 962 476 993 562 1015 660 C 1037 758 1048 850 1048 935 C 1048 1035 1031 1118 998 1184 L 427 218 C 471 191 524 178 586 178 Z M 277 580 C 277 482 292 401 323 335 L 889 1299 C 843 1323 793 1335 739 1335 C 673 1335 612 1316 555 1278 C 498 1240 449 1184 407 1112 C 365 1039 333 954 311 856 C 288 758 277 666 277 580 Z" unicode="Ø" />
<glyph horiz-adv-x="1405" d="M 623 -20 C 462 -20 340 13 257 80 C 174 147 133 248 133 383 C 133 431 137 481 147 535 L 287 1327 L 150 1327 L 184 1518 L 743 1518 L 711 1331 L 516 1331 L 375 522 C 367 480 363 441 363 406 C 363 329 385 272 430 236 C 475 200 543 182 635 182 C 722 182 792 209 844 263 C 896 317 932 403 954 522 L 1096 1331 L 909 1331 L 942 1518 L 1491 1518 L 1458 1327 L 1319 1327 L 1171 485 C 1143 323 1083 199 989 111 C 895 23 773 -20 623 -20 Z M 604 1745 L 692 1919 L 1130 1730 L 1063 1597 L 604 1745 Z" unicode="Ù" />
<glyph horiz-adv-x="1405" d="M 618 1743 L 1122 1931 L 1146 1745 L 641 1597 L 618 1743 Z M 623 -20 C 462 -20 340 13 257 80 C 174 147 133 248 133 383 C 133 431 137 481 147 535 L 287 1327 L 150 1327 L 184 1518 L 743 1518 L 711 1331 L 516 1331 L 375 522 C 367 480 363 441 363 406 C 363 329 385 272 430 236 C 475 200 543 182 635 182 C 722 182 792 209 844 263 C 896 317 932 403 954 522 L 1096 1331 L 909 1331 L 942 1518 L 1491 1518 L 1458 1327 L 1319 1327 L 1171 485 C 1143 323 1083 199 989 111 C 895 23 773 -20 623 -20 Z" unicode="Ú" />
<glyph horiz-adv-x="1405" d="M 530 1728 L 856 1908 L 950 1908 L 1210 1728 L 1126 1603 L 874 1718 L 573 1603 L 530 1728 Z M 623 -20 C 462 -20 340 13 257 80 C 174 147 133 248 133 383 C 133 431 137 481 147 535 L 287 1327 L 150 1327 L 184 1518 L 743 1518 L 711 1331 L 516 1331 L 375 522 C 367 480 363 441 363 406 C 363 329 385 272 430 236 C 475 200 543 182 635 182 C 722 182 792 209 844 263 C 896 317 932 403 954 522 L 1096 1331 L 909 1331 L 942 1518 L 1491 1518 L 1458 1327 L 1319 1327 L 1171 485 C 1143 323 1083 199 989 111 C 895 23 773 -20 623 -20 Z" unicode="Û" />
<glyph horiz-adv-x="1405" d="M 612 1851 L 811 1851 L 772 1618 L 571 1618 L 612 1851 Z M 972 1851 L 1173 1851 L 1132 1618 L 931 1618 L 972 1851 Z M 623 -20 C 462 -20 340 13 257 80 C 174 147 133 248 133 383 C 133 431 137 481 147 535 L 287 1327 L 150 1327 L 184 1518 L 743 1518 L 711 1331 L 516 1331 L 375 522 C 367 480 363 441 363 406 C 363 329 385 272 430 236 C 475 200 543 182 635 182 C 722 182 792 209 844 263 C 896 317 932 403 954 522 L 1096 1331 L 909 1331 L 942 1518 L 1491 1518 L 1458 1327 L 1319 1327 L 1171 485 C 1143 323 1083 199 989 111 C 895 23 773 -20 623 -20 Z" unicode="Ü" />
<glyph horiz-adv-x="1315" d="M 266 184 L 444 184 L 510 557 L 256 1327 L 150 1327 L 184 1518 L 690 1518 L 657 1331 L 487 1331 L 662 764 L 1032 1331 L 868 1331 L 903 1518 L 1403 1518 L 1368 1327 L 1260 1327 L 739 555 L 674 184 L 850 184 L 817 0 L 233 0 L 266 184 Z M 573 1743 L 1077 1931 L 1101 1745 L 596 1597 L 573 1743 Z" unicode="Ý" />
<glyph horiz-adv-x="1217" d="M -51 186 L 100 186 L 301 1327 L 150 1327 L 184 1518 L 565 1518 L 528 1319 L 702 1319 C 858 1319 976 1286 1058 1221 C 1140 1156 1181 1061 1181 937 C 1181 898 1177 857 1169 813 C 1119 530 952 389 666 389 L 365 389 L 330 186 L 514 186 L 481 0 L -86 0 L -51 186 Z M 659 563 C 711 563 755 570 790 585 C 824 599 853 622 876 654 C 899 686 916 726 928 775 C 940 823 946 869 947 913 C 947 987 925 1042 881 1076 C 837 1110 769 1128 676 1128 L 494 1128 L 395 563 L 659 563 Z" unicode="Þ" />
<glyph horiz-adv-x="1198" d="M 621 -8 C 533 -8 466 -2 418 10 L 481 205 C 526 195 568 190 606 190 C 656 190 701 205 741 236 C 781 266 811 309 833 365 C 854 420 865 478 866 540 C 866 602 847 653 811 694 C 774 735 701 756 592 758 L 625 948 C 686 949 739 961 784 984 C 829 1006 864 1039 888 1083 C 912 1127 924 1176 924 1230 C 924 1340 862 1395 739 1395 C 681 1395 635 1378 600 1346 C 565 1314 542 1271 532 1217 L 319 0 L -86 0 L -53 184 L 133 184 L 266 950 L 82 950 L 117 1141 L 301 1141 L 319 1241 C 338 1350 386 1435 464 1496 C 542 1556 640 1587 760 1587 C 882 1587 978 1559 1048 1503 C 1117 1447 1152 1371 1152 1275 C 1152 1217 1141 1160 1119 1103 C 1097 1046 1065 997 1023 957 C 980 916 927 884 864 862 C 934 844 990 805 1030 746 C 1070 686 1090 616 1090 534 C 1090 472 1079 406 1058 337 C 1037 267 1005 206 963 152 C 920 98 869 58 811 32 C 752 5 689 -8 621 -8 Z" unicode="ß" />
<glyph horiz-adv-x="1040" d="M 260 -14 C 169 -14 99 10 50 60 C 0 110 -24 181 -24 275 C -24 363 -6 441 28 509 C 62 577 113 629 180 665 C 247 701 331 719 432 719 C 516 719 589 712 653 700 C 664 764 670 810 670 838 C 670 881 656 912 629 932 C 601 951 559 961 502 961 C 460 961 417 954 373 942 C 329 929 292 913 262 895 L 174 1071 C 215 1098 270 1120 338 1137 C 406 1154 474 1163 541 1163 C 659 1163 747 1140 804 1095 C 860 1049 889 977 889 879 C 889 833 884 783 874 729 L 778 184 L 915 184 L 885 10 L 571 -8 L 573 162 C 494 44 390 -14 260 -14 Z M 336 172 C 407 172 466 196 513 244 C 560 292 592 364 610 461 L 627 541 C 597 548 570 552 546 554 C 522 556 491 557 455 557 C 406 557 366 551 335 541 C 303 530 277 513 256 490 C 234 467 219 440 210 408 C 201 376 197 343 197 311 C 197 218 243 172 336 172 Z M 340 1391 L 428 1565 L 866 1376 L 799 1243 L 340 1391 Z" unicode="à" />
<glyph horiz-adv-x="1040" d="M 260 -14 C 169 -14 99 10 50 60 C 0 110 -24 181 -24 275 C -24 363 -6 441 28 509 C 62 577 113 629 180 665 C 247 701 331 719 432 719 C 516 719 589 712 653 700 C 664 764 670 810 670 838 C 670 881 656 912 629 932 C 601 951 559 961 502 961 C 460 961 417 954 373 942 C 329 929 292 913 262 895 L 174 1071 C 215 1098 270 1120 338 1137 C 406 1154 474 1163 541 1163 C 659 1163 747 1140 804 1095 C 860 1049 889 977 889 879 C 889 833 884 783 874 729 L 778 184 L 915 184 L 885 10 L 571 -8 L 573 162 C 494 44 390 -14 260 -14 Z M 336 172 C 407 172 466 196 513 244 C 560 292 592 364 610 461 L 627 541 C 597 548 570 552 546 554 C 522 556 491 557 455 557 C 406 557 366 551 335 541 C 303 530 277 513 256 490 C 234 467 219 440 210 408 C 201 376 197 343 197 311 C 197 218 243 172 336 172 Z M 375 1389 L 879 1577 L 903 1391 L 398 1243 L 375 1389 Z" unicode="á" />
<glyph horiz-adv-x="1040" d="M 260 -14 C 169 -14 99 10 50 60 C 0 110 -24 181 -24 275 C -24 363 -6 441 28 509 C 62 577 113 629 180 665 C 247 701 331 719 432 719 C 516 719 589 712 653 700 C 664 764 670 810 670 838 C 670 881 656 912 629 932 C 601 951 559 961 502 961 C 460 961 417 954 373 942 C 329 929 292 913 262 895 L 174 1071 C 215 1098 270 1120 338 1137 C 406 1154 474 1163 541 1163 C 659 1163 747 1140 804 1095 C 860 1049 889 977 889 879 C 889 833 884 783 874 729 L 778 184 L 915 184 L 885 10 L 571 -8 L 573 162 C 494 44 390 -14 260 -14 Z M 336 172 C 407 172 466 196 513 244 C 560 292 592 364 610 461 L 627 541 C 597 548 570 552 546 554 C 522 556 491 557 455 557 C 406 557 366 551 335 541 C 303 530 277 513 256 490 C 234 467 219 440 210 408 C 201 376 197 343 197 311 C 197 218 243 172 336 172 Z M 266 1374 L 592 1554 L 686 1554 L 946 1374 L 862 1249 L 610 1364 L 309 1249 L 266 1374 Z" unicode="â" />
<glyph horiz-adv-x="1040" d="M 260 -14 C 169 -14 99 10 50 60 C 0 110 -24 181 -24 275 C -24 363 -6 441 28 509 C 62 577 113 629 180 665 C 247 701 331 719 432 719 C 516 719 589 712 653 700 C 664 764 670 810 670 838 C 670 881 656 912 629 932 C 601 951 559 961 502 961 C 460 961 417 954 373 942 C 329 929 292 913 262 895 L 174 1071 C 215 1098 270 1120 338 1137 C 406 1154 474 1163 541 1163 C 659 1163 747 1140 804 1095 C 860 1049 889 977 889 879 C 889 833 884 783 874 729 L 778 184 L 915 184 L 885 10 L 571 -8 L 573 162 C 494 44 390 -14 260 -14 Z M 336 172 C 407 172 466 196 513 244 C 560 292 592 364 610 461 L 627 541 C 597 548 570 552 546 554 C 522 556 491 557 455 557 C 406 557 366 551 335 541 C 303 530 277 513 256 490 C 234 467 219 440 210 408 C 201 376 197 343 197 311 C 197 218 243 172 336 172 Z M 233 1354 C 275 1416 318 1462 363 1492 C 408 1521 451 1536 491 1536 C 517 1536 542 1531 564 1522 C 586 1513 606 1503 625 1493 C 643 1482 661 1472 678 1463 C 694 1454 711 1450 727 1450 C 768 1450 813 1481 862 1544 L 993 1452 C 949 1388 904 1341 858 1313 C 812 1284 768 1270 727 1270 C 703 1270 680 1274 660 1283 C 639 1291 619 1301 600 1312 C 581 1322 563 1332 546 1341 C 528 1349 511 1354 495 1354 C 451 1354 407 1322 364 1260 L 233 1354 Z" unicode="ã" />
<glyph horiz-adv-x="1040" d="M 260 -14 C 169 -14 99 10 50 60 C 0 110 -24 181 -24 275 C -24 363 -6 441 28 509 C 62 577 113 629 180 665 C 247 701 331 719 432 719 C 516 719 589 712 653 700 C 664 764 670 810 670 838 C 670 881 656 912 629 932 C 601 951 559 961 502 961 C 460 961 417 954 373 942 C 329 929 292 913 262 895 L 174 1071 C 215 1098 270 1120 338 1137 C 406 1154 474 1163 541 1163 C 659 1163 747 1140 804 1095 C 860 1049 889 977 889 879 C 889 833 884 783 874 729 L 778 184 L 915 184 L 885 10 L 571 -8 L 573 162 C 494 44 390 -14 260 -14 Z M 336 172 C 407 172 466 196 513 244 C 560 292 592 364 610 461 L 627 541 C 597 548 570 552 546 554 C 522 556 491 557 455 557 C 406 557 366 551 335 541 C 303 530 277 513 256 490 C 234 467 219 440 210 408 C 201 376 197 343 197 311 C 197 218 243 172 336 172 Z M 348 1497 L 547 1497 L 508 1264 L 307 1264 L 348 1497 Z M 708 1497 L 909 1497 L 868 1264 L 667 1264 L 708 1497 Z" unicode="ä" />
<glyph horiz-adv-x="1040" d="M 260 -14 C 169 -14 99 10 50 60 C 0 110 -24 181 -24 275 C -24 363 -6 441 28 509 C 62 577 113 629 180 665 C 247 701 331 719 432 719 C 516 719 589 712 653 700 C 664 764 670 810 670 838 C 670 881 656 912 629 932 C 601 951 559 961 502 961 C 460 961 417 954 373 942 C 329 929 292 913 262 895 L 174 1071 C 215 1098 270 1120 338 1137 C 406 1154 474 1163 541 1163 C 659 1163 747 1140 804 1095 C 860 1049 889 977 889 879 C 889 833 884 783 874 729 L 778 184 L 915 184 L 885 10 L 571 -8 L 573 162 C 494 44 390 -14 260 -14 Z M 336 172 C 407 172 466 196 513 244 C 560 292 592 364 610 461 L 627 541 C 597 548 570 552 546 554 C 522 556 491 557 455 557 C 406 557 366 551 335 541 C 303 530 277 513 256 490 C 234 467 219 440 210 408 C 201 376 197 343 197 311 C 197 218 243 172 336 172 Z M 606 1241 C 538 1241 485 1260 447 1298 C 409 1336 390 1389 390 1457 C 390 1541 415 1612 465 1669 C 515 1726 578 1755 655 1755 C 719 1755 770 1736 808 1698 C 846 1660 865 1607 865 1539 C 865 1457 840 1386 791 1328 C 741 1270 680 1241 606 1241 Z M 612 1362 C 649 1362 679 1377 703 1409 C 726 1440 738 1479 738 1527 C 738 1562 729 1589 713 1607 C 697 1625 674 1634 645 1634 C 607 1634 576 1617 553 1584 C 529 1551 518 1511 518 1464 C 518 1396 549 1362 612 1362 Z" unicode="å" />
<glyph horiz-adv-x="1569" d="M 541 1163 C 689 1163 787 1122 833 1041 C 914 1122 1013 1163 1130 1163 C 1246 1163 1333 1134 1392 1076 C 1451 1018 1481 929 1481 807 C 1481 743 1467 640 1440 496 L 824 496 C 820 464 819 434 819 407 C 819 337 832 280 858 235 C 884 190 936 168 1012 168 C 1063 168 1109 179 1149 201 C 1189 223 1230 255 1270 295 L 1411 158 C 1357 101 1295 57 1223 26 C 1151 -4 1075 -20 993 -20 C 809 -20 693 54 646 203 C 596 125 540 69 480 36 C 420 2 346 -14 260 -14 C 169 -14 99 10 50 59 C 0 108 -24 179 -24 271 C -24 359 -6 438 27 507 C 61 576 112 629 180 665 C 247 701 331 719 432 719 C 516 719 589 712 653 700 C 664 764 670 810 670 838 C 670 881 656 912 629 932 C 601 951 559 961 502 961 C 458 961 415 954 373 942 C 330 929 294 913 264 895 L 174 1071 C 215 1098 270 1120 338 1137 C 406 1154 474 1163 541 1163 Z M 336 172 C 407 172 466 196 513 244 C 560 292 592 364 610 461 L 627 541 C 597 548 570 552 546 554 C 522 556 491 557 455 557 C 406 557 366 551 335 541 C 303 530 277 513 256 490 C 234 467 219 440 210 408 C 201 376 197 343 197 311 C 197 218 243 172 336 172 Z M 1114 975 C 1054 975 1001 949 957 897 C 912 845 878 772 855 676 L 1266 676 C 1273 716 1277 754 1277 788 C 1277 912 1222 975 1114 975 Z" unicode="æ" />
<glyph horiz-adv-x="1001" d="M 406 -16 C 280 -16 184 20 119 92 C 53 164 21 272 21 416 C 21 544 43 668 88 787 C 132 905 193 998 271 1064 C 349 1130 434 1163 528 1163 C 671 1163 755 1114 780 1016 L 803 1141 L 969 1141 L 897 739 L 725 739 C 719 824 702 883 674 915 C 646 947 602 963 541 963 C 479 963 427 939 383 891 C 339 843 305 773 281 679 C 257 585 245 497 245 417 C 245 257 310 178 440 178 C 490 178 535 195 573 230 C 611 265 647 321 682 397 L 866 330 C 818 215 755 129 677 71 C 599 13 508 -16 406 -16 Z M 319 -446 C 228 -446 149 -426 82 -387 L 164 -268 C 214 -298 265 -313 317 -313 C 356 -313 385 -304 403 -288 C 421 -272 431 -250 431 -224 C 431 -180 397 -159 331 -159 L 299 -160 L 248 -123 L 299 14 L 434 14 L 401 -82 L 435 -79 C 478 -79 513 -91 540 -115 C 567 -139 581 -173 581 -216 C 581 -284 557 -340 509 -382 C 461 -424 397 -446 319 -446 Z" unicode="ç" />
<glyph horiz-adv-x="987" d="M 235 496 C 231 464 230 436 230 410 C 230 339 243 281 269 236 C 295 190 347 168 423 168 C 475 168 521 179 561 201 C 601 223 641 255 681 295 L 824 158 C 768 100 705 56 633 26 C 561 -4 485 -20 405 -20 C 278 -20 181 16 115 88 C 48 160 15 268 15 412 C 15 542 37 668 82 790 C 126 911 189 1003 269 1067 C 349 1131 440 1163 544 1163 C 777 1163 894 1044 894 807 C 894 736 880 632 853 496 L 235 496 Z M 527 975 C 465 975 412 949 368 898 C 324 846 290 772 266 676 L 677 676 C 685 718 689 757 689 793 C 689 914 635 975 527 975 Z M 336 1391 L 424 1565 L 862 1376 L 795 1243 L 336 1391 Z" unicode="è" />
<glyph horiz-adv-x="987" d="M 350 1389 L 854 1577 L 878 1391 L 373 1243 L 350 1389 Z M 235 496 C 231 464 230 436 230 410 C 230 339 243 281 269 236 C 295 190 347 168 423 168 C 475 168 521 179 561 201 C 601 223 641 255 681 295 L 824 158 C 768 100 705 56 633 26 C 561 -4 485 -20 405 -20 C 278 -20 181 16 115 88 C 48 160 15 268 15 412 C 15 542 37 668 82 790 C 126 911 189 1003 269 1067 C 349 1131 440 1163 544 1163 C 777 1163 894 1044 894 807 C 894 736 880 632 853 496 L 235 496 Z M 527 975 C 465 975 412 949 368 898 C 324 846 290 772 266 676 L 677 676 C 685 718 689 757 689 793 C 689 914 635 975 527 975 Z" unicode="é" />
<glyph horiz-adv-x="987" d="M 262 1374 L 588 1554 L 682 1554 L 942 1374 L 858 1249 L 606 1364 L 305 1249 L 262 1374 Z M 235 496 C 231 464 230 436 230 410 C 230 339 243 281 269 236 C 295 190 347 168 423 168 C 475 168 521 179 561 201 C 601 223 641 255 681 295 L 824 158 C 768 100 705 56 633 26 C 561 -4 485 -20 405 -20 C 278 -20 181 16 115 88 C 48 160 15 268 15 412 C 15 542 37 668 82 790 C 126 911 189 1003 269 1067 C 349 1131 440 1163 544 1163 C 777 1163 894 1044 894 807 C 894 736 880 632 853 496 L 235 496 Z M 527 975 C 465 975 412 949 368 898 C 324 846 290 772 266 676 L 677 676 C 685 718 689 757 689 793 C 689 914 635 975 527 975 Z" unicode="ê" />
<glyph horiz-adv-x="987" d="M 344 1497 L 543 1497 L 504 1264 L 303 1264 L 344 1497 Z M 704 1497 L 905 1497 L 864 1264 L 663 1264 L 704 1497 Z M 235 496 C 231 464 230 436 230 410 C 230 339 243 281 269 236 C 295 190 347 168 423 168 C 475 168 521 179 561 201 C 601 223 641 255 681 295 L 824 158 C 768 100 705 56 633 26 C 561 -4 485 -20 405 -20 C 278 -20 181 16 115 88 C 48 160 15 268 15 412 C 15 542 37 668 82 790 C 126 911 189 1003 269 1067 C 349 1131 440 1163 544 1163 C 777 1163 894 1044 894 807 C 894 736 880 632 853 496 L 235 496 Z M 527 975 C 465 975 412 949 368 898 C 324 846 290 772 266 676 L 677 676 C 685 718 689 757 689 793 C 689 914 635 975 527 975 Z" unicode="ë" />
<glyph horiz-adv-x="610" d="M -53 184 L 102 184 L 238 950 L 82 950 L 115 1135 L 494 1153 L 324 184 L 485 184 L 453 0 L -86 0 L -53 184 Z M 143 1391 L 231 1565 L 669 1376 L 602 1243 L 143 1391 Z" unicode="ì" />
<glyph horiz-adv-x="610" d="M 163 1389 L 667 1577 L 691 1391 L 186 1243 L 163 1389 Z M -53 184 L 102 184 L 238 950 L 82 950 L 115 1135 L 494 1153 L 324 184 L 485 184 L 453 0 L -86 0 L -53 184 Z" unicode="í" />
<glyph horiz-adv-x="610" d="M 75 1374 L 401 1554 L 495 1554 L 755 1374 L 671 1249 L 419 1364 L 118 1249 L 75 1374 Z M -53 184 L 102 184 L 238 950 L 82 950 L 115 1135 L 494 1153 L 324 184 L 485 184 L 453 0 L -86 0 L -53 184 Z" unicode="î" />
<glyph horiz-adv-x="610" d="M 157 1497 L 356 1497 L 317 1264 L 116 1264 L 157 1497 Z M 517 1497 L 718 1497 L 677 1264 L 476 1264 L 517 1497 Z M -53 184 L 102 184 L 238 950 L 82 950 L 115 1135 L 494 1153 L 324 184 L 485 184 L 453 0 L -86 0 L -53 184 Z" unicode="ï" />
<glyph horiz-adv-x="1059" d="M 677 1380 C 659 1418 638 1457 614 1495 L 807 1606 C 843 1554 874 1498 900 1437 L 1106 1489 L 1075 1327 L 947 1294 C 975 1182 989 1064 989 940 C 988 741 966 570 922 426 C 878 282 814 172 730 95 C 645 18 546 -20 432 -20 C 298 -20 196 18 126 94 C 55 170 20 277 20 417 C 20 501 32 590 56 683 C 80 775 113 854 157 919 C 200 983 252 1033 314 1067 C 375 1101 444 1118 520 1118 C 586 1118 639 1106 679 1084 C 719 1062 750 1028 772 983 C 767 1074 753 1159 730 1239 L 528 1188 L 557 1350 L 677 1380 Z M 449 178 C 507 178 558 199 601 243 C 644 286 678 351 703 437 C 728 523 741 609 741 695 C 740 773 723 833 689 875 C 655 917 607 938 545 938 C 484 938 431 916 387 873 C 343 830 308 765 282 677 C 256 589 244 506 244 426 C 244 260 312 178 449 178 Z" unicode="ð" />
<glyph horiz-adv-x="1182" d="M -87 184 L 54 184 L 187 950 L 48 950 L 81 1135 L 392 1153 L 390 977 C 426 1039 472 1087 529 1119 C 586 1151 649 1167 718 1167 C 904 1167 997 1078 997 902 C 997 848 991 789 980 725 L 886 184 L 1025 184 L 990 0 L 496 0 L 529 184 L 664 184 L 759 713 C 767 759 771 796 771 826 C 771 872 758 906 733 928 C 707 950 667 961 611 961 C 542 961 487 936 445 887 C 403 838 373 762 355 659 L 273 184 L 406 184 L 374 0 L -120 0 L -87 184 Z M 325 1354 C 367 1416 410 1462 455 1492 C 500 1521 543 1536 583 1536 C 609 1536 634 1531 656 1522 C 678 1513 698 1503 717 1493 C 735 1482 753 1472 770 1463 C 786 1454 803 1450 819 1450 C 860 1450 905 1481 954 1544 L 1085 1452 C 1041 1388 996 1341 950 1313 C 904 1284 860 1270 819 1270 C 795 1270 772 1274 752 1283 C 731 1291 711 1301 692 1312 C 673 1322 655 1332 638 1341 C 620 1349 603 1354 587 1354 C 543 1354 499 1322 456 1260 L 325 1354 Z" unicode="ñ" />
<glyph horiz-adv-x="1055" d="M 436 -20 C 304 -20 202 18 130 95 C 58 172 22 284 22 430 C 22 521 35 615 61 711 C 87 807 123 889 170 956 C 216 1023 273 1075 339 1111 C 405 1147 479 1165 561 1165 C 691 1165 792 1126 863 1050 C 933 974 969 863 969 718 C 969 626 956 532 930 436 C 904 339 867 256 820 188 C 773 120 717 68 652 33 C 586 -2 514 -20 436 -20 Z M 442 176 C 502 176 554 198 598 243 C 642 287 677 355 703 445 C 728 535 741 624 743 711 C 743 877 677 961 547 961 C 486 961 433 938 389 894 C 344 849 309 782 283 692 C 257 602 245 513 245 425 C 245 343 261 281 294 239 C 327 197 376 176 442 176 Z M 369 1391 L 457 1565 L 895 1376 L 828 1243 L 369 1391 Z" unicode="ò" />
<glyph horiz-adv-x="1055" d="M 383 1389 L 887 1577 L 911 1391 L 406 1243 L 383 1389 Z M 436 -20 C 304 -20 202 18 130 95 C 58 172 22 284 22 430 C 22 521 35 615 61 711 C 87 807 123 889 170 956 C 216 1023 273 1075 339 1111 C 405 1147 479 1165 561 1165 C 691 1165 792 1126 863 1050 C 933 974 969 863 969 718 C 969 626 956 532 930 436 C 904 339 867 256 820 188 C 773 120 717 68 652 33 C 586 -2 514 -20 436 -20 Z M 442 176 C 502 176 554 198 598 243 C 642 287 677 355 703 445 C 728 535 741 624 743 711 C 743 877 677 961 547 961 C 486 961 433 938 389 894 C 344 849 309 782 283 692 C 257 602 245 513 245 425 C 245 343 261 281 294 239 C 327 197 376 176 442 176 Z" unicode="ó" />
<glyph horiz-adv-x="1055" d="M 295 1374 L 621 1554 L 715 1554 L 975 1374 L 891 1249 L 639 1364 L 338 1249 L 295 1374 Z M 436 -20 C 304 -20 202 18 130 95 C 58 172 22 284 22 430 C 22 521 35 615 61 711 C 87 807 123 889 170 956 C 216 1023 273 1075 339 1111 C 405 1147 479 1165 561 1165 C 691 1165 792 1126 863 1050 C 933 974 969 863 969 718 C 969 626 956 532 930 436 C 904 339 867 256 820 188 C 773 120 717 68 652 33 C 586 -2 514 -20 436 -20 Z M 442 176 C 502 176 554 198 598 243 C 642 287 677 355 703 445 C 728 535 741 624 743 711 C 743 877 677 961 547 961 C 486 961 433 938 389 894 C 344 849 309 782 283 692 C 257 602 245 513 245 425 C 245 343 261 281 294 239 C 327 197 376 176 442 176 Z" unicode="ô" />
<glyph horiz-adv-x="1055" d="M 436 -20 C 304 -20 202 18 130 95 C 58 172 22 284 22 430 C 22 521 35 615 61 711 C 87 807 123 889 170 956 C 216 1023 273 1075 339 1111 C 405 1147 479 1165 561 1165 C 691 1165 792 1126 863 1050 C 933 974 969 863 969 718 C 969 626 956 532 930 436 C 904 339 867 256 820 188 C 773 120 717 68 652 33 C 586 -2 514 -20 436 -20 Z M 442 176 C 502 176 554 198 598 243 C 642 287 677 355 703 445 C 728 535 741 624 743 711 C 743 877 677 961 547 961 C 486 961 433 938 389 894 C 344 849 309 782 283 692 C 257 602 245 513 245 425 C 245 343 261 281 294 239 C 327 197 376 176 442 176 Z M 262 1354 C 304 1416 347 1462 392 1492 C 437 1521 480 1536 520 1536 C 546 1536 571 1531 593 1522 C 615 1513 635 1503 654 1493 C 672 1482 690 1472 707 1463 C 723 1454 740 1450 756 1450 C 797 1450 842 1481 891 1544 L 1022 1452 C 978 1388 933 1341 887 1313 C 841 1284 797 1270 756 1270 C 732 1270 709 1274 689 1283 C 668 1291 648 1301 629 1312 C 610 1322 592 1332 575 1341 C 557 1349 540 1354 524 1354 C 480 1354 436 1322 393 1260 L 262 1354 Z" unicode="õ" />
<glyph horiz-adv-x="1055" d="M 377 1497 L 576 1497 L 537 1264 L 336 1264 L 377 1497 Z M 737 1497 L 938 1497 L 897 1264 L 696 1264 L 737 1497 Z M 436 -20 C 304 -20 202 18 130 95 C 58 172 22 284 22 430 C 22 521 35 615 61 711 C 87 807 123 889 170 956 C 216 1023 273 1075 339 1111 C 405 1147 479 1165 561 1165 C 691 1165 792 1126 863 1050 C 933 974 969 863 969 718 C 969 626 956 532 930 436 C 904 339 867 256 820 188 C 773 120 717 68 652 33 C 586 -2 514 -20 436 -20 Z M 442 176 C 502 176 554 198 598 243 C 642 287 677 355 703 445 C 728 535 741 624 743 711 C 743 877 677 961 547 961 C 486 961 433 938 389 894 C 344 849 309 782 283 692 C 257 602 245 513 245 425 C 245 343 261 281 294 239 C 327 197 376 176 442 176 Z" unicode="ö" />
<glyph horiz-adv-x="1188" d="M 477 465 L 713 465 L 713 242 L 477 242 L 477 465 Z M 164 825 L 1024 825 L 1024 621 L 164 621 L 164 825 Z M 477 1200 L 713 1200 L 713 977 L 477 977 L 477 1200 Z" unicode="÷" />
<glyph horiz-adv-x="1055" d="M 436 -20 C 364 -20 298 -7 239 17 L 164 -104 L -25 -104 L 116 111 C 53 189 22 295 22 431 C 22 519 34 611 60 708 C 86 805 122 887 169 955 C 215 1023 272 1075 338 1111 C 404 1147 479 1165 561 1165 C 631 1165 693 1153 747 1131 L 827 1255 L 1012 1255 L 871 1041 C 936 963 969 854 969 716 C 969 627 956 534 930 438 C 904 341 867 258 821 190 C 774 122 718 70 653 34 C 588 -2 516 -20 436 -20 Z M 442 168 C 505 168 559 191 605 239 C 651 286 686 356 712 450 C 738 543 751 632 751 718 C 751 764 745 804 734 840 L 335 192 C 363 176 398 168 442 168 Z M 235 420 C 235 376 240 338 251 304 L 644 948 C 616 960 584 967 549 967 C 485 967 429 943 383 897 C 337 850 301 781 275 689 C 249 597 235 507 235 420 Z" unicode="ø" />
<glyph horiz-adv-x="1165" d="M 375 -18 C 275 -18 201 4 155 49 C 108 94 85 163 85 257 C 85 299 90 354 102 424 L 197 950 L 72 950 L 104 1133 L 453 1155 L 326 428 C 317 380 313 340 313 310 C 313 264 325 230 351 210 C 376 190 416 180 471 180 C 539 180 593 201 632 245 C 671 288 701 366 721 479 L 803 950 L 633 950 L 666 1133 L 1061 1155 L 891 184 L 1040 184 L 1010 10 L 686 -8 L 688 158 C 614 40 510 -18 375 -18 Z M 404 1391 L 492 1565 L 930 1376 L 863 1243 L 404 1391 Z" unicode="ù" />
<glyph horiz-adv-x="1165" d="M 430 1389 L 934 1577 L 958 1391 L 453 1243 L 430 1389 Z M 375 -18 C 275 -18 201 4 155 49 C 108 94 85 163 85 257 C 85 299 90 354 102 424 L 197 950 L 72 950 L 104 1133 L 453 1155 L 326 428 C 317 380 313 340 313 310 C 313 264 325 230 351 210 C 376 190 416 180 471 180 C 539 180 593 201 632 245 C 671 288 701 366 721 479 L 803 950 L 633 950 L 666 1133 L 1061 1155 L 891 184 L 1040 184 L 1010 10 L 686 -8 L 688 158 C 614 40 510 -18 375 -18 Z" unicode="ú" />
<glyph horiz-adv-x="1165" d="M 330 1374 L 656 1554 L 750 1554 L 1010 1374 L 926 1249 L 674 1364 L 373 1249 L 330 1374 Z M 375 -18 C 275 -18 201 4 155 49 C 108 94 85 163 85 257 C 85 299 90 354 102 424 L 197 950 L 72 950 L 104 1133 L 453 1155 L 326 428 C 317 380 313 340 313 310 C 313 264 325 230 351 210 C 376 190 416 180 471 180 C 539 180 593 201 632 245 C 671 288 701 366 721 479 L 803 950 L 633 950 L 666 1133 L 1061 1155 L 891 184 L 1040 184 L 1010 10 L 686 -8 L 688 158 C 614 40 510 -18 375 -18 Z" unicode="û" />
<glyph horiz-adv-x="1165" d="M 403 1497 L 602 1497 L 563 1264 L 362 1264 L 403 1497 Z M 763 1497 L 964 1497 L 923 1264 L 722 1264 L 763 1497 Z M 375 -18 C 275 -18 201 4 155 49 C 108 94 85 163 85 257 C 85 299 90 354 102 424 L 197 950 L 72 950 L 104 1133 L 453 1155 L 326 428 C 317 380 313 340 313 310 C 313 264 325 230 351 210 C 376 190 416 180 471 180 C 539 180 593 201 632 245 C 671 288 701 366 721 479 L 803 950 L 633 950 L 666 1133 L 1061 1155 L 891 184 L 1040 184 L 1010 10 L 686 -8 L 688 158 C 614 40 510 -18 375 -18 Z" unicode="ü" />
<glyph horiz-adv-x="1083" d="M 127 -338 C 52 -338 -11 -327 -63 -307 L 4 -123 C 54 -141 99 -150 137 -150 C 173 -150 202 -142 224 -126 C 246 -110 271 -75 301 -20 L 302 -17 L 164 950 L 59 950 L 92 1141 L 555 1141 L 522 952 L 381 952 L 455 251 L 784 952 L 651 952 L 686 1141 L 1128 1141 L 1096 950 L 989 950 L 475 -82 C 423 -181 373 -248 323 -284 C 273 -320 207 -338 127 -338 Z M 397 1389 L 901 1577 L 925 1391 L 420 1243 L 397 1389 Z" unicode="ý" />
<glyph horiz-adv-x="1149" d="M -121 -145 L 18 -145 L 283 1370 L 145 1370 L 178 1556 L 541 1577 L 436 981 C 477 1041 525 1087 581 1119 C 636 1151 693 1167 752 1167 C 855 1167 934 1133 988 1067 C 1042 1001 1069 905 1069 780 C 1069 648 1048 515 1008 382 C 968 249 913 150 844 84 C 775 18 694 -14 602 -14 C 520 -14 454 0 404 30 C 353 60 316 108 293 174 L 238 -145 L 391 -145 L 358 -326 L -154 -326 L -121 -145 Z M 561 178 C 618 178 667 201 707 247 C 747 293 779 368 803 472 C 827 576 839 665 839 740 C 839 888 783 963 672 963 C 604 963 546 941 499 899 C 452 857 415 792 387 705 C 359 618 346 531 346 445 C 346 357 364 290 401 245 C 437 200 491 178 561 178 Z" unicode="þ" />
<glyph horiz-adv-x="1083" d="M 127 -338 C 52 -338 -11 -327 -63 -307 L 4 -123 C 54 -141 99 -150 137 -150 C 173 -150 202 -142 224 -126 C 246 -110 271 -75 301 -20 L 302 -17 L 164 950 L 59 950 L 92 1141 L 555 1141 L 522 952 L 381 952 L 455 251 L 784 952 L 651 952 L 686 1141 L 1128 1141 L 1096 950 L 989 950 L 475 -82 C 423 -181 373 -248 323 -284 C 273 -320 207 -338 127 -338 Z M 395 1497 L 594 1497 L 555 1264 L 354 1264 L 395 1497 Z M 755 1497 L 956 1497 L 915 1264 L 714 1264 L 755 1497 Z" unicode="ÿ" />
<glyph horiz-adv-x="1374" d="" unicode="Ā" />
<glyph horiz-adv-x="1040" d="" unicode="ā" />
<glyph horiz-adv-x="1374" d="" unicode="Ă" />
<glyph horiz-adv-x="1040" d="" unicode="ă" />
<glyph horiz-adv-x="1374" d="" unicode="Ą" />
<glyph horiz-adv-x="1040" d="" unicode="ą" />
<glyph horiz-adv-x="1253" d="" unicode="Ć" />
<glyph horiz-adv-x="1001" d="" unicode="ć" />
<glyph horiz-adv-x="1253" d="" unicode="Ĉ" />
<glyph horiz-adv-x="1001" d="" unicode="ĉ" />
<glyph horiz-adv-x="1253" d="" unicode="Ċ" />
<glyph horiz-adv-x="1001" d="" unicode="ċ" />
<glyph horiz-adv-x="1253" d="" unicode="Č" />
<glyph horiz-adv-x="1001" d="" unicode="č" />
<glyph horiz-adv-x="1290" d="" unicode="Ď" />
<glyph horiz-adv-x="1149" d="" unicode="ď" />
<glyph horiz-adv-x="1290" d="" unicode="Đ" />
<glyph horiz-adv-x="1147" d="" unicode="đ" />
<glyph horiz-adv-x="1155" d="" unicode="Ē" />
<glyph horiz-adv-x="987" d="" unicode="ē" />
<glyph horiz-adv-x="1155" d="" unicode="Ĕ" />
<glyph horiz-adv-x="987" d="" unicode="ĕ" />
<glyph horiz-adv-x="1155" d="" unicode="Ė" />
<glyph horiz-adv-x="987" d="" unicode="ė" />
<glyph horiz-adv-x="1155" d="" unicode="Ę" />
<glyph horiz-adv-x="987" d="" unicode="ę" />
<glyph horiz-adv-x="1155" d="" unicode="Ě" />
<glyph horiz-adv-x="987" d="" unicode="ě" />
<glyph horiz-adv-x="1288" d="" unicode="Ĝ" />
<glyph horiz-adv-x="991" d="" unicode="ĝ" />
<glyph horiz-adv-x="1288" d="" unicode="Ğ" />
<glyph horiz-adv-x="991" d="" unicode="ğ" />
<glyph horiz-adv-x="1288" d="" unicode="Ġ" />
<glyph horiz-adv-x="991" d="" unicode="ġ" />
<glyph horiz-adv-x="1288" d="" unicode="Ģ" />
<glyph horiz-adv-x="991" d="" unicode="ģ" />
<glyph horiz-adv-x="1425" d="" unicode="Ĥ" />
<glyph horiz-adv-x="1169" d="" unicode="ĥ" />
<glyph horiz-adv-x="1425" d="" unicode="Ħ" />
<glyph horiz-adv-x="1171" d="" unicode="ħ" />
<glyph horiz-adv-x="657" d="" unicode="Ĩ" />
<glyph horiz-adv-x="610" d="" unicode="ĩ" />
<glyph horiz-adv-x="657" d="" unicode="Ī" />
<glyph horiz-adv-x="610" d="" unicode="ī" />
<glyph horiz-adv-x="657" d="" unicode="Ĭ" />
<glyph horiz-adv-x="610" d="" unicode="ĭ" />
<glyph horiz-adv-x="657" d="" unicode="Į" />
<glyph horiz-adv-x="590" d="" unicode="į" />
<glyph horiz-adv-x="657" d="" unicode="İ" />
<glyph horiz-adv-x="610" d="M -53 184 L 102 184 L 238 950 L 82 950 L 115 1135 L 494 1153 L 324 184 L 485 184 L 453 0 L -86 0 L -53 184 Z" unicode="ı" />
<glyph horiz-adv-x="1358" d="" unicode="Ĳ" />
<glyph horiz-adv-x="1087" d="" unicode="ĳ" />
<glyph horiz-adv-x="858" d="" unicode="Ĵ" />
<glyph horiz-adv-x="526" d="" unicode="ĵ" />
<glyph horiz-adv-x="1327" d="" unicode="Ķ" />
<glyph horiz-adv-x="1112" d="" unicode="ķ" />
<glyph horiz-adv-x="1116" d="" unicode="Ĺ" />
<glyph horiz-adv-x="588" d="" unicode="ĺ" />
<glyph horiz-adv-x="1116" d="" unicode="Ļ" />
<glyph horiz-adv-x="588" d="" unicode="ļ" />
<glyph horiz-adv-x="1116" d="" unicode="Ľ" />
<glyph horiz-adv-x="588" d="" unicode="ľ" />
<glyph horiz-adv-x="1116" d="" unicode="Ŀ" />
<glyph horiz-adv-x="678" d="" unicode="ŀ" />
<glyph horiz-adv-x="1116" d="" unicode="Ł" />
<glyph horiz-adv-x="629" d="" unicode="ł" />
<glyph horiz-adv-x="1425" d="" unicode="Ń" />
<glyph horiz-adv-x="1182" d="" unicode="ń" />
<glyph horiz-adv-x="1425" d="" unicode="Ņ" />
<glyph horiz-adv-x="1182" d="" unicode="ņ" />
<glyph horiz-adv-x="1425" d="" unicode="Ň" />
<glyph horiz-adv-x="1182" d="" unicode="ň" />
<glyph horiz-adv-x="1425" d="" unicode="Ŋ" />
<glyph horiz-adv-x="1135" d="" unicode="ŋ" />
<glyph horiz-adv-x="1323" d="" unicode="Ō" />
<glyph horiz-adv-x="1055" d="" unicode="ō" />
<glyph horiz-adv-x="1323" d="" unicode="Ŏ" />
<glyph horiz-adv-x="1055" d="" unicode="ŏ" />
<glyph horiz-adv-x="1323" d="" unicode="Ő" />
<glyph horiz-adv-x="1055" d="" unicode="ő" />
<glyph horiz-adv-x="1812" d="M 672 0 C 470 0 316 50 210 150 C 104 250 51 397 51 591 C 51 703 68 821 102 945 C 136 1069 185 1174 249 1260 C 313 1346 390 1411 481 1454 C 572 1496 676 1518 793 1518 L 1851 1518 L 1767 1042 L 1556 1042 L 1608 1331 L 1188 1331 L 1108 864 L 1456 864 L 1423 676 L 1073 676 L 987 184 L 1415 184 L 1473 508 L 1681 508 L 1591 0 L 672 0 Z M 762 186 L 963 1329 L 762 1329 C 658 1329 571 1297 502 1233 C 433 1169 379 1074 341 947 C 302 820 283 698 283 580 C 283 317 412 186 670 186 L 762 186 Z" unicode="Œ" />
<glyph horiz-adv-x="1681" d="M 436 -20 C 304 -20 201 18 129 94 C 57 170 21 280 21 424 C 21 514 34 609 60 707 C 86 805 122 888 170 956 C 217 1024 274 1075 340 1110 C 406 1145 480 1163 563 1163 C 723 1163 833 1103 895 983 C 983 1103 1099 1163 1243 1163 C 1476 1163 1593 1044 1593 807 C 1593 736 1579 632 1552 496 L 935 496 C 931 464 930 434 930 406 C 930 337 943 280 969 235 C 995 190 1046 168 1122 168 C 1169 168 1212 177 1252 197 C 1292 217 1334 249 1380 295 L 1524 158 C 1468 100 1405 56 1333 26 C 1261 -4 1185 -20 1104 -20 C 942 -20 833 38 777 154 C 687 38 574 -20 436 -20 Z M 444 176 C 504 176 556 198 600 243 C 644 288 678 356 704 447 C 729 538 742 626 743 710 C 743 790 726 851 692 893 C 658 935 610 956 547 956 C 484 956 431 934 387 890 C 343 846 308 779 283 689 C 257 599 245 511 245 425 C 245 343 262 281 296 239 C 330 197 379 176 444 176 Z M 1227 975 C 1165 975 1112 948 1068 896 C 1024 844 990 770 967 676 L 1376 676 C 1384 718 1388 757 1388 793 C 1388 914 1334 975 1227 975 Z" unicode="œ" />
<glyph horiz-adv-x="1262" d="" unicode="Ŕ" />
<glyph horiz-adv-x="772" d="" unicode="ŕ" />
<glyph horiz-adv-x="1262" d="" unicode="Ŗ" />
<glyph horiz-adv-x="772" d="" unicode="ŗ" />
<glyph horiz-adv-x="1262" d="" unicode="Ř" />
<glyph horiz-adv-x="772" d="" unicode="ř" />
<glyph horiz-adv-x="1133" d="" unicode="Ś" />
<glyph horiz-adv-x="907" d="" unicode="ś" />
<glyph horiz-adv-x="1133" d="" unicode="Ŝ" />
<glyph horiz-adv-x="907" d="" unicode="ŝ" />
<glyph horiz-adv-x="1133" d="" unicode="Ş" />
<glyph horiz-adv-x="907" d="" unicode="ş" />
<glyph horiz-adv-x="1133" d="M 403 1779 L 491 1902 L 741 1788 L 1044 1902 L 1085 1779 L 762 1599 L 667 1599 L 403 1779 Z M 524 -20 C 321 -20 198 35 156 147 L 131 0 L -49 0 L 41 508 L 229 508 L 228 468 C 228 386 238 325 258 287 C 278 249 308 221 348 203 C 388 185 443 176 512 176 C 596 176 660 197 706 240 C 751 283 774 342 774 418 C 774 462 758 503 726 541 C 694 579 646 615 584 650 C 488 702 419 743 376 771 C 333 799 297 829 269 861 C 240 893 217 929 200 969 C 182 1009 174 1054 174 1104 C 174 1185 193 1259 233 1326 C 272 1393 327 1445 398 1482 C 468 1519 546 1538 631 1538 C 799 1538 903 1489 944 1391 L 967 1518 L 1145 1518 L 1059 1042 L 872 1042 L 875 1102 C 875 1182 856 1241 818 1278 C 780 1314 720 1333 637 1333 C 567 1333 512 1313 470 1274 C 428 1234 408 1182 408 1116 C 408 1074 423 1035 454 999 C 484 963 532 927 598 891 C 717 825 795 778 833 750 C 870 722 901 691 927 659 C 953 627 972 592 986 555 C 999 518 1006 477 1006 432 C 1006 345 985 267 945 198 C 905 129 848 75 774 37 C 700 0 616 -20 524 -20 Z" unicode="Š" />
<glyph horiz-adv-x="907" d="M 232 1425 L 320 1548 L 570 1434 L 873 1548 L 914 1425 L 591 1245 L 496 1245 L 232 1425 Z M 408 -14 C 322 -14 257 -2 211 20 C 165 43 133 79 117 127 L 94 0 L -68 0 L 2 393 L 176 393 C 177 310 195 251 230 215 C 265 179 318 162 389 162 C 443 162 487 175 519 201 C 551 227 567 265 567 317 C 567 347 555 375 531 400 C 507 425 469 450 417 475 C 310 523 238 562 202 591 C 166 619 138 652 120 688 C 101 724 92 765 92 811 C 92 914 126 999 196 1065 C 265 1131 351 1165 455 1165 C 525 1165 580 1155 621 1135 C 662 1115 691 1082 709 1036 L 727 1141 L 887 1141 L 825 782 L 651 782 C 649 854 635 905 607 935 C 579 964 533 979 469 979 C 422 979 384 965 355 938 C 325 911 311 874 311 827 C 311 797 323 769 348 745 C 373 721 411 698 461 676 C 569 627 641 589 675 562 C 709 534 736 503 755 467 C 774 431 784 389 784 342 C 784 237 749 151 679 85 C 609 19 519 -14 408 -14 Z" unicode="š" />
<glyph horiz-adv-x="1276" d="" unicode="Ţ" />
<glyph horiz-adv-x="786" d="" unicode="ţ" />
<glyph horiz-adv-x="1276" d="" unicode="Ť" />
<glyph horiz-adv-x="786" d="" unicode="ť" />
<glyph horiz-adv-x="1276" d="" unicode="Ŧ" />
<glyph horiz-adv-x="780" d="" unicode="ŧ" />
<glyph horiz-adv-x="1405" d="" unicode="Ũ" />
<glyph horiz-adv-x="1165" d="" unicode="ũ" />
<glyph horiz-adv-x="1405" d="" unicode="Ū" />
<glyph horiz-adv-x="1165" d="" unicode="ū" />
<glyph horiz-adv-x="1405" d="" unicode="Ŭ" />
<glyph horiz-adv-x="1165" d="" unicode="ŭ" />
<glyph horiz-adv-x="1405" d="" unicode="Ů" />
<glyph horiz-adv-x="1165" d="" unicode="ů" />
<glyph horiz-adv-x="1405" d="" unicode="Ű" />
<glyph horiz-adv-x="1165" d="" unicode="ű" />
<glyph horiz-adv-x="1405" d="" unicode="Ų" />
<glyph horiz-adv-x="1165" d="" unicode="ų" />
<glyph horiz-adv-x="1917" d="" unicode="Ŵ" />
<glyph horiz-adv-x="1595" d="" unicode="ŵ" />
<glyph horiz-adv-x="1315" d="" unicode="Ŷ" />
<glyph horiz-adv-x="1083" d="" unicode="ŷ" />
<glyph horiz-adv-x="1315" d="M 266 184 L 444 184 L 510 557 L 256 1327 L 150 1327 L 184 1518 L 690 1518 L 657 1331 L 487 1331 L 662 764 L 1032 1331 L 868 1331 L 903 1518 L 1403 1518 L 1368 1327 L 1260 1327 L 739 555 L 674 184 L 850 184 L 817 0 L 233 0 L 266 184 Z M 567 1851 L 766 1851 L 727 1618 L 526 1618 L 567 1851 Z M 927 1851 L 1128 1851 L 1087 1618 L 886 1618 L 927 1851 Z" unicode="Ÿ" />
<glyph horiz-adv-x="1102" d="" unicode="Ź" />
<glyph horiz-adv-x="915" d="" unicode="ź" />
<glyph horiz-adv-x="1102" d="" unicode="Ż" />
<glyph horiz-adv-x="915" d="" unicode="ż" />
<glyph horiz-adv-x="1102" d="M 387 1779 L 475 1902 L 725 1788 L 1028 1902 L 1069 1779 L 746 1599 L 651 1599 L 387 1779 Z M 874 1337 L 379 1337 L 328 1042 L 121 1042 L 205 1518 L 1167 1518 L 1139 1343 L 209 180 L 743 180 L 801 508 L 1012 508 L 922 0 L -86 0 L -57 168 L 874 1337 Z" unicode="Ž" />
<glyph horiz-adv-x="915" d="M 236 1425 L 324 1548 L 574 1434 L 877 1548 L 918 1425 L 595 1245 L 500 1245 L 236 1425 Z M 643 965 L 289 965 L 250 739 L 66 739 L 135 1141 L 918 1141 L 887 961 L 190 170 L 580 170 L 621 408 L 809 408 L 737 0 L -86 0 L -53 180 L 643 965 Z" unicode="ž" />
<glyph horiz-adv-x="858" d="M 289 774 L 104 774 L 139 963 L 322 963 L 352 1137 C 372 1255 414 1343 478 1400 C 541 1456 630 1485 745 1485 C 813 1485 867 1479 907 1468 L 866 1280 C 818 1285 778 1288 748 1288 C 694 1288 654 1276 627 1252 C 600 1228 582 1189 573 1135 L 543 963 L 801 963 L 768 774 L 508 774 L 315 -326 L 96 -326 L 289 774 Z" unicode="ƒ" />
<glyph horiz-adv-x="893" d="" unicode="⁄" />
<glyph horiz-adv-x="1059" d="" unicode="∂" />
<glyph horiz-adv-x="1208" d="" unicode="∆" />
<glyph horiz-adv-x="1360" d="" unicode="∏" />
<glyph horiz-adv-x="1110" d="" unicode="∑" />
<glyph horiz-adv-x="1188" d="" unicode="−" />
<glyph horiz-adv-x="893" d="" unicode="∕" />
<glyph horiz-adv-x="1133" d="" unicode="Ș" />
<glyph horiz-adv-x="907" d="" unicode="ș" />
<glyph horiz-adv-x="1276" d="" unicode="Ț" />
<glyph horiz-adv-x="786" d="" unicode="ț" />
<glyph horiz-adv-x="1589" d="" unicode="∞" />
<glyph horiz-adv-x="858" d="" unicode="∫" />
<glyph horiz-adv-x="1188" d="" unicode="≈" />
<glyph horiz-adv-x="1855" d="M 1370 1382 L 1301 1386 L 1286 1386 C 1204 1386 1154 1337 1137 1241 L 1120 1141 L 1321 1141 L 1288 950 L 1085 950 L 860 -326 L 643 -326 L 866 950 L 467 950 L 242 -326 L 23 -326 L 248 950 L 70 950 L 104 1141 L 283 1141 L 299 1247 C 339 1473 470 1587 694 1587 C 758 1587 806 1583 838 1577 L 797 1382 C 757 1388 721 1391 690 1391 C 640 1391 601 1379 573 1356 C 545 1333 526 1294 518 1239 L 500 1141 L 901 1141 L 918 1247 C 936 1359 975 1443 1035 1498 C 1094 1553 1175 1581 1278 1581 C 1339 1581 1383 1579 1409 1575 L 1370 1382 Z M 1217 184 L 1352 184 L 1561 1376 L 1438 1376 L 1473 1556 L 1817 1577 L 1571 184 L 1731 184 L 1698 0 L 1184 0 L 1217 184 Z" unicode="ﬄ" />
<glyph horiz-adv-x="987" d="" unicode="ə" />
<glyph horiz-adv-x="1188" d="" unicode="≠" />
<glyph horiz-adv-x="1188" d="" unicode="≤" />
<glyph horiz-adv-x="1188" d="" unicode="≥" />
<glyph horiz-adv-x="985" d="" unicode="⁰" />
<glyph horiz-adv-x="893" d="" unicode="⁴" />
<glyph horiz-adv-x="893" d="" unicode="⁵" />
<glyph horiz-adv-x="940" d="" unicode="⁶" />
<glyph horiz-adv-x="979" d="M 258 1374 L 584 1554 L 678 1554 L 938 1374 L 854 1249 L 602 1364 L 301 1249 L 258 1374 Z" unicode="ˆ" />
<glyph horiz-adv-x="979" d="M 266 1425 L 354 1548 L 604 1434 L 907 1548 L 948 1425 L 625 1245 L 530 1245 L 266 1425 Z" unicode="ˇ" />
<glyph horiz-adv-x="834" d="" unicode="⁷" />
<glyph horiz-adv-x="934" d="" unicode="⁸" />
<glyph horiz-adv-x="940" d="" unicode="⁹" />
<glyph horiz-adv-x="979" d="" unicode="˘" />
<glyph horiz-adv-x="979" d="" unicode="˙" />
<glyph horiz-adv-x="979" d="M 598 1241 C 530 1241 477 1260 439 1298 C 401 1336 382 1389 382 1457 C 382 1541 407 1612 457 1669 C 507 1726 570 1755 647 1755 C 711 1755 762 1736 800 1698 C 838 1660 857 1607 857 1539 C 857 1457 832 1386 783 1328 C 733 1270 672 1241 598 1241 Z M 604 1362 C 641 1362 671 1377 695 1409 C 718 1440 730 1479 730 1527 C 730 1562 721 1589 705 1607 C 689 1625 666 1634 637 1634 C 599 1634 568 1617 545 1584 C 521 1551 510 1511 510 1464 C 510 1396 541 1362 604 1362 Z" unicode="˚" />
<glyph horiz-adv-x="979" d="" unicode="˛" />
<glyph horiz-adv-x="979" d="M 225 1354 C 267 1416 310 1462 355 1492 C 400 1521 443 1536 483 1536 C 509 1536 534 1531 556 1522 C 578 1513 598 1503 617 1493 C 635 1482 653 1472 670 1463 C 686 1454 703 1450 719 1450 C 760 1450 805 1481 854 1544 L 985 1452 C 941 1388 896 1341 850 1313 C 804 1284 760 1270 719 1270 C 695 1270 672 1274 652 1283 C 631 1291 611 1301 592 1312 C 573 1322 555 1332 538 1341 C 520 1349 503 1354 487 1354 C 443 1354 399 1322 356 1260 L 225 1354 Z" unicode="˜" />
<glyph horiz-adv-x="979" d="" unicode="˝" />
<glyph horiz-adv-x="1337" d="M 104 1141 L 283 1141 L 299 1247 C 339 1473 470 1587 694 1587 C 758 1587 806 1583 838 1577 L 797 1382 C 757 1388 721 1391 690 1391 C 640 1391 601 1379 573 1356 C 545 1333 526 1294 518 1239 L 500 1141 L 901 1141 L 918 1247 C 956 1473 1093 1587 1327 1587 C 1389 1587 1436 1583 1468 1577 L 1430 1382 C 1370 1388 1330 1391 1311 1391 C 1261 1391 1222 1379 1194 1357 C 1166 1335 1147 1295 1137 1239 L 1120 1141 L 1384 1141 L 1352 950 L 1085 950 L 860 -326 L 643 -326 L 866 950 L 467 950 L 242 -326 L 23 -326 L 248 950 L 70 950 L 104 1141 Z" unicode="ﬀ" />
<glyph horiz-adv-x="1227" d="M 586 184 L 733 184 L 866 950 L 729 950 L 760 1135 L 1122 1153 L 952 184 L 1102 184 L 1069 0 L 553 0 L 586 184 Z M 956 1524 L 1188 1524 L 1145 1276 L 911 1276 L 956 1524 Z M 752 1382 L 682 1386 L 666 1386 C 582 1386 533 1337 518 1241 L 500 1141 L 694 1141 L 662 950 L 467 950 L 242 -326 L 23 -326 L 248 950 L 70 950 L 104 1141 L 283 1141 L 299 1247 C 318 1359 357 1443 417 1498 C 476 1553 557 1581 659 1581 L 691 1581 C 731 1581 764 1579 788 1575 L 752 1382 Z" unicode="ﬁ" />
<glyph horiz-adv-x="1282" d="M 752 1382 L 682 1386 L 666 1386 C 582 1386 533 1337 518 1241 L 500 1141 L 702 1141 L 668 950 L 467 950 L 242 -326 L 23 -326 L 248 950 L 70 950 L 104 1141 L 283 1141 L 299 1247 C 318 1359 357 1443 417 1498 C 476 1553 557 1581 659 1581 L 691 1581 C 731 1581 764 1579 788 1575 L 752 1382 Z M 596 184 L 733 184 L 942 1376 L 819 1376 L 852 1556 L 1198 1577 L 952 184 L 1112 184 L 1079 0 L 563 0 L 596 184 Z" unicode="ﬂ" />
<glyph horiz-adv-x="1845" d="M 1370 1382 L 1301 1386 L 1286 1386 C 1204 1386 1154 1337 1137 1241 L 1120 1141 L 1313 1141 L 1280 950 L 1085 950 L 860 -326 L 643 -326 L 866 950 L 467 950 L 242 -326 L 23 -326 L 248 950 L 70 950 L 104 1141 L 283 1141 L 299 1247 C 339 1473 470 1587 694 1587 C 758 1587 806 1583 838 1577 L 797 1382 C 757 1388 721 1391 690 1391 C 640 1391 601 1379 573 1356 C 545 1333 526 1294 518 1239 L 500 1141 L 901 1141 L 918 1247 C 936 1359 975 1443 1035 1498 C 1094 1553 1175 1581 1278 1581 C 1339 1581 1383 1579 1409 1575 L 1370 1382 Z M 1204 184 L 1352 184 L 1487 950 L 1348 950 L 1380 1135 L 1741 1153 L 1571 184 L 1720 184 L 1688 0 L 1171 0 L 1204 184 Z M 1575 1524 L 1808 1524 L 1763 1276 L 1532 1276 L 1575 1524 Z" unicode="ﬃ" />
<glyph horiz-adv-x="979" d="M 332 1450 L 893 1450 L 860 1264 L 299 1264 L 332 1450 Z" unicode="̄" />
<glyph horiz-adv-x="979" d="" unicode="̦" />
<glyph horiz-adv-x="1208" d="" unicode="Δ" />
<glyph horiz-adv-x="1524" d="" unicode="Ω" />
<glyph horiz-adv-x="1178" d="M 215 950 L 78 950 L 111 1133 L 471 1151 L 346 438 C 336 381 331 337 331 306 C 331 259 343 226 369 207 C 394 187 436 178 494 178 C 563 178 617 200 655 246 C 693 292 721 369 739 477 L 823 950 L 651 950 L 682 1133 L 1079 1151 L 909 184 L 1055 184 L 1022 6 L 705 -14 L 709 164 C 673 107 630 63 582 33 C 533 3 480 -12 424 -12 C 344 -12 293 5 272 39 L 209 -326 L -8 -326 L 215 950 Z" unicode="μ" />
<glyph horiz-adv-x="1262" d="" unicode="π" />
<glyph horiz-adv-x="1208" d="M 45 670 L 218 670 L 237 786 L 66 786 L 96 958 L 277 958 C 325 1124 393 1254 481 1348 C 569 1442 673 1489 793 1489 C 932 1489 1019 1439 1053 1341 L 1075 1473 L 1249 1473 L 1174 1040 L 991 1040 L 991 1064 C 991 1136 976 1192 946 1230 C 916 1268 865 1288 793 1288 C 665 1288 567 1178 499 958 L 868 958 L 836 786 L 457 786 L 437 670 L 815 670 L 786 498 L 422 498 L 422 476 C 422 376 438 301 472 251 C 505 201 558 176 631 176 C 689 176 738 196 780 236 C 822 276 863 343 905 438 L 1090 377 C 1031 238 963 137 886 75 C 809 13 716 -18 608 -18 C 339 -18 205 147 205 479 L 205 498 L 14 498 L 45 670 Z" unicode="€" />
<glyph horiz-adv-x="467" d="M 125 872 L 385 872 L 336 582 L 74 582 L 125 872 Z" unicode="∙" />
<glyph horiz-adv-x="1110" d="" unicode="√" />
<glyph horiz-adv-x="969" d="M 403 920 L 117 920 L 152 1126 L 440 1126 L 520 1577 L 739 1577 L 659 1126 L 948 1126 L 913 920 L 623 920 L 403 -326 L 184 -326 L 403 920 Z" unicode="†" />
<glyph horiz-adv-x="969" d="M 264 127 L -25 127 L 12 332 L 299 332 L 403 920 L 117 920 L 152 1126 L 440 1126 L 520 1577 L 741 1577 L 662 1126 L 948 1126 L 913 920 L 625 920 L 520 332 L 807 332 L 772 127 L 485 127 L 406 -326 L 184 -326 L 264 127 Z" unicode="‡" />
<glyph horiz-adv-x="631" d="M 168 817 L 487 817 L 418 428 L 100 428 L 168 817 Z" unicode="•" />
<glyph horiz-adv-x="1346" d="M 18 285 L 283 285 L 231 0 L -31 0 L 18 285 Z M 459 285 L 723 285 L 672 0 L 410 0 L 459 285 Z M 897 285 L 1161 285 L 1110 0 L 848 0 L 897 285 Z" unicode="…" />
<glyph horiz-adv-x="1280" d="" unicode="◊" />
<glyph horiz-adv-x="1866" d="" unicode="" />
<glyph horiz-adv-x="1917" d="" unicode="Ẁ" />
<glyph horiz-adv-x="1595" d="" unicode="ẁ" />
<glyph horiz-adv-x="1917" d="" unicode="Ẃ" />
<glyph horiz-adv-x="1595" d="" unicode="ẃ" />
<glyph horiz-adv-x="1917" d="" unicode="Ẅ" />
<glyph horiz-adv-x="1595" d="" unicode="ẅ" />
<glyph horiz-adv-x="1354" d="" unicode="℗" />
<glyph horiz-adv-x="2740" d="M 401 516 C 303 516 228 548 174 612 C 120 676 94 768 94 888 C 94 993 112 1094 150 1190 C 187 1286 238 1361 302 1414 C 366 1466 440 1493 524 1493 C 622 1493 698 1461 753 1397 C 807 1333 835 1243 836 1126 C 836 1054 826 979 806 901 C 786 823 757 755 719 697 C 680 639 633 594 579 563 C 525 531 465 516 401 516 Z M 412 692 C 459 692 498 710 530 746 C 562 782 587 839 606 916 C 625 992 635 1063 635 1129 C 635 1250 596 1311 520 1311 C 472 1311 431 1293 399 1257 C 367 1221 341 1165 322 1089 C 302 1013 293 941 293 875 C 293 753 332 692 412 692 Z M 1337 1475 L 1538 1475 L 600 0 L 399 0 L 1337 1475 Z M 1409 -18 C 1311 -18 1235 14 1181 78 C 1127 142 1101 233 1101 352 C 1101 460 1119 561 1156 657 C 1193 753 1244 827 1309 879 C 1374 931 1448 958 1530 958 C 1628 958 1705 926 1760 862 C 1814 798 1842 708 1843 590 C 1843 483 1824 381 1787 284 C 1750 186 1699 112 1633 60 C 1567 8 1493 -18 1409 -18 Z M 1417 160 C 1465 160 1506 178 1538 216 C 1570 253 1595 311 1613 390 C 1631 469 1641 538 1641 598 C 1641 716 1602 776 1526 776 C 1478 776 1437 758 1405 722 C 1373 686 1347 630 1328 554 C 1308 478 1299 408 1299 343 C 1299 301 1306 260 1320 220 C 1334 180 1367 160 1417 160 Z M 2206 -18 C 2108 -18 2032 14 1978 79 C 1924 143 1898 235 1898 353 C 1898 456 1916 556 1953 654 C 1990 751 2041 826 2106 879 C 2171 931 2245 958 2329 958 C 2427 958 2504 925 2558 861 C 2612 797 2640 706 2640 590 C 2640 486 2621 384 2584 286 C 2547 188 2496 112 2431 60 C 2365 8 2290 -18 2206 -18 Z M 2216 160 C 2262 160 2301 177 2333 213 C 2365 249 2390 305 2410 383 C 2429 461 2439 531 2439 595 C 2439 715 2400 776 2322 776 C 2274 776 2233 757 2201 720 C 2168 682 2142 625 2124 549 C 2106 473 2096 403 2096 341 C 2096 283 2106 238 2127 207 C 2147 175 2177 160 2216 160 Z" unicode="‰" />
<glyph horiz-adv-x="2009" d="M 973 690 L 1067 690 L 1067 1376 L 973 1376 L 973 1518 L 1272 1518 L 1491 836 L 1710 1518 L 2009 1518 L 2009 1378 L 1915 1378 L 1915 690 L 2009 690 L 2009 551 L 1661 551 L 1661 686 L 1755 686 L 1755 1212 L 1544 551 L 1427 551 L 1221 1210 L 1221 686 L 1317 686 L 1317 551 L 973 551 L 973 690 Z M 348 688 L 457 688 L 457 1380 L 313 1380 L 313 1200 L 170 1200 L 170 1518 L 907 1518 L 907 1200 L 766 1200 L 766 1380 L 621 1380 L 621 688 L 731 688 L 731 551 L 348 551 L 348 688 Z" unicode="™" />
<glyph horiz-adv-x="537" d="" unicode="′" />
<glyph horiz-adv-x="1524" d="" unicode="Ω" />
<glyph horiz-adv-x="1315" d="" unicode="Ỳ" />
<glyph horiz-adv-x="1083" d="" unicode="ỳ" />
<glyph horiz-adv-x="922" d="" unicode="″" />
<glyph horiz-adv-x="1110" d="" unicode="✓" />
<glyph horiz-adv-x="1427" d="" unicode="℮" />
<glyph horiz-adv-x="770" d="M 104 571 L 457 1141 L 655 1141 L 326 567 L 453 0 L 256 0 L 104 571 Z" unicode="‹" />
<glyph horiz-adv-x="770" d="M 246 0 L 47 0 L 381 573 L 252 1141 L 449 1141 L 600 569 L 246 0 Z" unicode="›" />
</font>
</defs>
</svg>
