<?xml version="1.0" standalone="yes"?><svg version="1.1" xmlns = 'http://www.w3.org/2000/svg'><defs><font id='web' horiz-adv-x="1000">
<font-face font-family="web" descent="-346" cap-height="1518" units-per-em="2048" bbox="-95,-662,3019,2142" x-height="1157" ascent="1587" />
<missing-glyph horiz-adv-x="1024" d="" /><glyph horiz-adv-x="1024" d="" unicode=" " />
<glyph horiz-adv-x="2048" d="" unicode=" " />
<glyph horiz-adv-x="1188" d="" unicode=" " />
<glyph horiz-adv-x="410" d="" unicode=" " />
<glyph horiz-adv-x="1188" d="" unicode="‒" />
<glyph horiz-adv-x="1262" d="M 61 823 L 1200 823 L 1200 541 L 61 541 L 61 823 Z" unicode="–" />
<glyph horiz-adv-x="1630" d="M 61 823 L 1567 823 L 1567 541 L 61 541 L 61 823 Z" unicode="—" />
<glyph horiz-adv-x="2048" d="" unicode="―" />
<glyph horiz-adv-x="535" d="M 434 1370 C 370 1335 329 1307 312 1287 C 295 1266 287 1234 287 1192 L 442 1192 L 442 821 L 90 821 L 90 1165 C 90 1230 98 1282 114 1320 C 130 1358 157 1394 195 1427 C 232 1460 283 1492 348 1524 L 434 1370 Z" unicode="‘" />
<glyph horiz-adv-x="535" d="M 100 969 C 161 1002 201 1029 219 1050 C 237 1070 246 1103 246 1147 L 90 1147 L 90 1518 L 442 1518 L 442 1174 C 442 1106 433 1053 417 1015 C 400 976 373 941 336 910 C 299 878 248 847 184 815 L 100 969 Z" unicode="’" />
<glyph horiz-adv-x="532" d="M 100 -178 C 165 -142 206 -114 222 -94 C 238 -73 246 -42 246 0 L 90 0 L 90 371 L 442 371 L 442 27 C 442 -40 433 -93 417 -132 C 400 -170 373 -205 336 -237 C 299 -268 248 -300 184 -332 L 100 -178 Z" unicode="‚" />
<glyph horiz-adv-x="975" d="M 92 1171 C 92 1234 100 1284 116 1321 C 132 1358 158 1393 194 1425 C 230 1457 280 1488 344 1520 L 426 1372 C 367 1340 328 1314 310 1293 C 292 1272 283 1240 283 1196 L 436 1196 L 436 834 L 92 834 L 92 1171 Z M 541 1171 C 541 1235 549 1285 565 1323 C 581 1361 608 1396 645 1428 C 682 1460 731 1490 793 1520 L 874 1372 C 832 1350 802 1331 783 1316 C 764 1300 751 1285 744 1269 C 736 1253 733 1229 733 1196 L 885 1196 L 885 834 L 541 834 L 541 1171 Z" unicode="“" />
<glyph horiz-adv-x="975" d="M 100 979 C 160 1011 199 1037 217 1058 C 235 1079 244 1111 244 1155 L 90 1155 L 90 1518 L 436 1518 L 436 1180 C 436 1117 427 1067 411 1029 C 395 991 368 956 332 924 C 295 892 246 860 184 829 L 100 979 Z M 549 979 C 607 1010 646 1036 664 1057 C 682 1078 692 1111 692 1155 L 541 1155 L 541 1518 L 883 1518 L 883 1180 C 883 1116 875 1065 859 1027 C 843 989 816 955 780 923 C 744 891 694 860 631 829 L 549 979 Z" unicode="”" />
<glyph horiz-adv-x="975" d="M 100 -176 C 164 -142 204 -114 220 -93 C 236 -71 244 -40 244 0 L 90 0 L 90 365 L 436 365 L 436 25 C 436 -37 427 -87 411 -125 C 395 -163 368 -198 332 -230 C 295 -262 246 -294 184 -326 L 100 -176 Z M 549 -176 C 611 -142 651 -115 667 -94 C 683 -72 692 -41 692 0 L 541 0 L 541 365 L 883 365 L 883 25 C 883 -39 875 -89 859 -127 C 843 -165 816 -199 780 -231 C 744 -263 694 -294 631 -326 L 549 -176 Z" unicode="„" />
<glyph horiz-adv-x="350" d="" unicode=" " />
<glyph horiz-adv-x="709" d="M 178 360 L 530 360 L 530 0 L 178 0 L 178 360 Z M 184 1518 L 526 1518 L 494 473 L 217 473 L 184 1518 Z" unicode="!" />
<glyph horiz-adv-x="1044" d="M 143 1518 L 457 1518 L 440 805 L 162 805 L 143 1518 Z M 588 1518 L 903 1518 L 883 805 L 606 805 L 588 1518 Z" unicode="&#x22;" />
<glyph horiz-adv-x="1331" d="M 238 350 L 82 350 L 82 623 L 281 623 L 307 795 L 82 795 L 82 1069 L 348 1069 L 412 1475 L 702 1475 L 639 1069 L 797 1069 L 860 1475 L 1149 1475 L 1085 1069 L 1249 1069 L 1249 795 L 1042 795 L 1018 623 L 1249 623 L 1249 350 L 975 350 L 922 0 L 633 0 L 686 350 L 528 350 L 473 0 L 182 0 L 238 350 Z M 737 606 L 772 813 L 588 813 L 555 606 L 737 606 Z" unicode="#" />
<glyph horiz-adv-x="1141" d="M 453 19 C 372 45 315 92 283 160 L 283 0 L 63 0 L 63 502 L 289 502 C 302 418 330 355 374 311 C 417 267 481 246 567 246 C 723 246 801 298 801 403 C 801 447 782 484 745 516 C 708 548 652 576 576 600 C 427 647 324 689 266 727 C 208 764 165 810 135 865 C 105 919 90 984 90 1059 C 90 1168 121 1257 184 1327 C 246 1396 336 1439 453 1457 L 453 1593 L 698 1593 L 698 1440 C 761 1416 805 1376 831 1319 L 831 1458 L 1049 1458 L 1049 997 L 817 997 C 803 1065 776 1117 735 1153 C 694 1188 642 1206 578 1206 C 452 1206 389 1159 389 1065 C 389 1023 406 987 441 957 C 475 927 532 898 612 872 C 764 821 867 777 923 740 C 978 703 1020 658 1050 604 C 1079 550 1094 488 1094 418 C 1094 302 1058 207 986 134 C 914 60 816 17 690 3 L 690 -180 L 453 -180 L 453 19 Z" unicode="$" />
<glyph horiz-adv-x="2181" d="M 469 492 C 340 492 238 536 164 626 C 90 716 53 837 53 991 C 53 1143 90 1265 166 1356 C 241 1447 342 1493 469 1493 C 597 1493 698 1447 773 1357 C 847 1267 885 1145 885 991 C 885 840 847 719 772 628 C 697 537 596 492 469 492 Z M 469 729 C 560 729 606 816 606 991 C 606 1161 560 1247 469 1247 C 375 1247 328 1161 328 991 C 328 816 375 729 469 729 Z M 1303 1475 L 1579 1475 L 881 0 L 604 0 L 1303 1475 Z M 1714 -20 C 1586 -20 1485 25 1410 115 C 1335 205 1298 327 1298 483 C 1298 635 1335 757 1411 847 C 1487 937 1588 983 1714 983 C 1840 983 1941 938 2016 848 C 2090 758 2128 637 2128 483 C 2128 331 2090 209 2016 117 C 1941 25 1840 -20 1714 -20 Z M 1714 221 C 1805 221 1851 307 1851 481 C 1851 653 1805 739 1714 739 C 1621 739 1575 653 1575 481 C 1575 307 1621 221 1714 221 Z" unicode="%" />
<glyph horiz-adv-x="1550" d="M 528 -16 C 382 -16 265 19 179 89 C 92 159 49 255 49 377 C 49 481 73 569 123 643 C 173 717 254 782 367 838 C 346 928 336 1022 336 1120 C 336 1254 374 1357 450 1429 C 526 1500 628 1536 756 1536 C 856 1536 938 1505 1001 1445 C 1064 1385 1096 1306 1096 1208 C 1096 1134 1082 1068 1054 1011 C 1026 954 986 904 932 860 C 878 816 801 773 700 729 C 754 591 831 481 931 400 C 1014 507 1072 666 1104 877 L 1368 854 C 1335 609 1269 418 1171 280 C 1213 270 1257 266 1303 266 C 1345 266 1387 271 1427 281 L 1468 25 C 1446 17 1411 11 1365 6 C 1319 0 1278 -2 1243 -2 C 1131 -2 1025 21 925 67 C 815 11 683 -16 528 -16 Z M 680 240 C 582 337 503 457 442 601 C 412 576 388 548 370 517 C 352 485 344 447 344 401 C 344 344 362 301 400 272 C 438 243 493 229 565 229 C 607 229 646 232 680 240 Z M 621 1126 C 621 1067 626 1005 638 941 C 707 980 755 1018 783 1055 C 811 1092 825 1136 825 1188 C 825 1228 816 1256 800 1274 C 783 1291 762 1300 737 1300 C 702 1300 674 1284 653 1253 C 631 1222 621 1180 621 1126 Z" unicode="&#x26;" />
<glyph horiz-adv-x="608" d="M 143 1518 L 465 1518 L 449 805 L 162 805 L 143 1518 Z" unicode="'" />
<glyph horiz-adv-x="911" d="M 518 -373 C 405 -257 319 -112 259 61 C 199 234 170 421 170 623 C 170 754 185 883 216 1011 C 246 1139 288 1256 342 1363 C 395 1469 454 1555 518 1620 L 745 1475 C 651 1349 585 1217 545 1079 C 505 941 485 790 485 627 C 485 459 506 302 550 156 C 594 9 659 -117 745 -225 L 518 -373 Z" unicode="(" />
<glyph horiz-adv-x="911" d="M 168 -225 C 232 -138 281 -54 316 26 C 351 106 378 196 398 294 C 418 392 428 502 428 623 C 428 791 406 949 362 1095 C 318 1241 253 1368 168 1475 L 397 1620 C 509 1504 595 1359 655 1186 C 715 1012 745 826 745 627 C 745 496 729 367 699 240 C 668 112 626 -4 574 -110 C 522 -216 463 -303 397 -373 L 168 -225 Z" unicode=")" />
<glyph horiz-adv-x="1090" d="M 446 827 L 217 647 L 84 872 L 354 1016 L 84 1163 L 217 1384 L 446 1204 L 422 1520 L 666 1520 L 641 1200 L 872 1384 L 1008 1165 L 731 1016 L 1008 870 L 874 649 L 641 829 L 666 512 L 422 512 L 446 827 Z" unicode="*" />
<glyph horiz-adv-x="1251" d="M 471 580 L 156 580 L 156 866 L 471 866 L 471 1227 L 780 1227 L 780 866 L 1096 866 L 1096 580 L 780 580 L 780 215 L 471 215 L 471 580 Z" unicode="+" />
<glyph horiz-adv-x="535" d="M 100 -160 C 169 -122 211 -95 226 -78 C 240 -60 248 -34 248 0 L 92 0 L 92 367 L 442 367 L 442 37 C 442 -29 434 -81 420 -119 C 406 -157 381 -190 347 -218 C 313 -246 258 -278 184 -313 L 100 -160 Z" unicode="," />
<glyph horiz-adv-x="715" d="M 61 823 L 649 823 L 649 541 L 61 541 L 61 823 Z" unicode="-" />
<glyph horiz-adv-x="535" d="M 92 367 L 442 367 L 442 0 L 92 0 L 92 367 Z" unicode="." />
<glyph horiz-adv-x="1016" d="M 702 1518 L 1016 1518 L 313 0 L 0 0 L 702 1518 Z" unicode="/" />
<glyph horiz-adv-x="1278" d="M 641 -20 C 465 -20 331 45 239 175 C 146 305 100 493 100 737 C 100 977 146 1163 240 1295 C 333 1427 467 1493 641 1493 C 813 1493 946 1428 1039 1299 C 1131 1169 1178 982 1178 737 C 1178 494 1131 307 1038 176 C 944 45 812 -20 641 -20 Z M 641 258 C 715 258 770 296 805 372 C 840 448 858 569 858 737 C 858 899 840 1018 806 1092 C 772 1166 717 1204 641 1204 C 564 1204 508 1166 474 1090 C 439 1014 422 897 422 737 C 422 573 439 453 474 375 C 509 297 565 258 641 258 Z" unicode="0" />
<glyph horiz-adv-x="817" d="M 98 252 L 291 252 L 291 1174 C 261 1163 232 1155 202 1149 C 172 1143 132 1141 82 1141 L 82 1421 C 238 1421 352 1439 422 1475 L 600 1475 L 600 252 L 776 252 L 776 0 L 98 0 L 98 252 Z" unicode="1" />
<glyph horiz-adv-x="1122" d="M 61 272 L 410 600 C 490 676 549 737 588 783 C 627 829 655 872 671 910 C 687 948 696 994 696 1049 C 696 1098 682 1137 655 1167 C 628 1197 590 1212 541 1212 C 487 1212 442 1196 408 1166 C 373 1136 345 1090 324 1028 L 51 1114 C 129 1366 299 1493 559 1493 C 700 1493 809 1457 887 1385 C 965 1313 1004 1213 1004 1083 C 1004 980 977 884 925 794 C 872 704 779 595 647 467 L 397 227 L 786 227 L 786 442 L 1040 442 L 1040 0 L 61 0 L 61 272 Z" unicode="2" />
<glyph horiz-adv-x="1110" d="M 553 -20 C 247 -20 62 104 0 354 L 285 436 C 322 310 403 248 528 248 C 599 248 654 266 693 302 C 732 338 752 390 752 457 C 752 534 724 588 668 619 C 612 650 520 666 391 666 L 391 903 C 507 903 590 916 638 942 C 686 968 711 1014 711 1079 C 711 1124 695 1160 664 1187 C 632 1213 588 1227 532 1227 C 423 1227 350 1179 313 1083 L 53 1167 C 85 1268 143 1348 228 1406 C 313 1464 417 1493 541 1493 C 689 1493 804 1462 886 1401 C 967 1340 1008 1253 1008 1141 C 1008 973 937 862 795 809 C 885 783 951 740 993 678 C 1035 616 1057 536 1057 438 C 1057 343 1036 261 994 192 C 952 123 893 70 817 34 C 740 -1 652 -20 553 -20 Z" unicode="3" />
<glyph horiz-adv-x="1212" d="M 516 244 L 684 244 L 684 387 L 53 387 L 53 606 L 598 1475 L 926 1475 L 391 627 L 688 627 L 754 928 L 973 928 L 973 627 L 1159 627 L 1159 387 L 973 387 L 973 244 L 1124 244 L 1124 0 L 516 0 L 516 244 Z" unicode="4" />
<glyph horiz-adv-x="1149" d="M 569 -20 C 422 -20 303 11 211 74 C 119 137 57 230 25 354 L 311 436 C 350 310 429 248 549 248 C 620 248 674 268 710 308 C 746 348 764 414 764 504 C 764 663 694 743 555 743 C 479 743 410 728 348 698 L 109 780 L 158 1475 L 977 1475 L 977 1200 L 410 1200 L 389 913 C 420 935 461 953 513 966 C 564 978 618 985 674 985 C 801 985 900 943 970 860 C 1040 776 1075 658 1075 504 C 1075 336 1031 207 943 116 C 855 25 730 -20 569 -20 Z" unicode="5" />
<glyph horiz-adv-x="1217" d="M 635 -20 C 461 -20 328 40 235 160 C 142 280 96 448 96 666 C 96 954 153 1163 268 1292 C 383 1420 567 1485 821 1485 C 882 1485 936 1481 983 1475 L 956 1204 C 921 1209 874 1212 815 1212 C 679 1212 579 1184 513 1128 C 447 1072 412 979 408 848 C 438 900 481 940 539 967 C 597 994 665 1008 743 1008 C 871 1008 970 965 1040 879 C 1110 793 1145 672 1145 518 C 1145 350 1099 219 1009 123 C 918 27 793 -20 635 -20 Z M 643 246 C 770 246 834 336 834 516 C 834 606 817 671 783 712 C 749 753 703 774 647 774 C 577 774 522 751 482 707 C 442 663 422 602 422 524 C 422 338 495 246 643 246 Z" unicode="6" />
<glyph horiz-adv-x="1053" d="M 330 0 C 338 272 373 501 435 689 C 497 876 598 1055 739 1225 L 328 1225 L 328 991 L 66 991 L 66 1475 L 1055 1475 L 1055 1260 C 918 1091 816 903 750 696 C 684 488 648 256 643 0 L 330 0 Z" unicode="7" />
<glyph horiz-adv-x="1208" d="M 604 -31 C 440 -31 312 9 220 91 C 128 172 82 283 82 424 C 82 526 101 608 140 671 C 178 733 237 781 315 813 C 249 847 203 890 177 942 C 150 994 137 1055 137 1126 C 137 1239 178 1329 262 1397 C 345 1465 459 1499 604 1499 C 748 1499 862 1466 945 1400 C 1027 1334 1069 1243 1069 1126 C 1069 1050 1054 987 1024 936 C 994 885 947 844 883 813 C 966 781 1027 736 1067 677 C 1106 617 1126 533 1126 424 C 1126 285 1079 174 986 92 C 893 10 766 -31 604 -31 Z M 604 217 C 672 217 724 237 760 279 C 795 320 813 378 813 453 C 813 527 795 586 760 628 C 724 670 672 692 604 692 C 534 692 482 670 448 628 C 414 586 397 527 397 453 C 397 378 414 320 448 279 C 482 237 534 217 604 217 Z M 604 895 C 656 895 696 911 724 944 C 752 977 766 1021 766 1077 C 766 1131 752 1174 724 1205 C 696 1235 656 1251 604 1251 C 550 1251 510 1235 482 1205 C 454 1174 440 1131 440 1077 C 440 1021 454 977 482 944 C 510 911 550 895 604 895 Z" unicode="8" />
<glyph horiz-adv-x="1206" d="M 397 -12 C 334 -12 281 -8 238 -2 L 264 264 C 310 257 357 254 403 254 C 543 254 645 281 709 337 C 773 392 806 487 809 621 C 783 573 743 535 687 505 C 631 475 561 461 475 461 C 346 461 247 505 177 593 C 107 681 72 802 72 958 C 72 1122 117 1252 208 1349 C 299 1446 424 1495 584 1495 C 759 1495 892 1436 984 1320 C 1076 1203 1122 1033 1122 809 C 1122 519 1064 310 948 181 C 832 52 649 -12 397 -12 Z M 573 696 C 641 696 695 717 736 761 C 776 804 797 864 797 942 C 797 1035 778 1105 740 1151 C 702 1197 648 1221 578 1221 C 448 1221 383 1130 383 950 C 383 868 399 806 431 762 C 463 718 511 696 573 696 Z" unicode="9" />
<glyph horiz-adv-x="567" d="M 111 360 L 459 360 L 459 0 L 111 0 L 111 360 Z M 111 1157 L 459 1157 L 459 799 L 111 799 L 111 1157 Z" unicode=":" />
<glyph horiz-adv-x="567" d="M 111 1157 L 459 1157 L 459 799 L 111 799 L 111 1157 Z M 119 -160 C 171 -132 205 -111 222 -98 C 238 -85 250 -72 256 -59 C 262 -46 266 -26 266 0 L 111 0 L 111 360 L 459 360 L 459 37 C 459 -30 451 -82 437 -120 C 423 -157 398 -190 364 -219 C 329 -248 275 -279 203 -313 L 119 -160 Z" unicode=";" />
<glyph horiz-adv-x="1251" d="M 205 602 L 205 819 L 993 1255 L 993 958 L 522 711 L 993 463 L 993 166 L 205 602 Z" unicode="&#x3C;" />
<glyph horiz-adv-x="1251" d="M 166 625 L 1087 625 L 1087 340 L 166 340 L 166 625 Z M 166 1094 L 1087 1094 L 1087 811 L 166 811 L 166 1094 Z" unicode="=" />
<glyph horiz-adv-x="1251" d="M 258 461 L 729 709 L 258 956 L 258 1255 L 1047 819 L 1047 598 L 258 166 L 258 461 Z" unicode="&#x3E;" />
<glyph horiz-adv-x="1182" d="M 420 449 C 417 464 416 485 416 512 C 416 646 473 762 588 858 C 650 910 695 953 721 989 C 747 1024 760 1062 760 1102 C 760 1148 745 1184 716 1212 C 687 1239 644 1253 588 1253 C 481 1253 403 1195 354 1079 L 88 1171 C 125 1284 189 1374 280 1440 C 371 1506 480 1540 606 1540 C 750 1540 863 1504 945 1433 C 1026 1361 1067 1262 1067 1135 C 1067 1067 1052 1006 1022 950 C 992 894 948 840 888 788 C 822 730 775 679 749 636 C 722 593 709 546 709 496 C 709 475 710 459 713 449 L 420 449 Z M 385 326 L 737 326 L 737 0 L 385 0 L 385 326 Z" unicode="?" />
<glyph horiz-adv-x="1739" d="M 887 -326 C 627 -326 431 -248 297 -94 C 163 60 96 292 96 602 C 96 798 127 966 190 1106 C 253 1246 345 1352 466 1425 C 586 1497 731 1534 899 1534 C 1139 1534 1323 1461 1451 1317 C 1578 1173 1642 962 1642 686 C 1642 542 1629 426 1604 338 C 1578 250 1539 186 1487 145 C 1434 104 1361 84 1268 84 C 1192 84 1132 100 1088 133 C 1044 165 1018 209 1010 264 C 948 146 846 88 702 88 C 606 88 534 121 484 189 C 434 256 410 357 410 492 C 410 618 427 731 461 831 C 495 931 543 1007 603 1057 C 663 1107 733 1133 813 1133 C 941 1133 1023 1083 1061 985 L 1149 1116 L 1335 1098 L 1239 393 C 1235 364 1233 340 1233 320 C 1233 255 1261 223 1319 223 C 1383 223 1428 259 1455 332 C 1481 405 1495 523 1495 686 C 1495 920 1445 1096 1345 1215 C 1245 1333 1097 1393 899 1393 C 688 1393 526 1325 412 1189 C 298 1053 242 858 242 602 C 242 342 297 146 407 14 C 517 -118 677 -184 887 -184 C 951 -184 1021 -174 1095 -154 C 1169 -134 1231 -109 1282 -78 L 1352 -199 C 1293 -237 1221 -268 1136 -291 C 1050 -314 967 -326 887 -326 Z M 803 317 C 869 317 920 350 958 418 C 995 486 1014 580 1014 700 C 1014 758 1003 804 981 838 C 959 872 922 889 870 889 C 832 889 799 873 770 841 C 741 809 719 762 703 702 C 687 641 680 578 680 514 C 680 382 721 317 803 317 Z" unicode="@" />
<glyph horiz-adv-x="1446" d="M 41 258 L 139 258 L 541 1528 L 905 1528 L 1307 258 L 1407 258 L 1407 0 L 825 0 L 825 246 L 983 246 L 932 414 L 483 414 L 434 246 L 582 246 L 582 0 L 41 0 L 41 258 Z M 866 643 L 711 1165 L 553 643 L 866 643 Z" unicode="A" />
<glyph horiz-adv-x="1290" d="M 41 258 L 172 258 L 172 1251 L 41 1251 L 41 1518 L 682 1518 C 1019 1518 1188 1387 1188 1126 C 1188 962 1108 852 948 795 C 1041 769 1111 726 1157 666 C 1203 606 1227 523 1227 418 C 1227 282 1180 179 1088 107 C 995 35 860 0 682 0 L 41 0 L 41 258 Z M 684 254 C 834 254 909 320 909 453 C 909 521 889 571 851 601 C 813 631 756 647 680 647 L 483 647 L 483 254 L 684 254 Z M 664 889 C 801 889 870 951 870 1077 C 870 1137 852 1182 817 1212 C 782 1242 727 1257 653 1257 L 483 1257 L 483 889 L 664 889 Z" unicode="B" />
<glyph horiz-adv-x="1329" d="M 674 -20 C 478 -20 327 48 220 186 C 112 323 59 512 59 754 C 59 904 83 1040 133 1161 C 183 1281 253 1375 344 1441 C 434 1507 537 1540 653 1540 C 819 1540 929 1484 983 1374 L 983 1518 L 1233 1518 L 1233 1001 L 961 1001 C 943 1084 913 1145 869 1185 C 825 1225 766 1245 690 1245 C 592 1245 516 1202 464 1118 C 411 1034 385 912 385 754 C 385 592 411 470 464 388 C 516 305 594 264 696 264 C 770 264 831 286 879 331 C 926 376 961 447 983 543 L 1257 492 C 1224 325 1158 198 1058 111 C 958 23 830 -20 674 -20 Z" unicode="C" />
<glyph horiz-adv-x="1364" d="M 41 258 L 172 258 L 172 1251 L 41 1251 L 41 1518 L 627 1518 C 848 1518 1016 1453 1132 1325 C 1247 1197 1305 1008 1305 760 C 1305 513 1245 325 1126 195 C 1006 65 834 0 610 0 L 41 0 L 41 258 Z M 631 262 C 749 262 837 302 893 382 C 949 462 977 588 977 760 C 977 930 948 1054 892 1131 C 836 1208 744 1247 618 1247 L 489 1247 L 489 262 L 631 262 Z" unicode="D" />
<glyph horiz-adv-x="1243" d="M 41 258 L 172 258 L 172 1251 L 41 1251 L 41 1518 L 1157 1518 L 1157 1001 L 868 1001 L 868 1266 L 492 1266 L 492 895 L 811 895 L 811 639 L 492 639 L 492 246 L 883 246 L 883 543 L 1171 543 L 1171 0 L 41 0 L 41 258 Z" unicode="E" />
<glyph horiz-adv-x="1208" d="M 41 258 L 172 258 L 172 1251 L 41 1251 L 41 1518 L 1147 1518 L 1147 1001 L 856 1001 L 856 1266 L 492 1266 L 492 864 L 827 864 L 827 608 L 492 608 L 492 258 L 668 258 L 668 0 L 41 0 L 41 258 Z" unicode="F" />
<glyph horiz-adv-x="1360" d="M 614 -20 C 440 -20 304 48 206 185 C 108 322 59 509 59 745 C 59 899 83 1037 132 1158 C 180 1279 250 1373 340 1440 C 430 1506 532 1540 647 1540 C 811 1540 921 1485 977 1376 L 977 1518 L 1223 1518 L 1223 1001 L 958 1001 C 940 1083 911 1145 869 1185 C 827 1225 768 1245 692 1245 C 487 1245 385 1079 385 748 C 385 421 489 258 698 258 C 782 258 847 282 893 330 C 938 378 967 455 979 561 L 698 561 L 698 809 L 1247 809 L 1247 0 L 1057 0 L 1012 186 C 974 118 921 67 853 32 C 785 -2 706 -20 614 -20 Z" unicode="G" />
<glyph horiz-adv-x="1481" d="M 41 258 L 172 258 L 172 1251 L 41 1251 L 41 1518 L 655 1518 L 655 1260 L 492 1260 L 492 911 L 991 911 L 991 1260 L 823 1260 L 823 1518 L 1440 1518 L 1440 1251 L 1309 1251 L 1309 258 L 1440 258 L 1440 0 L 823 0 L 823 252 L 991 252 L 991 641 L 492 641 L 492 252 L 655 252 L 655 0 L 41 0 L 41 258 Z" unicode="H" />
<glyph horiz-adv-x="684" d="M 41 258 L 184 258 L 184 1251 L 41 1251 L 41 1518 L 645 1518 L 645 1251 L 502 1251 L 502 258 L 645 258 L 645 0 L 41 0 L 41 258 Z" unicode="I" />
<glyph horiz-adv-x="901" d="M 88 287 C 146 273 204 266 260 266 C 320 266 363 279 387 305 C 411 331 424 372 424 428 L 424 1251 L 283 1251 L 283 1518 L 862 1518 L 862 1251 L 741 1251 L 741 395 C 741 262 704 161 632 92 C 560 22 456 -12 322 -12 C 194 -12 97 -3 31 14 L 88 287 Z" unicode="J" />
<glyph horiz-adv-x="1389" d="M 41 258 L 172 258 L 172 1251 L 41 1251 L 41 1518 L 598 1518 L 598 1262 L 485 1262 L 485 780 L 872 1262 L 764 1262 L 764 1518 L 1311 1518 L 1311 1251 L 1184 1251 L 893 891 L 1241 258 L 1348 258 L 1348 0 L 774 0 L 774 244 L 903 244 L 670 651 L 485 420 L 485 244 L 600 244 L 600 0 L 41 0 L 41 258 Z" unicode="K" />
<glyph horiz-adv-x="1208" d="M 41 258 L 172 258 L 172 1251 L 41 1251 L 41 1518 L 649 1518 L 649 1251 L 492 1251 L 492 246 L 856 246 L 856 543 L 1147 543 L 1147 0 L 41 0 L 41 258 Z" unicode="L" />
<glyph horiz-adv-x="1769" d="M 41 258 L 172 258 L 172 1251 L 41 1251 L 41 1518 L 598 1518 L 883 578 L 1174 1518 L 1729 1518 L 1729 1257 L 1597 1257 L 1597 258 L 1729 258 L 1729 0 L 1167 0 L 1167 252 L 1292 252 L 1292 1026 L 983 0 L 770 0 L 463 1028 L 463 252 L 586 252 L 586 0 L 41 0 L 41 258 Z" unicode="M" />
<glyph horiz-adv-x="1483" d="M 41 258 L 172 258 L 172 1251 L 41 1251 L 41 1518 L 524 1518 L 1028 606 L 1028 1251 L 907 1251 L 907 1518 L 1444 1518 L 1444 1251 L 1323 1251 L 1323 0 L 1022 0 L 467 975 L 467 258 L 602 258 L 602 0 L 41 0 L 41 258 Z" unicode="N" />
<glyph horiz-adv-x="1399" d="M 698 -20 C 572 -20 461 12 363 76 C 265 140 190 232 138 350 C 85 468 59 605 59 760 C 59 913 85 1049 139 1168 C 192 1287 267 1379 365 1443 C 462 1507 573 1540 698 1540 C 826 1540 938 1508 1036 1446 C 1134 1383 1209 1293 1262 1175 C 1314 1057 1341 919 1341 760 C 1341 606 1314 469 1260 350 C 1206 230 1130 139 1032 75 C 934 11 822 -20 698 -20 Z M 698 262 C 798 262 876 305 932 391 C 988 477 1016 598 1016 754 C 1016 909 988 1030 932 1116 C 876 1202 798 1245 698 1245 C 598 1245 520 1201 466 1114 C 412 1026 385 906 385 754 C 385 600 412 479 467 392 C 521 305 598 262 698 262 Z" unicode="O" />
<glyph horiz-adv-x="1300" d="M 41 258 L 172 258 L 172 1251 L 41 1251 L 41 1518 L 694 1518 C 873 1518 1010 1475 1104 1390 C 1198 1305 1245 1182 1245 1020 C 1245 854 1197 727 1103 640 C 1009 553 870 510 686 510 L 489 510 L 489 258 L 655 258 L 655 0 L 41 0 L 41 258 Z M 692 756 C 773 756 832 776 870 816 C 907 856 926 919 926 1004 C 926 1087 907 1150 869 1192 C 831 1234 768 1255 682 1255 L 489 1255 L 489 756 L 692 756 Z" unicode="P" />
<glyph horiz-adv-x="1399" d="M 850 -381 C 707 -381 608 -349 554 -286 C 499 -222 472 -139 472 -35 L 475 31 C 342 72 239 156 167 284 C 95 411 59 570 59 762 C 59 916 85 1053 137 1171 C 189 1289 264 1380 361 1444 C 458 1508 570 1540 698 1540 C 827 1540 940 1509 1037 1447 C 1134 1385 1209 1295 1262 1177 C 1314 1059 1341 920 1341 762 C 1341 617 1317 489 1270 379 C 1223 269 1156 182 1068 119 C 980 56 877 20 758 10 C 759 -40 769 -74 789 -91 C 808 -108 842 -117 891 -117 C 930 -117 966 -112 1000 -102 C 1034 -92 1066 -82 1098 -70 L 1180 -315 C 1138 -333 1086 -349 1025 -362 C 963 -374 905 -381 850 -381 Z M 698 262 C 798 262 876 305 932 391 C 988 477 1016 598 1016 754 C 1016 909 988 1030 932 1116 C 876 1202 798 1245 698 1245 C 598 1245 520 1201 466 1114 C 412 1026 385 906 385 754 C 385 600 412 479 467 392 C 521 305 598 262 698 262 Z" unicode="Q" />
<glyph horiz-adv-x="1319" d="M 41 258 L 172 258 L 172 1251 L 41 1251 L 41 1518 L 668 1518 C 849 1518 986 1475 1080 1390 C 1174 1305 1221 1184 1221 1026 C 1221 820 1140 679 979 604 L 1169 258 L 1280 258 L 1280 0 L 737 0 L 737 252 L 834 252 L 686 537 L 485 537 L 485 252 L 586 252 L 586 0 L 41 0 L 41 258 Z M 674 780 C 755 780 813 799 848 837 C 883 875 901 934 901 1016 C 901 1098 882 1158 844 1197 C 806 1235 743 1255 657 1255 L 485 1255 L 485 780 L 674 780 Z" unicode="R" />
<glyph horiz-adv-x="1237" d="M 670 -20 C 484 -20 362 34 303 143 L 303 0 L 68 0 L 68 537 L 319 537 C 337 427 369 351 417 310 C 465 268 535 248 627 248 C 786 248 866 302 866 410 C 866 454 846 491 808 523 C 769 555 707 584 623 611 C 466 659 356 704 292 745 C 228 785 180 835 147 895 C 114 955 98 1025 98 1106 C 98 1194 118 1270 159 1336 C 199 1401 255 1451 327 1486 C 398 1520 477 1538 563 1538 C 735 1538 847 1489 897 1391 L 897 1518 L 1133 1518 L 1133 1008 L 883 1008 C 867 1095 838 1158 796 1198 C 753 1237 695 1257 621 1257 C 549 1257 496 1243 464 1216 C 432 1189 416 1154 416 1110 C 416 1079 424 1052 441 1030 C 458 1008 482 988 514 970 C 546 952 603 930 685 903 L 798 866 C 932 822 1030 764 1090 692 C 1150 620 1180 531 1180 424 C 1180 285 1134 176 1043 98 C 951 19 827 -20 670 -20 Z" unicode="S" />
<glyph horiz-adv-x="1380" d="M 375 252 L 530 252 L 530 1266 L 322 1266 L 322 1001 L 57 1001 L 57 1518 L 1323 1518 L 1323 1001 L 1061 1001 L 1061 1266 L 850 1266 L 850 252 L 1006 252 L 1006 0 L 375 0 L 375 252 Z" unicode="T" />
<glyph horiz-adv-x="1468" d="M 733 -20 C 546 -20 403 26 305 119 C 207 212 158 351 158 535 L 158 1251 L 41 1251 L 41 1518 L 655 1518 L 655 1260 L 479 1260 L 479 561 C 479 454 500 377 543 329 C 585 281 651 258 739 258 C 830 258 896 282 937 330 C 978 378 999 455 999 561 L 999 1260 L 823 1260 L 823 1518 L 1427 1518 L 1427 1251 L 1311 1251 L 1311 535 C 1311 354 1261 216 1162 122 C 1062 27 919 -20 733 -20 Z" unicode="U" />
<glyph horiz-adv-x="1436" d="M 139 1251 L 41 1251 L 41 1518 L 625 1518 L 625 1262 L 459 1262 L 727 387 L 997 1262 L 842 1262 L 842 1518 L 1397 1518 L 1397 1251 L 1294 1251 L 887 -10 L 539 -10 L 139 1251 Z" unicode="V" />
<glyph horiz-adv-x="1954" d="M 164 1251 L 41 1251 L 41 1518 L 604 1518 L 604 1262 L 473 1262 L 625 494 L 850 1518 L 1122 1518 L 1348 494 L 1499 1262 L 1368 1262 L 1368 1518 L 1913 1518 L 1913 1251 L 1784 1251 L 1511 -10 L 1198 -10 L 975 979 L 754 -10 L 438 -10 L 164 1251 Z" unicode="W" />
<glyph horiz-adv-x="1389" d="M 41 258 L 154 258 L 506 766 L 170 1251 L 57 1251 L 57 1518 L 641 1518 L 641 1262 L 524 1262 L 723 977 L 911 1262 L 803 1262 L 803 1518 L 1333 1518 L 1333 1251 L 1221 1251 L 885 760 L 1237 258 L 1350 258 L 1350 0 L 756 0 L 756 246 L 874 246 L 664 551 L 465 246 L 584 246 L 584 0 L 41 0 L 41 258 Z" unicode="X" />
<glyph horiz-adv-x="1372" d="M 375 252 L 528 252 L 528 537 L 135 1251 L 41 1251 L 41 1518 L 610 1518 L 610 1262 L 461 1262 L 696 811 L 926 1262 L 786 1262 L 786 1518 L 1331 1518 L 1331 1251 L 1235 1251 L 848 532 L 848 252 L 999 252 L 999 0 L 375 0 L 375 252 Z" unicode="Y" />
<glyph horiz-adv-x="1206" d="M 41 231 L 784 1274 L 348 1274 L 348 1001 L 61 1001 L 61 1518 L 1143 1518 L 1143 1268 L 412 240 L 879 240 L 879 543 L 1165 543 L 1165 0 L 41 0 L 41 231 Z" unicode="Z" />
<glyph horiz-adv-x="911" d="M 184 1577 L 768 1577 L 768 1319 L 498 1319 L 498 -80 L 774 -80 L 774 -326 L 184 -326 L 184 1577 Z" unicode="[" />
<glyph horiz-adv-x="1016" d="M 0 1518 L 313 1518 L 1016 0 L 702 0 L 0 1518 Z" unicode="\" />
<glyph horiz-adv-x="911" d="M 139 -80 L 418 -80 L 418 1319 L 145 1319 L 145 1577 L 731 1577 L 731 -326 L 139 -326 L 139 -80 Z" unicode="]" />
<glyph horiz-adv-x="1251" d="M 1141 686 L 844 686 L 623 1149 L 403 686 L 106 686 L 514 1475 L 733 1475 L 1141 686 Z" unicode="^" />
<glyph horiz-adv-x="770" d="M -63 -82 L 831 -82 L 831 -309 L -63 -309 L -63 -82 Z" unicode="_" />
<glyph horiz-adv-x="1001" d="M 197 1401 L 272 1651 L 793 1452 L 731 1247 L 197 1401 Z" unicode="`" />
<glyph horiz-adv-x="1112" d="M 692 164 C 635 44 525 -16 362 -16 C 262 -16 185 16 130 82 C 74 147 47 238 47 354 C 47 476 85 570 162 635 C 239 700 351 733 498 733 C 548 733 606 727 674 715 L 674 735 C 674 795 662 839 640 866 C 617 893 580 907 528 907 C 480 907 430 897 379 879 C 328 861 285 839 250 813 L 96 1042 C 152 1085 219 1120 297 1146 C 375 1172 460 1186 553 1186 C 700 1186 807 1151 875 1083 C 943 1014 977 906 977 758 L 977 252 L 1092 252 L 1092 12 L 729 -12 L 692 164 Z M 475 236 C 607 236 674 310 674 459 L 674 524 C 643 531 609 535 571 535 C 491 535 433 521 396 495 C 358 469 340 429 340 375 C 340 282 385 236 475 236 Z" unicode="a" />
<glyph horiz-adv-x="1214" d="M 762 -16 C 604 -16 493 37 430 143 L 383 -10 L 39 10 L 39 252 L 145 252 L 145 1298 L 31 1298 L 31 1561 L 455 1579 L 455 995 C 508 1122 616 1186 778 1186 C 898 1186 992 1134 1058 1030 C 1124 926 1157 777 1157 584 C 1157 458 1140 349 1108 257 C 1076 165 1030 96 971 51 C 911 6 842 -16 762 -16 Z M 666 250 C 726 250 770 276 800 328 C 829 380 844 461 844 571 C 844 789 784 899 666 899 C 592 899 539 871 505 815 C 471 759 455 678 455 571 C 455 463 471 383 504 330 C 536 276 590 250 666 250 Z" unicode="b" />
<glyph horiz-adv-x="1065" d="M 535 -16 C 379 -16 261 35 179 138 C 97 241 57 390 57 584 C 57 694 76 796 116 891 C 156 985 209 1057 277 1106 C 344 1155 420 1180 506 1180 C 570 1180 624 1167 667 1142 C 710 1116 741 1082 760 1038 L 760 1157 L 981 1157 L 981 719 L 743 719 C 731 782 712 828 685 857 C 658 886 617 901 563 901 C 433 901 369 792 369 575 C 369 463 385 381 417 329 C 449 276 499 250 567 250 C 616 250 655 265 683 297 C 711 328 734 375 752 438 L 1010 371 C 977 241 920 144 840 80 C 759 16 657 -16 535 -16 Z" unicode="c" />
<glyph horiz-adv-x="1214" d="M 436 -18 C 314 -18 221 34 155 139 C 89 243 57 394 57 590 C 57 782 91 929 159 1032 C 227 1134 325 1186 453 1186 C 595 1186 698 1133 762 1028 L 762 1305 L 623 1305 L 623 1561 L 1069 1579 L 1069 252 L 1196 252 L 1196 10 L 825 -12 L 791 172 C 757 108 709 60 647 29 C 585 -2 514 -18 436 -18 Z M 549 252 C 691 252 762 362 762 582 C 762 688 745 768 712 821 C 678 874 624 901 549 901 C 489 901 444 875 415 823 C 385 771 371 690 371 582 C 371 362 430 252 549 252 Z" unicode="d" />
<glyph horiz-adv-x="1075" d="M 537 -18 C 381 -18 262 33 180 135 C 98 237 57 387 57 584 C 57 774 101 921 189 1027 C 277 1133 400 1186 559 1186 C 635 1186 700 1173 756 1149 C 811 1125 856 1089 891 1042 C 926 994 952 933 970 857 C 987 781 996 683 996 562 L 995 475 L 362 475 C 371 391 391 330 423 290 C 455 250 499 231 555 231 C 600 231 637 242 667 265 C 697 287 722 327 743 383 L 999 309 C 967 200 912 118 834 64 C 756 9 657 -18 537 -18 Z M 711 690 C 708 844 655 922 551 922 C 445 922 382 844 362 690 L 711 690 Z" unicode="e" />
<glyph horiz-adv-x="786" d="M 41 252 L 217 252 L 217 897 L 41 897 L 41 1157 L 217 1157 L 217 1210 C 217 1336 250 1431 318 1493 C 386 1555 489 1587 629 1587 C 702 1587 759 1583 801 1577 L 766 1315 C 736 1317 699 1319 655 1319 C 607 1319 573 1310 553 1292 C 533 1274 524 1243 524 1200 L 524 1157 L 768 1157 L 768 897 L 524 897 L 524 252 L 768 252 L 768 0 L 41 0 L 41 252 Z" unicode="f" />
<glyph horiz-adv-x="1083" d="M 455 -346 C 153 -346 2 -257 2 -80 C 2 -13 23 40 66 82 C 109 123 168 151 244 166 C 210 180 185 201 167 229 C 149 257 141 290 141 326 C 141 388 170 443 229 492 C 117 557 61 658 61 795 C 61 914 102 1009 185 1080 C 267 1150 380 1186 522 1186 C 568 1186 626 1179 694 1167 L 981 1305 L 1040 1051 L 866 1051 C 905 1021 935 984 957 942 C 978 899 989 846 989 782 C 989 670 947 583 865 521 C 782 459 668 428 522 428 C 473 428 434 430 406 436 C 398 427 395 415 395 399 C 395 374 407 358 432 350 C 457 342 501 337 563 336 C 696 333 798 322 870 302 C 941 282 992 251 1024 209 C 1055 167 1071 108 1071 31 C 1071 -91 1019 -185 915 -249 C 811 -313 657 -346 455 -346 Z M 483 -137 C 581 -137 652 -126 695 -105 C 738 -84 760 -50 760 -2 C 760 30 750 54 730 69 C 710 84 676 95 628 101 C 580 107 536 111 496 111 C 440 111 395 100 361 80 C 326 59 309 28 309 -14 C 309 -96 367 -137 483 -137 Z M 524 618 C 578 618 618 632 646 661 C 674 689 688 728 688 778 C 688 828 674 868 646 897 C 618 925 578 940 524 940 C 472 940 432 925 404 897 C 376 868 362 828 362 778 C 362 728 376 689 404 661 C 432 632 472 618 524 618 Z" unicode="g" />
<glyph horiz-adv-x="1233" d="M 41 252 L 145 252 L 145 1298 L 29 1298 L 29 1561 L 453 1579 L 453 993 C 505 1121 610 1186 766 1186 C 880 1186 965 1150 1019 1079 C 1073 1008 1100 898 1100 750 L 1100 252 L 1212 252 L 1212 0 L 670 0 L 670 252 L 791 252 L 791 696 C 791 766 779 817 756 848 C 732 879 694 895 641 895 C 575 895 528 877 498 841 C 468 805 453 747 453 668 L 453 252 L 571 252 L 571 0 L 41 0 L 41 252 Z" unicode="h" />
<glyph horiz-adv-x="621" d="M 41 252 L 164 252 L 164 897 L 41 897 L 41 1153 L 471 1171 L 471 252 L 602 252 L 602 0 L 41 0 L 41 252 Z M 152 1550 L 473 1550 L 473 1264 L 152 1264 L 152 1550 Z" unicode="i" />
<glyph horiz-adv-x="563" d="M 12 -76 L 55 -80 C 93 -80 119 -72 134 -56 C 148 -40 156 -12 156 27 L 156 897 L 29 897 L 29 1151 L 463 1171 L 463 25 C 463 -107 433 -201 374 -255 C 315 -309 214 -336 72 -336 C 39 -336 13 -334 -6 -332 L 12 -76 Z M 143 1550 L 465 1550 L 465 1264 L 143 1264 L 143 1550 Z" unicode="j" />
<glyph horiz-adv-x="1188" d="M 41 252 L 145 252 L 145 1298 L 29 1298 L 29 1561 L 446 1579 L 446 633 L 698 913 L 590 913 L 590 1157 L 1102 1157 L 1102 897 L 999 897 L 799 680 L 1063 252 L 1167 252 L 1167 0 L 645 0 L 645 246 L 721 246 L 578 485 L 446 338 L 446 246 L 539 246 L 539 0 L 41 0 L 41 252 Z" unicode="k" />
<glyph horiz-adv-x="614" d="M 41 252 L 154 252 L 154 1298 L 29 1298 L 29 1561 L 463 1579 L 463 252 L 596 252 L 596 0 L 41 0 L 41 252 Z" unicode="l" />
<glyph horiz-adv-x="1845" d="M 41 252 L 156 252 L 156 897 L 41 897 L 41 1153 L 397 1171 L 436 981 C 486 1117 596 1186 766 1186 C 840 1186 901 1169 949 1135 C 997 1101 1033 1048 1057 977 C 1107 1116 1217 1186 1389 1186 C 1500 1186 1582 1151 1634 1083 C 1686 1014 1712 903 1712 750 L 1712 252 L 1827 252 L 1827 0 L 1292 0 L 1292 252 L 1403 252 L 1403 696 C 1403 770 1392 822 1371 851 C 1350 880 1315 895 1266 895 C 1202 895 1157 877 1129 842 C 1101 806 1087 748 1087 668 L 1087 252 L 1194 252 L 1194 0 L 672 0 L 672 252 L 778 252 L 778 696 C 778 769 768 820 748 850 C 728 880 693 895 643 895 C 580 895 534 877 506 841 C 477 805 463 747 463 668 L 463 252 L 573 252 L 573 0 L 41 0 L 41 252 Z" unicode="m" />
<glyph horiz-adv-x="1243" d="M 41 252 L 156 252 L 156 897 L 41 897 L 41 1153 L 397 1171 L 436 981 C 461 1049 503 1100 561 1134 C 619 1168 691 1186 776 1186 C 889 1186 973 1151 1027 1081 C 1081 1011 1108 901 1108 750 L 1108 252 L 1225 252 L 1225 0 L 682 0 L 682 252 L 799 252 L 799 696 C 799 769 787 820 765 850 C 742 880 705 895 653 895 C 587 895 539 876 509 840 C 478 804 463 746 463 668 L 463 252 L 582 252 L 582 0 L 41 0 L 41 252 Z" unicode="n" />
<glyph horiz-adv-x="1135" d="M 567 -20 C 404 -20 278 32 190 138 C 101 244 57 392 57 584 C 57 775 101 923 190 1028 C 279 1133 405 1186 567 1186 C 729 1186 854 1133 943 1028 C 1032 922 1077 774 1077 584 C 1077 392 1032 244 943 138 C 854 32 729 -20 567 -20 Z M 567 248 C 699 248 766 356 766 573 C 766 790 699 899 567 899 C 433 899 367 790 367 573 C 367 356 433 248 567 248 Z" unicode="o" />
<glyph horiz-adv-x="1214" d="M 29 -84 L 145 -84 L 145 897 L 29 897 L 29 1153 L 387 1171 L 426 975 C 486 1115 603 1186 778 1186 C 898 1186 992 1134 1058 1031 C 1124 928 1157 779 1157 584 C 1157 390 1123 242 1055 140 C 987 38 888 -12 760 -12 C 686 -12 625 1 575 29 C 525 56 485 99 455 158 L 455 -84 L 571 -84 L 571 -326 L 29 -326 L 29 -84 Z M 668 250 C 785 250 844 357 844 571 C 844 789 785 899 668 899 C 526 899 455 789 455 571 C 455 463 471 383 505 330 C 538 276 592 250 668 250 Z" unicode="p" />
<glyph horiz-adv-x="1217" d="M 637 -84 L 762 -84 L 762 176 C 733 109 690 60 633 30 C 576 0 510 -16 436 -16 C 358 -16 290 6 234 52 C 177 98 133 166 103 258 C 72 350 57 459 57 586 C 57 778 90 926 158 1030 C 226 1134 324 1186 453 1186 C 532 1186 598 1173 650 1149 C 702 1124 746 1082 782 1022 L 836 1171 L 1184 1153 L 1184 897 L 1069 897 L 1069 -84 L 1184 -84 L 1184 -326 L 637 -326 L 637 -84 Z M 549 252 C 691 252 762 362 762 582 C 762 690 745 770 712 822 C 679 874 625 901 549 901 C 489 901 444 875 415 823 C 385 771 371 690 371 582 C 371 362 430 252 549 252 Z" unicode="q" />
<glyph horiz-adv-x="801" d="M 41 252 L 156 252 L 156 897 L 41 897 L 41 1153 L 397 1171 L 440 977 C 486 1085 581 1149 725 1171 L 766 864 C 658 861 581 840 535 801 C 488 761 465 701 465 621 L 465 252 L 592 252 L 592 0 L 41 0 L 41 252 Z" unicode="r" />
<glyph horiz-adv-x="995" d="M 561 -14 C 483 -14 418 -1 366 23 C 313 47 278 81 260 125 L 260 0 L 49 0 L 49 422 L 276 422 C 289 352 317 301 359 267 C 401 233 453 217 514 217 C 614 217 664 252 664 322 C 664 352 649 377 620 397 C 590 417 542 435 475 453 C 366 479 285 508 231 538 C 177 568 136 607 108 657 C 80 706 66 766 66 836 C 66 940 101 1024 172 1087 C 242 1150 332 1182 442 1182 C 508 1182 565 1170 613 1148 C 661 1126 694 1095 713 1055 L 713 1157 L 924 1157 L 924 778 L 692 778 C 678 834 655 874 622 898 C 589 922 547 934 496 934 C 410 934 367 900 367 834 C 367 803 381 778 411 758 C 441 738 489 721 555 707 C 667 681 749 654 801 624 C 853 594 893 555 920 507 C 947 459 961 400 961 332 C 961 227 924 143 851 80 C 777 17 681 -14 561 -14 Z" unicode="s" />
<glyph horiz-adv-x="852" d="M 520 -12 C 398 -12 311 13 259 65 C 206 116 180 204 180 328 L 180 897 L 10 897 L 10 1157 L 197 1157 L 248 1475 L 489 1475 L 489 1157 L 780 1157 L 780 897 L 489 897 L 489 383 C 489 342 492 314 499 300 C 505 285 516 274 532 268 C 548 261 571 258 602 258 C 624 258 650 260 680 265 C 709 270 732 275 748 281 L 807 29 C 726 1 630 -12 520 -12 Z" unicode="t" />
<glyph horiz-adv-x="1229" d="M 465 -18 C 351 -18 267 16 213 84 C 159 152 133 264 133 418 L 133 897 L 29 897 L 29 1151 L 442 1171 L 442 455 C 442 382 453 331 476 301 C 499 271 537 256 590 256 C 654 256 701 273 730 308 C 759 342 774 400 774 481 L 774 897 L 627 897 L 627 1151 L 1083 1171 L 1083 252 L 1208 252 L 1208 10 L 842 -12 L 803 172 C 745 45 633 -18 465 -18 Z" unicode="u" />
<glyph horiz-adv-x="1161" d="M 117 897 L 20 897 L 20 1157 L 547 1157 L 547 901 L 428 901 L 592 324 L 760 901 L 649 901 L 649 1157 L 1143 1157 L 1143 897 L 1047 897 L 768 -12 L 393 -12 L 117 897 Z" unicode="v" />
<glyph horiz-adv-x="1663" d="M 119 897 L 20 897 L 20 1157 L 514 1157 L 514 897 L 412 897 L 522 379 L 721 1157 L 956 1157 L 1147 375 L 1262 897 L 1153 897 L 1153 1157 L 1642 1157 L 1642 897 L 1538 897 L 1315 -12 L 999 -12 L 829 698 L 657 -12 L 336 -12 L 119 897 Z" unicode="w" />
<glyph horiz-adv-x="1157" d="M 41 252 L 125 252 L 395 586 L 141 897 L 55 897 L 55 1157 L 575 1157 L 575 926 L 489 926 L 629 752 L 762 926 L 678 926 L 678 1157 L 1126 1157 L 1126 897 L 1024 897 L 782 584 L 1059 252 L 1137 252 L 1137 0 L 600 0 L 600 225 L 700 225 L 549 418 L 406 225 L 500 225 L 500 0 L 41 0 L 41 252 Z" unicode="x" />
<glyph horiz-adv-x="1151" d="M 326 -338 C 256 -338 184 -327 111 -307 L 176 -51 C 235 -67 281 -76 315 -76 C 345 -76 368 -72 386 -65 C 404 -57 418 -42 430 -20 L 115 897 L 20 897 L 20 1157 L 543 1157 L 543 901 L 422 901 L 587 319 L 762 901 L 647 901 L 647 1157 L 1133 1157 L 1133 897 L 1038 897 L 700 -70 C 665 -169 620 -238 565 -278 C 509 -318 430 -338 326 -338 Z" unicode="y" />
<glyph horiz-adv-x="1024" d="M 41 252 L 627 924 L 307 924 L 307 733 L 59 733 L 59 1157 L 963 1157 L 963 907 L 381 225 L 733 225 L 733 438 L 985 438 L 985 0 L 41 0 L 41 252 Z" unicode="z" />
<glyph horiz-adv-x="975" d="M 567 -326 C 461 -326 381 -301 327 -252 C 273 -203 246 -134 246 -45 C 246 9 260 89 288 195 C 316 300 330 371 330 408 C 330 433 324 452 314 464 C 303 476 285 485 259 490 C 233 495 185 498 113 498 L 113 758 C 175 758 220 760 249 765 C 277 769 298 777 311 788 C 323 799 330 817 330 842 C 330 874 316 947 288 1061 C 260 1175 246 1255 246 1303 C 246 1391 273 1459 328 1506 C 383 1553 463 1577 567 1577 L 838 1577 L 838 1317 L 702 1317 C 650 1317 614 1308 594 1291 C 574 1274 565 1246 565 1206 C 565 1177 577 1112 602 1012 C 626 911 639 837 639 791 C 639 707 598 653 518 627 C 598 598 639 543 639 461 C 639 423 626 351 602 245 C 577 139 565 71 565 41 C 565 0 576 -30 598 -50 C 620 -70 655 -80 702 -80 L 838 -80 L 838 -326 L 567 -326 Z" unicode="{" />
<glyph horiz-adv-x="678" d="M 182 1577 L 496 1577 L 496 -326 L 182 -326 L 182 1577 Z" unicode="|" />
<glyph horiz-adv-x="975" d="M 139 -80 L 274 -80 C 366 -80 412 -39 412 41 C 412 68 399 136 374 245 C 348 353 336 425 336 461 C 336 543 377 599 459 627 C 377 653 336 708 336 791 C 336 823 340 858 348 897 C 356 935 364 974 374 1012 C 383 1050 392 1086 400 1120 C 408 1154 412 1182 412 1206 C 412 1244 402 1272 383 1290 C 363 1308 327 1317 274 1317 L 139 1317 L 139 1577 L 410 1577 C 513 1577 592 1553 647 1506 C 701 1459 729 1391 729 1303 C 729 1251 715 1170 688 1061 C 660 951 647 878 647 842 C 647 817 653 799 665 788 C 677 777 697 769 725 765 C 753 760 799 758 864 758 L 864 498 C 792 498 743 495 717 490 C 691 485 672 476 662 464 C 652 451 647 432 647 408 C 647 380 651 347 660 310 C 668 273 678 234 688 194 C 698 154 707 113 716 72 C 724 30 729 -8 729 -45 C 729 -134 702 -203 649 -252 C 595 -301 516 -326 410 -326 L 139 -326 L 139 -80 Z" unicode="}" />
<glyph horiz-adv-x="1251" d="M 135 655 C 219 811 318 889 430 889 C 458 889 490 884 524 875 C 558 865 592 855 626 844 C 659 833 690 823 720 814 C 749 805 773 801 793 801 C 817 801 840 808 860 823 C 880 837 901 863 924 901 L 1118 788 C 1076 710 1031 651 983 613 C 935 574 881 555 823 555 C 795 555 764 559 730 569 C 696 578 663 588 630 600 C 596 611 565 621 535 631 C 505 640 481 645 461 645 C 438 645 416 637 396 622 C 376 606 354 581 332 545 L 135 655 Z" unicode="~" />
<glyph horiz-adv-x="1036" d="" unicode="₀" />
<glyph horiz-adv-x="713" d="" unicode="₁" />
<glyph horiz-adv-x="926" d="" unicode="₂" />
<glyph horiz-adv-x="922" d="" unicode="₃" />
<glyph horiz-adv-x="950" d="" unicode="₄" />
<glyph horiz-adv-x="932" d="" unicode="₅" />
<glyph horiz-adv-x="995" d="" unicode="₆" />
<glyph horiz-adv-x="874" d="" unicode="₇" />
<glyph horiz-adv-x="989" d="" unicode="₈" />
<glyph horiz-adv-x="995" d="" unicode="₉" />
<glyph horiz-adv-x="350" d="" unicode=" " />
<glyph horiz-adv-x="709" d="M 217 1047 L 494 1047 L 524 0 L 184 0 L 217 1047 Z M 180 1518 L 532 1518 L 532 1157 L 180 1157 L 180 1518 Z" unicode="¡" />
<glyph horiz-adv-x="1051" d="M 399 1 C 288 25 203 86 145 184 C 86 281 57 414 57 584 C 57 676 70 763 98 845 C 125 926 164 994 215 1050 C 266 1105 327 1141 399 1159 L 399 1323 L 647 1323 L 647 1144 C 698 1120 734 1085 756 1038 L 756 1159 L 975 1159 L 975 705 L 739 705 C 726 779 706 831 678 861 C 650 890 611 905 561 905 C 431 905 367 795 367 575 C 367 463 382 380 414 326 C 446 271 496 244 565 244 C 615 244 656 258 686 288 C 716 318 741 366 760 434 L 1010 369 C 983 257 940 172 880 112 C 820 52 742 14 647 -2 L 647 -193 L 399 -193 L 399 1 Z" unicode="¢" />
<glyph horiz-adv-x="1184" d="M 33 250 C 129 264 195 283 232 307 C 268 331 287 367 287 416 C 287 466 276 535 254 625 L 45 625 L 45 850 L 190 850 C 167 944 156 1021 156 1083 C 156 1205 197 1303 280 1378 C 362 1453 474 1491 616 1491 C 739 1491 838 1459 913 1397 C 987 1334 1037 1242 1063 1120 L 788 1051 C 774 1108 754 1149 727 1173 C 699 1197 663 1210 618 1210 C 574 1210 537 1196 508 1169 C 479 1141 465 1103 465 1053 C 465 996 473 928 489 850 L 791 850 L 791 625 L 543 625 C 560 537 569 468 569 418 C 569 368 563 325 553 291 C 610 266 668 254 727 254 C 774 254 807 266 827 292 C 846 317 856 355 856 406 C 856 428 853 464 848 512 L 1116 541 C 1122 461 1126 411 1126 391 C 1126 251 1095 150 1035 86 C 975 22 880 -10 750 -10 C 631 -10 519 22 414 86 C 328 35 218 2 84 -12 L 33 250 Z" unicode="£" />
<glyph horiz-adv-x="1161" d="M 772 344 C 710 306 645 287 575 287 C 503 287 437 306 379 344 L 221 182 L 53 352 L 217 522 C 189 582 176 651 176 727 C 176 795 189 860 215 922 L 53 1083 L 221 1253 L 371 1102 C 431 1144 499 1165 575 1165 C 652 1165 721 1144 782 1102 L 936 1253 L 1102 1083 L 936 918 C 960 860 973 797 973 727 C 973 661 959 592 932 520 L 1098 354 L 932 184 L 772 344 Z M 575 502 C 625 502 666 522 697 563 C 727 603 743 656 743 721 C 743 787 727 841 697 881 C 666 921 625 942 575 942 C 525 942 484 921 453 881 C 421 841 406 787 406 721 C 406 655 421 602 452 562 C 483 522 524 502 575 502 Z" unicode="¤" />
<glyph horiz-adv-x="1257" d="M 334 246 L 485 246 L 485 401 L 100 401 L 100 606 L 457 606 L 406 700 L 100 700 L 100 905 L 291 905 L 131 1212 L 10 1212 L 10 1473 L 559 1473 L 559 1221 L 436 1221 L 639 809 L 834 1221 L 721 1221 L 721 1473 L 1245 1473 L 1245 1212 L 1122 1212 L 965 905 L 1151 905 L 1151 700 L 850 700 L 801 606 L 1151 606 L 1151 401 L 772 401 L 772 246 L 924 246 L 924 0 L 334 0 L 334 246 Z" unicode="¥" />
<glyph horiz-adv-x="678" d="M 182 465 L 496 465 L 496 -326 L 182 -326 L 182 465 Z M 182 1577 L 496 1577 L 496 788 L 182 788 L 182 1577 Z" unicode="¦" />
<glyph horiz-adv-x="1116" d="M 647 -340 C 511 -340 425 -299 387 -217 L 387 -322 L 174 -322 L 174 61 L 408 61 C 420 5 441 -34 472 -58 C 503 -82 544 -94 594 -94 C 674 -94 715 -60 715 6 C 715 37 700 64 672 86 C 643 108 594 130 525 152 C 405 188 320 221 270 252 C 219 282 180 321 153 367 C 126 413 113 468 113 530 C 113 605 130 667 165 717 C 200 767 248 804 309 829 C 182 897 119 1003 119 1147 C 119 1249 153 1331 223 1395 C 293 1459 383 1491 494 1491 C 562 1491 619 1480 666 1458 C 713 1436 746 1406 766 1366 L 766 1470 L 977 1470 L 977 1087 L 743 1087 C 731 1143 708 1183 675 1207 C 642 1231 600 1243 549 1243 C 461 1243 418 1209 418 1143 C 418 1111 433 1084 465 1062 C 496 1039 545 1018 612 999 C 728 965 813 932 866 901 C 919 869 960 830 988 783 C 1016 736 1030 681 1030 618 C 1030 475 959 377 817 324 C 889 284 940 238 970 188 C 999 138 1014 76 1014 2 C 1014 -102 980 -185 912 -247 C 844 -309 756 -340 647 -340 Z M 612 397 C 651 403 682 420 704 448 C 726 476 737 511 737 555 C 737 645 666 712 524 754 C 443 740 403 686 403 594 C 403 548 420 508 455 474 C 490 440 542 415 612 397 Z" unicode="§" />
<glyph horiz-adv-x="1001" d="M 166 1542 L 440 1542 L 440 1266 L 166 1266 L 166 1542 Z M 561 1542 L 836 1542 L 836 1266 L 561 1266 L 561 1542 Z" unicode="¨" />
<glyph horiz-adv-x="1364" d="M 682 -20 C 554 -20 442 12 348 78 C 254 143 182 235 132 353 C 82 471 57 606 57 760 C 57 914 83 1051 136 1172 C 189 1292 263 1384 357 1447 C 451 1510 559 1542 682 1542 C 809 1542 920 1510 1014 1446 C 1108 1382 1180 1291 1232 1172 C 1283 1053 1309 916 1309 760 C 1309 610 1283 475 1232 355 C 1180 235 1107 143 1013 78 C 919 12 808 -20 682 -20 Z M 682 96 C 786 96 876 123 952 178 C 1028 232 1086 310 1126 410 C 1166 510 1186 627 1186 760 C 1186 892 1165 1009 1125 1110 C 1085 1210 1026 1288 950 1343 C 874 1397 784 1425 682 1425 C 578 1425 489 1397 414 1342 C 338 1287 280 1209 240 1109 C 200 1009 180 892 180 760 C 180 628 200 511 240 411 C 280 311 337 233 413 178 C 489 123 578 96 682 96 Z M 672 276 C 554 276 463 317 398 401 C 333 485 301 601 301 750 C 301 890 334 1006 400 1096 C 466 1186 552 1231 659 1231 C 754 1231 820 1198 858 1133 L 858 1219 L 1012 1219 L 1012 899 L 840 899 C 829 952 810 989 784 1010 C 758 1031 724 1042 682 1042 C 624 1042 579 1016 548 966 C 517 916 502 843 502 748 C 502 552 563 455 686 455 C 735 455 773 468 801 495 C 828 522 848 564 860 621 L 1030 582 C 1008 483 967 407 907 355 C 846 302 768 276 672 276 Z" unicode="©" />
<glyph horiz-adv-x="1040" d="M 365 522 C 285 522 223 547 178 599 C 133 650 111 723 111 819 C 111 915 142 990 206 1042 C 269 1094 359 1120 475 1120 C 510 1120 556 1115 614 1106 L 614 1128 C 614 1175 604 1209 585 1231 C 566 1253 535 1264 492 1264 C 415 1264 350 1236 297 1182 L 145 1343 C 191 1391 246 1428 311 1453 C 375 1478 444 1491 518 1491 C 637 1491 724 1463 779 1407 C 834 1351 862 1265 862 1147 L 862 741 L 946 741 L 946 547 L 659 526 L 629 666 C 582 570 494 522 365 522 Z M 455 727 C 561 727 614 785 614 903 L 614 954 C 584 961 557 965 532 965 C 470 965 424 955 395 935 C 366 915 352 882 352 838 C 352 764 386 727 455 727 Z M 156 428 L 881 428 L 881 205 L 156 205 L 156 428 Z" unicode="ª" />
<glyph horiz-adv-x="1333" d="M 131 578 L 389 1157 L 657 1157 L 426 578 L 657 0 L 389 0 L 131 578 Z M 629 578 L 885 1157 L 1153 1157 L 924 578 L 1153 0 L 885 0 L 629 578 Z" unicode="«" />
<glyph horiz-adv-x="1251" d="M 774 580 L 139 580 L 139 866 L 1081 866 L 1081 215 L 774 215 L 774 580 Z" unicode="¬" />
<glyph horiz-adv-x="715" d="M 61 823 L 649 823 L 649 541 L 61 541 L 61 823 Z" unicode="­" />
<glyph horiz-adv-x="1161" d="M 582 340 C 484 340 398 365 325 415 C 252 465 196 536 158 628 C 119 720 100 825 100 942 C 100 1059 119 1164 159 1256 C 198 1348 254 1418 327 1468 C 400 1517 485 1542 582 1542 C 728 1542 844 1487 931 1378 C 1017 1269 1061 1124 1061 942 C 1061 822 1042 716 1004 625 C 966 534 910 464 838 414 C 765 364 680 340 582 340 Z M 582 434 C 700 434 793 479 862 569 C 930 659 965 783 965 942 C 965 1100 930 1224 862 1314 C 793 1404 700 1450 582 1450 C 462 1450 369 1404 301 1314 C 233 1223 199 1099 199 942 C 199 784 233 660 301 570 C 369 479 462 434 582 434 Z M 322 737 L 373 737 L 373 1165 L 322 1165 L 322 1288 L 594 1288 C 669 1288 728 1269 770 1233 C 812 1197 834 1141 834 1065 C 834 973 798 911 727 879 L 805 737 L 856 737 L 856 621 L 616 621 L 616 731 L 651 731 L 594 848 L 514 848 L 514 731 L 559 731 L 559 621 L 322 621 L 322 737 Z M 594 956 C 626 956 650 964 664 981 C 678 998 686 1025 686 1061 C 686 1098 678 1125 663 1142 C 648 1158 622 1167 584 1167 L 514 1167 L 514 956 L 594 956 Z" unicode="®" />
<glyph horiz-adv-x="1001" d="M 166 1522 L 836 1522 L 836 1266 L 166 1266 L 166 1522 Z" unicode="¯" />
<glyph horiz-adv-x="993" d="M 498 512 C 366 512 263 555 191 642 C 118 729 82 849 82 1001 C 82 1153 118 1273 191 1361 C 263 1449 366 1493 498 1493 C 628 1493 730 1449 803 1362 C 876 1274 913 1154 913 1001 C 913 849 876 730 804 643 C 732 555 630 512 498 512 Z M 498 737 C 550 737 591 758 619 802 C 647 845 662 909 662 993 C 662 1076 648 1140 620 1184 C 592 1228 552 1251 498 1251 C 388 1251 334 1165 334 993 C 334 822 388 737 498 737 Z" unicode="°" />
<glyph horiz-adv-x="1251" d="M 471 662 L 156 662 L 156 946 L 471 946 L 471 1288 L 780 1288 L 780 946 L 1096 946 L 1096 662 L 780 662 L 780 315 L 471 315 L 471 662 Z M 156 287 L 1096 287 L 1096 0 L 156 0 L 156 287 Z" unicode="±" />
<glyph horiz-adv-x="926" d="M 102 731 L 346 958 C 398 1008 439 1049 467 1082 C 495 1114 515 1143 527 1168 C 539 1193 545 1226 545 1266 C 545 1296 535 1320 517 1340 C 498 1360 471 1370 436 1370 C 400 1370 370 1360 347 1341 C 323 1321 304 1291 289 1249 L 84 1313 C 112 1401 158 1468 222 1513 C 285 1558 361 1581 451 1581 C 554 1581 635 1555 694 1503 C 752 1451 782 1381 782 1292 C 782 1222 763 1156 725 1092 C 687 1028 623 953 532 866 L 358 700 L 610 700 L 610 850 L 807 850 L 807 537 L 102 537 L 102 731 Z" unicode="²" />
<glyph horiz-adv-x="922" d="M 457 522 C 349 522 261 545 192 593 C 123 641 77 709 55 799 L 262 856 C 289 770 345 727 430 727 C 479 727 517 738 543 762 C 569 785 582 818 582 862 C 582 914 564 951 528 973 C 492 995 427 1006 332 1006 L 332 1171 C 415 1171 473 1179 506 1197 C 538 1215 555 1246 555 1290 C 555 1315 544 1336 524 1354 C 504 1371 474 1380 434 1380 C 390 1380 356 1371 333 1353 C 309 1335 292 1310 281 1280 L 88 1341 C 110 1415 154 1474 220 1518 C 286 1561 362 1583 449 1583 C 554 1583 636 1561 695 1517 C 754 1473 784 1412 784 1335 C 784 1218 735 1140 637 1102 C 757 1068 817 982 817 844 C 817 746 784 667 718 609 C 652 551 565 522 457 522 Z" unicode="³" />
<glyph horiz-adv-x="1001" d="M 211 1452 L 731 1649 L 807 1399 L 274 1247 L 211 1452 Z" unicode="´" />
<glyph horiz-adv-x="1241" d="M 152 897 L 35 897 L 35 1151 L 459 1169 L 459 461 C 459 383 470 329 493 299 C 516 269 554 254 606 254 C 672 254 719 271 749 305 C 778 339 793 398 793 481 L 793 897 L 643 897 L 643 1151 L 1102 1169 L 1102 252 L 1223 252 L 1223 10 L 856 -14 L 821 170 C 796 115 759 72 709 42 C 659 11 598 -4 528 -4 C 492 -4 469 5 459 23 L 459 -326 L 152 -326 L 152 897 Z" unicode="µ" />
<glyph horiz-adv-x="1251" d="M 264 252 L 391 252 L 391 526 C 291 553 214 605 162 683 C 110 760 84 861 84 987 C 84 1143 129 1264 221 1348 C 312 1432 446 1475 623 1475 L 1206 1475 L 1206 1210 L 1090 1210 L 1090 252 L 1206 252 L 1206 0 L 791 0 L 791 492 L 674 492 L 674 0 L 264 0 L 264 252 Z M 791 725 L 791 1214 L 643 1214 C 557 1214 494 1195 455 1157 C 416 1119 397 1057 397 973 C 397 890 415 828 453 787 C 491 745 550 725 631 725 L 791 725 Z" unicode="¶" />
<glyph horiz-adv-x="535" d="M 92 928 L 442 928 L 442 555 L 92 555 L 92 928 Z" unicode="·" />
<glyph horiz-adv-x="1001" d="M 506 -469 C 407 -469 325 -453 260 -422 L 336 -264 C 392 -288 442 -301 487 -301 C 557 -301 592 -276 592 -227 C 592 -181 554 -159 479 -159 L 444 -160 L 387 -123 L 414 14 L 584 14 L 571 -74 L 615 -70 C 669 -70 711 -85 742 -117 C 772 -149 788 -192 788 -246 C 788 -315 762 -369 712 -409 C 662 -449 593 -469 506 -469 Z" unicode="¸" />
<glyph horiz-adv-x="713" d="M 131 727 L 266 727 L 266 1339 C 223 1323 175 1315 121 1315 L 121 1530 C 232 1530 313 1542 365 1567 L 502 1567 L 502 727 L 621 727 L 621 537 L 131 537 L 131 727 Z" unicode="¹" />
<glyph horiz-adv-x="1036" d="M 518 518 C 387 518 286 561 214 647 C 142 733 106 852 106 1006 C 106 1159 142 1278 214 1364 C 286 1450 388 1493 518 1493 C 649 1493 751 1450 823 1364 C 895 1278 932 1159 932 1006 C 932 851 895 731 823 646 C 751 560 649 518 518 518 Z M 518 741 C 622 741 674 826 674 997 C 674 1169 622 1255 518 1255 C 416 1255 365 1169 365 997 C 365 826 416 741 518 741 Z M 156 428 L 883 428 L 883 205 L 156 205 L 156 428 Z" unicode="º" />
<glyph horiz-adv-x="1333" d="M 449 0 L 180 0 L 412 578 L 180 1157 L 449 1157 L 705 578 L 449 0 Z M 946 0 L 676 0 L 905 578 L 676 1157 L 946 1157 L 1200 578 L 946 0 Z" unicode="»" />
<glyph horiz-adv-x="1905" d="M 90 639 L 225 639 L 225 1249 C 186 1234 138 1227 80 1227 L 80 1442 C 191 1442 272 1454 324 1479 L 461 1479 L 461 639 L 580 639 L 580 449 L 90 449 L 90 639 Z M 1145 1475 L 1421 1475 L 717 0 L 438 0 L 1145 1475 Z M 1393 178 L 1509 178 L 1509 270 L 1075 270 L 1075 442 L 1448 1030 L 1692 1030 L 1323 453 L 1513 453 L 1559 657 L 1726 657 L 1726 453 L 1858 453 L 1858 270 L 1726 270 L 1726 178 L 1833 178 L 1833 0 L 1393 0 L 1393 178 Z" unicode="¼" />
<glyph horiz-adv-x="2011" d="M 90 639 L 225 639 L 225 1249 C 186 1234 138 1227 80 1227 L 80 1442 C 191 1442 272 1454 324 1479 L 461 1479 L 461 639 L 580 639 L 580 449 L 90 449 L 90 639 Z M 1145 1475 L 1421 1475 L 717 0 L 438 0 L 1145 1475 Z M 1227 193 L 1473 422 C 1525 471 1566 512 1594 545 C 1622 577 1641 606 1653 631 C 1665 656 1671 689 1671 729 C 1671 757 1661 781 1643 801 C 1624 821 1597 831 1563 831 C 1527 831 1497 821 1473 803 C 1449 785 1429 755 1413 713 L 1210 774 C 1236 858 1281 924 1343 972 C 1405 1020 1483 1044 1577 1044 C 1678 1044 1758 1018 1818 968 C 1877 917 1907 846 1907 756 C 1907 688 1889 623 1854 561 C 1819 499 1753 422 1657 330 L 1485 162 L 1737 162 L 1737 311 L 1933 311 L 1933 0 L 1227 0 L 1227 193 Z" unicode="½" />
<glyph horiz-adv-x="2017" d="M 1255 1475 L 1534 1475 L 829 0 L 551 0 L 1255 1475 Z M 1505 178 L 1622 178 L 1622 270 L 1186 270 L 1186 442 L 1561 1030 L 1804 1030 L 1434 453 L 1626 453 L 1671 657 L 1839 657 L 1839 453 L 1968 453 L 1968 270 L 1839 270 L 1839 178 L 1946 178 L 1946 0 L 1505 0 L 1505 178 Z M 416 434 C 308 434 220 457 151 505 C 82 553 36 621 14 711 L 221 768 C 249 680 305 637 389 637 C 438 637 476 648 502 672 C 528 696 541 730 541 774 C 541 826 522 863 485 885 C 448 907 383 918 291 918 L 291 1081 C 374 1081 432 1090 465 1108 C 497 1126 514 1157 514 1202 C 514 1226 503 1247 483 1265 C 463 1283 433 1292 393 1292 C 349 1292 315 1283 292 1265 C 268 1247 251 1222 240 1192 L 47 1253 C 69 1327 113 1386 179 1430 C 245 1473 321 1495 408 1495 C 513 1495 595 1473 654 1429 C 713 1385 743 1324 743 1247 C 743 1129 694 1051 596 1014 C 716 980 776 894 776 756 C 776 658 743 579 677 521 C 611 463 524 434 416 434 Z" unicode="¾" />
<glyph horiz-adv-x="1182" d="M 575 -23 C 431 -23 319 12 238 84 C 157 155 117 255 117 385 C 117 451 131 512 161 568 C 191 624 235 678 295 731 C 358 786 403 836 431 881 C 459 925 473 973 473 1024 L 473 1047 L 471 1069 L 764 1069 L 768 1006 C 768 936 753 873 724 816 C 694 759 652 707 596 660 C 530 604 484 560 460 526 C 436 492 424 455 424 416 C 424 370 438 333 466 305 C 494 277 539 264 600 264 C 657 264 703 280 739 311 C 774 341 804 384 829 438 L 1094 346 C 1056 230 991 139 899 74 C 807 9 699 -23 575 -23 Z M 446 1518 L 797 1518 L 797 1192 L 446 1192 L 446 1518 Z" unicode="¿" />
<glyph horiz-adv-x="1446" d="M 41 258 L 139 258 L 541 1528 L 905 1528 L 1307 258 L 1407 258 L 1407 0 L 825 0 L 825 246 L 983 246 L 932 414 L 483 414 L 434 246 L 582 246 L 582 0 L 41 0 L 41 258 Z M 866 643 L 711 1165 L 553 643 L 866 643 Z M 412 1737 L 487 1987 L 1008 1788 L 946 1583 L 412 1737 Z" unicode="À" />
<glyph horiz-adv-x="1446" d="M 41 258 L 139 258 L 541 1528 L 905 1528 L 1307 258 L 1407 258 L 1407 0 L 825 0 L 825 246 L 983 246 L 932 414 L 483 414 L 434 246 L 582 246 L 582 0 L 41 0 L 41 258 Z M 866 643 L 711 1165 L 553 643 L 866 643 Z M 432 1788 L 952 1985 L 1028 1735 L 495 1583 L 432 1788 Z" unicode="Á" />
<glyph horiz-adv-x="1446" d="M 41 258 L 139 258 L 541 1528 L 905 1528 L 1307 258 L 1407 258 L 1407 0 L 825 0 L 825 246 L 983 246 L 932 414 L 483 414 L 434 246 L 582 246 L 582 0 L 41 0 L 41 258 Z M 866 643 L 711 1165 L 553 643 L 866 643 Z M 340 1757 L 665 1966 L 776 1966 L 1104 1757 L 1018 1587 L 721 1710 L 424 1587 L 340 1757 Z" unicode="Â" />
<glyph horiz-adv-x="1446" d="M 41 258 L 139 258 L 541 1528 L 905 1528 L 1307 258 L 1407 258 L 1407 0 L 825 0 L 825 246 L 983 246 L 932 414 L 483 414 L 434 246 L 582 246 L 582 0 L 41 0 L 41 258 Z M 866 643 L 711 1165 L 553 643 L 866 643 Z M 307 1702 C 384 1856 478 1933 590 1933 C 616 1933 639 1928 661 1920 C 682 1912 702 1903 720 1893 C 738 1883 756 1874 772 1866 C 788 1858 803 1854 819 1854 C 862 1854 902 1885 938 1948 L 1132 1839 C 1092 1760 1047 1702 998 1664 C 948 1626 898 1608 846 1608 C 821 1608 798 1612 777 1620 C 756 1628 736 1637 718 1647 C 700 1657 682 1666 666 1674 C 650 1682 634 1686 618 1686 C 597 1686 577 1679 559 1666 C 540 1652 520 1627 500 1591 L 307 1702 Z" unicode="Ã" />
<glyph horiz-adv-x="1446" d="M 41 258 L 139 258 L 541 1528 L 905 1528 L 1307 258 L 1407 258 L 1407 0 L 825 0 L 825 246 L 983 246 L 932 414 L 483 414 L 434 246 L 582 246 L 582 0 L 41 0 L 41 258 Z M 866 643 L 711 1165 L 553 643 L 866 643 Z M 385 1878 L 659 1878 L 659 1602 L 385 1602 L 385 1878 Z M 780 1878 L 1055 1878 L 1055 1602 L 780 1602 L 780 1878 Z" unicode="Ä" />
<glyph horiz-adv-x="1448" d="M 41 258 L 141 258 L 530 1491 C 486 1531 465 1592 465 1673 C 465 1757 487 1826 533 1878 C 579 1930 641 1956 721 1956 C 799 1956 861 1929 907 1877 C 953 1824 977 1756 977 1673 C 977 1597 956 1538 915 1495 L 1309 258 L 1403 258 L 1403 0 L 825 0 L 825 246 L 983 246 L 932 424 L 487 424 L 434 246 L 582 246 L 582 0 L 41 0 L 41 258 Z M 721 1546 C 755 1546 780 1557 796 1581 C 812 1604 821 1635 821 1673 C 821 1711 812 1742 796 1766 C 780 1790 755 1802 721 1802 C 687 1802 662 1790 644 1766 C 626 1742 618 1711 618 1673 C 618 1635 626 1604 644 1581 C 662 1557 687 1546 721 1546 Z M 866 643 L 713 1165 L 553 643 L 866 643 Z" unicode="Å" />
<glyph horiz-adv-x="1966" d="M 33 258 L 139 258 L 594 1251 L 461 1251 L 461 1518 L 1880 1518 L 1880 1001 L 1591 1001 L 1591 1262 L 1214 1262 L 1214 895 L 1536 895 L 1536 639 L 1214 639 L 1214 252 L 1606 252 L 1606 543 L 1894 543 L 1894 0 L 748 0 L 748 252 L 901 252 L 901 449 L 530 449 L 440 246 L 563 246 L 563 0 L 33 0 L 33 258 Z M 901 670 L 901 1249 L 635 670 L 901 670 Z" unicode="Æ" />
<glyph horiz-adv-x="1329" d="M 674 -20 C 478 -20 327 48 220 186 C 112 323 59 512 59 754 C 59 904 83 1040 133 1161 C 183 1281 253 1375 344 1441 C 434 1507 537 1540 653 1540 C 819 1540 929 1484 983 1374 L 983 1518 L 1233 1518 L 1233 1001 L 961 1001 C 943 1084 913 1145 869 1185 C 825 1225 766 1245 690 1245 C 592 1245 516 1202 464 1118 C 411 1034 385 912 385 754 C 385 592 411 470 464 388 C 516 305 594 264 696 264 C 770 264 831 286 879 331 C 926 376 961 447 983 543 L 1257 492 C 1224 325 1158 198 1058 111 C 958 23 830 -20 674 -20 Z M 670 -469 C 571 -469 489 -453 424 -422 L 500 -264 C 556 -288 606 -301 651 -301 C 721 -301 756 -276 756 -227 C 756 -181 718 -159 643 -159 L 608 -160 L 551 -123 L 578 14 L 748 14 L 735 -74 L 779 -70 C 833 -70 875 -85 906 -117 C 936 -149 952 -192 952 -246 C 952 -315 926 -369 876 -409 C 826 -449 757 -469 670 -469 Z" unicode="Ç" />
<glyph horiz-adv-x="1243" d="M 41 258 L 172 258 L 172 1251 L 41 1251 L 41 1518 L 1157 1518 L 1157 1001 L 868 1001 L 868 1266 L 492 1266 L 492 895 L 811 895 L 811 639 L 492 639 L 492 246 L 883 246 L 883 543 L 1171 543 L 1171 0 L 41 0 L 41 258 Z M 318 1737 L 393 1987 L 914 1788 L 852 1583 L 318 1737 Z" unicode="È" />
<glyph horiz-adv-x="1243" d="M 332 1788 L 852 1985 L 928 1735 L 395 1583 L 332 1788 Z M 41 258 L 172 258 L 172 1251 L 41 1251 L 41 1518 L 1157 1518 L 1157 1001 L 868 1001 L 868 1266 L 492 1266 L 492 895 L 811 895 L 811 639 L 492 639 L 492 246 L 883 246 L 883 543 L 1171 543 L 1171 0 L 41 0 L 41 258 Z" unicode="É" />
<glyph horiz-adv-x="1243" d="M 242 1757 L 567 1966 L 678 1966 L 1006 1757 L 920 1587 L 623 1710 L 326 1587 L 242 1757 Z M 41 258 L 172 258 L 172 1251 L 41 1251 L 41 1518 L 1157 1518 L 1157 1001 L 868 1001 L 868 1266 L 492 1266 L 492 895 L 811 895 L 811 639 L 492 639 L 492 246 L 883 246 L 883 543 L 1171 543 L 1171 0 L 41 0 L 41 258 Z" unicode="Ê" />
<glyph horiz-adv-x="1243" d="M 287 1878 L 561 1878 L 561 1602 L 287 1602 L 287 1878 Z M 682 1878 L 957 1878 L 957 1602 L 682 1602 L 682 1878 Z M 41 258 L 172 258 L 172 1251 L 41 1251 L 41 1518 L 1157 1518 L 1157 1001 L 868 1001 L 868 1266 L 492 1266 L 492 895 L 811 895 L 811 639 L 492 639 L 492 246 L 883 246 L 883 543 L 1171 543 L 1171 0 L 41 0 L 41 258 Z" unicode="Ë" />
<glyph horiz-adv-x="684" d="M 41 258 L 184 258 L 184 1251 L 41 1251 L 41 1518 L 645 1518 L 645 1251 L 502 1251 L 502 258 L 645 258 L 645 0 L 41 0 L 41 258 Z M 40 1737 L 115 1987 L 636 1788 L 574 1583 L 40 1737 Z" unicode="Ì" />
<glyph horiz-adv-x="684" d="M 41 258 L 184 258 L 184 1251 L 41 1251 L 41 1518 L 645 1518 L 645 1251 L 502 1251 L 502 258 L 645 258 L 645 0 L 41 0 L 41 258 Z M 54 1788 L 574 1985 L 650 1735 L 117 1583 L 54 1788 Z" unicode="Í" />
<glyph horiz-adv-x="684" d="M 41 258 L 184 258 L 184 1251 L 41 1251 L 41 1518 L 645 1518 L 645 1251 L 502 1251 L 502 258 L 645 258 L 645 0 L 41 0 L 41 258 Z M -36 1757 L 289 1966 L 400 1966 L 728 1757 L 642 1587 L 345 1710 L 48 1587 L -36 1757 Z" unicode="Î" />
<glyph horiz-adv-x="684" d="M 41 258 L 184 258 L 184 1251 L 41 1251 L 41 1518 L 645 1518 L 645 1251 L 502 1251 L 502 258 L 645 258 L 645 0 L 41 0 L 41 258 Z M 9 1878 L 283 1878 L 283 1602 L 9 1602 L 9 1878 Z M 404 1878 L 679 1878 L 679 1602 L 404 1602 L 404 1878 Z" unicode="Ï" />
<glyph horiz-adv-x="1364" d="M 41 258 L 172 258 L 172 633 L 55 633 L 55 897 L 172 897 L 172 1251 L 41 1251 L 41 1518 L 627 1518 C 848 1518 1016 1453 1132 1325 C 1247 1197 1305 1008 1305 760 C 1305 513 1245 325 1126 195 C 1006 65 834 0 610 0 L 41 0 L 41 258 Z M 631 262 C 749 262 837 302 893 382 C 949 462 977 588 977 760 C 977 930 948 1054 892 1131 C 836 1208 744 1247 618 1247 L 489 1247 L 489 897 L 705 897 L 705 633 L 489 633 L 489 262 L 631 262 Z" unicode="Ð" />
<glyph horiz-adv-x="1483" d="M 41 258 L 172 258 L 172 1251 L 41 1251 L 41 1518 L 524 1518 L 1028 606 L 1028 1251 L 907 1251 L 907 1518 L 1444 1518 L 1444 1251 L 1323 1251 L 1323 0 L 1022 0 L 467 975 L 467 258 L 602 258 L 602 0 L 41 0 L 41 258 Z M 328 1702 C 405 1856 499 1933 611 1933 C 637 1933 660 1928 682 1920 C 703 1912 723 1903 741 1893 C 759 1883 777 1874 793 1866 C 809 1858 824 1854 840 1854 C 883 1854 923 1885 959 1948 L 1153 1839 C 1113 1760 1068 1702 1019 1664 C 969 1626 919 1608 867 1608 C 842 1608 819 1612 798 1620 C 777 1628 757 1637 739 1647 C 721 1657 703 1666 687 1674 C 671 1682 655 1686 639 1686 C 618 1686 598 1679 580 1666 C 561 1652 541 1627 521 1591 L 328 1702 Z" unicode="Ñ" />
<glyph horiz-adv-x="1399" d="M 698 -20 C 572 -20 461 12 363 76 C 265 140 190 232 138 350 C 85 468 59 605 59 760 C 59 913 85 1049 139 1168 C 192 1287 267 1379 365 1443 C 462 1507 573 1540 698 1540 C 826 1540 938 1508 1036 1446 C 1134 1383 1209 1293 1262 1175 C 1314 1057 1341 919 1341 760 C 1341 606 1314 469 1260 350 C 1206 230 1130 139 1032 75 C 934 11 822 -20 698 -20 Z M 698 262 C 798 262 876 305 932 391 C 988 477 1016 598 1016 754 C 1016 909 988 1030 932 1116 C 876 1202 798 1245 698 1245 C 598 1245 520 1201 466 1114 C 412 1026 385 906 385 754 C 385 600 412 479 467 392 C 521 305 598 262 698 262 Z M 394 1737 L 469 1987 L 990 1788 L 928 1583 L 394 1737 Z" unicode="Ò" />
<glyph horiz-adv-x="1399" d="M 408 1788 L 928 1985 L 1004 1735 L 471 1583 L 408 1788 Z M 698 -20 C 572 -20 461 12 363 76 C 265 140 190 232 138 350 C 85 468 59 605 59 760 C 59 913 85 1049 139 1168 C 192 1287 267 1379 365 1443 C 462 1507 573 1540 698 1540 C 826 1540 938 1508 1036 1446 C 1134 1383 1209 1293 1262 1175 C 1314 1057 1341 919 1341 760 C 1341 606 1314 469 1260 350 C 1206 230 1130 139 1032 75 C 934 11 822 -20 698 -20 Z M 698 262 C 798 262 876 305 932 391 C 988 477 1016 598 1016 754 C 1016 909 988 1030 932 1116 C 876 1202 798 1245 698 1245 C 598 1245 520 1201 466 1114 C 412 1026 385 906 385 754 C 385 600 412 479 467 392 C 521 305 598 262 698 262 Z" unicode="Ó" />
<glyph horiz-adv-x="1399" d="M 318 1757 L 643 1966 L 754 1966 L 1082 1757 L 996 1587 L 699 1710 L 402 1587 L 318 1757 Z M 698 -20 C 572 -20 461 12 363 76 C 265 140 190 232 138 350 C 85 468 59 605 59 760 C 59 913 85 1049 139 1168 C 192 1287 267 1379 365 1443 C 462 1507 573 1540 698 1540 C 826 1540 938 1508 1036 1446 C 1134 1383 1209 1293 1262 1175 C 1314 1057 1341 919 1341 760 C 1341 606 1314 469 1260 350 C 1206 230 1130 139 1032 75 C 934 11 822 -20 698 -20 Z M 698 262 C 798 262 876 305 932 391 C 988 477 1016 598 1016 754 C 1016 909 988 1030 932 1116 C 876 1202 798 1245 698 1245 C 598 1245 520 1201 466 1114 C 412 1026 385 906 385 754 C 385 600 412 479 467 392 C 521 305 598 262 698 262 Z" unicode="Ô" />
<glyph horiz-adv-x="1399" d="M 698 -20 C 572 -20 461 12 363 76 C 265 140 190 232 138 350 C 85 468 59 605 59 760 C 59 913 85 1049 139 1168 C 192 1287 267 1379 365 1443 C 462 1507 573 1540 698 1540 C 826 1540 938 1508 1036 1446 C 1134 1383 1209 1293 1262 1175 C 1314 1057 1341 919 1341 760 C 1341 606 1314 469 1260 350 C 1206 230 1130 139 1032 75 C 934 11 822 -20 698 -20 Z M 698 262 C 798 262 876 305 932 391 C 988 477 1016 598 1016 754 C 1016 909 988 1030 932 1116 C 876 1202 798 1245 698 1245 C 598 1245 520 1201 466 1114 C 412 1026 385 906 385 754 C 385 600 412 479 467 392 C 521 305 598 262 698 262 Z M 285 1702 C 362 1856 456 1933 568 1933 C 594 1933 617 1928 639 1920 C 660 1912 680 1903 698 1893 C 716 1883 734 1874 750 1866 C 766 1858 781 1854 797 1854 C 840 1854 880 1885 916 1948 L 1110 1839 C 1070 1760 1025 1702 976 1664 C 926 1626 876 1608 824 1608 C 799 1608 776 1612 755 1620 C 734 1628 714 1637 696 1647 C 678 1657 660 1666 644 1674 C 628 1682 612 1686 596 1686 C 575 1686 555 1679 537 1666 C 518 1652 498 1627 478 1591 L 285 1702 Z" unicode="Õ" />
<glyph horiz-adv-x="1399" d="M 363 1878 L 637 1878 L 637 1602 L 363 1602 L 363 1878 Z M 758 1878 L 1033 1878 L 1033 1602 L 758 1602 L 758 1878 Z M 698 -20 C 572 -20 461 12 363 76 C 265 140 190 232 138 350 C 85 468 59 605 59 760 C 59 913 85 1049 139 1168 C 192 1287 267 1379 365 1443 C 462 1507 573 1540 698 1540 C 826 1540 938 1508 1036 1446 C 1134 1383 1209 1293 1262 1175 C 1314 1057 1341 919 1341 760 C 1341 606 1314 469 1260 350 C 1206 230 1130 139 1032 75 C 934 11 822 -20 698 -20 Z M 698 262 C 798 262 876 305 932 391 C 988 477 1016 598 1016 754 C 1016 909 988 1030 932 1116 C 876 1202 798 1245 698 1245 C 598 1245 520 1201 466 1114 C 412 1026 385 906 385 754 C 385 600 412 479 467 392 C 521 305 598 262 698 262 Z" unicode="Ö" />
<glyph horiz-adv-x="1251" d="M 207 483 L 446 723 L 207 961 L 387 1143 L 625 903 L 862 1143 L 1042 958 L 803 721 L 1042 485 L 864 301 L 625 541 L 387 301 L 207 483 Z" unicode="×" />
<glyph horiz-adv-x="1395" d="M 698 -20 C 634 -20 571 -11 509 7 L 453 -125 L 201 -125 L 308 117 C 230 183 169 271 125 379 C 81 487 59 614 59 760 C 59 913 85 1049 139 1168 C 192 1287 267 1379 365 1443 C 462 1507 573 1540 698 1540 C 764 1540 827 1531 887 1513 L 944 1645 L 1196 1645 L 1090 1407 C 1168 1341 1230 1254 1274 1146 C 1318 1037 1341 908 1341 760 C 1341 606 1314 469 1260 350 C 1206 230 1130 139 1032 75 C 934 11 822 -20 698 -20 Z M 698 252 C 802 252 882 296 940 385 C 997 473 1026 596 1026 754 C 1026 904 1000 1023 948 1112 L 599 268 C 628 257 661 252 698 252 Z M 375 754 C 375 608 399 492 448 405 L 791 1245 C 761 1255 730 1260 698 1260 C 596 1260 516 1215 460 1127 C 403 1038 375 914 375 754 Z" unicode="Ø" />
<glyph horiz-adv-x="1468" d="M 733 -20 C 546 -20 403 26 305 119 C 207 212 158 351 158 535 L 158 1251 L 41 1251 L 41 1518 L 655 1518 L 655 1260 L 479 1260 L 479 561 C 479 454 500 377 543 329 C 585 281 651 258 739 258 C 830 258 896 282 937 330 C 978 378 999 455 999 561 L 999 1260 L 823 1260 L 823 1518 L 1427 1518 L 1427 1251 L 1311 1251 L 1311 535 C 1311 354 1261 216 1162 122 C 1062 27 919 -20 733 -20 Z M 430 1737 L 505 1987 L 1026 1788 L 964 1583 L 430 1737 Z" unicode="Ù" />
<glyph horiz-adv-x="1468" d="M 444 1788 L 964 1985 L 1040 1735 L 507 1583 L 444 1788 Z M 733 -20 C 546 -20 403 26 305 119 C 207 212 158 351 158 535 L 158 1251 L 41 1251 L 41 1518 L 655 1518 L 655 1260 L 479 1260 L 479 561 C 479 454 500 377 543 329 C 585 281 651 258 739 258 C 830 258 896 282 937 330 C 978 378 999 455 999 561 L 999 1260 L 823 1260 L 823 1518 L 1427 1518 L 1427 1251 L 1311 1251 L 1311 535 C 1311 354 1261 216 1162 122 C 1062 27 919 -20 733 -20 Z" unicode="Ú" />
<glyph horiz-adv-x="1468" d="M 357 1757 L 682 1966 L 793 1966 L 1121 1757 L 1035 1587 L 738 1710 L 441 1587 L 357 1757 Z M 733 -20 C 546 -20 403 26 305 119 C 207 212 158 351 158 535 L 158 1251 L 41 1251 L 41 1518 L 655 1518 L 655 1260 L 479 1260 L 479 561 C 479 454 500 377 543 329 C 585 281 651 258 739 258 C 830 258 896 282 937 330 C 978 378 999 455 999 561 L 999 1260 L 823 1260 L 823 1518 L 1427 1518 L 1427 1251 L 1311 1251 L 1311 535 C 1311 354 1261 216 1162 122 C 1062 27 919 -20 733 -20 Z" unicode="Û" />
<glyph horiz-adv-x="1468" d="M 402 1878 L 676 1878 L 676 1602 L 402 1602 L 402 1878 Z M 797 1878 L 1072 1878 L 1072 1602 L 797 1602 L 797 1878 Z M 733 -20 C 546 -20 403 26 305 119 C 207 212 158 351 158 535 L 158 1251 L 41 1251 L 41 1518 L 655 1518 L 655 1260 L 479 1260 L 479 561 C 479 454 500 377 543 329 C 585 281 651 258 739 258 C 830 258 896 282 937 330 C 978 378 999 455 999 561 L 999 1260 L 823 1260 L 823 1518 L 1427 1518 L 1427 1251 L 1311 1251 L 1311 535 C 1311 354 1261 216 1162 122 C 1062 27 919 -20 733 -20 Z" unicode="Ü" />
<glyph horiz-adv-x="1372" d="M 375 252 L 528 252 L 528 537 L 135 1251 L 41 1251 L 41 1518 L 610 1518 L 610 1262 L 461 1262 L 696 811 L 926 1262 L 786 1262 L 786 1518 L 1331 1518 L 1331 1251 L 1235 1251 L 848 532 L 848 252 L 999 252 L 999 0 L 375 0 L 375 252 Z M 395 1788 L 915 1985 L 991 1735 L 458 1583 L 395 1788 Z" unicode="Ý" />
<glyph horiz-adv-x="1300" d="M 41 258 L 172 258 L 172 1251 L 41 1251 L 41 1518 L 489 1518 L 489 1350 L 694 1350 C 1061 1350 1245 1189 1245 868 C 1245 708 1199 589 1109 509 C 1019 429 878 389 686 389 L 489 389 L 489 258 L 655 258 L 655 0 L 41 0 L 41 258 Z M 692 623 C 775 623 835 641 871 677 C 907 713 926 772 926 852 C 926 937 907 997 869 1033 C 831 1069 769 1087 682 1087 L 489 1087 L 489 623 L 692 623 Z" unicode="Þ" />
<glyph horiz-adv-x="1290" d="M 791 -10 C 693 -10 624 -4 586 6 L 631 274 C 662 267 700 264 745 264 C 805 264 851 283 885 323 C 919 363 936 419 936 492 C 936 575 914 634 870 669 C 826 703 752 721 647 721 L 647 979 C 800 979 877 1043 877 1171 C 877 1281 818 1337 702 1337 C 583 1337 524 1281 524 1171 L 524 0 L 41 0 L 41 252 L 217 252 L 217 897 L 41 897 L 41 1157 L 217 1157 L 217 1204 C 217 1337 257 1436 339 1501 C 420 1566 543 1599 707 1599 C 855 1599 971 1566 1053 1502 C 1135 1438 1176 1347 1176 1231 C 1176 1057 1102 939 954 879 C 1048 857 1120 810 1170 740 C 1220 669 1245 580 1245 473 C 1245 315 1205 195 1126 113 C 1046 31 935 -10 791 -10 Z" unicode="ß" />
<glyph horiz-adv-x="1112" d="M 692 164 C 635 44 525 -16 362 -16 C 262 -16 185 16 130 82 C 74 147 47 238 47 354 C 47 476 85 570 162 635 C 239 700 351 733 498 733 C 548 733 606 727 674 715 L 674 735 C 674 795 662 839 640 866 C 617 893 580 907 528 907 C 480 907 430 897 379 879 C 328 861 285 839 250 813 L 96 1042 C 152 1085 219 1120 297 1146 C 375 1172 460 1186 553 1186 C 700 1186 807 1151 875 1083 C 943 1014 977 906 977 758 L 977 252 L 1092 252 L 1092 12 L 729 -12 L 692 164 Z M 475 236 C 607 236 674 310 674 459 L 674 524 C 643 531 609 535 571 535 C 491 535 433 521 396 495 C 358 469 340 429 340 375 C 340 282 385 236 475 236 Z M 250 1401 L 325 1651 L 846 1452 L 784 1247 L 250 1401 Z" unicode="à" />
<glyph horiz-adv-x="1112" d="M 692 164 C 635 44 525 -16 362 -16 C 262 -16 185 16 130 82 C 74 147 47 238 47 354 C 47 476 85 570 162 635 C 239 700 351 733 498 733 C 548 733 606 727 674 715 L 674 735 C 674 795 662 839 640 866 C 617 893 580 907 528 907 C 480 907 430 897 379 879 C 328 861 285 839 250 813 L 96 1042 C 152 1085 219 1120 297 1146 C 375 1172 460 1186 553 1186 C 700 1186 807 1151 875 1083 C 943 1014 977 906 977 758 L 977 252 L 1092 252 L 1092 12 L 729 -12 L 692 164 Z M 475 236 C 607 236 674 310 674 459 L 674 524 C 643 531 609 535 571 535 C 491 535 433 521 396 495 C 358 469 340 429 340 375 C 340 282 385 236 475 236 Z M 264 1452 L 784 1649 L 860 1399 L 327 1247 L 264 1452 Z" unicode="á" />
<glyph horiz-adv-x="1112" d="M 692 164 C 635 44 525 -16 362 -16 C 262 -16 185 16 130 82 C 74 147 47 238 47 354 C 47 476 85 570 162 635 C 239 700 351 733 498 733 C 548 733 606 727 674 715 L 674 735 C 674 795 662 839 640 866 C 617 893 580 907 528 907 C 480 907 430 897 379 879 C 328 861 285 839 250 813 L 96 1042 C 152 1085 219 1120 297 1146 C 375 1172 460 1186 553 1186 C 700 1186 807 1151 875 1083 C 943 1014 977 906 977 758 L 977 252 L 1092 252 L 1092 12 L 729 -12 L 692 164 Z M 475 236 C 607 236 674 310 674 459 L 674 524 C 643 531 609 535 571 535 C 491 535 433 521 396 495 C 358 469 340 429 340 375 C 340 282 385 236 475 236 Z M 174 1421 L 499 1630 L 610 1630 L 938 1421 L 852 1251 L 555 1374 L 258 1251 L 174 1421 Z" unicode="â" />
<glyph horiz-adv-x="1112" d="M 692 164 C 635 44 525 -16 362 -16 C 262 -16 185 16 130 82 C 74 147 47 238 47 354 C 47 476 85 570 162 635 C 239 700 351 733 498 733 C 548 733 606 727 674 715 L 674 735 C 674 795 662 839 640 866 C 617 893 580 907 528 907 C 480 907 430 897 379 879 C 328 861 285 839 250 813 L 96 1042 C 152 1085 219 1120 297 1146 C 375 1172 460 1186 553 1186 C 700 1186 807 1151 875 1083 C 943 1014 977 906 977 758 L 977 252 L 1092 252 L 1092 12 L 729 -12 L 692 164 Z M 475 236 C 607 236 674 310 674 459 L 674 524 C 643 531 609 535 571 535 C 491 535 433 521 396 495 C 358 469 340 429 340 375 C 340 282 385 236 475 236 Z M 141 1366 C 218 1520 312 1597 424 1597 C 450 1597 473 1592 495 1584 C 516 1576 536 1567 554 1557 C 572 1547 590 1538 606 1530 C 622 1522 637 1518 653 1518 C 696 1518 736 1549 772 1612 L 966 1503 C 926 1424 881 1366 832 1328 C 782 1290 732 1272 680 1272 C 655 1272 632 1276 611 1284 C 590 1292 570 1301 552 1311 C 534 1321 516 1330 500 1338 C 484 1346 468 1350 452 1350 C 431 1350 411 1343 393 1330 C 374 1316 354 1291 334 1255 L 141 1366 Z" unicode="ã" />
<glyph horiz-adv-x="1112" d="M 692 164 C 635 44 525 -16 362 -16 C 262 -16 185 16 130 82 C 74 147 47 238 47 354 C 47 476 85 570 162 635 C 239 700 351 733 498 733 C 548 733 606 727 674 715 L 674 735 C 674 795 662 839 640 866 C 617 893 580 907 528 907 C 480 907 430 897 379 879 C 328 861 285 839 250 813 L 96 1042 C 152 1085 219 1120 297 1146 C 375 1172 460 1186 553 1186 C 700 1186 807 1151 875 1083 C 943 1014 977 906 977 758 L 977 252 L 1092 252 L 1092 12 L 729 -12 L 692 164 Z M 475 236 C 607 236 674 310 674 459 L 674 524 C 643 531 609 535 571 535 C 491 535 433 521 396 495 C 358 469 340 429 340 375 C 340 282 385 236 475 236 Z M 219 1542 L 493 1542 L 493 1266 L 219 1266 L 219 1542 Z M 614 1542 L 889 1542 L 889 1266 L 614 1266 L 614 1542 Z" unicode="ä" />
<glyph horiz-adv-x="1112" d="M 692 164 C 635 44 525 -16 362 -16 C 262 -16 185 16 130 82 C 74 147 47 238 47 354 C 47 476 85 570 162 635 C 239 700 351 733 498 733 C 548 733 606 727 674 715 L 674 735 C 674 795 662 839 640 866 C 617 893 580 907 528 907 C 480 907 430 897 379 879 C 328 861 285 839 250 813 L 96 1042 C 152 1085 219 1120 297 1146 C 375 1172 460 1186 553 1186 C 700 1186 807 1151 875 1083 C 943 1014 977 906 977 758 L 977 252 L 1092 252 L 1092 12 L 729 -12 L 692 164 Z M 475 236 C 607 236 674 310 674 459 L 674 524 C 643 531 609 535 571 535 C 491 535 433 521 396 495 C 358 469 340 429 340 375 C 340 282 385 236 475 236 Z M 555 1245 C 476 1245 413 1270 367 1321 C 320 1372 297 1440 297 1524 C 297 1610 320 1678 367 1729 C 414 1780 477 1806 555 1806 C 631 1806 693 1780 740 1728 C 787 1676 811 1608 811 1524 C 811 1441 787 1374 741 1322 C 694 1270 632 1245 555 1245 Z M 555 1397 C 587 1397 612 1408 629 1432 C 646 1455 655 1486 655 1524 C 655 1562 646 1593 629 1617 C 612 1641 587 1653 555 1653 C 521 1653 496 1641 478 1617 C 460 1593 452 1562 452 1524 C 452 1486 460 1455 478 1432 C 496 1408 521 1397 555 1397 Z" unicode="å" />
<glyph horiz-adv-x="1681" d="M 381 -16 C 273 -16 191 16 133 81 C 75 146 47 237 47 354 C 47 476 85 570 162 635 C 239 700 351 733 498 733 C 548 733 606 727 674 715 L 674 735 C 674 795 661 839 636 866 C 611 893 573 907 522 907 C 479 907 434 898 387 882 C 340 865 298 842 260 813 L 94 1030 C 219 1134 372 1186 553 1186 C 631 1186 693 1175 741 1153 C 788 1131 824 1097 850 1051 C 926 1141 1031 1186 1165 1186 C 1231 1186 1289 1177 1337 1159 C 1385 1141 1425 1116 1459 1084 C 1493 1052 1520 1012 1540 965 C 1560 918 1576 864 1587 803 C 1597 741 1603 661 1603 562 L 1602 475 L 969 475 C 978 391 998 330 1030 290 C 1062 250 1105 231 1161 231 C 1205 231 1242 242 1272 264 C 1302 286 1327 325 1348 383 L 1606 309 C 1574 201 1519 120 1441 65 C 1363 9 1263 -18 1143 -18 C 970 -18 848 53 776 197 C 742 123 693 69 631 35 C 568 1 485 -16 381 -16 Z M 475 236 C 607 236 674 310 674 459 L 674 524 C 643 531 609 535 571 535 C 491 535 433 521 396 495 C 358 469 340 429 340 375 C 340 282 385 236 475 236 Z M 1317 690 C 1317 844 1263 922 1157 922 C 1049 922 987 844 969 690 L 1317 690 Z" unicode="æ" />
<glyph horiz-adv-x="1065" d="M 535 -16 C 379 -16 261 35 179 138 C 97 241 57 390 57 584 C 57 694 76 796 116 891 C 156 985 209 1057 277 1106 C 344 1155 420 1180 506 1180 C 570 1180 624 1167 667 1142 C 710 1116 741 1082 760 1038 L 760 1157 L 981 1157 L 981 719 L 743 719 C 731 782 712 828 685 857 C 658 886 617 901 563 901 C 433 901 369 792 369 575 C 369 463 385 381 417 329 C 449 276 499 250 567 250 C 616 250 655 265 683 297 C 711 328 734 375 752 438 L 1010 371 C 977 241 920 144 840 80 C 759 16 657 -16 535 -16 Z M 537 -469 C 438 -469 356 -453 291 -422 L 367 -264 C 423 -288 473 -301 518 -301 C 588 -301 623 -276 623 -227 C 623 -181 585 -159 510 -159 L 475 -160 L 418 -123 L 445 14 L 615 14 L 602 -74 L 646 -70 C 700 -70 742 -85 773 -117 C 803 -149 819 -192 819 -246 C 819 -315 793 -369 743 -409 C 693 -449 624 -469 537 -469 Z" unicode="ç" />
<glyph horiz-adv-x="1075" d="M 537 -18 C 381 -18 262 33 180 135 C 98 237 57 387 57 584 C 57 774 101 921 189 1027 C 277 1133 400 1186 559 1186 C 635 1186 700 1173 756 1149 C 811 1125 856 1089 891 1042 C 926 994 952 933 970 857 C 987 781 996 683 996 562 L 995 475 L 362 475 C 371 391 391 330 423 290 C 455 250 499 231 555 231 C 600 231 637 242 667 265 C 697 287 722 327 743 383 L 999 309 C 967 200 912 118 834 64 C 756 9 657 -18 537 -18 Z M 711 690 C 708 844 655 922 551 922 C 445 922 382 844 362 690 L 711 690 Z M 232 1401 L 307 1651 L 828 1452 L 766 1247 L 232 1401 Z" unicode="è" />
<glyph horiz-adv-x="1075" d="M 246 1452 L 766 1649 L 842 1399 L 309 1247 L 246 1452 Z M 537 -18 C 381 -18 262 33 180 135 C 98 237 57 387 57 584 C 57 774 101 921 189 1027 C 277 1133 400 1186 559 1186 C 635 1186 700 1173 756 1149 C 811 1125 856 1089 891 1042 C 926 994 952 933 970 857 C 987 781 996 683 996 562 L 995 475 L 362 475 C 371 391 391 330 423 290 C 455 250 499 231 555 231 C 600 231 637 242 667 265 C 697 287 722 327 743 383 L 999 309 C 967 200 912 118 834 64 C 756 9 657 -18 537 -18 Z M 711 690 C 708 844 655 922 551 922 C 445 922 382 844 362 690 L 711 690 Z" unicode="é" />
<glyph horiz-adv-x="1075" d="M 156 1421 L 481 1630 L 592 1630 L 920 1421 L 834 1251 L 537 1374 L 240 1251 L 156 1421 Z M 537 -18 C 381 -18 262 33 180 135 C 98 237 57 387 57 584 C 57 774 101 921 189 1027 C 277 1133 400 1186 559 1186 C 635 1186 700 1173 756 1149 C 811 1125 856 1089 891 1042 C 926 994 952 933 970 857 C 987 781 996 683 996 562 L 995 475 L 362 475 C 371 391 391 330 423 290 C 455 250 499 231 555 231 C 600 231 637 242 667 265 C 697 287 722 327 743 383 L 999 309 C 967 200 912 118 834 64 C 756 9 657 -18 537 -18 Z M 711 690 C 708 844 655 922 551 922 C 445 922 382 844 362 690 L 711 690 Z" unicode="ê" />
<glyph horiz-adv-x="1075" d="M 201 1542 L 475 1542 L 475 1266 L 201 1266 L 201 1542 Z M 596 1542 L 871 1542 L 871 1266 L 596 1266 L 596 1542 Z M 537 -18 C 381 -18 262 33 180 135 C 98 237 57 387 57 584 C 57 774 101 921 189 1027 C 277 1133 400 1186 559 1186 C 635 1186 700 1173 756 1149 C 811 1125 856 1089 891 1042 C 926 994 952 933 970 857 C 987 781 996 683 996 562 L 995 475 L 362 475 C 371 391 391 330 423 290 C 455 250 499 231 555 231 C 600 231 637 242 667 265 C 697 287 722 327 743 383 L 999 309 C 967 200 912 118 834 64 C 756 9 657 -18 537 -18 Z M 711 690 C 708 844 655 922 551 922 C 445 922 382 844 362 690 L 711 690 Z" unicode="ë" />
<glyph horiz-adv-x="621" d="M 40 252 L 167 252 L 167 897 L 40 897 L 40 1153 L 474 1171 L 474 252 L 609 252 L 609 0 L 40 0 L 40 252 Z M -13 1401 L 62 1651 L 583 1452 L 521 1247 L -13 1401 Z" unicode="ì" />
<glyph horiz-adv-x="621" d="M 28 1452 L 548 1649 L 624 1399 L 91 1247 L 28 1452 Z M 40 252 L 167 252 L 167 897 L 40 897 L 40 1153 L 474 1171 L 474 252 L 609 252 L 609 0 L 40 0 L 40 252 Z" unicode="í" />
<glyph horiz-adv-x="621" d="M -62 1421 L 263 1630 L 374 1630 L 702 1421 L 616 1251 L 319 1374 L 22 1251 L -62 1421 Z M 40 252 L 167 252 L 167 897 L 40 897 L 40 1153 L 474 1171 L 474 252 L 609 252 L 609 0 L 40 0 L 40 252 Z" unicode="î" />
<glyph horiz-adv-x="621" d="M -17 1542 L 257 1542 L 257 1266 L -17 1266 L -17 1542 Z M 378 1542 L 653 1542 L 653 1266 L 378 1266 L 378 1542 Z M 40 252 L 167 252 L 167 897 L 40 897 L 40 1153 L 474 1171 L 474 252 L 609 252 L 609 0 L 40 0 L 40 252 Z" unicode="ï" />
<glyph horiz-adv-x="1139" d="M 485 1341 L 588 1364 C 558 1412 530 1449 506 1475 L 748 1616 C 798 1560 843 1498 883 1430 L 1075 1473 L 1075 1274 L 969 1251 C 1041 1064 1077 857 1077 631 C 1077 425 1032 265 944 151 C 856 37 730 -20 567 -20 C 458 -20 365 3 289 50 C 212 97 154 163 115 249 C 76 335 57 436 57 553 C 57 723 95 855 172 951 C 248 1046 355 1094 492 1094 C 541 1094 587 1084 631 1065 C 675 1045 711 1015 739 973 C 723 1047 702 1119 675 1188 L 485 1147 L 485 1341 Z M 567 254 C 699 254 766 355 766 557 C 766 757 699 858 567 858 C 433 858 367 757 367 557 C 367 355 433 254 567 254 Z" unicode="ð" />
<glyph horiz-adv-x="1243" d="M 41 252 L 156 252 L 156 897 L 41 897 L 41 1153 L 397 1171 L 436 981 C 461 1049 503 1100 561 1134 C 619 1168 691 1186 776 1186 C 889 1186 973 1151 1027 1081 C 1081 1011 1108 901 1108 750 L 1108 252 L 1225 252 L 1225 0 L 682 0 L 682 252 L 799 252 L 799 696 C 799 769 787 820 765 850 C 742 880 705 895 653 895 C 587 895 539 876 509 840 C 478 804 463 746 463 668 L 463 252 L 582 252 L 582 0 L 41 0 L 41 252 Z M 207 1366 C 284 1520 378 1597 490 1597 C 516 1597 539 1592 561 1584 C 582 1576 602 1567 620 1557 C 638 1547 656 1538 672 1530 C 688 1522 703 1518 719 1518 C 762 1518 802 1549 838 1612 L 1032 1503 C 992 1424 947 1366 898 1328 C 848 1290 798 1272 746 1272 C 721 1272 698 1276 677 1284 C 656 1292 636 1301 618 1311 C 600 1321 582 1330 566 1338 C 550 1346 534 1350 518 1350 C 497 1350 477 1343 459 1330 C 440 1316 420 1291 400 1255 L 207 1366 Z" unicode="ñ" />
<glyph horiz-adv-x="1135" d="M 567 -20 C 404 -20 278 32 190 138 C 101 244 57 392 57 584 C 57 775 101 923 190 1028 C 279 1133 405 1186 567 1186 C 729 1186 854 1133 943 1028 C 1032 922 1077 774 1077 584 C 1077 392 1032 244 943 138 C 854 32 729 -20 567 -20 Z M 567 248 C 699 248 766 356 766 573 C 766 790 699 899 567 899 C 433 899 367 790 367 573 C 367 356 433 248 567 248 Z M 263 1401 L 338 1651 L 859 1452 L 797 1247 L 263 1401 Z" unicode="ò" />
<glyph horiz-adv-x="1135" d="M 277 1452 L 797 1649 L 873 1399 L 340 1247 L 277 1452 Z M 567 -20 C 404 -20 278 32 190 138 C 101 244 57 392 57 584 C 57 775 101 923 190 1028 C 279 1133 405 1186 567 1186 C 729 1186 854 1133 943 1028 C 1032 922 1077 774 1077 584 C 1077 392 1032 244 943 138 C 854 32 729 -20 567 -20 Z M 567 248 C 699 248 766 356 766 573 C 766 790 699 899 567 899 C 433 899 367 790 367 573 C 367 356 433 248 567 248 Z" unicode="ó" />
<glyph horiz-adv-x="1135" d="M 187 1421 L 512 1630 L 623 1630 L 951 1421 L 865 1251 L 568 1374 L 271 1251 L 187 1421 Z M 567 -20 C 404 -20 278 32 190 138 C 101 244 57 392 57 584 C 57 775 101 923 190 1028 C 279 1133 405 1186 567 1186 C 729 1186 854 1133 943 1028 C 1032 922 1077 774 1077 584 C 1077 392 1032 244 943 138 C 854 32 729 -20 567 -20 Z M 567 248 C 699 248 766 356 766 573 C 766 790 699 899 567 899 C 433 899 367 790 367 573 C 367 356 433 248 567 248 Z" unicode="ô" />
<glyph horiz-adv-x="1135" d="M 567 -20 C 404 -20 278 32 190 138 C 101 244 57 392 57 584 C 57 775 101 923 190 1028 C 279 1133 405 1186 567 1186 C 729 1186 854 1133 943 1028 C 1032 922 1077 774 1077 584 C 1077 392 1032 244 943 138 C 854 32 729 -20 567 -20 Z M 567 248 C 699 248 766 356 766 573 C 766 790 699 899 567 899 C 433 899 367 790 367 573 C 367 356 433 248 567 248 Z M 154 1366 C 231 1520 325 1597 437 1597 C 463 1597 486 1592 508 1584 C 529 1576 549 1567 567 1557 C 585 1547 603 1538 619 1530 C 635 1522 650 1518 666 1518 C 709 1518 749 1549 785 1612 L 979 1503 C 939 1424 894 1366 845 1328 C 795 1290 745 1272 693 1272 C 668 1272 645 1276 624 1284 C 603 1292 583 1301 565 1311 C 547 1321 529 1330 513 1338 C 497 1346 481 1350 465 1350 C 444 1350 424 1343 406 1330 C 387 1316 367 1291 347 1255 L 154 1366 Z" unicode="õ" />
<glyph horiz-adv-x="1135" d="M 232 1542 L 506 1542 L 506 1266 L 232 1266 L 232 1542 Z M 627 1542 L 902 1542 L 902 1266 L 627 1266 L 627 1542 Z M 567 -20 C 404 -20 278 32 190 138 C 101 244 57 392 57 584 C 57 775 101 923 190 1028 C 279 1133 405 1186 567 1186 C 729 1186 854 1133 943 1028 C 1032 922 1077 774 1077 584 C 1077 392 1032 244 943 138 C 854 32 729 -20 567 -20 Z M 567 248 C 699 248 766 356 766 573 C 766 790 699 899 567 899 C 433 899 367 790 367 573 C 367 356 433 248 567 248 Z" unicode="ö" />
<glyph horiz-adv-x="1251" d="M 471 465 L 780 465 L 780 195 L 471 195 L 471 465 Z M 156 866 L 1096 866 L 1096 580 L 156 580 L 156 866 Z M 471 1251 L 780 1251 L 780 981 L 471 981 L 471 1251 Z" unicode="÷" />
<glyph horiz-adv-x="1130" d="M 567 -20 C 511 -20 458 -13 409 0 L 354 -121 L 133 -121 L 237 90 C 117 194 57 358 57 584 C 57 775 101 923 190 1028 C 279 1133 405 1186 567 1186 C 620 1186 671 1179 721 1167 L 780 1286 L 999 1286 L 894 1077 C 1016 972 1077 808 1077 584 C 1077 392 1032 244 943 138 C 854 32 729 -20 567 -20 Z M 567 238 C 709 238 780 349 780 573 C 780 662 768 734 746 788 L 504 247 C 522 241 543 238 567 238 Z M 352 573 C 352 490 362 422 382 370 L 618 905 C 602 909 585 911 567 911 C 494 911 440 881 405 823 C 369 764 352 681 352 573 Z" unicode="ø" />
<glyph horiz-adv-x="1229" d="M 465 -18 C 351 -18 267 16 213 84 C 159 152 133 264 133 418 L 133 897 L 29 897 L 29 1151 L 442 1171 L 442 455 C 442 382 453 331 476 301 C 499 271 537 256 590 256 C 654 256 701 273 730 308 C 759 342 774 400 774 481 L 774 897 L 627 897 L 627 1151 L 1083 1171 L 1083 252 L 1208 252 L 1208 10 L 842 -12 L 803 172 C 745 45 633 -18 465 -18 Z M 301 1401 L 376 1651 L 897 1452 L 835 1247 L 301 1401 Z" unicode="ù" />
<glyph horiz-adv-x="1229" d="M 315 1452 L 835 1649 L 911 1399 L 378 1247 L 315 1452 Z M 465 -18 C 351 -18 267 16 213 84 C 159 152 133 264 133 418 L 133 897 L 29 897 L 29 1151 L 442 1171 L 442 455 C 442 382 453 331 476 301 C 499 271 537 256 590 256 C 654 256 701 273 730 308 C 759 342 774 400 774 481 L 774 897 L 627 897 L 627 1151 L 1083 1171 L 1083 252 L 1208 252 L 1208 10 L 842 -12 L 803 172 C 745 45 633 -18 465 -18 Z" unicode="ú" />
<glyph horiz-adv-x="1229" d="M 209 1421 L 534 1630 L 645 1630 L 973 1421 L 887 1251 L 590 1374 L 293 1251 L 209 1421 Z M 465 -18 C 351 -18 267 16 213 84 C 159 152 133 264 133 418 L 133 897 L 29 897 L 29 1151 L 442 1171 L 442 455 C 442 382 453 331 476 301 C 499 271 537 256 590 256 C 654 256 701 273 730 308 C 759 342 774 400 774 481 L 774 897 L 627 897 L 627 1151 L 1083 1171 L 1083 252 L 1208 252 L 1208 10 L 842 -12 L 803 172 C 745 45 633 -18 465 -18 Z" unicode="û" />
<glyph horiz-adv-x="1229" d="M 246 1542 L 520 1542 L 520 1266 L 246 1266 L 246 1542 Z M 641 1542 L 916 1542 L 916 1266 L 641 1266 L 641 1542 Z M 465 -18 C 351 -18 267 16 213 84 C 159 152 133 264 133 418 L 133 897 L 29 897 L 29 1151 L 442 1171 L 442 455 C 442 382 453 331 476 301 C 499 271 537 256 590 256 C 654 256 701 273 730 308 C 759 342 774 400 774 481 L 774 897 L 627 897 L 627 1151 L 1083 1171 L 1083 252 L 1208 252 L 1208 10 L 842 -12 L 803 172 C 745 45 633 -18 465 -18 Z" unicode="ü" />
<glyph horiz-adv-x="1151" d="M 326 -338 C 256 -338 184 -327 111 -307 L 176 -51 C 235 -67 281 -76 315 -76 C 345 -76 368 -72 386 -65 C 404 -57 418 -42 430 -20 L 115 897 L 20 897 L 20 1157 L 543 1157 L 543 901 L 422 901 L 587 319 L 762 901 L 647 901 L 647 1157 L 1133 1157 L 1133 897 L 1038 897 L 700 -70 C 665 -169 620 -238 565 -278 C 509 -318 430 -338 326 -338 Z M 287 1452 L 807 1649 L 883 1399 L 350 1247 L 287 1452 Z" unicode="ý" />
<glyph horiz-adv-x="1214" d="M 31 -84 L 145 -84 L 145 1298 L 29 1298 L 29 1561 L 455 1579 L 455 1001 C 511 1124 619 1186 778 1186 C 900 1186 994 1134 1059 1030 C 1124 926 1157 778 1157 584 C 1157 390 1123 243 1056 141 C 988 39 890 -12 762 -12 C 687 -12 625 1 575 29 C 525 56 485 99 455 158 L 455 -84 L 571 -84 L 571 -326 L 31 -326 L 31 -84 Z M 670 250 C 786 250 844 357 844 571 C 844 789 786 899 670 899 C 526 899 455 789 455 571 C 455 463 472 383 506 330 C 540 276 594 250 670 250 Z" unicode="þ" />
<glyph horiz-adv-x="1151" d="M 326 -338 C 256 -338 184 -327 111 -307 L 176 -51 C 235 -67 281 -76 315 -76 C 345 -76 368 -72 386 -65 C 404 -57 418 -42 430 -20 L 115 897 L 20 897 L 20 1157 L 543 1157 L 543 901 L 422 901 L 587 319 L 762 901 L 647 901 L 647 1157 L 1133 1157 L 1133 897 L 1038 897 L 700 -70 C 665 -169 620 -238 565 -278 C 509 -318 430 -338 326 -338 Z M 258 1542 L 532 1542 L 532 1266 L 258 1266 L 258 1542 Z M 653 1542 L 928 1542 L 928 1266 L 653 1266 L 653 1542 Z" unicode="ÿ" />
<glyph horiz-adv-x="1446" d="" unicode="Ā" />
<glyph horiz-adv-x="1112" d="" unicode="ā" />
<glyph horiz-adv-x="1446" d="" unicode="Ă" />
<glyph horiz-adv-x="1112" d="" unicode="ă" />
<glyph horiz-adv-x="1446" d="" unicode="Ą" />
<glyph horiz-adv-x="1112" d="" unicode="ą" />
<glyph horiz-adv-x="1329" d="" unicode="Ć" />
<glyph horiz-adv-x="1065" d="" unicode="ć" />
<glyph horiz-adv-x="1329" d="" unicode="Ĉ" />
<glyph horiz-adv-x="1065" d="" unicode="ĉ" />
<glyph horiz-adv-x="1329" d="" unicode="Ċ" />
<glyph horiz-adv-x="1065" d="" unicode="ċ" />
<glyph horiz-adv-x="1329" d="" unicode="Č" />
<glyph horiz-adv-x="1065" d="" unicode="č" />
<glyph horiz-adv-x="1364" d="" unicode="Ď" />
<glyph horiz-adv-x="1214" d="" unicode="ď" />
<glyph horiz-adv-x="1364" d="" unicode="Đ" />
<glyph horiz-adv-x="1214" d="" unicode="đ" />
<glyph horiz-adv-x="1243" d="" unicode="Ē" />
<glyph horiz-adv-x="1075" d="" unicode="ē" />
<glyph horiz-adv-x="1243" d="" unicode="Ĕ" />
<glyph horiz-adv-x="1075" d="" unicode="ĕ" />
<glyph horiz-adv-x="1243" d="" unicode="Ė" />
<glyph horiz-adv-x="1075" d="" unicode="ė" />
<glyph horiz-adv-x="1243" d="" unicode="Ę" />
<glyph horiz-adv-x="1075" d="" unicode="ę" />
<glyph horiz-adv-x="1243" d="" unicode="Ě" />
<glyph horiz-adv-x="1075" d="" unicode="ě" />
<glyph horiz-adv-x="1360" d="" unicode="Ĝ" />
<glyph horiz-adv-x="1083" d="" unicode="ĝ" />
<glyph horiz-adv-x="1360" d="" unicode="Ğ" />
<glyph horiz-adv-x="1083" d="" unicode="ğ" />
<glyph horiz-adv-x="1360" d="" unicode="Ġ" />
<glyph horiz-adv-x="1083" d="" unicode="ġ" />
<glyph horiz-adv-x="1360" d="" unicode="Ģ" />
<glyph horiz-adv-x="1083" d="" unicode="ģ" />
<glyph horiz-adv-x="1481" d="" unicode="Ĥ" />
<glyph horiz-adv-x="1233" d="" unicode="ĥ" />
<glyph horiz-adv-x="1481" d="" unicode="Ħ" />
<glyph horiz-adv-x="1233" d="" unicode="ħ" />
<glyph horiz-adv-x="684" d="" unicode="Ĩ" />
<glyph horiz-adv-x="621" d="" unicode="ĩ" />
<glyph horiz-adv-x="684" d="" unicode="Ī" />
<glyph horiz-adv-x="621" d="" unicode="ī" />
<glyph horiz-adv-x="684" d="" unicode="Ĭ" />
<glyph horiz-adv-x="621" d="" unicode="ĭ" />
<glyph horiz-adv-x="684" d="" unicode="Į" />
<glyph horiz-adv-x="621" d="" unicode="į" />
<glyph horiz-adv-x="684" d="" unicode="İ" />
<glyph horiz-adv-x="631" d="M 41 252 L 168 252 L 168 897 L 41 897 L 41 1153 L 475 1171 L 475 252 L 610 252 L 610 0 L 41 0 L 41 252 Z" unicode="ı" />
<glyph horiz-adv-x="1421" d="" unicode="Ĳ" />
<glyph horiz-adv-x="1147" d="" unicode="ĳ" />
<glyph horiz-adv-x="901" d="" unicode="Ĵ" />
<glyph horiz-adv-x="563" d="" unicode="ĵ" />
<glyph horiz-adv-x="1389" d="" unicode="Ķ" />
<glyph horiz-adv-x="1188" d="" unicode="ķ" />
<glyph horiz-adv-x="1208" d="" unicode="Ĺ" />
<glyph horiz-adv-x="614" d="" unicode="ĺ" />
<glyph horiz-adv-x="1208" d="" unicode="Ļ" />
<glyph horiz-adv-x="614" d="" unicode="ļ" />
<glyph horiz-adv-x="1208" d="" unicode="Ľ" />
<glyph horiz-adv-x="614" d="" unicode="ľ" />
<glyph horiz-adv-x="1208" d="" unicode="Ŀ" />
<glyph horiz-adv-x="748" d="" unicode="ŀ" />
<glyph horiz-adv-x="1208" d="" unicode="Ł" />
<glyph horiz-adv-x="655" d="" unicode="ł" />
<glyph horiz-adv-x="1483" d="" unicode="Ń" />
<glyph horiz-adv-x="1243" d="" unicode="ń" />
<glyph horiz-adv-x="1483" d="" unicode="Ņ" />
<glyph horiz-adv-x="1243" d="" unicode="ņ" />
<glyph horiz-adv-x="1483" d="" unicode="Ň" />
<glyph horiz-adv-x="1243" d="" unicode="ň" />
<glyph horiz-adv-x="1483" d="" unicode="Ŋ" />
<glyph horiz-adv-x="1206" d="" unicode="ŋ" />
<glyph horiz-adv-x="1399" d="" unicode="Ō" />
<glyph horiz-adv-x="1135" d="" unicode="ō" />
<glyph horiz-adv-x="1399" d="" unicode="Ŏ" />
<glyph horiz-adv-x="1135" d="" unicode="ŏ" />
<glyph horiz-adv-x="1399" d="" unicode="Ő" />
<glyph horiz-adv-x="1135" d="" unicode="ő" />
<glyph horiz-adv-x="1939" d="M 737 0 C 515 0 347 64 232 192 C 116 320 59 509 59 758 C 59 1005 118 1193 237 1323 C 356 1453 528 1518 754 1518 L 1855 1518 L 1855 1001 L 1569 1001 L 1569 1262 L 1190 1262 L 1190 895 L 1511 895 L 1511 639 L 1190 639 L 1190 252 L 1581 252 L 1581 543 L 1868 543 L 1868 0 L 737 0 Z M 874 258 L 874 1257 L 733 1257 C 614 1257 526 1216 470 1134 C 413 1052 385 926 385 756 C 385 582 413 455 471 376 C 529 297 620 258 745 258 L 874 258 Z" unicode="Œ" />
<glyph horiz-adv-x="1767" d="M 567 -20 C 404 -20 278 32 190 138 C 101 244 57 392 57 584 C 57 775 101 923 190 1028 C 279 1133 405 1186 567 1186 C 715 1186 829 1126 911 1008 C 987 1126 1101 1186 1253 1186 C 1328 1186 1393 1174 1448 1150 C 1502 1126 1547 1091 1583 1045 C 1618 998 1644 938 1662 864 C 1680 790 1689 692 1690 570 L 1688 475 L 1055 475 C 1073 312 1137 231 1247 231 C 1292 231 1330 242 1360 264 C 1390 286 1416 326 1438 383 L 1692 309 C 1662 201 1607 120 1529 65 C 1450 9 1350 -18 1229 -18 C 1085 -18 977 38 905 150 C 827 36 715 -20 567 -20 Z M 567 248 C 699 248 766 356 766 573 C 766 790 699 899 567 899 C 433 899 367 790 367 573 C 367 356 433 248 567 248 Z M 1405 690 C 1402 844 1349 922 1245 922 C 1139 922 1077 844 1057 690 L 1405 690 Z" unicode="œ" />
<glyph horiz-adv-x="1319" d="" unicode="Ŕ" />
<glyph horiz-adv-x="801" d="" unicode="ŕ" />
<glyph horiz-adv-x="1319" d="" unicode="Ŗ" />
<glyph horiz-adv-x="801" d="" unicode="ŗ" />
<glyph horiz-adv-x="1319" d="" unicode="Ř" />
<glyph horiz-adv-x="801" d="" unicode="ř" />
<glyph horiz-adv-x="1237" d="" unicode="Ś" />
<glyph horiz-adv-x="995" d="" unicode="ś" />
<glyph horiz-adv-x="1237" d="" unicode="Ŝ" />
<glyph horiz-adv-x="995" d="" unicode="ŝ" />
<glyph horiz-adv-x="1237" d="" unicode="Ş" />
<glyph horiz-adv-x="995" d="" unicode="ş" />
<glyph horiz-adv-x="1237" d="M 234 1792 L 322 1960 L 619 1839 L 916 1960 L 1002 1792 L 674 1585 L 563 1585 L 234 1792 Z M 670 -20 C 484 -20 362 34 303 143 L 303 0 L 68 0 L 68 537 L 319 537 C 337 427 369 351 417 310 C 465 268 535 248 627 248 C 786 248 866 302 866 410 C 866 454 846 491 808 523 C 769 555 707 584 623 611 C 466 659 356 704 292 745 C 228 785 180 835 147 895 C 114 955 98 1025 98 1106 C 98 1194 118 1270 159 1336 C 199 1401 255 1451 327 1486 C 398 1520 477 1538 563 1538 C 735 1538 847 1489 897 1391 L 897 1518 L 1133 1518 L 1133 1008 L 883 1008 C 867 1095 838 1158 796 1198 C 753 1237 695 1257 621 1257 C 549 1257 496 1243 464 1216 C 432 1189 416 1154 416 1110 C 416 1079 424 1052 441 1030 C 458 1008 482 988 514 970 C 546 952 603 930 685 903 L 798 866 C 932 822 1030 764 1090 692 C 1150 620 1180 531 1180 424 C 1180 285 1134 176 1043 98 C 951 19 827 -20 670 -20 Z" unicode="Š" />
<glyph horiz-adv-x="995" d="M 116 1456 L 204 1624 L 501 1503 L 798 1624 L 884 1456 L 556 1249 L 445 1249 L 116 1456 Z M 561 -14 C 483 -14 418 -1 366 23 C 313 47 278 81 260 125 L 260 0 L 49 0 L 49 422 L 276 422 C 289 352 317 301 359 267 C 401 233 453 217 514 217 C 614 217 664 252 664 322 C 664 352 649 377 620 397 C 590 417 542 435 475 453 C 366 479 285 508 231 538 C 177 568 136 607 108 657 C 80 706 66 766 66 836 C 66 940 101 1024 172 1087 C 242 1150 332 1182 442 1182 C 508 1182 565 1170 613 1148 C 661 1126 694 1095 713 1055 L 713 1157 L 924 1157 L 924 778 L 692 778 C 678 834 655 874 622 898 C 589 922 547 934 496 934 C 410 934 367 900 367 834 C 367 803 381 778 411 758 C 441 738 489 721 555 707 C 667 681 749 654 801 624 C 853 594 893 555 920 507 C 947 459 961 400 961 332 C 961 227 924 143 851 80 C 777 17 681 -14 561 -14 Z" unicode="š" />
<glyph horiz-adv-x="1380" d="" unicode="Ţ" />
<glyph horiz-adv-x="852" d="" unicode="ţ" />
<glyph horiz-adv-x="1380" d="" unicode="Ť" />
<glyph horiz-adv-x="852" d="" unicode="ť" />
<glyph horiz-adv-x="1380" d="" unicode="Ŧ" />
<glyph horiz-adv-x="852" d="" unicode="ŧ" />
<glyph horiz-adv-x="1468" d="" unicode="Ũ" />
<glyph horiz-adv-x="1229" d="" unicode="ũ" />
<glyph horiz-adv-x="1468" d="" unicode="Ū" />
<glyph horiz-adv-x="1229" d="" unicode="ū" />
<glyph horiz-adv-x="1468" d="" unicode="Ŭ" />
<glyph horiz-adv-x="1229" d="" unicode="ŭ" />
<glyph horiz-adv-x="1468" d="" unicode="Ů" />
<glyph horiz-adv-x="1229" d="" unicode="ů" />
<glyph horiz-adv-x="1468" d="" unicode="Ű" />
<glyph horiz-adv-x="1229" d="" unicode="ű" />
<glyph horiz-adv-x="1468" d="" unicode="Ų" />
<glyph horiz-adv-x="1229" d="" unicode="ų" />
<glyph horiz-adv-x="1954" d="" unicode="Ŵ" />
<glyph horiz-adv-x="1663" d="" unicode="ŵ" />
<glyph horiz-adv-x="1372" d="" unicode="Ŷ" />
<glyph horiz-adv-x="1151" d="" unicode="ŷ" />
<glyph horiz-adv-x="1372" d="M 375 252 L 528 252 L 528 537 L 135 1251 L 41 1251 L 41 1518 L 610 1518 L 610 1262 L 461 1262 L 696 811 L 926 1262 L 786 1262 L 786 1518 L 1331 1518 L 1331 1251 L 1235 1251 L 848 532 L 848 252 L 999 252 L 999 0 L 375 0 L 375 252 Z M 363 1878 L 637 1878 L 637 1602 L 363 1602 L 363 1878 Z M 758 1878 L 1033 1878 L 1033 1602 L 758 1602 L 758 1878 Z" unicode="Ÿ" />
<glyph horiz-adv-x="1206" d="" unicode="Ź" />
<glyph horiz-adv-x="1024" d="" unicode="ź" />
<glyph horiz-adv-x="1206" d="" unicode="Ż" />
<glyph horiz-adv-x="1024" d="" unicode="ż" />
<glyph horiz-adv-x="1206" d="M 217 1792 L 305 1960 L 602 1839 L 899 1960 L 985 1792 L 657 1585 L 546 1585 L 217 1792 Z M 41 231 L 784 1274 L 348 1274 L 348 1001 L 61 1001 L 61 1518 L 1143 1518 L 1143 1268 L 412 240 L 879 240 L 879 543 L 1165 543 L 1165 0 L 41 0 L 41 231 Z" unicode="Ž" />
<glyph horiz-adv-x="1024" d="M 127 1456 L 215 1624 L 512 1503 L 809 1624 L 895 1456 L 567 1249 L 456 1249 L 127 1456 Z M 41 252 L 627 924 L 307 924 L 307 733 L 59 733 L 59 1157 L 963 1157 L 963 907 L 381 225 L 733 225 L 733 438 L 985 438 L 985 0 L 41 0 L 41 252 Z" unicode="ž" />
<glyph horiz-adv-x="944" d="M 287 698 L 109 698 L 109 958 L 287 958 L 287 1108 C 287 1234 320 1329 387 1392 C 453 1455 556 1487 696 1487 C 786 1487 849 1482 887 1473 L 852 1212 L 723 1219 C 676 1219 643 1210 623 1192 C 603 1174 594 1142 594 1098 L 594 958 L 846 958 L 846 698 L 594 698 L 594 -326 L 287 -326 L 287 698 Z" unicode="ƒ" />
<glyph horiz-adv-x="981" d="" unicode="⁄" />
<glyph horiz-adv-x="1118" d="" unicode="∂" />
<glyph horiz-adv-x="1321" d="" unicode="∆" />
<glyph horiz-adv-x="1419" d="" unicode="∏" />
<glyph horiz-adv-x="1221" d="" unicode="∑" />
<glyph horiz-adv-x="1251" d="" unicode="−" />
<glyph horiz-adv-x="981" d="" unicode="∕" />
<glyph horiz-adv-x="1237" d="" unicode="Ș" />
<glyph horiz-adv-x="995" d="" unicode="ș" />
<glyph horiz-adv-x="1380" d="" unicode="Ț" />
<glyph horiz-adv-x="852" d="" unicode="ț" />
<glyph horiz-adv-x="1606" d="" unicode="∞" />
<glyph horiz-adv-x="944" d="" unicode="∫" />
<glyph horiz-adv-x="1251" d="" unicode="≈" />
<glyph horiz-adv-x="2021" d="M 770 252 L 889 252 L 889 897 L 524 897 L 524 252 L 686 252 L 686 0 L 41 0 L 41 252 L 217 252 L 217 897 L 41 897 L 41 1157 L 217 1157 L 217 1210 C 217 1338 250 1432 318 1494 C 385 1556 487 1587 623 1587 C 695 1587 753 1583 795 1577 L 760 1319 C 730 1323 693 1325 647 1325 C 603 1325 572 1316 553 1298 C 533 1280 524 1249 524 1206 L 524 1157 L 889 1157 L 889 1217 C 889 1343 922 1437 989 1497 C 1055 1557 1154 1587 1286 1587 C 1328 1587 1368 1585 1407 1581 L 1384 1317 C 1354 1321 1323 1323 1292 1323 C 1228 1323 1196 1284 1196 1206 L 1196 1157 L 1358 1157 L 1358 897 L 1196 897 L 1196 252 L 1358 252 L 1358 0 L 770 0 L 770 252 Z M 1444 252 L 1563 252 L 1563 1298 L 1462 1298 L 1462 1561 L 1870 1579 L 1870 252 L 2003 252 L 2003 0 L 1444 0 L 1444 252 Z" unicode="ﬄ" />
<glyph horiz-adv-x="1075" d="" unicode="ə" />
<glyph horiz-adv-x="1251" d="" unicode="≠" />
<glyph horiz-adv-x="1251" d="" unicode="≤" />
<glyph horiz-adv-x="1251" d="" unicode="≥" />
<glyph horiz-adv-x="1036" d="" unicode="⁰" />
<glyph horiz-adv-x="950" d="" unicode="⁴" />
<glyph horiz-adv-x="932" d="" unicode="⁵" />
<glyph horiz-adv-x="995" d="" unicode="⁶" />
<glyph horiz-adv-x="1001" d="M 121 1421 L 446 1630 L 557 1630 L 885 1421 L 799 1251 L 502 1374 L 205 1251 L 121 1421 Z" unicode="ˆ" />
<glyph horiz-adv-x="1001" d="M 117 1456 L 205 1624 L 502 1503 L 799 1624 L 885 1456 L 557 1249 L 446 1249 L 117 1456 Z" unicode="ˇ" />
<glyph horiz-adv-x="874" d="" unicode="⁷" />
<glyph horiz-adv-x="989" d="" unicode="⁸" />
<glyph horiz-adv-x="995" d="" unicode="⁹" />
<glyph horiz-adv-x="1001" d="" unicode="˘" />
<glyph horiz-adv-x="1001" d="" unicode="˙" />
<glyph horiz-adv-x="1001" d="M 502 1245 C 423 1245 360 1270 314 1321 C 267 1372 244 1440 244 1524 C 244 1610 267 1678 314 1729 C 361 1780 424 1806 502 1806 C 578 1806 640 1780 687 1728 C 734 1676 758 1608 758 1524 C 758 1441 734 1374 688 1322 C 641 1270 579 1245 502 1245 Z M 502 1397 C 534 1397 559 1408 576 1432 C 593 1455 602 1486 602 1524 C 602 1562 593 1593 576 1617 C 559 1641 534 1653 502 1653 C 468 1653 443 1641 425 1617 C 407 1593 399 1562 399 1524 C 399 1486 407 1455 425 1432 C 443 1408 468 1397 502 1397 Z" unicode="˚" />
<glyph horiz-adv-x="1001" d="" unicode="˛" />
<glyph horiz-adv-x="1001" d="M 88 1366 C 165 1520 259 1597 371 1597 C 397 1597 420 1592 442 1584 C 463 1576 483 1567 501 1557 C 519 1547 537 1538 553 1530 C 569 1522 584 1518 600 1518 C 643 1518 683 1549 719 1612 L 913 1503 C 873 1424 828 1366 779 1328 C 729 1290 679 1272 627 1272 C 602 1272 579 1276 558 1284 C 537 1292 517 1301 499 1311 C 481 1321 463 1330 447 1338 C 431 1346 415 1350 399 1350 C 378 1350 358 1343 340 1330 C 321 1316 301 1291 281 1255 L 88 1366 Z" unicode="˜" />
<glyph horiz-adv-x="1001" d="" unicode="˝" />
<glyph horiz-adv-x="1477" d="M 770 252 L 889 252 L 889 897 L 524 897 L 524 252 L 686 252 L 686 0 L 41 0 L 41 252 L 217 252 L 217 897 L 41 897 L 41 1157 L 217 1157 L 217 1210 C 217 1338 250 1432 318 1494 C 385 1556 487 1587 623 1587 C 695 1587 753 1583 795 1577 L 760 1319 C 730 1323 693 1325 647 1325 C 603 1325 572 1316 553 1298 C 533 1280 524 1249 524 1206 L 524 1157 L 889 1157 L 889 1210 C 889 1336 922 1431 990 1493 C 1057 1555 1160 1587 1300 1587 C 1373 1587 1431 1583 1473 1577 L 1438 1315 C 1408 1317 1371 1319 1327 1319 C 1279 1319 1245 1310 1225 1292 C 1205 1274 1196 1243 1196 1200 L 1196 1157 L 1440 1157 L 1440 897 L 1196 897 L 1196 252 L 1440 252 L 1440 0 L 770 0 L 770 252 Z" unicode="ﬀ" />
<glyph horiz-adv-x="1346" d="M 41 252 L 217 252 L 217 897 L 41 897 L 41 1157 L 217 1157 L 217 1210 C 217 1461 357 1587 639 1587 C 694 1587 743 1584 786 1579 L 756 1317 C 726 1321 687 1323 639 1323 C 600 1323 571 1313 552 1295 C 533 1276 524 1244 524 1200 L 524 1157 L 686 1157 L 686 897 L 524 897 L 524 252 L 686 252 L 686 0 L 41 0 L 41 252 Z M 770 252 L 889 252 L 889 897 L 768 897 L 768 1153 L 1196 1171 L 1196 252 L 1327 252 L 1327 0 L 770 0 L 770 252 Z M 901 1550 L 1210 1550 L 1210 1264 L 901 1264 L 901 1550 Z" unicode="ﬁ" />
<glyph horiz-adv-x="1350" d="M 41 252 L 217 252 L 217 897 L 41 897 L 41 1157 L 217 1157 L 217 1214 C 217 1462 349 1587 614 1587 C 656 1587 696 1585 735 1581 L 713 1315 C 682 1319 651 1321 621 1321 C 556 1321 524 1282 524 1204 L 524 1157 L 686 1157 L 686 897 L 524 897 L 524 252 L 686 252 L 686 0 L 41 0 L 41 252 Z M 770 252 L 889 252 L 889 1298 L 791 1298 L 791 1561 L 1196 1579 L 1196 252 L 1331 252 L 1331 0 L 770 0 L 770 252 Z" unicode="ﬂ" />
<glyph horiz-adv-x="2017" d="M 770 252 L 889 252 L 889 897 L 524 897 L 524 252 L 686 252 L 686 0 L 41 0 L 41 252 L 217 252 L 217 897 L 41 897 L 41 1157 L 217 1157 L 217 1210 C 217 1338 250 1432 318 1494 C 385 1556 487 1587 623 1587 C 695 1587 753 1583 795 1577 L 760 1319 C 730 1323 693 1325 647 1325 C 603 1325 572 1316 553 1298 C 533 1280 524 1249 524 1206 L 524 1157 L 889 1157 L 889 1210 C 889 1461 1029 1587 1311 1587 C 1366 1587 1415 1584 1458 1579 L 1427 1317 C 1383 1321 1344 1323 1311 1323 C 1272 1323 1243 1313 1224 1295 C 1205 1276 1196 1244 1196 1200 L 1196 1157 L 1358 1157 L 1358 897 L 1196 897 L 1196 252 L 1358 252 L 1358 0 L 770 0 L 770 252 Z M 1444 252 L 1563 252 L 1563 897 L 1440 897 L 1440 1153 L 1870 1171 L 1870 252 L 1999 252 L 1999 0 L 1444 0 L 1444 252 Z M 1573 1550 L 1882 1550 L 1882 1264 L 1573 1264 L 1573 1550 Z" unicode="ﬃ" />
<glyph horiz-adv-x="1001" d="M 166 1522 L 836 1522 L 836 1266 L 166 1266 L 166 1522 Z" unicode="̄" />
<glyph horiz-adv-x="1001" d="" unicode="̦" />
<glyph horiz-adv-x="1321" d="" unicode="Δ" />
<glyph horiz-adv-x="1640" d="" unicode="Ω" />
<glyph horiz-adv-x="1241" d="M 152 897 L 35 897 L 35 1151 L 459 1169 L 459 461 C 459 383 470 329 493 299 C 516 269 554 254 606 254 C 672 254 719 271 749 305 C 778 339 793 398 793 481 L 793 897 L 643 897 L 643 1151 L 1102 1169 L 1102 252 L 1223 252 L 1223 10 L 856 -14 L 821 170 C 796 115 759 72 709 42 C 659 11 598 -4 528 -4 C 492 -4 469 5 459 23 L 459 -326 L 152 -326 L 152 897 Z" unicode="μ" />
<glyph horiz-adv-x="1286" d="" unicode="π" />
<glyph horiz-adv-x="1300" d="M 756 -16 C 480 -16 312 146 252 471 L 55 471 L 55 674 L 233 674 L 233 770 L 55 770 L 55 973 L 252 973 C 280 1137 337 1263 423 1352 C 509 1440 617 1485 748 1485 C 873 1485 959 1438 1006 1346 L 1006 1473 L 1235 1473 L 1235 1010 L 989 1010 C 975 1073 951 1122 918 1158 C 884 1194 836 1212 774 1212 C 658 1212 585 1132 555 973 L 870 973 L 870 770 L 530 770 L 530 674 L 870 674 L 870 471 L 559 471 C 585 322 656 248 774 248 C 834 248 884 266 922 302 C 960 338 990 399 1012 485 L 1268 426 C 1227 267 1166 154 1084 86 C 1002 18 893 -16 756 -16 Z" unicode="€" />
<glyph horiz-adv-x="535" d="M 92 928 L 442 928 L 442 555 L 92 555 L 92 928 Z" unicode="∙" />
<glyph horiz-adv-x="1190" d="" unicode="√" />
<glyph horiz-adv-x="1051" d="M 371 840 L 78 840 L 78 1126 L 371 1126 L 371 1577 L 678 1577 L 678 1126 L 975 1126 L 975 840 L 678 840 L 678 -326 L 371 -326 L 371 840 Z" unicode="†" />
<glyph horiz-adv-x="1051" d="M 371 127 L 78 127 L 78 412 L 371 412 L 371 840 L 78 840 L 78 1126 L 371 1126 L 371 1577 L 680 1577 L 680 1126 L 975 1126 L 975 840 L 680 840 L 680 412 L 975 412 L 975 127 L 680 127 L 680 -326 L 371 -326 L 371 127 Z" unicode="‡" />
<glyph horiz-adv-x="694" d="M 150 860 L 547 860 L 547 387 L 150 387 L 150 860 Z" unicode="•" />
<glyph horiz-adv-x="1540" d="M 90 367 L 442 367 L 442 0 L 90 0 L 90 367 Z M 594 367 L 946 367 L 946 0 L 594 0 L 594 367 Z M 1098 367 L 1450 367 L 1450 0 L 1098 0 L 1098 367 Z" unicode="…" />
<glyph horiz-adv-x="1348" d="" unicode="◊" />
<glyph horiz-adv-x="1866" d="" unicode="" />
<glyph horiz-adv-x="1954" d="" unicode="Ẁ" />
<glyph horiz-adv-x="1663" d="" unicode="ẁ" />
<glyph horiz-adv-x="1954" d="" unicode="Ẃ" />
<glyph horiz-adv-x="1663" d="" unicode="ẃ" />
<glyph horiz-adv-x="1954" d="" unicode="Ẅ" />
<glyph horiz-adv-x="1663" d="" unicode="ẅ" />
<glyph horiz-adv-x="1364" d="" unicode="℗" />
<glyph horiz-adv-x="3072" d="M 469 492 C 340 492 238 536 164 626 C 90 716 53 837 53 991 C 53 1143 90 1265 166 1356 C 241 1447 342 1493 469 1493 C 597 1493 698 1447 773 1357 C 847 1267 885 1145 885 991 C 885 840 847 719 772 628 C 697 537 596 492 469 492 Z M 469 729 C 560 729 606 816 606 991 C 606 1161 560 1247 469 1247 C 375 1247 328 1161 328 991 C 328 816 375 729 469 729 Z M 1303 1475 L 1579 1475 L 881 0 L 604 0 L 1303 1475 Z M 1714 -20 C 1586 -20 1485 25 1410 115 C 1335 205 1298 327 1298 483 C 1298 635 1335 757 1411 847 C 1487 937 1588 983 1714 983 C 1840 983 1941 938 2016 848 C 2090 758 2128 637 2128 483 C 2128 331 2090 209 2016 117 C 1941 25 1840 -20 1714 -20 Z M 1714 221 C 1805 221 1851 307 1851 481 C 1851 653 1805 739 1714 739 C 1621 739 1575 653 1575 481 C 1575 307 1621 221 1714 221 Z M 2603 -20 C 2475 -20 2374 25 2300 115 C 2226 205 2189 328 2189 483 C 2189 635 2226 756 2301 847 C 2375 937 2476 983 2603 983 C 2731 983 2832 938 2907 848 C 2981 758 3019 637 3019 483 C 3019 331 2981 209 2907 117 C 2832 25 2731 -20 2603 -20 Z M 2603 221 C 2695 221 2742 307 2742 481 C 2742 653 2695 739 2603 739 C 2510 739 2464 653 2464 481 C 2464 307 2510 221 2603 221 Z" unicode="‰" />
<glyph horiz-adv-x="2124" d="M 946 711 L 1030 711 L 1030 1335 L 946 1335 L 946 1518 L 1305 1518 L 1491 915 L 1681 1518 L 2040 1518 L 2040 1337 L 1958 1337 L 1958 711 L 2040 711 L 2040 535 L 1669 535 L 1669 705 L 1747 705 L 1747 1155 L 1559 535 L 1415 535 L 1227 1153 L 1227 705 L 1305 705 L 1305 535 L 946 535 L 946 711 Z M 270 707 L 369 707 L 369 1346 L 248 1346 L 248 1176 L 70 1176 L 70 1518 L 887 1518 L 887 1176 L 707 1176 L 707 1346 L 588 1346 L 588 707 L 686 707 L 686 535 L 270 535 L 270 707 Z" unicode="™" />
<glyph horiz-adv-x="608" d="" unicode="′" />
<glyph horiz-adv-x="1640" d="" unicode="Ω" />
<glyph horiz-adv-x="1372" d="" unicode="Ỳ" />
<glyph horiz-adv-x="1151" d="" unicode="ỳ" />
<glyph horiz-adv-x="1044" d="" unicode="″" />
<glyph horiz-adv-x="1190" d="" unicode="✓" />
<glyph horiz-adv-x="1427" d="" unicode="℮" />
<glyph horiz-adv-x="850" d="M 131 578 L 389 1157 L 672 1157 L 440 578 L 672 0 L 389 0 L 131 578 Z" unicode="‹" />
<glyph horiz-adv-x="850" d="M 463 0 L 180 0 L 412 578 L 180 1157 L 463 1157 L 717 578 L 463 0 Z" unicode="›" />
</font>
</defs>
</svg>
